<svg width="17" height="14" viewBox="0 0 17 14" fill="none" xmlns="http://www.w3.org/2000/svg">
<path d="M6.01709 7.27676C6.01709 7.27676 4.86951 13.4249 4.4302 13.7158C3.9909 14.0066 2.28298 14.1811 1.53885 13.5233C0.794721 12.87 0.817139 11.3845 1.04576 11.031C1.27438 10.682 4.3271 6.7935 4.3271 6.7935L6.01709 7.27229V7.27676Z" fill="#263238"/>
<path opacity="0.6" d="M1.00553 12.5747C1.09518 12.9416 1.26552 13.2862 1.53897 13.5278C1.76311 13.7247 2.07241 13.8455 2.4131 13.9082C3.17964 12.4852 5.02205 7.62578 5.2417 7.05303L4.63205 6.87852C4.10309 7.46022 1.94241 10.9102 1.00553 12.5702V12.5747Z" fill="#37474F"/>
<path d="M5.6539 0.573772H14.5566C15.5865 0.573772 16.4214 1.40717 16.4214 2.43522V6.70849C16.4214 7.73653 15.5865 8.56993 14.5566 8.56993H5.6539C4.624 8.56993 3.78909 7.73653 3.78909 6.70849V2.43522C3.78909 1.40717 4.624 0.573772 5.6539 0.573772Z" fill="#263238"/>
<path opacity="0.6" d="M4.97251 0.636415C5.04871 1.69243 5.41181 4.03266 7.0749 3.92974C8.98454 3.8134 14.2204 1.87588 15.6279 0.801974C15.3814 0.654311 15.0855 0.564819 14.7762 0.564819H5.43423C5.27733 0.564819 5.12043 0.587193 4.97699 0.631939L4.97251 0.636415Z" fill="#37474F"/>
</svg>
