<svg width="159" height="41" viewBox="0 0 159 41" fill="none" xmlns="http://www.w3.org/2000/svg">
<g style="mix-blend-mode:multiply" opacity="0.4">
<path d="M38.4768 40.3508C38.4768 40.3508 49.9608 23.4396 36.4097 6.61987H57.5035V40.3508H38.4768Z" fill="#BCBEC0"/>
</g>
<g style="mix-blend-mode:multiply" opacity="0.4">
<path d="M103.371 40.3508C103.371 40.3508 91.887 23.4396 105.438 6.61987H84.3442V40.3508H103.371Z" fill="#BCBEC0"/>
</g>
<g style="mix-blend-mode:multiply" opacity="0.4">
<path d="M152.399 40.3508C152.399 40.3508 160.437 22.7169 151.709 8.55481H158.177V40.3508H152.399Z" fill="#BCBEC0"/>
</g>
<g style="mix-blend-mode:multiply" opacity="0.4">
<path d="M1.14461 40.3508C1.14461 40.3508 9.18344 22.7169 0.455566 8.55481H6.92338V40.3508H1.14461Z" fill="#BCBEC0"/>
</g>
<g style="mix-blend-mode:multiply" opacity="0.4">
<path d="M101.253 3.65112H100.11V1.10323H100.858C101.028 0.453683 101.341 0.0419922 101.341 0.0419922H84.3442V1.10323H86.4757V3.65112H84.3442V6.61984H105.438C103.082 5.68669 101.851 4.6346 101.253 3.65112ZM89.0343 3.65112H87.3301V1.10323H89.0343V3.65112ZM91.5884 3.65112H89.8841V1.10323H91.5884V3.65112ZM94.1424 3.65112H92.4382V1.10323H94.1424V3.65112ZM96.6965 3.65112H94.9922V1.10323H96.6965V3.65112ZM99.2551 3.65112H97.5509V1.10323H99.2551V3.65112Z" fill="#BCBEC0"/>
</g>
</svg>
