<svg width="13" height="29" viewBox="0 0 13 29" fill="none" xmlns="http://www.w3.org/2000/svg">
<path d="M11.6256 28.369H1.90553L1.83203 3.2241L11.6256 3.19666V28.369Z" fill="#989898"/>
<path d="M11.9927 26.6366L1.61572 26.6672L1.61857 27.6233L11.9955 27.5926L11.9927 26.6366Z" fill="#5A5A5A"/>
<path d="M1.83203 3.98803L11.6256 3.96057V3.46655L1.83203 3.494V3.98803Z" fill="#5A5A5A"/>
<path d="M11.6252 7.0116H1.84082V7.50562H11.6252V7.0116Z" fill="#5A5A5A"/>
<path d="M6.7194 0.593842C2.50706 0.566397 0.812012 2.31835 0.812012 2.31835V3.45736H12.636V2.28634C12.636 2.28634 10.9272 0.543525 6.7194 0.593842Z" fill="#989898"/>
<path d="M6.72413 1.1062C3.15948 1.09247 1.72168 2.28637 1.72168 2.28637V3.01369L6.72872 2.99996L11.7312 2.98624V2.25893C11.7312 2.25893 10.2842 1.07418 6.71954 1.11078L6.72413 1.1062Z" fill="#00FF00"/>
<path d="M12.3788 28.369H1.2209L1.21631 27.262L12.3788 27.23V28.369Z" fill="#ACACAC"/>
<path d="M10.2786 4.80842L3.19531 4.82935L3.19943 6.21077L10.2828 6.18985L10.2786 4.80842Z" fill="#6C6C6C"/>
<path d="M4.14278 5.32817C4.14278 5.32817 4.11063 5.33732 4.08766 5.33732C4.08766 5.24583 4.04631 5.19551 3.95903 5.19551H3.89932V5.77188C3.89932 5.84507 3.91769 5.86794 3.99119 5.86794C3.99119 5.88166 3.99578 5.89539 3.99578 5.91826C3.94525 5.91826 3.89472 5.91826 3.84879 5.91826C3.80285 5.91826 3.74313 5.91826 3.70179 5.91826C3.70179 5.89997 3.70179 5.88166 3.70639 5.86794C3.77988 5.86794 3.79826 5.84507 3.79826 5.7673V5.19094H3.73854C3.62829 5.19094 3.61451 5.2504 3.59614 5.33274C3.57776 5.33274 3.5548 5.33274 3.54102 5.32359C3.5548 5.25955 3.55939 5.19552 3.55939 5.14062C3.6237 5.14062 3.73395 5.14062 3.84879 5.14062C3.96363 5.14062 4.07847 5.14062 4.14278 5.14062C4.14278 5.19552 4.14278 5.25041 4.15197 5.32359L4.14278 5.32817Z" fill="#9C9C9C"/>
<path d="M4.77684 5.7445C4.75846 5.79482 4.74927 5.86343 4.74468 5.91375C4.69874 5.91375 4.60687 5.91375 4.50122 5.91375C4.41853 5.91375 4.26235 5.91375 4.20723 5.91375C4.20723 5.89545 4.20723 5.87714 4.21182 5.86342C4.27154 5.86342 4.28991 5.84055 4.28991 5.75364V5.28707C4.28991 5.21388 4.27154 5.19101 4.20723 5.18643C4.20723 5.17271 4.20264 5.15441 4.20264 5.13611C4.24857 5.13611 4.35423 5.13611 4.39557 5.13611C4.57472 5.13611 4.68037 5.13611 4.71712 5.13611C4.71712 5.18643 4.7309 5.2642 4.74009 5.31451C4.72631 5.32366 4.70793 5.32824 4.68956 5.32824C4.68037 5.25962 4.64821 5.18643 4.50122 5.18643H4.39557V5.49748H4.46906C4.56093 5.49748 4.59309 5.47918 4.59309 5.40599C4.61146 5.40142 4.62524 5.39685 4.64821 5.39685C4.64821 5.43344 4.64821 5.47918 4.64821 5.52035C4.64821 5.56152 4.64821 5.61184 4.64821 5.65301C4.62984 5.65301 4.61146 5.653 4.59309 5.64843C4.5885 5.57067 4.55634 5.54779 4.46447 5.54779H4.39097V5.75364C4.39097 5.83598 4.40935 5.85886 4.49663 5.85886H4.50581C4.66659 5.85886 4.69415 5.80854 4.72631 5.71705C4.74928 5.7262 4.76306 5.73078 4.77684 5.7445Z" fill="#9C9C9C"/>
<path d="M5.1901 5.86342C5.31872 5.86342 5.35087 5.82683 5.38762 5.72162C5.41059 5.73077 5.42437 5.73534 5.43815 5.74906C5.41977 5.80395 5.41059 5.868 5.4014 5.91832C5.35547 5.91832 5.26359 5.91832 5.18091 5.91832C5.09822 5.91832 4.94204 5.91832 4.88692 5.91832C4.88692 5.90002 4.88692 5.88172 4.89151 5.868C4.95123 5.868 4.9696 5.84513 4.9696 5.75822V5.29163C4.9696 5.21844 4.95123 5.19557 4.88692 5.19557C4.88692 5.18185 4.88232 5.16356 4.88232 5.14526C4.92826 5.14526 4.98798 5.14526 5.02013 5.14526C5.07066 5.14526 5.112 5.14526 5.15794 5.14526C5.15794 5.16356 5.15794 5.18185 5.15335 5.19557C5.09363 5.19557 5.07526 5.21845 5.07526 5.29621V5.75822C5.07526 5.84056 5.09363 5.86342 5.18091 5.86342H5.1901Z" fill="#9C9C9C"/>
<path d="M6.09979 5.74444C6.08141 5.79475 6.07223 5.86337 6.06304 5.91368C6.0171 5.91368 5.92523 5.91368 5.81958 5.91368C5.73689 5.91368 5.58071 5.91368 5.52559 5.91368C5.52559 5.89539 5.52559 5.87708 5.53019 5.86336C5.5899 5.86336 5.60828 5.84049 5.60828 5.75358V5.28701C5.60828 5.21382 5.5899 5.19094 5.52559 5.19094C5.52559 5.17721 5.521 5.15892 5.521 5.14062C5.56693 5.14062 5.67258 5.14062 5.71393 5.14062C5.89308 5.14062 5.99414 5.14062 6.03548 5.14062C6.03548 5.19094 6.04926 5.2687 6.05845 5.31902C6.04467 5.32816 6.02629 5.33274 6.00792 5.33274C6.00332 5.26412 5.96657 5.19094 5.81958 5.19094H5.71393V5.502H5.78283C5.8747 5.502 5.90686 5.48369 5.90686 5.40593C5.92523 5.40135 5.9436 5.39678 5.96198 5.39678C5.96198 5.43338 5.96198 5.47912 5.96198 5.52029C5.96198 5.56145 5.96198 5.61178 5.96198 5.65294C5.9436 5.65294 5.92982 5.65294 5.91145 5.64837C5.90686 5.5706 5.8747 5.54773 5.78283 5.54773H5.71393V5.75358C5.71393 5.83592 5.7323 5.85879 5.81499 5.85879H5.82418C5.98495 5.85879 6.01251 5.80848 6.04467 5.71699C6.06764 5.72157 6.08142 5.73071 6.0952 5.74444H6.09979Z" fill="#9C9C9C"/>
<path d="M6.7657 5.36026C6.7657 5.48834 6.67842 5.62098 6.50845 5.62098C6.4763 5.62098 6.44874 5.61641 6.42577 5.60726C6.42577 5.58896 6.42577 5.57524 6.42577 5.56152C6.44415 5.56609 6.46711 5.57067 6.48549 5.57067C6.56817 5.57067 6.64626 5.53407 6.64626 5.39227C6.64626 5.26876 6.59114 5.191 6.45333 5.191C6.43955 5.191 6.42118 5.191 6.39361 5.19558V5.73992C6.39361 5.84055 6.42577 5.85885 6.49467 5.86342C6.49467 5.87714 6.49927 5.89087 6.49927 5.91375C6.46252 5.91375 6.40739 5.91375 6.35686 5.91375C6.30174 5.91375 6.23284 5.91375 6.20068 5.91375C6.20068 5.89545 6.20069 5.87714 6.20528 5.86342C6.265 5.86342 6.28337 5.84055 6.28337 5.76736V5.28707C6.28337 5.21388 6.265 5.19101 6.20528 5.18643C6.20528 5.17271 6.20068 5.15898 6.20068 5.13611C6.2604 5.13611 6.32012 5.13611 6.35686 5.13611C6.38902 5.13611 6.47171 5.13611 6.49927 5.13611C6.68761 5.13611 6.75651 5.23675 6.75651 5.35568L6.7657 5.36026Z" fill="#9C9C9C"/>
<path d="M7.5144 5.76283C7.5144 5.83602 7.53277 5.8589 7.59249 5.8589C7.59249 5.87263 7.59709 5.88634 7.59709 5.90922C7.55115 5.90922 7.50062 5.90922 7.45928 5.90922C7.41334 5.90922 7.36281 5.90922 7.32147 5.90922C7.32147 5.89092 7.32147 5.87263 7.32606 5.8589C7.38578 5.8589 7.40415 5.83602 7.40415 5.76283V5.5387C7.31228 5.5387 7.14691 5.5387 7.05504 5.54328V5.76283C7.05504 5.8406 7.07341 5.8589 7.13313 5.8589C7.13772 5.87263 7.14232 5.88634 7.14232 5.90922C7.09638 5.90922 7.04585 5.90922 7.00451 5.90922C6.95857 5.90922 6.90345 5.90922 6.8667 5.90922C6.8667 5.89092 6.8667 5.87263 6.8713 5.8589C6.93101 5.8589 6.94939 5.83602 6.94939 5.76283V5.28254C6.94939 5.20935 6.93101 5.18648 6.8713 5.1819C6.8667 5.16818 6.8667 5.15446 6.8667 5.13159C6.90804 5.13159 6.95398 5.13159 7.00451 5.13159C7.05504 5.13159 7.09638 5.13159 7.14232 5.13159C7.14232 5.14989 7.14232 5.16818 7.13313 5.1819C7.07341 5.1819 7.05504 5.20477 7.05504 5.28254V5.48839H7.40415V5.28254C7.40415 5.20477 7.38578 5.18648 7.32606 5.1819C7.32147 5.16818 7.32147 5.15446 7.32147 5.13159C7.36281 5.13159 7.40875 5.13159 7.45928 5.13159C7.50981 5.13159 7.55115 5.13159 7.59709 5.13159C7.59709 5.14989 7.59708 5.16818 7.59249 5.1819C7.53277 5.1819 7.5144 5.20477 7.5144 5.28254V5.76283Z" fill="#9C9C9C"/>
<path d="M8.45599 5.51577C8.45599 5.73991 8.2998 5.91373 8.07931 5.91373C7.85422 5.91373 7.70264 5.74448 7.70264 5.52034C7.70264 5.29162 7.86801 5.13153 8.07472 5.12695C8.29062 5.12695 8.4514 5.28248 8.4514 5.51577H8.45599ZM8.33656 5.54778C8.33656 5.34194 8.21253 5.18184 8.05175 5.18184C7.91853 5.18184 7.81748 5.30535 7.81748 5.48833C7.81748 5.68045 7.91853 5.85884 8.10228 5.85884C8.24927 5.85884 8.33656 5.7216 8.33656 5.54778Z" fill="#9C9C9C"/>
<path d="M9.2921 5.13159C9.2921 5.13159 9.29211 5.16361 9.28751 5.1819C9.23698 5.1819 9.21861 5.2185 9.21861 5.34201V5.90464C9.21861 5.90464 9.19105 5.90922 9.17267 5.90922L8.69953 5.29626V5.68966C8.69953 5.81774 8.7179 5.85433 8.77762 5.85433C8.77762 5.86805 8.78221 5.88176 8.78221 5.90464C8.75006 5.90464 8.70412 5.90464 8.67197 5.90464C8.63981 5.90464 8.58469 5.90464 8.55713 5.90464C8.55713 5.88634 8.55713 5.86805 8.56172 5.85433C8.62144 5.85433 8.63981 5.81774 8.63981 5.68966V5.22307V5.21849C8.61684 5.19104 8.60307 5.18648 8.56632 5.1819C8.56172 5.16361 8.56172 5.14531 8.56172 5.13159C8.58469 5.13159 8.61685 5.13159 8.64441 5.13159C8.67197 5.13159 8.69953 5.13159 8.7225 5.13159L9.16808 5.7171V5.34201C9.16808 5.2185 9.1497 5.1819 9.08539 5.1819C9.08539 5.15446 9.0808 5.14531 9.0808 5.13159C9.11296 5.13159 9.15889 5.13159 9.18645 5.13159C9.21401 5.13159 9.26455 5.13159 9.2967 5.13159H9.2921Z" fill="#9C9C9C"/>
<path d="M9.97684 5.73076C9.95846 5.78108 9.94928 5.84512 9.94469 5.90001C9.90334 5.90001 9.80687 5.90001 9.70122 5.90001C9.61853 5.90001 9.46235 5.90001 9.40723 5.90001C9.40723 5.88171 9.40723 5.86341 9.41182 5.84969C9.47154 5.84969 9.48992 5.82682 9.48992 5.73991V5.27333C9.48992 5.20015 9.47154 5.17726 9.41182 5.17726C9.41182 5.16354 9.40723 5.14525 9.40723 5.12695C9.45316 5.12695 9.55882 5.12695 9.60016 5.12695C9.77932 5.12695 9.88497 5.12695 9.92172 5.12695C9.92172 5.17727 9.9355 5.2596 9.94469 5.30534C9.9309 5.31449 9.91253 5.31907 9.89416 5.31907C9.88956 5.25045 9.85281 5.17726 9.70582 5.17726H9.60016V5.48833H9.67366C9.76553 5.48833 9.79768 5.47002 9.80228 5.39226C9.82065 5.38768 9.83444 5.38311 9.85741 5.38311C9.85741 5.41971 9.85741 5.46545 9.85741 5.50661C9.85741 5.54778 9.85741 5.5981 9.85741 5.63927C9.83903 5.63927 9.82066 5.63927 9.80688 5.63469C9.80228 5.55693 9.77013 5.53406 9.67826 5.53406H9.60476V5.73991C9.60476 5.82225 9.62313 5.84512 9.71041 5.84512H9.715C9.88038 5.84512 9.90334 5.79481 9.9355 5.70332C9.95846 5.71247 9.97225 5.71704 9.98603 5.73076H9.97684Z" fill="#9C9C9C"/>
<path d="M7.10523 16.6771C7.10523 16.851 6.95365 16.9928 6.7699 16.9928C6.58616 16.9928 6.43457 16.8555 6.43457 16.6817C6.43457 16.5079 6.58616 16.3661 6.7699 16.3661C6.95365 16.3661 7.10523 16.5079 7.10523 16.6817V16.6771Z" fill="#ACACAC"/>
<path d="M10.3773 8.72381L3.12402 8.74524L3.17133 24.6226L10.4246 24.6011L10.3773 8.72381Z" fill="#5A5A5A"/>
<path d="M5.52724 9.25008L3.62549 9.25537L3.63199 11.5745L5.53374 11.5692L5.52724 9.25008Z" fill="#ACACAC"/>
<path d="M7.69082 9.23958L5.78906 9.24487L5.79557 11.564L7.69732 11.5588L7.69082 9.23958Z" fill="#ACACAC"/>
<path d="M9.85878 9.23348L7.95703 9.23877L7.96353 11.5579L9.86528 11.5526L9.85878 9.23348Z" fill="#ACACAC"/>
<path d="M5.53407 11.7614L3.63232 11.7667L3.63883 14.0859L5.54058 14.0806L5.53407 11.7614Z" fill="#ACACAC"/>
<path d="M7.69765 11.7508L5.7959 11.7561L5.8024 14.0753L7.70415 14.07L7.69765 11.7508Z" fill="#ACACAC"/>
<path d="M9.86122 11.7494L7.95947 11.7546L7.96598 14.0738L9.86773 14.0685L9.86122 11.7494Z" fill="#ACACAC"/>
<path d="M5.5414 14.2725L3.63965 14.2778L3.64615 16.597L5.5479 16.5917L5.5414 14.2725Z" fill="#ACACAC"/>
<path d="M7.70497 14.262L5.80322 14.2673L5.80973 16.5865L7.71148 16.5812L7.70497 14.262Z" fill="#ACACAC"/>
<path d="M9.87295 14.2559L7.97119 14.2612L7.9777 16.5804L9.87945 16.5751L9.87295 14.2559Z" fill="#ACACAC"/>
<path d="M5.54823 16.784L3.64648 16.7893L3.65299 19.1085L5.55474 19.1032L5.54823 16.784Z" fill="#ACACAC"/>
<path d="M7.71181 16.7779L5.81006 16.7832L5.81656 19.1024L7.71831 19.0971L7.71181 16.7779Z" fill="#ACACAC"/>
<path d="M9.87978 16.7673L7.97803 16.7726L7.98453 19.0917L9.88628 19.0865L9.87978 16.7673Z" fill="#ACACAC"/>
<path d="M5.55067 19.2952L3.64893 19.3005L3.65543 21.6197L5.55718 21.6144L5.55067 19.2952Z" fill="#ACACAC"/>
<path d="M7.72353 19.2891L5.82178 19.2944L5.82828 21.6136L7.73003 21.6083L7.72353 19.2891Z" fill="#ACACAC"/>
<path d="M9.8871 19.2785L7.98535 19.2838L7.99186 21.603L9.8936 21.5977L9.8871 19.2785Z" fill="#ACACAC"/>
<path d="M5.558 21.8064L3.65625 21.8116L3.66275 24.1308L5.5645 24.1255L5.558 21.8064Z" fill="#ACACAC"/>
<path d="M7.72597 21.8004L5.82422 21.8057L5.83072 24.1248L7.73247 24.1195L7.72597 21.8004Z" fill="#ACACAC"/>
<path d="M9.89442 21.7898L7.99268 21.795L7.99918 24.1142L9.90093 24.1089L9.89442 21.7898Z" fill="#ACACAC"/>
<g style="mix-blend-mode:multiply">
<path d="M7.87237 26.6536C7.87237 26.6536 9.94869 26.2145 9.87519 14.6049C9.80628 3.37501 7.38086 3.48021 7.38086 3.48021L11.6208 3.47107V26.6445L7.86778 26.6536H7.87237Z" fill="#BCBEC0"/>
</g>
</svg>
