<svg width="9" height="10" viewBox="0 0 9 10" fill="none" xmlns="http://www.w3.org/2000/svg">
<path d="M8.86103 2.57326C9.03586 3.01625 9.0762 7.32531 8.79379 7.66986C8.51586 8.01441 3.93452 9.67002 3.47729 9.63422C3.02005 9.59842 0.424557 7.63407 0.424557 7.63407V0.210655H3.41005C3.41005 0.210655 8.69517 2.14817 8.86103 2.56879V2.57326Z" fill="#263238"/>
<path opacity="0.2" d="M3.48165 9.63422C3.93889 9.66554 8.52023 8.00993 8.80264 7.66539C9.08057 7.32084 9.04022 3.01625 8.8654 2.56879C8.8654 2.55536 8.84747 2.54194 8.83402 2.52404C8.3992 2.15712 3.79993 1.62911 3.58476 1.62911C3.36959 1.62911 3.33372 9.30758 3.48165 9.62975V9.63422Z" fill="#1D1D1D"/>
</svg>
