<svg width="59" height="14" viewBox="0 0 59 14" fill="none" xmlns="http://www.w3.org/2000/svg">
<path d="M18.6629 0.793579H10.6333V6.14093H18.6629V0.793579Z" fill="#7E7E7E"/>
<path d="M18.6629 4.62683H10.6333V6.1455H18.6629V4.62683Z" fill="#9C9C9C"/>
<path d="M28.1854 0.793579H20.1558V6.14093H28.1854V0.793579Z" fill="#7E7E7E"/>
<path d="M28.1854 4.62683H20.1558V6.1455H28.1854V4.62683Z" fill="#9C9C9C"/>
<path d="M37.7128 0.793579H29.6831V6.14093H37.7128V0.793579Z" fill="#7E7E7E"/>
<path d="M37.7128 4.62683H29.6831V6.1455H37.7128V4.62683Z" fill="#9C9C9C"/>
<path d="M47.4007 0.793579H39.3711V6.14093H47.4007V0.793579Z" fill="#7E7E7E"/>
<path d="M47.4007 4.62683H39.3711V6.1455H47.4007V4.62683Z" fill="#9C9C9C"/>
<path d="M9.0668 0.747803H0.123047V7.52235H9.0668V0.747803Z" fill="#7E7E7E"/>
<path d="M9.0668 6.00366H0.123047V7.52233H9.0668V6.00366Z" fill="#9C9C9C"/>
<path d="M58.2279 0.747803H50.8735V13.716H58.2279V0.747803Z" fill="#7E7E7E"/>
<path d="M58.2279 12.1973H50.8735V13.7159H58.2279V12.1973Z" fill="#9C9C9C"/>
</svg>
