<svg width="16" height="18" viewBox="0 0 16 18" fill="none" xmlns="http://www.w3.org/2000/svg">
<path d="M7.65329 0.222017C12.3601 0.222017 15.7715 4.64742 15.7715 9.33236C15.7715 14.0173 13.2343 18.0847 7.33501 17.7626C1.68678 17.4583 0.5706 12.223 0.5706 8.82673C0.5706 5.43049 3.3185 0.217545 7.65329 0.217545V0.222017Z" fill="#C7C7C7"/>
<path opacity="0.1" d="M0.678274 10.6345C1.06379 13.8249 2.61479 17.5075 7.33061 17.7626C13.2299 18.0803 15.7671 14.0128 15.7671 9.33236C15.7671 8.07947 15.5205 6.84 15.0723 5.70792C15.4264 6.78183 15.3905 11.4131 14.373 11.4131C13.4495 11.4131 12.1585 9.00124 12.1585 9.00124C12.1585 9.00124 12.3333 15.2165 7.65338 15.928C3.78031 16.5186 1.72275 14.2992 0.678274 10.6345Z" fill="#1D1D1D"/>
<path d="M6.15602 2.84415C9.97529 2.84415 12.136 5.73476 12.3422 9.75297C12.5215 13.2879 10.4325 17.3419 5.93188 16.9348C2.02743 16.5813 0.884341 12.3438 0.74986 10.2497C0.579516 7.57383 1.99605 2.84415 6.15602 2.84415Z" fill="#A6A6A6"/>
<path d="M6.03067 3.2066C9.65271 3.2066 11.6834 5.94955 11.8761 9.76193C12.0465 13.1134 10.0651 16.9616 5.79756 16.5723C2.09484 16.2367 1.01003 12.214 0.880032 10.2318C0.718654 7.69465 2.0814 3.2066 6.03067 3.2066Z" fill="white"/>
<path d="M3.69059 15.8609C4.27334 16.2412 4.96817 16.5007 5.79747 16.5723C9.8633 16.9392 11.8536 13.4669 11.885 10.2362C11.0736 10.2541 7.95366 10.2183 6.0485 8.99677C6.0485 8.99677 2.42647 10.988 0.929247 10.7061C1.06821 11.8471 1.48958 13.4043 2.40405 14.6258C3.35887 13.4669 4.76645 11.8516 5.32679 11.6592C5.95886 11.4444 4.5154 14.2142 3.6861 15.8519L3.69059 15.8609Z" fill="#EBEBEB"/>
<path d="M13.0459 6.31647C13.7362 9.03704 13.5121 12.5675 11.6697 14.7735C10.6924 15.8608 9.35211 16.6126 7.89523 16.805C6.43835 17.0064 4.91423 16.635 3.64114 15.8251C4.82457 16.8005 6.39802 17.2838 7.93559 17.1451C9.49557 17.0243 10.9614 16.2188 12.0014 15.0688C13.9424 12.7599 14.0859 9.01466 13.0459 6.31199V6.31647Z" fill="#A6A6A6"/>
</svg>
