<svg width="40" height="53" viewBox="0 0 40 53" fill="none" xmlns="http://www.w3.org/2000/svg">
<path d="M0.949188 28.1971C1.21815 39.2897 5.10018 52.8926 13.7563 52.8926C14.6035 52.8926 26.1958 53.1477 26.9534 52.8613C33.9285 50.2347 38.0616 35.7906 37.2771 23.0647C36.6675 13.149 33.8927 2.04742 26.5948 0.713976C26.1062 0.624484 13.9177 0.713976 13.3887 0.713976C4.65191 0.713976 0.657806 16.2678 0.944702 28.1971H0.949188Z" fill="#263238"/>
<path d="M14.8457 28.1971C15.1147 39.2897 18.9967 52.8926 27.6528 52.8926C36.309 52.8926 40.2672 37.1732 39.3976 23.0647C38.7476 12.4912 35.7397 0.713974 27.2853 0.713974C18.8309 0.713974 14.5543 16.2678 14.8412 28.1971H14.8457Z" fill="#37474F"/>
<path d="M19.4941 27.7631C19.6779 35.3744 22.121 44.704 27.5137 44.704C32.9064 44.704 35.345 33.9202 34.7802 24.2371C34.3588 16.9837 32.4671 8.90254 27.1999 8.90254C21.9327 8.90254 19.2924 19.5745 19.4941 27.7586V27.7631Z" fill="#C7C7C7"/>
<path d="M20.7359 27.6691C20.8928 34.5645 22.9369 43.0171 27.46 43.0171C31.983 43.0171 34.0271 33.2445 33.5565 24.4743C33.2023 17.901 31.6154 10.5805 27.2 10.5805C22.7845 10.5805 20.57 20.2457 20.7359 27.6647V27.6691Z" fill="#263238"/>
<path d="M21.2244 27.6199C21.3634 34.1216 23.2192 42.0998 27.3164 42.0998C31.4136 42.0998 33.2695 32.8821 32.8391 24.6085C32.5164 18.4067 31.0774 11.5023 27.0788 11.5023C23.0802 11.5023 21.0675 20.6216 21.2199 27.6154L21.2244 27.6199Z" fill="#C7C7C7"/>
<path d="M26.7917 14.1289C26.7917 14.6972 27.0517 15.1581 27.37 15.1581C27.6883 15.1581 27.9482 14.6972 27.9482 14.1289C27.9482 13.5606 27.6883 13.0997 27.37 13.0997C27.0517 13.0997 26.7917 13.5606 26.7917 14.1289Z" fill="#A6A6A6"/>
<path d="M26.7917 39.2987C26.7917 39.867 27.0517 40.3279 27.37 40.3279C27.6883 40.3279 27.9482 39.867 27.9482 39.2987C27.9482 38.7304 27.6883 38.2695 27.37 38.2695C27.0517 38.2695 26.7917 38.7304 26.7917 39.2987Z" fill="#A6A6A6"/>
<path d="M29.8806 19.23C29.8806 19.7983 30.1406 20.2592 30.4588 20.2592C30.7771 20.2592 31.0371 19.7983 31.0371 19.23C31.0371 18.6617 30.7771 18.2008 30.4588 18.2008C30.1406 18.2008 29.8806 18.6617 29.8806 19.23Z" fill="#A6A6A6"/>
<path d="M23.448 19.23C23.448 19.7983 23.7079 20.2592 24.0262 20.2592C24.3445 20.2592 24.6045 19.7983 24.6045 19.23C24.6045 18.6617 24.3445 18.2008 24.0262 18.2008C23.7079 18.2008 23.448 18.6617 23.448 19.23Z" fill="#A6A6A6"/>
<path d="M29.8806 34.3766C29.8806 34.9449 30.1406 35.4058 30.4588 35.4058C30.7771 35.4058 31.0371 34.9449 31.0371 34.3766C31.0371 33.8083 30.7771 33.3474 30.4588 33.3474C30.1406 33.3474 29.8806 33.8083 29.8806 34.3766Z" fill="#A6A6A6"/>
<path d="M24.0262 35.4058C23.7068 35.4058 23.448 34.945 23.448 34.3766C23.448 33.8082 23.7068 33.3474 24.0262 33.3474C24.3456 33.3474 24.6045 33.8082 24.6045 34.3766C24.6045 34.945 24.3456 35.4058 24.0262 35.4058Z" fill="#A6A6A6"/>
<path d="M22.1389 26.8055C22.1389 27.3738 22.3989 27.8347 22.7171 27.8347C23.0354 27.8347 23.2954 27.3738 23.2954 26.8055C23.2954 26.2373 23.0354 25.7764 22.7171 25.7764C22.3989 25.7764 22.1389 26.2373 22.1389 26.8055Z" fill="#A6A6A6"/>
<path d="M31.0368 26.8055C31.0368 27.3738 31.2968 27.8347 31.6151 27.8347C31.9334 27.8347 32.1934 27.3738 32.1934 26.8055C32.1934 26.2373 31.9334 25.7764 31.6151 25.7764C31.2968 25.7764 31.0368 26.2373 31.0368 26.8055Z" fill="#A6A6A6"/>
<path d="M23.838 27.4141C23.95 31.9916 25.4293 37.6028 28.7017 37.6028C31.9741 37.6028 33.4534 31.1146 33.1082 25.2931C32.8527 20.9303 31.7051 16.0709 28.509 16.0709C25.3128 16.0709 23.7124 22.4875 23.8335 27.4141H23.838Z" fill="#A6A6A6"/>
<path d="M24.6091 27.4007C24.7166 31.8529 26.1601 37.312 29.3383 37.312C32.5166 37.312 33.96 31.0027 33.6283 25.3378C33.3772 21.0914 32.261 16.3662 29.1545 16.3662C26.048 16.3662 24.488 22.6083 24.6091 27.3962V27.4007Z" fill="#C7C7C7"/>
</svg>
