<svg width="206" height="109" viewBox="0 0 206 109" fill="none" xmlns="http://www.w3.org/2000/svg">
<g opacity="0.2">
<path d="M177.954 8.94726C179.254 20.8453 180.89 36.8331 182.396 48.6775C184.261 52.284 185.032 56.3425 186.063 60.2489C187.13 61.7568 187.498 63.7212 187.758 65.5379C188.381 71.1177 187.856 76.7692 187.807 82.3759L187.076 104.879L187.655 93.6341C187.986 86.1346 188.349 78.6396 188.444 71.1267C188.47 68.3077 188.367 65.435 187.628 62.692C187.341 61.7479 187.067 60.8529 186.431 60.0475L186.485 60.1504C185.983 58.0339 185.449 55.9264 184.826 53.8367C184.261 52.0245 183.714 50.1496 182.764 48.4895C182.719 48.4448 182.719 48.2792 182.701 48.1495L182.652 47.7468C181.307 36.2246 179.406 20.4605 177.949 8.95173L177.954 8.94726Z" fill="#1D1D1D"/>
<path d="M143.141 50.1049C144.374 52.5704 144.992 55.3044 145.27 58.0339C148.592 60.4592 151.246 64.0389 151.985 68.1287C152.331 70.5853 152.259 73.0955 152.308 75.5745C152.326 85.1412 152.107 99.2631 152.003 108.861C152.474 97.7731 152.783 86.6715 152.743 75.57C152.68 73.0687 152.743 70.5495 152.375 68.0616C151.613 63.8957 148.852 60.3026 145.445 57.8773C145.315 55.6534 144.392 52.378 143.146 50.1094L143.141 50.1049Z" fill="#1D1D1D"/>
<path d="M79.1952 105.613C79.2131 99.7106 79.3073 93.8086 79.5942 87.9155C79.8407 84.0136 79.9662 80.0267 80.9883 76.2412C85.0407 62.5086 103.057 59.5508 115.398 58.204C123.238 57.4478 131.128 57.3672 138.999 57.5954H139.214L139.228 57.3985C139.519 53.2103 136.632 49.4158 132.849 47.8989C130.998 47.0756 128.994 46.6997 127.03 46.3909C117.159 44.977 107.181 44.4534 97.2292 43.997C85.2828 43.5451 73.3049 43.3393 61.3674 44.1715C57.3958 44.4669 53.4151 44.8606 49.5196 45.7198C53.4196 44.8964 57.4002 44.5385 61.3719 44.2789C81.2573 43.2721 101.241 44.0686 121.046 46.0061C126.667 46.7937 133.593 46.7981 137.211 51.8634C138.313 53.4564 138.883 55.4431 138.784 57.3493L139.013 57.1524C127.201 56.8929 115.25 57.1301 103.666 59.6806C94.3737 61.7702 83.5255 66.1151 80.7597 76.1785C79.7332 80.0044 79.648 83.9823 79.4373 87.911C79.2042 93.8086 79.1638 99.7151 79.1997 105.617L79.1952 105.613Z" fill="#1D1D1D"/>
<path d="M33.8301 55.6758C27.5901 57.752 23.856 64.5848 22.695 70.715C20.6061 81.3557 20.8705 92.2693 20.7495 103.067C21.2919 92.3051 21.0857 81.4228 23.094 70.8C24.255 64.6698 27.7067 58.0295 33.8301 55.6758Z" fill="#1D1D1D"/>
<path d="M96.3729 82.1969C96.1084 86.3002 96.1039 90.4168 96.2025 94.5245C96.3953 98.6233 96.5253 102.785 97.5967 106.767C97.4353 105.899 97.256 104.61 97.1663 103.72C96.5208 96.735 96.5432 89.231 96.3684 82.1924L96.3729 82.1969Z" fill="#1D1D1D"/>
<path d="M1.48277 77.9147C1.04795 82.1164 0.908991 86.3449 0.931404 90.5689C1.11071 94.7482 1.03449 99.1513 2.70654 103.067C1.38414 99.0886 1.51416 94.7169 1.37968 90.5645C1.30347 86.412 1.41105 82.0806 1.48277 77.9147Z" fill="#1D1D1D"/>
<path d="M141.72 12.9431C142.428 9.79296 144.993 7.40351 147.835 6.07902C150.085 5.0588 152.541 4.54422 154.94 3.99384C168.8 1.01822 183.091 0.347021 197.225 1.08533C199.749 1.1972 203.178 1.49253 205.711 1.72073C203.151 1.41646 199.753 1.05401 197.239 0.866078C183.087 -0.113865 168.724 0.521532 154.863 3.66272C152.456 4.25337 149.991 4.80822 147.736 5.86871C144.889 7.26032 142.357 9.76164 141.725 12.9431H141.72Z" fill="#1D1D1D"/>
<path d="M70.0685 11.2741C71.4357 7.35429 77.5053 4.8485 81.0332 3.11234C80.4684 3.28238 79.9125 3.47926 79.3522 3.66719C76.0484 4.92009 70.7902 7.4751 70.0685 11.2741Z" fill="#1D1D1D"/>
<path d="M63.6357 96.5247C63.4519 100.422 58.7719 100.543 55.7909 100.427C52.4737 100.386 49.152 100.315 45.8348 100.194C41.7152 100.001 37.5193 100.082 33.4446 99.4824C30.7101 98.9141 29.9973 96.1399 30.1094 93.6878C29.8584 96.2428 30.5353 99.0886 33.3728 99.7554C37.4745 100.494 41.6704 100.404 45.8213 100.641C49.143 100.726 52.4647 100.807 55.7909 100.771C58.7898 100.825 63.6581 100.543 63.6357 96.5292V96.5247Z" fill="#1D1D1D"/>
<path d="M66.1729 65.1173C65.9622 59.0541 59.8433 57.0406 54.6702 56.9108C49.4927 56.5707 44.2748 56.2709 39.0972 56.7452C35.8204 57.0629 31.5797 57.9802 30.589 61.6181C31.7545 58.0966 35.8697 57.3404 39.1286 57.0898C44.2837 56.7094 49.4837 57.0316 54.6433 57.318C59.7581 57.4388 65.6708 59.1794 66.1729 65.1217V65.1173Z" fill="#1D1D1D"/>
</g>
</svg>
