<svg width="32" height="6" viewBox="0 0 32 6" fill="none" xmlns="http://www.w3.org/2000/svg">
<path d="M1.68123 2.96322C2.66295 2.96322 2.53295 5.49586 1.68123 5.71959C0.829514 5.94332 0.0719333 5.71512 0.139174 4.89626C0.206415 4.0774 0.896755 2.96322 1.68123 2.96322Z" fill="#263238"/>
<path d="M22.5663 1.27181C22.5663 1.27181 13.7892 0.596138 13.3543 0.784072C12.9195 0.972007 1.04928 4.70832 1.02239 3.58967C1.00894 2.95427 1.26893 3.22722 1.40341 3.00349C1.53789 2.77976 13.0809 0.605089 13.3454 0.520071C13.6099 0.430578 22.5484 1.0257 22.5484 1.0257L22.5708 1.27181H22.5663Z" fill="#263238"/>
<path d="M31.6437 0.461903C31.6437 0.461903 14.6721 1.31655 13.148 1.49107C11.6239 1.66558 4.80568 2.86478 4.80568 2.86478V3.25855L31.8096 0.734852L31.6392 0.466375L31.6437 0.461903Z" fill="#263238"/>
</svg>
