<svg width="130" height="17" viewBox="0 0 130 17" fill="none" xmlns="http://www.w3.org/2000/svg">
<path d="M128.82 5.96846C128.82 7.10501 129.313 14.1526 128.82 14.6403C128.327 15.1325 111.225 14.1794 110.831 14.0496C110.436 13.9199 109.782 13.1323 109.782 13.1323L6.83617 9.59291C6.83617 9.59291 7.00203 10.5415 6.83617 10.7071C6.67031 10.8727 3.09312 10.5102 2.56864 10.4431C2.04416 10.376 0.206238 9.06491 0.0717621 8.80538C-0.0582428 8.54138 0.0045166 3.43135 0.0717621 2.8407C0.139008 2.25005 3.94482 0.348327 4.53653 0.285683C5.12825 0.218563 9.32857 0.155918 9.39581 0.285683C9.46305 0.415447 9.13132 0.746569 9.13132 0.746569L128.82 5.96399V5.96846Z" fill="#263238"/>
<path d="M9.13589 0.746567C9.13589 0.746567 6.58073 2.77805 6.61211 2.77805C6.64349 2.77805 110.019 7.25715 110.019 7.25715L112.48 5.25252L9.13589 0.746567Z" fill="#37474F"/>
<path d="M109.782 13.1323C109.957 10.989 109.818 7.9373 109.782 5.76711C109.213 8.1834 109.343 10.7071 109.782 13.1323Z" fill="#1D1D1D"/>
<path d="M9.13589 0.746567C8.40073 1.15823 7.6835 1.60122 7.01558 2.12923C6.8273 2.29926 6.4866 2.5051 6.43729 2.80937C6.31626 5.07801 6.52695 7.34665 6.84074 9.59291C6.93488 7.91045 6.89901 6.23694 6.85867 4.5679C6.85867 4.03542 6.78248 3.29711 6.84972 2.80937C7.50868 2.05316 8.3828 1.43566 9.14038 0.746567H9.13589Z" fill="#1D1D1D"/>
<path d="M74.6956 6.97524C74.6956 6.97524 74.9601 16.2825 74.4311 16.4794C73.9022 16.6762 35.3687 15.1683 34.777 14.9088C34.1853 14.6447 34.5798 5.47177 34.777 5.17644C34.9742 4.88112 74.6732 6.19218 74.6956 6.97972V6.97524Z" fill="#263238"/>
<path d="M73.8258 7.56143C73.8258 7.56143 74.0499 15.4412 73.6017 15.6113C73.1579 15.7768 36.0679 14.5016 35.5658 14.2778C35.0638 14.0541 35.4 6.28616 35.5658 6.03558C35.7317 5.785 73.8079 6.89471 73.8213 7.56143H73.8258Z" fill="white"/>
<path opacity="0.2" d="M121.401 14.0094C121.419 14.081 121.639 14.3494 121.916 14.6671C125.498 14.8014 128.618 14.8461 128.824 14.6403C129.317 14.1526 128.824 7.10501 128.824 5.96846L124.691 5.785C123.553 6.64413 121.401 8.30869 121.401 8.63087C121.401 9.06938 121.356 13.7856 121.401 14.0049V14.0094Z" fill="#1D1D1D"/>
</svg>
