<svg width="11" height="11" viewBox="0 0 11 11" fill="none" xmlns="http://www.w3.org/2000/svg">
<path d="M10.7267 5.62623C10.7267 2.80388 8.42988 0.516724 5.59102 0.516724C2.75217 0.516724 0.459961 2.80388 0.459961 5.62623V7.4102L1.2914 6.6097H9.95496L10.7221 7.4102V5.74058C10.7221 5.70399 10.7267 5.66282 10.7267 5.62623Z" fill="#5A5A5A"/>
<path d="M10.0422 5.73599C10.0422 8.16495 8.06237 10.1365 5.62316 10.1365C3.18395 10.1365 1.2041 8.16495 1.2041 5.73599C1.2041 3.30703 3.18395 1.33093 5.62316 1.33093C8.06237 1.33093 10.0422 3.30246 10.0422 5.73599Z" fill="#9C9C9C"/>
<path d="M8.49397 5.73594C8.49397 7.31408 7.20776 8.59488 5.62296 8.59488C4.03817 8.59488 2.75195 7.31408 2.75195 5.73594C2.75195 4.15781 4.03817 2.87244 5.62296 2.87244C7.20776 2.87244 8.49397 4.15323 8.49397 5.73594Z" fill="#58595B"/>
<path d="M7.80065 5.73596C7.80065 6.92986 6.82681 7.89962 5.62788 7.89962C4.42894 7.89962 3.45508 6.92986 3.45508 5.73596C3.45508 4.54207 4.42894 3.56775 5.62788 3.56775C6.82681 3.56775 7.80065 4.5375 7.80065 5.73596Z" fill="#BBBDBF"/>
<path d="M7.32291 5.73594C7.32291 6.6691 6.56037 7.42386 5.62787 7.42386C4.69536 7.42386 3.92822 6.6691 3.92822 5.73594C3.92822 4.80278 4.68617 4.04346 5.62787 4.04346C6.56956 4.04346 7.32291 4.80278 7.32291 5.73594Z" fill="#989898"/>
<path d="M6.64305 6.64629C6.77626 6.64629 6.89572 6.67829 7.01056 6.73319C7.21268 6.44958 7.33669 6.11109 7.33669 5.74057C7.33669 5.68568 7.32292 5.63079 7.31833 5.57132C6.90031 5.51186 6.57876 5.15506 6.57876 4.72507C6.57876 4.60157 6.60631 4.48721 6.65225 4.382C6.36744 4.16243 6.00914 4.02979 5.62328 4.02979C5.56816 4.02979 5.51762 4.03893 5.46709 4.04351C5.44412 4.49636 5.06744 4.85315 4.60808 4.85315C4.46568 4.85315 4.33707 4.81656 4.21764 4.7571C4.0247 5.03613 3.90527 5.37005 3.90527 5.73599C3.90527 5.79088 3.91904 5.84578 3.92364 5.90067C4.37841 5.92355 4.74131 6.29406 4.74131 6.75607C4.74131 6.8933 4.70456 7.02137 4.64944 7.13573C4.92505 7.32785 5.26039 7.43763 5.62328 7.43763C5.6784 7.43763 5.73352 7.42849 5.78864 7.42391C5.82999 6.98478 6.19288 6.64171 6.64305 6.64171V6.64629Z" fill="url(#paint0_linear_153_15472)"/>
<path d="M6.25249 5.12767C6.25249 5.27405 6.13305 5.39755 5.98146 5.39755C5.82987 5.39755 5.71045 5.27405 5.71045 5.12767C5.71045 4.98129 5.82987 4.85779 5.98146 4.85779C6.13305 4.85779 6.25249 4.98129 6.25249 5.12767Z" fill="#989898"/>
<path d="M6.25249 6.33069C6.25249 6.48164 6.13305 6.59599 5.98146 6.59599C5.82987 6.59599 5.71045 6.47706 5.71045 6.33069C5.71045 6.18431 5.82987 6.06079 5.98146 6.06079C6.13305 6.06079 6.25249 6.17974 6.25249 6.33069Z" fill="#989898"/>
<path d="M6.63826 5.73144C6.63826 5.87782 6.51882 5.99675 6.36723 5.99675C6.21564 5.99675 6.09619 5.87782 6.09619 5.73144C6.09619 5.58507 6.21564 5.46155 6.36723 5.46155C6.51882 5.46155 6.63826 5.58049 6.63826 5.73144Z" fill="#989898"/>
<path d="M5.06738 5.12767C5.06738 5.27405 5.18682 5.39755 5.33382 5.39755C5.48082 5.39755 5.60486 5.27405 5.60486 5.12767C5.60486 4.98129 5.48541 4.85779 5.33382 4.85779C5.18223 4.85779 5.06738 4.98129 5.06738 5.12767Z" fill="#989898"/>
<path d="M5.06738 6.33069C5.06738 6.48164 5.18682 6.59599 5.33382 6.59599C5.48082 6.59599 5.60486 6.47706 5.60486 6.33069C5.60486 6.18431 5.48541 6.06079 5.33382 6.06079C5.18223 6.06079 5.06738 6.17974 5.06738 6.33069Z" fill="#989898"/>
<path d="M4.68164 5.73144C4.68164 5.87782 4.80105 5.99675 4.94805 5.99675C5.09505 5.99675 5.21909 5.87782 5.21909 5.73144C5.21909 5.58507 5.09964 5.46155 4.94805 5.46155C4.79646 5.46155 4.68164 5.58049 4.68164 5.73144Z" fill="#989898"/>
<defs>
<linearGradient id="paint0_linear_153_15472" x1="3.91446" y1="5.736" x2="7.33669" y2="5.736" gradientUnits="userSpaceOnUse">
<stop stop-color="#D4D4D6"/>
<stop offset="1" stop-color="#E5E5E6"/>
</linearGradient>
</defs>
</svg>
