<svg width="24" height="45" viewBox="0 0 24 45" fill="none" xmlns="http://www.w3.org/2000/svg">
<path d="M23.9921 0.611206H0.739258V44.3507H23.9921V0.611206Z" fill="#00FF00"/>
<path d="M23.9921 2.08411H0.739258V3.00354H23.9921V2.08411Z" fill="#6C6C6C"/>
<g style="mix-blend-mode:multiply">
<path d="M23.9921 31.4878H0.739258V32.8738H23.9921V31.4878Z" fill="#BCBEC0"/>
</g>
<path d="M0.739258 12.5593L12.3703 5.75732L23.9967 12.5593H0.739258Z" fill="#00E800"/>
<g style="mix-blend-mode:multiply">
<path d="M23.9921 12.5593H0.739258V14.2976H23.9921V12.5593Z" fill="#BCBEC0"/>
</g>
<path d="M6.78459 17.2526H4.38672V29.1961H6.78459V17.2526Z" fill="#00E800"/>
<path d="M11.3046 17.2526H8.90674V29.1961H11.3046V17.2526Z" fill="#00E800"/>
<path d="M15.8292 17.2526H13.4268V29.1961H15.8292V17.2526Z" fill="#00E800"/>
<path d="M20.3495 17.2526H17.9517V29.1961H20.3495V17.2526Z" fill="#00E800"/>
<path d="M9.69238 44.3506V37.1827C9.69238 35.9705 10.6892 34.9779 11.9065 34.9779H12.8298C14.0471 34.9779 15.0439 35.9705 15.0439 37.1827V44.3506H9.69238Z" fill="#00AD00"/>
</svg>
