<svg width="27" height="23" viewBox="0 0 27 23" fill="none" xmlns="http://www.w3.org/2000/svg">
<path d="M1.89119 19.9632C2.87291 19.9632 2.74291 22.4959 1.89119 22.7196C1.03947 22.9433 0.281894 22.7151 0.349135 21.8963C0.416376 21.0774 1.10672 19.9632 1.89119 19.9632Z" fill="#263238"/>
<path d="M19.7461 6.69147C19.7461 6.69147 14.2324 11.5196 13.8379 11.7836C13.4434 12.0476 0.349394 19.9229 1.27732 20.5583C1.80179 20.9163 1.71662 20.5494 1.97662 20.5583C2.2411 20.5673 13.8379 12.1147 14.0575 11.9402C14.2772 11.7657 19.9434 6.84809 19.9434 6.84809L19.7461 6.69595V6.69147Z" fill="#263238"/>
<path d="M26.246 0.270386C26.246 0.270386 14.1964 12.2311 13.1788 13.3766C12.1613 14.5221 7.89371 19.9632 7.89371 19.9632L8.15371 20.2586L26.5508 0.359877L26.246 0.270386Z" fill="#263238"/>
</svg>
