<svg width="29" height="9" viewBox="0 0 29 9" fill="none" xmlns="http://www.w3.org/2000/svg">
<path d="M28.3492 4.19273C28.7302 4.40303 22.3962 8.91346 21.6968 8.91346H0.995661C0.646009 8.91346 0.695318 8.22884 0.811869 8.01853C0.928419 7.80375 1.30497 7.64266 1.30497 7.64266V2.33128C1.30497 2.33128 0.84325 2.28206 0.829803 2.1523C0.811872 2.02253 0.8298 1.235 1.00911 1.10523C1.18842 0.975469 12.2025 0.787535 15.049 0.787535C17.8955 0.787535 22.6651 1.05154 28.3537 4.1972L28.3492 4.19273Z" fill="#161616"/>
<path opacity="0.3" d="M28.3492 4.19273C28.7302 4.40303 22.3962 8.91346 21.6968 8.91346H0.995661C0.646009 8.91346 0.695318 8.22884 0.811869 8.01853C0.928419 7.80375 1.30497 7.64266 1.30497 7.64266V2.33128C1.30497 2.33128 0.84325 2.28206 0.829803 2.1523C0.811872 2.02253 0.8298 1.235 1.00911 1.10523C1.18842 0.975469 12.2025 0.787535 15.049 0.787535C17.8955 0.787535 22.6651 1.05154 28.3537 4.1972L28.3492 4.19273Z" fill="#1D1D1D"/>
<path d="M1.30071 2.33128C1.30071 2.33128 12.4582 2.12992 14.5427 2.12992C16.6271 2.12992 18.7968 2.25969 20.9619 7.60239L1.30071 7.63819V2.33128Z" fill="#161616"/>
<path opacity="0.5" d="M1.30071 2.33128C1.30071 2.33128 12.4582 2.12992 14.5427 2.12992C16.6271 2.12992 18.7968 2.25969 20.9619 7.60239L1.30071 7.63819V2.33128Z" fill="white"/>
<path d="M2.13428 2.9622H5.75182V3.91083H4.53701V6.80591H3.34909V3.91083H2.13428V2.9622Z" fill="#263238"/>
<path d="M8.29341 6.17499H6.94411L6.75584 6.81038H5.54102L6.98894 2.96668H8.28892L9.73685 6.81038H8.49065L8.2979 6.17499H8.29341ZM8.04685 5.34271L7.621 3.96005L7.19963 5.34271H8.04685Z" fill="#263238"/>
<path d="M9.84466 2.9622H11.1536L11.835 4.14351L12.4984 2.9622H13.7939L12.5971 4.82365L13.9105 6.80591H12.5746L11.8126 5.57091L11.0505 6.80591H9.72363L11.0505 4.80128L9.84466 2.9622Z" fill="#263238"/>
<path d="M14.3408 2.9622H15.5332V6.80591H14.3408V2.9622Z" fill="#263238"/>
</svg>
