<svg width="18" height="4" viewBox="0 0 18 4" fill="none" xmlns="http://www.w3.org/2000/svg">
<path d="M7.35541 0.857101C7.6692 1.01371 8.05919 3.03624 7.7992 3.18391C7.53472 3.33157 0.608912 3.16601 0.263743 2.9199C-0.0814261 2.6738 -0.0634952 1.62673 0.263743 1.41195C0.590981 1.19717 6.92955 0.642319 7.35541 0.857101Z" fill="#C7C7C7"/>
<path opacity="0.1" d="M0.263637 2.91991C0.613289 3.16601 7.53909 3.33157 7.79909 3.17944C7.88426 3.13022 7.90219 2.87516 7.87081 2.54851C7.85736 2.59773 7.84391 2.62905 7.8215 2.64248C7.60633 2.75882 2.06121 2.62905 1.78328 2.44112C1.50535 2.25318 1.5188 1.43433 1.78328 1.27324C1.99845 1.139 5.44118 0.825777 6.87116 0.803404C5.28428 0.785505 0.550535 1.22402 0.268124 1.40748C-0.0591145 1.62226 -0.0770454 2.66932 0.268124 2.91543L0.263637 2.91991Z" fill="#1D1D1D"/>
<path d="M11.6542 3.06757C11.2731 3.01387 10.9325 1.04056 11.1925 0.807882C11.4569 0.575201 16.8138 0.678118 17.1276 0.807882C17.4414 0.937646 17.7686 2.42769 17.2934 2.59325C16.8183 2.75882 12.358 3.16601 11.6542 3.06757Z" fill="#C7C7C7"/>
<path opacity="0.1" d="M11.6544 3.06757C12.3627 3.16601 16.8185 2.75434 17.2937 2.59325C17.5088 2.51718 17.5626 2.16816 17.5223 1.79677C17.5044 1.93548 17.4461 2.04288 17.343 2.0742C16.9709 2.19054 13.4789 2.48586 12.923 2.41874C12.6227 2.37847 12.3537 0.942118 12.5599 0.772082C12.6361 0.713912 13.2413 0.687061 13.9854 0.678111C12.6272 0.664688 11.3182 0.700486 11.1927 0.812352C10.9282 1.04056 11.2734 3.01834 11.6499 3.07204L11.6544 3.06757Z" fill="#1D1D1D"/>
</svg>
