<svg width="32" height="40" viewBox="0 0 32 40" fill="none" xmlns="http://www.w3.org/2000/svg">
<path d="M30.269 38.1198C30.4528 37.7887 30.5828 37.4083 30.6859 36.9788L31.6362 5.634C31.5511 5.31183 31.43 5.00756 31.2866 4.72565L30.269 38.1243V38.1198Z" fill="#1D1D1D"/>
<path d="M29.2604 39.1803C29.4038 39.0953 29.5338 39.0013 29.6504 38.8984L30.7173 3.84415C30.6007 3.70096 30.4752 3.5712 30.3452 3.44591L29.2604 39.1803Z" fill="#1D1D1D"/>
<path d="M28.2741 39.6009C28.4086 39.5606 28.5341 39.5204 28.6551 39.4711L29.7668 2.96264C29.6503 2.87315 29.5203 2.78814 29.3903 2.71207L28.2741 39.6009Z" fill="#1D1D1D"/>
<path d="M27.2836 39.8112C27.4181 39.7933 27.5436 39.7709 27.6646 39.7441L28.8032 2.38989C28.6822 2.33172 28.5567 2.27356 28.4222 2.22433L27.2791 39.8112H27.2836Z" fill="#1D1D1D"/>
<path d="M26.3019 39.9276C26.4319 39.9141 26.5619 39.9052 26.6829 39.8918L27.835 2.02298C27.7094 1.97824 27.5839 1.94244 27.4539 1.91112L26.3019 39.9276Z" fill="#1D1D1D"/>
<path d="M25.3246 39.9768C25.4546 39.9768 25.5802 39.9678 25.7057 39.9589L26.8667 1.77687C26.7546 1.7545 26.6471 1.73212 26.535 1.7187C26.5215 1.7187 26.5081 1.7187 26.4902 1.70975L25.3246 39.9723V39.9768Z" fill="#1D1D1D"/>
<path d="M24.3428 39.9947C24.4728 39.9947 24.5983 39.9947 24.7238 39.9947L25.8938 1.63816C25.7772 1.62027 25.6473 1.60684 25.5128 1.58894L24.3428 39.9991V39.9947Z" fill="#1D1D1D"/>
<path d="M23.3657 39.9857C23.4912 39.9857 23.6168 39.9857 23.7468 39.9857L24.9167 1.50839C24.8002 1.49497 24.6702 1.48602 24.5402 1.46812L23.3657 39.9813V39.9857Z" fill="#1D1D1D"/>
<path d="M22.3839 39.9768C22.5139 39.9768 22.6395 39.9768 22.765 39.9768L23.9395 1.40548C23.8184 1.39206 23.6929 1.38311 23.5584 1.36521L22.3839 39.9723V39.9768Z" fill="#1D1D1D"/>
<path d="M21.4067 39.9633C21.5367 39.9633 21.6622 39.9633 21.7877 39.9633L22.9622 1.31152C22.8411 1.29809 22.7156 1.28914 22.5811 1.27572L21.4067 39.9589V39.9633Z" fill="#1D1D1D"/>
<path d="M20.4249 39.941C20.5504 39.941 20.6759 39.9499 20.8059 39.9499L21.9849 1.23545C21.8593 1.22203 21.7338 1.21307 21.6038 1.20412L20.4249 39.941Z" fill="#1D1D1D"/>
<path d="M19.4478 39.9141C19.5733 39.9141 19.6989 39.9141 19.8289 39.9231L21.0078 1.1549C20.8823 1.14148 20.7568 1.13253 20.6268 1.12358L19.4478 39.9141Z" fill="#1D1D1D"/>
<path d="M18.4705 39.8873C18.6005 39.8873 18.726 39.8873 18.8516 39.8962L20.0305 1.07883C19.905 1.06541 19.7795 1.06094 19.6495 1.05199L18.4705 39.8873Z" fill="#1D1D1D"/>
<path d="M17.4932 39.8515C17.6187 39.8515 17.7443 39.8604 17.8743 39.8694L19.0532 1.01619C18.9277 1.00724 18.8022 0.998291 18.6722 0.989342L17.4932 39.856V39.8515Z" fill="#1D1D1D"/>
<path d="M16.5115 39.8157C16.6415 39.8157 16.7671 39.8291 16.8926 39.8336L18.0715 0.953542C17.946 0.940118 17.8205 0.935642 17.6905 0.931168L16.5071 39.8157H16.5115Z" fill="#1D1D1D"/>
<path d="M15.5343 39.7754C15.6598 39.7844 15.7898 39.7888 15.9153 39.7933L17.0942 0.895375C16.9687 0.895375 16.8432 0.881954 16.7132 0.87748L15.5298 39.7754H15.5343Z" fill="#1D1D1D"/>
<path d="M14.5572 39.7441C14.6827 39.7441 14.8082 39.753 14.9382 39.762L16.1172 0.855099C15.9917 0.846149 15.8662 0.841671 15.7362 0.837196L14.5527 39.7441H14.5572Z" fill="#1D1D1D"/>
<path d="M13.5798 39.6993C13.7053 39.6993 13.8308 39.7128 13.9608 39.7173L15.1443 0.810353C15.0188 0.810353 14.8888 0.801407 14.7633 0.792458L13.5798 39.6993Z" fill="#1D1D1D"/>
<path d="M12.6025 39.6546C12.728 39.6546 12.8536 39.668 12.9836 39.6725L14.167 0.779033C14.0415 0.779033 13.916 0.770084 13.786 0.76561L12.607 39.6546H12.6025Z" fill="#1D1D1D"/>
<path d="M11.63 39.6099C11.7555 39.6188 11.881 39.6233 12.011 39.6277L13.1899 0.752184C13.0644 0.752184 12.9344 0.752182 12.8089 0.743233L11.6344 39.6054L11.63 39.6099Z" fill="#1D1D1D"/>
<path d="M10.6483 39.5606C10.7738 39.5696 10.8993 39.5741 11.0293 39.5785L12.2083 0.738764C12.0827 0.738764 11.9572 0.729815 11.8272 0.738764L10.6483 39.5606Z" fill="#1D1D1D"/>
<path d="M9.67097 39.5114C9.79648 39.5204 9.922 39.5248 10.052 39.5293L11.231 0.734283C11.1054 0.734283 10.9799 0.734283 10.8499 0.734283L9.67097 39.5069V39.5114Z" fill="#1D1D1D"/>
<path d="M8.69376 39.4532C8.8148 39.4622 8.94032 39.4711 9.0748 39.4756L10.2493 0.738762C10.1238 0.738762 9.99823 0.738757 9.86823 0.747706L8.69376 39.4532Z" fill="#1D1D1D"/>
<path d="M7.71647 39.3995C7.8375 39.4085 7.96302 39.413 8.0975 39.4174L9.27197 0.76561C9.14646 0.76561 9.01645 0.765609 8.89094 0.779033L7.71647 39.3995Z" fill="#1D1D1D"/>
<path d="M6.73917 39.3369C6.86021 39.3459 6.98571 39.3548 7.12019 39.3593L8.29468 0.805878C8.16916 0.805878 8.03916 0.819303 7.91364 0.828252L6.73917 39.3324V39.3369Z" fill="#1D1D1D"/>
<path d="M5.76196 39.2653C5.88299 39.2787 6.00851 39.2832 6.14299 39.2966L7.31299 0.872993C7.18299 0.886417 7.05747 0.895367 6.93195 0.908791L5.76196 39.2653Z" fill="#1D1D1D"/>
<path d="M4.78476 39.1892C4.90131 39.2027 5.03131 39.2071 5.16579 39.2161L6.3313 0.966965C6.2013 0.984863 6.0713 1.00276 5.95027 1.02514L4.78924 39.1848L4.78476 39.1892Z" fill="#1D1D1D"/>
<path d="M3.81213 39.0818C3.92868 39.0997 4.05868 39.1176 4.18868 39.1311L5.34521 1.1549C5.21073 1.18622 5.08521 1.22202 4.96418 1.26229L3.81661 39.0863L3.81213 39.0818Z" fill="#1D1D1D"/>
<path d="M2.83924 38.8313C2.95579 38.8805 3.08579 38.9163 3.21579 38.9521L4.35889 1.48602C4.22441 1.53972 4.0944 1.60236 3.97337 1.66948L2.84373 38.8313H2.83924Z" fill="#1D1D1D"/>
<path d="M1.8756 38.2585C1.98766 38.3614 2.11317 38.4509 2.24766 38.5404L3.35938 2.06772C3.21593 2.17511 3.08593 2.28698 2.96938 2.41227L1.88008 38.2585H1.8756Z" fill="#1D1D1D"/>
<path d="M0.947664 36.6029C1.03284 36.9475 1.14939 37.2517 1.3018 37.5247L2.3418 3.22218C2.1849 3.4996 2.05042 3.79493 1.93387 4.10816L0.947664 36.6029Z" fill="#1D1D1D"/>
</svg>
