<svg width="57" height="7" viewBox="0 0 57 7" fill="none" xmlns="http://www.w3.org/2000/svg">
<path d="M0.0323318 2.72092V6.32089H8.06199V0.973529H2.40722C2.40722 0.973529 0.0139574 0.845452 0.0323318 2.72092Z" fill="#7E7E7E"/>
<path d="M8.06189 4.80225H0.0322266V6.3209H8.06189V4.80225Z" fill="#9C9C9C"/>
<path d="M17.5892 0.973511H9.55957V6.32087H17.5892V0.973511Z" fill="#7E7E7E"/>
<path d="M17.5892 4.80225H9.55957V6.3209H17.5892V4.80225Z" fill="#9C9C9C"/>
<path d="M27.1117 0.973511H19.082V6.32087H27.1117V0.973511Z" fill="#7E7E7E"/>
<path d="M27.1117 4.80225H19.082V6.3209H27.1117V4.80225Z" fill="#9C9C9C"/>
<path d="M36.639 0.973511H28.6094V6.32087H36.639V0.973511Z" fill="#7E7E7E"/>
<path d="M36.639 4.80225H28.6094V6.3209H36.639V4.80225Z" fill="#9C9C9C"/>
<path d="M46.327 0.973511H38.2974V6.32087H46.327V0.973511Z" fill="#7E7E7E"/>
<path d="M46.327 4.80225H38.2974V6.3209H46.327V4.80225Z" fill="#9C9C9C"/>
<path d="M56.0331 2.72092V6.32089H48.0034V0.973529H53.6582C53.6582 0.973529 56.0469 0.845452 56.0331 2.72092Z" fill="#7E7E7E"/>
<path d="M56.0331 4.80225H48.0034V6.3209H56.0331V4.80225Z" fill="#9C9C9C"/>
</svg>
