<svg width="16" height="14" viewBox="0 0 16 14" fill="none" xmlns="http://www.w3.org/2000/svg">
<path d="M13.3679 2.31488C14.6499 3.52751 13.5965 9.46086 12.3503 10.15C11.1041 10.839 2.14763 9.87253 1.08523 8.53461C0.0228224 7.1967 1.08523 1.2186 2.37625 0.453437C3.66727 -0.311724 12.4893 1.4826 13.3634 2.31488H13.3679Z" fill="#C7C7C7"/>
<path d="M2.68115 0.34157C3.77045 1.38416 7.38351 4.72223 8.72384 4.66406C10.1762 4.59694 11.8438 3.75124 13.5652 2.56993C13.5069 2.47149 13.4397 2.382 13.3635 2.3104C12.5386 1.53182 4.68492 -0.105893 2.68115 0.34157Z" fill="#EBEBEB"/>
<path d="M7.62555 6.55235C7.62555 7.09826 8.06935 7.54125 8.61624 7.54125C9.16313 7.54125 9.60693 7.09826 9.60693 6.55235C9.60693 6.00645 9.16313 5.56346 8.61624 5.56346C8.06935 5.56346 7.62555 6.00645 7.62555 6.55235Z" fill="#EBEBEB"/>
<path d="M11.9604 13.0495H15.0535C15.0535 13.0495 9.51283 6.36442 8.95697 6.27493C8.40111 6.18543 8.28904 6.2615 8.58938 6.87453C8.7911 7.28619 11.9604 13.0495 11.9604 13.0495Z" fill="#C7C7C7"/>
<path d="M8.5895 6.87453C8.79122 7.28172 11.9605 13.0495 11.9605 13.0495H12.3057C12.3057 13.0495 8.82261 7.04904 8.62537 6.63737C8.53123 6.43601 8.50882 6.3152 8.5402 6.25703C8.37882 6.30177 8.39226 6.47181 8.5895 6.87453Z" fill="#A6A6A6"/>
<path d="M8.62075 6.24808L12.7852 13.0495H14.5828L9.04662 6.31967C9.01076 6.29283 8.97489 6.28387 8.95696 6.2794C8.81351 6.25255 8.70144 6.2436 8.62075 6.24808Z" fill="#EBEBEB"/>
</svg>
