<svg width="40" height="53" viewBox="0 0 40 53" fill="none" xmlns="http://www.w3.org/2000/svg">
<path d="M0.469433 27.7092C0.738396 38.8018 4.62043 52.4047 13.2766 52.4047C14.1238 52.4047 25.7161 52.6598 26.4737 52.3734C33.4488 49.7468 37.5819 35.3027 36.7974 22.5768C36.1877 12.6611 33.4129 1.55952 26.1151 0.226084C25.6265 0.136592 13.4379 0.226084 12.909 0.226084C4.17216 0.226084 0.178078 15.7799 0.46497 27.7092H0.469433Z" fill="#263238"/>
<path d="M14.366 27.7092C14.6349 38.8018 18.517 52.4047 27.1731 52.4047C35.8292 52.4047 39.7875 36.6853 38.9178 22.5768C38.2678 12.0033 35.2599 0.226082 26.8055 0.226082C18.3511 0.226082 14.0746 15.7799 14.3615 27.7092H14.366Z" fill="#37474F"/>
<path d="M19.0146 27.2707C19.1984 34.8821 21.6415 44.2117 27.0342 44.2117C32.4269 44.2117 34.8655 33.4278 34.3007 23.7447C33.8793 16.4914 31.9876 8.41018 26.7204 8.41018C21.4532 8.41018 18.8129 19.0822 19.0146 27.2663V27.2707Z" fill="#C7C7C7"/>
<path d="M20.2564 27.1812C20.4133 34.0766 22.4574 42.5292 26.9805 42.5292C31.5035 42.5292 33.5477 32.7566 33.077 23.9864C32.7228 17.4131 31.136 10.0926 26.7205 10.0926C22.305 10.0926 20.0905 19.7578 20.2564 27.1768V27.1812Z" fill="#263238"/>
<path d="M20.7449 27.132C20.8839 33.6337 22.7397 41.6119 26.8369 41.6119C30.9341 41.6119 32.79 32.3942 32.3596 24.1206C32.0369 17.9188 30.5979 11.0144 26.5993 11.0144C22.6008 11.0144 20.588 20.1337 20.7404 27.1276L20.7449 27.132Z" fill="#C7C7C7"/>
<path d="M26.3125 13.6365C26.3125 14.2048 26.5725 14.6657 26.8907 14.6657C27.209 14.6657 27.469 14.2048 27.469 13.6365C27.469 13.0683 27.209 12.6074 26.8907 12.6074C26.5725 12.6074 26.3125 13.0683 26.3125 13.6365Z" fill="#A6A6A6"/>
<path d="M26.3125 38.8108C26.3125 39.3791 26.5725 39.84 26.8907 39.84C27.209 39.84 27.469 39.3791 27.469 38.8108C27.469 38.2425 27.209 37.7816 26.8907 37.7816C26.5725 37.7816 26.3125 38.2425 26.3125 38.8108Z" fill="#A6A6A6"/>
<path d="M29.4011 18.7421C29.4011 19.3104 29.6611 19.7713 29.9793 19.7713C30.2976 19.7713 30.5576 19.3104 30.5576 18.7421C30.5576 18.1738 30.2976 17.7129 29.9793 17.7129C29.6611 17.7129 29.4011 18.1738 29.4011 18.7421Z" fill="#A6A6A6"/>
<path d="M22.9682 18.7421C22.9682 19.3104 23.2282 19.7713 23.5465 19.7713C23.8648 19.7713 24.1248 19.3104 24.1248 18.7421C24.1248 18.1738 23.8648 17.7129 23.5465 17.7129C23.2282 17.7129 22.9682 18.1738 22.9682 18.7421Z" fill="#A6A6A6"/>
<path d="M29.4011 33.8887C29.4011 34.457 29.6611 34.9179 29.9793 34.9179C30.2976 34.9179 30.5576 34.457 30.5576 33.8887C30.5576 33.3204 30.2976 32.8596 29.9793 32.8596C29.6611 32.8596 29.4011 33.3204 29.4011 33.8887Z" fill="#A6A6A6"/>
<path d="M22.9682 33.8887C22.9682 34.457 23.2282 34.9179 23.5465 34.9179C23.8648 34.9179 24.1248 34.457 24.1248 33.8887C24.1248 33.3204 23.8648 32.8596 23.5465 32.8596C23.2282 32.8596 22.9682 33.3204 22.9682 33.8887Z" fill="#A6A6A6"/>
<path d="M21.6594 26.3176C21.6594 26.8859 21.9194 27.3468 22.2376 27.3468C22.5559 27.3468 22.8159 26.8859 22.8159 26.3176C22.8159 25.7494 22.5559 25.2885 22.2376 25.2885C21.9194 25.2885 21.6594 25.7494 21.6594 26.3176Z" fill="#A6A6A6"/>
<path d="M30.5576 26.3176C30.5576 26.8859 30.8176 27.3468 31.1359 27.3468C31.4541 27.3468 31.7141 26.8859 31.7141 26.3176C31.7141 25.7494 31.4541 25.2885 31.1359 25.2885C30.8176 25.2885 30.5576 25.7494 30.5576 26.3176Z" fill="#A6A6A6"/>
<path d="M23.3582 26.9262C23.4703 31.5037 24.9496 37.1149 28.222 37.1149C31.4944 37.1149 32.9737 30.6267 32.6285 24.8052C32.373 20.4425 31.2254 15.583 28.0292 15.583C24.833 15.583 23.2327 21.9996 23.3537 26.9262H23.3582Z" fill="#A6A6A6"/>
<path d="M24.1293 26.9128C24.2369 31.365 25.6803 36.8241 28.8586 36.8241C32.0368 36.8241 33.4803 30.5148 33.1485 24.85C32.8975 20.6035 31.7813 15.8783 28.6748 15.8783C25.5683 15.8783 24.0083 22.1204 24.1293 26.9083V26.9128Z" fill="#C7C7C7"/>
</svg>
