<svg width="25" height="45" viewBox="0 0 25 45" fill="none" xmlns="http://www.w3.org/2000/svg">
<path d="M24.1772 0.611206H0.924316V44.3507H24.1772V0.611206Z" fill="#D6C0A2"/>
<path d="M24.1772 2.08411H0.924316V3.00354H24.1772V2.08411Z" fill="#6C6C6C"/>
<g style="mix-blend-mode:multiply">
<path d="M24.1772 31.4878H0.924316V32.8738H24.1772V31.4878Z" fill="#BCBEC0"/>
</g>
<path d="M0.924316 12.5593L12.5508 5.75732L24.1772 12.5593H0.924316Z" fill="#6C6C6C"/>
<g style="mix-blend-mode:multiply">
<path d="M24.1772 12.5593H0.924316V14.2976H24.1772V12.5593Z" fill="#BCBEC0"/>
</g>
<path d="M6.96478 17.2526H4.56689V29.1961H6.96478V17.2526Z" fill="#989898"/>
<path d="M11.4897 17.2526H9.0918V29.1961H11.4897V17.2526Z" fill="#989898"/>
<path d="M16.0143 17.2526H13.6118V29.1961H16.0143V17.2526Z" fill="#989898"/>
<path d="M20.5341 17.2526H18.1362V29.1961H20.5341V17.2526Z" fill="#989898"/>
<path d="M9.87744 44.3506V37.1827C9.87744 35.9705 10.8743 34.9779 12.0916 34.9779H13.0149C14.2322 34.9779 15.229 35.9705 15.229 37.1827V44.3506H9.87744Z" fill="#666666"/>
</svg>
