<svg width="11" height="11" viewBox="0 0 11 11" fill="none" xmlns="http://www.w3.org/2000/svg">
<path d="M10.899 5.62623C10.899 2.80388 8.60224 0.516724 5.76338 0.516724C2.92453 0.516724 0.632324 2.80388 0.632324 5.62623V7.4102L1.46377 6.6097H10.1273L10.8944 7.4102V5.74058C10.8944 5.70399 10.899 5.66282 10.899 5.62623Z" fill="#5A5A5A"/>
<path d="M10.219 5.73599C10.219 8.16495 8.23913 10.1365 5.79992 10.1365C3.36071 10.1365 1.38086 8.16495 1.38086 5.73599C1.38086 3.30703 3.36071 1.33093 5.79992 1.33093C8.23913 1.33093 10.219 3.30246 10.219 5.73599Z" fill="#9C9C9C"/>
<path d="M8.67073 5.73594C8.67073 7.31408 7.38452 8.59488 5.79972 8.59488C4.21492 8.59488 2.92871 7.31408 2.92871 5.73594C2.92871 4.15781 4.21492 2.87244 5.79972 2.87244C7.38452 2.87244 8.67073 4.15323 8.67073 5.73594Z" fill="#58595B"/>
<path d="M7.97252 5.73596C7.97252 6.92986 6.99869 7.89962 5.79975 7.89962C4.60082 7.89962 3.62695 6.92986 3.62695 5.73596C3.62695 4.54207 4.59623 3.56775 5.79975 3.56775C7.00328 3.56775 7.97252 4.5375 7.97252 5.73596Z" fill="#BBBDBF"/>
<path d="M7.49458 5.73594C7.49458 6.6691 6.73663 7.42386 5.79954 7.42386C4.86244 7.42386 4.10449 6.6691 4.10449 5.73594C4.10449 4.80278 4.86244 4.04346 5.79954 4.04346C6.73663 4.04346 7.49458 4.80278 7.49458 5.73594Z" fill="#989898"/>
<path d="M6.81932 6.64629C6.95253 6.64629 7.07656 6.67829 7.1868 6.73319C7.38892 6.44958 7.51296 6.11109 7.51296 5.74057C7.51296 5.68568 7.50378 5.63079 7.4946 5.57132C7.07658 5.51186 6.755 5.15506 6.755 4.72507C6.755 4.60157 6.77799 4.48721 6.82852 4.382C6.54371 4.16243 6.18541 4.02979 5.79955 4.02979C5.74443 4.02979 5.69389 4.03893 5.64336 4.04351C5.62039 4.49636 5.24371 4.85315 4.78435 4.85315C4.64195 4.85315 4.51334 4.81656 4.39391 4.7571C4.19638 5.03613 4.08154 5.37005 4.08154 5.73599C4.08154 5.79088 4.09531 5.84578 4.09991 5.90067C4.55468 5.92355 4.91756 6.29406 4.91756 6.75607C4.91756 6.8933 4.88083 7.02137 4.82111 7.13573C5.09673 7.32785 5.43206 7.43763 5.79495 7.43763C5.85008 7.43763 5.90519 7.42849 5.96032 7.42391C6.00166 6.98478 6.36455 6.64171 6.81472 6.64171L6.81932 6.64629Z" fill="url(#paint0_linear_153_15492)"/>
<path d="M6.42437 5.12767C6.42437 5.27405 6.30492 5.39755 6.15333 5.39755C6.00174 5.39755 5.88232 5.27405 5.88232 5.12767C5.88232 4.98129 6.00634 4.85779 6.15333 4.85779C6.30033 4.85779 6.42437 4.98129 6.42437 5.12767Z" fill="#989898"/>
<path d="M6.42437 6.33069C6.42437 6.48164 6.30492 6.59599 6.15333 6.59599C6.00174 6.59599 5.88232 6.47706 5.88232 6.33069C5.88232 6.18431 6.00634 6.06079 6.15333 6.06079C6.30033 6.06079 6.42437 6.17974 6.42437 6.33069Z" fill="#989898"/>
<path d="M6.81042 5.73144C6.81042 5.87782 6.69098 5.99675 6.53939 5.99675C6.3878 5.99675 6.27295 5.87782 6.27295 5.73144C6.27295 5.58507 6.39239 5.46155 6.53939 5.46155C6.68638 5.46155 6.81042 5.58049 6.81042 5.73144Z" fill="#989898"/>
<path d="M5.23926 5.12767C5.23926 5.27405 5.3587 5.39755 5.51029 5.39755C5.66188 5.39755 5.7813 5.27405 5.7813 5.12767C5.7813 4.98129 5.66188 4.85779 5.51029 4.85779C5.3587 4.85779 5.23926 4.98129 5.23926 5.12767Z" fill="#989898"/>
<path d="M5.23926 6.33069C5.23926 6.48164 5.3587 6.59599 5.51029 6.59599C5.66188 6.59599 5.7813 6.47706 5.7813 6.33069C5.7813 6.18431 5.66188 6.06079 5.51029 6.06079C5.3587 6.06079 5.23926 6.17974 5.23926 6.33069Z" fill="#989898"/>
<path d="M4.85352 5.73144C4.85352 5.87782 4.97293 5.99675 5.11993 5.99675C5.26692 5.99675 5.38636 5.87782 5.38636 5.73144C5.38636 5.58507 5.26692 5.46155 5.11993 5.46155C4.97293 5.46155 4.85352 5.58049 4.85352 5.73144Z" fill="#989898"/>
<defs>
<linearGradient id="paint0_linear_153_15492" x1="4.08614" y1="-147" x2="7.51296" y2="-147" gradientUnits="userSpaceOnUse">
<stop stop-color="#D4D4D6"/>
<stop offset="1" stop-color="#E5E5E6"/>
</linearGradient>
</defs>
</svg>
