<svg width="28" height="52" viewBox="0 0 28 52" fill="none" xmlns="http://www.w3.org/2000/svg">
<path d="M27.3439 0.864136H0.503418V51.3507H27.3439V0.864136Z" fill="#C6C6C6"/>
<path d="M27.3439 2.56116H0.503418V3.62239H27.3439V2.56116Z" fill="#00FF00"/>
<path d="M27.3439 36.5026H0.503418V38.1036H27.3439V36.5026Z" fill="#686868"/>
<path d="M0.503418 14.6511L13.926 6.80615L27.3439 14.6511H0.503418Z" fill="#6C6C6C"/>
<path d="M27.3439 14.6511H0.503418V16.6592H27.3439V14.6511Z" fill="#686868"/>
<path d="M7.48089 20.0717H4.71094V33.8586H7.48089V20.0717Z" fill="#989898"/>
<path d="M12.6992 20.0717H9.9292V33.8586H12.6992V20.0717Z" fill="#989898"/>
<path d="M17.9174 20.0717H15.1475V33.8586H17.9174V20.0717Z" fill="#989898"/>
<path d="M23.1406 20.0717H20.3706V33.8586H23.1406V20.0717Z" fill="#989898"/>
<path d="M10.8345 51.3508V43.0758C10.8345 41.6761 11.9875 40.528 13.3931 40.528H14.4588C15.8645 40.528 17.0129 41.6715 17.0129 43.0758V51.3508H10.8345Z" fill="#666666"/>
</svg>
