<svg width="37" height="50" viewBox="0 0 37 50" fill="none" xmlns="http://www.w3.org/2000/svg">
<path d="M0.463203 26.3105C0.714233 36.5619 4.30041 49.1401 12.3021 49.1401C13.0865 49.1401 23.8047 49.3772 24.504 49.1132C30.9546 46.6835 34.7739 33.3312 34.0477 21.5674C33.4829 12.4034 30.9188 2.13859 24.1723 0.908066C23.724 0.827522 12.45 0.908066 11.9614 0.908066C3.88352 0.908066 0.189754 15.285 0.458721 26.315L0.463203 26.3105Z" fill="#263238"/>
<path d="M13.306 26.3105C13.557 36.5619 17.1432 49.1401 25.1448 49.1401C33.1465 49.1401 36.8089 34.6065 36.002 21.563C35.4013 11.7859 32.6175 0.903587 24.8041 0.903587C16.9908 0.903587 13.0325 15.2806 13.3015 26.3105H13.306Z" fill="#37474F"/>
<path d="M17.6095 25.9033C17.7798 32.9375 20.0391 41.5645 25.0194 41.5645C29.9997 41.5645 32.259 31.5951 31.739 22.6458C31.349 15.9383 29.6007 8.47018 24.7325 8.47018C19.8643 8.47018 17.4212 18.3323 17.6095 25.9033Z" fill="#C7C7C7"/>
<path d="M18.7526 25.8228C18.896 32.1947 20.7877 40.0118 24.9701 40.0118C29.1525 40.0118 31.0442 30.9776 30.6049 22.8695C30.2776 16.793 28.8118 10.0274 24.728 10.0274C20.6443 10.0274 18.6001 18.9632 18.7526 25.8183V25.8228Z" fill="#263238"/>
<path d="M19.2054 25.7736C19.3354 31.7875 21.0523 39.1617 24.8402 39.1617C28.6281 39.1617 30.3449 30.642 29.946 22.9903C29.6501 17.2583 28.3188 10.8775 24.6205 10.8775C20.9223 10.8775 19.0664 19.3077 19.2054 25.7736Z" fill="#C7C7C7"/>
<path d="M24.8894 14.2469C24.5948 14.2469 24.356 13.8222 24.356 13.2983C24.356 12.7744 24.5948 12.3497 24.8894 12.3497C25.184 12.3497 25.4229 12.7744 25.4229 13.2983C25.4229 13.8222 25.184 14.2469 24.8894 14.2469Z" fill="#A6A6A6"/>
<path d="M24.8894 37.5195C24.5948 37.5195 24.356 37.0948 24.356 36.5708C24.356 36.0469 24.5948 35.6222 24.8894 35.6222C25.184 35.6222 25.4229 36.0469 25.4229 36.5708C25.4229 37.0948 25.184 37.5195 24.8894 37.5195Z" fill="#A6A6A6"/>
<path d="M27.207 18.019C27.207 18.5426 27.4446 18.9677 27.7405 18.9677C28.0363 18.9677 28.2739 18.5426 28.2739 18.019C28.2739 17.4955 28.0363 17.0704 27.7405 17.0704C27.4446 17.0704 27.207 17.4955 27.207 18.019Z" fill="#A6A6A6"/>
<path d="M21.2583 18.019C21.2583 18.5426 21.4959 18.9677 21.7918 18.9677C22.0876 18.9677 22.3252 18.5426 22.3252 18.019C22.3252 17.4955 22.0876 17.0704 21.7918 17.0704C21.4959 17.0704 21.2583 17.4955 21.2583 18.019Z" fill="#A6A6A6"/>
<path d="M27.207 32.0202C27.207 32.5437 27.4446 32.9688 27.7405 32.9688C28.0363 32.9688 28.2739 32.5437 28.2739 32.0202C28.2739 31.4966 28.0363 31.0715 27.7405 31.0715C27.4446 31.0715 27.207 31.4966 27.207 32.0202Z" fill="#A6A6A6"/>
<path d="M21.2583 32.0202C21.2583 32.5437 21.4959 32.9688 21.7918 32.9688C22.0876 32.9688 22.3252 32.5437 22.3252 32.0202C22.3252 31.4966 22.0876 31.0715 21.7918 31.0715C21.4959 31.0715 21.2583 31.4966 21.2583 32.0202Z" fill="#A6A6A6"/>
<path d="M20.5862 25.9704C20.2916 25.9704 20.0527 25.5457 20.0527 25.0218C20.0527 24.4979 20.2916 24.0732 20.5862 24.0732C20.8808 24.0732 21.1196 24.4979 21.1196 25.0218C21.1196 25.5457 20.8808 25.9704 20.5862 25.9704Z" fill="#A6A6A6"/>
<path d="M28.2783 25.0218C28.2783 25.5454 28.5159 25.9704 28.8118 25.9704C29.1076 25.9704 29.3452 25.5454 29.3452 25.0218C29.3452 24.4983 29.1076 24.0732 28.8118 24.0732C28.5159 24.0732 28.2783 24.4983 28.2783 25.0218Z" fill="#A6A6A6"/>
<path d="M21.6214 25.5856C21.7245 29.8186 23.0962 35.0047 26.1175 35.0047C29.1389 35.0047 30.5106 29.0087 30.1923 23.6258C29.9547 19.5896 28.8923 15.1016 25.9427 15.1016C22.9931 15.1016 21.5093 21.0349 21.6214 25.5856Z" fill="#A6A6A6"/>
<path d="M22.3386 25.5677C22.4417 29.6844 23.7731 34.7318 26.7137 34.7318C29.6544 34.7318 30.9858 28.8969 30.6765 23.6615C30.4478 19.7373 29.4123 15.3701 26.5434 15.3701C23.6744 15.3701 22.231 21.1423 22.3386 25.5677Z" fill="#C7C7C7"/>
</svg>
