<svg width="5" height="5" viewBox="0 0 5 5" fill="none" xmlns="http://www.w3.org/2000/svg">
<path d="M2.29809 0.387169C3.57118 0.387169 4.49463 1.33131 4.49463 2.60211C4.49463 3.8729 3.80878 4.97366 2.20845 4.88417C0.679847 4.79915 0.37501 3.38517 0.37501 2.4634C0.37501 1.54162 1.11915 0.387169 2.29363 0.387169H2.29809Z" fill="#C7C7C7"/>
<path opacity="0.1" d="M0.410787 2.95561C0.513889 3.81921 0.935246 4.81705 2.21282 4.88864C3.80867 4.97366 4.49902 3.8729 4.49902 2.60658C4.49902 2.26651 4.43179 1.93091 4.31076 1.62664C4.40489 1.91749 4.39591 3.17039 4.12246 3.17039C3.87143 3.17039 3.52179 2.51709 3.52179 2.51709C3.52179 2.51709 3.57109 4.19955 2.30248 4.39196C1.25352 4.55304 0.697685 3.94897 0.415274 2.96008L0.410787 2.95561Z" fill="#1D1D1D"/>
<path d="M2.10514 0.633272C3.28858 0.633272 3.961 1.47003 4.02376 2.62896C4.07755 3.64917 3.43204 4.82153 2.03343 4.70519C0.823093 4.60227 0.464464 3.37622 0.424119 2.77214C0.370327 1.99803 0.809629 0.628799 2.10065 0.628799L2.10514 0.633272Z" fill="#A6A6A6"/>
<path d="M2.06944 0.740669C3.1946 0.740669 3.82218 1.53267 3.88494 2.63791C3.93873 3.6089 3.32459 4.71861 1.9977 4.60675C0.845645 4.50831 0.509457 3.3449 0.473595 2.77215C0.424285 2.03831 0.845637 0.740669 2.0739 0.740669H2.06944Z" fill="#161616"/>
<path opacity="0.1" d="M1.34322 4.40091C1.52253 4.5083 1.74217 4.58438 1.99768 4.60675C3.26181 4.71414 3.87596 3.70734 3.8894 2.77662C3.63837 2.78109 2.67009 2.77215 2.07837 2.41866C2.07837 2.41866 0.953212 2.99588 0.487009 2.91534C0.531837 3.24646 0.661844 3.69392 0.944255 4.04742C1.24011 3.71182 1.6794 3.24646 1.84975 3.18829C2.04699 3.12565 1.59874 3.9266 1.34322 4.40091Z" fill="#1D1D1D"/>
</svg>
