<svg width="28" height="133" viewBox="0 0 28 133" fill="none" xmlns="http://www.w3.org/2000/svg">
<path d="M22.6485 38.2344H5.05957V42.5434H22.6485V38.2344Z" fill="#A5A5A5"/>
<path d="M8.14183 39.0532H6.7959V41.5737H8.14183V39.0532Z" fill="#666666"/>
<path d="M10.696 39.0532H9.3501V41.5737H10.696V39.0532Z" fill="#666666"/>
<path d="M13.2497 39.0532H11.9038V41.5737H13.2497V39.0532Z" fill="#666666"/>
<path d="M15.7993 39.0532H14.458V41.5737H15.7993V39.0532Z" fill="#666666"/>
<path d="M18.3579 39.0532H17.0166V41.5737H18.3579V39.0532Z" fill="#666666"/>
<path d="M20.9118 39.0532H19.5659V41.5737H20.9118V39.0532Z" fill="#666666"/>
<path d="M22.6485 36.8484H5.05957V38.2344H22.6485V36.8484Z" fill="#535852"/>
<path d="M19.6535 30.5907H8.05461C7.91221 34.4834 5.05957 36.8483 5.05957 36.8483H22.6485C22.6485 36.8483 19.7959 34.4834 19.6535 30.5907Z" fill="#888B8A"/>
<path d="M19.6536 29.4791H8.05469V30.5907H19.6536V29.4791Z" fill="#535852"/>
<path d="M19.6536 22.9425H8.05469V29.4746H19.6536V22.9425Z" fill="#8F8F8F"/>
<path d="M10.6777 23.9763H9.69922V28.2853H10.6777V23.9763Z" fill="#666666"/>
<path d="M12.143 23.9763H11.1646V28.2853H12.143V23.9763Z" fill="#666666"/>
<path d="M13.6132 23.9763H12.6348V28.2853H13.6132V23.9763Z" fill="#666666"/>
<path d="M15.0785 23.9763H14.1001V28.2853H15.0785V23.9763Z" fill="#666666"/>
<path d="M16.5439 23.9763H15.5654V28.2853H16.5439V23.9763Z" fill="#666666"/>
<path d="M18.0092 23.9763H17.0308V28.2853H18.0092V23.9763Z" fill="#666666"/>
<path d="M19.6536 21.8309H8.05469V22.9425H19.6536V21.8309Z" fill="#535852"/>
<path d="M13.8518 0.812012C13.8518 12.1654 8.05469 21.8309 8.05469 21.8309H19.6536C19.6536 21.8309 13.8564 12.1654 13.8564 0.812012H13.8518Z" fill="#888B8A"/>
<path d="M23.3011 66.0415H4.41211V67.917H23.3011V66.0415Z" fill="#818181"/>
<path d="M25.5839 42.5433H2.12891V66.037H25.5839V42.5433Z" fill="#8F8F8F"/>
<path opacity="0.2" d="M3.75481 43.5177H2.77637V65.2045H3.75481V43.5177Z" fill="white"/>
<path opacity="0.2" d="M5.56926 43.5177H4.59082V65.2045H5.56926V43.5177Z" fill="white"/>
<path opacity="0.2" d="M7.63665 43.5177H6.6582V65.2045H7.63665V43.5177Z" fill="white"/>
<path opacity="0.2" d="M9.45109 43.5177H8.47266V65.2045H9.45109V43.5177Z" fill="white"/>
<path opacity="0.2" d="M11.518 43.5177H10.5396V65.2045H11.518V43.5177Z" fill="white"/>
<path opacity="0.2" d="M13.3324 43.5177H12.354V65.2045H13.3324V43.5177Z" fill="white"/>
<path opacity="0.2" d="M15.3949 43.5177H14.4165V65.2045H15.3949V43.5177Z" fill="white"/>
<path opacity="0.2" d="M17.2138 43.5177H16.2354V65.2045H17.2138V43.5177Z" fill="white"/>
<path opacity="0.2" d="M19.2768 43.5177H18.2983V65.2045H19.2768V43.5177Z" fill="white"/>
<path opacity="0.2" d="M21.0956 43.5177H20.1172V65.2045H21.0956V43.5177Z" fill="white"/>
<path opacity="0.2" d="M23.1581 43.5177H22.1797V65.2045H23.1581V43.5177Z" fill="white"/>
<path opacity="0.2" d="M24.9726 43.5177H23.9941V65.2045H24.9726V43.5177Z" fill="white"/>
<path d="M8.69319 60.3922H7.1084V64.7012H8.69319V60.3922Z" fill="#666666"/>
<path d="M11.0775 60.3922H9.49268V64.7012H11.0775V60.3922Z" fill="#666666"/>
<path d="M13.4615 60.3922H11.8721V64.7012H13.4615V60.3922Z" fill="#666666"/>
<path d="M15.8363 60.3922H14.2515V64.7012H15.8363V60.3922Z" fill="#666666"/>
<path d="M18.2203 60.3922H16.6309V64.7012H18.2203V60.3922Z" fill="#666666"/>
<path d="M20.5951 60.3922H19.0103V64.7012H20.5951V60.3922Z" fill="#666666"/>
<path d="M21.0778 44.6932H6.63086V59.1663H21.0778V44.6932Z" fill="#00FF00"/>
<path d="M18.2021 51.7147C18.1975 54.1071 16.2452 56.042 13.8427 56.0328C11.4403 56.0283 9.49719 54.0842 9.50638 51.6918C9.51097 49.2995 11.4633 47.3645 13.8657 47.3737C16.2682 47.3783 18.2113 49.3223 18.2067 51.7147H18.2021Z" fill="white"/>
<path d="M13.8656 46.6739C11.0727 46.6647 8.80804 48.9153 8.79886 51.6919C8.78967 54.473 11.0451 56.7282 13.8381 56.7373C16.631 56.7419 18.8956 54.4959 18.9048 51.7193C18.9094 48.9427 16.6539 46.683 13.8656 46.6739ZM13.8426 56.0375C11.4402 56.0329 9.49709 54.0888 9.50168 51.6964C9.50627 49.3041 11.4586 47.3691 13.861 47.3737C16.2635 47.3783 18.2066 49.3224 18.202 51.7147C18.1974 54.1071 16.2405 56.042 13.8381 56.0375H13.8426Z" fill="#454545"/>
<path d="M14.4677 51.7101C14.4677 52.0486 14.1921 52.3185 13.8522 52.3185C13.5122 52.3185 13.2412 52.044 13.2412 51.7056C13.2412 51.3671 13.5168 51.0972 13.8568 51.0972C14.1967 51.0972 14.4677 51.3716 14.4677 51.7101Z" fill="#545454"/>
<path d="M11.5093 49.6562C12.4004 51.4951 13.8474 51.9846 13.8474 51.9846C13.8474 51.9846 13.3605 50.5437 11.5093 49.6562Z" fill="#545454"/>
<path d="M17.9129 51.7651C15.5518 51.2527 13.8843 51.7651 13.8843 51.7651C13.8843 51.7651 15.5518 52.2774 17.9129 51.7651Z" fill="#545454"/>
<path d="M23.3011 86.475H4.41211V88.3504H23.3011V86.475Z" fill="#818181"/>
<path d="M25.5839 67.917H2.12891V86.4749H25.5839V67.917Z" fill="#8F8F8F"/>
<path opacity="0.2" d="M3.75481 68.8914H2.77637V85.6425H3.75481V68.8914Z" fill="white"/>
<path opacity="0.2" d="M5.56926 68.8914H4.59082V85.6425H5.56926V68.8914Z" fill="white"/>
<path opacity="0.2" d="M7.63665 68.8914H6.6582V85.6425H7.63665V68.8914Z" fill="white"/>
<path opacity="0.2" d="M9.45109 68.8914H8.47266V85.6425H9.45109V68.8914Z" fill="white"/>
<path opacity="0.2" d="M11.518 68.8914H10.5396V85.6425H11.518V68.8914Z" fill="white"/>
<path opacity="0.2" d="M13.3324 68.8914H12.354V85.6425H13.3324V68.8914Z" fill="white"/>
<path opacity="0.2" d="M15.3949 68.8914H14.4165V85.6425H15.3949V68.8914Z" fill="white"/>
<path opacity="0.2" d="M17.2138 68.8914H16.2354V85.6425H17.2138V68.8914Z" fill="white"/>
<path opacity="0.2" d="M19.2768 68.8914H18.2983V85.6425H19.2768V68.8914Z" fill="white"/>
<path opacity="0.2" d="M21.0956 68.8914H20.1172V85.6425H21.0956V68.8914Z" fill="white"/>
<path opacity="0.2" d="M23.1581 68.8914H22.1797V85.6425H23.1581V68.8914Z" fill="white"/>
<path opacity="0.2" d="M24.9726 68.8914H23.9941V85.6425H24.9726V68.8914Z" fill="white"/>
<path d="M8.69319 69.9846H7.1084V84.1787H8.69319V69.9846Z" fill="#666666"/>
<path d="M11.0775 69.9846H9.49268V84.1787H11.0775V69.9846Z" fill="#666666"/>
<path d="M13.4615 69.9846H11.8721V84.1787H13.4615V69.9846Z" fill="#666666"/>
<path d="M15.8363 69.9846H14.2515V84.1787H15.8363V69.9846Z" fill="#666666"/>
<path d="M18.2203 69.9846H16.6309V84.1787H18.2203V69.9846Z" fill="#666666"/>
<path d="M20.5951 69.9846H19.0103V84.1787H20.5951V69.9846Z" fill="#666666"/>
<path d="M27.4858 130.475H0.222656V132.351H27.4858V130.475Z" fill="#818181"/>
<path d="M25.5839 88.323H2.12891V130.475H25.5839V88.323Z" fill="#8F8F8F"/>
<path opacity="0.2" d="M3.75481 89.2974H2.77637V129.643H3.75481V89.2974Z" fill="white"/>
<path opacity="0.2" d="M5.56926 89.2974H4.59082V129.643H5.56926V89.2974Z" fill="white"/>
<path opacity="0.2" d="M7.63665 89.2974H6.6582V129.643H7.63665V89.2974Z" fill="white"/>
<path opacity="0.2" d="M9.45109 89.2974H8.47266V129.643H9.45109V89.2974Z" fill="white"/>
<path opacity="0.2" d="M11.518 89.2974H10.5396V129.643H11.518V89.2974Z" fill="white"/>
<path opacity="0.2" d="M13.3324 89.2974H12.354V129.643H13.3324V89.2974Z" fill="white"/>
<path opacity="0.2" d="M15.3949 89.2974H14.4165V129.643H15.3949V89.2974Z" fill="white"/>
<path opacity="0.2" d="M17.2138 89.2974H16.2354V129.643H17.2138V89.2974Z" fill="white"/>
<path opacity="0.2" d="M19.2768 89.2974H18.2983V129.643H19.2768V89.2974Z" fill="white"/>
<path opacity="0.2" d="M21.0956 89.2974H20.1172V129.643H21.0956V89.2974Z" fill="white"/>
<path opacity="0.2" d="M23.1581 89.2974H22.1797V129.643H23.1581V89.2974Z" fill="white"/>
<path opacity="0.2" d="M24.9726 89.2974H23.9941V129.643H24.9726V89.2974Z" fill="white"/>
<path d="M8.69319 90.3951H7.1084V128.183H8.69319V90.3951Z" fill="#666666"/>
<path d="M11.0775 90.3951H9.49268V128.183H11.0775V90.3951Z" fill="#666666"/>
<path d="M13.4615 90.3951H11.8721V128.183H13.4615V90.3951Z" fill="#666666"/>
<path d="M15.8363 90.3951H14.2515V128.183H15.8363V90.3951Z" fill="#666666"/>
<path d="M18.2203 90.3951H16.6309V128.183H18.2203V90.3951Z" fill="#666666"/>
<path d="M20.5951 90.3951H19.0103V128.183H20.5951V90.3951Z" fill="#666666"/>
<g style="mix-blend-mode:multiply">
<path d="M27.4857 132.351V130.475H25.5794V88.323H23.2963V86.4749H25.5794V67.917H23.2963V66.0415H25.5794V42.5479H22.6486V36.8529C22.6486 36.8529 19.796 34.488 19.6536 30.5952V21.8355C19.6536 21.8355 13.8565 12.17 13.8565 0.816528C13.8565 4.12832 13.3603 7.29832 12.6621 10.1252C18.1331 17.1971 15.2529 21.8355 15.2529 21.8355C15.7123 22.3752 15.0232 22.947 15.0232 22.947C18.1331 25.1701 15.8317 30.5952 15.8317 30.5952C18.0504 32.8961 16.1762 36.8529 16.1762 36.8529C16.8653 37.3835 16.4059 38.2389 16.4059 38.2389C18.5925 40.1555 16.5207 42.5479 16.5207 42.5479C23.549 50.6124 18.1331 66.0415 18.1331 66.0415C19.0518 66.874 17.7886 67.917 17.7886 67.917C23.0896 74.966 17.9034 86.4749 17.9034 86.4749C18.5925 87.3075 17.5589 88.323 17.5589 88.323C24.8168 101.556 17.5589 130.475 17.5589 130.475C18.0183 131.152 18.2847 131.847 17.6737 132.351H27.4903H27.4857Z" fill="#BCBEC0"/>
</g>
</svg>
