<svg width="15" height="14" viewBox="0 0 15 14" fill="none" xmlns="http://www.w3.org/2000/svg">
<path d="M2.06947 2.71344C0.787416 3.92606 1.84086 9.85942 3.08706 10.5485C4.33325 11.2376 13.2897 10.2711 14.3521 8.93764C15.4145 7.59973 14.3521 1.62163 13.0611 0.856467C11.7701 0.0913061 2.94809 1.88563 2.07396 2.71791L2.06947 2.71344Z" fill="#C7C7C7"/>
<path d="M12.7563 0.740129C11.667 1.78272 8.05399 5.12079 6.71365 5.06262C5.26125 4.9955 3.59367 4.1498 1.87231 2.9685C1.93058 2.87005 1.99783 2.78056 2.07404 2.70897C2.89886 1.93038 10.7526 0.292667 12.7563 0.740129Z" fill="#EBEBEB"/>
<path d="M7.81201 6.95539C7.81201 7.50129 7.36823 7.94428 6.82133 7.94428C6.27444 7.94428 5.83066 7.50129 5.83066 6.95539C5.83066 6.40948 6.27444 5.96649 6.82133 5.96649C7.36823 5.96649 7.81201 6.40948 7.81201 6.95539Z" fill="#EBEBEB"/>
<path d="M3.48156 13.4525H0.388492C0.388492 13.4525 5.92913 6.76745 6.48499 6.67796C7.04085 6.58846 7.15292 6.66454 6.85258 7.27756C6.65085 7.68923 3.48156 13.4525 3.48156 13.4525Z" fill="#C7C7C7"/>
<path d="M6.84813 7.27756C6.64641 7.68475 3.47713 13.4525 3.47713 13.4525H3.13195C3.13195 13.4525 6.61503 7.45207 6.81227 7.0404C6.90641 6.83904 6.92883 6.71823 6.89745 6.66006C7.05882 6.7048 7.04537 6.87484 6.84813 7.27756Z" fill="#A6A6A6"/>
<path d="M6.81689 6.65111L2.65246 13.4525H0.854886L6.39104 6.7227C6.42691 6.69586 6.46276 6.68691 6.48069 6.68243C6.62414 6.65559 6.73621 6.64664 6.81689 6.65559V6.65111Z" fill="#EBEBEB"/>
</svg>
