<svg width="5" height="5" viewBox="0 0 5 5" fill="none" xmlns="http://www.w3.org/2000/svg">
<path d="M2.36548 0.0407867C3.63857 0.0407867 4.56201 0.984932 4.56201 2.25573C4.56201 3.52652 3.87615 4.62728 2.27582 4.53778C0.747216 4.45724 0.442393 3.03879 0.442393 2.11701C0.442393 1.19524 1.18652 0.0407867 2.361 0.0407867H2.36548Z" fill="#C7C7C7"/>
<path opacity="0.1" d="M0.478169 2.60922C0.581272 3.47282 1.00264 4.47066 2.28022 4.54226C3.87606 4.62728 4.56641 3.52652 4.56641 2.2602C4.56641 1.92012 4.49916 1.58453 4.37813 1.28025C4.47226 1.5711 4.46331 2.824 4.18986 2.824C3.93883 2.824 3.58916 2.1707 3.58916 2.1707C3.58916 2.1707 3.63847 3.85317 2.36986 4.04557C1.32091 4.20666 0.765054 3.60259 0.482643 2.61369L0.478169 2.60922Z" fill="#1D1D1D"/>
<path d="M2.17693 0.286889C3.36037 0.286889 4.03277 1.12365 4.09553 2.28258C4.14933 3.30279 3.50381 4.47514 2.1052 4.3588C0.894871 4.25589 0.536255 3.02984 0.495911 2.42576C0.442118 1.65165 0.881434 0.282417 2.17246 0.282417L2.17693 0.286889Z" fill="#A6A6A6"/>
<path d="M2.13681 0.394279C3.26197 0.394279 3.88956 1.18629 3.95232 2.29152C4.00611 3.26252 3.39197 4.37222 2.06509 4.26036C0.913028 4.16192 0.576826 2.99851 0.540965 2.42576C0.491655 1.69192 0.913033 0.394279 2.1413 0.394279H2.13681Z" fill="#161616"/>
<path opacity="0.1" d="M1.41036 4.05005C1.58967 4.15744 1.80932 4.23351 2.06484 4.25589C3.32896 4.36328 3.94309 3.35648 3.95654 2.42576C3.70551 2.43023 2.73724 2.42129 2.14552 2.06779C2.14552 2.06779 1.02036 2.64502 0.554162 2.56448C0.598989 2.8956 0.728983 3.34306 1.01139 3.69656C1.30725 3.36096 1.74657 2.8956 1.91691 2.83743C2.11415 2.77479 1.66588 3.57574 1.41036 4.05005Z" fill="#1D1D1D"/>
</svg>
