<svg width="16" height="19" viewBox="0 0 16 19" fill="none" xmlns="http://www.w3.org/2000/svg">
<path d="M7.3237 0.651902C12.0306 0.651902 15.4419 5.07731 15.4419 9.76225C15.4419 14.4472 12.9047 18.5146 7.00542 18.1924C1.35719 17.8882 0.240998 12.6529 0.240998 9.25661C0.240998 5.86037 2.98891 0.647423 7.3237 0.647423V0.651902Z" fill="#C7C7C7"/>
<path opacity="0.1" d="M0.348684 11.0644C0.734198 14.2548 2.28522 17.9374 7.00104 18.1924C12.9003 18.5101 15.4375 14.4427 15.4375 9.76225C15.4375 8.50935 15.191 7.26988 14.7427 6.13779C15.0968 7.21171 15.061 11.8429 14.0434 11.8429C13.1199 11.8429 11.8289 9.43112 11.8289 9.43112C11.8289 9.43112 12.0037 15.6464 7.32379 16.3578C3.45072 16.9485 1.39316 14.7291 0.348684 11.0644Z" fill="#1D1D1D"/>
<path d="M5.82666 3.27403C9.64593 3.27403 11.8066 6.16464 12.0128 10.1829C12.1921 13.7178 10.1032 17.7718 5.60252 17.3646C1.69807 17.0111 0.554982 12.7737 0.420501 10.6795C0.250157 8.00372 1.66669 3.27403 5.82666 3.27403Z" fill="#A6A6A6"/>
<path d="M5.70107 3.63648C9.3231 3.63648 11.3538 6.37943 11.5465 10.1918C11.7169 13.5433 9.73552 17.3915 5.46797 17.0022C1.76524 16.6666 0.680427 12.6439 0.550427 10.6616C0.38905 8.12453 1.75179 3.63648 5.70107 3.63648Z" fill="white"/>
<path d="M3.36075 16.2907C3.94351 16.6711 4.63833 16.9306 5.46764 17.0022C9.53346 17.3691 11.5238 13.8968 11.5552 10.6661C10.7438 10.684 7.62382 10.6482 5.71867 9.42665C5.71867 9.42665 2.09664 11.4179 0.599413 11.136C0.738378 12.277 1.15974 13.8342 2.07422 15.0557C3.02904 13.8968 4.43662 12.2815 4.99696 12.0891C5.62902 11.8743 4.18558 14.6441 3.35628 16.2818L3.36075 16.2907Z" fill="#EBEBEB"/>
<path d="M12.7163 6.75082C13.4066 9.4714 13.1825 13.0019 11.3401 15.2079C10.3629 16.2952 9.02252 17.0469 7.56564 17.2393C6.10875 17.4407 4.58463 17.0693 3.31154 16.2594C4.49498 17.2349 6.06841 17.7181 7.60598 17.5794C9.16597 17.4586 10.6318 16.6532 11.6718 15.5032C13.6128 13.1943 13.7563 9.44902 12.7163 6.74635V6.75082Z" fill="#A6A6A6"/>
</svg>
