<svg width="172" height="36" viewBox="0 0 172 36" fill="none" xmlns="http://www.w3.org/2000/svg">
<path d="M0.751213 23.9806C1.75534 20.6112 6.8522 7.99727 7.6815 6.1761C8.32702 4.76212 10.9673 0.153248 17.9514 0.153248C21.7348 0.153248 83.1256 0.596237 88.2359 1.52696C89.8183 1.81334 90.9973 2.53823 91.7325 3.66136C92.6424 5.06639 92.8038 7.03075 92.2031 9.51417C91.0287 14.3736 88.1597 24.1731 87.8908 25.0367L87.8549 25.153C86.2546 30.5941 81.2294 31.7352 77.2936 31.7352C76.8812 31.7352 76.4464 31.7217 76.0071 31.6994C68.3013 31.2564 33.4347 30.7687 15.6114 30.7687C12.1059 30.7687 9.43424 30.7866 7.69047 30.8223C7.60529 30.8223 7.51563 30.8223 7.43046 30.8223C4.7767 30.8223 2.58465 29.923 1.41466 28.3568C0.504669 27.1397 0.271576 25.5826 0.746742 23.9717L0.751213 23.9806ZM7.66357 29.6455C19.0766 29.3994 66.8848 29.9945 76.0743 30.5225C85.2684 31.0461 86.4653 25.6407 86.7611 24.6876C87.057 23.739 89.8945 14.0201 91.0511 9.23674C92.1359 4.74422 90.3563 3.11545 88.0208 2.69036C83.2332 1.81333 23.7252 1.33902 17.9469 1.33902C12.1687 1.33902 9.63148 4.74422 8.75287 6.66831C7.87874 8.5924 2.84465 21.0856 1.88087 24.3162C0.917084 27.5469 3.58878 29.735 7.65908 29.6455H7.66357Z" fill="#263238"/>
<path d="M7.66351 29.6455C19.0765 29.3994 66.8847 29.9945 76.0743 30.5225C85.2683 31.0461 86.4652 25.6407 86.7611 24.6876C87.0569 23.739 89.8945 14.0201 91.051 9.23674C92.1358 4.74422 90.3562 3.11545 88.0207 2.69036C83.2332 1.81333 23.7251 1.33902 17.9469 1.33902C12.1686 1.33902 9.63142 4.74422 8.7528 6.66831C7.87867 8.5924 2.84459 21.0856 1.8808 24.3162C0.917015 27.5469 3.58871 29.735 7.65902 29.6455H7.66351Z" fill="#37474F"/>
<path opacity="0.5" d="M4.66924 16.7675C8.05817 21.1527 13.5809 24.9203 22.5149 24.6205C41.0151 23.9985 59.1253 17.2329 79.042 2.20263C60.9946 1.63882 22.5373 1.33902 17.9515 1.33902C12.1733 1.33902 9.63609 4.74422 8.75748 6.66831C8.25093 7.77801 6.35474 12.4227 4.66475 16.772L4.66924 16.7675Z" fill="#455A64"/>
<path d="M98.5957 35.5699C99.5325 35.5699 101.514 35.5118 104.02 35.4402C107.951 35.3283 113.335 35.1762 117.307 35.1762C120.18 35.1762 121.991 34.6929 123.004 33.6593C123.999 32.6435 123.968 31.3772 123.945 30.3615C123.945 30.2183 123.936 30.0751 123.936 29.9364C123.936 28.7103 123.322 21.8418 122.78 15.7831C122.462 12.2213 122.188 9.14278 122.094 7.87198C121.713 2.5427 118.934 2.53823 117.445 2.53823H117.078C115.271 2.53823 109.466 3.12888 104.84 4.01485C100.048 4.93663 99.0888 7.91226 98.3895 10.0869C98.3401 10.2435 98.2908 10.3957 98.2415 10.5478C97.4839 12.812 95.2112 20.0251 93.3688 26.7102C92.544 29.7126 92.7278 32.0216 93.9157 33.5742C95.2426 35.3104 97.4167 35.5699 98.5957 35.5699Z" fill="#C7C7C7"/>
<path d="M121.314 7.92568C121.561 11.3398 123.152 28.0302 123.152 29.9319C123.152 31.8336 123.744 34.3886 117.311 34.3886C110.879 34.3886 101.03 34.7824 98.6004 34.7824C96.1707 34.7824 92.2977 33.6011 94.1356 26.916C95.9735 20.2309 98.2731 12.9552 98.9949 10.7939C99.7166 8.63267 100.335 5.68389 104.997 4.78897C109.543 3.91642 115.455 3.30339 117.181 3.32577C118.692 3.34366 120.969 3.04386 121.319 7.92568H121.314Z" fill="#37474F"/>
<path opacity="0.5" d="M100.411 7.46032C106.884 13.7606 114.72 18.7946 122.574 22.3474C122.094 16.8078 121.462 9.97506 121.314 7.92568C120.964 3.03939 118.687 3.34366 117.177 3.32129C115.446 3.29891 109.538 3.91194 104.993 4.78897C102.563 5.25433 101.232 6.27902 100.411 7.46032Z" fill="#455A64"/>
<path d="M134.323 33.9949C136.51 33.9591 139.263 33.8919 141.688 33.8338C143.741 33.7846 145.516 33.7398 146.332 33.7309C147.134 33.7219 148.3 33.61 149.102 32.7151C149.905 31.8247 150.16 30.4152 149.936 28.1465C149.55 24.267 148.398 14.5392 147.775 9.30834C147.623 8.01517 147.502 7.0039 147.435 6.4401C147.116 3.7061 146.578 1.61198 142.907 1.61198H130.104C129.266 1.61198 128.056 1.71489 127.24 2.61429C126.433 3.50475 126.182 4.98137 126.429 7.3932C126.819 11.2011 128.885 28.2315 129.123 29.8469L129.172 30.1914C129.544 32.7554 129.898 33.9904 133.897 33.9904C134.031 33.9904 134.17 33.9904 134.314 33.9904L134.323 33.9949Z" fill="#C7C7C7"/>
<path d="M149.152 28.2271C148.672 23.39 146.982 9.35308 146.655 6.53407C146.327 3.71505 145.803 2.40398 142.912 2.40398H130.109C127.747 2.40398 126.828 3.45105 127.222 7.31713C127.617 11.1832 129.679 28.1376 129.912 29.735C130.306 32.3929 130.239 33.2655 134.309 33.2029C138.38 33.1357 144.552 32.9567 146.323 32.9389C148.466 32.9165 149.519 31.9544 149.147 28.2181L149.152 28.2271Z" fill="#37474F"/>
<path opacity="0.5" d="M127.222 7.3216C127.5 10.0467 128.603 19.2689 129.32 25.0367C136.649 27.5738 143.647 28.7327 149.161 28.33C149.161 28.2942 149.161 28.2629 149.152 28.2271C148.672 23.39 146.982 9.35308 146.655 6.53854C146.328 3.71953 145.799 2.40846 142.912 2.40846H130.109C127.742 2.40846 126.823 3.45552 127.218 7.3216H127.222Z" fill="#455A64"/>
<path d="M156.427 33.3281C156.579 33.3281 156.741 33.3281 156.911 33.3147C158.516 33.2431 161.986 32.997 165.348 32.7554L167.347 32.6122C168.844 32.5048 169.862 32.0797 170.458 31.3056C171.314 30.187 171.027 28.7014 170.767 27.3903L170.691 27.0055C170.234 24.5802 168.01 15.801 165.693 10.4136C163.156 4.50706 158.135 2.83355 154.58 2.09076C154.114 1.99232 153.675 1.9431 153.285 1.9431C152.316 1.9431 151.559 2.23842 151.025 2.8246C150.133 3.80454 150.138 5.30802 150.263 6.65041C150.362 7.7288 151.173 14.3289 151.891 20.1504C152.433 24.5623 152.944 28.7327 153.065 29.82C153.343 32.3437 154.284 33.3281 156.423 33.3281H156.427Z" fill="#C7C7C7"/>
<path d="M153.854 29.735C153.576 27.2068 151.227 8.45816 151.052 6.57881C150.878 4.69947 150.878 2.12208 154.423 2.86487C157.969 3.60766 162.609 5.223 164.971 10.7313C167.334 16.2351 169.521 25.0635 169.916 27.1576C170.31 29.2518 171.009 31.5696 167.289 31.8336C163.568 32.0976 158.798 32.4466 156.871 32.5317C154.943 32.6211 154.127 32.2363 153.85 29.735H153.854Z" fill="#37474F"/>
<path opacity="0.5" d="M151.057 6.57881C151.205 8.17178 152.917 21.8999 153.599 27.5738C163.788 24.5937 164.182 14.3647 161.654 6.12688C159.381 4.15804 156.678 3.33471 154.419 2.86487C150.873 2.12208 150.873 4.69947 151.052 6.57881H151.057Z" fill="#455A64"/>
</svg>
