<svg width="88" height="110" viewBox="0 0 88 110" fill="none" xmlns="http://www.w3.org/2000/svg">
<path d="M14.0835 108.889L6.56836 108.866L29.9728 78.5474L34.3046 80.528L14.0835 108.889Z" fill="#467C88"/>
<path d="M73.8097 109.072L81.3249 109.095L58.1087 78.6343L53.7632 80.5921L73.8097 109.072Z" fill="#467C88"/>
<path d="M84.0859 104.237H4.12939V109.355H84.0859V104.237Z" fill="#989898"/>
<path d="M46.4782 2.73287C46.4736 4.10974 45.3482 5.22129 43.9655 5.21672C42.5829 5.21672 41.4666 4.09144 41.4712 2.71457C41.4712 1.33771 42.6012 0.226153 43.9793 0.230727C45.3666 0.230727 46.4782 1.35143 46.4782 2.7283V2.73287Z" fill="#00FF00"/>
<path d="M59.74 5.22127C59.74 6.59814 58.6145 7.7097 57.2319 7.70512C55.8446 7.70055 54.7283 6.57984 54.7329 5.20298C54.7329 3.82611 55.8629 2.71456 57.2502 2.71913C58.6329 2.7237 59.7491 3.84441 59.74 5.22127Z" fill="#00FF00"/>
<path d="M71.7341 11.6848C71.7341 13.0616 70.6087 14.1732 69.226 14.1686C67.8433 14.1686 66.7225 13.0433 66.7271 11.6665C66.7317 10.2896 67.8571 9.17806 69.2444 9.18263C70.627 9.18721 71.7433 10.3079 71.7387 11.6848H71.7341Z" fill="#C8C8C8"/>
<path d="M81.0266 21.3548C81.0266 22.7317 79.8966 23.8432 78.5139 23.8387C77.1312 23.8387 76.015 22.7134 76.0195 21.3365C76.0195 19.9597 77.1496 18.8481 78.5277 18.8527C79.9103 18.8527 81.0266 19.978 81.0266 21.3548Z" fill="#C8C8C8"/>
<path d="M86.3645 33.5134C86.3645 34.8903 85.2391 36.0018 83.8518 35.9972C82.4691 35.9972 81.3528 34.872 81.3574 33.4951C81.3574 32.1182 82.4829 31.0067 83.8656 31.0112C85.2528 31.0112 86.3691 32.1319 86.3645 33.5134Z" fill="#C8C8C8"/>
<path d="M87.7566 46.3717C87.7566 47.7485 86.6311 48.8601 85.2485 48.8555C83.8612 48.8509 82.7449 47.7302 82.7495 46.3534C82.7495 44.9765 83.8795 43.8649 85.2622 43.8695C86.6403 43.8695 87.7566 44.9902 87.752 46.3671L87.7566 46.3717Z" fill="#C8C8C8"/>
<path d="M85.0324 58.8596C85.0324 60.2364 83.9024 61.348 82.5197 61.3434C81.1416 61.3434 80.0208 60.2227 80.0254 58.8413C80.0254 57.469 81.1554 56.3528 82.5381 56.362C83.9208 56.362 85.037 57.4827 85.0324 58.8596Z" fill="#C8C8C8"/>
<path d="M77.9538 70.3914C77.9538 71.7682 76.8284 72.8798 75.4457 72.8752C74.063 72.8707 72.9422 71.7545 72.9468 70.3777C72.9514 69.0054 74.0768 67.8892 75.4595 67.8938C76.8468 67.8984 77.9584 69.0191 77.9538 70.396V70.3914Z" fill="#C8C8C8"/>
<path d="M67.7556 79.1604C67.751 80.5372 66.6256 81.6488 65.2429 81.6442C63.8602 81.6396 62.744 80.5189 62.7485 79.1421C62.7485 77.7652 63.874 76.6536 65.2612 76.6582C66.6439 76.6582 67.7556 77.7789 67.7556 79.1604Z" fill="#C8C8C8"/>
<path d="M28.8523 4.9423C28.8385 6.31916 29.9547 7.44444 31.3328 7.45816C32.7155 7.47189 33.8455 6.3649 33.8593 4.98804C33.8731 3.61117 32.7614 2.4859 31.3741 2.47217C29.9961 2.45845 28.8614 3.56543 28.8477 4.9423H28.8523Z" fill="#00FF00"/>
<path d="M17.3639 10.898C17.3501 12.2748 18.4618 13.4047 19.8398 13.4138C21.2271 13.4276 22.3571 12.3206 22.3663 10.9437C22.3801 9.56686 21.2685 8.44158 19.8904 8.42786C18.5031 8.41414 17.3731 9.52112 17.3639 10.898Z" fill="#00FF00"/>
<path d="M7.9513 20.0009C7.93752 21.3778 9.04917 22.503 10.4318 22.5168C11.8145 22.5305 12.9446 21.4235 12.9583 20.0466C12.9675 18.6698 11.8605 17.5445 10.4778 17.5308C9.09511 17.517 7.96049 18.624 7.9513 20.0009Z" fill="#00FF00"/>
<path d="M2.00745 31.9352C1.99367 33.3121 3.10072 34.4374 4.4834 34.4511C5.86608 34.4648 7.00071 33.3578 7.01449 31.981C7.02827 30.6041 5.91202 29.4788 4.53394 29.4651C3.15126 29.4514 2.02123 30.5584 2.00745 31.9352Z" fill="#00FF00"/>
<path d="M0.454717 45.0818C0.440936 46.4587 1.55259 47.584 2.93527 47.5977C4.31794 47.6114 5.44797 46.5044 5.46175 45.1276C5.47553 43.7507 4.35929 42.6254 2.9812 42.6117C1.59853 42.598 0.468497 43.705 0.454717 45.0818Z" fill="#00FF00"/>
<path d="M3.02259 58.2055C3.00881 59.587 4.12046 60.7123 5.50314 60.726C6.88582 60.7397 8.01584 59.6282 8.02963 58.2559C8.04341 56.879 6.93175 55.7537 5.54908 55.74C4.1664 55.7263 3.03637 56.8333 3.02259 58.2101V58.2055Z" fill="#00FF00"/>
<path d="M9.66468 69.5224C9.6509 70.8992 10.7625 72.0245 12.1452 72.0382C13.5233 72.052 14.6579 70.945 14.6717 69.5681C14.6855 68.1913 13.5693 67.066 12.1866 67.0523C10.8085 67.0385 9.67846 68.1455 9.66468 69.5224Z" fill="#C8C8C8"/>
<path d="M19.0773 78.3461C19.0635 79.723 20.1705 80.8482 21.5532 80.862C22.9359 80.8757 24.0705 79.7687 24.0843 78.3918C24.0981 77.015 22.9818 75.8897 21.5992 75.876C20.2165 75.8623 19.0911 76.9692 19.0773 78.3461Z" fill="#C8C8C8"/>
<path d="M34.2042 83.9909C34.1904 85.3677 35.3021 86.493 36.6802 86.5067C38.0629 86.5205 39.1975 85.4135 39.2113 84.0366C39.225 82.6552 38.1134 81.5299 36.7261 81.5208C35.3434 81.507 34.218 82.614 34.2042 83.9909Z" fill="#C8C8C8"/>
<path d="M47.6451 84.2287C47.6314 85.6056 48.743 86.7309 50.1257 86.7446C51.5084 86.7583 52.6384 85.6513 52.6522 84.2745C52.666 82.8976 51.5543 81.7723 50.1716 81.7586C48.789 81.7495 47.6589 82.8519 47.6451 84.2287Z" fill="#C8C8C8"/>
<path d="M43.9368 7.69316L43.7896 44.2233L44.4464 44.2259L44.5937 7.69579L43.9368 7.69316Z" fill="#7D7D7D"/>
<path d="M44.4709 44.2765L43.8232 44.1713L49.8455 8.13953L50.4932 8.24474L44.4709 44.2765Z" fill="#7D7D7D"/>
<path d="M44.4616 44.3314L43.8369 44.121L55.6104 9.521L56.2305 9.73141L44.4616 44.3314Z" fill="#7D7D7D"/>
<path d="M44.4387 44.3772L43.8599 44.0707L61.0721 11.8127L61.6555 12.1192L44.4387 44.3772Z" fill="#7D7D7D"/>
<path d="M66.0941 14.9493L43.8892 44.0276L44.412 44.4235L66.617 15.3453L66.0941 14.9493Z" fill="#7D7D7D"/>
<path d="M70.5412 18.8556L43.9312 44.0015L44.3833 44.476L70.9934 19.3301L70.5412 18.8556Z" fill="#7D7D7D"/>
<path d="M74.3048 23.4212L43.9673 43.9596L44.3366 44.5005L74.6741 23.9622L74.3048 23.4212Z" fill="#7D7D7D"/>
<path d="M44.2873 44.5236L44.0117 43.9289L77.2741 28.5272L77.5543 29.1219L44.2873 44.5236Z" fill="#7D7D7D"/>
<path d="M79.3901 34.0645L44.0586 43.8944L44.2354 44.5244L79.5669 34.6945L79.3901 34.0645Z" fill="#7D7D7D"/>
<path d="M44.1863 44.551L44.1128 43.9015L80.5723 39.8303L80.6412 40.4799L44.1863 44.551Z" fill="#7D7D7D"/>
<path d="M44.1829 43.903L44.1499 44.5563L80.7928 46.3919L80.8258 45.7387L44.1829 43.903Z" fill="#7D7D7D"/>
<path d="M44.2075 43.901L44.0693 44.5405L79.938 52.2239L80.0762 51.5844L44.2075 43.901Z" fill="#7D7D7D"/>
<path d="M78.1833 57.8669L44.0298 44.5282L44.2687 43.9198L78.4222 57.2585L78.1833 57.8669Z" fill="#7D7D7D"/>
<path d="M44.3088 43.9341L43.9736 44.4967L75.5235 63.1361L75.8587 62.5735L44.3088 43.9341Z" fill="#7D7D7D"/>
<path d="M44.3574 43.9775L43.9355 44.479L72.0582 67.9359L72.48 67.4344L44.3574 43.9775Z" fill="#7D7D7D"/>
<path d="M44.3959 44.006L43.8984 44.4332L67.8592 72.0949L68.3566 71.6676L44.3959 44.006Z" fill="#7D7D7D"/>
<path d="M44.4272 44.0489L43.8672 44.3907L63.0403 75.5347L63.6003 75.1928L44.4272 44.0489Z" fill="#7D7D7D"/>
<path d="M57.7283 78.1631L43.8418 44.3498L44.4528 44.1028L58.3347 77.916L57.7283 78.1631Z" fill="#7D7D7D"/>
<path d="M44.4683 44.1447L43.8281 44.2915L52.0617 79.8899L52.7018 79.7431L44.4683 44.1447Z" fill="#7D7D7D"/>
<path d="M46.189 80.7017L43.8232 44.2445L44.4755 44.2034L46.8412 80.6606L46.189 80.7017Z" fill="#7D7D7D"/>
<path d="M43.8278 44.1944L40.248 80.5504L40.9018 80.6142L44.4816 44.2582L43.8278 44.1944Z" fill="#7D7D7D"/>
<path d="M43.8208 44.1306L34.4189 79.4409L35.0539 79.6086L44.4558 44.2983L43.8208 44.1306Z" fill="#7D7D7D"/>
<path d="M43.8588 44.0952L28.8501 77.4283L29.4495 77.696L44.4582 44.3628L43.8588 44.0952Z" fill="#7D7D7D"/>
<path d="M43.8157 44.0046L23.7393 74.5789L24.289 74.9368L44.3655 44.3625L43.8157 44.0046Z" fill="#7D7D7D"/>
<path d="M43.9082 44.0101L19.0679 70.8914L19.5512 71.3343L44.3916 44.453L43.9082 44.0101Z" fill="#7D7D7D"/>
<path d="M43.9397 43.9494L15.0674 66.485L15.4726 66.9998L44.345 44.4643L43.9397 43.9494Z" fill="#7D7D7D"/>
<path d="M43.9885 43.9444L11.8477 61.5542L12.1643 62.1273L44.3051 44.5175L43.9885 43.9444Z" fill="#7D7D7D"/>
<path d="M44.0562 43.9786L9.44385 56.0825L9.6615 56.6997L44.2739 44.5958L44.0562 43.9786Z" fill="#7D7D7D"/>
<path d="M8.108 51.0602L7.99316 50.4152L44.0898 43.906L44.2092 44.5464L8.108 51.0602Z" fill="#7D7D7D"/>
<path d="M7.47404 45.1915L7.46484 44.5374L44.1449 43.897L44.1541 44.5511L7.47404 45.1915Z" fill="#7D7D7D"/>
<path d="M7.87806 38.6427L7.78369 39.29L44.0877 44.5382L44.1821 43.8908L7.87806 38.6427Z" fill="#7D7D7D"/>
<path d="M9.28488 32.9174L9.08691 33.5411L44.0659 44.5504L44.2639 43.9266L9.28488 32.9174Z" fill="#7D7D7D"/>
<path d="M11.5467 27.4524L11.2505 28.0363L43.9947 44.507L44.2908 43.9231L11.5467 27.4524Z" fill="#7D7D7D"/>
<path d="M14.6998 22.4568L14.313 22.9855L43.9576 44.4961L44.3445 43.9674L14.6998 22.4568Z" fill="#7D7D7D"/>
<path d="M43.9153 44.455L18.1313 18.4684L18.5999 18.011L44.3839 43.9976L43.9153 44.455Z" fill="#7D7D7D"/>
<path d="M23.1772 14.2624L22.6416 14.6411L43.8819 44.4254L44.4174 44.0467L23.1772 14.2624Z" fill="#7D7D7D"/>
<path d="M28.2969 11.2805L27.707 11.5684L43.8518 44.3709L44.4416 44.083L28.2969 11.2805Z" fill="#7D7D7D"/>
<path d="M33.8382 9.16096L33.2095 9.35046L43.837 44.3143L44.4657 44.1248L33.8382 9.16096Z" fill="#7D7D7D"/>
<path d="M39.6395 7.96912L38.9883 8.0553L43.821 44.2673L44.4722 44.1811L39.6395 7.96912Z" fill="#7D7D7D"/>
<path d="M44.131 50.2643C42.4314 50.2552 40.842 49.5919 39.643 48.398C38.4487 47.1995 37.7918 45.6077 37.7964 43.9152C37.8056 40.425 40.6674 37.5935 44.1723 37.6072C47.6773 37.6164 50.5207 40.4662 50.5069 43.9564C50.4977 47.4466 47.6359 50.2735 44.131 50.2689V50.2643Z" fill="#7D7D7D"/>
<g style="mix-blend-mode:multiply" opacity="0.3">
<path d="M44.1586 41.0288C42.5508 41.0242 41.237 42.3233 41.2324 43.9198C41.2324 44.6974 41.531 45.4247 42.0776 45.9782C42.6289 46.5271 43.3593 46.8336 44.1402 46.8336C45.748 46.8382 47.0617 45.5437 47.0663 43.9381C47.0663 42.3371 45.7709 41.0288 44.1586 41.0288Z" fill="#00FF00"/>
</g>
<path d="M44.0299 83.1948C33.4968 83.1628 23.6067 79.0459 16.1834 71.6127C8.76014 64.1749 4.6902 54.3035 4.72236 43.8146C4.79126 22.1645 22.5318 4.6037 44.2734 4.67232C66.015 4.73636 83.6498 22.4069 83.5809 44.0571C83.512 65.7073 65.7669 83.2634 44.0299 83.1994V83.1948ZM44.2734 5.02912C22.7293 4.9605 5.14955 22.3612 5.08524 43.8101C5.05309 54.2029 9.08628 63.9827 16.4407 71.3565C23.7996 78.7257 33.5978 82.8014 44.0345 82.8335C65.5786 82.8975 83.1583 65.5014 83.2272 44.0525C83.2915 22.599 65.822 5.09316 44.278 5.02912H44.2734Z" fill="#7D7D7D"/>
<path d="M44.03 82.0375C33.8093 82.0055 24.2132 78.0121 17.0058 70.7938C9.79843 63.5756 5.84792 53.9924 5.88008 43.8146C5.94439 22.8048 23.1659 5.76097 44.2643 5.82501C65.3628 5.88905 82.4786 23.0381 82.4143 44.0479C82.3454 65.0577 65.1285 82.1015 44.0255 82.0375H44.03ZM44.2597 7.6959C24.1948 7.63186 7.81858 23.8386 7.75427 43.8192C7.7267 53.4984 11.4843 62.6104 18.3334 69.4719C25.1824 76.3379 34.3146 80.1346 44.03 80.1666C64.0996 80.2306 80.4712 64.0239 80.5355 44.0433C80.5952 24.0582 64.3201 7.75536 44.2551 7.6959H44.2597Z" fill="#00FF00"/>
</svg>
