<svg width="241" height="43" viewBox="0 0 241 43" fill="none" xmlns="http://www.w3.org/2000/svg">
<g opacity="0.3">
<path d="M240.474 10.6669C241.182 12.3448 239.775 7.76281 224.368 7.68675C208.96 7.61068 204.204 7.87021 202.994 8.2237C201.784 8.57272 200.206 10.6713 200.206 10.6713C200.206 10.6713 201.017 7.66885 202.429 7.24376C203.841 6.81867 229.509 5.57472 233.024 5.86557C236.538 6.1609 238.963 7.08714 240.474 10.6713V10.6669Z" fill="white"/>
<path d="M231.647 4.71112C231.647 4.71112 230.957 2.97496 229.482 2.8452C228.003 2.71544 149.152 6.7426 127.523 7.79414C105.894 8.8412 72.6723 13.6917 72.6723 13.6917C72.6723 13.6917 107.664 7.20349 132.812 6.02219C157.956 4.84089 223.708 1.79366 225.681 1.53413C227.649 1.27013 228.635 -0.000663757 228.635 -0.000663757C228.635 -0.000663757 229.98 1.43569 229.98 1.86078C229.98 1.86078 231.652 2.74676 231.652 4.71112H231.647Z" fill="white"/>
<path d="M129.522 -0.000663757C129.522 -0.000663757 136.39 0.191748 137.026 1.89658C137.663 3.60141 136.219 4.64848 131.754 5.10936C127.29 5.57025 108.511 7.01108 90.5896 9.30209C72.6677 11.5976 62.6443 14.43 61.5909 14.5598C61.5909 14.5598 59.5333 11.8974 49.0303 11.7094C35.3266 11.4633 31.8256 12.5775 31.8256 12.5775C31.8256 12.5775 33.6635 11.1993 34.4525 11.0696C34.4525 11.0696 35.7659 9.2126 39.4417 8.17448C43.1176 7.13637 54.2123 3.99071 56.642 3.92359C59.0716 3.85647 75.55 4.97065 79.8176 5.10489C84.0851 5.23465 91.1096 5.10489 91.1096 5.10489C91.1096 5.10489 88.8772 5.75819 88.9444 6.02219C89.0117 6.28619 113.891 4.18759 119.669 3.86094C125.447 3.53429 134.655 4.12047 135.493 3.01076C137.165 0.782398 129.517 -0.000663757 129.517 -0.000663757H129.522Z" fill="white"/>
<path d="M31.0278 10.9622C31.0278 10.9622 12.5904 10.5416 0.168793 15.2399C0.168793 15.2399 3.9029 17.0521 4.99669 19.021C4.99669 19.021 13.1821 18.0589 14.8004 19.8085C16.4186 21.5581 11.6042 25.1825 11.4294 25.7508C11.2546 26.3191 12.568 27.2811 12.568 28.2432C12.568 29.2052 16.5083 27.3259 18.2162 28.0239C19.9241 28.722 20.0766 30.7356 20.0766 30.7356C20.0766 30.7356 20.1438 15.7456 31.0278 10.9666V10.9622Z" fill="white"/>
<path d="M186.511 16.636C186.74 16.9313 186.798 17.1148 187.188 17.2982C187.578 17.3161 187.959 17.3385 188.331 17.3564C194.329 17.6696 198.175 17.9873 198.915 18.0142C200.089 18.0545 200.358 17.0298 198.915 16.9C194.961 16.542 191.007 16.2467 187.071 15.9961C186.928 15.9961 186.789 15.9782 186.645 15.9738C186.175 16.0543 186.314 16.3854 186.506 16.636H186.511Z" fill="white"/>
<path d="M149.412 15.9738C149.739 16.1796 150.524 16.3496 150.528 16.6584C150.528 16.7747 150.676 16.8732 150.864 16.9582C151.021 16.9582 151.178 16.9448 151.335 16.9403C161.991 16.5913 171.839 16.721 179.787 16.9895C181.298 17.0387 182.741 17.0969 184.108 17.1551C184.418 17.1416 183.36 16.636 183.162 16.542C183.015 16.466 182.647 15.9782 182.037 15.7187C181.764 15.7008 181.495 15.6919 181.226 15.6784C169.97 15.1236 159.032 14.9804 149.121 15.0744C149.071 15.0744 149.018 15.0744 148.964 15.0744C148.964 15.0744 148.961 15.0744 148.955 15.0744C148.628 15.2086 149.116 15.7858 149.417 15.9738H149.412Z" fill="white"/>
<path d="M94.9607 19.1955C99.8199 19.8264 101.806 24.8022 101.94 25.1378C101.909 24.9454 101.635 23.245 101.94 23.0616C102.241 22.8781 114.097 19.37 137.569 17.6607C139.313 17.5309 141.128 17.4146 143.002 17.3117C143.002 17.0879 140.59 16.7926 140.326 16.6628C140.07 16.5376 139.304 15.2891 137.654 15.2891H137.573C127.55 15.5666 119.176 16.0364 113.434 16.4481C97.8072 17.5578 94.9607 19.2 94.9607 19.2V19.1955Z" fill="white"/>
<path d="M99.9453 14.5598C96.3322 14.5016 86.7168 16.5734 83.301 19.5893C79.8851 22.6052 81.7903 24.1131 83.301 22.9989C84.8117 21.8847 87.0082 18.8375 91.5716 17.0342C94.6781 15.8082 99.9408 14.5598 99.9408 14.5598H99.9453Z" fill="white"/>
<path d="M141.8 42.7902C139.635 37.3491 136.524 33.2235 131.01 33.2235C125.497 33.2235 122.3 37.2014 122.3 37.2014C122.3 37.2014 124.972 32.503 131.01 32.503C139.613 32.503 141.8 42.7902 141.8 42.7902Z" fill="white"/>
<path d="M79.495 22.6365C76.4109 24.9588 73.5868 33.0221 73.654 38.3961C73.654 38.3961 72.9996 29.4155 70.041 28.4311C67.0869 27.4512 66.1679 31.098 66.1679 31.098C66.1679 31.098 65.5762 25.4868 76.0837 23.782L79.4995 22.6365H79.495Z" fill="white"/>
<path d="M49.7746 11.5081C51.6619 11.9287 52.0877 15.052 44.1488 14.8104C44.1488 14.8104 58.1125 16.0364 59.6142 17.7233C61.1114 19.4147 60.7618 25.0528 61.0263 25.1378C61.2907 25.2228 63.039 23.3211 63.1286 20.8422C63.2183 18.3632 63.0031 16.8463 61.5956 14.5553C59.7218 11.5036 49.7791 11.5036 49.7791 11.5036L49.7746 11.5081Z" fill="white"/>
<path d="M26.4422 14.081C28.0067 13.6962 27.406 15.8172 26.4422 18.2021C25.4784 20.5871 25.7922 24.3771 25.2857 24.3189C24.7791 24.2608 23.8871 21.7908 22.7216 22.0772C21.556 22.3591 19.9647 23.3614 19.9647 23.3614C19.9647 23.3614 23.7705 14.7343 26.4422 14.081Z" fill="white"/>
</g>
</svg>
