<svg width="67" height="31" viewBox="0 0 67 31" fill="none" xmlns="http://www.w3.org/2000/svg">
<path d="M1.08504 23.7135H0.395996V25.5295H1.08504V23.7135Z" fill="#5F5F5F"/>
<path d="M2.26549 17.0121H2.0542V15.0726C2.0542 14.6884 2.38493 14.5695 2.56408 14.5603H3.46444V14.7707H2.56868C2.54112 14.7707 2.27009 14.7982 2.27009 15.068V17.0076L2.26549 17.0121Z" fill="#ACACAC"/>
<path d="M2.26085 15.2556H1.77393V17.2592H2.26085V15.2556Z" fill="#ACACAC"/>
<path d="M66.0112 5.0183C66.0112 2.71285 64.1187 0.828247 61.8035 0.828247H7.28646C4.97128 0.828247 3.07409 2.71285 3.07409 5.0183V21.591C3.07409 21.6962 3.0833 21.7968 3.09248 21.9021H3.07409C0.87375 21.9021 1.08508 23.8278 1.08508 23.8278V30.4057H3.45997V28.6217C3.45997 25.7994 5.75677 23.5122 8.59103 23.5122C11.4253 23.5122 13.7267 25.7994 13.7267 28.6217C13.7267 28.6583 13.7221 28.6995 13.7221 28.7361V30.4057H44.6325V28.6217C44.6325 25.7994 46.9339 23.5122 49.7636 23.5122C52.5933 23.5122 54.8993 25.7994 54.8993 28.6217C54.8993 28.6583 54.8947 28.6995 54.8947 28.7361V30.4057H66.0112V21.9021H65.9975C66.0066 21.8014 66.0112 21.6962 66.0112 21.591V5.0183Z" fill="#989898"/>
<path d="M1.42014 27.9081H3.56535V30.4102H0.79541V28.425C0.79541 28.425 0.822961 27.9127 1.41554 27.9127L1.42014 27.9081Z" fill="#5A5A5A"/>
</svg>
