<svg width="190" height="81" viewBox="0 0 190 81" fill="none" xmlns="http://www.w3.org/2000/svg">
<path d="M38.9127 44.7993H38.3706V68.1694H38.9127V44.7993Z" fill="#C8C8C8"/>
<path d="M33.5059 49.1038H32.9639V68.1695H33.5059V49.1038Z" fill="#C8C8C8"/>
<path d="M28.1036 53.2572H27.5615V68.1694H28.1036V53.2572Z" fill="#C8C8C8"/>
<path d="M22.7017 57.2506H22.1597V68.1649H22.7017V57.2506Z" fill="#C8C8C8"/>
<path d="M17.295 60.7134H16.7529V68.1695H17.295V60.7134Z" fill="#C8C8C8"/>
<path d="M2.972 68.4393L2.58154 67.4695C24.9157 58.5267 43.2902 39.4794 43.4693 39.2872L44.2319 40.01C44.0481 40.2021 25.5175 59.4142 2.972 68.4438V68.4393Z" fill="#989898"/>
<path d="M8.2042 68.1876L7.96533 67.7211C30.7589 56.2533 43.768 42.8872 43.8966 42.7545L44.2779 43.1159C44.1492 43.2485 31.0804 56.6741 8.2042 68.1876Z" fill="#989898"/>
<path d="M44.8337 39.1089H43.2856V68.3844H44.8337V39.1089Z" fill="#989898"/>
<path d="M44.8337 67.401H0V70.0129H44.8337V67.401Z" fill="#989898"/>
<g style="mix-blend-mode:multiply">
<path d="M44.8335 68.3844V39.1089H43.2855V39.4748C42.2887 40.4903 37.2587 45.5083 29.7803 51.3131C30.0467 51.5418 30.2856 51.8026 30.5061 52.0725C31.3559 51.4092 32.1781 50.7596 32.9636 50.1238V52.1228C32.44 52.5253 31.8887 52.937 31.3283 53.3533C31.4064 53.5134 31.4799 53.6735 31.5488 53.8427C32.0311 53.4859 32.5089 53.1291 32.9636 52.7815V67.4055H31.1354C30.7082 68.9928 30.3407 70.0175 30.3407 70.0175H44.8335V68.389V68.3844ZM38.3657 67.401H33.5011V52.3698C35.3569 50.9518 36.9739 49.6389 38.3657 48.4725V67.401ZM38.3657 47.7863C36.9922 48.9482 35.3661 50.2702 33.5011 51.7065V49.6847C35.3294 48.1935 36.9601 46.7891 38.3657 45.5404V47.7863ZM43.2809 67.401H38.9032V48.0151C40.9244 46.2997 42.3943 44.9411 43.2809 44.0949V67.401ZM43.2809 43.3676C42.5184 44.1086 41.0438 45.4992 38.9032 47.3289V45.0601C40.8968 43.2715 42.3897 41.8352 43.2809 40.9569V43.363V43.3676Z" fill="#BCBEC0"/>
</g>
<path d="M129.26 75.0538C108.515 69.8482 90.8111 70.1227 79.6073 71.2663C67.4663 72.5105 60.1395 75.0126 60.066 75.0401L59.7031 74.0017C59.7766 73.9742 67.1999 71.4355 79.4557 70.1776C90.756 69.0203 108.611 68.7367 129.531 73.988L129.26 75.0538Z" fill="#7D7D7D"/>
<g style="mix-blend-mode:multiply" opacity="0.3">
<path d="M105.993 71.1382C113.113 71.7603 120.941 72.968 129.26 75.0538L129.531 73.988C121.134 71.8793 113.233 70.6671 106.048 70.0404C106.756 70.4658 105.993 71.1382 105.993 71.1382Z" fill="#7D7D7D"/>
</g>
<path d="M129.747 66.7834H59.5562V68.9974H129.747V66.7834Z" fill="#989898"/>
<g style="mix-blend-mode:multiply">
<path d="M105.984 68.9974C105.984 68.9974 106.903 67.5291 104.914 66.7834H129.664V68.9974H105.984Z" fill="#BCBEC0"/>
</g>
<path d="M132.457 33.6426H56.7588V33.9399H132.457V33.6426Z" fill="#C8C8C8"/>
<path d="M132.457 35.2665H56.7588V36.378H132.457V35.2665Z" fill="#C8C8C8"/>
<g style="mix-blend-mode:multiply" opacity="0.4">
<path d="M103.88 36.3734C103.88 36.3734 104.096 35.6003 103.168 35.2618H129.664V36.3734H103.88Z" fill="#C8C8C8"/>
</g>
<path d="M150.855 44.7993H150.312V68.1694H150.855V44.7993Z" fill="#C8C8C8"/>
<path d="M156.256 49.1038H155.714V68.1695H156.256V49.1038Z" fill="#C8C8C8"/>
<path d="M161.663 53.2572H161.121V68.1694H161.663V53.2572Z" fill="#C8C8C8"/>
<path d="M167.065 57.2506H166.523V68.1649H167.065V57.2506Z" fill="#C8C8C8"/>
<path d="M172.467 60.7134H171.925V68.1695H172.467V60.7134Z" fill="#C8C8C8"/>
<path d="M186.248 68.4393L186.639 67.4695C164.304 58.5267 145.93 39.4794 145.751 39.2872L144.988 40.01C145.172 40.2021 163.703 59.4142 186.248 68.4438V68.4393Z" fill="#989898"/>
<path d="M181.016 68.1876L181.255 67.7211C158.461 56.2533 145.452 42.8872 145.324 42.7545L144.942 43.1159C145.071 43.2485 158.14 56.6741 181.016 68.1876Z" fill="#989898"/>
<path d="M145.935 39.1089H144.387V68.3844H145.935V39.1089Z" fill="#989898"/>
<path d="M189.22 67.401H144.387V70.0129H189.22V67.401Z" fill="#989898"/>
<g style="mix-blend-mode:multiply">
<path d="M189.221 67.4009H186.469C175.564 63.005 165.619 56.2168 158.287 50.412C161.25 52.7174 163.455 54.8353 165.086 56.7611C165.559 57.0905 166.037 57.4198 166.523 57.7446V58.6091C166.716 58.879 166.896 59.1489 167.066 59.4096V58.1105C168.632 59.1581 170.253 60.1964 171.93 61.2073V62.6345C170.327 61.6922 168.793 60.7499 167.323 59.8168C167.525 60.1461 167.709 60.4663 167.874 60.7819C169.174 61.5962 170.529 62.4195 171.93 63.2383V67.3964H169.252C168.953 69.1163 168.154 70.0083 168.154 70.0083H189.225V67.3964L189.221 67.4009ZM172.468 67.4009V63.5585C174.682 64.8439 177.02 66.1339 179.477 67.4009H172.468ZM180.626 67.4009C177.746 65.9372 175.026 64.4414 172.468 62.9502V61.5321C176.041 63.6683 179.836 65.6764 183.772 67.4009H180.621H180.626Z" fill="#BCBEC0"/>
</g>
<path d="M144.759 32.9794H129.664V70.0129H144.759V32.9794Z" fill="#8F8F8F"/>
<path d="M142.894 29.0043H131.465V32.9748H142.894V29.0043Z" fill="#CFCFCF"/>
<path d="M137.179 0.419434C137.179 15.8577 131.465 29.0043 131.465 29.0043H142.894C142.894 29.0043 137.179 15.8577 137.179 0.419434Z" fill="#888B8A"/>
<path d="M133.389 29.3885H129.664V32.9794H133.389V29.3885Z" fill="#A5A5A5"/>
<path d="M133.389 28.7802H129.664V29.3885H133.389V28.7802Z" fill="#535852"/>
<path d="M131.529 17.2346C131.529 23.4694 129.668 28.7802 129.668 28.7802H133.394C133.394 28.7802 131.529 23.4694 131.529 17.2346Z" fill="#666666"/>
<path d="M144.759 29.3885H141.033V32.9794H144.759V29.3885Z" fill="#A5A5A5"/>
<path d="M144.759 28.7802H141.033V29.3885H144.759V28.7802Z" fill="#535852"/>
<path d="M142.894 17.2346C142.894 23.4694 141.033 28.7802 141.033 28.7802H144.759C144.759 28.7802 142.894 23.4694 142.894 17.2346Z" fill="#666666"/>
<path d="M132.994 35.0927H131.635V43.1434H132.994V35.0927Z" fill="#666666"/>
<path d="M135.034 35.0927H133.674V43.1434H135.034V35.0927Z" fill="#666666"/>
<path d="M137.078 35.0927H135.718V43.1434H137.078V35.0927Z" fill="#666666"/>
<path d="M139.118 35.0927H137.758V43.1434H139.118V35.0927Z" fill="#666666"/>
<path d="M141.162 35.0927H139.802V43.1434H141.162V35.0927Z" fill="#666666"/>
<path d="M143.206 35.0927H141.846V43.1434H143.206V35.0927Z" fill="#666666"/>
<path d="M132.994 47.3518H131.635V55.4026H132.994V47.3518Z" fill="#666666"/>
<path d="M135.034 47.3518H133.674V55.4026H135.034V47.3518Z" fill="#666666"/>
<path d="M137.078 47.3518H135.718V55.4026H137.078V47.3518Z" fill="#666666"/>
<path d="M139.118 47.3518H137.758V55.4026H139.118V47.3518Z" fill="#666666"/>
<path d="M141.162 47.3518H139.802V55.4026H141.162V47.3518Z" fill="#666666"/>
<path d="M143.206 47.3518H141.846V55.4026H143.206V47.3518Z" fill="#666666"/>
<path d="M132.994 59.6063H131.635V67.6617H132.994V59.6063Z" fill="#666666"/>
<path d="M135.034 59.6063H133.674V67.6617H135.034V59.6063Z" fill="#666666"/>
<path d="M137.078 59.6063H135.718V67.6617H137.078V59.6063Z" fill="#666666"/>
<path d="M139.118 59.6063H137.758V67.6617H139.118V59.6063Z" fill="#666666"/>
<path d="M141.162 59.6063H139.802V67.6617H141.162V59.6063Z" fill="#666666"/>
<path d="M143.206 59.6063H141.846V67.6617H143.206V59.6063Z" fill="#666666"/>
<path d="M144.759 44.621H129.664V45.8743H144.759V44.621Z" fill="#666666"/>
<path d="M144.759 56.8755H129.664V58.1289H144.759V56.8755Z" fill="#666666"/>
<path d="M146.647 70.0129H127.739V80.3509H146.647V70.0129Z" fill="#666666"/>
<g style="mix-blend-mode:multiply">
<path d="M144.759 58.1289V28.7755C144.759 28.7755 142.894 23.4648 142.894 17.23C142.894 20.7431 142.301 23.9634 141.787 26.1087C140.124 21.4018 137.179 11.503 137.179 0.419434C137.179 5.3734 136.591 10.0895 135.792 14.2155C142.324 23.2315 138.296 29.0088 138.296 29.0088C140.592 30.5549 138.144 32.9793 138.144 32.9793C145.186 38.5005 137.685 70.0129 137.685 70.0129C143.73 74.1435 138.911 80.3508 138.911 80.3508H146.656V70.0129H144.763V58.1289H144.759Z" fill="#BCBEC0"/>
</g>
<path d="M59.5565 32.9794H44.4619V70.0129H59.5565V32.9794Z" fill="#8F8F8F"/>
<path d="M57.6916 29.0043H46.2627V32.9748H57.6916V29.0043Z" fill="#CFCFCF"/>
<path d="M51.9772 0.419434C51.9772 15.8577 46.2627 29.0043 46.2627 29.0043H57.6916C57.6916 29.0043 51.9772 15.8577 51.9772 0.419434Z" fill="#00FF00"/>
<path d="M48.1873 29.3885H44.4619V32.9794H48.1873V29.3885Z" fill="#A5A5A5"/>
<path d="M48.1873 28.7802H44.4619V29.3885H48.1873V28.7802Z" fill="#535852"/>
<path d="M46.3267 17.2346C46.3267 23.4694 44.4663 28.7802 44.4663 28.7802H48.1917C48.1917 28.7802 46.3267 23.4694 46.3267 17.2346Z" fill="#666666"/>
<path d="M59.5565 29.3885H55.8311V32.9794H59.5565V29.3885Z" fill="#A5A5A5"/>
<path d="M59.5565 28.7802H55.8311V29.3885H59.5565V28.7802Z" fill="#535852"/>
<path d="M57.6915 17.2346C57.6915 23.4694 55.8311 28.7802 55.8311 28.7802H59.5565C59.5565 28.7802 57.6915 23.4694 57.6915 17.2346Z" fill="#666666"/>
<path d="M47.7923 35.0927H46.4326V43.1434H47.7923V35.0927Z" fill="#666666"/>
<path d="M49.8363 35.0927H48.4766V43.1434H49.8363V35.0927Z" fill="#666666"/>
<path d="M51.8758 35.0927H50.5161V43.1434H51.8758V35.0927Z" fill="#666666"/>
<path d="M53.9203 35.0927H52.5605V43.1434H53.9203V35.0927Z" fill="#666666"/>
<path d="M55.9598 35.0927H54.6001V43.1434H55.9598V35.0927Z" fill="#666666"/>
<path d="M58.0038 35.0927H56.644V43.1434H58.0038V35.0927Z" fill="#666666"/>
<path d="M47.7923 47.3518H46.4326V55.4026H47.7923V47.3518Z" fill="#666666"/>
<path d="M49.8363 47.3518H48.4766V55.4026H49.8363V47.3518Z" fill="#666666"/>
<path d="M51.8758 47.3518H50.5161V55.4026H51.8758V47.3518Z" fill="#666666"/>
<path d="M53.9203 47.3518H52.5605V55.4026H53.9203V47.3518Z" fill="#666666"/>
<path d="M55.9598 47.3518H54.6001V55.4026H55.9598V47.3518Z" fill="#666666"/>
<path d="M58.0038 47.3518H56.644V55.4026H58.0038V47.3518Z" fill="#666666"/>
<path d="M47.7923 59.6063H46.4326V67.6617H47.7923V59.6063Z" fill="#666666"/>
<path d="M49.8363 59.6063H48.4766V67.6617H49.8363V59.6063Z" fill="#666666"/>
<path d="M51.8758 59.6063H50.5161V67.6617H51.8758V59.6063Z" fill="#666666"/>
<path d="M53.9203 59.6063H52.5605V67.6617H53.9203V59.6063Z" fill="#666666"/>
<path d="M55.9598 59.6063H54.6001V67.6617H55.9598V59.6063Z" fill="#666666"/>
<path d="M58.0038 59.6063H56.644V67.6617H58.0038V59.6063Z" fill="#666666"/>
<path d="M59.5565 44.621H44.4619V45.8743H59.5565V44.621Z" fill="#666666"/>
<path d="M59.5565 56.8755H44.4619V58.1289H59.5565V56.8755Z" fill="#666666"/>
<path d="M61.5362 70.0129H42.6289V80.3509H61.5362V70.0129Z" fill="#666666"/>
<g style="mix-blend-mode:multiply">
<path d="M59.5566 58.1289V28.7755C59.5566 28.7755 57.6916 23.4648 57.6916 17.23C57.6916 20.7431 57.099 23.9634 56.5845 26.1087C54.9216 21.4018 51.9771 11.503 51.9771 0.419434C51.9771 5.3734 51.3891 10.0895 50.5898 14.2155C57.122 23.2315 53.0934 29.0088 53.0934 29.0088C55.3902 30.5549 52.9418 32.9793 52.9418 32.9793C59.9838 38.5005 52.4824 70.0129 52.4824 70.0129C58.5276 74.1435 53.7089 80.3508 53.7089 80.3508H61.541V70.0129H59.5566V58.1289Z" fill="#BCBEC0"/>
</g>
</svg>
