<svg width="51" height="7" viewBox="0 0 51 7" fill="none" xmlns="http://www.w3.org/2000/svg">
<path d="M50.9245 1.10774V0.0465088H0.344238V1.10774H2.47568V3.65563H0.344238V6.62436H50.9245V3.65563H49.3443V1.10774H50.9245ZM8.44278 1.10774H10.147V3.65563H8.44278V1.10774ZM7.58838 3.65563H5.88414V1.10774H7.58838V3.65563ZM10.9968 1.10774H12.7011V3.65563H10.9968V1.10774ZM13.5555 1.10774H15.2597V3.65563H13.5555V1.10774ZM16.1095 1.10774H17.8138V3.65563H16.1095V1.10774ZM18.6636 1.10774H20.3678V3.65563H18.6636V1.10774ZM21.2176 1.10774H22.9219V3.65563H21.2176V1.10774ZM23.7763 1.10774H25.4805V3.65563H23.7763V1.10774ZM26.3303 1.10774H28.0346V3.65563H26.3303V1.10774ZM28.8844 1.10774H30.5886V3.65563H28.8844V1.10774ZM31.443 1.10774H33.1472V3.65563H31.443V1.10774ZM33.9971 1.10774H35.7013V3.65563H33.9971V1.10774ZM36.5511 1.10774H38.2553V3.65563H36.5511V1.10774ZM39.1052 1.10774H40.8094V3.65563H39.1052V1.10774ZM41.6638 1.10774H43.368V3.65563H41.6638V1.10774ZM44.2179 1.10774H45.9221V3.65563H44.2179V1.10774ZM3.31631 1.10774H5.02055V3.65563H3.31631V1.10774ZM48.4761 3.65563H46.7719V1.10774H48.4761V3.65563Z" fill="#6C6C6C"/>
</svg>
