<svg width="251" height="113" viewBox="0 0 251 113" fill="none" xmlns="http://www.w3.org/2000/svg">
<path d="M1.82065 103.923C1.82065 103.923 -2.74725 69.6834 3.42545 64.7031C9.59814 59.7229 29.6852 58.6758 37.8258 58.6758C37.8258 58.6758 44.1285 50.8765 53.5154 48.7153C53.5154 48.7153 64.4801 19.223 66.4032 15.8178C68.3307 12.4081 71.3924 10.663 77.4351 8.38993C83.4778 6.11682 105.102 0 149.481 0C193.86 0 208.048 4.10771 213.387 5.7678C218.726 7.42788 223.98 10.3095 228.619 23.1562C233.259 36.0029 234.832 47.5205 234.832 47.5205C234.832 47.5205 237.984 49.1985 238.947 53.8298C238.947 53.8298 244.376 54.0043 245.775 56.4519C247.173 58.8995 250.15 62.9177 250.15 71.1332C250.15 79.3486 250.804 95.314 248.639 97.3455C248.065 97.8825 243.385 99.7037 242.601 99.7037C241.816 99.7037 241.485 91.2511 236.365 85.9397C233.658 83.1341 226.279 82.8209 223.28 86.2037C218.511 91.5777 217.852 105.011 217.067 105.011C215.579 105.011 152.4 112.349 151.346 112.349C150.293 112.349 148.522 84.7584 137.755 83.5145C125.763 82.1273 119.111 110.581 117.094 110.581C115.077 110.581 84.334 109.74 83.5451 109.74C82.7561 109.74 83.1954 108.617 83.1954 108.617L24.3463 106.053C24.3463 106.053 24.4897 106.783 23.8756 106.783C23.4229 106.783 10.7906 106.657 4.67166 105.735C2.55133 105.418 1.82065 103.932 1.82065 103.932V103.923Z" fill="#161616"/>
</svg>
