<svg width="171" height="48" viewBox="0 0 171 48" fill="none" xmlns="http://www.w3.org/2000/svg">
<path opacity="0.4" d="M0.43985 20.2745L2.41225 19.7465C4.94946 15.7686 9.3246 14.811 12.0411 14.7663C14.7532 14.7215 74.4585 15.424 80.936 15.9431C87.4135 16.4666 86.0553 21.4066 86.0553 21.4066C88.1577 20.9681 90.4573 23.0936 90.4573 23.0936C90.4573 23.0936 90.3139 23.6171 90.2825 23.7468C90.3273 23.6037 90.5201 22.928 91.0535 21.0039C92.3311 16.404 92.0083 16.5561 99.4272 13.84C106.842 11.1284 129.735 11.3432 139.803 11.4685C149.867 11.5938 151.754 11.3566 157.98 15.6165C164.207 19.8718 168.891 47.9993 168.891 47.9993L170.837 47.5205C170.837 47.5205 169.259 36.0029 164.624 23.1562C159.984 10.3095 154.731 7.42788 149.392 5.7678C144.048 4.10771 129.865 0 85.4815 0C41.0981 0 19.4824 6.11682 13.4397 8.38545C7.39702 10.6541 4.33533 12.4037 2.41225 15.8133C2.04018 16.4666 1.3364 18.0864 0.43985 20.2745Z" fill="#1D1D1D"/>
</svg>
