<svg width="251" height="56" viewBox="0 0 251 56" fill="none" xmlns="http://www.w3.org/2000/svg">
<path opacity="0.1" d="M1.82048 46.9277C1.82048 46.9277 2.55116 48.4133 4.67596 48.731C10.7904 49.6528 23.4227 49.7781 23.8799 49.7781C24.494 49.7781 24.3506 49.0442 24.3506 49.0442L83.1997 51.6082C83.1997 51.6082 82.7604 52.7358 83.5494 52.7358C84.3383 52.7358 115.085 53.577 117.103 53.577C119.12 53.577 125.768 25.1229 137.763 26.51C148.531 27.7539 150.302 55.3445 151.351 55.3445C152.399 55.3445 215.583 48.0061 217.072 48.0061C217.861 48.0061 218.515 34.5688 223.285 29.1992C226.284 25.8164 233.667 26.1296 236.374 28.9352C241.493 34.2421 241.825 42.6992 242.61 42.6992C243.394 42.6992 248.074 40.878 248.652 40.3411C250.818 38.3051 250.159 22.3396 250.159 14.1242C250.159 6.86189 247.832 2.87948 246.326 0.36026C248.729 5.82826 245.178 22.268 242.542 23.9102C239.741 25.6553 233.613 22.0712 224.688 23.776C215.758 25.4808 161.522 34.3853 149.015 35.2668C146.496 35.4458 146.603 24.4338 136.096 24.4338C126.57 24.4338 114.202 38.8913 111.629 40.4753C105.026 44.5472 95.841 42.4397 83.267 42.4397C80.5863 42.4397 74.4495 46.9904 71.6254 47.0172C59.1589 47.147 37.7495 46.7577 24.8661 44.2877C13.749 42.1578 16.9362 21.042 13.5338 17.7352C5.94009 10.3566 1.20633 17.7487 1.18391 12.3075C-1.34435 23.1093 1.82942 46.9188 1.82942 46.9188L1.82048 46.9277Z" fill="#33FF33"/>
</svg>
