<svg width="52" height="7" viewBox="0 0 52 7" fill="none" xmlns="http://www.w3.org/2000/svg">
<path d="M51.5036 1.10774V0.0465088H0.92334V1.10774H3.05477V3.65563H0.92334V6.62436H51.5036V3.65563H49.9234V1.10774H51.5036ZM9.02187 1.10774H10.7261V3.65563H9.02187V1.10774ZM8.16747 3.65563H6.46324V1.10774H8.16747V3.65563ZM11.5759 1.10774H13.2802V3.65563H11.5759V1.10774ZM14.13 1.10774H15.8342V3.65563H14.13V1.10774ZM16.6886 1.10774H18.3929V3.65563H16.6886V1.10774ZM19.2427 1.10774H20.9469V3.65563H19.2427V1.10774ZM21.7967 1.10774H23.501V3.65563H21.7967V1.10774ZM24.3508 1.10774H26.055V3.65563H24.3508V1.10774ZM26.9094 1.10774H28.6137V3.65563H26.9094V1.10774ZM29.4635 1.10774H31.1677V3.65563H29.4635V1.10774ZM32.0175 1.10774H33.7217V3.65563H32.0175V1.10774ZM34.5762 1.10774H36.2804V3.65563H34.5762V1.10774ZM37.1302 1.10774H38.8344V3.65563H37.1302V1.10774ZM39.6843 1.10774H41.3885V3.65563H39.6843V1.10774ZM42.2383 1.10774H43.9425V3.65563H42.2383V1.10774ZM44.797 1.10774H46.5012V3.65563H44.797V1.10774ZM3.89541 1.10774H5.59964V3.65563H3.89541V1.10774ZM49.0552 3.65563H47.351V1.10774H49.0552V3.65563Z" fill="#6C6C6C"/>
</svg>
