<svg width="96" height="162" viewBox="0 0 96 162" fill="none" xmlns="http://www.w3.org/2000/svg">
<g clip-path="url(#clip0_307_288)">
<path d="M95.9998 48.2346C95.9998 21.3564 74.1294 -0.389803 47.2966 -2.89017e-05C21.6762 0.373505 0.614041 21.3239 -0.000203869 47.0652C-0.323491 60.4475 4.8006 72.6279 13.2869 81.544C20.1567 88.7711 23.7937 98.5154 23.7937 108.503V117.761H72.1736V107.984C72.1736 97.9957 76.1662 88.5112 82.9713 81.2192C91.0373 72.5955 95.9836 60.9834 95.9836 48.2183L95.9998 48.2346Z" fill="#BDBDBD"/>
<path d="M38.2607 148.715H57.7549V154.903C57.7549 158.817 54.5867 162 50.6911 162H45.3246C41.429 162 38.2607 158.817 38.2607 154.903V148.715Z" fill="#363636"/>
<path d="M23.8096 117.761H72.1894V144.785C72.1894 151.833 66.4834 157.566 59.4681 157.566H36.5309C29.5156 157.566 23.8096 151.833 23.8096 144.785V117.761Z" fill="#313131"/>
<path d="M23.8096 128.609C23.8096 128.609 26.8161 127.992 31.3422 127.05C33.6052 126.612 36.2399 126.092 39.0687 125.54C41.8975 125.004 44.9202 124.452 47.9429 123.883C50.9657 123.347 54.0046 122.811 56.8333 122.324C59.6782 121.853 62.3292 121.398 64.6084 121.025C69.1667 120.31 72.2056 119.839 72.2056 119.839C72.2056 119.839 69.199 120.473 64.673 121.398C62.41 121.837 59.7752 122.357 56.9465 122.909C54.1177 123.445 51.095 123.997 48.0722 124.565C45.0495 125.101 42.0106 125.637 39.1819 126.124C36.3369 126.595 33.686 127.05 31.4068 127.424C26.8485 128.138 23.8096 128.609 23.8096 128.609Z" fill="#5B5B5B"/>
<path d="M23.8096 137.395C23.8096 137.395 26.8161 136.778 31.3422 135.836C33.6052 135.398 36.2399 134.878 39.0687 134.326C41.8975 133.79 44.9202 133.238 47.9429 132.669C50.9657 132.134 54.0046 131.598 56.8333 131.11C59.6782 130.639 62.3292 130.185 64.6084 129.811C69.1667 129.097 72.2056 128.626 72.2056 128.626C72.2056 128.626 69.199 129.259 64.673 130.185C62.41 130.623 59.7752 131.143 56.9465 131.695C54.1177 132.231 51.095 132.783 48.0722 133.352C45.0495 133.888 42.0106 134.423 39.1819 134.911C36.3369 135.382 33.686 135.836 31.4068 136.21C26.8485 136.925 23.8096 137.395 23.8096 137.395Z" fill="#5B5B5B"/>
<path d="M23.8096 146.165C23.8096 146.165 26.8161 145.548 31.3422 144.606C33.6052 144.168 36.2399 143.648 39.0687 143.096C41.8975 142.56 44.9202 142.008 47.9429 141.439C50.9657 140.903 54.0046 140.367 56.8333 139.88C59.6782 139.409 62.3292 138.955 64.6084 138.581C69.1667 137.866 72.2056 137.395 72.2056 137.395C72.2056 137.395 69.199 138.029 64.673 138.955C62.41 139.393 59.7752 139.913 56.9465 140.465C54.1177 141.001 51.095 141.553 48.0722 142.121C45.0495 142.657 42.0106 143.193 39.1819 143.681C36.3369 144.152 33.686 144.606 31.4068 144.98C26.8485 145.694 23.8096 146.165 23.8096 146.165Z" fill="#5B5B5B"/>
<path d="M28.5137 154.091C28.5137 154.091 31.2293 153.522 35.3027 152.662C37.3394 152.256 39.7317 151.785 42.2857 151.281C44.8397 150.81 47.5714 150.291 50.3032 149.787C53.035 149.3 55.7667 148.829 58.3369 148.374C60.907 147.952 63.2993 147.546 65.3522 147.205C69.4741 146.571 72.2059 146.165 72.2059 146.165C72.2059 146.165 69.4903 146.734 65.4169 147.595C63.3801 148.001 60.9878 148.472 58.4339 148.975C55.8799 149.446 53.1481 149.966 50.4163 150.469C47.6846 150.956 44.9528 151.427 42.3827 151.882C39.8125 152.304 37.4202 152.71 35.3674 153.051C31.2454 153.685 28.5137 154.107 28.5137 154.107V154.091Z" fill="#5B5B5B"/>
<path d="M37.0651 117.761C37.0651 117.761 36.7418 113.262 36.2569 106.522C36.0467 103.144 35.7881 99.2138 35.5295 94.9913C35.287 90.7687 35.0284 86.2701 34.7698 81.7714C34.5435 77.2728 34.3172 72.7579 34.0909 68.5353C33.8969 64.3128 33.7191 60.3663 33.5736 56.9883C33.315 50.2322 33.1533 45.7173 33.1533 45.7173C33.1533 45.7173 33.4766 50.2159 33.9615 56.9558C34.1717 60.3338 34.4303 64.264 34.6889 68.4866C34.9314 72.7092 35.19 77.2078 35.4487 81.7065C35.675 86.2051 35.9013 90.72 36.1276 94.9425C36.3215 99.1651 36.4993 103.112 36.6448 106.49C36.9034 113.246 37.0651 117.761 37.0651 117.761Z" fill="#5B5B5B"/>
<path d="M58.9355 117.761C58.9355 117.761 59.0972 113.246 59.3558 106.49C59.5013 103.112 59.6791 99.1651 59.8731 94.9425C60.0832 90.72 60.3095 86.2213 60.552 81.7065C60.8106 77.2078 61.0692 72.7092 61.3117 68.4866C61.5865 64.264 61.829 60.3338 62.0391 56.9558C62.524 50.2159 62.8473 45.7173 62.8473 45.7173C62.8473 45.7173 62.6857 50.2322 62.427 56.9883C62.2816 60.3663 62.1038 64.3128 61.9098 68.5353C61.6996 72.7579 61.4734 77.2565 61.2309 81.7714C60.9723 86.2701 60.7136 90.7687 60.4712 94.9913C60.1964 99.2138 59.9539 103.144 59.7438 106.522C59.2588 113.262 58.9355 117.761 58.9355 117.761Z" fill="#5B5B5B"/>
<path d="M62.5563 51.2553L59.0486 57.1832L58.9193 57.4105L58.7739 57.1832L55.0561 51.3853H55.4925L51.904 57.2644L51.6454 57.6866L51.3706 57.2644L47.7174 51.434H48.2994L44.6301 57.2644L44.3553 57.6866L44.0966 57.2644L40.5081 51.3853H40.9446L37.2268 57.1832L37.0813 57.4268L36.952 57.1832L33.4443 51.2553L37.2268 57.0045H36.952L40.5081 51.1092L40.7183 50.7519L40.9446 51.1092L44.6301 56.9396H44.0966L47.7174 51.0605L48.0084 50.5895L48.2994 51.0605L51.904 56.9396H51.3706L55.0561 51.1092L55.2824 50.7519L55.4925 51.1092L59.0486 57.0045H58.7739L62.5563 51.2553Z" fill="#5B5B5B"/>
</g>
<defs>
<clipPath id="clip0_307_288">
<rect width="96" height="162" fill="white"/>
</clipPath>
</defs>
</svg>
