<svg width="463" height="202" viewBox="0 0 463 202" fill="none" xmlns="http://www.w3.org/2000/svg">
<path d="M444.748 162.487L16.4761 172.497V99.4797H448.87L444.748 162.487Z" fill="#263238"/>
<path opacity="0.5" d="M444.748 162.487L16.4761 172.497V99.4797H448.87L444.748 162.487Z" fill="black"/>
<path d="M0 118.217V155.246C0 163.177 5.17983 170.184 12.7867 172.522L15.8164 173.439C17.6815 174.016 19.628 174.283 21.5745 174.235L41.5771 173.772C39.1989 165.483 38.9953 156.731 40.9662 148.337C47.3677 121.18 74.6433 104.335 101.886 110.716C129.129 117.097 146.029 144.286 139.627 171.442L343.155 166.62C342.83 164.249 342.667 161.862 342.675 159.467C342.797 131.572 365.585 109.06 393.569 109.181C421.553 109.303 444.138 132.019 444.015 159.914C444.015 160.896 443.934 161.87 443.934 162.836C444.203 162.731 444.48 162.625 444.748 162.487L451.712 159.394C458.578 156.301 462.992 149.49 462.992 141.98V66.5593C462.992 59.4637 459.05 52.9527 452.754 49.6484L400.443 22.2242C399.84 21.9076 399.384 21.3799 399.148 20.7466C398.619 19.3178 399.36 17.7428 400.785 17.2151L407.187 14.9257C407.724 14.7389 408.107 14.2681 408.18 13.7079C408.286 12.896 407.708 12.1491 406.893 12.0436C382.037 8.58513 285.363 -4.01477 234.542 2.17964C175.927 9.33203 119.747 60.0401 119.747 60.0401C76.6061 58.4327 36.3402 73.395 19.0008 80.9128C13.4057 83.3483 9.09728 88.0246 7.14262 93.7968L1.20537 111.316C0.439797 113.533 0.0244331 115.863 0 118.217Z" fill="#4A4A4A"/>
<path d="M343.204 166.628C342.911 164.403 342.764 162.163 342.764 159.914C342.764 158.769 342.805 157.641 342.87 156.512L306.066 141.509C303.908 140.632 301.586 140.259 299.265 140.405L171.252 148.775C169.159 148.905 167.115 149.465 165.249 150.423L140.93 162.893C140.759 165.775 140.344 168.641 139.692 171.45L343.204 166.628Z" fill="#263238"/>
<path d="M463 141.98V140.056L442.183 146.413C443.397 150.813 444.007 155.351 444.007 159.914C444.007 160.896 443.926 161.87 443.926 162.836C444.195 162.731 444.472 162.625 444.74 162.487L451.712 159.394C458.578 156.301 462.992 149.49 462.992 141.98H463Z" fill="#263238"/>
<path d="M5.90479 168.536C7.89201 170.37 10.262 171.726 12.8519 172.522L15.8817 173.439C17.7467 174.016 19.6932 174.283 21.6397 174.235L41.6423 173.772C40.9175 171.255 40.3962 168.682 40.0786 166.076L5.90479 168.536Z" fill="#263238"/>
<path d="M393.48 104.659C391.183 104.659 388.878 104.797 386.598 105.081C356.227 108.865 334.677 136.468 338.473 166.741L343.27 166.62C342.944 164.249 342.781 161.862 342.789 159.467C342.911 131.572 365.699 109.06 393.683 109.181C421.667 109.303 444.252 132.019 444.13 159.914C444.13 160.896 444.048 161.87 444.048 162.836C444.317 162.731 444.594 162.625 444.863 162.487L448.861 160.677V159.906C448.821 129.396 424.021 104.676 393.415 104.651H393.472L393.48 104.659Z" fill="#263238"/>
<path d="M90.3702 104.659C85.6383 104.659 80.9227 105.26 76.3374 106.454C46.7163 114.166 28.9779 144.359 36.7232 173.886L41.6424 173.78C39.2642 165.491 39.0606 156.739 41.0315 148.345C47.433 121.189 74.7086 104.343 101.952 110.724C129.194 117.105 146.094 144.294 139.693 171.45L144.604 171.328C145.402 167.57 145.801 163.729 145.801 159.881C145.801 129.372 120.977 104.643 90.3702 104.651V104.659Z" fill="#263238"/>
<path d="M138.609 62.1672C138.015 62.6705 137.599 63.3849 137.42 64.1968C136.997 66.1209 138.031 68.0693 139.725 68.5321L160.884 74.4423C162.757 74.97 164.704 75.1162 166.626 74.8726L323.495 55.5019C327.315 55.0148 330.874 53.0501 333.569 49.9326L354.15 26.0318C354.834 25.2443 355.266 24.2132 355.38 23.1172C355.657 20.3975 353.947 17.9457 351.56 17.6372C313.998 12.6687 266.5 8.15485 236.513 11.8082C197.208 16.59 157.634 46.0438 138.617 62.159L138.609 62.1672Z" fill="#4A4A4A"/>
<path opacity="0.8" d="M139.31 62.1672C138.715 62.6705 138.3 63.3849 138.121 64.1968C137.697 66.1209 138.732 68.0693 140.426 68.5321L161.585 74.4423C163.458 74.97 165.404 75.1162 167.327 74.8726L320.685 64.3916C324.505 63.9045 330.401 56.9145 334.58 51.2397L354.851 26.0318C355.535 25.2443 355.967 24.2132 356.081 23.1172C356.358 20.3975 354.647 17.9457 352.261 17.6372C314.699 12.6687 267.201 8.15485 237.213 11.8082C197.909 16.59 158.335 46.0438 139.318 62.159L139.31 62.1672Z" fill="white"/>
<g opacity="0.3">
<path d="M241.79 77.0727C240.789 76.7155 240.267 75.6114 240.626 74.6047C241.074 73.3626 242.222 72.5183 243.55 72.4614L262.217 71.6739C262.469 71.6658 262.722 71.6983 262.958 71.7876C263.968 72.1448 264.497 73.257 264.139 74.2718C263.683 75.514 262.526 76.3583 261.207 76.4151L242.54 77.1864C242.287 77.1945 242.035 77.162 241.799 77.0727H241.79Z" fill="black"/>
</g>
<path d="M380.62 23.7505C378.966 25.2118 378.82 27.7366 380.286 29.3766L384.716 34.1746C385.221 34.7104 385.873 35.1001 386.581 35.3031L440.815 50.2979C441.759 50.5496 442.729 50.6795 443.706 50.6795H454.481C453.919 50.306 453.349 49.9651 452.746 49.6403L400.435 22.1917C399.115 21.5422 398.57 19.951 399.221 18.6277L382.232 22.8655C381.629 23.0279 381.084 23.3283 380.62 23.7342V23.7505Z" fill="#4A4A4A"/>
<path d="M42.921 87.9758L24.4169 85.9706L13.7885 90.3059C11.557 91.2151 9.88737 93.1311 9.28469 95.4611C8.93448 96.8088 9.12994 98.2457 9.83036 99.4473L10.0177 99.7639C11.2068 101.802 13.5116 102.93 15.8572 102.605L26.5263 101.144C27.5688 100.998 28.5543 100.592 29.3932 99.9587L41.6993 90.6549L42.921 87.9677V87.9758Z" fill="white"/>
<path d="M119.788 60.0239L122.736 60.8601C125.024 61.5096 127.492 60.9819 129.308 59.4475C146.46 44.9884 176.269 22.8006 208.447 12.4577C208.594 12.4089 208.708 12.3115 208.781 12.1816C208.944 11.8975 208.838 11.5321 208.553 11.3698L204.554 9.32391C158.139 25.366 119.788 60.0239 119.788 60.0239Z" fill="#4A4A4A"/>
<path opacity="0.8" d="M119.788 60.0239L122.736 60.8601C125.024 61.5096 127.492 60.9819 129.308 59.4475C146.46 44.9884 176.269 22.8006 208.447 12.4577C208.594 12.4089 208.708 12.3115 208.781 12.1816C208.944 11.8975 208.838 11.5321 208.553 11.3698L204.554 9.32391C158.139 25.366 119.788 60.0239 119.788 60.0239Z" fill="white"/>
<path opacity="0.2" d="M295.641 79.5488L139.692 90.663L142.624 109.839C143.52 115.709 145.711 121.318 149.026 126.254L162.057 145.674L295.16 127.732L358.084 79.5488H295.641Z" fill="white"/>
<path d="M393.431 201.992C416.749 201.992 435.651 183.149 435.651 159.906C435.651 136.662 416.749 117.819 393.431 117.819C370.113 117.819 351.21 136.662 351.21 159.906C351.21 183.149 370.113 201.992 393.431 201.992Z" fill="#263238"/>
<path opacity="0.4" d="M393.431 185.706C407.725 185.706 419.314 174.155 419.314 159.906C419.314 145.656 407.725 134.105 393.431 134.105C379.136 134.105 367.548 145.656 367.548 159.906C367.548 174.155 379.136 185.706 393.431 185.706Z" fill="white"/>
<g opacity="0.3">
<path d="M393.431 136.703H393.423C392.28 136.703 391.354 137.626 391.354 138.765V151.99C391.354 153.129 392.28 154.052 393.423 154.052H393.431C394.573 154.052 395.499 153.129 395.499 151.99V138.765C395.499 137.626 394.573 136.703 393.431 136.703Z" fill="white"/>
</g>
<g opacity="0.3">
<path d="M393.431 165.775H393.423C392.28 165.775 391.354 166.699 391.354 167.837V181.062C391.354 182.201 392.28 183.125 393.423 183.125H393.431C394.573 183.125 395.499 182.201 395.499 181.062V167.837C395.499 166.699 394.573 165.775 393.431 165.775Z" fill="white"/>
</g>
<g opacity="0.3">
<path d="M401.339 157.746C400.345 158.306 399.083 157.965 398.521 156.975C397.951 155.984 398.293 154.726 399.286 154.166L410.77 147.517C411.764 146.949 413.034 147.281 413.612 148.272C414.174 149.262 413.84 150.521 412.855 151.089L401.371 157.738C401.371 157.738 401.355 157.746 401.347 157.746H401.339Z" fill="white"/>
</g>
<g opacity="0.3">
<path d="M376.083 172.221C375.089 172.79 373.827 172.449 373.265 171.458C372.695 170.468 373.037 169.209 374.031 168.649L385.514 162C386.5 161.432 387.762 161.765 388.34 162.747C388.919 163.738 388.585 165.004 387.591 165.58L376.099 172.229L376.083 172.221Z" fill="white"/>
</g>
<g opacity="0.3">
<path d="M410.762 172.27L399.278 165.621C398.285 165.045 397.942 163.778 398.521 162.788C399.099 161.805 400.369 161.473 401.363 162.041L412.847 168.69C413.832 169.266 414.174 170.517 413.604 171.507C413.026 172.497 411.755 172.838 410.762 172.262V172.27Z" fill="white"/>
</g>
<g opacity="0.3">
<path d="M388.324 156.983C387.754 157.965 386.492 158.306 385.498 157.738L374.014 151.089C373.029 150.521 372.687 149.262 373.257 148.272C373.827 147.29 375.09 146.949 376.083 147.517L387.575 154.166C388.56 154.742 388.894 156.001 388.324 156.983Z" fill="white"/>
</g>
<path d="M389.953 159.898C389.953 157.99 391.509 156.439 393.423 156.439H393.439C395.361 156.439 396.917 157.99 396.917 159.906C396.917 161.822 395.361 163.372 393.439 163.372C391.517 163.372 389.961 161.822 389.961 159.906V159.889L389.953 159.898Z" fill="#263238"/>
<path d="M90.3699 202C113.688 202 132.59 183.157 132.59 159.914C132.59 136.67 113.688 117.828 90.3699 117.828C67.0522 117.828 48.1494 136.67 48.1494 159.914C48.1494 183.157 67.0522 202 90.3699 202Z" fill="#263238"/>
<path opacity="0.4" d="M90.3702 185.714C104.665 185.714 116.253 174.163 116.253 159.914C116.253 145.665 104.665 134.113 90.3702 134.113C76.0754 134.113 64.4873 145.665 64.4873 159.914C64.4873 174.163 76.0754 185.714 90.3702 185.714Z" fill="white"/>
<g opacity="0.3">
<path d="M90.362 136.703H90.3538C89.2113 136.703 88.2852 137.626 88.2852 138.765V151.99C88.2852 153.129 89.2113 154.052 90.3538 154.052H90.362C91.5045 154.052 92.4306 153.129 92.4306 151.99V138.765C92.4306 137.626 91.5045 136.703 90.362 136.703Z" fill="white"/>
</g>
<g opacity="0.3">
<path d="M90.362 165.775H90.3538C89.2113 165.775 88.2852 166.699 88.2852 167.837V181.062C88.2852 182.201 89.2113 183.125 90.3538 183.125H90.362C91.5045 183.125 92.4306 182.201 92.4306 181.062V167.837C92.4306 166.699 91.5045 165.775 90.362 165.775Z" fill="white"/>
</g>
<g opacity="0.3">
<path d="M98.2619 157.746C97.2765 158.306 96.0222 157.957 95.4603 156.975C94.8902 155.993 95.2241 154.734 96.2095 154.158L107.701 147.509C108.695 146.94 109.957 147.281 110.519 148.272C111.089 149.262 110.747 150.521 109.754 151.081L98.2701 157.73C98.2701 157.73 98.2538 157.738 98.2456 157.746H98.2619Z" fill="white"/>
</g>
<g opacity="0.3">
<path d="M70.1967 171.466C69.6266 170.476 69.9686 169.218 70.9622 168.657L82.4458 162.008C83.4394 161.432 84.71 161.765 85.2882 162.755C85.8583 163.746 85.5244 165.012 84.5308 165.589L73.0472 172.238C72.0536 172.806 70.7831 172.473 70.2048 171.483L70.1967 171.466Z" fill="white"/>
</g>
<g opacity="0.3">
<path d="M110.527 171.523C109.957 172.506 108.695 172.846 107.701 172.278L96.2095 165.629C95.2241 165.053 94.8902 163.786 95.4603 162.796C96.0385 161.813 97.3009 161.481 98.2864 162.049L109.77 168.698C110.755 169.266 111.097 170.525 110.527 171.515V171.523Z" fill="white"/>
</g>
<g opacity="0.3">
<path d="M85.2636 156.999C84.6853 157.982 83.423 158.314 82.4375 157.738L70.9539 151.089C69.9684 150.521 69.6264 149.262 70.1965 148.272C70.7747 147.281 72.0452 146.94 73.0389 147.517L84.5224 154.166C85.5079 154.734 85.85 155.993 85.2799 156.983C85.2799 156.983 85.2799 156.999 85.2636 157.007V156.999Z" fill="white"/>
</g>
<path d="M90.3702 156.439C92.2923 156.439 93.8479 157.99 93.8479 159.906C93.8479 161.822 92.2923 163.372 90.3702 163.372C88.4482 163.372 86.8926 161.822 86.8926 159.906C86.8926 157.99 88.4482 156.439 90.3702 156.439Z" fill="#263238"/>
<path opacity="0.3" d="M458.578 80.515C459.987 80.0766 460.768 78.5909 460.329 77.1864C459.84 68.3291 457.95 60.4379 452.502 55.0148C452.135 53.8214 450.987 53.042 449.741 53.1394L417.562 56.1676C417 56.2244 416.479 56.4599 416.056 56.8415C414.964 57.8238 414.875 59.5043 415.868 60.6003L425.08 70.5049C425.397 70.8458 425.805 71.0975 426.252 71.2355L457.055 80.5393C457.551 80.6773 458.073 80.6692 458.569 80.515H458.578Z" fill="black"/>
<path d="M137.412 64.1886C136.989 66.1127 138.023 68.0612 139.717 68.5239L160.876 74.4342C162.749 74.9619 164.321 75.3272 166.756 75.4327L173.419 74.9944L167.139 41.1646C152.626 50.6632 151.632 51.0935 138.609 62.1509C138.015 62.6542 137.6 63.3687 137.42 64.1805L137.412 64.1886Z" fill="#263238"/>
<path d="M275.231 10.7284L261.939 68.4996L279.328 67.2574L287.268 11.2723C283.204 11.0369 279.189 10.8583 275.231 10.7284Z" fill="#263238"/>
<path d="M330.401 56.4436L354.818 26.0399C355.519 25.2442 355.967 24.197 356.081 23.0847C356.358 20.365 354.639 17.9133 352.245 17.6129C347.244 16.939 341.918 16.2814 336.591 15.6482" fill="#263238"/>
<path d="M156.657 70.0583C152.431 70.107 148.961 66.7298 148.912 62.5163C148.871 58.936 151.331 55.8023 154.833 54.9904L165.03 52.6036L167.628 69.6443L156.861 70.0502C156.796 70.0502 156.723 70.0502 156.657 70.0502V70.0583Z" fill="#4A4A4A"/>
<path opacity="0.3" d="M164.647 69.758L167.628 69.6443L165.038 52.6117L162.122 53.2937L164.647 69.758Z" fill="black"/>
<path opacity="0.6" d="M278.97 67.2574C279.092 73.2489 279.027 79.5813 278.383 82.8125C276.942 90.0055 265.694 142.597 265.694 142.597" stroke="black" stroke-width="0.5" stroke-linecap="round" stroke-linejoin="round"/>
<path opacity="0.6" d="M137.322 65.4551C137.322 65.4551 140.686 110.927 145.801 120.125C150.793 129.096 165.257 150.415 165.257 150.415" stroke="black" stroke-width="0.5" stroke-linecap="round" stroke-linejoin="round"/>
<path opacity="0.6" d="M125.586 61.128C125.586 61.128 89.6289 69.9853 79.0493 71.6739C70.3593 73.0622 35.0453 81.6272 24.4087 85.9624" stroke="black" stroke-width="0.5" stroke-linecap="round" stroke-linejoin="round"/>
<path opacity="0.8" d="M380.62 23.7505C378.966 25.2118 378.82 27.7366 380.286 29.3766L384.716 34.1746C385.221 34.7104 385.873 35.1001 386.581 35.3031L440.815 50.2979C441.759 50.5496 442.729 50.6795 443.706 50.6795H454.481C453.919 50.306 453.349 49.9651 452.746 49.6403L400.435 22.1917C399.115 21.5422 398.57 19.951 399.221 18.6277L382.232 22.8655C381.629 23.0279 381.084 23.3283 380.62 23.7342V23.7505Z" fill="white"/>
<path d="M176.937 58.3027C176.448 58.595 170.69 64.5296 170.69 64.5296L171.814 71.885L179.054 64.4322L176.937 58.3027Z" fill="#263238"/>
<path d="M185.602 73.6386C184.332 74.2637 182.793 73.7441 182.157 72.4776L170.674 49.275C170.047 48.0085 170.568 46.4741 171.838 45.8409C173.109 45.2158 174.648 45.7353 175.284 47.0018L186.767 70.2045C187.394 71.471 186.873 73.0053 185.602 73.6386Z" fill="#263238"/>
<path d="M198.136 45.7109C198.136 45.7109 203.837 68.3696 207.177 69.2302C213.228 70.7808 234.053 69.0435 233.646 68.3778L232.758 57.9536C232.758 57.9536 211.77 61.4121 211.933 61.0467L204.025 43.4296L198.136 45.7109Z" fill="#B97964"/>
<path d="M203.381 44.8017C203.381 44.8017 205.255 43.0643 205.304 40.9616C205.352 38.8508 205.955 37.1865 205.89 35.6197C205.817 34.0528 204.505 35.7171 203.984 36.74C203.463 37.7629 202.86 38.9239 202.152 38.4124C201.443 37.901 198.348 31.0246 197.281 30.4238C196.214 29.8231 196.369 31.0895 196.369 31.0895C196.369 31.0895 195.571 29.4415 194.83 29.5795C194.634 29.612 194.243 30.0098 194.496 30.8135C195.05 32.6321 196.402 36.3828 196.402 36.3828C196.328 36.1636 194.325 31.6497 193.942 31.0083C193.437 30.1721 192.769 30.0422 192.297 30.3508C191.621 30.7891 193.91 36.4721 193.836 36.7806C193.836 36.7806 192.631 33.4683 191.597 33.3059C190.57 33.1516 191.214 35.2787 192.142 37.0485C192.989 38.6722 194.235 42.0739 195.261 43.6407C196.524 45.5729 197.811 46.5796 199.953 46.2549C202.095 45.9301 203.398 44.8017 203.398 44.8017H203.381Z" fill="#B97964"/>
<path opacity="0.3" d="M196.507 31.2762C197.11 32.6158 197.656 33.9797 198.136 35.368" stroke="black" stroke-width="0.25" stroke-linecap="round" stroke-linejoin="round"/>
<path opacity="0.3" d="M194.251 38.0877C195.717 36.8861 197.55 36.123 199.439 35.9282" stroke="black" stroke-width="0.25" stroke-linecap="round" stroke-linejoin="round"/>
<path opacity="0.3" d="M201.679 39.2242C201.028 39.6464 200.531 40.2959 200.295 41.0265C200.058 41.7653 200.091 42.5772 200.384 43.2916" stroke="black" stroke-width="0.25" stroke-linecap="round" stroke-linejoin="round"/>
<path d="M257.59 56.3868C253.779 51.3695 247.728 51.8729 243.794 52.5629L236 53.8457C235.755 53.8863 235.511 53.9431 235.275 54.0162L233.499 54.5682L216.836 59.8858L220.859 70.5211L226.3 69.8553L225.396 71.3248L230.738 70.9838L259.903 69.4656V63.5635C259.903 60.9899 259.154 58.4326 257.599 56.3786L257.59 56.3868Z" fill="#263238"/>
<path d="M256.01 64.757C256.01 64.757 252.354 89.2017 249.764 91.7915C243.59 97.9778 220.729 80.9615 220.729 80.9615L221.438 74.3936L241.18 82.5446L244.877 61.7856L256.01 64.7651V64.757Z" fill="#B97964"/>
<path d="M259.016 63.0926C258.837 63.6934 257.257 80.7504 257.257 80.7504L240.512 79.1916C240.512 79.1916 241.383 74.4585 242.654 66.1777C243.973 57.5558 244.747 53.1962 249.031 52.4899C257.159 51.1585 259.016 63.0926 259.016 63.0926Z" fill="#263238"/>
<path d="M253.404 24.473C255.929 28.8895 256.808 31.528 257.037 35.7577C257.305 40.7019 257.077 45.0696 255.97 46.3361C254.52 48.0004 238.809 49.5591 230.013 49.2019C229.696 49.1857 229.427 46.401 229.427 46.401C229.427 46.401 228.181 49.1207 227.766 49.1045C225.363 48.999 223.824 48.9097 223.824 48.9097C223.824 48.9097 225.811 44.8261 228.254 30.091C229.443 22.898 236.708 20.0241 240.984 19.4801C248.11 18.579 253.396 24.4649 253.396 24.4649L253.404 24.473Z" fill="#263238"/>
<path d="M232.473 38.3719C230.168 34.4019 227.888 23.7017 237.482 20.3975C249.462 16.2733 254.829 23.8966 255.855 31.4387C256.882 38.9889 252.614 44.688 244.698 44.1197C236.781 43.5514 234.061 41.1159 232.473 38.3719Z" fill="#263238"/>
<path d="M249.112 38.9077L242.034 45.3943L240.674 46.8394C241.049 47.8623 241.367 48.9096 241.472 49.9163C241.684 51.6943 240.585 53.0338 240.585 53.0338L238.997 56.6303C242.539 53.8619 250.61 52.3843 250.61 52.3843C249.283 47.7649 248.729 43.4297 249.112 38.8995V38.9077Z" fill="#B97964"/>
<path opacity="0.2" d="M241.505 50.3142C243.419 49.2993 245.545 47.4889 245.398 45.2969C245.333 44.3714 245.17 43.4946 244.983 42.9263L240.976 47.7325C241.244 48.5524 241.334 49.0883 241.505 50.3142Z" fill="black"/>
<path d="M251.36 31.6985C250.399 38.5911 250.138 41.5218 246.392 44.9884C240.748 50.2005 232.538 47.9841 231.422 41.051C230.421 34.816 232.164 24.5867 239.119 21.9887C245.968 19.4314 252.321 24.7977 251.36 31.6985Z" fill="#B97964"/>
<path d="M242.539 33.8093C242.466 34.5074 242.01 35.0595 241.521 35.0433C241.033 35.027 240.691 34.4587 240.764 33.7605C240.837 33.0623 241.293 32.5103 241.782 32.5265C242.271 32.5428 242.613 33.1111 242.547 33.8093H242.539Z" fill="#263238"/>
<path d="M235.316 33.3465C235.242 34.0122 234.794 34.5399 234.314 34.5237C233.833 34.5074 233.491 33.9635 233.565 33.2978C233.638 32.6321 234.086 32.1044 234.566 32.1206C235.047 32.1287 235.381 32.6808 235.316 33.3465Z" fill="#263238"/>
<path d="M243.639 31.2925C243.541 31.3088 243.443 31.2925 243.37 31.2276C242.181 30.294 240.878 30.6999 240.862 30.708C240.666 30.7729 240.471 30.6755 240.422 30.4969C240.373 30.3183 240.487 30.1235 240.683 30.0585C240.748 30.0342 242.385 29.5227 243.859 30.6836C244.005 30.7973 244.014 31.0165 243.883 31.1708C243.818 31.2438 243.729 31.2844 243.639 31.3006V31.2925Z" fill="#263238"/>
<path d="M233.019 29.8718C232.945 29.8312 232.888 29.7663 232.864 29.6851C232.815 29.5146 232.921 29.3279 233.108 29.271C234.981 28.7352 236.203 29.6851 236.252 29.7257C236.399 29.8393 236.407 30.0504 236.285 30.1884C236.154 30.3264 235.934 30.3508 235.788 30.229C235.739 30.1884 234.778 29.4659 233.287 29.8962C233.19 29.9205 233.092 29.9124 233.011 29.8718H233.019Z" fill="#263238"/>
<path d="M245.846 25.2767C243.525 27.485 244.217 36.2773 250.375 37.7061C257.599 36.3585 252.769 18.6764 245.846 25.2767Z" fill="#263238"/>
<path d="M236.847 39.8981C237.368 40.7912 237.97 42.5042 237.97 42.5042C238.133 42.4798 238.304 42.4555 238.467 42.4149C240.707 42.0008 241.603 41.0753 241.92 40.1661C242.092 39.6708 242.083 39.1756 242.026 38.7859C241.961 38.3313 241.815 38.0228 241.815 38.0228C240.764 38.9483 238.703 39.4922 237.596 39.7358C237.132 39.8413 236.838 39.89 236.838 39.89L236.847 39.8981Z" fill="#263238"/>
<path d="M237.612 39.7439L237.962 40.507C240.064 40.1092 241.497 39.549 242.035 38.794C241.969 38.3394 241.823 38.0309 241.823 38.0309C240.772 38.9564 238.712 39.5003 237.604 39.7439H237.612Z" fill="white"/>
<path d="M238.467 42.4148C240.707 42.0008 241.603 41.0753 241.92 40.166C241.163 40.3365 240.267 40.6288 239.526 41.1159C238.956 41.4893 238.646 41.9602 238.459 42.4148H238.467Z" fill="#DC5753"/>
<path d="M237.286 32.9487C237.286 32.9487 235.828 36.0093 234.395 37.4707C235.242 38.3718 236.855 37.9903 236.855 37.9903L237.286 32.9487Z" fill="#AA6954"/>
<path d="M240.406 32.1287L241.986 32.5752C241.228 33.3546 240.406 32.1287 240.406 32.1287Z" fill="#263238"/>
<path d="M233.279 31.7309L234.859 32.1774C234.102 32.9568 233.279 31.7309 233.279 31.7309Z" fill="#263238"/>
<path d="M239.233 20.5112C236.447 21.3149 233.312 25.91 232.742 27.7123C236.61 28.5322 247.296 25.3741 247.296 25.3741C247.296 25.3741 254.227 27.6311 250.83 23.9209C247.442 20.2108 239.225 20.5193 239.225 20.5193L239.233 20.5112Z" fill="#263238"/>
<path d="M229.321 28.8164C228.792 31.8446 228.246 34.9053 227.082 37.7549C225.917 40.6045 223.498 46.4822 220.851 48.0654" stroke="#263238" stroke-width="0.5" stroke-miterlimit="10"/>
<path d="M249.001 38.2354C248.969 38.9498 249.523 39.5506 250.239 39.583C250.956 39.6155 251.559 39.0635 251.591 38.349C251.624 37.6346 251.07 37.0338 250.353 37.0014C249.637 36.9689 249.034 37.5209 249.001 38.2354Z" fill="#4A4A4A"/>
<path opacity="0.1" d="M251.84 35.4005C251.238 35.1975 250.537 35.2949 250.008 35.644C249.479 35.9931 249.12 36.5939 249.071 37.2271" stroke="black" stroke-width="0.5" stroke-linecap="round" stroke-linejoin="round"/>
<path d="M229.199 78.9399L221.429 74.3936L219.312 71.6901C219.312 71.6901 217.129 69.1247 215.37 68.9542C214.116 68.8405 212.813 69.4819 212.813 69.4819C212.813 69.4819 210.776 70.7646 212.023 72.6968C212.023 72.6968 210.003 73.736 211.379 75.9767C211.379 75.9767 209.449 76.0091 211.094 78.0225C212.739 80.0359 214.694 80.4337 216.241 80.6692C217.789 80.9046 219.654 80.3688 219.654 80.3688L228.23 85.9868L229.191 78.9318L229.199 78.9399Z" fill="#B97964"/>
<path d="M241.978 70.4237L243.387 61.6638L239.111 70.5211L241.978 70.4237Z" fill="black"/>
<path d="M226.292 69.8553L229.786 62.7841L223.075 70.2531L226.292 69.8553Z" fill="black"/>
</svg>
