<svg width="80" height="291" viewBox="0 0 80 291" fill="none" xmlns="http://www.w3.org/2000/svg">
<path d="M47.3047 265.955L52.2264 264.351L50.7816 261.016L47.6858 263.652L47.3047 265.955Z" fill="black"/>
<path d="M42.6688 257.062C42.6688 257.062 42.3513 260.19 42.256 261.175C42.1766 262.159 46.2728 265.415 47.3047 265.955L47.6858 263.652C48.559 264.589 49.0512 265.764 49.9561 267.495C50.7182 268.94 51.6391 271.64 53.7983 273.562C57.0053 276.404 62.1334 277.976 67.4203 278.405C72.7072 278.818 75.7872 277.659 77.3272 276.579C78.8831 275.499 79.4071 274.181 79.0895 272.831C78.772 271.481 42.6688 257.062 42.6688 257.062Z" fill="#2E2E2E"/>
<path d="M57.2592 246.946L57.4021 245.136C58.3705 245.136 58.3864 247.788 59.7042 250.154C61.4823 253.346 64.1337 257.348 66.7533 259.936C71.9132 265.018 76.565 268.273 78.8671 270.56C81.9471 273.625 76.1205 278.04 67.5154 277.198C63.2446 276.785 55.7192 274.324 53.687 271.704C51.6548 269.099 50.5117 265.113 48.8764 263.208C47.2411 261.302 43.6371 259.301 42.6687 257.046C42.1289 255.807 42.5575 252.965 43.018 250.567C43.4307 248.359 43.6371 244.961 44.8914 245.295L44.939 246.438C45.4153 247.438 46.5425 249.09 49.9719 249.805C51.6865 250.17 56.8147 250.535 57.2751 246.946H57.2592Z" fill="#181818"/>
<path opacity="0.15" d="M52.7183 250.011C54.3694 249.932 56.1635 249.471 56.9256 248.026C56.9256 248.01 56.9414 247.994 56.9573 247.978C56.9573 247.978 56.4492 249.662 57.9258 251.52C59.3864 253.378 68.6107 266.463 68.6107 266.463C68.6107 266.463 59.9738 255.633 58.3227 253.584C55.8777 250.567 55.068 250.186 52.7183 250.011Z" fill="#606060"/>
<path opacity="0.15" d="M54.7349 253.457C54.6873 253.743 54.4173 253.933 54.1316 253.902C53.8458 253.87 53.6394 253.584 53.687 253.298C53.7347 253.012 54.0046 252.822 54.2903 252.854C54.5761 252.901 54.7825 253.171 54.7349 253.457Z" fill="black"/>
<path opacity="0.15" d="M57.1641 256.379C57.1164 256.665 56.8465 256.855 56.5608 256.824C56.275 256.776 56.0686 256.506 56.1162 256.22C56.1639 255.934 56.4338 255.744 56.7195 255.776C57.0053 255.823 57.2117 256.093 57.1641 256.379Z" fill="black"/>
<path opacity="0.15" d="M59.5933 259.285C59.5456 259.571 59.2757 259.762 58.99 259.73C58.7042 259.682 58.4978 259.412 58.5454 259.126C58.5931 258.84 58.863 258.65 59.1487 258.682C59.4345 258.729 59.6409 258.999 59.5933 259.285Z" fill="black"/>
<path opacity="0.15" d="M62.022 262.191C61.9744 262.477 61.7045 262.668 61.4187 262.636C61.1329 262.588 60.9265 262.318 60.9741 262.032C61.0218 261.747 61.2917 261.556 61.5774 261.588C61.8632 261.635 62.0696 261.905 62.022 262.191Z" fill="black"/>
<path opacity="0.15" d="M64.4512 265.097C64.4036 265.383 64.1337 265.574 63.8479 265.542C63.5621 265.494 63.3557 265.224 63.4033 264.939C63.451 264.653 63.7209 264.462 64.0066 264.494C64.2924 264.542 64.4988 264.812 64.4512 265.097Z" fill="black"/>
<path d="M54.1954 253.6C54.1954 253.6 54.1001 253.568 54.0683 253.536C53.9889 253.457 53.9889 253.314 54.0683 253.235C54.1795 253.139 56.815 250.805 60.1332 251.139C60.2443 251.139 60.3237 251.25 60.3237 251.377C60.3237 251.488 60.2125 251.583 60.0855 251.567C56.9579 251.25 54.37 253.536 54.3541 253.552C54.3065 253.6 54.243 253.616 54.1795 253.6H54.1954Z" fill="#263238"/>
<path d="M56.6241 256.49C56.6241 256.49 56.5288 256.458 56.497 256.427C56.4177 256.347 56.4177 256.204 56.497 256.125C56.6082 256.03 59.2437 253.695 62.5619 254.029C62.673 254.029 62.7524 254.14 62.7524 254.267C62.7524 254.378 62.6413 254.473 62.5142 254.458C59.3866 254.14 56.7987 256.427 56.7828 256.443C56.7352 256.49 56.6717 256.506 56.6082 256.49H56.6241Z" fill="#373737"/>
<path d="M59.0533 259.412C59.0533 259.412 58.958 259.381 58.9262 259.349C58.8469 259.269 58.8469 259.126 58.9262 259.047C59.0374 258.952 61.6729 256.617 64.9911 256.951C65.1022 256.951 65.1816 257.062 65.1816 257.189C65.1816 257.3 65.0705 257.395 64.9434 257.38C61.8158 257.062 59.2279 259.349 59.212 259.365C59.1644 259.412 59.1009 259.428 59.0374 259.412H59.0533Z" fill="#373737"/>
<path d="M61.4825 262.318C61.4825 262.318 61.3872 262.287 61.3554 262.255C61.2761 262.175 61.2761 262.032 61.3554 261.953C61.4666 261.858 64.1021 259.523 67.4203 259.857C67.5314 259.857 67.6108 259.968 67.6108 260.095C67.6108 260.206 67.4997 260.301 67.3726 260.286C64.245 259.968 61.6571 262.255 61.6412 262.271C61.5936 262.318 61.5301 262.334 61.4666 262.318H61.4825Z" fill="#373737"/>
<path d="M63.9117 265.224C63.9117 265.224 63.8164 265.193 63.7846 265.161C63.7053 265.081 63.7053 264.939 63.7846 264.859C63.8958 264.764 66.5313 262.429 69.8495 262.763C69.9606 262.763 70.04 262.874 70.04 263.001C70.04 263.112 69.9289 263.208 69.8018 263.192C66.6742 262.874 64.0863 265.161 64.0704 265.177C64.0228 265.224 63.9593 265.24 63.8958 265.224H63.9117Z" fill="#373737"/>
<path d="M19.5841 277.961C19.2666 282.121 18.568 284.868 17.0438 287.298C15.5197 289.712 12.392 290.3 9.99468 290.046C6.62886 289.696 3.16781 287.759 1.4214 283.201C0.373549 280.454 0.564048 277.182 1.27849 273.323L19.5841 277.976V277.961Z" fill="#2E2E2E"/>
<path d="M7.2163 247.518C6.04144 247.597 5.61278 253.171 4.83483 258.761C4.00925 264.748 2.10407 268.083 1.43726 272.117C0.516418 277.706 0.849834 280.247 2.78677 283.677C4.70783 287.108 13.2494 290.665 16.774 285.853C19.6635 281.931 19.854 277.532 19.6952 271.91C19.5365 266.098 19.3618 262.017 19.6793 257.618C19.981 253.409 20.3462 249.328 19.3301 248.852C19.2348 249.471 19.1554 250.249 19.0602 250.853C18.9808 251.313 18.8379 253.6 18.1711 253.6C18.1235 253.06 18.1394 252.568 18.1711 252.012C18.2029 251.536 18.1711 251.012 17.8694 250.646C17.5678 250.281 17.0597 250.154 16.5835 250.043C15.4403 249.805 14.2813 249.582 13.1223 249.455C12.5349 249.392 11.9634 249.36 11.376 249.36C10.8997 249.36 8.7563 249.281 8.31176 249.439C8.04186 249.535 7.77197 249.725 7.67671 249.995C7.59733 250.202 7.61322 250.424 7.59735 250.63C7.59735 251.012 7.53383 251.409 7.43857 251.79C7.39094 251.948 7.2798 252.155 7.10516 252.107C6.96227 252.075 6.91464 251.901 6.91464 251.758C6.91464 251.075 7.0099 250.583 7.05753 249.805C7.0734 249.439 7.15281 248.947 7.15281 248.582C7.15281 248.217 7.16868 247.867 7.20043 247.502L7.2163 247.518Z" fill="#181818"/>
<path opacity="0.15" d="M5.70814 273.578C5.67638 273.8 5.83514 274.006 6.07329 274.022C6.31144 274.038 6.50195 273.895 6.5337 273.673C6.56545 273.45 6.40669 273.244 6.16855 273.228C5.94627 273.196 5.73989 273.355 5.70814 273.578Z" fill="black"/>
<path opacity="0.15" d="M6.16859 269.703C6.13683 269.925 6.29559 270.131 6.53374 270.147C6.75601 270.179 6.96242 270.02 6.99417 269.798C7.02592 269.576 6.86717 269.369 6.62902 269.353C6.40675 269.322 6.20034 269.48 6.16859 269.703Z" fill="black"/>
<path opacity="0.15" d="M6.5973 266.05C6.56554 266.273 6.7243 266.479 6.96245 266.495C7.18472 266.527 7.39113 266.368 7.42288 266.145C7.45464 265.923 7.29585 265.717 7.05771 265.701C6.83543 265.669 6.62905 265.828 6.5973 266.05Z" fill="black"/>
<path opacity="0.15" d="M7.02601 262.445C6.99426 262.668 7.15301 262.874 7.39116 262.89C7.61343 262.922 7.81984 262.763 7.85159 262.525C7.88335 262.302 7.72456 262.096 7.48642 262.08C7.26415 262.048 7.05776 262.207 7.02601 262.429V262.445Z" fill="black"/>
<path opacity="0.15" d="M16.2658 263.16C16.234 263.382 16.3928 263.589 16.6309 263.605C16.8532 263.636 17.0596 263.478 17.0913 263.255C17.1231 263.033 16.9643 262.826 16.7262 262.811C16.5039 262.779 16.2975 262.938 16.2658 263.16Z" fill="black"/>
<path opacity="0.15" d="M15.837 266.797C15.8053 267.019 15.964 267.225 16.2022 267.241C16.4244 267.273 16.6309 267.114 16.6626 266.892C16.6944 266.67 16.5356 266.463 16.2974 266.447C16.0752 266.416 15.8688 266.574 15.837 266.797Z" fill="black"/>
<path opacity="0.15" d="M15.4088 270.449C15.3771 270.671 15.5359 270.878 15.774 270.894C15.9963 270.926 16.2027 270.767 16.2344 270.544C16.2662 270.322 16.1074 270.116 15.8693 270.1C15.647 270.068 15.4406 270.227 15.4088 270.449Z" fill="black"/>
<path opacity="0.15" d="M14.9484 274.324C14.9166 274.546 15.0754 274.753 15.3135 274.769C15.5358 274.8 15.7422 274.641 15.7739 274.419C15.8057 274.197 15.6469 273.99 15.4088 273.975C15.1865 273.943 14.9801 274.102 14.9484 274.324Z" fill="black"/>
<path opacity="0.15" d="M11.4712 276.102L15.0751 249.074L13.5669 249.026L11.4712 276.102Z" fill="#606060"/>
<path d="M6.08892 273.832C6.08892 273.832 6.13657 273.832 6.15244 273.832C8.86733 273.276 13.4715 273.625 15.2655 274.53C15.3608 274.578 15.4878 274.53 15.5513 274.435C15.5989 274.34 15.5513 274.213 15.4561 274.165C13.5509 273.196 8.91495 272.847 6.07306 273.419C5.96192 273.435 5.88253 273.546 5.91428 273.657C5.93016 273.752 6.00954 273.816 6.08892 273.816V273.832Z" fill="#373737"/>
<path d="M6.54948 269.957C6.54948 269.957 6.62885 269.957 6.6606 269.941C8.74043 269.004 13.678 269.623 15.7261 270.655C15.8214 270.703 15.9484 270.655 16.0119 270.56C16.0595 270.465 16.0119 270.338 15.9166 270.29C13.7892 269.21 8.67692 268.575 6.48596 269.56C6.37483 269.607 6.32721 269.734 6.37484 269.83C6.40659 269.893 6.4701 269.941 6.54948 269.957Z" fill="#373737"/>
<path d="M6.97795 266.304C6.97795 266.304 7.05732 266.304 7.08907 266.288C9.16889 265.351 14.1065 265.971 16.1545 267.003C16.2498 267.051 16.3769 267.003 16.4404 266.908C16.488 266.812 16.4403 266.685 16.3451 266.638C14.2176 265.558 9.12126 264.923 6.9303 265.907C6.81916 265.955 6.77154 266.082 6.81917 266.177C6.85093 266.241 6.91443 266.288 6.99382 266.304H6.97795Z" fill="#373737"/>
<path d="M7.40653 262.699C7.40653 262.699 7.4859 262.699 7.51765 262.684C9.59747 261.747 14.5351 262.366 16.5832 263.398C16.6784 263.446 16.8054 263.398 16.8689 263.303C16.9166 263.208 16.8689 263.081 16.7737 263.033C14.6462 261.953 9.54986 261.318 7.34303 262.302C7.2319 262.35 7.20013 262.477 7.23188 262.572C7.26364 262.636 7.32714 262.684 7.40653 262.699Z" fill="#373737"/>
<path d="M14.1703 112.154C10.4552 146.233 8.23253 193.207 8.23253 193.207C7.915 195.795 5.24774 202.497 4.48567 218.091C3.83473 231.653 4.23164 256.967 4.23164 256.967C4.23164 256.967 12.3763 261.635 20.1399 259.317C20.1399 259.317 29.4118 217.583 32.73 201.528C36.4133 183.631 39.9538 159.89 39.9538 159.89L40.827 192.572C40.827 192.572 40.0173 202.291 40.0967 209.119C40.2078 217.043 42.5575 250.837 42.5575 250.837C42.5575 250.837 52.7026 257.189 60.8631 251.329C60.8631 251.329 65.1022 199.464 65.6102 189.936C66.5946 171.26 67.0867 134.783 67.1026 110.629L14.1703 112.185V112.154Z" fill="#505050"/>
<path d="M30.3645 151.124C29.539 159.302 28.6181 167.481 27.6179 175.627C27.1257 179.709 26.6177 183.79 26.0938 187.871L25.3158 193.985L24.9189 197.034C24.7919 198.05 24.5696 199.051 24.395 200.067C22.9343 208.15 20.6322 222.856 19.0446 230.923C17.4569 238.99 15.774 247.041 13.98 255.061C15.1548 246.93 16.4408 238.815 17.838 230.716C19.2192 222.617 21.4261 207.912 22.9344 199.845C23.109 198.829 23.3471 197.828 23.4741 196.812L23.8869 193.763L24.7442 187.665C25.3158 183.599 25.9032 179.534 26.5224 175.469C27.729 167.338 28.9992 159.223 30.3645 151.124Z" fill="#434343"/>
<path d="M61.2442 147.884C61.8792 155.555 62.1174 163.241 62.2126 170.927C62.292 178.597 62.3873 186.315 61.8792 193.985C61.4664 201.655 60.8949 214.518 60.3709 222.189C59.8788 229.859 59.2913 237.513 58.5928 245.167C58.7039 237.481 58.8944 229.811 59.1961 222.125C59.466 214.455 59.9899 201.592 60.3709 193.922L60.6885 188.173L60.7678 186.744L60.7996 185.314L60.8473 182.44L61.0378 170.927L61.1807 159.414C61.2442 155.57 61.2442 151.743 61.2283 147.9L61.2442 147.884Z" fill="#434343"/>
<path d="M39.938 159.874L43.8436 141.262C43.8436 141.262 53.1949 140.182 58.1007 136.053C58.1007 136.053 54.8619 141.612 46.0028 143.565L42.1925 160.001L40.8271 192.556L39.9539 159.874H39.938Z" fill="black"/>
<path d="M27.5862 15.1245C27.5862 15.1245 24.9983 15.2674 23.236 18.507C22.347 20.1268 21.6801 23.1124 23.8552 31.7036C25.2523 37.23 27.0146 39.6756 27.7926 41.216C28.5705 42.7564 30.2058 43.2169 30.2058 43.2169L30.1582 36.6424L29.9994 32.053C29.9994 32.053 33.0001 28.0829 33.3811 24.7957C33.8733 20.5715 33.0001 18.8247 33.0001 18.8247L27.5703 15.1086L27.5862 15.1245Z" fill="#E0E0E0"/>
<path d="M26.6973 15.3309C27.4117 11.6467 32.1747 7.32723 41.2243 7.00962C48.6386 6.75553 52.9252 9.37578 55.4179 13.7429C57.9105 18.11 56.1164 23.6681 56.1164 23.6681L32.8732 21.7148L26.6973 15.315V15.3309Z" fill="#E0E0E0"/>
<path d="M29.0947 16.4584C29.0788 17.7923 28.3326 19.2533 26.2687 20.5555C24.2047 21.8577 23.3474 23.6839 23.3315 25.3831C23.8396 23.7316 24.7763 22.5882 26.3957 21.7624C28.0151 20.9366 29.2376 19.7774 29.2376 19.7774C29.2376 19.7774 29.0153 21.4924 26.1734 23.6998C23.3315 25.8913 24.0301 29.4326 24.0301 29.4326C24.0301 29.4326 23.8554 27.0982 25.9829 25.272C28.1103 23.4457 30.73 22.62 30.6982 19.8885C30.6665 17.6494 29.0947 16.4584 29.0947 16.4584Z" fill="#FAFAFA"/>
<path d="M24.1252 38.4686C26.6813 39.8343 29.1104 37.5158 29.1104 37.5158L29.3644 51.0776C29.3644 51.0776 29.5866 53.6979 33.7145 56.064C39.5571 59.4307 42.0974 60.2565 44.5741 63.7819C46.5904 57.9697 49.0513 55.2541 46.3523 50.8235V47.441C46.3523 47.441 47.4001 47.3616 49.21 47.1075C52.2266 46.6946 54.1635 44.3284 55.132 41.073C56.545 36.2612 57.2118 28.5434 55.5447 20.2856C55.2272 18.6975 54.3858 17.2207 53.1315 16.2043C47.2572 11.4561 40.5097 14.7274 35.4451 16.6013C33.3494 17.3795 30.4281 17.1095 29.0945 16.4584C30.8251 18.4276 31.6347 20.3173 31.5395 29.6709C31.0632 30.5284 30.5869 31.0207 30.2058 31.3383C29.0786 32.2752 28.2213 29.782 27.3163 28.7975C26.3955 27.8129 22.9344 26.8918 21.3785 30.052C19.8067 33.2757 21.0451 36.8012 24.1252 38.4686Z" fill="#B97964"/>
<path d="M40.7957 23.8586L37.4457 25.2402C37.0806 24.2873 37.541 23.1916 38.4618 22.8105C39.3827 22.4293 40.4305 22.8899 40.7957 23.8586Z" fill="#37474F"/>
<path d="M53.4176 24.2715L49.9248 23.1917C50.1947 22.2071 51.179 21.6512 52.1475 21.953C53.116 22.2547 53.6716 23.2869 53.4176 24.2715Z" fill="#37474F"/>
<path d="M38.811 27.4476C38.811 28.2575 39.4937 28.9086 40.3193 28.8927C41.129 28.8927 41.7799 28.2099 41.7799 27.3841C41.7799 26.5742 41.0972 25.9231 40.2716 25.9231C39.4619 25.9231 38.811 26.606 38.811 27.4317V27.4476Z" fill="#263238"/>
<path d="M49.8133 27.1141C49.8133 27.924 50.496 28.5751 51.3216 28.5751C52.1313 28.5751 52.7822 27.8923 52.7822 27.0665C52.7822 26.2566 52.0995 25.6055 51.2739 25.6214C50.3372 25.6373 49.7975 26.1931 49.8133 27.13V27.1141Z" fill="#263238"/>
<path d="M44.2886 24.2715L45.3364 33.7044L50.3375 31.9576C48.6229 28.6068 46.6065 26.0501 44.2886 24.2715Z" fill="#AB6E5B"/>
<path d="M31.4442 28.8927C31.9681 35.3243 34.2067 35.7054 36.5088 36.0071C39.5571 36.4042 41.0018 34.7208 46.4157 34.5303C49.7022 34.4191 50.7659 35.3719 52.6711 36.0707C54.0682 36.5947 55.1955 36.3883 55.6718 35.1337C56.2274 33.6886 56.5926 30.3855 56.4815 28.1305C56.8466 30.1791 56.9101 35.6736 56.5608 38.7068C56.2116 41.7558 55.1954 44.3761 53.5602 45.853C51.3057 47.8856 46.4951 48.8543 40.3827 47.711C34.3655 46.5835 31.9046 44.1379 31.0949 42.0099C28.4912 35.1337 29.3168 31.8147 28.4753 30.5284C27.6339 29.2421 31.4283 28.8768 31.4283 28.8768L31.4442 28.8927Z" fill="#E0E0E0"/>
<path d="M45.9552 35.7372C42.8593 35.769 41.5732 36.3883 41.5732 39.2468C41.5732 42.2958 41.6526 43.3122 42.8116 43.4233C44.177 43.5663 45.1931 43.6139 45.209 42.7564C45.2249 41.8829 45.2248 41.1366 44.9549 40.819C44.4628 40.2631 44.6215 40.1679 45.9869 40.152C47.3999 40.152 47.3364 40.3743 46.9554 40.8031C46.6696 41.1207 46.7331 42.1688 46.749 42.7564C46.7808 43.4075 46.9236 43.6615 48.8764 43.4075C50.5752 43.1851 50.2418 41.8353 50.1148 39.215C50.0354 37.4523 49.4639 35.6896 45.9552 35.7214V35.7372Z" fill="#B97964"/>
<path d="M43.161 36.6106L48.2732 37.484C48.0669 38.945 46.7491 39.9296 45.3361 39.6914C43.9231 39.4532 42.9546 38.0716 43.161 36.6106Z" fill="#B16668"/>
<path d="M43.8121 37.4047C43.5898 37.4047 43.3834 37.4046 43.1929 37.4364C43.3675 38.548 44.209 39.485 45.3521 39.6755C45.6379 39.7232 45.9078 39.7073 46.1777 39.6755C46.2094 38.5004 45.1775 37.4999 43.8121 37.4047Z" fill="#F28F8F"/>
<path d="M63.0382 102.816H77.7399C78.0892 100.942 78.2638 99.3698 78.0416 98.2264L77.9939 97.9882C76.9302 92.8906 75.9459 89.3969 74.4852 83.6482C72.4054 75.4063 71.0082 71.8015 69.8334 67.8473C68.9284 64.8459 64.229 60.9393 61.1489 58.7161L63.0541 96.9084C63.2764 96.9084 63.2129 99.3698 63.0541 102.816H63.0382Z" fill="#252525"/>
<path d="M23.4582 51.1253C15.2183 55.143 6.94663 61.3681 5.16846 63.8137C5.16846 63.8137 9.13758 79.6782 12.9003 87.2849C16.6789 94.8916 17.8697 116.949 17.8697 116.949C17.8697 116.949 45.7171 127.669 54.5444 128.828C63.3717 129.971 64.6736 126.271 64.6736 126.271C64.6736 126.271 66.0231 101.752 64.753 85.2839C63.8163 73.0402 63.2765 61.114 59.6566 58.1602C57.3228 56.2546 47.5111 50.4265 47.5111 50.4265C47.5111 50.4265 45.4313 58.0967 45.6059 60.6535C42.891 57.2233 23.4582 51.1411 23.4582 51.1411V51.1253Z" fill="#E0E0E0"/>
<path d="M48.2413 62.1462C48.2413 62.1462 49.0668 60.8599 49.0033 58.7478L46.7171 56.9215L46.5425 59.907L48.2413 62.1462Z" fill="#2ED12E"/>
<path d="M43.7323 60.1135L37.7786 56.334L33.0156 59.7641L42.1129 64.0518L43.7323 60.1135Z" fill="#00D900"/>
<path opacity="0.25" d="M43.7323 60.1135L37.7786 56.334L33.0156 59.7641L42.1129 64.0518L43.7323 60.1135Z" fill="#BABABA"/>
<path d="M29.2529 45.5671L29.2847 47.0122C29.4593 48.2032 31.3328 50.8076 37.0324 53.6978C42.8274 56.6357 44.8913 59.9388 44.8913 59.9388C44.8913 59.9388 42.8273 59.3671 40.3665 60.1135C37.6675 60.9393 33.1109 64.0995 31.8567 64.0042C30.6342 63.9089 29.0306 60.3517 25.8871 56.731C23.2516 53.6978 21.918 51.8875 21.918 51.8875C21.918 51.8875 23.7279 50.4423 25.4267 48.7432C26.8873 47.2822 28.2051 45.5353 29.2529 45.5671Z" fill="#F0F0F0"/>
<path d="M45.606 59.907C47.9398 59.0813 50.2736 61.3839 50.8134 60.6375C51.3691 59.8911 49.5433 50.9187 46.3363 48.6161V50.8552L45.606 59.9229V59.907Z" fill="#F0F0F0"/>
<path d="M44.3511 66.8468C44.8115 71.1028 45.2402 81.1709 44.5734 95.3203C44.4146 98.7981 49.1458 106.071 50.3365 105.976C51.5272 105.881 54.0357 99.3539 54.5279 95.5268C54.4803 86.205 49.5427 71.4998 47.32 66.4498L44.3511 66.831V66.8468Z" fill="#00FF00"/>
<path opacity="0.15" d="M47.479 66.8786C47.4155 66.7357 47.3679 66.5927 47.3043 66.4657L44.3354 66.8468L44.4466 68.0855C45.6532 68.0855 47.0503 67.3074 47.4631 66.8627L47.479 66.8786Z" fill="black"/>
<path d="M43.7321 60.1136C45.0181 59.8277 46.5422 59.9071 46.5422 59.9071C46.5422 59.9071 47.606 60.7646 48.241 62.1462C48.241 62.1462 48.2728 64.7665 47.3202 66.4498C47.3202 66.4498 46.193 67.3074 44.3513 66.8309C44.3513 66.8309 42.6366 65.6875 42.1127 64.036C41.9857 62.6067 43.0811 60.5264 43.7321 60.0977V60.1136Z" fill="#00FF00"/>
<path d="M65.7692 99.7985C65.5628 92.0489 65.5151 61.9556 61.1491 58.7001C56.7831 55.4446 48.0192 50.5535 48.0192 50.5535C53.6713 66.4656 49.4323 84.9027 49.4323 84.9027C49.4323 84.9027 46.3363 81.8219 38.8109 71.8491C31.2854 61.8921 24.8395 49.3307 24.8395 49.3307C6.80383 59.7482 5.15268 63.8295 5.15268 63.8295C4.83515 73.8023 12.1066 95.8602 12.567 105.309C13.0433 114.758 11.5192 131.972 11.5192 131.972C11.5192 131.972 21.8071 138.626 40.7319 139.245C59.6409 139.865 65.9597 131.686 65.9597 131.686C65.9597 131.686 65.9597 107.548 65.7533 99.7985H65.7692Z" fill="#292929"/>
<path d="M39.1123 76.5655L38.9377 76.0732L38.4296 76.2479L33.7937 77.8518C32.6823 75.9938 31.5075 74.1834 30.3803 72.3413C29.1578 70.3721 27.9987 68.3871 26.8239 66.402C25.649 64.417 24.49 62.4161 23.4422 60.3675C22.3785 58.3189 21.3624 56.2545 20.6797 54.0312C21.0925 56.318 21.9816 58.4936 22.8865 60.6375C23.8391 62.7654 24.887 64.8299 25.9666 66.8785C28.1893 70.9597 30.5866 74.9457 33.0316 78.8522L33.2856 79.2652L33.7143 79.1063L38.2709 77.4389C39.3822 80.5038 40.5888 83.5528 41.7637 86.6019L41.8431 86.7924H42.0336C44.6215 87.0624 47.1935 87.2847 49.7813 87.4594C47.3046 86.9989 44.812 86.586 42.3194 86.189C41.2556 82.9812 40.2078 79.7574 39.0806 76.5655H39.1123ZM57.6402 74.9139V74.2152C57.5291 70.8962 56.9892 67.6089 56.1954 64.4329C55.3857 61.2409 54.3855 58.1125 53.0677 55.1111C53.9092 58.2713 54.6872 61.4474 55.2905 64.6235C55.8462 67.5772 56.2748 70.5627 56.4018 73.5323L53.6552 73.1512L52.8772 73.04L53.0043 73.8023C53.5758 77.0419 54.2268 80.2815 54.8777 83.5052C53.687 84.458 52.4644 85.395 51.2896 86.3954C52.6708 85.5855 54.0045 84.7121 55.3699 83.8704L55.5127 83.7752L55.481 83.5687C55.0841 80.5038 54.6872 77.4389 54.2267 74.3899L56.9258 74.7869L57.6243 74.898L57.6402 74.9139Z" fill="#4B4B4B"/>
<path d="M63.2604 142.326C63.2604 142.326 63.1334 142.66 62.6253 143.882C62.1173 145.105 59.8945 148.44 58.9737 149.393C58.0529 150.346 55.9413 152.41 55.2586 152.474C54.4648 152.553 54.0203 152.41 53.3535 152.077C52.2421 151.505 50.7973 151.616 49.9241 150.647C49.5748 150.266 49.2891 149.838 48.8763 149.536C48.2571 149.107 47.4157 148.996 46.9552 148.392C46.6695 148.011 46.5901 147.503 46.3043 147.106C45.8915 146.534 45.0977 146.376 44.6214 145.852C44.2403 145.439 44.0816 144.851 44.1133 144.279C44.1927 143.12 44.9865 142.12 45.6057 141.183C45.6057 141.183 45.3358 140.436 45.7803 139.245C46.2249 138.054 47.2569 136.165 47.8125 135.529C48.3682 134.894 54.8776 133.989 54.8776 133.989L56.1953 133.735C56.1953 133.735 59.9739 134.211 62.2443 137.403C64.5146 140.595 63.2287 142.326 63.2287 142.326H63.2604Z" fill="#D18C76"/>
<path d="M61.4348 117.013C58.7358 123.889 57.5451 127.208 56.0686 130.098C54.592 132.988 53.8776 133.941 52.02 134.434L62.6097 143.867C62.6097 143.867 65.5786 138.181 67.198 134.974C68.8333 131.766 72.2943 122.365 72.2943 122.365L61.4189 116.997L61.4348 117.013Z" fill="#D18C76"/>
<path d="M61.8949 141.596C62.3395 144.486 59.8469 148.313 59.8151 148.361C60.8947 146.947 62.2284 144.819 62.6253 143.882C63.1333 142.66 63.2603 142.326 63.2603 142.326C63.2603 142.326 64.5463 140.595 62.276 137.403C60.0057 134.211 56.2271 133.735 56.2271 133.735C56.2271 133.735 61.4504 138.69 61.8949 141.596Z" fill="#F28F8F"/>
<path d="M45.6216 141.183C46.6218 139.928 48.7334 138.261 49.5431 137.959C50.3528 137.657 51.1149 137.165 50.4322 137.149C49.7495 137.149 48.8922 136.943 48.7334 136.403C48.5746 135.863 48.2253 136.546 48.3523 137.244C48.4794 137.943 48.0189 138.245 47.2251 138.991C46.4313 139.738 45.9232 140.706 45.6216 141.183Z" fill="#B16668"/>
<path d="M60.339 118.41L57.894 125.255C57.894 125.255 60.8788 125.159 64.4034 127.208C68.2455 129.431 68.8806 132.099 68.8806 132.099L71.6114 124.985L60.3231 118.41H60.339Z" fill="#EBEBEB"/>
<path d="M77.6126 111.772C77.0569 113.281 70.3887 128.923 70.3887 128.923C69.1504 124.937 63.0221 121.38 58.6084 122.015L62.5775 110.168L65.8005 101.974C65.8005 101.974 75.9296 89.5556 77.0886 94.3198C77.422 95.7013 77.7237 96.9241 77.9777 98.004L78.0253 98.2422C79.5971 105.118 79.4225 106.754 77.6126 111.788V111.772Z" fill="#252525"/>
<path d="M48.5428 141.278C49.5748 141.802 50.7814 141.977 51.7498 142.58C52.7024 143.168 53.7503 143.676 54.5918 144.422C55.4808 145.216 55.9571 145.963 56.8145 147.249C57.386 148.091 58.0052 148.869 57.8305 149.98C57.767 150.393 57.1796 151.092 56.6716 151.568C57.005 151.759 57.7988 151.95 58.0846 151.934C58.9895 151.886 59.6087 151.759 60.4343 151.394C60.7042 151.267 60.9741 151.14 61.1963 150.949C61.5933 150.584 61.752 150.028 62.0061 149.536C62.1013 149.329 62.2442 149.139 62.4347 149.028C62.5935 148.948 62.7681 148.932 62.9428 148.901C63.5619 148.821 64.2288 148.694 64.6098 148.202C65.229 147.392 64.7209 146.09 65.3401 145.28C65.7053 144.803 66.3721 144.645 66.7373 144.168C66.9913 143.851 67.0706 143.422 67.1024 143.009C67.1659 141.961 66.9595 140.913 66.6261 139.928C66.3403 139.055 66.0546 138.197 65.8006 137.324C65.229 135.355 64.3717 133.417 63.3556 131.639C62.276 129.749 55.8142 128.05 50.9719 125.461C48.5428 124.175 22.2036 102.482 22.2036 102.482L8.39111 115.361C8.39111 115.361 34.3016 128.955 38.5088 131.988C39.0804 132.401 39.8266 132.782 40.3187 133.29C40.8268 133.798 41.2079 134.497 41.6841 135.037C42.8908 136.45 44.1767 137.784 45.5421 139.039C46.463 139.896 47.4314 140.706 48.5587 141.278H48.5428Z" fill="#B97964"/>
<path d="M42.2561 118.41L45.8284 121.444C45.8284 121.444 43.7644 121.952 40.986 126.176C38.811 129.495 38.6839 132.512 38.6839 132.512L34.7783 129.94C34.7783 129.94 34.7466 121.968 42.2561 118.41Z" fill="#EBEBEB"/>
<path d="M24.8235 80.0593C23.3629 72.8178 13.2178 59.4942 5.16841 63.8296C5.16841 63.8296 3.91416 63.9884 3.50137 69.1654C3.08858 74.3424 3.549 79.5829 3.77127 83.6324C4.12055 89.7304 4.66035 93.7323 5.18428 100.291C5.7082 106.865 6.00986 112.011 7.15297 113.932C8.59773 116.346 9.78846 117.045 21.3783 123.81C25.919 126.446 35.5719 131.21 35.5719 131.21C35.5719 131.21 35.0956 123.699 43.4308 119.141L26.5064 104.991C26.5064 104.991 25.7443 84.5852 24.8394 80.0434L24.8235 80.0593Z" fill="#252525"/>
<path d="M57.3229 21.9689C56.9577 22.62 56.5449 23.2552 56.1162 23.8745C56.0369 23.3029 55.9575 22.7153 55.8622 22.1277C55.8622 22.1277 55.8622 22.0801 55.8463 21.9848C55.8146 21.8895 55.7987 21.7466 55.767 21.5878C55.7511 21.4607 55.7193 21.3019 55.6876 21.159C55.6558 20.9525 55.6082 20.7461 55.5764 20.5556C55.5606 20.4603 55.5447 20.3809 55.5288 20.3015C55.4653 20.2538 55.3859 20.2062 55.3065 20.1585C53.6712 19.1581 49.9403 17.6971 45.0979 17.8718C40.4779 18.0465 35.7308 19.5392 31.2377 21.9213C27.3956 23.954 24.2838 26.336 23.0613 28.2575C22.4104 28.591 21.8071 29.1627 21.3784 30.052C20.8069 31.1954 20.6005 32.3864 20.7275 33.5139C14.9643 29.6868 13.4243 22.5247 17.5681 15.1721C23.0455 5.46921 36.3817 -0.867056 47.3683 1.00683C58.3389 2.88071 62.8003 12.266 57.3229 21.9689Z" fill="#181818"/>
<path d="M55.5289 20.3015C55.5289 20.3015 55.386 20.2062 55.3066 20.1586C55.4337 20.1903 55.5131 20.238 55.5289 20.3015Z" fill="#FFA8A7"/>
<path d="M22.1088 25.6055L21.2832 22.8423C21.2832 22.8423 25.808 13.5364 38.3663 10.408C50.6865 7.34305 54.8144 12.79 54.8144 12.79L55.3542 17.4112C55.3542 17.4112 49.5752 14.3304 38.8109 16.9665C28.0466 19.6027 22.1088 25.5896 22.1088 25.5896V25.6055Z" fill="#00FF00"/>
<path d="M55.8465 21.9848C55.8147 21.8895 55.7989 21.7466 55.7671 21.5877C55.7512 21.4607 55.7195 21.3019 55.6877 21.159C55.656 20.9525 55.6083 20.7461 55.5766 20.5555C55.5607 20.4603 55.5448 20.3808 55.529 20.3014C55.4655 20.2538 55.3861 20.2062 55.3067 20.1585C53.6714 19.1581 49.9404 17.6971 45.0981 17.8717C40.478 18.0464 35.7309 19.5392 31.2379 21.9212C27.3958 23.9539 24.284 26.336 23.0615 28.2575L22.1089 25.6055C23.379 23.9698 26.3479 21.159 30.6028 18.9834C44.8917 11.6784 53.6555 16.2837 55.3385 17.4271C55.7195 18.6975 55.8306 21.3495 55.8465 21.9848Z" fill="black"/>
<path d="M29.4121 22.9535C33.1907 19.9203 38.6999 16.5855 45.8919 16.7125C53.084 16.8395 56.8785 19.0946 58.2438 20.1585C59.6092 21.2225 58.8472 22.2865 56.5292 21.7307C53.6556 21.0478 51.1153 19.9997 45.1616 19.9362C39.2079 19.8727 34.8101 20.8096 29.4121 22.9535Z" fill="#2E2E2E"/>
</svg>
