<svg width="152" height="169" viewBox="0 0 152 169" fill="none" xmlns="http://www.w3.org/2000/svg">
<path d="M25.35 148.638C36.1648 156.936 51.6586 154.895 59.9563 144.08C68.254 133.266 66.2134 117.772 55.3985 109.474C44.5836 101.176 29.0898 103.217 20.7921 114.032C12.4945 124.847 14.5351 140.341 25.35 148.638Z" fill="#00FF00"/>
<g opacity="0.1">
<path d="M51.357 106.948C39.1456 100.887 24.3339 105.869 18.2682 118.075C18.2682 118.075 33.4542 126.486 40.2981 122.086C47.142 117.686 51.3518 106.953 51.3518 106.953L51.357 106.948Z" fill="white"/>
</g>
<path d="M31.8135 145.315C41.0841 149.948 52.3558 146.189 56.9896 136.919C61.6233 127.648 57.8643 116.376 48.5936 111.742C39.323 107.109 28.0512 110.868 23.4175 120.138C18.7838 129.409 22.5428 140.681 31.8135 145.315Z" fill="#00FF00"/>
<g opacity="0.2">
<path d="M31.8135 145.315C41.0841 149.948 52.3558 146.189 56.9896 136.919C61.6233 127.648 57.8643 116.376 48.5936 111.742C39.323 107.109 28.0512 110.868 23.4175 120.138C18.7838 129.409 22.5428 140.681 31.8135 145.315Z" fill="black"/>
</g>
<path d="M57.1304 137.815C52.5821 146.976 41.4747 150.708 32.3138 146.16C23.1529 141.612 19.4207 130.504 23.969 121.343C28.5173 112.182 39.6247 108.45 48.7856 112.998C57.9465 117.547 61.6787 128.654 57.1304 137.815Z" fill="#00FF00"/>
<g opacity="0.2">
<path d="M57.1304 137.815C52.5821 146.976 41.4747 150.708 32.3138 146.16C23.1529 141.612 19.4207 130.504 23.969 121.343C28.5173 112.182 39.6247 108.45 48.7856 112.998C57.9465 117.547 61.6787 128.654 57.1304 137.815Z" fill="white"/>
</g>
<path d="M41.9237 128.471L44.0331 124.229C44.0331 124.229 44.0427 124.239 44.0527 124.24C44.7446 124.69 45.411 125.269 46.0131 125.946C46.4817 126.582 46.7386 127.134 46.7386 127.134L46.8533 127.029L48.2716 125.832L48.594 125.556L48.2332 124.388L47.788 124.374C47.0914 123.448 46.2179 122.559 45.1568 121.958L46.3183 119.624L45.8829 118.679L45.5926 119.262L44.5972 118.764L43.414 121.137C39.9794 119.824 37.4934 120.925 36.4305 123.063C34.9786 125.98 37.1066 127.985 39.1565 129.705L37.0688 133.908C35.5415 132.966 34.2738 131.575 33.6603 130.226L31.6615 131.879C32.2842 133.363 33.9507 135.031 35.9451 136.178L35.0735 137.939L34.2439 137.548L34.7836 138.513L36.5099 139.368L37.6823 137.014C41.1472 138.319 43.642 137.249 44.7102 135.106C46.162 132.188 43.9841 130.182 41.9341 128.461L41.9237 128.471ZM40.4165 127.174C39.376 126.208 38.6986 125.303 39.2025 124.293C39.6626 123.371 40.6681 122.928 42.2742 123.433L40.4165 127.174ZM38.8064 134.733L40.6532 131.011C41.7381 131.994 42.4191 132.934 41.9091 133.969C41.4598 134.872 40.4564 135.264 38.8064 134.733Z" fill="#00FF00"/>
<g opacity="0.3">
<path d="M41.9227 128.471L44.0321 124.229C44.0321 124.229 44.0417 124.239 44.0517 124.24C44.7436 124.69 45.41 125.269 46.0121 125.946C46.4807 126.582 46.7376 127.134 46.7376 127.134L46.8523 127.029L48.2706 125.832L48.593 125.556L48.2322 124.388L47.7871 124.374C47.0904 123.448 46.2169 122.559 45.1559 121.958L46.3173 119.624L45.882 118.679L45.5916 119.262L44.5962 118.764L43.413 121.138C39.9785 119.824 37.4924 120.925 36.4295 123.063C34.9776 125.981 37.1056 127.985 39.1555 129.705L37.0678 133.908C35.5405 132.966 34.2728 131.575 33.6593 130.226L31.6606 131.879C32.2833 133.363 33.9498 135.031 35.9441 136.178L35.0725 137.939L34.2429 137.548L34.7826 138.513L36.5089 139.368L37.6813 137.014C41.1463 138.319 43.641 137.249 44.7092 135.106C46.161 132.188 43.9831 130.182 41.9331 128.461L41.9227 128.471ZM40.4156 127.175C39.3751 126.209 38.6976 125.303 39.2015 124.293C39.6616 123.371 40.6671 122.928 42.2732 123.433L40.4156 127.175ZM38.8054 134.733L40.6523 131.011C41.7371 131.994 42.4181 132.934 41.9081 133.969C41.4589 134.872 40.4555 135.264 38.8054 134.733Z" fill="black"/>
</g>
<path d="M37.2503 136.094L36.0779 138.448L34.3516 137.593L35.5131 135.258C33.5187 134.112 31.8522 132.443 31.2295 130.959L33.2283 129.306C33.8365 130.659 35.1143 132.051 36.6416 132.993L38.7293 128.79C36.6746 127.065 34.5514 125.066 36.0084 122.143C37.0766 120 39.5574 118.904 42.992 120.218L44.1752 117.845L45.9015 118.7L44.74 121.034C46.256 121.89 47.6001 123.134 48.3709 124.434L46.4556 126.125C45.6658 124.92 44.6644 123.975 43.6115 123.299L41.5021 127.541C43.5568 129.267 45.73 131.268 44.2782 134.186C43.21 136.329 40.7205 137.394 37.2503 136.094ZM39.9949 126.245L41.8526 122.503C40.2417 121.994 39.2362 122.436 38.7809 123.363C38.277 124.374 38.9493 125.284 39.9949 126.245ZM41.4923 133.045C42.007 132.015 41.3161 131.074 40.2364 130.087L38.3896 133.809C40.0396 134.34 41.043 133.947 41.4923 133.045Z" fill="#00C700"/>
<g clip-path="url(#clip0_309_301)">
<path d="M112.583 68.2333C131.279 64.9535 143.776 47.1386 140.496 28.4426C137.217 9.74659 119.402 -2.75072 100.706 0.529068C82.0096 3.80886 69.5123 21.6238 72.7921 40.3198C76.0719 59.0158 93.8868 71.5131 112.583 68.2333Z" fill="#00FF00"/>
<g opacity="0.1">
<path d="M94.3093 2.29584C76.5927 9.11447 67.7541 28.9989 74.5629 46.7155C74.5629 46.7155 97.492 39.0593 99.4233 27.8953C101.355 16.7312 94.3093 2.30569 94.3093 2.30569V2.29584Z" fill="white"/>
</g>
<path d="M115.26 58.4729C128.744 53.3268 135.502 38.2246 130.356 24.7413C125.21 11.2579 110.108 4.49919 96.6247 9.64529C83.1414 14.7914 76.3827 29.8936 81.5288 43.3769C86.6749 56.8603 101.777 63.619 115.26 58.4729Z" fill="#00FF00"/>
<g opacity="0.2">
<path d="M115.26 58.4729C128.744 53.3268 135.502 38.2246 130.356 24.7413C125.21 11.2579 110.108 4.49919 96.6247 9.64529C83.1414 14.7914 76.3827 29.8936 81.5288 43.3769C86.6749 56.8603 101.777 63.619 115.26 58.4729Z" fill="black"/>
</g>
<path d="M131.408 25.4418C136.522 38.7341 129.89 53.6425 116.598 58.7565C103.306 63.8705 88.3972 57.239 83.2832 43.9467C78.1692 30.6543 84.8006 15.7459 98.093 10.6319C111.385 5.51796 126.294 12.1494 131.408 25.4418Z" fill="#00FF00"/>
<g opacity="0.2">
<path d="M131.408 25.4418C136.522 38.7341 129.89 53.6425 116.598 58.7565C103.306 63.8705 88.3972 57.239 83.2832 43.9467C78.1692 30.6543 84.8006 15.7459 98.093 10.6319C111.385 5.51796 126.294 12.1494 131.408 25.4418Z" fill="white"/>
</g>
<path d="M107.503 32.2407L105.138 26.0822C105.138 26.0822 105.158 26.0822 105.168 26.0724C106.281 25.7866 107.503 25.6487 108.764 25.6684C109.858 25.7866 110.666 26.0428 110.666 26.0428V25.826L110.774 23.2444L110.794 22.6532L109.257 21.924L108.823 22.3674C107.217 22.2098 105.483 22.2689 103.867 22.7911L102.566 19.4015L101.187 18.9581L101.512 19.8055L100.063 20.3573L101.384 23.8061C96.802 26.0921 95.59 29.6788 96.7823 32.7826C98.4081 37.0196 102.468 36.724 106.163 36.2412L108.508 42.3405C106.104 43.0204 103.483 43.0105 101.522 42.3701L101.335 45.9765C103.443 46.7352 106.724 46.5972 109.779 45.6316L110.764 48.1836L109.582 48.6665L111.08 49.0212L113.582 48.0555L112.272 44.6364C116.874 42.3109 118.125 38.744 116.933 35.6303C115.307 31.3933 111.198 31.7381 107.503 32.221V32.2407ZM104.754 32.5658C102.783 32.7235 101.216 32.5658 100.655 31.0977C100.142 29.7576 100.635 28.3091 102.665 27.1365L104.754 32.5658ZM110.991 41.3355L108.912 35.9357C110.942 35.7485 112.548 35.9357 113.129 37.4335C113.632 38.744 113.09 40.1432 110.991 41.3355Z" fill="#00FF00"/>
<g opacity="0.3">
<path d="M107.503 32.2407L105.138 26.0822C105.138 26.0822 105.158 26.0822 105.168 26.0724C106.281 25.7866 107.503 25.6487 108.764 25.6684C109.858 25.7866 110.666 26.0428 110.666 26.0428V25.826L110.774 23.2444L110.794 22.6532L109.257 21.924L108.823 22.3674C107.217 22.2098 105.483 22.2689 103.867 22.7911L102.566 19.4015L101.187 18.9581L101.512 19.8055L100.063 20.3573L101.384 23.8061C96.802 26.0921 95.59 29.6788 96.7823 32.7826C98.4081 37.0196 102.468 36.724 106.163 36.2412L108.508 42.3405C106.104 43.0204 103.483 43.0105 101.522 42.3701L101.335 45.9765C103.443 46.7352 106.724 46.5972 109.779 45.6316L110.764 48.1836L109.582 48.6665L111.08 49.0212L113.582 48.0555L112.272 44.6364C116.874 42.3109 118.125 38.744 116.933 35.6303C115.307 31.3933 111.198 31.7381 107.503 32.221V32.2407ZM104.754 32.5658C102.783 32.7235 101.216 32.5658 100.655 31.0977C100.142 29.7576 100.635 28.3091 102.665 27.1365L104.754 32.5658ZM110.991 41.3355L108.912 35.9357C110.942 35.7485 112.548 35.9357 113.129 37.4335C113.632 38.744 113.09 40.1432 110.991 41.3355Z" fill="black"/>
</g>
<path d="M110.922 44.2127L112.233 47.6318L109.73 48.5975L108.429 45.2079C105.375 46.1735 102.094 46.3115 99.9849 45.5528L100.172 41.9464C102.133 42.5967 104.764 42.5967 107.168 41.9168L104.823 35.8175C101.118 36.3003 97.0682 36.5959 95.4424 32.3491C94.2501 29.2353 95.4621 25.6585 100.044 23.3725L98.7236 19.9238L101.226 18.9581L102.527 22.3477C104.833 21.5989 107.375 21.3919 109.434 21.8255L109.365 25.3826C107.385 25.0575 105.473 25.1954 103.788 25.6388L106.153 31.7973C109.858 31.3144 113.957 30.9696 115.583 35.2066C116.775 38.3203 115.524 41.8774 110.922 44.2127ZM103.404 32.1224L101.315 26.6931C99.2754 27.8657 98.7828 29.3142 99.305 30.6542C99.8666 32.1224 101.433 32.2899 103.404 32.1224ZM111.789 36.9901C111.218 35.4923 109.602 35.315 107.572 35.4923L109.651 40.892C111.75 39.6998 112.292 38.3006 111.789 36.9901Z" fill="#00C700"/>
<path d="M85.1154 59.929C85.1154 59.929 85.0267 59.8699 84.8691 59.7418C84.6917 59.594 84.4749 59.3969 84.1991 59.1604C83.9034 58.9042 83.5586 58.5889 83.1743 58.1948C82.79 57.8007 82.3367 57.3671 81.8933 56.8449C81.6667 56.5887 81.4302 56.3128 81.1839 56.027C80.9375 55.7413 80.7109 55.426 80.4547 55.1008C79.9423 54.4702 79.4595 53.741 78.9471 52.9921C77.9519 51.455 76.9764 49.6912 76.129 47.7599C75.3013 45.8188 74.7003 43.8875 74.2667 42.1139C74.0795 41.2172 73.8824 40.3698 73.774 39.5618C73.7149 39.1578 73.6459 38.7735 73.6065 38.3991C73.5671 38.0247 73.5376 37.6601 73.4981 37.3152C73.4193 36.6255 73.4193 36.0047 73.3898 35.4529C73.3602 34.9011 73.37 34.4281 73.3898 34.0438C73.3996 33.6793 73.4193 33.3837 73.4292 33.157C73.439 32.9501 73.4489 32.8516 73.4587 32.8516C73.4587 32.8516 73.4784 32.96 73.4784 33.157C73.4784 33.3837 73.4784 33.6793 73.4883 34.0438C73.4883 34.4281 73.4883 34.9011 73.5376 35.443C73.577 35.985 73.5868 36.6057 73.6755 37.2955C73.7149 37.6404 73.7543 37.9951 73.7937 38.3695C73.8332 38.744 73.912 39.1282 73.981 39.5224C74.0893 40.3205 74.2963 41.1581 74.4933 42.0449C74.9368 43.8087 75.5477 45.7104 76.3655 47.6417C77.2031 49.5631 78.1687 51.317 79.1442 52.8443C79.6566 53.5932 80.1197 54.3224 80.6222 54.953C80.8686 55.2683 81.0952 55.5935 81.3317 55.8792C81.578 56.165 81.8046 56.4409 82.0313 56.7069C82.4648 57.239 82.9082 57.6824 83.2827 58.0765C83.6473 58.4805 83.9921 58.8057 84.268 59.0718C84.5242 59.3279 84.741 59.5349 84.9085 59.6925C85.0563 59.8403 85.1253 59.9192 85.1154 59.9192V59.929Z" fill="white"/>
<path d="M98.5067 34.0931C98.5067 34.0931 98.083 34.034 97.5312 33.6596C96.9794 33.295 96.2995 32.5954 95.9547 31.6199C95.6196 30.6345 95.728 29.6689 95.9349 29.0383C96.1517 28.3978 96.4178 28.0825 96.4375 28.0923C96.4769 28.112 96.2601 28.4668 96.1025 29.0875C95.9448 29.6984 95.8758 30.6148 96.1911 31.5312C96.5065 32.4476 97.1272 33.1275 97.6298 33.5118C98.1323 33.9059 98.5166 34.0537 98.5067 34.0931Z" fill="white"/>
<path d="M100.359 22.6631C100.29 22.6926 100.063 22.2591 99.856 21.7073C99.6392 21.1555 99.521 20.6825 99.59 20.6628C99.6589 20.6332 99.8856 21.0668 100.092 21.6186C100.309 22.1704 100.428 22.6434 100.359 22.6631Z" fill="white"/>
<path d="M98.5267 8.20792C98.5267 8.20792 98.2508 8.31631 97.7286 8.47397C97.4724 8.5528 97.1571 8.64148 96.7925 8.77943C96.4279 8.90752 96.0141 9.03562 95.5707 9.23269C95.1273 9.41005 94.6346 9.60712 94.1222 9.85346C93.6 10.0801 93.0777 10.3757 92.5062 10.6614C91.3928 11.2822 90.2104 12.0311 89.0477 12.9179C87.8849 13.8146 86.8602 14.7704 85.9734 15.6769C85.5398 16.1499 85.126 16.5834 84.7712 17.0268C84.3968 17.4505 84.0815 17.8742 83.7957 18.2585C83.5001 18.6329 83.2636 19.0074 83.0469 19.3227C82.8202 19.638 82.6527 19.9139 82.5148 20.1504C82.229 20.6036 82.0615 20.8598 82.0517 20.85C82.032 20.85 82.1699 20.5741 82.4359 20.1011C82.564 19.8646 82.7217 19.569 82.9385 19.2537C83.1454 18.9285 83.372 18.5541 83.6578 18.16C83.9337 17.7658 84.249 17.3323 84.6136 16.8987C84.9584 16.4455 85.3821 16.0021 85.8058 15.5192C86.6927 14.593 87.7273 13.6274 88.8998 12.711C90.0823 11.8143 91.2745 11.0654 92.4077 10.4447C92.9792 10.1491 93.5211 9.86331 94.0434 9.64654C94.5558 9.4002 95.0583 9.21298 95.5116 9.04547C95.9648 8.86811 96.3885 8.74987 96.7531 8.62177C97.1177 8.50353 97.4428 8.41485 97.699 8.35573C98.2213 8.22763 98.5169 8.16851 98.5267 8.17836V8.20792Z" fill="white"/>
<path d="M122.254 63.2989C122.254 63.2989 122.076 63.4468 121.741 63.6734C121.406 63.9 120.894 64.2055 120.254 64.5602C118.973 65.2598 117.11 66.0875 114.952 66.6689C112.794 67.2502 110.774 67.4768 109.306 67.5162C108.577 67.536 107.986 67.5261 107.572 67.4965C107.168 67.467 106.941 67.4473 106.941 67.4276C106.941 67.4079 107.168 67.398 107.572 67.398C107.976 67.398 108.567 67.3783 109.287 67.329C110.735 67.2404 112.735 66.994 114.873 66.4127C117.012 65.8313 118.864 65.043 120.155 64.3828C120.805 64.0577 121.318 63.7719 121.672 63.5748C122.027 63.3778 122.224 63.2694 122.234 63.2891L122.254 63.2989Z" fill="white"/>
<path d="M73.2329 81.1929L145.991 81.1929V66.5211L73.2329 66.5211V81.1929Z" fill="#00FF00"/>
<path d="M141.31 66.7674C141.133 66.7674 140.995 69.9501 140.995 73.8816C140.995 77.8132 141.133 80.9959 141.31 80.9959C141.488 80.9959 141.626 77.8132 141.626 73.8816C141.626 69.9501 141.488 66.7674 141.31 66.7674Z" fill="#263238"/>
<path d="M134.571 66.7674C134.394 66.7674 134.256 69.9501 134.256 73.8816C134.256 77.8132 134.394 80.9959 134.571 80.9959C134.749 80.9959 134.886 77.8132 134.886 73.8816C134.886 69.9501 134.749 66.7674 134.571 66.7674Z" fill="#263238"/>
<path d="M127.9 66.7674C127.723 66.7674 127.585 69.9501 127.585 73.8816C127.585 77.8132 127.723 80.9959 127.9 80.9959C128.078 80.9959 128.216 77.8132 128.216 73.8816C128.216 69.9501 128.078 66.7674 127.9 66.7674Z" fill="#263238"/>
<path d="M121.268 66.7674C121.091 66.7674 120.953 69.9501 120.953 73.8816C120.953 77.8132 121.091 80.9959 121.268 80.9959C121.446 80.9959 121.584 77.8132 121.584 73.8816C121.584 69.9501 121.446 66.7674 121.268 66.7674Z" fill="#263238"/>
<path d="M114.637 66.7674C114.459 66.7674 114.321 69.9501 114.321 73.8816C114.321 77.8132 114.459 80.9959 114.637 80.9959C114.814 80.9959 114.952 77.8132 114.952 73.8816C114.952 69.9501 114.814 66.7674 114.637 66.7674Z" fill="#263238"/>
<path d="M108.006 66.7674C107.828 66.7674 107.69 69.9501 107.69 73.8816C107.69 77.8132 107.828 80.9959 108.006 80.9959C108.183 80.9959 108.321 77.8132 108.321 73.8816C108.321 69.9501 108.183 66.7674 108.006 66.7674Z" fill="#263238"/>
<path d="M101.374 66.7674C101.197 66.7674 101.059 69.9501 101.059 73.8816C101.059 77.8132 101.197 80.9959 101.374 80.9959C101.551 80.9959 101.689 77.8132 101.689 73.8816C101.689 69.9501 101.551 66.7674 101.374 66.7674Z" fill="#263238"/>
<path d="M94.743 66.7674C94.5657 66.7674 94.4277 69.9501 94.4277 73.8816C94.4277 77.8132 94.5657 80.9959 94.743 80.9959C94.9204 80.9959 95.0584 77.8132 95.0584 73.8816C95.0584 69.9501 94.9204 66.7674 94.743 66.7674Z" fill="#263238"/>
<path d="M88.1112 66.7674C87.9338 66.7674 87.7959 69.9501 87.7959 73.8816C87.7959 77.8132 87.9338 80.9959 88.1112 80.9959C88.2886 80.9959 88.4265 77.8132 88.4265 73.8816C88.4265 69.9501 88.2886 66.7674 88.1112 66.7674Z" fill="#263238"/>
<path d="M81.4804 66.7674C81.303 66.7674 81.165 69.9501 81.165 73.8816C81.165 77.8132 81.303 80.9959 81.4804 80.9959C81.6577 80.9959 81.7957 77.8132 81.7957 73.8816C81.7957 69.9501 81.6577 66.7674 81.4804 66.7674Z" fill="#263238"/>
<path d="M74.8485 66.7674C74.6712 66.7674 74.5332 69.9501 74.5332 73.8816C74.5332 77.8132 74.6712 80.9959 74.8485 80.9959C75.0259 80.9959 75.1638 77.8132 75.1638 73.8816C75.1638 69.9501 75.0259 66.7674 74.8485 66.7674Z" fill="#263238"/>
<g opacity="0.3">
<path d="M144.819 66.5408C122.106 69.6249 97.0587 69.7333 74.3857 66.5605L144.819 66.5408Z" fill="black"/>
</g>
<path d="M73.2129 66.5703C73.2129 66.7477 89.4712 66.8856 109.523 66.8856C129.575 66.8856 145.843 66.7477 145.843 66.5703C145.843 66.393 129.585 66.255 109.523 66.255C89.4613 66.255 73.2129 66.393 73.2129 66.5703Z" fill="#263238"/>
<path d="M71.5971 95.6185L144.355 95.6185V80.9466L71.5971 80.9466V95.6185Z" fill="#00FF00"/>
<path d="M139.675 81.1929C139.497 81.1929 139.359 84.3756 139.359 88.3072C139.359 92.2387 139.497 95.4214 139.675 95.4214C139.852 95.4214 139.99 92.2387 139.99 88.3072C139.99 84.3756 139.852 81.1929 139.675 81.1929Z" fill="#263238"/>
<path d="M132.935 81.1929C132.758 81.1929 132.62 84.3756 132.62 88.3072C132.62 92.2387 132.758 95.4214 132.935 95.4214C133.113 95.4214 133.251 92.2387 133.251 88.3072C133.251 84.3756 133.113 81.1929 132.935 81.1929Z" fill="#263238"/>
<path d="M126.265 81.1929C126.087 81.1929 125.949 84.3756 125.949 88.3072C125.949 92.2387 126.087 95.4214 126.265 95.4214C126.442 95.4214 126.58 92.2387 126.58 88.3072C126.58 84.3756 126.442 81.1929 126.265 81.1929Z" fill="#263238"/>
<path d="M119.633 81.1929C119.455 81.1929 119.317 84.3756 119.317 88.3072C119.317 92.2387 119.455 95.4214 119.633 95.4214C119.81 95.4214 119.948 92.2387 119.948 88.3072C119.948 84.3756 119.81 81.1929 119.633 81.1929Z" fill="#263238"/>
<path d="M113.001 81.1929C112.823 81.1929 112.686 84.3756 112.686 88.3072C112.686 92.2387 112.823 95.4214 113.001 95.4214C113.178 95.4214 113.316 92.2387 113.316 88.3072C113.316 84.3756 113.178 81.1929 113.001 81.1929Z" fill="#263238"/>
<path d="M106.37 81.1929C106.193 81.1929 106.055 84.3756 106.055 88.3072C106.055 92.2387 106.193 95.4214 106.37 95.4214C106.547 95.4214 106.685 92.2387 106.685 88.3072C106.685 84.3756 106.547 81.1929 106.37 81.1929Z" fill="#263238"/>
<path d="M99.7382 81.1929C99.5608 81.1929 99.4229 84.3756 99.4229 88.3072C99.4229 92.2387 99.5608 95.4214 99.7382 95.4214C99.9155 95.4214 100.053 92.2387 100.053 88.3072C100.053 84.3756 99.9155 81.1929 99.7382 81.1929Z" fill="#263238"/>
<path d="M93.1073 81.1929C92.9299 81.1929 92.792 84.3756 92.792 88.3072C92.792 92.2387 92.9299 95.4214 93.1073 95.4214C93.2847 95.4214 93.4226 92.2387 93.4226 88.3072C93.4226 84.3756 93.2847 81.1929 93.1073 81.1929Z" fill="#263238"/>
<path d="M86.4755 81.1929C86.2981 81.1929 86.1602 84.3756 86.1602 88.3072C86.1602 92.2387 86.2981 95.4214 86.4755 95.4214C86.6528 95.4214 86.7908 92.2387 86.7908 88.3072C86.7908 84.3756 86.6528 81.1929 86.4755 81.1929Z" fill="#263238"/>
<path d="M79.8446 81.1929C79.6672 81.1929 79.5293 84.3756 79.5293 88.3072C79.5293 92.2387 79.6672 95.4214 79.8446 95.4214C80.022 95.4214 80.1599 92.2387 80.1599 88.3072C80.1599 84.3756 80.022 81.1929 79.8446 81.1929Z" fill="#263238"/>
<path d="M73.2128 81.1929C73.0354 81.1929 72.8975 84.3756 72.8975 88.3072C72.8975 92.2387 73.0354 95.4214 73.2128 95.4214C73.3901 95.4214 73.5281 92.2387 73.5281 88.3072C73.5281 84.3756 73.3901 81.1929 73.2128 81.1929Z" fill="#263238"/>
<g opacity="0.3">
<path d="M143.183 80.9663C120.471 84.0505 95.4229 84.1589 72.75 80.986L143.183 80.9663Z" fill="black"/>
</g>
<path d="M71.5771 80.9959C71.5771 81.1732 87.8354 81.3112 107.887 81.3112C127.939 81.3112 144.207 81.1732 144.207 80.9959C144.207 80.8185 127.949 80.6805 107.887 80.6805C87.8256 80.6805 71.5771 80.8185 71.5771 80.9959Z" fill="#263238"/>
<path d="M78.5044 109.817L151.263 109.817V95.1455L78.5044 95.1455V109.817Z" fill="#00FF00"/>
<path d="M146.592 95.3918C146.414 95.3918 146.276 98.5745 146.276 102.506C146.276 106.438 146.414 109.62 146.592 109.62C146.769 109.62 146.907 106.438 146.907 102.506C146.907 98.5745 146.769 95.3918 146.592 95.3918Z" fill="#263238"/>
<path d="M139.843 95.3918C139.665 95.3918 139.527 98.5745 139.527 102.506C139.527 106.438 139.665 109.62 139.843 109.62C140.02 109.62 140.158 106.438 140.158 102.506C140.158 98.5745 140.02 95.3918 139.843 95.3918Z" fill="#263238"/>
<path d="M133.172 95.3918C132.994 95.3918 132.856 98.5745 132.856 102.506C132.856 106.438 132.994 109.62 133.172 109.62C133.349 109.62 133.487 106.438 133.487 102.506C133.487 98.5745 133.349 95.3918 133.172 95.3918Z" fill="#263238"/>
<path d="M126.54 95.3918C126.363 95.3918 126.225 98.5745 126.225 102.506C126.225 106.438 126.363 109.62 126.54 109.62C126.717 109.62 126.855 106.438 126.855 102.506C126.855 98.5745 126.717 95.3918 126.54 95.3918Z" fill="#263238"/>
<path d="M119.908 95.3918C119.731 95.3918 119.593 98.5745 119.593 102.506C119.593 106.438 119.731 109.62 119.908 109.62C120.085 109.62 120.223 106.438 120.223 102.506C120.223 98.5745 120.085 95.3918 119.908 95.3918Z" fill="#263238"/>
<path d="M113.277 95.3918C113.1 95.3918 112.962 98.5745 112.962 102.506C112.962 106.438 113.1 109.62 113.277 109.62C113.455 109.62 113.593 106.438 113.593 102.506C113.593 98.5745 113.455 95.3918 113.277 95.3918Z" fill="#263238"/>
<path d="M106.645 95.3918C106.468 95.3918 106.33 98.5745 106.33 102.506C106.33 106.438 106.468 109.62 106.645 109.62C106.823 109.62 106.961 106.438 106.961 102.506C106.961 98.5745 106.823 95.3918 106.645 95.3918Z" fill="#263238"/>
<path d="M100.015 95.3918C99.8372 95.3918 99.6992 98.5745 99.6992 102.506C99.6992 106.438 99.8372 109.62 100.015 109.62C100.192 109.62 100.33 106.438 100.33 102.506C100.33 98.5745 100.192 95.3918 100.015 95.3918Z" fill="#263238"/>
<path d="M93.3827 95.3918C93.2053 95.3918 93.0674 98.5745 93.0674 102.506C93.0674 106.438 93.2053 109.62 93.3827 109.62C93.5601 109.62 93.698 106.438 93.698 102.506C93.698 98.5745 93.5601 95.3918 93.3827 95.3918Z" fill="#263238"/>
<path d="M86.7518 95.3918C86.5745 95.3918 86.4365 98.5745 86.4365 102.506C86.4365 106.438 86.5745 109.62 86.7518 109.62C86.9292 109.62 87.0671 106.438 87.0671 102.506C87.0671 98.5745 86.9292 95.3918 86.7518 95.3918Z" fill="#263238"/>
<path d="M80.12 95.3918C79.9426 95.3918 79.8047 98.5745 79.8047 102.506C79.8047 106.438 79.9426 109.62 80.12 109.62C80.2974 109.62 80.4353 106.438 80.4353 102.506C80.4353 98.5745 80.2974 95.3918 80.12 95.3918Z" fill="#263238"/>
<g opacity="0.3">
<path d="M150.1 95.1652C127.388 98.2494 102.34 98.3578 79.667 95.1849L150.1 95.1652Z" fill="black"/>
</g>
<path d="M78.4844 95.1948C78.4844 95.3721 94.7427 95.5101 114.795 95.5101C134.846 95.5101 151.115 95.3721 151.115 95.1948C151.115 95.0174 134.856 94.8795 114.795 94.8795C94.7328 94.8795 78.4844 95.0174 78.4844 95.1948Z" fill="#263238"/>
<path d="M69.9809 123.819L142.739 123.819V109.709L69.9809 109.709V123.819Z" fill="#00FF00"/>
<path d="M138.068 109.945C137.891 109.945 137.753 113.01 137.753 116.784C137.753 120.558 137.891 123.622 138.068 123.622C138.246 123.622 138.384 120.558 138.384 116.784C138.384 113.01 138.246 109.945 138.068 109.945Z" fill="#263238"/>
<path d="M131.319 109.945C131.142 109.945 131.004 113.01 131.004 116.784C131.004 120.558 131.142 123.622 131.319 123.622C131.497 123.622 131.635 120.558 131.635 116.784C131.635 113.01 131.497 109.945 131.319 109.945Z" fill="#263238"/>
<path d="M124.648 109.945C124.471 109.945 124.333 113.01 124.333 116.784C124.333 120.558 124.471 123.622 124.648 123.622C124.826 123.622 124.964 120.558 124.964 116.784C124.964 113.01 124.826 109.945 124.648 109.945Z" fill="#263238"/>
<path d="M118.016 109.945C117.839 109.945 117.701 113.01 117.701 116.784C117.701 120.558 117.839 123.622 118.016 123.622C118.194 123.622 118.332 120.558 118.332 116.784C118.332 113.01 118.194 109.945 118.016 109.945Z" fill="#263238"/>
<path d="M111.385 109.945C111.207 109.945 111.069 113.01 111.069 116.784C111.069 120.558 111.207 123.622 111.385 123.622C111.562 123.622 111.7 120.558 111.7 116.784C111.7 113.01 111.562 109.945 111.385 109.945Z" fill="#263238"/>
<path d="M104.754 109.945C104.576 109.945 104.438 113.01 104.438 116.784C104.438 120.558 104.576 123.622 104.754 123.622C104.931 123.622 105.069 120.558 105.069 116.784C105.069 113.01 104.931 109.945 104.754 109.945Z" fill="#263238"/>
<path d="M98.122 109.945C97.9446 109.945 97.8066 113.01 97.8066 116.784C97.8066 120.558 97.9446 123.622 98.122 123.622C98.2993 123.622 98.4373 120.558 98.4373 116.784C98.4373 113.01 98.2993 109.945 98.122 109.945Z" fill="#263238"/>
<path d="M91.4911 109.945C91.3137 109.945 91.1758 113.01 91.1758 116.784C91.1758 120.558 91.3137 123.622 91.4911 123.622C91.6685 123.622 91.8064 120.558 91.8064 116.784C91.8064 113.01 91.6685 109.945 91.4911 109.945Z" fill="#263238"/>
<path d="M84.8593 109.945C84.6819 109.945 84.5439 113.01 84.5439 116.784C84.5439 120.558 84.6819 123.622 84.8593 123.622C85.0366 123.622 85.1746 120.558 85.1746 116.784C85.1746 113.01 85.0366 109.945 84.8593 109.945Z" fill="#263238"/>
<path d="M78.2284 109.945C78.051 109.945 77.9131 113.01 77.9131 116.784C77.9131 120.558 78.051 123.622 78.2284 123.622C78.4058 123.622 78.5437 120.558 78.5437 116.784C78.5437 113.01 78.4058 109.945 78.2284 109.945Z" fill="#263238"/>
<path d="M71.5966 109.945C71.4192 109.945 71.2812 113.01 71.2812 116.784C71.2812 120.558 71.4192 123.622 71.5966 123.622C71.7739 123.622 71.9119 120.558 71.9119 116.784C71.9119 113.01 71.7739 109.945 71.5966 109.945Z" fill="#263238"/>
<g opacity="0.3">
<path d="M141.576 109.729C118.864 113.67 93.8165 113.808 71.1436 109.748L141.576 109.729Z" fill="black"/>
</g>
<path d="M69.9609 109.758C69.9609 109.936 86.2192 110.074 106.271 110.074C126.323 110.074 142.591 109.936 142.591 109.758C142.591 109.581 126.333 109.443 106.271 109.443C86.2094 109.443 69.9609 109.581 69.9609 109.758Z" fill="#263238"/>
<path d="M74.6616 137.939H147.42V123.829L74.6616 123.829V137.939Z" fill="#00FF00"/>
<path d="M142.739 124.066C142.562 124.066 142.424 127.13 142.424 130.904C142.424 134.678 142.562 137.742 142.739 137.742C142.917 137.742 143.054 134.678 143.054 130.904C143.054 127.13 142.917 124.066 142.739 124.066Z" fill="#263238"/>
<path d="M136 124.066C135.823 124.066 135.685 127.13 135.685 130.904C135.685 134.678 135.823 137.742 136 137.742C136.177 137.742 136.315 134.678 136.315 130.904C136.315 127.13 136.177 124.066 136 124.066Z" fill="#263238"/>
<path d="M129.329 124.066C129.152 124.066 129.014 127.13 129.014 130.904C129.014 134.678 129.152 137.742 129.329 137.742C129.506 137.742 129.644 134.678 129.644 130.904C129.644 127.13 129.506 124.066 129.329 124.066Z" fill="#263238"/>
<path d="M122.697 124.066C122.52 124.066 122.382 127.13 122.382 130.904C122.382 134.678 122.52 137.742 122.697 137.742C122.875 137.742 123.012 134.678 123.012 130.904C123.012 127.13 122.875 124.066 122.697 124.066Z" fill="#263238"/>
<path d="M116.065 124.066C115.888 124.066 115.75 127.13 115.75 130.904C115.75 134.678 115.888 137.742 116.065 137.742C116.243 137.742 116.381 134.678 116.381 130.904C116.381 127.13 116.243 124.066 116.065 124.066Z" fill="#263238"/>
<path d="M109.434 124.066C109.257 124.066 109.119 127.13 109.119 130.904C109.119 134.678 109.257 137.742 109.434 137.742C109.612 137.742 109.75 134.678 109.75 130.904C109.75 127.13 109.612 124.066 109.434 124.066Z" fill="#263238"/>
<path d="M102.803 124.066C102.625 124.066 102.487 127.13 102.487 130.904C102.487 134.678 102.625 137.742 102.803 137.742C102.98 137.742 103.118 134.678 103.118 130.904C103.118 127.13 102.98 124.066 102.803 124.066Z" fill="#263238"/>
<path d="M96.1718 124.066C95.9944 124.066 95.8564 127.13 95.8564 130.904C95.8564 134.678 95.9944 137.742 96.1718 137.742C96.3491 137.742 96.4871 134.678 96.4871 130.904C96.4871 127.13 96.3491 124.066 96.1718 124.066Z" fill="#263238"/>
<path d="M89.5399 124.066C89.3626 124.066 89.2246 127.13 89.2246 130.904C89.2246 134.678 89.3626 137.742 89.5399 137.742C89.7173 137.742 89.8552 134.678 89.8552 130.904C89.8552 127.13 89.7173 124.066 89.5399 124.066Z" fill="#263238"/>
<path d="M82.9091 124.066C82.7317 124.066 82.5938 127.13 82.5938 130.904C82.5938 134.678 82.7317 137.742 82.9091 137.742C83.0864 137.742 83.2244 134.678 83.2244 130.904C83.2244 127.13 83.0864 124.066 82.9091 124.066Z" fill="#263238"/>
<path d="M76.2772 124.066C76.0999 124.066 75.9619 127.13 75.9619 130.904C75.9619 134.678 76.0999 137.742 76.2772 137.742C76.4546 137.742 76.5925 134.678 76.5925 130.904C76.5925 127.13 76.4546 124.066 76.2772 124.066Z" fill="#263238"/>
<g opacity="0.3">
<path d="M146.247 123.849C123.535 128.312 98.4874 128.46 75.8145 123.869L146.247 123.849Z" fill="black"/>
</g>
<path d="M74.6416 123.878C74.6416 124.056 90.8999 124.194 110.952 124.194C131.004 124.194 147.272 124.056 147.272 123.878C147.272 123.701 131.014 123.563 110.952 123.563C90.89 123.563 74.6416 123.701 74.6416 123.878Z" fill="#263238"/>
<path d="M70.5034 151.852H143.262V137.742H70.5034V151.852Z" fill="#00FF00"/>
<path d="M138.581 137.979C138.404 137.979 138.266 141.043 138.266 144.817C138.266 148.591 138.404 151.655 138.581 151.655C138.758 151.655 138.896 148.591 138.896 144.817C138.896 141.043 138.758 137.979 138.581 137.979Z" fill="#263238"/>
<path d="M131.842 137.979C131.664 137.979 131.526 141.043 131.526 144.817C131.526 148.591 131.664 151.655 131.842 151.655C132.019 151.655 132.157 148.591 132.157 144.817C132.157 141.043 132.019 137.979 131.842 137.979Z" fill="#263238"/>
<path d="M125.171 137.979C124.993 137.979 124.855 141.043 124.855 144.817C124.855 148.591 124.993 151.655 125.171 151.655C125.348 151.655 125.486 148.591 125.486 144.817C125.486 141.043 125.348 137.979 125.171 137.979Z" fill="#263238"/>
<path d="M118.539 137.979C118.362 137.979 118.224 141.043 118.224 144.817C118.224 148.591 118.362 151.655 118.539 151.655C118.716 151.655 118.854 148.591 118.854 144.817C118.854 141.043 118.716 137.979 118.539 137.979Z" fill="#263238"/>
<path d="M111.907 137.979C111.73 137.979 111.592 141.043 111.592 144.817C111.592 148.591 111.73 151.655 111.907 151.655C112.084 151.655 112.222 148.591 112.222 144.817C112.222 141.043 112.084 137.979 111.907 137.979Z" fill="#263238"/>
<path d="M105.276 137.979C105.099 137.979 104.961 141.043 104.961 144.817C104.961 148.591 105.099 151.655 105.276 151.655C105.454 151.655 105.592 148.591 105.592 144.817C105.592 141.043 105.454 137.979 105.276 137.979Z" fill="#263238"/>
<path d="M98.6444 137.979C98.4671 137.979 98.3291 141.043 98.3291 144.817C98.3291 148.591 98.4671 151.655 98.6444 151.655C98.8218 151.655 98.9597 148.591 98.9597 144.817C98.9597 141.043 98.8218 137.979 98.6444 137.979Z" fill="#263238"/>
<path d="M92.0136 137.979C91.8362 137.979 91.6982 141.043 91.6982 144.817C91.6982 148.591 91.8362 151.655 92.0136 151.655C92.1909 151.655 92.3289 148.591 92.3289 144.817C92.3289 141.043 92.1909 137.979 92.0136 137.979Z" fill="#263238"/>
<path d="M85.3817 137.979C85.2044 137.979 85.0664 141.043 85.0664 144.817C85.0664 148.591 85.2044 151.655 85.3817 151.655C85.5591 151.655 85.697 148.591 85.697 144.817C85.697 141.043 85.5591 137.979 85.3817 137.979Z" fill="#263238"/>
<path d="M78.7509 137.979C78.5735 137.979 78.4355 141.043 78.4355 144.817C78.4355 148.591 78.5735 151.655 78.7509 151.655C78.9282 151.655 79.0662 148.591 79.0662 144.817C79.0662 141.043 78.9282 137.979 78.7509 137.979Z" fill="#263238"/>
<path d="M72.119 137.979C71.9417 137.979 71.8037 141.043 71.8037 144.817C71.8037 148.591 71.9417 151.655 72.119 151.655C72.2964 151.655 72.4343 148.591 72.4343 144.817C72.4343 141.043 72.2964 137.979 72.119 137.979Z" fill="#263238"/>
<g opacity="0.3">
<path d="M142.089 137.762C119.377 141.703 94.3292 141.841 71.6562 137.782L142.089 137.762Z" fill="black"/>
</g>
<path d="M70.4834 137.792C70.4834 137.969 86.7417 138.107 106.794 138.107C126.845 138.107 143.114 137.969 143.114 137.792C143.114 137.614 126.855 137.476 106.794 137.476C86.7318 137.476 70.4834 137.614 70.4834 137.792Z" fill="#263238"/>
<path d="M143.261 151.862C143.261 151.862 143.241 151.783 143.241 151.626C143.241 151.439 143.231 151.212 143.222 150.916C143.222 150.256 143.202 149.34 143.182 148.167C143.162 145.743 143.143 142.275 143.113 137.949V137.791H143.271C144.532 137.791 145.872 137.782 147.281 137.772L147.104 137.949C147.094 133.83 147.074 129.051 147.064 123.829L147.281 124.046C145.813 124.046 144.227 124.046 142.601 124.046H142.374V123.819C142.374 119.454 142.374 114.724 142.364 109.817V109.581H142.601C144.148 109.581 145.803 109.581 147.468 109.581C148.7 109.581 149.922 109.581 151.124 109.581L150.888 109.817C150.888 104.595 150.888 99.5796 150.897 94.8794L151.124 95.1061C148.73 95.1061 146.424 95.1061 144.217 95.0962H144V94.8794C144.02 89.7753 144.029 85.1639 144.039 81.1929V81.0254H144.207C144.847 81.0254 145.429 81.0254 145.99 81.0254L145.833 81.1831C145.813 76.6406 145.803 72.9849 145.793 70.4427C145.793 69.211 145.803 68.2454 145.803 67.5557C145.803 67.2502 145.813 67.0039 145.813 66.8068C145.813 66.6393 145.823 66.5506 145.833 66.5506C145.833 66.5506 145.852 66.6393 145.862 66.8068C145.862 67.0039 145.882 67.2502 145.892 67.5557C145.912 68.2454 145.931 69.211 145.961 70.4427C146 72.9849 146.069 76.6406 146.138 81.1831V81.3407H145.98C145.419 81.3407 144.837 81.3407 144.197 81.3407L144.365 81.1732C144.374 85.1442 144.394 89.7458 144.404 94.8597L144.197 94.6528C146.404 94.6528 148.71 94.6528 151.104 94.643H151.331V94.8696C151.331 99.5697 151.331 104.595 151.341 109.808V110.044H151.104C149.902 110.044 148.68 110.044 147.449 110.044C145.783 110.044 144.128 110.044 142.581 110.044L142.818 109.808C142.818 114.724 142.818 119.444 142.808 123.809L142.581 123.583C144.207 123.583 145.793 123.583 147.261 123.583H147.478V123.799C147.459 129.022 147.449 133.801 147.439 137.92V138.097H147.261C145.852 138.097 144.512 138.087 143.251 138.077L143.409 137.92C143.379 142.245 143.35 145.714 143.34 148.138C143.32 149.31 143.31 150.227 143.3 150.887C143.3 151.182 143.281 151.409 143.281 151.596C143.281 151.754 143.271 151.833 143.261 151.833V151.862Z" fill="#263238"/>
</g>
<defs>
<clipPath id="clip0_309_301">
<rect width="81.3999" height="151.862" fill="white" transform="translate(69.9609)"/>
</clipPath>
</defs>
</svg>
