<svg width="593" height="430" viewBox="0 0 593 430" fill="none" xmlns="http://www.w3.org/2000/svg">
<path d="M373.638 219.16C372.978 222.603 372.186 226.011 371.264 229.384C371.164 229.776 371.052 230.162 370.94 230.553H358.105C357.012 230.555 355.964 230.986 355.191 231.753C354.418 232.52 353.984 233.56 353.982 234.645V270.958C353.594 271.677 353.199 272.39 352.804 273.103C350.766 276.786 348.646 280.428 346.478 284.023C311.134 342.453 261.839 391.348 202.944 426.392L206.431 418.582C205.153 418.495 203.869 418.407 202.591 418.319C174.76 416.431 146.836 414.339 119.659 408.131C91.2276 401.636 63.415 390.372 41.1329 371.695C18.8448 353.013 2.50598 326.333 0.238253 297.468C-0.517912 287.547 0.493021 277.572 3.22469 268C8.44894 249.575 19.8641 232.997 36.3326 223.188C62.2016 207.785 95.9457 210.924 123.216 223.738C150.481 236.545 172.675 257.747 194.345 278.581C172.466 241.346 142.004 209.79 105.458 186.501C93.3481 178.808 80.4961 171.957 70.2003 161.991C59.9103 152.03 52.318 138.065 54.1382 123.912C56.2055 107.861 69.4523 95.6783 82.7225 86.2845C88.0235 82.5316 93.4953 78.9717 99.1381 75.6981C115.059 66.4387 132.281 59.4533 150.47 56.8637C175.108 53.3505 201.719 58.6817 220.608 74.7687C241.889 92.8958 250.618 122.13 249.788 150.095C262.899 131.179 283.119 116.699 305.955 116.085C329.662 115.454 352.198 130.319 364.072 150.697C375.941 171.069 378.073 196.041 373.638 219.16Z" fill="#262626"/>
<path d="M222.232 297.712C236.03 296.498 248.776 295.08 262.146 291.302C275.106 287.639 287.577 281.508 296.803 271.496C306.726 260.728 312.082 246.744 315.862 232.823C317.969 225.062 319.7 217.192 321.334 209.319C323.106 200.777 324.681 192.197 326.059 183.58C328.8 166.427 330.758 149.173 331.931 131.817C332.073 129.711 332.202 127.603 332.321 125.495C332.394 124.195 330.369 124.199 330.295 125.495C329.332 142.603 327.599 159.643 325.095 176.617C322.625 193.294 319.465 209.898 315.455 226.276C312.057 240.151 307.659 254.242 298.946 265.792C290.776 276.623 278.976 283.701 266.234 287.933C253.269 292.239 239.598 293.958 226.05 295.236C224.388 295.393 223.895 295.543 222.232 295.689C220.944 295.802 220.932 297.826 222.232 297.712L222.232 297.712Z" fill="#303030"/>
<path d="M4.38043 269.483C21.7886 270.448 39.0197 273.48 55.7094 278.517C72.4063 283.543 88.4514 290.518 103.512 299.298C118.065 307.788 131.575 317.947 143.768 329.569C155.6 340.854 166.146 353.412 175.213 367.015C184.32 380.651 191.868 395.265 197.714 410.582C198.427 412.456 199.114 414.341 199.774 416.235C200.201 417.456 202.158 416.93 201.727 415.697C196.258 400.057 189.047 385.079 180.231 371.046C171.417 357.012 161.072 343.996 149.387 332.238C137.514 320.298 124.301 309.766 110.009 300.853C80.0017 282.185 45.9882 270.891 10.7619 267.9C8.63703 267.722 6.50986 267.576 4.38045 267.461C3.07822 267.39 3.08221 269.412 4.38045 269.483L4.38043 269.483Z" fill="#303030"/>
<path d="M99.0639 78.0683C110.194 81.6037 120.745 86.7527 130.377 93.3505C140.219 100.138 149.196 108.1 157.107 117.059C165.445 126.484 172.857 136.686 179.242 147.526C186.015 158.971 191.899 170.917 196.842 183.261C201.931 195.934 206.212 208.916 209.658 222.13C213.161 235.5 215.897 249.059 217.854 262.74C219.8 276.277 220.978 289.912 221.381 303.581C221.788 316.652 221.401 329.735 220.223 342.759C219.145 354.91 217.176 366.965 214.333 378.829C211.808 389.543 208.25 399.988 203.708 410.017C202.655 412.293 201.539 414.538 200.358 416.751C199.746 417.9 201.493 418.923 202.107 417.772C207.126 408.193 211.135 398.118 214.066 387.71C217.356 376.124 219.74 364.301 221.198 352.346C222.815 339.376 223.602 326.317 223.555 313.247C223.526 299.516 222.707 285.799 221.104 272.162C219.499 258.354 217.117 244.648 213.969 231.109C210.829 217.547 206.845 204.194 202.041 191.127C197.411 178.478 191.867 166.181 185.453 154.333C179.344 143.028 172.226 132.297 164.183 122.271C156.546 112.725 147.826 104.095 138.199 96.554C128.916 89.3042 118.658 83.3946 107.727 78.999C105.056 77.9371 102.347 76.9768 99.6022 76.118C98.3562 75.7265 97.823 77.6784 99.0639 78.0683H99.0639Z" fill="#303030"/>
<path d="M227.898 429.871C319.177 429.871 393.172 427.145 393.172 423.782C393.172 420.42 319.177 417.693 227.898 417.693C136.62 417.693 62.625 420.42 62.625 423.782C62.625 427.145 136.62 429.871 227.898 429.871Z" fill="#141414"/>
<path d="M249.041 410.618L255.982 412.434L266.301 386.56L256.057 383.879L249.041 410.618Z" fill="#FFB8B8"/>
<path d="M267.679 422.375L245.864 416.666L248.073 408.248L261.459 411.751C263.694 412.336 265.605 413.784 266.772 415.776C267.938 417.769 268.264 420.142 267.679 422.375Z" fill="#363636"/>
<path d="M310.742 415.554L317.805 414.294L316.3 386.483L305.875 388.343L310.742 415.554Z" fill="#FFB8B8"/>
<path d="M332.6 418.414L310.4 422.375L308.868 413.808L322.49 411.378C323.617 411.177 324.772 411.2 325.889 411.444C327.007 411.689 328.065 412.152 329.004 412.805C329.943 413.458 330.743 414.29 331.36 415.252C331.977 416.215 332.398 417.289 332.6 418.414Z" fill="#363636"/>
<path d="M296.834 211.03C298.574 211.454 299.99 213.225 300.841 215.277C301.625 217.432 302.156 219.671 302.423 221.949C303.091 226.191 303.733 230.783 302.351 234.712C300.731 239.316 296.415 241.728 292.671 240.595C288.927 239.461 285.95 235.207 284.932 230.31C284.006 225.362 284.603 220.25 286.644 215.648C287.708 213.229 289.173 210.998 291.122 209.907C292.077 209.33 293.216 209.136 294.309 209.363C295.403 209.591 296.369 210.223 297.014 211.134" fill="#363636"/>
<path d="M306.682 287.83L320.13 408.123L309.023 412.336L288.539 331.67L260.02 405.425L247.862 406.1C247.862 406.1 264.543 291.337 276.904 288.729L306.682 287.83Z" fill="#363636"/>
<path d="M295.386 226.381C303.325 226.381 309.761 219.954 309.761 212.025C309.761 204.096 303.325 197.668 295.386 197.668C287.447 197.668 281.011 204.096 281.011 212.025C281.011 219.954 287.447 226.381 295.386 226.381Z" fill="#FFB8B8"/>
<path d="M291.628 225.077C293.88 223.779 294.121 220.649 293.814 218.07C293.508 215.491 292.997 212.616 294.515 210.507C296.326 207.991 299.966 207.94 303.068 207.858C306.171 207.776 309.949 206.869 310.753 203.875C311.284 201.897 310.147 199.774 308.517 198.532C306.886 197.291 304.846 196.742 302.863 196.22C298.427 195.053 293.846 193.876 289.304 194.517C284.805 195.153 280.738 197.532 277.981 201.139C275.225 204.747 274.002 209.294 274.577 213.795C275.312 219.553 276.378 222.068 275.679 224.607C274.375 229.336 268.754 232.374 268.642 237.278C268.555 241.113 271.947 244.072 275.257 246.02C277.882 247.565 280.715 248.876 283.741 249.237C286.766 249.599 290.024 248.906 292.278 246.858C295.185 244.217 295.904 239.804 295.07 235.968C294.237 232.132 292.098 228.726 289.983 225.418" fill="#363636"/>
<path d="M301.556 232.405L286.022 230.381C286.022 230.381 275.891 242.523 276.566 263.434C277.242 284.344 274.878 290.753 274.878 290.753L307.267 291.337C302.585 284.907 322.169 247.978 301.556 232.405Z" fill="#00FF00"/>
<path d="M309.9 294.26C309.576 294.262 309.253 294.29 308.934 294.343L289.061 273.214L291.087 266.469L281.294 262.084L275.215 276.924L303.807 299.639C303.653 300.875 303.88 302.129 304.457 303.234C305.034 304.338 305.934 305.241 307.038 305.822C308.141 306.403 309.395 306.635 310.634 306.486C311.872 306.338 313.036 305.817 313.971 304.992C314.906 304.167 315.567 303.077 315.866 301.868C316.165 300.658 316.089 299.387 315.647 298.222C315.205 297.057 314.419 296.053 313.392 295.346C312.366 294.638 311.148 294.259 309.9 294.26Z" fill="#FFB8B8"/>
<path d="M347.164 240.944C347.092 241.26 347.045 241.58 347.024 241.903L321.882 256.389L315.771 252.875L309.256 261.393L322.329 270.7L351.012 248.1C352.182 248.532 353.456 248.599 354.665 248.29C355.873 247.982 356.959 247.313 357.778 246.374C358.597 245.434 359.11 244.267 359.249 243.029C359.388 241.791 359.146 240.54 358.556 239.443C357.965 238.345 357.055 237.453 355.944 236.885C354.834 236.318 353.577 236.101 352.34 236.264C351.104 236.427 349.946 236.962 349.021 237.798C348.097 238.634 347.449 239.732 347.164 240.944Z" fill="#FFB8B8"/>
<path d="M68.0559 408.904C68.4585 408.919 68.856 408.809 69.1943 408.589C69.5327 408.369 69.7956 408.049 69.9475 407.674C70.0994 407.299 70.1329 406.885 70.0434 406.49C69.954 406.095 69.746 405.737 69.4475 405.465C69.3961 405.267 69.3592 405.125 69.3078 404.928C69.6836 403.94 70.3442 403.087 71.2049 402.48C72.0655 401.872 73.087 401.536 74.1384 401.516C75.1898 401.496 76.2232 401.793 77.1062 402.367C77.9891 402.942 78.6813 403.768 79.0941 404.741C81.4748 410.202 84.5426 415.849 83.1008 421.902C92.8019 400.701 89.1863 374.479 74.3832 356.57C70.3175 354.368 67.0017 350.418 66.1045 345.803C68.1126 346.466 70.5928 344.805 69.0677 342.698C68.4077 341.894 67.7414 341.096 67.0814 340.292C74.6079 332.074 83.7887 344.788 75.5234 355.862C78.2939 359.288 80.7007 362.996 82.7046 366.926C82.2108 362.738 82.7126 358.491 84.1689 354.535C85.6478 350.848 88.4558 347.728 90.9242 344.528C93.9254 340.63 100.195 342.355 100.65 347.261C97.8552 348.215 97.5295 352.292 100.742 352.818C99.9883 361.96 94.1352 370.411 86.0022 374.495C89.1003 382.981 90.3643 392.035 89.7102 401.052C91.0528 390.508 102.266 387.845 110.081 383.585C110.578 383.258 111.158 383.083 111.752 383.082C112.346 383.081 112.928 383.254 113.425 383.58C113.923 383.906 114.316 384.37 114.556 384.917C114.796 385.463 114.872 386.068 114.776 386.657C113.697 387.111 112.664 387.672 111.694 388.331C111.24 388.644 110.893 389.092 110.702 389.611C110.51 390.131 110.483 390.697 110.624 391.233C110.765 391.769 111.067 392.248 111.489 392.604C111.911 392.96 112.433 393.176 112.982 393.223C109.116 403.116 98.9425 409.833 88.4293 409.896C87.4608 414.322 86.0377 418.634 84.1829 422.763L68.5795 422.913C68.5219 422.739 68.4699 422.559 68.4179 422.386C69.863 422.463 71.3121 422.362 72.7329 422.085C68.8687 417.572 65.8917 415.278 68.0554 408.904L68.0559 408.904Z" fill="#00FF00"/>
<path d="M386.558 414.646C386.271 414.657 385.987 414.578 385.745 414.421C385.503 414.264 385.316 414.036 385.207 413.768C385.099 413.499 385.075 413.204 385.139 412.922C385.202 412.64 385.351 412.384 385.564 412.19C385.601 412.048 385.627 411.947 385.664 411.806C385.396 411.1 384.924 410.491 384.309 410.057C383.694 409.623 382.965 409.384 382.214 409.369C381.463 409.355 380.724 409.567 380.094 409.977C379.463 410.387 378.969 410.978 378.674 411.673C376.973 415.573 374.782 419.607 375.812 423.93C368.883 408.787 371.465 390.057 382.039 377.265C384.943 375.692 387.311 372.87 387.952 369.574C386.518 370.048 384.746 368.861 385.836 367.356C386.307 366.782 386.783 366.212 387.254 365.637C381.878 359.768 375.321 368.849 381.224 376.759C379.245 379.206 377.526 381.855 376.095 384.662C376.448 381.67 376.089 378.637 375.049 375.811C373.993 373.178 371.987 370.949 370.224 368.664C368.08 365.879 363.602 367.111 363.277 370.616C365.273 371.297 365.506 374.209 363.211 374.585C363.749 381.115 367.93 387.151 373.739 390.068C371.527 396.13 370.624 402.597 371.091 409.037C370.132 401.506 362.123 399.604 356.541 396.561C356.186 396.327 355.771 396.203 355.347 396.202C354.922 396.201 354.507 396.325 354.151 396.558C353.796 396.79 353.515 397.122 353.344 397.512C353.173 397.903 353.118 398.335 353.186 398.756C353.958 399.08 354.695 399.48 355.388 399.951C355.712 400.175 355.96 400.494 356.097 400.866C356.234 401.237 356.253 401.641 356.153 402.024C356.052 402.407 355.836 402.749 355.535 403.003C355.233 403.258 354.861 403.412 354.468 403.445C357.23 410.512 364.496 415.31 372.006 415.355C372.698 418.516 373.714 421.596 375.039 424.546L386.184 424.652C386.225 424.528 386.263 424.4 386.3 424.276C385.267 424.331 384.232 424.259 383.218 424.061C385.978 420.837 388.104 419.199 386.559 414.646L386.558 414.646Z" fill="#6B6B6B"/>
<path d="M289.905 249.832L309.701 263.923L318.555 252.836L299.312 237.415C298.484 236.751 297.529 236.264 296.506 235.982C295.482 235.7 294.412 235.629 293.361 235.775C292.309 235.92 291.299 236.279 290.391 236.828C289.483 237.377 288.697 238.106 288.081 238.969C286.88 240.651 286.398 242.741 286.74 244.778C287.082 246.815 288.221 248.633 289.905 249.832Z" fill="#00FF00"/>
<path d="M285.815 246.821L276.61 269.293L289.443 275.364L300.07 253.125C300.528 252.168 300.784 251.128 300.825 250.069C300.866 249.01 300.69 247.953 300.307 246.964C299.925 245.975 299.344 245.075 298.601 244.318C297.858 243.561 296.968 242.963 295.985 242.562C295.037 242.175 294.022 241.978 292.998 241.982C291.974 241.986 290.961 242.192 290.017 242.588C289.072 242.983 288.215 243.561 287.494 244.287C286.773 245.014 286.203 245.875 285.815 246.821Z" fill="#00F900"/>
<circle cx="459.281" cy="372.461" r="26.0958" fill="#484848"/>
<path d="M572.87 256.617C572.78 256.617 572.723 256.615 572.704 256.614L561.919 256.615V255.019H572.743C572.993 255.028 578.106 255.173 582.817 249.438C589.837 240.891 595.602 219.733 583.2 167.472C566.523 97.1996 580.432 35.118 587.186 11.6885C587.519 10.5293 587.578 9.30839 587.36 8.12218C587.141 6.93598 586.651 5.81698 585.927 4.85361C585.204 3.89023 584.267 3.10888 583.191 2.57128C582.114 2.03368 580.928 1.75458 579.726 1.75601H418.667C417.443 1.75766 416.236 2.04895 415.145 2.60625C414.053 3.16355 413.108 3.97115 412.386 4.96349C409.525 8.91218 405.599 16.4979 403.142 30.2143L401.577 29.9323C404.087 15.918 408.141 8.10904 411.1 4.0256C411.97 2.82986 413.108 1.85672 414.423 1.18518C415.738 0.513646 417.192 0.162631 418.667 0.160649H579.726C581.175 0.15925 582.604 0.495903 583.901 1.14401C585.198 1.79211 586.327 2.73392 587.198 3.89501C588.07 5.0561 588.661 6.40467 588.924 7.83417C589.187 9.26366 589.115 10.7349 588.714 12.1317C581.994 35.4397 568.158 97.1992 584.747 167.103C597.323 220.099 591.277 241.715 583.991 250.518C579.185 256.323 573.889 256.617 572.87 256.617Z" fill="#525252"/>
<path d="M543.654 285.834C543.564 285.834 543.508 285.832 543.488 285.83L532.703 285.832V284.236H543.527C543.779 284.244 548.89 284.39 553.601 278.655C560.621 270.108 566.386 248.95 553.984 196.689C537.307 126.416 551.216 64.3348 557.97 40.9053C558.303 39.7461 558.362 38.5252 558.144 37.339C557.926 36.1528 557.435 35.0338 556.712 34.0704C555.988 33.107 555.051 32.3257 553.975 31.7881C552.898 31.2505 551.712 30.9714 550.51 30.9728H389.451C388.227 30.9745 387.02 31.2657 385.929 31.823C384.838 32.3803 383.893 33.1879 383.171 34.1803C380.31 38.129 376.383 45.7147 373.926 59.4311L372.361 59.1491C374.872 45.1348 378.926 37.3258 381.885 33.2424C382.754 32.0467 383.893 31.0735 385.207 30.402C386.522 29.7304 387.976 29.3794 389.451 29.3774H550.51C551.959 29.376 553.388 29.7127 554.685 30.3608C555.982 31.0089 557.111 31.9507 557.983 33.1118C558.854 34.2729 559.445 35.6215 559.708 37.051C559.971 38.4805 559.899 39.9517 559.498 41.3485C552.779 64.6565 538.942 126.416 555.531 196.319C568.107 249.315 562.061 270.932 554.775 279.734C549.969 285.54 544.673 285.834 543.654 285.834Z" fill="#8B8B8B"/>
<path d="M514.447 315.05C514.357 315.05 514.3 315.048 514.28 315.047L355.785 315.048C354.259 315.05 352.756 314.676 351.407 313.96C350.058 313.243 348.905 312.206 348.048 310.938C347.191 309.671 346.657 308.212 346.492 306.689C346.326 305.167 346.536 303.626 347.101 302.204C352.852 287.781 360.595 253.179 347.841 183.477C332.781 101.172 346.264 71.4272 352.759 62.4587C353.629 61.263 354.766 60.2898 356.08 59.6183C357.395 58.9467 358.848 58.5957 360.323 58.5938H521.299C522.747 58.5924 524.175 58.929 525.472 59.5771C526.768 60.2252 527.896 61.167 528.767 62.3281C529.639 63.4892 530.229 64.8378 530.492 66.2673C530.755 67.6968 530.683 69.168 530.282 70.5648C523.566 93.8728 509.736 155.632 526.317 225.536C538.887 278.532 532.844 300.149 525.561 308.951C520.758 314.756 515.465 315.05 514.447 315.05ZM360.323 60.1891C359.099 60.1908 357.892 60.482 356.802 61.0393C355.711 61.5966 354.766 62.4042 354.045 63.3966C347.67 72.1987 334.456 101.492 349.404 183.189C361.588 249.774 355.679 284.984 348.576 302.796C348.098 303.972 347.918 305.248 348.053 306.51C348.189 307.772 348.635 308.981 349.353 310.027C350.064 311.083 351.022 311.947 352.144 312.544C353.265 313.142 354.515 313.453 355.785 313.452H514.319C514.569 313.465 519.68 313.607 524.388 307.871C531.404 299.324 537.166 278.166 524.771 225.905C508.103 155.633 522.004 93.5511 528.755 70.1216C529.087 68.9624 529.147 67.7415 528.929 66.5553C528.71 65.3691 528.22 64.2501 527.497 63.2867C526.774 62.3233 525.837 61.542 524.762 61.0044C523.686 60.4668 522.5 60.1877 521.299 60.1891H360.323Z" fill="black"/>
<path d="M494.746 130.012H367.918C366.226 130.012 364.603 129.328 363.406 128.11C362.209 126.893 361.537 125.241 361.537 123.519C361.537 121.797 362.209 120.146 363.406 118.928C364.603 117.711 366.226 117.027 367.918 117.027H494.746C496.438 117.027 498.062 117.711 499.258 118.928C500.455 120.146 501.127 121.797 501.127 123.519C501.127 125.241 500.455 126.893 499.258 128.11C498.062 129.328 496.438 130.012 494.746 130.012Z" fill="#8EFF8E"/>
<path d="M494.746 157.065H367.918C366.226 157.065 364.603 156.381 363.406 155.163C362.209 153.946 361.537 152.294 361.537 150.572C361.537 148.85 362.209 147.199 363.406 145.981C364.603 144.764 366.226 144.08 367.918 144.08H494.746C496.438 144.08 498.062 144.764 499.258 145.981C500.455 147.199 501.127 148.85 501.127 150.572C501.127 152.294 500.455 153.946 499.258 155.163C498.062 156.381 496.438 157.065 494.746 157.065Z" fill="#484848"/>
<path d="M494.746 184.116H367.918C366.226 184.116 364.603 183.432 363.406 182.215C362.209 180.997 361.537 179.346 361.537 177.624C361.537 175.902 362.209 174.251 363.406 173.033C364.603 171.815 366.226 171.131 367.918 171.131H494.746C496.438 171.131 498.062 171.815 499.258 173.033C500.455 174.251 501.127 175.902 501.127 177.624C501.127 179.346 500.455 180.997 499.258 182.215C498.062 183.432 496.438 184.116 494.746 184.116Z" fill="#484848"/>
<path d="M503.456 211.169H377.611C375.932 211.169 374.321 210.485 373.134 209.267C371.946 208.05 371.279 206.398 371.279 204.676C371.279 202.954 371.946 201.303 373.134 200.085C374.321 198.868 375.932 198.184 377.611 198.184H503.456C505.135 198.184 506.745 198.868 507.933 200.085C509.12 201.303 509.787 202.954 509.787 204.676C509.787 206.398 509.12 208.05 507.933 209.267C506.745 210.485 505.135 211.169 503.456 211.169Z" fill="#484848"/>
<path d="M503.456 238.221H377.611C375.932 238.221 374.321 237.537 373.134 236.32C371.946 235.102 371.279 233.451 371.279 231.729C371.279 230.007 371.946 228.356 373.134 227.138C374.321 225.92 375.932 225.236 377.611 225.236H503.456C505.135 225.236 506.745 225.92 507.933 227.138C509.12 228.356 509.787 230.007 509.787 231.729C509.787 233.451 509.12 235.102 507.933 236.32C506.745 237.537 505.135 238.221 503.456 238.221Z" fill="#484848"/>
<path d="M427.664 102.96H367.911C366.22 102.96 364.599 102.276 363.404 101.058C362.209 99.8405 361.537 98.1891 361.537 96.4672C361.537 94.7452 362.209 93.0938 363.404 91.8762C364.599 90.6586 366.22 89.9746 367.911 89.9746H427.664C429.354 89.9746 430.975 90.6586 432.171 91.8762C433.366 93.0938 434.037 94.7452 434.037 96.4672C434.037 98.1891 433.366 99.8405 432.171 101.058C430.975 102.276 429.354 102.96 427.664 102.96Z" fill="#00FF00"/>
<path d="M420.15 281.71C421.436 276.386 427.477 274.641 432.416 274.836C435.537 275.042 438.632 275.521 441.666 276.267C444.839 276.962 447.982 277.784 451.109 278.656C456.844 280.254 462.519 282.188 468.348 283.438C473.2 284.479 478.474 285.09 483.313 283.653C487.965 282.272 491.911 278.881 493.177 274.193C494.369 269.776 492.732 264.946 488.354 262.927C484.362 261.086 479.318 262.023 477.34 266.186C475.108 270.88 477.338 275.999 480.871 279.396C482.879 281.239 485.078 282.873 487.433 284.269C489.823 285.862 492.484 287.027 495.29 287.71C499.899 288.673 505.389 287.255 507.765 282.95C508.293 281.975 508.611 280.905 508.699 279.806C508.839 278.309 506.449 278.318 506.309 279.806C505.906 284.092 500.772 286.099 496.932 285.629C494.341 285.209 491.866 284.27 489.663 282.871C487.537 281.659 485.522 280.269 483.642 278.717C480.386 275.962 477.333 271.428 479.52 267.128C481.301 263.627 485.943 263.662 488.767 265.92C492.186 268.654 491.577 273.617 489.321 276.864C486.824 280.46 482.298 281.967 478.03 282.129C473.393 282.306 468.795 281.266 464.363 280.035C458.856 278.506 453.405 276.795 447.871 275.356C444.73 274.539 441.565 273.801 438.367 273.227C435.343 272.576 432.237 272.366 429.15 272.604C424.164 273.167 419.073 276.005 417.845 281.089C417.492 282.551 419.796 283.175 420.15 281.71L420.15 281.71Z" fill="black"/>
<path d="M292.917 45.3933C283.641 45.4063 276.601 38.2822 276.61 29.0867C276.61 28.4854 277.097 27.9961 277.698 27.9961H280.568C281.106 27.9961 281.564 28.3919 281.644 28.9247C281.833 30.2023 282.205 31.4462 282.747 32.6183L282.859 32.8597C282.934 33.0221 282.951 33.2057 282.905 33.3788C282.859 33.5519 282.755 33.7036 282.609 33.8078C281.72 34.4428 281.38 35.7204 282.073 36.7164C282.945 37.9705 284.033 39.0592 285.287 39.9317C286.284 40.6232 287.562 40.2839 288.196 39.3956C288.3 39.2496 288.452 39.1446 288.625 39.0987C288.798 39.0529 288.982 39.069 289.145 39.1444L289.385 39.2553C290.557 39.799 291.801 40.1709 293.079 40.3601C293.612 40.4394 294.008 40.8972 294.008 41.4365V44.306C294.008 44.4488 293.979 44.5903 293.925 44.7223C293.87 44.8543 293.79 44.9742 293.689 45.0752C293.588 45.1762 293.468 45.2563 293.336 45.3108C293.204 45.3654 293.062 45.3934 292.919 45.3933H292.917Z" fill="#00FF00"/>
<circle cx="285.31" cy="36.6949" r="24.5557" stroke="#00FF00" stroke-width="3.08021"/>
</svg>
