<svg width="257" height="257" viewBox="0 0 257 257" fill="none" xmlns="http://www.w3.org/2000/svg">
<g clip-path="url(#clip0_231_26794)">
<path d="M0 40C0 17.9086 17.9086 0 40 0H217C239.091 0 257 17.9086 257 40V217C257 239.091 239.091 257 217 257H40C17.9086 257 0 239.091 0 217V40Z" fill="url(#paint0_linear_231_26794)"/>
<g clip-path="url(#clip1_231_26794)">
<path d="M119.924 68.1697C120.755 69.0057 119.93 70.6329 119.93 70.6329C119.93 70.6329 120.839 72.5688 123.701 73.8649L123.449 75.1442L117.393 72.4565L114.519 68.237L116.214 65.8467C116.214 65.8467 119.099 67.328 119.924 68.1697Z" fill="#989898"/>
<path d="M119.363 68.7645C119.2 68.8711 119.155 69.0956 119.267 69.2695C119.379 69.4435 119.598 69.4996 119.767 69.393C119.929 69.2864 119.974 69.0619 119.862 68.888C119.75 68.714 119.531 68.6579 119.363 68.7645Z" fill="#2E2E2E"/>
<path d="M115.496 65.6504C115.496 65.6504 114.008 67.2159 112.549 67.3561C111.09 67.4964 98.6519 63.7314 95.1496 64.1803C91.6473 64.6291 92.3152 66.5257 92.8035 67.2102C93.2862 67.8948 95.5593 68.4222 95.6211 66.0151C95.6211 66.0151 109.686 68.31 117.398 72.451C117.398 72.451 118.004 70.2515 117.83 69.6511C117.651 69.0507 115.462 67.777 116.22 65.8411L115.507 65.6391L115.496 65.6504Z" fill="white"/>
<path d="M111.361 63.2764L119.241 67.2061L121.193 63.2946L113.312 59.365L111.361 63.2764Z" fill="white"/>
<path d="M94.8967 56.8187L112.824 65.0726C113.767 65.5439 114.912 65.1624 115.383 64.2197L116.483 62.0145C116.955 61.0719 116.573 59.9272 115.63 59.4559L97.6975 51.202C96.7545 50.7307 95.6095 51.1122 95.1381 52.0549L94.038 54.26C93.5665 55.2027 93.9482 56.3474 94.8911 56.8187H94.8967Z" fill="#2E2E2E"/>
<path d="M98.5731 52.2007L114.85 59.6298C115.619 60.0113 116.012 60.8418 115.883 61.6497L98.1914 53.5137C98.3879 53.0031 98.5169 52.5486 98.5731 52.2007Z" fill="#989898"/>
<path d="M116.427 66.7167L119.116 67.6986C119.845 67.968 120.665 67.6425 121.013 66.9411L122.09 64.7865C122.438 64.0907 122.208 63.2434 121.551 62.817L119.149 61.2627C118.779 61.0214 118.285 61.1561 118.088 61.5545L116.023 65.6955C115.826 66.0882 116.017 66.5708 116.433 66.7167H116.427Z" fill="#2E2E2E"/>
<path d="M95.2672 53.4632C94.7284 54.5461 94.487 55.5169 94.7284 55.6347C94.9697 55.7525 95.5984 54.9782 96.1372 53.8952C96.676 52.8123 96.9173 51.8416 96.676 51.7238C96.4347 51.6059 95.806 52.3803 95.2672 53.4632Z" fill="white"/>
<path d="M94.9023 56.8244C95.2503 56.9984 96.1652 55.8705 96.951 54.2994C97.7367 52.7283 98.0847 51.3199 97.7368 51.146" stroke="white" stroke-width="0.5" stroke-linecap="round" stroke-linejoin="round"/>
<path d="M121.832 64.4891C121.905 64.1525 121.753 63.5128 121.478 63.2491C121.203 62.9853 119.031 61.5601 118.745 61.5714C118.459 61.5826 118.043 62.413 118.043 62.413L121.832 64.4891Z" fill="#989898"/>
<path d="M253.04 214.109H183.044C179.076 214.109 175.259 212.24 172.829 209.104L165.005 199.015L169.742 195.345L177.566 205.434C178.868 207.112 180.917 208.116 183.044 208.116H253.04V214.109Z" fill="#CFDED6"/>
<path d="M181.141 208.767C181.141 208.767 178.902 211.864 178.767 212.325C178.638 212.785 182.129 213.379 182.915 213.379C182.915 213.379 182.584 210.484 182.387 210.153C182.191 209.822 181.596 208.969 181.136 208.773L181.141 208.767Z" fill="white"/>
<path d="M251.698 201.854H164.943C155.912 201.854 148.026 195.435 146.191 186.597L143.199 172.239C142.649 169.602 143.351 166.925 145.119 164.894C146.887 162.863 149.441 161.797 152.129 161.976L231.683 167.25L251.693 201.86L251.698 201.854ZM151.568 167.946C150.833 167.946 150.137 168.26 149.648 168.822C149.121 169.428 148.913 170.224 149.076 171.016L152.067 185.38C153.325 191.457 158.741 195.861 164.949 195.861H241.315L228.102 173.013L151.742 167.952C151.686 167.952 151.624 167.946 151.568 167.946Z" fill="#2E2E2E"/>
<path d="M144.889 139.829L155.525 191.165C157.315 199.795 164.915 205.984 173.732 205.984H267.638L248.516 172.906L273.413 151.59V139.829H144.889Z" fill="#2E2E2E"/>
<path d="M246.535 148.459H212.937C212.937 148.459 214.621 149.155 215.53 149.357C216.439 149.559 246.535 149.817 246.535 149.817V148.459Z" fill="white"/>
<path d="M161.048 189.723L150.412 138.387H147.14L157.776 189.723C159.566 198.353 167.171 204.542 175.983 204.542H179.25C170.432 204.542 162.827 198.353 161.042 189.723H161.048Z" fill="white"/>
<path d="M256.396 145.648H204.894V146.922H256.396V145.648Z" fill="white"/>
<path d="M244.093 150.687H206.668C204.288 150.687 202.598 152.998 203.317 155.26C204.49 158.946 206.353 164.181 208.621 168.305C210.602 171.908 214.408 174.118 218.516 174.118H233.463L244.087 150.687H244.093Z" stroke="white" stroke-width="0.5" stroke-linecap="round" stroke-linejoin="round"/>
<path d="M159.835 162.604L162.625 174.118H167.39C170.471 168.664 176.326 164.978 183.038 164.978C186.518 164.978 189.768 165.971 192.524 167.688L191.289 162.604" stroke="white" stroke-width="0.5" stroke-linecap="round" stroke-linejoin="round"/>
<path d="M191.979 150.12H202.2C202.2 150.12 200.999 153.166 201.471 156.398C201.471 156.398 196.009 156.842 193.506 157.049L191.979 150.12Z" stroke="white" stroke-width="0.5" stroke-linecap="round" stroke-linejoin="round"/>
<path d="M195.779 170.32C195.779 170.32 201.672 169.478 203.238 168.934C203.238 168.934 200.331 170.892 195.779 170.32Z" fill="white"/>
<path d="M195.021 168.423C195.021 168.423 201.65 167.498 203.407 166.869C203.407 166.869 200.157 169.17 195.021 168.423Z" fill="white"/>
<path d="M194.325 166.521C194.325 166.521 201.218 165.494 203.059 164.899C203.059 164.899 199.612 166.964 194.325 166.521Z" fill="white"/>
<path d="M192.759 164.591C192.759 164.591 201.335 163.312 203.631 162.577C203.631 162.577 199.343 165.147 192.759 164.591Z" fill="white"/>
<path d="M192.282 162.588C192.282 162.588 201.397 161.23 203.839 160.444C203.839 160.444 199.281 163.171 192.282 162.588Z" fill="white"/>
<path d="M190.25 160.287C190.25 160.287 200.544 158.755 203.3 157.863C203.3 157.863 198.153 160.944 190.25 160.287Z" fill="white"/>
<path d="M186.54 111.403C186.54 111.403 150.664 87.2419 131.822 121.857" stroke="#2E2E2E" stroke-width="0.5" stroke-linecap="round" stroke-linejoin="round"/>
<path d="M121.495 73.6182C121.495 73.6182 150.917 82.8652 134.926 113.014" stroke="#2E2E2E" stroke-width="0.5" stroke-linecap="round" stroke-linejoin="round"/>
<path d="M137.71 103.491L130.595 99.1187L76.0237 187.867L83.1386 192.239L137.71 103.491Z" fill="white"/>
<path d="M139.775 101.269L131.651 96.2769L130.093 98.8103L138.217 103.803L139.775 101.269Z" fill="#2E2E2E"/>
<path d="M125.166 125.026L117.042 120.033L115.484 122.567L123.608 127.559L125.166 125.026Z" fill="#2E2E2E"/>
<path d="M109.889 149.861L101.766 144.868L100.208 147.402L108.332 152.394L109.889 149.861Z" fill="#2E2E2E"/>
<path d="M83.7493 192.382L75.6255 187.39L74.0677 189.923L82.1914 194.916L83.7493 192.382Z" fill="#2E2E2E"/>
<path d="M123.603 127.561L115.479 122.568L101.765 144.872L109.888 149.865L123.603 127.561Z" fill="#17E217"/>
<path d="M116.678 123.307L115.478 122.569L101.763 144.873L102.963 145.611L116.678 123.307Z" fill="white"/>
<path d="M130.745 99.8667C134.865 102.302 136.38 103.312 137.43 103.952L124.655 124.724L123.23 123.848C123.23 123.848 131.604 109.411 133.085 107.004L122.713 122.367C122.713 122.367 122.36 121.166 122.292 120.588C122.231 120.01 133.012 103.43 133.13 102.964C133.248 102.498 131.548 100.781 130.739 99.8667H130.745Z" fill="#2E2E2E"/>
<path d="M104.508 149.503L103.504 148.886L78.5698 189.436L79.574 190.053L104.508 149.503Z" fill="#2E2E2E"/>
<path d="M80.854 190.839L105.544 150.687L107.823 152.084L83.1328 192.237L81.9934 191.535C81.9934 191.535 104.54 155.692 104.927 154.856C105.314 154.02 105.275 153.06 105.275 153.06L81.2637 191.092L80.854 190.839Z" fill="#2E2E2E"/>
<path d="M119.537 125.066C119.537 125.066 109.838 141.781 108.21 144.267L107.728 146.119L116.966 133.146C116.966 133.146 109.467 146.45 109.237 147.247C109.002 148.043 109.888 149.873 109.888 149.873L123.606 127.568L119.542 125.072L119.537 125.066Z" fill="#33FF33"/>
<path d="M131.823 96.7021C131.823 96.7021 139.058 101.213 139.288 101.399C139.389 101.477 138.159 103.441 138.159 103.441C138.159 103.441 136.784 102.487 136.582 102.134C136.38 101.78 136.801 100.344 136.801 100.344C136.801 100.344 132.143 97.3474 131.823 96.7021Z" fill="white"/>
<path d="M118.493 120.936L130.711 101.679L119.772 121.722L118.493 120.936Z" fill="#2E2E2E"/>
<path d="M101.918 201.809L120.951 171.442L119.463 169.888L97.6694 197.197" stroke="white" stroke-width="0.5" stroke-linecap="round" stroke-linejoin="round"/>
<path d="M96.7319 207.173L112.818 219.405L114.945 216.381L102.956 198.42" stroke="white" stroke-width="0.5" stroke-linecap="round" stroke-linejoin="round"/>
<path d="M94.8352 202.365L75.999 232.872L77.5088 234.393L99.1626 206.876" stroke="white" stroke-width="0.5" stroke-linecap="round" stroke-linejoin="round"/>
<path d="M99.9539 196.944L83.3965 185.475L81.3086 188.539L93.8361 205.815" stroke="white" stroke-width="0.5" stroke-linecap="round" stroke-linejoin="round"/>
<path d="M101.969 198.066L102.564 168.771L99.9875 170.005L94.4927 201.551" stroke="white" stroke-width="0.5" stroke-linecap="round" stroke-linejoin="round"/>
<path d="M99.7402 205.479L124.588 192.45L125.025 189.218L101.082 196.041" stroke="white" stroke-width="0.5" stroke-linecap="round" stroke-linejoin="round"/>
<path d="M94.7565 205.944L93.4038 235.672L95.9688 234.538L102.204 202.746" stroke="white" stroke-width="0.5" stroke-linecap="round" stroke-linejoin="round"/>
<path d="M97.0351 198.639L72.1822 211.668L71.75 214.9L95.6937 208.071" stroke="white" stroke-width="0.5" stroke-linecap="round" stroke-linejoin="round"/>
<path d="M102.238 199.189L112.015 166.611L110.062 166.628L96.5972 199.133" stroke="white" stroke-width="0.5" stroke-linecap="round" stroke-linejoin="round"/>
<path d="M101.419 202.999L124.521 178.063L123.858 176.026L99.5723 197.017" stroke="white" stroke-width="0.5" stroke-linecap="round" stroke-linejoin="round"/>
<path d="M98.8257 206.259L121.714 203.571L122.73 200.676L101.851 197.854" stroke="white" stroke-width="0.5" stroke-linecap="round" stroke-linejoin="round"/>
<path d="M95.9741 207.061L105.241 228.193L107.345 226.133L102.103 201.153" stroke="white" stroke-width="0.5" stroke-linecap="round" stroke-linejoin="round"/>
<path d="M94.5373 204.923L84.7544 237.501L86.7076 237.484L100.178 204.979" stroke="white" stroke-width="0.5" stroke-linecap="round" stroke-linejoin="round"/>
<path d="M95.3572 201.113L72.2554 226.049L72.9177 228.086L97.2037 207.095" stroke="white" stroke-width="0.5" stroke-linecap="round" stroke-linejoin="round"/>
<path d="M97.9498 197.854L75.0613 200.541L74.0454 203.437L94.9246 206.259" stroke="white" stroke-width="0.5" stroke-linecap="round" stroke-linejoin="round"/>
<path d="M100.801 197.051L91.5293 175.919L89.4302 177.979L94.6724 202.959" stroke="white" stroke-width="0.5" stroke-linecap="round" stroke-linejoin="round"/>
<path d="M118.043 157.874C103.591 151.472 80.7246 164.978 66.9623 188.045C53.2 211.112 53.7613 235.004 68.2139 241.412C82.661 247.82 105.533 234.308 119.289 211.241C133.052 188.174 132.49 164.282 118.038 157.874H118.043ZM113.205 209.771C105.016 223.176 92.573 231.722 85.4168 228.86C78.255 225.998 79.0913 212.812 87.2858 199.413C95.4747 186.008 107.918 177.463 115.074 180.324C122.236 183.186 121.4 196.372 113.205 209.771Z" fill="#2E2E2E"/>
<path d="M114.892 213.153C126.155 196.678 128.338 178.578 119.77 172.724C111.202 166.87 95.1262 175.479 83.8641 191.953C72.6019 208.427 70.4181 226.527 78.9863 232.382C87.5546 238.236 103.63 229.627 114.892 213.153Z" stroke="white" stroke-width="0.5" stroke-linecap="round" stroke-linejoin="round"/>
<path d="M102.07 203.61C99.6452 207.672 96.3899 210.865 93.1289 212.694C90.0812 214.4 87.0335 214.922 84.6481 213.861C79.709 211.668 79.5013 203.52 84.1823 195.665C88.8632 187.809 96.6649 183.219 101.604 185.413C106.543 187.607 106.751 195.755 102.07 203.61Z" fill="#2E2E2E"/>
<path d="M230.645 175.056H236.628C238.8 175.056 240.81 173.776 241.876 171.695C245.255 165.107 254.403 150.934 271.472 148.554C289.881 145.99 302.987 159.21 306.512 163.244C307.146 163.974 308.021 164.383 308.936 164.383H313.224C313.224 164.383 304.457 137.748 272.628 137.748C240.798 137.748 230.645 175.056 230.645 175.056Z" fill="#2E2E2E"/>
<path d="M230.92 200.193H184.582C184.711 200.485 184.767 200.816 184.778 201.158H223.618L222.018 201.685L184.593 202.679C184.352 203.683 183.953 204.502 183.953 204.502H233.053L230.92 200.193Z" fill="#989898"/>
<path d="M199.612 178.158H237.549L236.42 184.168C234.984 191.81 228.31 197.348 220.531 197.348H193.506" stroke="white" stroke-width="0.5" stroke-linecap="round" stroke-linejoin="round"/>
<path d="M207.409 185.066C208.605 185.066 209.575 184.096 209.575 182.9C209.575 181.704 208.605 180.734 207.409 180.734C206.212 180.734 205.242 181.704 205.242 182.9C205.242 184.096 206.212 185.066 207.409 185.066Z" stroke="white" stroke-width="0.5" stroke-linecap="round" stroke-linejoin="round"/>
<path d="M216.479 185.06C217.672 185.06 218.64 184.093 218.64 182.9C218.64 181.706 217.672 180.739 216.479 180.739C215.285 180.739 214.318 181.706 214.318 182.9C214.318 184.093 215.285 185.06 216.479 185.06Z" stroke="white" stroke-width="0.5" stroke-linecap="round" stroke-linejoin="round"/>
<path d="M225.543 185.06C226.737 185.06 227.704 184.093 227.704 182.9C227.704 181.706 226.737 180.739 225.543 180.739C224.35 180.739 223.382 181.706 223.382 182.9C223.382 184.093 224.35 185.06 225.543 185.06Z" stroke="white" stroke-width="0.5" stroke-linecap="round" stroke-linejoin="round"/>
<path d="M234.529 161.269H218.679V165.057H234.529V161.269Z" fill="#989898"/>
<path d="M213.801 169.495C211.876 165.993 210.293 161.549 209.294 158.413C208.683 156.488 210.119 154.524 212.14 154.524H240.069L241.012 152.448H209.221C207.201 152.448 205.764 154.412 206.376 156.337C207.369 159.468 208.958 163.912 210.883 167.419C211.882 169.237 213.431 170.628 215.249 171.47C214.694 170.886 214.2 170.224 213.801 169.5V169.495Z" fill="white"/>
<path d="M224.668 176.357H231.504C233.985 176.357 236.28 175.033 237.498 172.878C241.36 166.061 251.811 151.393 271.309 148.93C292.34 146.276 307.309 159.956 311.333 164.131C312.057 164.883 313.056 165.309 314.1 165.309H319C319 165.309 308.987 137.742 272.622 137.742C236.258 137.742 224.662 176.352 224.662 176.352L224.668 176.357Z" fill="#CFDED6"/>
<path d="M256.615 141.557C256.615 141.557 236.628 151.579 227.497 173.804C227.497 173.804 233.121 174.36 235.753 170.881C238.385 167.402 250.969 147.252 272.634 147.252C294.299 147.252 305.176 156.404 305.176 156.404C305.176 156.404 295.489 144.885 271.837 144.885C248.185 144.885 235.932 165.169 235.932 165.169C235.932 165.169 240.49 151.461 259.781 142.909L256.621 141.563L256.615 141.557Z" fill="white"/>
<path d="M215.457 145.586H274.52C283.831 145.586 291.734 139.442 292.963 135.049C294.192 130.661 292.789 122.581 291.734 120.297C290.679 118.013 284.881 116.958 281.895 116.958C278.909 116.958 251.962 122.25 234.692 123.114C217.422 123.984 210.266 121.548 207.689 126.604C205.108 131.66 206.174 145.586 215.457 145.586Z" fill="#2E2E2E"/>
<path d="M209.559 124.545C209.559 124.545 210.187 127.85 227.446 129.432C244.705 131.014 269.474 127.21 277.382 126.61C285.285 126.009 292.761 122.121 290.999 119.388" stroke="white" stroke-width="0.5" stroke-linecap="round" stroke-linejoin="round"/>
<path d="M218.09 123.26C218.09 123.26 219.796 125.768 220.986 128.652" stroke="white" stroke-width="0.5" stroke-linecap="round" stroke-linejoin="round"/>
<path d="M229.557 123.26C229.557 123.26 232.711 127.345 233.637 129.769" stroke="white" stroke-width="0.5" stroke-linecap="round" stroke-linejoin="round"/>
<path d="M241.012 122.654C241.012 122.654 246.815 126.576 247.736 129.449" stroke="white" stroke-width="0.5" stroke-linecap="round" stroke-linejoin="round"/>
<path d="M254.432 121.066C254.432 121.066 259.062 124.893 261.043 128.343" stroke="white" stroke-width="0.5" stroke-linecap="round" stroke-linejoin="round"/>
<path d="M125.87 114.332L117.746 109.34L116.188 111.873L124.312 116.866L125.87 114.332Z" fill="#2E2E2E"/>
<path d="M125.708 114.597L117.584 109.605L117.296 110.073L125.42 115.066L125.708 114.597Z" fill="white"/>
<path d="M118.695 111.33C118.083 113.042 116.943 114.388 115.574 115.202C114.098 116.083 112.352 116.335 110.73 115.757C109.417 115.286 108.395 114.349 107.739 113.154C106.835 111.499 106.638 109.355 107.379 107.29C108.653 103.727 112.223 101.747 115.344 102.863C118.47 103.98 119.969 107.773 118.695 111.336V111.33Z" fill="white"/>
<path d="M116.264 110.668C115.22 113.58 112.431 115.247 110.028 114.388C107.626 113.53 106.526 110.472 107.564 107.56C108.608 104.647 111.398 102.981 113.8 103.839C116.202 104.698 117.302 107.756 116.264 110.668Z" fill="#2E2E2E"/>
<path d="M116.82 110.864C115.776 113.777 112.986 115.443 110.584 114.585C108.182 113.726 107.082 110.668 108.12 107.756C109.164 104.844 111.954 103.177 114.356 104.036C116.758 104.894 117.858 107.952 116.82 110.864Z" fill="#E74514"/>
<path d="M114.188 104.434C114.12 104.406 114.047 104.378 113.98 104.35C115.787 105.377 116.27 108.323 115.035 111.111C114.99 111.212 114.945 111.308 114.9 111.403C115.192 111.039 115.445 110.623 115.647 110.158C116.68 107.823 116.029 105.259 114.188 104.429V104.434Z" fill="white"/>
<path d="M108.962 107.588C108.962 107.588 110.214 107.442 110.64 107.599C110.898 107.694 110.23 110.225 111.779 111.257C112.936 112.026 114.833 111.7 114.833 111.7C114.833 111.7 113.834 114.775 110.758 113.479C107.682 112.183 108.305 108.306 108.968 107.588H108.962Z" fill="#2E2E2E"/>
<path d="M113.233 105.45C113.233 105.45 110.102 108.85 110.461 112.323C110.461 112.323 112.044 108.238 113.233 105.45Z" fill="#2E2E2E"/>
<path d="M114.412 106.303C114.412 106.303 111.359 109.484 111.78 112.789C111.78 112.789 113.284 108.929 114.412 106.303Z" fill="#2E2E2E"/>
<path d="M115.495 107.167C115.495 107.167 112.577 109.984 113.087 113.014C113.087 113.014 114.451 109.535 115.495 107.167Z" fill="#2E2E2E"/>
<path d="M114.771 103.699C114.771 103.699 118.582 105.859 117.207 110.573C117.207 110.573 117.477 110.421 117.982 110.225C118.487 110.023 118.953 110.012 118.858 109.978C118.762 109.944 119.873 104.732 114.771 103.699Z" fill="#989898"/>
<path d="M110.848 115.241C110.848 115.241 112.403 115.404 113.127 114.725C113.127 114.725 113.234 115.348 113.688 115.589C113.688 115.589 112.139 115.842 110.848 115.241Z" fill="#2E2E2E"/>
<path d="M144.333 134.571C144.333 134.571 147.74 143.672 150.024 146.298C151.972 148.537 194.858 148.503 209.131 148.447C211.612 148.436 213.616 146.422 213.616 143.942V136.928C213.616 131.535 206.718 125.173 199.803 121.856C192.888 118.54 162.849 109.54 139.023 113.479C139.023 113.479 141.1 126.985 144.339 134.571H144.333Z" fill="#17E217"/>
<path d="M140.831 115.634C164.977 110.864 195.414 121.122 202.425 124.926C206.337 127.052 210.249 130.29 212.937 133.831C211.04 129.263 205.422 124.55 199.798 121.851C192.883 118.535 162.844 109.535 139.018 113.474C139.018 113.474 141.095 126.98 144.333 134.566C144.333 134.566 144.53 135.093 144.855 135.918C142.369 127.081 140.831 115.628 140.831 115.628V115.634Z" fill="white"/>
<path d="M147.128 130.481C147.128 130.481 150.142 142.668 152.982 144.655C155.817 146.641 210.63 146.467 211.506 145.94C212.381 145.412 213.964 138.791 210.277 134.987C206.589 131.188 181.781 126.441 173.542 130.481C173.542 130.481 190.778 130.907 195.341 132.54C195.341 132.54 177.033 129.982 173.542 133.573C170.045 137.158 168.642 143.409 168.642 143.409C168.642 143.409 158.825 142.814 156.092 142.096C153.358 141.378 149.75 126.609 149.75 126.609L147.134 130.487L147.128 130.481Z" fill="#33FF33"/>
<path d="M150.434 119.152C150.434 119.152 185.227 118.787 207.296 128.163C207.296 128.163 199.837 120.886 182.746 117.603C165.656 114.321 152.982 113.967 152.982 113.967L150.44 119.152H150.434Z" fill="#33FF33"/>
<path d="M149.772 123.147C149.772 123.147 206.937 121.767 213.611 136.922" stroke="#2E2E2E" stroke-width="0.5" stroke-linecap="round" stroke-linejoin="round"/>
<path d="M155.257 114.128L133.429 100.714L119.147 123.941L140.975 137.355L155.257 114.128Z" fill="#2E2E2E"/>
<path d="M105.117 207.432C110.298 199.854 110.919 191.265 106.504 188.249C102.09 185.233 94.3112 188.931 89.1305 196.509C83.9498 204.088 83.3288 212.676 87.7434 215.692C92.1581 218.709 99.9366 215.01 105.117 207.432Z" fill="#989898"/>
<path d="M104.416 205.423C101.413 210.456 96.6368 213.632 93.1176 213.16H93.1288C94.9979 213.031 95.5647 210.922 94.156 210.742C92.7528 210.568 90.5189 208.946 92.1354 203.981C93.982 198.319 100.627 196.737 100.246 195.093C99.7911 193.118 96.4403 194.801 94.0998 196.265C97.3327 192.798 101.329 191.086 104.085 192.315C107.643 193.898 107.795 199.767 104.422 205.428L104.416 205.423Z" fill="#2E2E2E"/>
<path d="M103.108 194.492C106.099 197.169 104.332 204.054 99.2015 210.159C99.4316 209.923 99.6561 209.682 99.8806 209.429C105.291 203.392 107.379 196.428 104.534 193.881C103.259 192.742 101.216 192.68 98.8647 193.499C100.588 193.258 102.075 193.561 103.114 194.492H103.108Z" fill="white"/>
<path d="M93.0783 199.071C92.8763 199.447 92.5395 199.66 92.3262 199.548C92.113 199.436 92.1017 199.037 92.2982 198.656C92.5002 198.28 92.837 198.067 93.0503 198.179C93.2636 198.291 93.2748 198.689 93.0783 199.071Z" fill="#2E2E2E"/>
<path d="M90.6871 204.216C90.6086 204.637 90.356 204.94 90.1147 204.901C89.8733 204.856 89.7442 204.48 89.8228 204.059C89.9014 203.638 90.1539 203.335 90.3953 203.375C90.6366 203.419 90.7657 203.795 90.6871 204.216Z" fill="#2E2E2E"/>
<path d="M90.8668 210.372C90.9342 210.793 90.7938 211.169 90.5525 211.202C90.3112 211.236 90.0642 210.927 89.9968 210.507C89.9295 210.086 90.0698 209.71 90.3112 209.676C90.5525 209.637 90.7995 209.951 90.8668 210.372Z" fill="#2E2E2E"/>
<path d="M94.4646 215.175C94.4646 215.175 85.7032 215.567 86.9548 203.055C86.9548 203.055 85.069 209.451 86.6349 212.341C89.1045 216.886 94.4646 215.175 94.4646 215.175Z" fill="white"/>
<path d="M105.971 193.836C105.971 193.836 107.396 194.666 107.34 196.277L108.642 195.463C108.642 195.463 109.013 191.793 107.548 190.211L105.971 193.836Z" fill="#2E2E2E"/>
<path d="M99.3532 203.824C98.674 205.002 97.4112 205.619 96.5356 205.193C95.66 204.772 95.5029 203.47 96.1876 202.292C96.8668 201.113 98.1296 200.496 99.0052 200.923C99.8808 201.344 100.038 202.645 99.3532 203.824Z" fill="white"/>
<path d="M98.7018 203.38C98.0227 204.559 96.7598 205.176 95.8842 204.749C95.0087 204.329 94.8515 203.027 95.5363 201.848C96.2154 200.67 97.4782 200.053 98.3538 200.479C99.2294 200.9 99.3866 202.202 98.7018 203.38Z" stroke="white" stroke-width="0.5" stroke-linecap="round" stroke-linejoin="round"/>
<path d="M158.879 116.429L151.764 112.057L97.6311 200.092L104.746 204.465L158.879 116.429Z" fill="white"/>
<path d="M160.926 114.222L152.802 109.229L151.256 111.744L159.38 116.736L160.926 114.222Z" fill="#2E2E2E"/>
<path d="M146.436 137.798L138.312 132.806L136.766 135.32L144.89 140.312L146.436 137.798Z" fill="#2E2E2E"/>
<path d="M131.285 162.428L123.162 157.435L121.616 159.949L129.739 164.942L131.285 162.428Z" fill="#2E2E2E"/>
<path d="M105.351 204.6L97.2271 199.608L95.681 202.122L103.805 207.115L105.351 204.6Z" fill="#2E2E2E"/>
<path d="M144.89 140.304L136.766 135.312L123.16 157.439L131.284 162.432L144.89 140.304Z" fill="#17E217"/>
<path d="M137.972 136.049L136.771 135.311L123.165 157.438L124.366 158.176L137.972 136.049Z" fill="white"/>
<path d="M151.916 112.8C156.035 115.236 157.551 116.245 158.6 116.885L145.933 137.489L144.507 136.614C144.507 136.614 152.814 122.289 154.279 119.904L143.985 135.138C143.985 135.138 143.626 133.943 143.558 133.371C143.491 132.798 154.194 116.346 154.307 115.886C154.419 115.426 152.718 113.715 151.91 112.8H151.916Z" fill="#2E2E2E"/>
<path d="M125.923 162.054L124.918 161.437L100.184 201.662L101.188 202.279L125.923 162.054Z" fill="#2E2E2E"/>
<path d="M102.462 203.066L126.956 163.238L129.235 164.635L104.741 204.463L103.602 203.762C103.602 203.762 125.968 168.204 126.356 167.379C126.737 166.549 126.698 165.595 126.698 165.595L102.878 203.318L102.468 203.066H102.462Z" fill="#2E2E2E"/>
<path d="M140.825 137.809C140.825 137.809 131.211 154.39 129.594 156.859L129.117 158.694L138.288 145.828C138.288 145.828 130.857 159.025 130.627 159.816C130.397 160.607 131.289 162.425 131.289 162.425L144.894 140.301L140.831 137.804L140.825 137.809Z" fill="#33FF33"/>
<path d="M152.982 109.658C152.982 109.658 160.217 114.17 160.447 114.349C160.548 114.428 159.33 116.375 159.33 116.375C159.33 116.375 157.955 115.421 157.753 115.073C157.546 114.725 157.966 113.294 157.966 113.294C157.966 113.294 153.308 110.298 152.988 109.658H152.982Z" fill="white"/>
<path d="M139.77 133.702L151.893 114.602L141.05 134.487L139.77 133.702Z" fill="#2E2E2E"/>
<path d="M143.739 121.851C143.739 123.517 143.469 125.122 142.975 126.603C142.538 127.916 141.914 129.14 141.151 130.234C139.602 132.45 137.452 134.134 134.972 134.986H134.966C133.782 135.396 132.53 135.615 131.222 135.615C124.308 135.615 118.706 129.454 118.706 121.851C118.706 114.248 124.308 108.087 131.222 108.087C132.132 108.087 133.013 108.194 133.866 108.396C139.507 109.731 143.733 115.247 143.733 121.851H143.739Z" fill="#17E217"/>
<path d="M141.061 121.851C141.061 125.498 139.821 128.82 137.8 131.283C135.617 133.949 132.513 135.61 129.072 135.61C126.294 135.61 123.735 134.527 121.703 132.703V132.697C118.891 130.178 117.089 126.256 117.089 121.846C117.089 114.243 122.461 108.082 129.078 108.082C135.695 108.082 141.067 114.243 141.067 121.846L141.061 121.851Z" fill="#2E2E2E"/>
<path d="M143.738 121.851C143.738 123.518 143.469 125.123 142.975 126.604C142.357 125.201 141.566 123.961 141.566 123.961C141.701 123.17 141.701 122.671 141.701 122.671L143.081 123.148C142.576 122.261 141.499 121.436 141.499 121.436C141.847 112.745 134.073 108.508 133.871 108.396C139.512 109.731 143.738 115.247 143.738 121.851Z" fill="#33FF33"/>
<path d="M141.151 130.234C139.602 132.451 137.452 134.134 134.971 134.987C135.134 134.886 137.733 133.281 139.523 130.088C139.523 130.088 140.225 130.24 141.151 130.234Z" fill="#33FF33"/>
<path d="M140.617 121.851C140.617 125.498 139.377 128.82 137.356 131.283C135.173 133.949 132.069 135.61 128.629 135.61C125.85 135.61 123.291 134.527 121.259 132.703V132.697C118.447 130.178 116.646 126.256 116.646 121.846C116.646 114.243 122.017 108.082 128.634 108.082C135.252 108.082 140.623 114.243 140.623 121.846L140.617 121.851Z" fill="white"/>
<path d="M135.151 110.921C135.151 110.921 132.58 113.294 132.647 113.62C132.715 113.951 136.599 117.704 136.402 124.286C136.402 124.286 137.059 123.826 137.194 123.164C137.323 122.508 136.93 118.423 135.875 116.38C135.875 116.38 137.985 115.247 138.507 115.129C138.507 115.129 137.474 112.879 135.145 110.915L135.151 110.921Z" fill="#2E2E2E"/>
<path d="M137.356 131.289C135.173 133.954 132.069 135.615 128.629 135.615C125.85 135.615 123.291 134.532 121.259 132.709V132.703C121.259 132.703 126.922 135.963 131.929 132.703C132.917 132.058 134.763 132.748 137.362 131.289H137.356Z" fill="#989898"/>
<path d="M132.058 113.076C131.934 113.272 131.598 112.335 131.598 112.172C131.598 112.009 133.18 109.541 133.18 109.541C133.18 109.541 134.135 110.169 134.303 110.427C134.303 110.427 132.49 112.402 132.064 113.076H132.058Z" fill="#989898"/>
<path d="M125.626 133.567C130.589 133.567 134.612 128.688 134.612 122.67C134.612 116.652 130.589 111.773 125.626 111.773C120.663 111.773 116.64 116.652 116.64 122.67C116.64 128.688 120.663 133.567 125.626 133.567Z" fill="#2E2E2E"/>
<path d="M126.625 133.567C131.588 133.567 135.611 128.688 135.611 122.67C135.611 116.652 131.588 111.773 126.625 111.773C121.662 111.773 117.639 116.652 117.639 122.67C117.639 128.688 121.662 133.567 126.625 133.567Z" fill="#989898"/>
<path d="M126.698 113.911C130.621 113.911 133.832 118.81 134.084 124.999C134.096 124.74 134.101 124.488 134.101 124.224C134.101 117.923 131.076 112.817 127.338 112.817C125.665 112.817 124.139 113.844 122.96 115.538C124.06 114.506 125.334 113.911 126.704 113.911H126.698Z" fill="#2E2E2E"/>
<path d="M122.472 127.619C122.528 126.665 125.026 125.105 125.637 124.617C126.244 124.129 133.978 125.599 134.101 126.087C134.225 126.575 131.166 132.523 127.198 132.523C123.23 132.523 122.421 128.433 122.472 127.619Z" fill="#2E2E2E"/>
<path d="M121.259 118.692C121.259 118.692 123.207 116.06 125.48 115.735C125.48 115.735 126.614 121.705 126.535 122.193C126.457 122.681 125.564 123.663 125.154 123.501C124.745 123.338 121.748 119.775 121.259 118.692Z" fill="white"/>
<path d="M128.135 115.46C128.135 115.46 127.366 122.799 127.265 123.225C127.164 123.652 127.45 123.568 127.703 123.242C127.955 122.917 129.538 116.049 129.538 116.049C129.538 116.049 128.87 115.538 128.141 115.454L128.135 115.46Z" fill="white"/>
<path d="M119.144 126.396L124.15 123.518C124.15 123.518 120.547 128.018 120.283 128.152C120.019 128.281 119.318 126.968 119.144 126.396Z" fill="#2E2E2E"/>
<path d="M118.969 125.52C118.969 125.52 122.309 124.118 123.538 123.147C123.538 123.147 119.368 124.64 118.969 125.52Z" fill="#2E2E2E"/>
<path d="M155.329 135.205C154.953 136.984 153.998 138.471 152.752 139.459C151.405 140.53 149.716 141.013 148.027 140.659C146.663 140.368 145.523 139.576 144.715 138.477C143.598 136.956 143.121 134.857 143.576 132.714C144.361 129.016 147.634 126.576 150.878 127.26C154.122 127.95 156.12 131.508 155.329 135.211V135.205Z" fill="white"/>
<path d="M152.825 134.869C152.18 137.893 149.637 139.919 147.14 139.386C144.642 138.858 143.144 135.974 143.783 132.95C144.429 129.925 146.971 127.9 149.469 128.433C151.967 128.96 153.465 131.844 152.825 134.869Z" fill="#2E2E2E"/>
<path d="M153.409 134.992C152.763 138.017 150.221 140.042 147.723 139.509C145.226 138.982 143.727 136.098 144.367 133.073C145.012 130.049 147.555 128.023 150.053 128.556C152.55 129.084 154.049 131.968 153.409 134.992Z" fill="#E74514"/>
<path d="M149.935 128.972C149.862 128.949 149.789 128.932 149.716 128.916C151.641 129.69 152.517 132.546 151.669 135.475C151.641 135.581 151.607 135.682 151.574 135.783C151.815 135.379 152.011 134.936 152.152 134.454C152.865 132.002 151.871 129.55 149.935 128.972Z" fill="white"/>
<path d="M145.175 132.798C145.175 132.798 146.393 132.49 146.837 132.585C147.106 132.641 146.781 135.239 148.453 136.058C149.705 136.67 151.535 136.092 151.535 136.092C151.535 136.092 150.957 139.274 147.735 138.398C144.513 137.523 144.614 133.601 145.17 132.798H145.175Z" fill="#2E2E2E"/>
<path d="M149.121 130.105C149.121 130.105 146.472 133.898 147.297 137.287C147.297 137.287 148.318 133.028 149.121 130.105Z" fill="#2E2E2E"/>
<path d="M150.406 130.795C150.406 130.795 147.807 134.358 148.666 137.579C148.666 137.579 149.637 133.556 150.406 130.795Z" fill="#2E2E2E"/>
<path d="M151.596 131.508C151.596 131.508 149.076 134.689 149.997 137.624C149.997 137.624 150.883 133.994 151.596 131.508Z" fill="#2E2E2E"/>
<path d="M150.417 128.164C150.417 128.164 154.481 129.791 153.751 134.65C153.751 134.65 153.998 134.465 154.47 134.201C154.941 133.937 155.402 133.859 155.306 133.842C155.211 133.825 155.609 128.506 150.417 128.164Z" fill="#989898"/>
<path d="M148.077 140.126C148.077 140.126 149.637 140.081 150.266 139.312C150.266 139.312 150.457 139.913 150.934 140.092C150.934 140.092 149.43 140.553 148.077 140.126Z" fill="#2E2E2E"/>
<path d="M267.891 194.671L256.031 225.179L259.079 226.699L276.703 199.183" stroke="white" stroke-width="0.5" stroke-linecap="round" stroke-linejoin="round"/>
<path d="M272.634 189.251L241.966 177.782L240.49 180.846L268.233 198.122" stroke="white" stroke-width="0.5" stroke-linecap="round" stroke-linejoin="round"/>
<path d="M269.188 190.94L239.154 203.974L240.215 207.206L272.179 200.378" stroke="white" stroke-width="0.5" stroke-linecap="round" stroke-linejoin="round"/>
<path d="M268.003 193.42L246.86 218.356L248.92 220.393L273.913 199.402" stroke="white" stroke-width="0.5" stroke-linecap="round" stroke-linejoin="round"/>
<path d="M270.136 190.155L237.549 192.848L237.566 195.743L270.08 198.566" stroke="white" stroke-width="0.5" stroke-linecap="round" stroke-linejoin="round"/>
<path d="M273.953 189.358L249.004 168.227L246.967 170.286L267.964 195.266" stroke="white" stroke-width="0.5" stroke-linecap="round" stroke-linejoin="round"/>
<path d="M276.001 150.636C251.844 150.636 231.555 170.213 230.673 194.363C229.798 218.513 248.668 238.09 272.825 238.09C296.982 238.09 317.271 218.513 318.153 194.363C319.028 170.213 300.158 150.636 276.001 150.636ZM302.97 194.363C302.37 210.865 288.501 224.242 271.994 224.242C255.487 224.242 242.589 210.865 243.19 194.363C243.79 177.861 257.659 164.484 274.166 164.484C290.673 164.484 303.571 177.861 302.97 194.363Z" fill="#2E2E2E"/>
<path d="M275.316 156.685C256.059 156.685 239.878 173.551 239.176 194.363C238.475 215.174 253.522 232.041 272.785 232.041C292.048 232.041 308.224 215.174 308.925 194.363C309.627 173.551 294.579 156.685 275.316 156.685Z" stroke="white" stroke-width="0.5" stroke-linecap="round" stroke-linejoin="round"/>
<path d="M282.303 205.025C288.405 199.034 288.667 189.409 282.887 183.525C277.108 177.641 267.476 177.728 261.374 183.719C255.272 189.709 255.01 199.335 260.79 205.219C266.569 211.102 276.201 211.016 282.303 205.025Z" fill="#2E2E2E"/>
<path d="M283.877 205.02C289.979 199.03 290.241 189.404 284.462 183.52C278.682 177.636 269.05 177.723 262.948 183.714C256.846 189.704 256.585 199.33 262.364 205.214C268.143 211.097 277.775 211.011 283.877 205.02Z" fill="#989898"/>
<path d="M181.287 199.334C189.843 199.334 196.778 192.401 196.778 183.848C196.778 175.295 189.843 168.361 181.287 168.361C172.732 168.361 165.796 175.295 165.796 183.848C165.796 192.401 172.732 199.334 181.287 199.334Z" fill="#989898"/>
<path d="M185.211 199.334C193.766 199.334 200.702 192.401 200.702 183.848C200.702 175.295 193.766 168.361 185.211 168.361C176.655 168.361 169.72 175.295 169.72 183.848C169.72 192.401 176.655 199.334 185.211 199.334Z" stroke="white" stroke-width="0.5" stroke-linecap="round" stroke-linejoin="round"/>
<path d="M185.211 187.77C187.378 187.77 189.134 186.014 189.134 183.848C189.134 181.682 187.378 179.926 185.211 179.926C183.044 179.926 181.288 181.682 181.288 183.848C181.288 186.014 183.044 187.77 185.211 187.77Z" fill="#2E2E2E"/>
<path d="M186.541 178.298C186.541 178.298 189.892 179.426 190.251 182.31L193.506 179.926C193.506 179.926 192.563 173.916 188.893 171.458L186.541 178.298Z" fill="white"/>
<path d="M185.211 186.008C186.404 186.008 187.372 185.041 187.372 183.848C187.372 182.655 186.404 181.688 185.211 181.688C184.017 181.688 183.05 182.655 183.05 183.848C183.05 185.041 184.017 186.008 185.211 186.008Z" stroke="white" stroke-width="0.5" stroke-linecap="round" stroke-linejoin="round"/>
<path d="M172.032 183.848C172.032 183.848 172.823 186.104 173.744 187.159C174.664 188.214 178.616 187.591 179.867 187.77C181.119 187.95 182.578 190.907 185.211 190.946C187.843 190.98 193.315 190.542 194.96 186.014C194.96 186.014 193.618 197.567 183.499 197.567C173.379 197.567 171.246 186.205 172.038 183.854L172.032 183.848Z" fill="#2E2E2E"/>
<path d="M176.601 182.316C176.601 182.664 176.32 182.939 175.972 182.939C175.624 182.939 175.349 182.658 175.349 182.316C175.349 181.974 175.63 181.693 175.972 181.693C176.315 181.693 176.601 181.974 176.601 182.316Z" fill="#2E2E2E"/>
<path d="M179.879 176.357C179.879 176.705 179.598 176.986 179.256 176.986C178.913 176.986 178.633 176.705 178.633 176.357C178.633 176.009 178.913 175.734 179.256 175.734C179.598 175.734 179.879 176.015 179.879 176.357Z" fill="#2E2E2E"/>
<path d="M185.211 174.427C185.211 174.775 184.93 175.055 184.588 175.055C184.245 175.055 183.965 174.775 183.965 174.427C183.965 174.079 184.245 173.798 184.588 173.798C184.93 173.798 185.211 174.079 185.211 174.427Z" fill="#2E2E2E"/>
<path d="M169.72 193.219L171.437 191.967C171.437 191.967 173.744 196.378 177.763 198.095C177.763 198.095 173.665 197.5 169.72 193.219Z" fill="#2E2E2E"/>
<path d="M190.026 149.811H154.47L154.762 151.348H190.312L190.026 149.811Z" fill="#989898"/>
<path d="M190.857 153.133H155.306L155.592 154.676H191.149L190.857 153.133Z" fill="#989898"/>
<path d="M191.693 156.46H156.137L156.429 157.997H191.979L191.693 156.46Z" fill="#989898"/>
<path d="M192.524 159.782H156.973L157.265 161.325H192.816L192.524 159.782Z" fill="#989898"/>
<path d="M213.526 157.863C213.852 157.863 214.116 157.599 214.116 157.274C214.116 156.948 213.852 156.685 213.526 156.685C213.201 156.685 212.937 156.948 212.937 157.274C212.937 157.599 213.201 157.863 213.526 157.863Z" fill="white"/>
<path d="M218.09 171.47C218.415 171.47 218.679 171.206 218.679 170.881C218.679 170.555 218.415 170.292 218.09 170.292C217.764 170.292 217.5 170.555 217.5 170.881C217.5 171.206 217.764 171.47 218.09 171.47Z" fill="white"/>
<path d="M287.451 217.054H234.439C232.806 217.054 231.481 215.73 231.481 214.097V208.127C231.481 206.494 232.806 205.17 234.439 205.17H287.451C294.372 205.17 301.236 206.416 307.719 208.845C309.818 209.631 309.818 212.599 307.719 213.385C301.236 215.814 294.372 217.06 287.451 217.06V217.054Z" fill="#CFDED6"/>
<path d="M235.786 207.386H293.423C297.503 207.386 301.573 207.785 305.563 208.564C300.046 206.859 294.293 205.983 288.506 205.983H235.494C233.861 205.983 232.537 207.308 232.537 208.94V210.635C232.537 208.839 233.99 207.386 235.786 207.386Z" fill="white"/>
<path d="M248.202 205.17C248.202 205.17 245.917 212.083 248.202 217.06" stroke="#2E2E2E" stroke-width="0.5" stroke-linecap="round" stroke-linejoin="round"/>
<path d="M189.442 205.17H185.3V215.522H189.442V205.17Z" fill="#2E2E2E"/>
<path d="M225.695 205.17H221.553V215.522H225.695V205.17Z" fill="#2E2E2E"/>
<path d="M201.47 187.849L202.351 186.895H222.024L221.171 187.849H201.47Z" fill="white"/>
<path d="M200.999 190.172L201.875 189.218H221.553L220.7 190.172H200.999Z" fill="white"/>
<path d="M199.562 192.495L200.174 191.541H219.852L219.263 192.495H199.562Z" fill="white"/>
<path d="M197.317 195.508L198.198 194.554H217.871L217.017 195.508H197.317Z" fill="white"/>
<path d="M163.209 118.574C161.127 118.574 159.067 118.024 157.215 116.941L133.737 103.222C130.627 101.404 128.528 98.318 127.978 94.7606L124.448 71.8057C124.212 70.2738 123.308 68.944 121.967 68.1585L115.428 64.3373C114.637 63.8716 114.367 62.856 114.833 62.0592C115.299 61.2681 116.315 60.9987 117.112 61.4644L123.651 65.2856C125.862 66.5761 127.355 68.7701 127.742 71.3007L131.273 94.2556C131.666 96.8199 133.181 99.0419 135.42 100.349L158.898 114.068C161.138 115.376 163.815 115.606 166.245 114.686L187.983 106.493C190.38 105.59 193.023 105.814 195.235 107.105L201.774 110.926C202.571 111.392 202.834 112.407 202.374 113.204C201.908 113.995 200.892 114.265 200.095 113.799L193.557 109.978C192.215 109.192 190.616 109.058 189.162 109.608L167.424 117.8C166.06 118.316 164.634 118.568 163.22 118.568L163.209 118.574Z" fill="#2E2E2E"/>
<path d="M192.855 110.68C191.705 110.433 190.778 112.004 190.778 112.004C190.778 112.004 188.657 112.284 186.024 110.567L185.082 111.465L190.61 115.118L195.712 115.264L196.812 112.548C196.812 112.548 194.011 110.921 192.855 110.674V110.68Z" fill="#989898"/>
<path d="M192.283 111.819C192.487 111.819 192.653 111.661 192.653 111.465C192.653 111.27 192.487 111.112 192.283 111.112C192.078 111.112 191.912 111.27 191.912 111.465C191.912 111.661 192.078 111.819 192.283 111.819Z" fill="#2E2E2E"/>
<path d="M197.362 113.047C197.362 113.047 196.846 115.146 197.508 116.448C198.176 117.75 210.911 127.199 212.415 130.391C213.925 133.584 211.966 134.039 211.124 133.999C210.288 133.96 208.615 132.333 210.613 130.986C210.613 130.986 198.237 119.377 190.599 115.118C190.599 115.118 192.125 113.423 192.726 113.249C193.326 113.076 195.583 114.237 196.806 112.554L197.362 113.047Z" fill="white"/>
<path d="M203.847 111.494L196.29 106.975L194.045 110.726L201.603 115.245L203.847 111.494Z" fill="white"/>
<path d="M221.995 121.238L202.521 109.592C201.617 109.051 200.445 109.345 199.904 110.249L198.639 112.363C198.098 113.268 198.393 114.439 199.297 114.98L218.77 126.627C219.675 127.167 220.847 126.873 221.388 125.969L222.653 123.855C223.194 122.951 222.899 121.779 221.995 121.238Z" fill="#2E2E2E"/>
<path d="M220.671 121.049L202.778 110.348C202.043 109.911 201.128 110.023 200.522 110.567L219.768 122.081C220.093 121.638 220.408 121.284 220.671 121.054V121.049Z" fill="#989898"/>
<path d="M195.965 112.834L193.686 111.1C193.068 110.629 192.9 109.765 193.299 109.097L194.533 107.032C194.932 106.364 195.774 106.101 196.481 106.426L199.085 107.61C199.489 107.795 199.641 108.283 199.411 108.665L197.037 112.632C196.812 113.008 196.307 113.109 195.953 112.84L195.965 112.834Z" fill="#2E2E2E"/>
<path d="M221.39 124.51C220.773 125.548 220.082 126.272 219.852 126.138C219.622 125.997 219.936 125.049 220.559 124.011C221.177 122.973 221.867 122.249 222.097 122.384C222.327 122.524 222.013 123.472 221.39 124.51Z" fill="white"/>
<path d="M218.758 126.632C218.421 126.43 218.881 125.049 219.779 123.545C220.677 122.042 221.676 120.987 222.013 121.183" stroke="white" stroke-width="0.5" stroke-linecap="round" stroke-linejoin="round"/>
<path d="M194.926 107.088C195.173 106.841 195.79 106.628 196.161 106.718C196.531 106.807 198.905 107.868 199.046 108.115C199.186 108.362 198.715 109.159 198.715 109.159L194.92 107.088H194.926Z" fill="#989898"/>
<path d="M197.362 205.479C197.362 205.479 215.356 236.968 216.473 238.09C217.59 239.213 224.392 241.76 224.392 241.76C224.207 241.76 227.148 241.76 229.253 241.76C229.91 241.76 229.343 239.656 226.312 239.83C224.454 239.936 219.543 237.271 218.639 236.822C217.809 236.407 202.598 205.176 202.598 205.176L197.362 205.484V205.479Z" fill="#2E2E2E"/>
<path d="M198.058 205.434L216.17 236.749V235.633L199.562 205.35L198.058 205.434Z" fill="white"/>
</g>
</g>
<path d="M0.5 40C0.5 18.1848 18.1848 0.5 40 0.5H217C238.815 0.5 256.5 18.1848 256.5 40V217C256.5 238.815 238.815 256.5 217 256.5H40C18.1848 256.5 0.5 238.815 0.5 217V40Z" stroke="url(#paint1_linear_231_26794)"/>
<defs>
<linearGradient id="paint0_linear_231_26794" x1="17.1811" y1="30.4915" x2="277.193" y2="206.566" gradientUnits="userSpaceOnUse">
<stop stop-color="#161616"/>
<stop offset="1" stop-color="#0C0C0C"/>
</linearGradient>
<linearGradient id="paint1_linear_231_26794" x1="17.539" y1="10.0186" x2="132.649" y2="138.123" gradientUnits="userSpaceOnUse">
<stop stop-color="white"/>
<stop offset="1"/>
</linearGradient>
<clipPath id="clip0_231_26794">
<path d="M0 40C0 17.9086 17.9086 0 40 0H217C239.091 0 257 17.9086 257 40V217C257 239.091 239.091 257 217 257H40C17.9086 257 0 239.091 0 217V40Z" fill="white"/>
</clipPath>
<clipPath id="clip1_231_26794">
<rect width="262" height="192" fill="white" transform="translate(57 51)"/>
</clipPath>
</defs>
</svg>
