<svg width="257" height="257" viewBox="0 0 257 257" fill="none" xmlns="http://www.w3.org/2000/svg">
<path d="M0.5 40C0.5 18.1848 18.1848 0.5 40 0.5H217C238.815 0.5 256.5 18.1848 256.5 40V217C256.5 238.815 238.815 256.5 217 256.5H40C18.1848 256.5 0.5 238.815 0.5 217V40Z" fill="url(#paint0_linear_231_27226)"/>
<path d="M0.5 40C0.5 18.1848 18.1848 0.5 40 0.5H217C238.815 0.5 256.5 18.1848 256.5 40V217C256.5 238.815 238.815 256.5 217 256.5H40C18.1848 256.5 0.5 238.815 0.5 217V40Z" stroke="url(#paint1_linear_231_27226)"/>
<g filter="url(#filter0_i_231_27226)">
<path d="M127.259 170.307C128.163 171.743 128.652 173.401 128.681 175.089C128.711 177.205 128.015 179.248 126.711 180.907H145.869C148.803 180.907 151.188 178.523 151.188 175.592C151.188 172.661 148.803 170.277 145.869 170.277H127.259V170.307ZM181.948 137.397C180.54 138.359 179.118 139.277 177.636 140.136C159.174 150.765 136.46 150.765 117.998 140.136C116.517 139.277 115.079 138.374 113.687 137.397C116.68 142.505 120.754 146.872 125.659 150.203C132.193 154.629 139.912 156.998 147.825 156.998C155.737 156.998 163.442 154.629 169.991 150.203C174.88 146.872 178.97 142.505 181.963 137.397H181.948ZM181.948 97.6776C178.955 92.5702 174.865 88.1882 169.976 84.8721C160.923 78.7283 149.706 76.6261 139.038 79.054C128.37 81.4819 119.184 88.2326 113.672 97.6776C115.065 96.7006 116.502 95.7827 117.984 94.9389C136.445 84.3095 159.16 84.3095 177.621 94.9389C179.103 95.7975 180.525 96.7154 181.933 97.6776H181.948ZM166.138 99.2321C160.449 93.5473 152.418 90.8233 144.432 91.8744C136.445 92.9255 129.407 97.6184 125.377 104.591C121.347 111.564 120.799 120.002 123.881 127.434C126.963 134.866 133.334 140.447 141.113 142.519C148.891 144.592 157.204 142.949 163.59 138.049C169.976 133.148 173.724 125.554 173.724 117.5C173.724 110.631 170.998 104.058 166.138 99.2173V99.2321ZM137.601 144.355C130.296 141.572 124.459 135.946 121.406 128.766C118.354 121.586 118.339 113.474 121.406 106.294C124.459 99.1136 130.296 93.4881 137.601 90.7049C131.2 91.8744 125.051 94.1246 119.421 97.3816C110.99 102.252 103.937 109.18 98.9439 117.53C103.937 125.88 110.99 132.823 119.421 137.693C125.051 140.935 131.2 143.186 137.601 144.355ZM158.063 90.7049C165.353 93.4881 171.206 99.1136 174.258 106.294C177.31 113.474 177.31 121.586 174.258 128.766C171.206 135.946 165.353 141.572 158.063 144.355C164.464 143.186 170.613 140.935 176.243 137.693C184.674 132.823 191.712 125.88 196.72 117.53C191.727 109.18 184.674 102.237 176.243 97.3816C170.613 94.1246 164.464 91.8744 158.063 90.7049ZM133.763 117.53C133.763 118.315 133.126 118.951 132.356 118.951C131.585 118.951 130.948 118.315 130.948 117.53C130.948 113.059 132.726 108.766 135.897 105.613C139.068 102.445 143.365 100.668 147.839 100.668C148.61 100.668 149.247 101.305 149.247 102.074C149.247 102.844 148.61 103.481 147.839 103.481C140.075 103.481 133.778 109.773 133.778 117.53H133.763ZM149.217 69.9939C149.217 70.7785 148.58 71.4003 147.81 71.4003C147.039 71.4003 146.402 70.7637 146.402 69.9939V64.0426C146.402 63.2728 147.039 62.6362 147.81 62.6362C148.58 62.6362 149.217 63.2728 149.217 64.0426V69.9939ZM189.712 94.9833C189.03 95.3682 188.171 95.1461 187.786 94.4651C187.4 93.7841 187.623 92.9255 188.304 92.5406L193.475 89.5502C194.157 89.1653 195.016 89.4021 195.401 90.0683C195.787 90.7493 195.55 91.6079 194.883 91.9928L189.712 94.9685V94.9833ZM172.806 77.0703C172.421 77.7513 171.561 77.9733 170.88 77.5884C170.213 77.2035 169.976 76.3449 170.361 75.6639L173.354 70.4972C173.754 69.8162 174.613 69.5942 175.28 69.9791C175.947 70.3788 176.184 71.2374 175.784 71.9036L172.791 77.0555L172.806 77.0703ZM107.315 92.5406C107.997 92.9255 108.219 93.7841 107.834 94.4651C107.449 95.1461 106.589 95.3682 105.908 94.9833L100.737 92.0077C100.07 91.6227 99.8329 90.7641 100.218 90.0831C100.603 89.4169 101.463 89.1801 102.144 89.565L107.315 92.5406ZM125.244 75.6639C125.629 76.3301 125.407 77.2035 124.725 77.5884C124.044 77.9733 123.184 77.7513 122.799 77.0703L119.806 71.9184C119.406 71.2522 119.643 70.3788 120.31 69.9939C120.991 69.609 121.851 69.831 122.236 70.512L125.214 75.6787L125.244 75.6639ZM92.6172 161.809C92.0541 161.261 92.0541 160.373 92.5875 159.825C93.1357 159.263 94.0248 159.263 94.573 159.796L115.005 179.811C116.22 180.981 117.85 181.632 119.539 181.588C120.369 181.588 121.199 181.41 121.969 181.084C122.029 181.055 122.088 181.025 122.147 180.995C122.843 180.67 123.481 180.226 124.014 179.678L124.044 179.648C125.229 178.434 125.866 176.806 125.836 175.118C125.807 173.416 125.125 171.802 123.91 170.603L102.233 149.314C100.663 147.701 98.4846 146.813 96.2325 146.872H74.8814V179.012H79.282C82.3046 178.982 85.2087 180.181 87.3275 182.343L96.8399 191.847C97.6252 192.646 98.5587 193.283 99.5959 193.727C100.648 194.156 101.759 194.364 102.885 194.349H172.761C175.695 194.349 178.081 191.965 178.081 189.034C178.081 186.103 175.695 183.719 172.761 183.719H122.918C121.866 184.149 120.725 184.371 119.584 184.386C117.154 184.43 114.798 183.497 113.064 181.795C106.234 175.133 99.4181 168.471 92.6172 161.78V161.809ZM72.0662 182.994V143.526C72.0662 143.274 71.9625 143.038 71.7847 142.86C71.6069 142.682 71.3698 142.593 71.1179 142.593H60.6424C60.1239 142.593 59.709 143.023 59.709 143.526V182.994C59.709 183.512 60.1239 183.927 60.6424 183.927H71.1328C71.3846 183.927 71.6217 183.823 71.7995 183.66C71.9773 183.482 72.081 183.246 72.081 182.994H72.0662Z" fill="url(#paint2_linear_231_27226)"/>
</g>
<defs>
<filter id="filter0_i_231_27226" x="59.709" y="62.6362" width="137.011" height="134.055" filterUnits="userSpaceOnUse" color-interpolation-filters="sRGB">
<feFlood flood-opacity="0" result="BackgroundImageFix"/>
<feBlend mode="normal" in="SourceGraphic" in2="BackgroundImageFix" result="shape"/>
<feColorMatrix in="SourceAlpha" type="matrix" values="0 0 0 0 0 0 0 0 0 0 0 0 0 0 0 0 0 0 127 0" result="hardAlpha"/>
<feOffset dy="2.34182"/>
<feGaussianBlur stdDeviation="2.92727"/>
<feComposite in2="hardAlpha" operator="arithmetic" k2="-1" k3="1"/>
<feColorMatrix type="matrix" values="0 0 0 0 1 0 0 0 0 1 0 0 0 0 1 0 0 0 0.35 0"/>
<feBlend mode="normal" in2="shape" result="effect1_innerShadow_231_27226"/>
</filter>
<linearGradient id="paint0_linear_231_27226" x1="17.1811" y1="30.4915" x2="277.193" y2="206.566" gradientUnits="userSpaceOnUse">
<stop stop-color="#161616"/>
<stop offset="1" stop-color="#0C0C0C"/>
</linearGradient>
<linearGradient id="paint1_linear_231_27226" x1="17.539" y1="10.0186" x2="132.649" y2="138.123" gradientUnits="userSpaceOnUse">
<stop stop-color="white"/>
<stop offset="1"/>
</linearGradient>
<linearGradient id="paint2_linear_231_27226" x1="85.7104" y1="75.9523" x2="188.192" y2="197.302" gradientUnits="userSpaceOnUse">
<stop stop-color="#00FF00"/>
<stop offset="1" stop-color="#009900"/>
</linearGradient>
</defs>
</svg>
