<svg width="788" height="579" viewBox="0 0 788 579" fill="none" xmlns="http://www.w3.org/2000/svg">
<g clip-path="url(#clip0_470_7374)">
<path d="M659.738 36.0996H543.754V579H659.738V36.0996Z" fill="#414141"/>
<path d="M659.752 36.0996H601.76V577.494H659.752V36.0996Z" fill="#353434"/>
<path d="M597.969 0H557.008V36.0995H597.969V0Z" fill="#414141"/>
<path d="M597.955 0H588.199V36.0995H597.955V0Z" fill="#353434"/>
<path d="M534.096 36.0996V33.9941H663.139V36.0996" fill="#2D2D2D"/>
<path d="M576.464 51.8555H566.652V72.5614H576.464V51.8555Z" fill="#595959"/>
<path d="M601.76 80.6907C601.76 80.9138 588.77 81.0811 572.771 81.0811C556.771 81.0811 543.768 80.8999 543.768 80.6907C543.768 80.4816 556.743 80.3003 572.771 80.3003C588.798 80.3003 601.76 80.4816 601.76 80.6907Z" fill="#2D2D2D"/>
<path d="M634.972 51.8555H625.16V72.5614H634.972V51.8555Z" fill="#2D2D2D"/>
<path d="M660.254 80.6902C660.254 80.9133 647.264 81.0806 631.265 81.0806C615.265 81.0806 602.262 80.8994 602.262 80.6902C602.262 80.4811 615.237 80.2998 631.265 80.2998C647.292 80.2998 660.254 80.4811 660.254 80.6902Z" fill="#2D2D2D"/>
<path d="M634.972 92.9746H625.16V113.681H634.972V92.9746Z" fill="#2D2D2D"/>
<path d="M660.254 121.809C660.254 122.032 647.264 122.2 631.265 122.2C615.265 122.2 602.262 122.019 602.262 121.809C602.262 121.6 615.237 121.419 631.265 121.419C647.292 121.419 660.254 121.6 660.254 121.809Z" fill="#2D2D2D"/>
<path d="M634.972 135.335H625.16V156.041H634.972V135.335Z" fill="#2D2D2D"/>
<path d="M660.254 164.17C660.254 164.393 647.264 164.56 631.265 164.56C615.265 164.56 602.262 164.379 602.262 164.17C602.262 163.961 615.237 163.779 631.265 163.779C647.292 163.779 660.254 163.961 660.254 164.17Z" fill="#2D2D2D"/>
<path d="M634.972 177.695H625.16V198.401H634.972V177.695Z" fill="#2D2D2D"/>
<path d="M660.254 206.53C660.254 206.753 647.264 206.92 631.265 206.92C615.265 206.92 602.262 206.739 602.262 206.53C602.262 206.32 615.237 206.139 631.265 206.139C647.292 206.139 660.254 206.32 660.254 206.53Z" fill="#2D2D2D"/>
<path d="M634.972 218.842H625.16V239.548H634.972V218.842Z" fill="#2D2D2D"/>
<path d="M660.254 247.677C660.254 247.9 647.264 248.067 631.265 248.067C615.265 248.067 602.262 247.886 602.262 247.677C602.262 247.467 615.237 247.286 631.265 247.286C647.292 247.286 660.254 247.467 660.254 247.677Z" fill="#2D2D2D"/>
<path d="M634.972 260.156H625.16V280.862H634.972V260.156Z" fill="#2D2D2D"/>
<path d="M634.972 302.014H625.16V322.72H634.972V302.014Z" fill="#2D2D2D"/>
<path d="M660.254 289.005C660.254 289.228 647.264 289.396 631.265 289.396C615.265 289.396 602.262 289.214 602.262 289.005C602.262 288.796 615.237 288.615 631.265 288.615C647.292 288.615 660.254 288.796 660.254 289.005Z" fill="#2D2D2D"/>
<path d="M576.464 93.6021H566.652V114.308H576.464V93.6021Z" fill="#595959"/>
<path d="M601.76 122.437C601.76 122.66 588.77 122.828 572.771 122.828C556.771 122.828 543.768 122.646 543.768 122.437C543.768 122.228 556.743 122.047 572.771 122.047C588.798 122.047 601.76 122.228 601.76 122.437Z" fill="#2D2D2D"/>
<path d="M576.464 135.349H566.652V156.055H576.464V135.349Z" fill="#595959"/>
<path d="M601.76 164.183C601.76 164.406 588.77 164.574 572.771 164.574C556.771 164.574 543.768 164.393 543.768 164.183C543.768 163.974 556.743 163.793 572.771 163.793C588.798 163.793 601.76 163.974 601.76 164.183Z" fill="#2D2D2D"/>
<path d="M576.464 177.095H566.652V197.801H576.464V177.095Z" fill="#595959"/>
<path d="M601.76 205.93C601.76 206.153 588.77 206.32 572.771 206.32C556.771 206.32 543.768 206.139 543.768 205.93C543.768 205.721 556.743 205.54 572.771 205.54C588.798 205.54 601.76 205.721 601.76 205.93Z" fill="#2D2D2D"/>
<path d="M576.464 218.842H566.652V239.548H576.464V218.842Z" fill="#595959"/>
<path d="M601.76 247.677C601.76 247.9 588.77 248.067 572.771 248.067C556.771 248.067 543.768 247.886 543.768 247.677C543.768 247.467 556.743 247.286 572.771 247.286C588.798 247.286 601.76 247.467 601.76 247.677Z" fill="#2D2D2D"/>
<path d="M576.464 260.588H566.652V281.294H576.464V260.588Z" fill="#595959"/>
<path d="M601.76 289.437C601.76 289.66 588.77 289.828 572.771 289.828C556.771 289.828 543.768 289.646 543.768 289.437C543.768 289.228 556.743 289.047 572.771 289.047C588.798 289.047 601.76 289.228 601.76 289.437Z" fill="#2D2D2D"/>
<path d="M576.464 302.335H566.652V323.041H576.464V302.335Z" fill="#595959"/>
<path d="M224.656 35.0996H108.672V578H224.656V35.0996Z" fill="#414141"/>
<path d="M224.656 35.0996H166.664V576.494H224.656V35.0996Z" fill="#353434"/>
<path d="M162.873 -1H121.912V35.0995H162.873V-1Z" fill="#414141"/>
<path d="M162.859 -1H153.104V35.0995H162.859V-1Z" fill="#353434"/>
<path d="M99 35.0996V32.9941H228.043V35.0996" fill="#2D2D2D"/>
<path d="M141.368 50.8555H131.557V71.5614H141.368V50.8555Z" fill="#595959"/>
<path d="M166.664 79.6907C166.664 79.9138 153.675 80.0811 137.675 80.0811C121.675 80.0811 108.672 79.8999 108.672 79.6907C108.672 79.4816 121.647 79.3003 137.675 79.3003C153.702 79.3003 166.664 79.4816 166.664 79.6907Z" fill="#2D2D2D"/>
<path d="M199.876 50.8555H190.064V71.5614H199.876V50.8555Z" fill="#2D2D2D"/>
<path d="M225.158 79.6902C225.158 79.9133 212.169 80.0806 196.169 80.0806C180.169 80.0806 167.166 79.8994 167.166 79.6902C167.166 79.4811 180.141 79.2998 196.169 79.2998C212.197 79.2998 225.158 79.4811 225.158 79.6902Z" fill="#2D2D2D"/>
<path d="M199.876 91.9746H190.064V112.681H199.876V91.9746Z" fill="#2D2D2D"/>
<path d="M225.158 120.809C225.158 121.032 212.169 121.2 196.169 121.2C180.169 121.2 167.166 121.019 167.166 120.809C167.166 120.6 180.141 120.419 196.169 120.419C212.197 120.419 225.158 120.6 225.158 120.809Z" fill="#2D2D2D"/>
<path d="M199.876 134.335H190.064V155.041H199.876V134.335Z" fill="#2D2D2D"/>
<path d="M225.158 163.17C225.158 163.393 212.169 163.56 196.169 163.56C180.169 163.56 167.166 163.379 167.166 163.17C167.166 162.961 180.141 162.779 196.169 162.779C212.197 162.779 225.158 162.961 225.158 163.17Z" fill="#2D2D2D"/>
<path d="M199.876 176.695H190.064V197.401H199.876V176.695Z" fill="#2D2D2D"/>
<path d="M225.158 205.53C225.158 205.753 212.169 205.92 196.169 205.92C180.169 205.92 167.166 205.739 167.166 205.53C167.166 205.32 180.141 205.139 196.169 205.139C212.197 205.139 225.158 205.32 225.158 205.53Z" fill="#2D2D2D"/>
<path d="M199.876 217.842H190.064V238.548H199.876V217.842Z" fill="#2D2D2D"/>
<path d="M225.158 246.677C225.158 246.9 212.169 247.067 196.169 247.067C180.169 247.067 167.166 246.886 167.166 246.677C167.166 246.467 180.141 246.286 196.169 246.286C212.197 246.286 225.158 246.467 225.158 246.677Z" fill="#2D2D2D"/>
<path d="M199.876 259.156H190.064V279.862H199.876V259.156Z" fill="#2D2D2D"/>
<path d="M199.876 301.014H190.064V321.72H199.876V301.014Z" fill="#2D2D2D"/>
<path d="M225.158 288.005C225.158 288.228 212.169 288.396 196.169 288.396C180.169 288.396 167.166 288.214 167.166 288.005C167.166 287.796 180.141 287.615 196.169 287.615C212.197 287.615 225.158 287.796 225.158 288.005Z" fill="#2D2D2D"/>
<path d="M141.368 92.6021H131.557V113.308H141.368V92.6021Z" fill="#595959"/>
<path d="M166.664 121.437C166.664 121.66 153.675 121.828 137.675 121.828C121.675 121.828 108.672 121.646 108.672 121.437C108.672 121.228 121.647 121.047 137.675 121.047C153.702 121.047 166.664 121.228 166.664 121.437Z" fill="#2D2D2D"/>
<path d="M141.368 134.349H131.557V155.055H141.368V134.349Z" fill="#595959"/>
<path d="M166.664 163.183C166.664 163.406 153.675 163.574 137.675 163.574C121.675 163.574 108.672 163.393 108.672 163.183C108.672 162.974 121.647 162.793 137.675 162.793C153.702 162.793 166.664 162.974 166.664 163.183Z" fill="#2D2D2D"/>
<path d="M141.368 176.095H131.557V196.801H141.368V176.095Z" fill="#595959"/>
<path d="M166.664 204.93C166.664 205.153 153.675 205.32 137.675 205.32C121.675 205.32 108.672 205.139 108.672 204.93C108.672 204.721 121.647 204.54 137.675 204.54C153.702 204.54 166.664 204.721 166.664 204.93Z" fill="#2D2D2D"/>
<path d="M141.368 217.842H131.557V238.548H141.368V217.842Z" fill="#595959"/>
<path d="M166.664 246.677C166.664 246.9 153.675 247.067 137.675 247.067C121.675 247.067 108.672 246.886 108.672 246.677C108.672 246.467 121.647 246.286 137.675 246.286C153.702 246.286 166.664 246.467 166.664 246.677Z" fill="#2D2D2D"/>
<path d="M141.368 259.588H131.557V280.294H141.368V259.588Z" fill="#595959"/>
<path d="M166.664 288.437C166.664 288.66 153.675 288.828 137.675 288.828C121.675 288.828 108.672 288.646 108.672 288.437C108.672 288.228 121.647 288.047 137.675 288.047C153.702 288.047 166.664 288.228 166.664 288.437Z" fill="#2D2D2D"/>
<path d="M141.368 301.335H131.557V322.041H141.368V301.335Z" fill="#595959"/>
<path d="M199.876 348.018H190.064V368.724H199.876V348.018Z" fill="#2D2D2D"/>
<path d="M225.158 335.008C225.158 335.231 212.169 335.399 196.169 335.399C180.169 335.399 167.166 335.217 167.166 335.008C167.166 334.799 180.141 334.618 196.169 334.618C212.197 334.618 225.158 334.799 225.158 335.008Z" fill="#2D2D2D"/>
<path d="M166.664 335.44C166.664 335.663 153.675 335.831 137.675 335.831C121.675 335.831 108.672 335.649 108.672 335.44C108.672 335.231 121.647 335.05 137.675 335.05C153.702 335.05 166.664 335.231 166.664 335.44Z" fill="#2D2D2D"/>
<path d="M141.368 348.338H131.557V369.044H141.368V348.338Z" fill="#595959"/>
<path d="M199.876 395.021H190.064V415.726H199.876V395.021Z" fill="#2D2D2D"/>
<path d="M225.158 382.012C225.158 382.235 212.169 382.402 196.169 382.402C180.169 382.402 167.166 382.221 167.166 382.012C167.166 381.802 180.141 381.621 196.169 381.621C212.197 381.621 225.158 381.802 225.158 382.012Z" fill="#2D2D2D"/>
<path d="M166.664 382.444C166.664 382.667 153.675 382.834 137.675 382.834C121.675 382.834 108.672 382.653 108.672 382.444C108.672 382.234 121.647 382.053 137.675 382.053C153.702 382.053 166.664 382.234 166.664 382.444Z" fill="#2D2D2D"/>
<path d="M141.368 395.341H131.557V416.047H141.368V395.341Z" fill="#595959"/>
<path d="M199.876 442.024H190.064V462.73H199.876V442.024Z" fill="#2D2D2D"/>
<path d="M225.158 429.014C225.158 429.238 212.169 429.405 196.169 429.405C180.169 429.405 167.166 429.224 167.166 429.014C167.166 428.805 180.141 428.624 196.169 428.624C212.197 428.624 225.158 428.805 225.158 429.014Z" fill="#2D2D2D"/>
<path d="M166.664 429.447C166.664 429.67 153.675 429.837 137.675 429.837C121.675 429.837 108.672 429.656 108.672 429.447C108.672 429.238 121.647 429.057 137.675 429.057C153.702 429.057 166.664 429.238 166.664 429.447Z" fill="#2D2D2D"/>
<path d="M141.368 442.358H131.557V463.064H141.368V442.358Z" fill="#595959"/>
<path d="M199.876 489.027H190.064V509.733H199.876V489.027Z" fill="#2D2D2D"/>
<path d="M225.158 476.018C225.158 476.241 212.169 476.408 196.169 476.408C180.169 476.408 167.166 476.227 167.166 476.018C167.166 475.809 180.141 475.627 196.169 475.627C212.197 475.627 225.158 475.809 225.158 476.018Z" fill="#2D2D2D"/>
<path d="M166.664 476.45C166.664 476.673 153.675 476.84 137.675 476.84C121.675 476.84 108.672 476.659 108.672 476.45C108.672 476.241 121.647 476.06 137.675 476.06C153.702 476.06 166.664 476.241 166.664 476.45Z" fill="#2D2D2D"/>
<path d="M141.368 489.362H131.557V510.068H141.368V489.362Z" fill="#595959"/>
<path d="M199.876 536.044H190.064V556.75H199.876V536.044Z" fill="#2D2D2D"/>
<path d="M225.158 523.021C225.158 523.244 212.169 523.412 196.169 523.412C180.169 523.412 167.166 523.23 167.166 523.021C167.166 522.812 180.141 522.631 196.169 522.631C212.197 522.631 225.158 522.812 225.158 523.021Z" fill="#2D2D2D"/>
<path d="M166.664 523.453C166.664 523.676 153.675 523.844 137.675 523.844C121.675 523.844 108.672 523.663 108.672 523.453C108.672 523.244 121.647 523.063 137.675 523.063C153.702 523.063 166.664 523.244 166.664 523.453Z" fill="#2D2D2D"/>
<path d="M141.368 536.365H131.557V557.071H141.368V536.365Z" fill="#595959"/>
<path d="M778.467 225.16H651.584V580.299H778.467V225.16Z" fill="#353434"/>
<path d="M778.452 225.16H718.969V580.299H778.452V225.16Z" fill="#2D2D2D"/>
<path d="M689.604 247.833H678.189V275.566H689.604V247.833Z" fill="#414141"/>
<path d="M689.604 356.354H678.189V384.087H689.604V356.354Z" fill="#414141"/>
<path d="M718.97 286.442C718.97 286.748 703.89 286.999 685.284 286.999C666.678 286.999 651.584 286.748 651.584 286.442C651.584 286.135 666.664 285.884 685.284 285.884C703.904 285.884 718.97 286.135 718.97 286.442Z" fill="#414141"/>
<path d="M689.604 302.504H678.189V330.238H689.604V302.504Z" fill="#414141"/>
<path d="M718.97 341.114C718.97 341.421 703.89 341.672 685.284 341.672C666.678 341.672 651.584 341.421 651.584 341.114C651.584 340.807 666.664 340.556 685.284 340.556C703.904 340.556 718.97 340.807 718.97 341.114Z" fill="#414141"/>
<path d="M743.024 247.833H731.609V275.566H743.024V247.833Z" fill="#414141"/>
<path d="M767.778 247.833H756.363V275.566H767.778V247.833Z" fill="#414141"/>
<path d="M743.024 300.455H731.609V328.188H743.024V300.455Z" fill="#414141"/>
<path d="M767.778 300.455H756.363V328.188H767.778V300.455Z" fill="#414141"/>
<path d="M743.024 353.063H731.609V380.797H743.024V353.063Z" fill="#414141"/>
<path d="M767.778 353.063H756.363V380.797H767.778V353.063Z" fill="#414141"/>
<path d="M689.604 414.135H678.189V441.869H689.604V414.135Z" fill="#414141"/>
<path d="M718.97 398.895C718.97 399.202 703.89 399.453 685.284 399.453C666.678 399.453 651.584 399.202 651.584 398.895C651.584 398.588 666.664 398.337 685.284 398.337C703.904 398.337 718.97 398.588 718.97 398.895Z" fill="#414141"/>
<path d="M743.024 410.845H731.609V438.578H743.024V410.845Z" fill="#414141"/>
<path d="M767.778 410.845H756.363V438.578H767.778V410.845Z" fill="#414141"/>
<path d="M689.604 471.903H678.189V499.636H689.604V471.903Z" fill="#414141"/>
<path d="M718.97 456.663C718.97 456.969 703.89 457.22 685.284 457.22C666.678 457.22 651.584 456.969 651.584 456.663C651.584 456.356 666.664 456.105 685.284 456.105C703.904 456.105 718.97 456.356 718.97 456.663Z" fill="#414141"/>
<path d="M743.024 468.612H731.609V496.346H743.024V468.612Z" fill="#414141"/>
<path d="M767.778 468.612H756.363V496.346H767.778V468.612Z" fill="#414141"/>
<path d="M689.604 529.685H678.189V557.418H689.604V529.685Z" fill="#414141"/>
<path d="M718.97 514.444C718.97 514.751 703.89 515.002 685.284 515.002C666.678 515.002 651.584 514.751 651.584 514.444C651.584 514.138 666.664 513.887 685.284 513.887C703.904 513.887 718.97 514.138 718.97 514.444Z" fill="#414141"/>
<path d="M743.024 526.394H731.609V554.127H743.024V526.394Z" fill="#414141"/>
<path d="M767.778 526.394H756.363V554.127H767.778V526.394Z" fill="#414141"/>
<path d="M787.999 219.332H642.051V225.37H787.999V219.332Z" fill="#2D2D2D"/>
<path d="M779.344 225.941C779.344 226.248 750.982 226.499 716.014 226.499C681.046 226.499 652.67 226.248 652.67 225.941C652.67 225.634 681.018 225.383 716.014 225.383C751.01 225.383 779.344 225.634 779.344 225.941Z" fill="#353434"/>
<path d="M385.057 256.006H269.338V579.911H385.057V256.006Z" fill="#353434"/>
<path d="M385.058 256.006H330.801V579.911H385.058V256.006Z" fill="#2D2D2D"/>
<path d="M304.013 276.684H293.602V301.977H304.013V276.684Z" fill="#414141"/>
<path d="M304.013 375.654H293.602V400.948H304.013V375.654Z" fill="#414141"/>
<path d="M330.8 311.891C330.8 312.17 317.044 312.407 300.069 312.407C283.094 312.407 269.338 312.17 269.338 311.891C269.338 311.612 283.094 311.375 300.069 311.375C317.044 311.375 330.8 311.612 330.8 311.891Z" fill="#414141"/>
<path d="M304.013 326.545H293.602V351.839H304.013V326.545Z" fill="#414141"/>
<path d="M330.8 361.766C330.8 362.045 317.044 362.282 300.069 362.282C283.094 362.282 269.338 362.045 269.338 361.766C269.338 361.488 283.094 361.25 300.069 361.25C317.044 361.25 330.8 361.488 330.8 361.766Z" fill="#414141"/>
<path d="M352.737 276.684H342.326V301.977H352.737V276.684Z" fill="#414141"/>
<path d="M375.315 276.684H364.904V301.977H375.315V276.684Z" fill="#414141"/>
<path d="M352.737 324.663H342.326V349.956H352.737V324.663Z" fill="#414141"/>
<path d="M375.315 324.663H364.904V349.956H375.315V324.663Z" fill="#414141"/>
<path d="M352.737 372.656H342.326V397.95H352.737V372.656Z" fill="#414141"/>
<path d="M375.315 372.656H364.904V397.95H375.315V372.656Z" fill="#414141"/>
<path d="M304.013 428.36H293.602V453.654H304.013V428.36Z" fill="#414141"/>
<path d="M330.8 414.459C330.8 414.738 317.044 414.975 300.069 414.975C283.094 414.975 269.338 414.738 269.338 414.459C269.338 414.18 283.094 413.943 300.069 413.943C317.044 413.943 330.8 414.18 330.8 414.459Z" fill="#414141"/>
<path d="M352.737 425.349H342.326V450.642H352.737V425.349Z" fill="#414141"/>
<path d="M375.315 425.349H364.904V450.642H375.315V425.349Z" fill="#414141"/>
<path d="M304.013 481.052H293.602V506.346H304.013V481.052Z" fill="#414141"/>
<path d="M330.8 467.151C330.8 467.43 317.044 467.667 300.069 467.667C283.094 467.667 269.338 467.43 269.338 467.151C269.338 466.872 283.094 466.635 300.069 466.635C317.044 466.635 330.8 466.872 330.8 467.151Z" fill="#414141"/>
<path d="M352.737 478.055H342.326V503.348H352.737V478.055Z" fill="#414141"/>
<path d="M375.315 478.055H364.904V503.348H375.315V478.055Z" fill="#414141"/>
<path d="M304.013 533.745H293.602V559.038H304.013V533.745Z" fill="#414141"/>
<path d="M330.8 519.843C330.8 520.122 317.044 520.359 300.069 520.359C283.094 520.359 269.338 520.122 269.338 519.843C269.338 519.564 283.094 519.327 300.069 519.327C317.044 519.327 330.8 519.564 330.8 519.843Z" fill="#414141"/>
<path d="M352.737 530.747H342.326V556.04H352.737V530.747Z" fill="#414141"/>
<path d="M375.315 530.747H364.904V556.04H375.315V530.747Z" fill="#414141"/>
<path d="M393.753 250.693H260.641V256.201H393.753V250.693Z" fill="#2D2D2D"/>
<path d="M385.864 256.717C385.864 256.996 359.997 257.233 328.095 257.233C296.193 257.233 270.326 256.996 270.326 256.717C270.326 256.438 296.179 256.201 328.095 256.201C360.011 256.201 385.864 256.438 385.864 256.717Z" fill="#353434"/>
<path d="M583.739 580.299H455.421L454.863 160.77H583.182L583.739 580.299Z" fill="#353434"/>
<path d="M583.182 160.77H519.016V580.299H583.182V160.77Z" fill="#2D2D2D"/>
<path d="M514.821 120.822H469.512V160.77H514.821V120.822Z" fill="#353434"/>
<path d="M514.834 120.822H504.033V160.77H514.834V120.822Z" fill="#2D2D2D"/>
<path d="M586.945 158.441H444.16V160.769H586.945V158.441Z" fill="#2D2D2D"/>
<path d="M491.044 178.185H480.188V201.094H491.044V178.185Z" fill="#4D4C4C"/>
<path d="M519.016 210.101C519.016 210.338 504.647 210.533 486.933 210.533C469.219 210.533 454.85 210.338 454.85 210.101C454.85 209.864 469.205 209.669 486.933 209.669C504.661 209.669 519.016 209.864 519.016 210.101Z" fill="#2D2D2D"/>
<path d="M555.769 178.185H544.912V201.094H555.769V178.185Z" fill="#414141"/>
<path d="M583.74 210.102C583.74 210.339 569.371 210.534 551.657 210.534C533.943 210.534 519.574 210.339 519.574 210.102C519.574 209.865 533.929 209.669 551.657 209.669C569.385 209.669 583.74 209.865 583.74 210.102Z" fill="#353434"/>
<path d="M555.769 223.682H544.912V246.591H555.769V223.682Z" fill="#414141"/>
<path d="M583.74 255.599C583.74 255.836 569.371 256.031 551.657 256.031C533.943 256.031 519.574 255.836 519.574 255.599C519.574 255.362 533.929 255.167 551.657 255.167C569.385 255.167 583.74 255.362 583.74 255.599Z" fill="#353434"/>
<path d="M555.769 270.56H544.912V293.469H555.769V270.56Z" fill="#414141"/>
<path d="M583.74 302.463C583.74 302.7 569.371 302.895 551.657 302.895C533.943 302.895 519.574 302.7 519.574 302.463C519.574 302.225 533.929 302.03 551.657 302.03C569.385 302.03 583.74 302.225 583.74 302.463Z" fill="#353434"/>
<path d="M555.769 317.424H544.912V340.333H555.769V317.424Z" fill="#414141"/>
<path d="M583.74 349.326C583.74 349.563 569.371 349.759 551.657 349.759C533.943 349.759 519.574 349.563 519.574 349.326C519.574 349.089 533.929 348.894 551.657 348.894C569.385 348.894 583.74 349.089 583.74 349.326Z" fill="#353434"/>
<path d="M491.044 224.379H480.188V247.288H491.044V224.379Z" fill="#4D4C4C"/>
<path d="M519.016 256.296C519.016 256.533 504.647 256.728 486.933 256.728C469.219 256.728 454.85 256.533 454.85 256.296C454.85 256.059 469.205 255.864 486.933 255.864C504.661 255.864 519.016 256.059 519.016 256.296Z" fill="#2D2D2D"/>
<path d="M491.044 270.574H480.188V293.483H491.044V270.574Z" fill="#4D4C4C"/>
<path d="M519.016 302.477C519.016 302.714 504.647 302.909 486.933 302.909C469.219 302.909 454.85 302.714 454.85 302.477C454.85 302.24 469.205 302.044 486.933 302.044C504.661 302.044 519.016 302.24 519.016 302.477Z" fill="#2D2D2D"/>
<path d="M491.044 316.754H480.188V339.663H491.044V316.754Z" fill="#4D4C4C"/>
<path d="M519.016 348.671C519.016 348.908 504.647 349.103 486.933 349.103C469.219 349.103 454.85 348.908 454.85 348.671C454.85 348.434 469.205 348.239 486.933 348.239C504.661 348.239 519.016 348.434 519.016 348.671Z" fill="#2D2D2D"/>
<path d="M555.769 365.417H544.912V388.326H555.769V365.417Z" fill="#414141"/>
<path d="M583.74 397.319C583.74 397.556 569.371 397.752 551.657 397.752C533.943 397.752 519.574 397.556 519.574 397.319C519.574 397.082 533.929 396.887 551.657 396.887C569.385 396.887 583.74 397.082 583.74 397.319Z" fill="#353434"/>
<path d="M491.044 364.748H480.188V387.657H491.044V364.748Z" fill="#4D4C4C"/>
<path d="M519.016 396.651C519.016 396.888 504.647 397.083 486.933 397.083C469.219 397.083 454.85 396.888 454.85 396.651C454.85 396.413 469.205 396.218 486.933 396.218C504.661 396.218 519.016 396.413 519.016 396.651Z" fill="#2D2D2D"/>
<path d="M555.769 413.396H544.912V436.306H555.769V413.396Z" fill="#414141"/>
<path d="M583.74 445.313C583.74 445.55 569.371 445.745 551.657 445.745C533.943 445.745 519.574 445.55 519.574 445.313C519.574 445.076 533.929 444.881 551.657 444.881C569.385 444.881 583.74 445.076 583.74 445.313Z" fill="#353434"/>
<path d="M491.044 412.741H480.188V435.65H491.044V412.741Z" fill="#4D4C4C"/>
<path d="M519.016 444.644C519.016 444.881 504.647 445.076 486.933 445.076C469.219 445.076 454.85 444.881 454.85 444.644C454.85 444.407 469.205 444.211 486.933 444.211C504.661 444.211 519.016 444.407 519.016 444.644Z" fill="#2D2D2D"/>
<path d="M555.769 461.39H544.912V484.299H555.769V461.39Z" fill="#414141"/>
<path d="M583.74 493.292C583.74 493.529 569.371 493.724 551.657 493.724C533.943 493.724 519.574 493.529 519.574 493.292C519.574 493.055 533.929 492.86 551.657 492.86C569.385 492.86 583.74 493.055 583.74 493.292Z" fill="#353434"/>
<path d="M491.044 460.72H480.188V483.629H491.044V460.72Z" fill="#4D4C4C"/>
<path d="M519.016 492.637C519.016 492.874 504.647 493.069 486.933 493.069C469.219 493.069 454.85 492.874 454.85 492.637C454.85 492.4 469.205 492.205 486.933 492.205C504.661 492.205 519.016 492.4 519.016 492.637Z" fill="#2D2D2D"/>
<path d="M555.769 509.369H544.912V532.278H555.769V509.369Z" fill="#414141"/>
<path d="M583.74 541.285C583.74 541.522 569.371 541.718 551.657 541.718C533.943 541.718 519.574 541.522 519.574 541.285C519.574 541.048 533.929 540.853 551.657 540.853C569.385 540.853 583.74 541.048 583.74 541.285Z" fill="#353434"/>
<path d="M491.044 508.713H480.188V531.622H491.044V508.713Z" fill="#4D4C4C"/>
<path d="M519.016 540.616C519.016 540.853 504.647 541.048 486.933 541.048C469.219 541.048 454.85 540.853 454.85 540.616C454.85 540.379 469.205 540.184 486.933 540.184C504.661 540.184 519.016 540.379 519.016 540.616Z" fill="#2D2D2D"/>
</g>
<defs>
<clipPath id="clip0_470_7374">
<rect width="788" height="579" fill="white"/>
</clipPath>
</defs>
</svg>
