<svg width="269" height="269" viewBox="0 0 269 269" fill="none" xmlns="http://www.w3.org/2000/svg">
<g clip-path="url(#clip0_231_26503)">
<path d="M0 40C0 17.9086 17.9086 0 40 0H229C251.091 0 269 17.9086 269 40V229C269 251.091 251.091 269 229 269H40C17.9086 269 0 251.091 0 229V40Z" fill="url(#paint0_linear_231_26503)"/>
<g clip-path="url(#clip1_231_26503)">
<path d="M148.139 81.9922H96.4471C94.6593 81.9922 93.2129 83.45 93.2129 85.2472V106.727C93.2129 108.525 94.6593 109.983 96.4471 109.983H137.145C138.793 112.297 141.779 116.443 142.043 116.443C142.291 116.443 141.813 112.527 141.481 109.983H148.142C149.927 109.983 151.376 108.525 151.376 106.727V85.2472C151.376 83.45 149.93 81.9922 148.142 81.9922H148.139Z" fill="#33FF33"/>
<path d="M115.195 89.6392H100.308C100.055 89.6392 99.8491 89.8456 99.8491 90.1002V90.5954C99.8491 90.85 100.055 91.0564 100.308 91.0564H115.195C115.448 91.0564 115.654 90.85 115.654 90.5954V90.1002C115.654 89.8456 115.448 89.6392 115.195 89.6392Z" fill="white"/>
<path d="M100.305 95.8286H110.063C110.315 95.8286 110.522 96.0342 110.522 96.2896V96.788C110.522 97.0403 110.318 97.249 110.063 97.249H100.305C100.053 97.249 99.8452 97.0434 99.8452 96.788V96.2896C99.8452 96.0373 100.05 95.8286 100.305 95.8286Z" fill="white"/>
<path d="M124.487 95.8286H113.838C113.584 95.8286 113.378 96.035 113.378 96.2896V96.7849C113.378 97.0395 113.584 97.2459 113.838 97.2459H124.487C124.741 97.2459 124.946 97.0395 124.946 96.7849V96.2896C124.946 96.035 124.741 95.8286 124.487 95.8286Z" fill="white"/>
<path d="M128.72 95.8286H144.513C144.764 95.8286 144.972 96.0342 144.972 96.2896V96.788C144.972 97.0403 144.767 97.249 144.513 97.249H128.72C128.469 97.249 128.264 97.0434 128.264 96.7911V96.2927C128.264 96.0404 128.469 95.8317 128.724 95.8317L128.72 95.8286Z" fill="white"/>
<path d="M119.509 89.6392H144.513C144.765 89.6392 144.973 89.8447 144.973 90.1002V90.5985C144.973 90.8509 144.768 91.0595 144.513 91.0595H119.509C119.257 91.0595 119.052 90.854 119.052 90.6017V90.1033C119.052 89.851 119.257 89.6423 119.512 89.6423L119.509 89.6392Z" fill="white"/>
<path d="M100.305 102.139H120.558C120.809 102.139 121.017 102.345 121.017 102.6V103.099C121.017 103.351 120.813 103.56 120.558 103.56H100.305C100.054 103.56 99.8491 103.354 99.8491 103.102V102.603C99.8491 102.351 100.054 102.142 100.308 102.142L100.305 102.139Z" fill="white"/>
<path d="M124.252 102.139H144.514C144.765 102.139 144.973 102.345 144.973 102.6V103.099C144.973 103.351 144.768 103.56 144.514 103.56H124.252C124 103.56 123.795 103.354 123.795 103.102V102.603C123.795 102.351 124 102.142 124.255 102.142L124.252 102.139Z" fill="white"/>
<path d="M151.258 147.843L150.26 148.74C149.742 149.208 148.973 149.186 148.53 148.696L130.771 129.041C130.327 128.551 130.394 127.78 130.904 127.32L131.902 126.414C132.419 125.954 133.188 125.969 133.632 126.459L151.391 146.121C151.835 146.611 151.775 147.383 151.258 147.843Z" fill="#282828"/>
<path d="M211.464 131.868C209.091 129.924 190.733 138.034 190.969 140.861C191.206 143.688 178.164 171.059 178.164 171.059L155.628 152.962H155.621C155.421 152.317 153.285 145.275 153.181 144.014C153.07 142.693 149.263 140.386 147.496 140.72C145.729 141.061 149.011 143.294 149.226 143.702C149.81 144.815 147.547 145.238 147.547 145.238C147.547 145.238 141.034 141.64 140.901 139.525C140.76 137.41 139.415 132.973 138.01 133.901C137.285 134.383 137.293 137.529 137.514 139.021C137.093 137.329 136.502 135.415 135.925 135.222C134.868 134.873 134.35 136.223 134.535 136.891C134.727 137.551 136.428 144.749 136.945 145.557C137.448 146.351 147.969 154.884 149.485 156.731C149.485 156.731 178.637 190.291 180.715 191.167C182.533 191.938 189.032 180.371 195.161 172.699C201.298 165.019 218.894 137.945 211.479 131.868H211.464Z" fill="#B97964"/>
<path d="M190.022 197.896C190.022 197.896 188.218 216.178 188.218 216.445C188.218 246.021 182.399 303.783 183.501 309.341C186.2 322.904 215.271 392.078 215.271 392.078L230.982 390.186L210.509 307.36L218.043 274.023L228.705 208.128L190.022 197.889V197.896Z" fill="#282828"/>
<path d="M242.753 214.064L245.732 231.389L253.798 302.7L284.511 372.394C284.511 372.394 280.193 382.537 273.82 383.961L224.934 312.405L194.569 220.845L195.634 200.5L242.753 214.064Z" fill="#353535"/>
<path d="M183.76 154.365L205.542 156.605C205.542 156.605 206.54 138.62 206.54 130.043C206.54 119.633 205.66 106.233 204.41 106.515C200.906 107.323 196.189 109.275 193.379 113.155C183.664 126.6 183.753 154.357 183.753 154.357L183.76 154.365Z" fill="#505050"/>
<path d="M194.458 128.21C194 131.385 185.63 217.647 185.63 217.647C225.296 236.939 247.181 221.083 247.181 221.083C247.181 221.083 245.887 160.501 247.44 152.257C248.467 146.804 249.754 110.551 246.242 109.534C241.739 108.228 236.571 106.848 230.938 106.262C226.132 105.758 207.463 105.468 204.121 106.596C204.121 106.596 196.373 114.854 194.458 128.202V128.21Z" fill="#505050"/>
<path d="M180.699 191.167C180.61 191.129 180.285 190.877 180.1 190.721C180.803 182.27 180.677 174.079 178.045 171.311C178.104 171.178 178.681 169.946 179.287 168.67C182.341 171.044 183.79 177.366 183.22 187.62C183.183 188.325 182.984 188.866 182.821 189.742C181.934 190.721 181.135 191.352 180.707 191.174L180.699 191.167Z" fill="#AE725E"/>
<path d="M286.471 218.568C286.493 218.382 286.5 218.197 286.478 218.011C285.894 212.038 280.97 161.866 280.135 159.737C279.388 157.808 257.289 125.992 257.289 125.992L246.428 140.891L267.677 169.427C268.15 171.237 275.817 205.108 275.817 205.108C275.817 205.108 277.392 211.282 278.094 214.977C277.776 215.867 277.458 216.706 277.177 217.396C276.475 218.872 275.639 220.081 274.885 221.098C273.939 222.382 272.364 225.179 272.172 225.928C271.95 226.796 271.543 228.607 271.314 229.705C271.085 230.796 270.767 232.072 270.715 232.665C270.686 233.029 270.316 233.749 270.028 234.253C269.606 235.01 270.331 235.9 271.144 235.633C271.913 235.374 272.519 234.372 272.889 233.741C273.931 231.975 274.493 228.74 274.752 228.911C275.011 229.082 275.928 234.565 276.076 235.188C276.223 235.804 277.318 242.177 277.939 243.335C278.56 244.5 279.38 244.307 279.595 243.572C279.78 242.942 278.907 234.038 278.907 234.038C278.907 234.038 278.796 232.903 279.292 233.259C279.787 233.615 280.593 241.703 280.94 242.882C281.288 244.062 282.064 244.693 282.73 243.743C283.536 242.586 282.146 234.008 282.146 234.008C282.146 234.008 281.99 232.932 282.449 233.029C282.907 233.133 283.476 240.018 283.839 240.619C284.194 241.213 285.096 241.428 285.524 240.434C286.027 239.262 284.726 231.619 284.726 231.619C284.726 231.619 284.792 231.011 285.073 231.211C285.362 231.411 286.264 237.251 286.855 237.792C287.351 238.245 287.765 237.807 287.765 237.807C288.844 237.065 287.188 231.508 287.203 228.748C287.218 225.988 285.946 222.879 286.323 219.592C286.345 219.384 286.412 218.879 286.456 218.56L286.471 218.568Z" fill="#B97964"/>
<path d="M274.56 146.144L255.684 158.906C255.684 158.906 245.045 142.968 239.337 137.292C232.188 130.184 241.94 108.407 246.553 109.639C256.86 112.391 274.56 146.144 274.56 146.144Z" fill="#505050"/>
<path d="M229.555 87.6164L232.379 106.351C232.379 106.351 222.073 128.655 215.914 126.726C210.754 125.101 213.925 105.364 213.925 105.364C213.925 105.364 216.742 94.7616 215.899 89.4639C215.057 84.1588 229.555 87.6238 229.555 87.6238V87.6164Z" fill="#B97964"/>
<path d="M215.899 89.4566C215.057 84.1515 229.555 87.6165 229.555 87.6165L229.792 89.1672C229.37 90.206 228.845 91.0964 228.217 91.779C224.979 95.2885 219.914 97.3957 215.537 97.559C215.973 94.6949 216.239 91.6306 215.899 89.4566Z" fill="#B3725D"/>
<path d="M231.936 61.1132C232.343 60.9648 235.219 82.4524 229.762 88.3659C224.306 94.2795 213.674 96.216 209.859 91.5564C205.637 86.4071 205.852 63.3095 214.332 57.2327C222.812 51.1485 231.929 61.1206 231.929 61.1206L231.936 61.1132Z" fill="#B97964"/>
<path d="M217.57 45.7322C224.128 47.0751 228.372 51.1115 229.932 52.8329C232.912 53.189 236.956 54.8436 241.133 61.8108C246.272 70.3806 242.479 79.8704 236.498 84.5226C230.516 89.1822 230.598 94.5615 230.598 94.5615L229.651 91.7791C228.956 89.6719 228.668 87.4386 228.905 85.2275C229.045 83.8993 229.326 82.4673 229.873 81.2876C231.315 78.1787 226.783 76.1086 225.511 73.5265C224.535 71.5306 224.483 66.9749 222.946 63.6805L221.105 61.1652C221.105 61.1652 216.861 57.8412 212.706 58.7761C208.55 59.711 209.149 44.0034 217.563 45.7322H217.57Z" fill="#282828"/>
<path d="M225.792 77.3478C225.748 79.9669 226.931 82.1187 228.439 82.1409C229.94 82.1706 231.197 80.0634 231.241 77.4442C231.286 74.825 230.103 72.6733 228.594 72.6511C227.093 72.6288 225.837 74.7286 225.792 77.3478Z" fill="#B2725D"/>
<path d="M216.934 83.402L208.713 82.9717C208.713 82.9717 208.742 86.1251 212.35 86.4219C216.757 86.778 216.934 83.402 216.934 83.402Z" fill="white"/>
</g>
</g>
<path d="M0.5 40C0.5 18.1847 18.1848 0.5 40 0.5H229C250.815 0.5 268.5 18.1848 268.5 40V229C268.5 250.815 250.815 268.5 229 268.5H40C18.1847 268.5 0.5 250.815 0.5 229V40Z" stroke="url(#paint1_linear_231_26503)"/>
<defs>
<linearGradient id="paint0_linear_231_26503" x1="17.9833" y1="31.9153" x2="290.136" y2="216.211" gradientUnits="userSpaceOnUse">
<stop stop-color="#161616"/>
<stop offset="1" stop-color="#0C0C0C"/>
</linearGradient>
<linearGradient id="paint1_linear_231_26503" x1="18.358" y1="10.4864" x2="138.843" y2="144.573" gradientUnits="userSpaceOnUse">
<stop stop-color="white"/>
<stop offset="1"/>
</linearGradient>
<clipPath id="clip0_231_26503">
<path d="M0 40C0 17.9086 17.9086 0 40 0H229C251.091 0 269 17.9086 269 40V229C269 251.091 251.091 269 229 269H40C17.9086 269 0 251.091 0 229V40Z" fill="white"/>
</clipPath>
<clipPath id="clip1_231_26503">
<rect width="200.407" height="229.924" fill="white" transform="translate(93.2129 41.1689)"/>
</clipPath>
</defs>
</svg>
