<svg width="257" height="257" viewBox="0 0 257 257" fill="none" xmlns="http://www.w3.org/2000/svg">
<g clip-path="url(#clip0_231_26433)">
<path d="M0 40C0 17.9086 17.9086 0 40 0H217C239.091 0 257 17.9086 257 40V217C257 239.091 239.091 257 217 257H40C17.9086 257 0 239.091 0 217V40Z" fill="url(#paint0_linear_231_26433)"/>
<g clip-path="url(#clip1_231_26433)">
<path opacity="0.3" d="M35.1051 202.05C35.1051 207.997 101.414 212.823 183.214 212.823C265.013 212.823 331.322 207.997 331.322 202.05C331.322 196.103 265.013 191.277 183.214 191.277C101.414 191.277 35.1051 196.103 35.1051 202.05Z" fill="#1A1A1A"/>
<path d="M52.084 150.116L309.289 139.258L331.322 161.267L327.959 178.705L267.488 184.15L256.746 176.761L113.744 190.69H55.5777L44.4565 168.349L52.084 150.116Z" fill="#1A1A1A"/>
<path d="M282.85 74.8882L271.657 68.6605C271.657 68.6605 202.239 65.1913 176.509 71.7711C176.509 71.7711 169.581 76.2641 166.616 78.7617V80.2029H181.165L181.126 76.8641L183 73.9752C183 73.9752 235.25 68.178 263.644 70.6038L269.227 75.2077L282.85 77.3075V74.8882Z" fill="#1A1A1A"/>
<path d="M88.0091 118.202C88.0091 118.202 148.839 80.6663 166.615 78.7686C166.615 78.7686 240.421 69.5152 286.29 75.2864C286.29 75.2864 300.017 74.5625 326.38 116.402L328.908 143.81L334.321 149.94V170.136L327.961 178.705C326.341 163.484 313.444 151.623 297.771 151.623C281.001 151.623 267.405 165.2 267.405 181.946C267.405 182.689 267.437 183.42 267.496 184.143L266.791 184.196L113.752 190.684C114.588 187.919 115.038 184.985 115.038 181.946C115.038 165.2 101.442 151.623 84.6721 151.623C67.9021 151.623 54.3059 165.2 54.3059 181.946C54.3059 184.985 54.763 187.919 55.5924 190.684H55.514L36.7327 186.354L31.6782 157.505C31.6782 157.505 40.7097 132.979 88.0222 118.195L88.0091 118.202Z" fill="#33FF33"/>
<path d="M84.6655 156.97C98.4576 156.97 109.677 168.173 109.677 181.946C109.677 195.718 98.4576 206.921 84.6655 206.921C70.8734 206.921 59.6542 195.718 59.6542 181.946C59.6542 168.173 70.8734 156.97 84.6655 156.97ZM84.6655 196.657C92.8023 196.657 99.398 190.071 99.398 181.946C99.398 173.82 92.8023 167.234 84.6655 167.234C76.5287 167.234 69.933 173.82 69.933 181.946C69.933 190.071 76.5287 196.657 84.6655 196.657Z" fill="#333333"/>
<path d="M72.9561 181.952C72.9561 188.408 78.2 193.644 84.6651 193.644C91.1301 193.644 96.374 188.408 96.374 181.952C96.374 175.496 91.1301 170.26 84.6651 170.26C78.2 170.26 72.9561 175.496 72.9561 181.952Z" fill="#777676"/>
<path d="M70.6116 186.66L82.0332 181.423L73.5176 172.203L75.8358 170.064L84.3514 179.285L90.5031 168.349L93.2588 169.894L87.1007 180.83L99.417 183.295L98.8031 186.386L86.4803 183.921L87.9431 196.383L84.8086 196.748L83.3458 184.286L71.9307 189.523L70.6116 186.66Z" fill="#777676"/>
<path d="M84.6621 165.656C93.674 165.656 100.981 172.953 100.981 181.952C100.981 190.951 93.674 198.248 84.6621 198.248C75.6502 198.248 68.3427 190.951 68.3427 181.952C68.3427 172.953 75.6502 165.656 84.6621 165.656ZM84.6621 195.32C92.0544 195.32 98.0493 189.334 98.0493 181.952C98.0493 174.57 92.0544 168.584 84.6621 168.584C77.2697 168.584 71.2748 174.57 71.2748 181.952C71.2748 189.334 77.2697 195.32 84.6621 195.32Z" fill="#999999"/>
<path d="M75.9901 189.399L87.5096 166.484L89.2728 166.478L85.5571 173.879L95.333 193.645L94.249 195.007L92.2572 190.977H71.7453L70.5437 189.399H75.9901Z" fill="#999999"/>
<path d="M83.5607 176.944C83.5607 177.551 84.0505 178.04 84.6578 178.04C85.2651 178.04 85.7549 177.551 85.7549 176.944C85.7549 176.338 85.2651 175.849 84.6578 175.849C84.0505 175.849 83.5607 176.338 83.5607 176.944Z" fill="#777676"/>
<path d="M77.545 188.963C77.545 189.569 78.0348 190.058 78.6422 190.058C79.2495 190.058 79.7393 189.569 79.7393 188.963C79.7393 188.356 79.2495 187.867 78.6422 187.867C78.0348 187.867 77.545 188.356 77.545 188.963Z" fill="#777676"/>
<path d="M89.6867 188.963C89.6867 189.569 90.1764 190.058 90.7838 190.058C91.3911 190.058 91.8809 189.569 91.8809 188.963C91.8809 188.356 91.3911 187.867 90.7838 187.867C90.1764 187.867 89.6867 188.356 89.6867 188.963Z" fill="#777676"/>
<path d="M160.222 80.2944C148.65 84.9636 109.677 113.793 109.677 113.793C101.586 118.032 88.0089 118.208 88.0089 118.208C88.0089 118.208 137.47 87.6894 160.222 80.301V80.2944Z" fill="#5D7987"/>
<path d="M91.0655 117.263C95.4866 116.95 103.734 115.998 109.259 113.122C110.95 111.87 133.376 95.3257 148.794 85.707C128.23 94.9996 99.7836 111.981 91.0655 117.263Z" fill="#3E5059"/>
<path d="M108.842 112.45C110.461 111.25 124.697 100.758 138.17 91.6933L147.626 85.3679C152.295 83.2355 156.598 81.4682 160.223 80.2944C148.651 84.9636 109.678 113.793 109.678 113.793C101.587 118.032 88.0099 118.208 88.0099 118.208C88.0099 118.208 88.7348 117.758 90.0408 116.963C95.4741 116.252 104.806 114.745 108.835 112.457L108.842 112.45Z" fill="#1A1A1A"/>
<path d="M120.085 180.746L252.945 176.944C252.945 176.944 263.733 178.933 266.887 165.656C266.887 165.656 272.399 153.168 283.716 148.701C283.716 148.701 292.316 146.862 296.045 135.568C296.045 135.568 300.035 123.745 300.035 114.811C300.035 114.811 297.142 79.0816 270.302 76.9818C270.302 76.9818 180.125 75.4559 160.214 83.8094C160.214 83.8094 126.654 99.8383 117.446 115.861C117.446 115.861 112.973 145.004 120.078 180.746H120.085Z" fill="#25E825"/>
<g opacity="0.3">
<path d="M254.05 76.8706C227.126 76.8706 174.818 77.6857 160.229 83.8091C160.229 83.8091 126.669 99.838 117.461 115.86C117.461 115.86 112.988 145.003 120.093 180.745L252.953 176.944C252.953 176.944 253.528 177.048 254.449 177.048C257.525 177.048 264.466 175.868 266.896 165.656C266.896 165.656 272.407 153.168 283.724 148.701C283.724 148.701 292.325 146.862 296.054 135.567C296.054 135.567 300.044 123.744 300.044 114.81C300.044 114.81 297.151 79.0812 270.311 76.9814C270.311 76.9814 263.866 76.8706 254.044 76.8706M254.044 75.2925C263.768 75.2925 270.272 75.4033 270.337 75.4033H270.383H270.429C282.013 76.3098 291.091 83.4439 296.674 96.0427C300.814 105.374 301.578 114.308 301.604 114.68V114.745V114.81C301.604 123.894 297.693 135.574 297.53 136.069C293.788 147.396 285.442 149.894 284.181 150.207C274.223 154.198 268.959 164.925 268.371 166.171C265.629 177.407 257.714 178.626 254.423 178.626C253.672 178.626 253.11 178.561 252.829 178.522L120.113 182.324L118.78 182.363L118.519 181.058C111.44 145.46 115.829 115.926 115.874 115.626L115.92 115.332L116.07 115.078C125.415 98.8141 158.139 83.0526 159.523 82.3875L159.556 82.3744L159.589 82.3614C174.236 76.2185 225.043 75.299 254.024 75.299L254.044 75.2925Z" fill="#1A1A1A"/>
</g>
<path d="M209.135 119.539L215.162 80.2163L214.202 80.262C187.264 81.4944 169.006 83.9399 159.935 87.546C158.524 88.0873 125.128 101.097 121.412 123.353L121.249 124.325L209.135 119.545V119.539Z" fill="#3E5059"/>
<path d="M214.234 81.0442C192.926 82.0159 170.82 84.0635 160.222 88.2696C160.222 88.2696 125.872 101.403 122.189 123.477L208.448 118.782L214.234 81.0442ZM216.082 79.3813L215.788 81.2855L210.003 119.023L209.807 120.288L208.527 120.36L122.267 125.055L120.302 125.16L120.628 123.223C124.416 100.523 158.217 87.3567 159.653 86.8024C168.789 83.1766 187.133 80.7051 214.162 79.4726L216.089 79.3879L216.082 79.3813Z" fill="#1A1A1A"/>
<path d="M296.89 114.765L296.837 113.97C296.811 113.624 294.18 79.5057 266.798 79.5057H266.354C266.354 79.5057 261.528 79.4209 254.044 79.4209C247.35 79.4209 237.013 79.4926 225.722 79.8317L224.99 79.8513L223.077 118.782L296.883 114.765H296.89Z" fill="#3E5059"/>
<path d="M254.044 80.2033C246.672 80.2033 236.634 80.2881 225.748 80.6141L223.913 117.948L296.048 114.022C296.048 114.022 293.755 80.2881 266.798 80.2881C266.654 80.2881 266.511 80.2881 266.367 80.2881C266.367 80.2881 261.606 80.2033 254.044 80.2033ZM254.044 78.6252C261.254 78.6252 265.988 78.7034 266.367 78.7099C266.511 78.7099 266.654 78.7099 266.798 78.7099C278.474 78.7099 287.519 84.8528 292.959 96.4865C296.981 105.088 297.595 113.559 297.621 113.911L297.732 115.502L296.132 115.587L223.998 119.513L222.248 119.61L222.333 117.863L224.168 80.5293L224.24 79.0751L225.696 79.0295C236.994 78.6904 247.344 78.6187 254.038 78.6187L254.044 78.6252Z" fill="#1A1A1A"/>
<path d="M253.737 86.9722C253.737 86.9722 241.12 86.6984 225.428 87.1614L225.748 80.6207C247.801 79.962 266.367 80.3011 266.367 80.3011C293.729 79.936 296.054 114.028 296.054 114.028L276.645 115.085C275.477 106.901 270.853 86.7049 253.737 86.9788V86.9722Z" fill="#1A1A1A"/>
<path d="M190.698 127.572C190.698 130.219 196.419 132.365 199.729 132.365C203.04 132.365 205.718 130.219 205.718 127.572C205.718 124.924 203.034 122.779 199.729 122.779C196.425 122.779 190.698 124.924 190.698 127.572Z" fill="#3A3838"/>
<path d="M192.422 127.572C192.422 128.864 196.222 129.907 198.417 129.907C200.611 129.907 202.394 128.864 202.394 127.572C202.394 126.281 200.617 125.238 198.417 125.238C196.216 125.238 192.422 126.281 192.422 127.572Z" fill="#262525"/>
<path d="M199.729 122.773C203.04 122.773 205.718 124.918 205.718 127.566H190.698C190.698 124.918 196.419 122.773 199.729 122.773Z" fill="#4D4D4D"/>
<g opacity="0.3">
<path d="M213.649 178.066L212.068 178.112C211.187 167.736 215.183 120.158 215.353 118.124L219.5 77.3538C220.029 77.3407 220.558 77.3211 221.087 77.3081V77.3277L216.927 118.267C216.888 118.763 212.761 167.899 213.649 178.02V178.066Z" fill="#1A1A1A"/>
</g>
<g opacity="0.3">
<path d="M297.771 151.622C281.001 151.622 267.405 165.199 267.405 181.945C267.405 182.689 267.437 183.419 267.496 184.143L266.791 184.195L113.752 190.684C114.588 187.919 115.038 184.984 115.038 181.945C115.038 165.199 101.442 151.622 84.6721 151.622C67.9021 151.622 54.3059 165.199 54.3059 181.945C54.3059 184.984 54.763 187.919 55.5924 190.684H55.514L36.7327 186.354L31.6782 157.504C31.6782 157.504 34.0618 151.035 42.7863 142.74L327.549 129.131L328.901 143.81L334.321 149.94V170.136L327.961 178.704C326.341 163.484 313.444 151.622 297.771 151.622Z" fill="#1A1A1A"/>
</g>
<g opacity="0.3">
<path d="M115.033 181.952C115.033 175.183 112.813 168.936 109.058 163.889L280.943 156.709C272.78 162.148 267.399 171.421 267.399 181.952C267.399 182.696 267.432 183.426 267.491 184.15L266.786 184.202L113.746 190.691C114.582 187.926 115.033 184.991 115.033 181.952Z" fill="#1A1A1A"/>
</g>
<g opacity="0.3">
<path d="M32.4162 155.9C32.7623 155.907 32.9647 155.913 32.9647 155.913H62.2665L66.1455 157.935C58.949 163.478 54.306 172.17 54.306 181.952C54.306 184.991 54.7631 187.925 55.5924 190.69H55.5141L36.7328 186.36L31.6783 157.511C31.6783 157.511 31.8938 156.93 32.4227 155.894L32.4162 155.9Z" fill="#1A1A1A"/>
</g>
<path d="M206.084 87.6694C186.93 88.5758 167.052 90.4865 157.524 94.4188C157.524 94.4188 130.541 105.133 124.317 123.359L122.195 123.477C125.878 101.409 160.228 88.2693 160.228 88.2693C170.833 84.0567 192.938 82.0156 214.24 81.0439L208.454 118.782L201.434 119.166L206.084 87.6694Z" fill="#1A1A1A"/>
<path d="M144.477 122.264L142.864 122.349L147.266 94.6732C147.86 94.3211 148.448 93.9885 149.022 93.6689L144.477 122.264Z" fill="#1A1A1A"/>
<path d="M141.938 123.196L145.164 123.02L150.062 92.1885L148.638 92.9841C148.057 93.3101 147.469 93.6492 146.868 94.0013L146.548 94.1905L146.489 94.5556L141.938 123.196Z" fill="#1A1A1A"/>
</g>
</g>
<path d="M0.5 40C0.5 18.1848 18.1848 0.5 40 0.5H217C238.815 0.5 256.5 18.1848 256.5 40V217C256.5 238.815 238.815 256.5 217 256.5H40C18.1848 256.5 0.5 238.815 0.5 217V40Z" stroke="url(#paint1_linear_231_26433)"/>
<defs>
<linearGradient id="paint0_linear_231_26433" x1="17.1811" y1="30.4915" x2="277.193" y2="206.566" gradientUnits="userSpaceOnUse">
<stop stop-color="#161616"/>
<stop offset="1" stop-color="#0C0C0C"/>
</linearGradient>
<linearGradient id="paint1_linear_231_26433" x1="17.539" y1="10.0186" x2="132.649" y2="138.123" gradientUnits="userSpaceOnUse">
<stop stop-color="white"/>
<stop offset="1"/>
</linearGradient>
<clipPath id="clip0_231_26433">
<path d="M0 40C0 17.9086 17.9086 0 40 0H217C239.091 0 257 17.9086 257 40V217C257 239.091 239.091 257 217 257H40C17.9086 257 0 239.091 0 217V40Z" fill="white"/>
</clipPath>
<clipPath id="clip1_231_26433">
<rect width="302.656" height="145.069" fill="white" transform="matrix(-1 0 0 1 334.321 67.7476)"/>
</clipPath>
</defs>
</svg>
