<svg width="1440" height="441" viewBox="0 0 1440 441" fill="none" xmlns="http://www.w3.org/2000/svg">
<path fill-rule="evenodd" clip-rule="evenodd" d="M-0.37207 349.89H18.1248V342.208H35.8387V298.004H50.4861V289.15H100.594V322.612H105.226V308.778H119.874V322.612H126.431V301.845H148.777V311.057H158.401V342.208H162.25V287.229H184.205V342.208H190.762V281.077H212.325V202.63H222.34V194.948H230.039V162.266H232.747V194.948H240.446V202.63H243.904V291.461H262.4V203.801C262.4 143.061 275.873 93.4537 292.087 93.4537C308.659 93.4537 322.132 143.061 322.132 203.801V313.368H339.095V287.978H364.9V270.661H368.749V225.676H377.231V215.682H403.035V225.676H411.517V270.661H414.975V330.652H429.231V320.269H445.02V241.821H450.794V166.075H454.644V126.102H458.493V118.811H484.689V126.102H488.93V166.075H492.779V175.287H499.336V241.788H505.11V325.998H530.914V284.463H567.908V290.224H573.682V325.998H581.381V251.391H589.863V241.398H594.495V251.391H607.609V241.398H611.85V251.391H620.724V279.45H658.5V295.204H672.756V322.515H676.997V214.869H672.756V134.5L695.102 99.8988V61.4562H690.47L715.915 28.775V16.0802H718.232V0H720.939V16.1453H723.255V29.2307L748.309 61.5213H743.677V99.9639L766.023 134.566V214.934H761.782V254.158C762.924 251.847 765.632 250.317 768.339 250.317C771.797 250.317 774.897 252.628 775.647 255.688C776.43 244.913 779.105 234.529 783.346 224.927C782.954 224.927 782.204 225.318 781.812 225.318C777.572 225.318 774.114 221.867 774.114 217.636V208.424C774.114 204.192 777.572 201.132 781.812 201.132C785.662 201.132 789.12 204.192 789.12 208.424V214.185C792.969 208.033 797.21 202.662 802.234 197.649C805.692 194.199 809.541 190.716 813.782 188.047C811.466 186.517 810.324 184.206 810.324 181.895V172.292C810.324 168.451 813.782 165.001 817.632 165.001C821.873 165.001 825.331 168.451 825.331 172.292V181.146C835.737 175.384 847.677 171.934 860.008 171.153C859.617 170.372 859.617 169.623 859.617 168.451V159.239C859.617 155.008 863.075 151.948 866.924 151.948C871.165 151.948 874.623 155.008 874.623 159.239V168.451C874.623 169.59 874.231 170.372 873.84 171.153C886.563 171.934 898.111 175.384 908.909 181.146V172.292C908.909 168.451 912.367 165.001 916.216 165.001C920.457 165.001 923.524 168.451 923.524 172.292V181.895C923.524 184.206 922.382 186.517 920.457 188.047C924.307 190.748 928.156 194.199 931.647 197.649C936.279 202.272 940.52 207.252 943.978 212.655L945.12 212.265V208.424C945.12 205.722 946.653 203.053 948.969 201.881V198.04H953.993V201.1C957.451 201.881 959.767 204.941 959.767 208.391V213.404L970.174 220.337V225.35H975.948V232.642H981.33V203.411H985.18V193.027H993.27V181.504H998.653V193.027H1005.96V165.359H1010.2L1012.13 126.525H1014.44V165.359H1019.82L1021.75 103.056H1024.07V165.359H1034.47V103.056H1036.79L1039.1 165.359H1044.49V126.525H1046.8L1048.73 165.359H1052.58V193.027H1057.6V203.411H1060.67V207.642H1068.37V211.874H1078.77V218.417H1096.49L1114.2 203.411V194.557H1118.05V203.411L1135.41 218.417H1153.12V232.642H1155.83V331.076H1165.45V144.982H1176.25V131.896H1190.5V96.5135H1193.57V131.896H1207.83V144.982H1218.62V294.944H1226.32V348.002H1232.1V288.011H1337.66V348.002H1345.75V294.944H1366.96V348.002H1372.73V319.943H1379.68V306.109H1401.24V334.168H1409.33V314.93H1423.2V334.168H1432.82V348.002H1439.77V441.033H-0.37207V349.923V349.89ZM868.164 175.71V177.24C882.811 177.63 896.676 181.471 908.615 188.014L910.148 185.703V185.312C898.6 179.16 885.486 175.319 871.622 174.538C870.48 175.319 869.305 175.677 868.164 175.677V175.71ZM868.164 181.081V257.966L872.405 251.033V241.821H876.645V193.776H882.811V233L889.76 221.086V214.153H893.609L906.723 191.074C895.534 184.922 882.452 181.081 868.196 181.081H868.164ZM868.164 266.429V281.435H872.405V273.753L868.164 266.462V266.429ZM865.847 281.435V266.429L857.366 281.435H865.847ZM865.847 257.966V181.081C851.983 181.081 838.869 184.922 827.32 191.074L865.847 257.966ZM865.847 177.207V175.677C864.706 175.677 863.531 175.287 862.781 174.538C848.917 175.319 835.802 179.16 824.254 185.312V185.703L825.396 188.014C837.336 181.471 851.2 177.63 865.847 177.24V177.207ZM911.714 187.591L910.573 189.121C916.738 192.962 922.121 197.194 927.145 202.206C931.777 206.438 935.235 211.06 938.693 216.431L941.401 214.511C937.943 209.498 933.702 204.518 929.461 199.895C925.22 196.054 920.979 192.213 915.988 189.121C914.455 189.121 912.921 188.34 911.747 187.591H911.714ZM909.007 192.213L895.534 215.292V241.821H900.166L932.527 222.974V220.272L935.594 218.352C932.527 213.339 929.037 208.749 924.796 204.518C920.164 199.895 914.781 195.664 909.007 192.213ZM889.727 225.676L882.778 237.589V241.821H889.727V225.676ZM872.372 255.655L870.447 259.105L872.372 257.966V255.655ZM854.658 281.045L863.89 265.29L854.658 270.661V281.045ZM929.428 227.596L900.133 244.523V261.059H922.088V232.609H929.396V227.596H929.428ZM872.405 260.668L871.622 261.059H872.405V260.668ZM836.944 281.045L836.161 281.435H836.944V281.045ZM812.282 295.27L808.041 297.581V318.348C808.432 319.129 808.824 319.487 809.574 319.878C810.357 320.659 811.499 321.799 812.282 322.58V295.27ZM808.041 294.879L812.282 292.568V263.337H808.041V294.879ZM831.561 281.435L836.944 278.376V263.37H830.387V281.435H831.529H831.561ZM854.691 267.992L862.781 263.37H854.691V267.992ZM925.22 263.37H900.166V279.905L902.874 281.435H925.22V263.37ZM872.437 263.37H871.654L872.437 263.76V263.37ZM789.968 263.37H785.727C785.727 272.582 787.26 281.045 789.968 289.117V263.37ZM781.878 263.37H779.17C779.17 272.972 780.703 282.217 783.802 291.038H784.194V291.429C785.727 296.051 787.652 300.64 789.968 304.872V298.329C784.944 287.946 782.269 276.032 781.878 263.337V263.37ZM779.17 261.059H781.878C782.269 246.443 786.119 232.609 792.676 220.695L790.359 219.165C783.411 231.86 779.17 246.085 779.17 261.091V261.059ZM785.727 261.059H789.968V239.9H808.073V261.059H812.314V257.999H830.42V261.059H836.977V257.999H854.691V261.059H862.781L795.742 222.616C789.576 234.139 785.727 247.224 785.727 261.059ZM872.437 266.429L870.512 265.29L872.437 268.741V266.429ZM791.501 217.212L793.817 218.742C797.667 212.59 801.908 207.219 806.932 202.206C811.955 197.194 817.338 192.994 823.504 189.121L822.362 187.591C821.22 188.372 820.046 189.121 818.121 189.121C813.489 192.181 808.889 196.054 805.007 199.895C799.624 205.266 794.992 211.06 791.534 217.212H791.501ZM796.884 220.663L863.923 259.105L825.396 192.213C819.622 195.664 814.206 199.895 809.607 204.518C804.583 209.53 800.375 214.901 796.884 220.663ZM812.282 327.169C811.14 326.03 809.574 324.858 808.041 323.328V327.56C809.574 328.699 811.107 329.871 812.282 331.01V327.169ZM775.679 268.741C774.896 271.8 771.83 274.502 768.372 274.502C765.664 274.502 762.989 272.582 761.815 270.27V291.038H779.92C777.604 283.747 776.071 276.423 775.679 268.741ZM789.152 310.276V316.037C789.152 319.487 786.836 322.189 784.129 323.328V327.951H789.903V311.805C789.903 311.415 789.511 311.024 789.12 310.276H789.152ZM808.041 332.182V347.937H810.357V342.924C810.357 341.004 811.14 339.083 812.282 337.553V335.633C811.14 334.493 809.574 333.322 808.041 332.182ZM719.406 174.929L731.346 161.843L729.421 159.923L716.307 173.757V197.584H719.373V174.896L719.406 174.929ZM719.406 142.248C737.511 142.248 752.159 156.863 752.159 174.538C752.159 192.213 737.511 207.219 719.406 207.219C701.301 207.219 687.045 192.604 687.045 174.538C687.045 156.472 701.692 142.248 719.406 142.248ZM697.06 219.914H702.834V276.064H697.06V219.914ZM706.683 219.914H712.457V276.064H706.683V219.914ZM716.698 219.914H722.472V276.064H716.698V219.914ZM726.322 219.914H732.096V276.064H726.322V219.914ZM735.945 219.914H741.72V276.064H735.945V219.914Z" fill="#0D0D0D"/>
</svg>
