<svg width="287" height="222" viewBox="0 0 287 222" fill="none" xmlns="http://www.w3.org/2000/svg">
<g clip-path="url(#clip0_149_14003)">
<path d="M165.647 148.008C165.647 148.008 165.635 147.932 165.626 147.784C165.618 147.616 165.617 147.402 165.608 147.138C165.6 146.853 165.599 146.512 165.622 146.112C165.644 145.711 165.653 145.254 165.715 144.758C165.741 144.511 165.772 144.248 165.804 143.974C165.836 143.701 165.894 143.424 165.942 143.126C166.028 142.541 166.182 141.922 166.331 141.278C166.666 139.986 167.132 138.593 167.752 137.186C168.386 135.785 169.126 134.51 169.865 133.403C170.254 132.861 170.612 132.337 170.992 131.881C171.18 131.65 171.352 131.424 171.534 131.218C171.716 131.012 171.897 130.817 172.062 130.626C172.394 130.243 172.727 129.937 173.009 129.649C173.291 129.362 173.549 129.134 173.765 128.955C173.966 128.781 174.134 128.645 174.261 128.539C174.377 128.442 174.435 128.399 174.439 128.404C174.439 128.404 174.391 128.468 174.285 128.565C174.163 128.677 174.005 128.823 173.814 129.008C173.608 129.197 173.354 129.43 173.087 129.724C172.815 130.012 172.487 130.323 172.16 130.711C171.995 130.902 171.824 131.098 171.642 131.304C171.46 131.51 171.293 131.741 171.115 131.973C170.74 132.424 170.393 132.948 170.014 133.491C169.285 134.598 168.565 135.864 167.932 137.255C167.313 138.651 166.847 140.034 166.508 141.311C166.358 141.955 166.195 142.563 166.104 143.144C166.056 143.431 165.994 143.713 165.957 143.981C165.925 144.254 165.888 144.512 165.857 144.765C165.785 145.26 165.766 145.716 165.739 146.111C165.701 146.506 165.697 146.852 165.69 147.131C165.679 147.395 165.674 147.613 165.672 147.781C165.666 147.933 165.657 148.009 165.653 148.004L165.647 148.008Z" fill="white"/>
<path d="M186.118 142.464C186.118 142.464 185.941 142.207 185.87 141.726C185.794 141.25 185.834 140.541 186.188 139.875C186.552 139.209 187.124 138.791 187.565 138.592C188.015 138.392 188.316 138.38 188.32 138.395C188.329 138.426 188.032 138.485 187.621 138.706C187.215 138.922 186.689 139.337 186.352 139.958C186.016 140.579 185.957 141.247 185.998 141.706C186.034 142.17 186.144 142.45 186.118 142.464Z" fill="white"/>
<path d="M193.168 137.825C193.118 137.802 193.239 137.467 193.433 137.084C193.623 136.696 193.818 136.399 193.863 136.426C193.913 136.449 193.792 136.784 193.597 137.167C193.408 137.556 193.212 137.852 193.168 137.825Z" fill="white"/>
<path d="M200.026 129.716C200.026 129.716 199.831 129.622 199.489 129.419C199.321 129.32 199.118 129.195 198.864 129.067C198.615 128.934 198.343 128.775 198.018 128.634C197.705 128.484 197.356 128.316 196.971 128.163C196.592 127.994 196.176 127.859 195.741 127.693C194.859 127.401 193.874 127.136 192.825 126.949C191.77 126.766 190.752 126.687 189.828 126.658C189.361 126.658 188.924 126.65 188.511 126.678C188.099 126.686 187.716 126.725 187.369 126.761C187.022 126.787 186.705 126.845 186.429 126.884C186.148 126.917 185.917 126.963 185.722 127.006C185.338 127.076 185.118 127.112 185.118 127.102C185.108 127.091 185.324 127.03 185.71 126.939C185.9 126.891 186.136 126.83 186.412 126.791C186.689 126.742 187.001 126.679 187.354 126.638C187.702 126.592 188.09 126.548 188.502 126.53C188.915 126.492 189.362 126.501 189.83 126.49C190.765 126.51 191.793 126.589 192.863 126.767C193.927 126.96 194.917 127.231 195.809 127.533C196.249 127.695 196.67 127.845 197.043 128.018C197.428 128.172 197.776 128.349 198.09 128.51C198.408 128.666 198.681 128.835 198.929 128.968C199.172 129.105 199.38 129.236 199.538 129.345C199.864 129.562 200.042 129.692 200.041 129.702L200.026 129.716Z" fill="white"/>
<path d="M182.142 169.608C182.142 169.608 181.976 169.586 181.689 169.517C181.402 169.449 180.985 169.325 180.479 169.156C179.472 168.813 178.11 168.221 176.734 167.349C175.359 166.477 174.241 165.504 173.497 164.735C173.127 164.354 172.841 164.031 172.652 163.795C172.469 163.563 172.368 163.432 172.379 163.422C172.389 163.412 172.506 163.529 172.705 163.746C172.905 163.963 173.206 164.271 173.587 164.632C174.349 165.366 175.467 166.319 176.833 167.18C178.199 168.042 179.535 168.648 180.526 169.015C181.021 169.204 181.427 169.339 181.708 169.432C181.988 169.525 182.144 169.578 182.138 169.593L182.142 169.608Z" fill="white"/>
<g clip-path="url(#clip1_149_14003)">
<path d="M222.306 93.0406C222.306 93.0406 219.996 85.419 222.428 71.2028C222.428 71.1892 221.671 70.946 221.658 70.9325C221.996 68.946 222.374 67.0947 222.752 65.5001C222.752 65.4595 222.752 65.4325 222.752 65.4325L205.241 79.2028C206.187 83.5541 205.566 92.2433 205.025 95.946C205.025 95.946 203.377 102.716 212.065 102.027C218.415 101.514 222.293 93.0406 222.293 93.0406H222.306Z" fill="#B97964"/>
<path opacity="0.2" d="M205.633 85.4325L216.199 81.7568C215.591 85.2433 213.064 89.5676 205.565 90.7568C205.565 90.7568 205.89 86.9055 205.647 85.4325H205.633Z" fill="black"/>
<path d="M221.887 56.2703C221.968 68.3514 222.252 75.1622 216.591 81.7027C208.065 91.5271 193.162 87.1487 189.46 75.2973C186.136 64.6352 186.555 46.6622 198.04 41.1757C209.349 35.7703 221.806 44.1892 221.887 56.2703Z" fill="#B97964"/>
<path d="M222.428 41.7028C220.32 35.1893 203.701 36.2433 199.296 39.946C198.634 40.5001 208.822 44.7704 208.2 44.5947L212.943 45.8785C213.645 45.6758 215.104 46.4055 215.983 48.5812C215.983 48.5812 216.712 67.0677 222.306 72.0541C226.373 69.7163 226.116 62.392 227.143 57.946C228.67 51.3244 230.399 41.6622 222.428 41.7028Z" fill="#263238"/>
<path d="M227.319 65.9731C226.562 69.1352 224.414 71.6487 222.117 73.0001C218.644 75.0271 217.037 71.1893 217.118 67.3785C217.185 63.946 217.901 59.7163 221.806 59.2433C225.657 58.7839 228.17 62.3514 227.319 65.9731Z" fill="#B97964"/>
<path d="M204.89 60.9191C204.971 62.1488 204.39 63.1893 203.579 63.2299C202.769 63.2704 202.052 62.3109 201.971 61.0812C201.89 59.8515 202.471 58.8109 203.282 58.7704C204.093 58.7299 204.809 59.6893 204.89 60.9191Z" fill="#263238"/>
<path d="M192.838 61.9866C192.919 63.2163 192.338 64.2568 191.527 64.2974C190.716 64.3379 190 63.3785 189.919 62.1487C189.838 60.919 190.419 59.8784 191.23 59.8379C192.04 59.7974 192.757 60.7568 192.838 61.9866Z" fill="#263238"/>
<path d="M196.715 61.0271C196.715 61.0271 193.229 67.4055 192.148 69.9866C193.972 71.419 196.877 70.5001 196.877 70.5001L196.715 61.0271Z" fill="#A24E3F"/>
<path d="M207.511 54.9055C207.336 55.0001 207.106 54.9866 206.93 54.865C204.782 53.419 202.809 54.2028 202.796 54.2163C202.499 54.3379 202.161 54.2028 202.039 53.9055C201.918 53.6082 202.053 53.2704 202.35 53.1488C202.458 53.1082 204.931 52.1217 207.592 53.919C207.863 54.0947 207.93 54.4596 207.755 54.7163C207.7 54.7974 207.619 54.865 207.538 54.9055H207.511Z" fill="#263238"/>
<path d="M201.188 74.1623C203.188 74.0406 204.674 72.946 206.12 71.3514" stroke="#263238" stroke-width="0.75" stroke-linecap="round" stroke-linejoin="round"/>
<path opacity="0.2" d="M224.346 62.8379C223.806 62.1487 222.806 61.9595 221.982 62.2163C221.158 62.4866 220.496 63.1352 220.036 63.865C219.482 64.7433 219.158 65.7704 219.104 66.8109" stroke="black" stroke-width="0.5" stroke-linecap="round" stroke-linejoin="round"/>
<path d="M187.149 57.1487C187.041 57.1352 186.933 57.0811 186.852 57C186.609 56.7838 186.595 56.419 186.798 56.1892C188.906 53.7973 191.54 54.2027 191.662 54.2027C191.973 54.2568 192.189 54.5541 192.148 54.8649C192.108 55.1757 191.811 55.3919 191.5 55.3514C191.392 55.3244 189.365 55.0541 187.663 56.9595C187.527 57.1081 187.338 57.1757 187.149 57.1487Z" fill="#263238"/>
<path d="M224.536 36.2973C223.414 33.6757 219.874 33.3784 217.266 34.1622C217.118 30.8649 212.673 29.3244 209.984 29.6487C207.187 29.973 206.268 31.1892 206.268 31.1892C206.484 31.2163 205.282 29.6352 204.566 29.0271C201.917 26.7838 197.999 26.3649 195.04 28.0271C192.081 29.6757 190.244 33.3109 190.581 36.8379C188.69 35.2163 185.569 35.5406 184.082 37.5406C182.596 39.5271 183.015 42.8109 184.961 44.3649C182.907 44.6622 181.38 46.9865 181.812 49.1352C182.245 51.2838 184.555 52.7973 186.555 52.2703C186.893 54.6892 187.406 57.7027 187.744 60.1352L190.217 50.9055C191.838 50.1622 192.095 49.3784 192.27 47.5136C193.702 49.7027 195.608 49.3514 198.094 49.0406C200.58 48.7298 202.809 46.8649 203.633 44.3919C205.133 46.6757 207.741 48.2838 210.349 48C212.956 47.7163 215.267 45.2027 215.024 42.446C216.767 44.6622 220.104 45.2703 222.401 43.7838C224.698 42.2973 225.671 38.919 224.536 36.3109V36.2973Z" fill="#263238"/>
<path d="M242.83 92.2838C242.83 92.2838 253.572 92.5811 257.896 104.568C261.868 115.608 271.988 139.946 271.988 139.946L247.803 147.027L238.169 118.203L242.83 92.2703V92.2838Z" fill="#505050"/>
<path d="M203.31 207.243L217.888 238.365C217.888 238.365 194.73 308.081 193.338 315.351C191.946 322.622 191.298 414.162 191.298 414.162L217.064 414.203L227.171 324.905C227.171 324.905 258.463 249.068 260.747 242.892C265.043 231.351 260.531 215.838 260.531 215.838L252.559 204.351L203.296 207.257L203.31 207.243Z" fill="#263238"/>
<path d="M189.163 222.851C189.163 225.689 199.215 322.243 200.864 322.595C202.512 322.946 275.325 402.595 275.325 402.595L295.998 384.432L242.574 311.986L236.656 246.878L234.588 205.946L187.987 209.392L189.163 222.851Z" fill="#263238"/>
<path d="M127.023 122.514L158.573 151.473L173.273 124.095C173.273 124.095 189.311 139.932 188.771 140.176C188.23 140.405 169.882 180.568 156.654 173.365C143.426 166.162 121.065 129.919 121.065 129.919L127.023 122.5V122.514Z" fill="#B97964"/>
<path opacity="0.2" d="M158.573 151.473C158.573 151.473 161.302 155.851 160.964 159.973C160.964 159.973 162.194 157.946 161.816 154.662C161.451 151.378 159.843 149.095 159.843 149.095L158.573 151.459V151.473Z" fill="black"/>
<path d="M187.622 99.473C196.229 103.892 199.688 119.595 181.177 157.446L159.073 140.392C162.613 130.946 166.22 126.027 171.882 114.568C180.867 96.7703 187.622 99.473 187.622 99.473Z" fill="#505050"/>
<path d="M187.352 98.8919C193.432 97.5405 217.591 91.2162 243.425 92.2973L257.071 188.568C257.071 188.568 259.72 201.176 263.354 213.689C238.75 227.946 204.593 230.243 186.258 222.459C186.501 222.838 185.92 212.176 185.136 196.554C183.745 169.013 181.705 126.081 182.34 101.013C182.367 100.392 186.731 99 187.339 98.8648L187.352 98.8919Z" fill="#505050"/>
<path opacity="0.2" d="M183.177 153.257L182.312 122.122L178.381 155.284L181.177 157.446L183.177 153.257Z" fill="black"/>
<path opacity="0.2" d="M249.153 146.635L247.802 147.027L238.993 123.419L245.6 150.432L250.086 150.459L249.153 146.635Z" fill="black"/>
<path d="M130.077 127.527C130.077 127.527 132.496 123.703 131.631 120.068C130.766 116.432 131.05 113.284 130.212 110.622C129.388 107.959 127.875 111.405 127.456 113.405C127.024 115.405 126.524 117.662 125.078 117.095C123.632 116.527 115.242 106.122 113.147 105.568C111.053 105.014 111.877 107.122 111.877 107.122C111.877 107.122 109.769 104.649 108.567 105.216C108.256 105.365 107.77 106.216 108.553 107.486C110.31 110.365 114.323 116.203 114.323 116.203C114.093 115.865 108.634 109.014 107.689 108.095C106.446 106.892 105.243 106.959 104.568 107.703C103.608 108.757 110.094 117.486 110.107 118.054C110.107 118.054 106.54 112.905 104.716 113.095C102.879 113.284 104.946 116.649 107.337 119.27C109.526 121.676 113.188 126.959 115.647 129.189C118.673 131.932 121.335 133.095 124.848 131.568C128.361 130.041 130.091 127.527 130.091 127.527H130.077Z" fill="#B97964"/>
<path opacity="0.3" d="M112.215 107.405C113.85 109.432 115.404 111.527 116.85 113.689" stroke="black" stroke-width="0.25" stroke-linecap="round" stroke-linejoin="round"/>
<path opacity="0.3" d="M111.418 120.108C113.391 117.378 116.174 115.243 119.322 114.068" stroke="black" stroke-width="0.25" stroke-linecap="round" stroke-linejoin="round"/>
<path opacity="0.3" d="M124.646 118.73C123.727 119.743 123.159 121.081 123.092 122.446C123.024 123.811 123.443 125.203 124.267 126.297" stroke="black" stroke-width="0.25" stroke-linecap="round" stroke-linejoin="round"/>
<path d="M270.177 140.473C270.177 140.473 277.46 157.716 280.541 173.189C281.946 180.216 276.325 184.73 270.583 186.122C252.477 190.5 211.673 190.514 211.673 190.514L210.605 178.068L257.598 167.892L249.154 146.635L270.177 140.473Z" fill="#B97964"/>
<path d="M211.565 193.162L196.162 194.905C195.635 194.96 195.108 194.784 194.729 194.405L171.287 171.23C170.314 170.27 170.76 168.622 172.084 168.284L185.636 164.784C186.231 164.635 186.866 164.797 187.298 165.23L212.605 190.162C213.659 191.203 213.037 192.987 211.578 193.149L211.565 193.162Z" fill="#263238"/>
<path d="M213.01 178.135C213.01 178.135 212.578 176.324 205.754 174.243C200.58 172.662 195.432 167.811 194.594 167.987C193.756 168.162 192.838 170.797 194.999 173.122C197.148 175.46 199.377 176.77 198.81 177.662C197.445 179.811 180.596 178.068 180.299 179.906C180.015 181.743 183.217 187.014 192.243 190.527C201.269 194.041 213.632 190.527 213.632 190.527L212.997 178.162L213.01 178.135Z" fill="#B97964"/>
</g>
<path d="M100.546 67.3248C106.721 61.4 116.545 61.5855 122.493 67.7413C128.279 73.7321 128.279 83.2069 122.493 89.1978L113.724 97.9387C112.508 99.1509 110.535 99.1509 109.315 97.9387L100.542 89.1937C94.4861 83.1533 94.4861 73.3651 100.542 67.3248H100.546ZM111.523 85.4499C115.614 85.4499 118.911 82.0484 118.72 77.9294C118.551 74.2722 115.531 71.2624 111.862 71.0933C107.726 70.9037 104.318 74.1898 104.318 78.2675C104.326 82.2298 107.548 85.4375 111.523 85.4375V85.4499Z" fill="url(#paint0_linear_149_14003)"/>
</g>
<defs>
<linearGradient id="paint0_linear_149_14003" x1="94.6248" y1="80.9239" x2="123.5" y2="93.6951" gradientUnits="userSpaceOnUse">
<stop stop-color="#00FF00"/>
<stop offset="1" stop-color="#009900"/>
</linearGradient>
<clipPath id="clip0_149_14003">
<rect width="287" height="222" fill="white"/>
</clipPath>
<clipPath id="clip1_149_14003">
<rect width="177" height="200" fill="white" transform="translate(104 27)"/>
</clipPath>
</defs>
</svg>
