<svg width="257" height="258" viewBox="0 0 257 258" fill="none" xmlns="http://www.w3.org/2000/svg">
<path d="M0.5 40.5C0.5 18.6848 18.1848 1 40 1H217C238.815 1 256.5 18.6848 256.5 40.5V217.5C256.5 239.315 238.815 257 217 257H40C18.1848 257 0.5 239.315 0.5 217.5V40.5Z" fill="url(#paint0_linear_227_22016)"/>
<path d="M0.5 40.5C0.5 18.6848 18.1848 1 40 1H217C238.815 1 256.5 18.6848 256.5 40.5V217.5C256.5 239.315 238.815 257 217 257H40C18.1848 257 0.5 239.315 0.5 217.5V40.5Z" stroke="url(#paint1_linear_227_22016)"/>
<g filter="url(#filter0_i_227_22016)">
<path d="M185.419 53.2063C184.727 53.2928 184.053 53.6041 183.534 54.071L167.969 67.9066C167.242 68.5638 166.827 69.5323 166.827 70.5008V86.3426L114.235 138.935C112.903 140.198 112.868 142.567 114.165 143.881C115.463 145.178 117.832 145.178 119.112 143.864L171.704 91.2715H187.598C188.584 91.2715 189.552 90.8218 190.192 90.0782L204.028 74.5131C204.892 73.5273 205.117 72.0227 204.564 70.8121C204.01 69.6015 202.748 68.7886 201.433 68.7714H189.327V56.6652C189.345 54.6936 187.39 52.9642 185.436 53.2063H185.419ZM116.673 77.4186C81.3406 77.4186 52.6836 106.076 52.6836 141.408C52.6836 176.741 81.3406 205.398 116.673 205.398C152.006 205.398 180.663 176.741 180.663 141.408C180.663 125.584 174.938 111.126 165.426 99.9533L154.341 111.039C161.051 119.358 165.098 129.925 165.098 141.408C165.098 168.111 143.376 189.833 116.673 189.833C89.9705 189.833 68.2486 168.111 68.2486 141.408C68.2486 114.706 89.9705 92.9836 116.673 92.9836C128.139 92.9836 138.689 96.996 146.99 103.689L158.076 92.6032C146.921 83.1258 132.463 77.4186 116.673 77.4186ZM116.673 99.9014C93.7061 99.9014 75.1664 118.441 75.1664 141.408C75.1664 164.375 93.7061 182.915 116.673 182.915C139.64 182.915 158.18 164.375 158.18 141.408C158.18 131.792 154.946 122.92 149.481 115.899L140.782 124.598C144.12 129.371 146.074 135.165 146.074 141.408C146.074 157.613 132.878 170.809 116.673 170.809C100.468 170.809 87.2726 157.613 87.2726 141.408C87.2726 125.203 100.468 112.008 116.673 112.008C122.882 112.008 128.676 113.945 133.432 117.248L142.131 108.549C135.109 103.101 126.272 99.9014 116.673 99.9014ZM116.673 118.925C104.221 118.925 94.1904 128.956 94.1904 141.408C94.1904 153.86 104.221 163.891 116.673 163.891C129.125 163.891 139.156 153.86 139.156 141.408C139.156 137.067 137.928 133.003 135.801 129.579L125.217 140.163C125.269 140.578 125.32 140.976 125.32 141.408C125.32 146.181 121.446 150.055 116.673 150.055C111.9 150.055 108.026 146.181 108.026 141.408C108.026 136.635 111.9 132.761 116.673 132.761C117.071 132.761 117.434 132.813 117.815 132.865L128.468 122.211C125.044 120.119 121.014 118.908 116.69 118.908L116.673 118.925Z" fill="url(#paint2_linear_227_22016)"/>
</g>
<defs>
<filter id="filter0_i_227_22016" x="52.6836" y="53.1836" width="152.182" height="156.214" filterUnits="userSpaceOnUse" color-interpolation-filters="sRGB">
<feFlood flood-opacity="0" result="BackgroundImageFix"/>
<feBlend mode="normal" in="SourceGraphic" in2="BackgroundImageFix" result="shape"/>
<feColorMatrix in="SourceAlpha" type="matrix" values="0 0 0 0 0 0 0 0 0 0 0 0 0 0 0 0 0 0 127 0" result="hardAlpha"/>
<feOffset dy="4"/>
<feGaussianBlur stdDeviation="5"/>
<feComposite in2="hardAlpha" operator="arithmetic" k2="-1" k3="1"/>
<feColorMatrix type="matrix" values="0 0 0 0 1 0 0 0 0 1 0 0 0 0 1 0 0 0 0.35 0"/>
<feBlend mode="normal" in2="shape" result="effect1_innerShadow_227_22016"/>
</filter>
<linearGradient id="paint0_linear_227_22016" x1="17.1811" y1="30.9915" x2="277.193" y2="207.066" gradientUnits="userSpaceOnUse">
<stop stop-color="white"/>
<stop offset="1" stop-color="#F1F1F1"/>
</linearGradient>
<linearGradient id="paint1_linear_227_22016" x1="17.539" y1="10.5186" x2="196.429" y2="191.106" gradientUnits="userSpaceOnUse">
<stop stop-color="#00FF00"/>
<stop offset="1" stop-color="#F1F1F1"/>
</linearGradient>
<linearGradient id="paint2_linear_227_22016" x1="81.5641" y1="68.5723" x2="200.694" y2="204.152" gradientUnits="userSpaceOnUse">
<stop stop-color="#00FF00"/>
<stop offset="1" stop-color="#009900"/>
</linearGradient>
</defs>
</svg>
