<svg width="61" height="61" viewBox="0 0 61 61" fill="none" xmlns="http://www.w3.org/2000/svg">
<rect width="61" height="61" rx="30.5" fill="#222222"/>
<path d="M30.5946 9.00446C22.7631 9.00446 16.3668 15.3963 16.3668 23.2323C16.2776 31.8305 20.735 38.1822 25.4598 44.8415C27.0377 47.0033 28.6111 49.2988 30.0954 51.7281C30.1846 51.9064 30.3673 52 30.5902 52C30.7685 52 30.9512 51.9109 31.0849 51.7281C32.5692 49.339 34.1917 47.0479 35.7652 44.7925C40.4454 38.1287 44.9963 31.8261 44.818 23.2724C44.818 15.3918 38.4262 9 30.5946 9V9.00446ZM30.5946 28.9065C27.4879 28.9065 24.9204 26.3391 24.9204 23.2323C24.9204 20.1255 27.4879 17.5581 30.5946 17.5581C33.7014 17.5581 36.2688 20.1255 36.2688 23.2323C36.2688 26.3391 33.7014 28.9065 30.5946 28.9065Z" fill="#00FF00"/>
</svg>
