<svg width="287" height="222" viewBox="0 0 287 222" fill="none" xmlns="http://www.w3.org/2000/svg">
<g clip-path="url(#clip0_149_13804)">
<path d="M165.648 148.008C165.648 148.008 165.636 147.932 165.627 147.784C165.619 147.616 165.618 147.402 165.609 147.138C165.6 146.853 165.6 146.512 165.622 146.112C165.644 145.711 165.653 145.254 165.715 144.758C165.741 144.511 165.773 144.248 165.805 143.974C165.837 143.701 165.894 143.424 165.943 143.126C166.029 142.541 166.182 141.922 166.332 141.278C166.666 139.986 167.133 138.593 167.752 137.186C168.386 135.785 169.127 134.51 169.865 133.403C170.254 132.861 170.612 132.337 170.992 131.881C171.18 131.65 171.353 131.424 171.534 131.218C171.716 131.012 171.897 130.817 172.063 130.626C172.394 130.243 172.727 129.937 173.009 129.649C173.291 129.362 173.55 129.134 173.766 128.955C173.966 128.781 174.135 128.645 174.261 128.539C174.377 128.442 174.435 128.399 174.44 128.404C174.44 128.404 174.391 128.468 174.285 128.565C174.164 128.677 174.005 128.823 173.814 129.008C173.608 129.197 173.354 129.43 173.087 129.724C172.816 130.012 172.487 130.323 172.161 130.711C171.995 130.902 171.824 131.098 171.642 131.304C171.461 131.51 171.293 131.741 171.116 131.973C170.741 132.424 170.393 132.948 170.014 133.491C169.285 134.598 168.566 135.864 167.932 137.255C167.313 138.651 166.847 140.034 166.508 141.311C166.359 141.955 166.195 142.563 166.105 143.144C166.057 143.431 165.994 143.713 165.957 143.981C165.925 144.254 165.888 144.512 165.857 144.765C165.785 145.26 165.766 145.716 165.739 146.111C165.702 146.506 165.697 146.852 165.69 147.131C165.679 147.395 165.675 147.613 165.673 147.781C165.666 147.933 165.658 148.009 165.653 148.004L165.648 148.008Z" fill="white"/>
<path d="M186.118 142.464C186.118 142.464 185.941 142.207 185.87 141.726C185.794 141.25 185.835 140.541 186.188 139.875C186.552 139.209 187.124 138.791 187.565 138.592C188.016 138.392 188.316 138.38 188.32 138.395C188.329 138.426 188.032 138.485 187.621 138.706C187.215 138.922 186.689 139.337 186.353 139.958C186.016 140.579 185.957 141.247 185.998 141.706C186.034 142.17 186.145 142.45 186.118 142.464Z" fill="white"/>
<path d="M193.168 137.825C193.118 137.802 193.239 137.467 193.434 137.084C193.623 136.696 193.819 136.399 193.863 136.426C193.913 136.449 193.792 136.784 193.598 137.167C193.408 137.556 193.213 137.852 193.168 137.825Z" fill="white"/>
<path d="M200.026 129.716C200.026 129.716 199.831 129.622 199.489 129.419C199.321 129.32 199.118 129.195 198.864 129.067C198.615 128.934 198.343 128.775 198.018 128.634C197.705 128.484 197.356 128.316 196.971 128.163C196.592 127.994 196.176 127.859 195.741 127.693C194.859 127.401 193.874 127.136 192.825 126.949C191.77 126.766 190.752 126.687 189.828 126.658C189.361 126.658 188.924 126.65 188.511 126.678C188.099 126.686 187.716 126.725 187.369 126.761C187.022 126.787 186.705 126.845 186.429 126.884C186.148 126.917 185.917 126.963 185.722 127.006C185.338 127.076 185.118 127.112 185.118 127.102C185.108 127.091 185.324 127.03 185.71 126.939C185.9 126.891 186.136 126.83 186.412 126.791C186.689 126.742 187.001 126.679 187.354 126.638C187.702 126.592 188.09 126.548 188.502 126.53C188.915 126.492 189.362 126.501 189.83 126.49C190.765 126.51 191.793 126.589 192.863 126.767C193.927 126.96 194.917 127.231 195.809 127.533C196.249 127.695 196.67 127.845 197.043 128.018C197.428 128.172 197.776 128.349 198.09 128.51C198.408 128.666 198.681 128.835 198.929 128.968C199.172 129.105 199.38 129.236 199.538 129.345C199.864 129.562 200.042 129.692 200.041 129.702L200.026 129.716Z" fill="white"/>
<path d="M182.143 169.608C182.143 169.608 181.976 169.586 181.689 169.517C181.402 169.449 180.986 169.325 180.48 169.156C179.473 168.813 178.11 168.221 176.735 167.349C175.359 166.477 174.242 165.504 173.497 164.735C173.127 164.354 172.841 164.031 172.653 163.795C172.469 163.563 172.368 163.432 172.379 163.422C172.39 163.412 172.507 163.529 172.706 163.746C172.905 163.963 173.207 164.271 173.588 164.632C174.349 165.366 175.467 166.319 176.833 167.18C178.199 168.042 179.536 168.648 180.526 169.015C181.021 169.204 181.427 169.339 181.708 169.432C181.989 169.525 182.144 169.578 182.138 169.593L182.143 169.608Z" fill="white"/>
<g clip-path="url(#clip1_149_13804)">
<path d="M276.622 279L183.313 278.943C172.092 278.943 163 269.864 163 258.668L163.049 25.275C163.049 14.0715 172.157 5 183.386 5L276.695 5.05675C287.916 5.05675 297.008 14.1444 297.008 25.3398L296.959 258.733C296.959 269.937 287.851 279.016 276.622 279.008V279Z" fill="#494949"/>
<path d="M276.59 13.3094H258.503C256.074 13.3013 254.107 15.3442 254.107 17.8816V21.1567C254.107 23.686 252.141 25.737 249.712 25.737L214.449 25.7127C212.019 25.7127 210.053 23.6617 210.053 21.1324V17.8573C210.053 15.328 208.087 13.277 205.665 13.277H199.303L183.467 13.2607C175.602 13.2607 169.224 19.6164 169.224 27.4638L169.183 255.272C169.183 263.111 175.553 269.475 183.41 269.475L276.533 269.531C284.398 269.531 290.776 263.176 290.776 255.328L290.817 27.5205C290.817 19.6813 284.447 13.3175 276.59 13.3175V13.3094Z" fill="#797979"/>
<path d="M178.974 44.1475C178.974 44.1475 179.039 44.1394 179.153 44.1313C179.299 44.1313 179.462 44.1232 179.64 44.1151C180.12 44.0989 180.713 44.0827 181.444 44.0665L181.379 44.1313C181.379 43.7341 181.363 43.2963 181.355 42.8261C181.355 42.5829 181.33 42.3559 181.355 42.0722C181.403 41.7885 181.663 41.5291 181.972 41.5047C182.265 41.5047 182.517 41.4885 182.842 41.5047C183.175 41.5453 183.459 41.8695 183.451 42.2181C183.451 42.8261 183.467 43.4666 183.475 44.1232L183.37 44.0178C184.101 44.0178 184.865 44.0016 185.645 43.9935L185.539 44.107C185.531 43.1909 185.523 42.2506 185.515 41.2777C185.515 41.0345 185.515 40.7994 185.515 40.5562C185.515 40.3455 185.385 40.2077 185.198 40.0374C184.865 39.705 184.532 39.3808 184.207 39.0565C183.882 38.7322 183.565 38.4242 183.248 38.108C183.094 37.954 182.939 37.8 182.785 37.6459C182.622 37.4919 182.5 37.3379 182.322 37.2973C182.151 37.2487 181.956 37.2892 181.818 37.3946C181.688 37.5081 181.533 37.6702 181.395 37.8081C181.119 38.0918 180.843 38.3674 180.575 38.6268C180.063 39.1538 179.527 39.6483 179.137 40.1023C178.974 40.3455 179.031 40.6535 179.023 40.9373C179.023 41.221 179.023 41.4804 179.023 41.7317C179.023 42.2181 179.015 42.6478 179.007 43.0207C179.007 43.3369 178.998 43.6125 178.99 43.8476C178.99 44.0421 178.982 44.1394 178.974 44.1475C178.974 44.1475 178.966 44.0584 178.958 43.88C178.958 43.653 178.942 43.3855 178.933 43.0693C178.925 42.6883 178.909 42.2587 178.901 41.7723C178.901 41.5128 178.893 41.2372 178.885 40.9535C178.893 40.6778 178.82 40.3374 179.007 40.0212C179.429 39.5024 179.933 39.0484 180.445 38.4971C180.705 38.2296 180.973 37.954 181.257 37.6702C181.403 37.5243 181.517 37.3865 181.696 37.2325C181.883 37.0866 182.143 37.0379 182.37 37.1028C182.622 37.1595 182.785 37.3622 182.923 37.5C183.077 37.654 183.232 37.8 183.394 37.954C183.711 38.262 184.028 38.5782 184.361 38.8944C184.686 39.2186 185.019 39.5429 185.36 39.8672C185.523 40.005 185.75 40.2482 185.742 40.54C185.742 40.7832 185.742 41.0183 185.742 41.2615C185.742 42.2262 185.759 43.1747 185.767 44.0908V44.2043H185.661C184.881 44.2043 184.117 44.2124 183.386 44.2205H183.28V44.1151C183.28 43.4585 183.28 42.818 183.272 42.21C183.28 41.9425 183.077 41.7074 182.825 41.675C182.573 41.6588 182.257 41.675 182.005 41.675C181.769 41.6912 181.566 41.8858 181.525 42.1046C181.501 42.3235 181.525 42.5991 181.517 42.8261C181.517 43.2963 181.517 43.726 181.517 44.1313V44.1962H181.452C180.713 44.1962 180.103 44.18 179.616 44.18C179.437 44.18 179.283 44.18 179.137 44.1719C179.031 44.1719 178.974 44.1719 178.982 44.1638L178.974 44.1475Z" fill="white"/>
<path d="M224.369 42.4451C224.369 43.0044 223.922 43.3287 223.069 43.3287H221.387V40.0779H222.98C223.792 40.0779 224.215 40.4184 224.215 40.921C224.215 41.2453 224.044 41.4966 223.784 41.6344C224.15 41.7479 224.378 42.0316 224.378 42.4369L224.369 42.4451ZM222.135 40.6535V41.4155H222.882C223.248 41.4155 223.451 41.2858 223.451 41.0264C223.451 40.767 223.248 40.6454 222.882 40.6454H222.135V40.6535ZM223.614 42.3721C223.614 42.0965 223.402 41.9668 223.012 41.9668H222.135V42.7693H223.012C223.402 42.7693 223.614 42.6477 223.614 42.3721Z" fill="white"/>
<path d="M227.083 42.6315H225.572L225.288 43.3287H224.516L225.97 40.0779H226.718L228.172 43.3287H227.384L227.099 42.6315H227.083ZM226.848 42.064L226.336 40.8237L225.816 42.064H226.848Z" fill="white"/>
<path d="M231.479 40.0779V43.3287H230.861L229.236 41.3587V43.3287H228.489V40.0779H229.114L230.731 42.0478V40.0779H231.471H231.479Z" fill="white"/>
<path d="M233.437 42.0559L232.998 42.5099V43.3287H232.251V40.0779H232.998V41.5938L234.436 40.0779H235.273L233.925 41.529L235.355 43.3287H234.477L233.437 42.0559Z" fill="white"/>
<path d="M277.646 38.3511C277.646 38.724 277.337 39.024 276.963 39.024C276.589 39.024 276.289 38.7159 276.289 38.343C276.289 37.9701 276.598 37.6702 276.971 37.6702C277.345 37.6702 277.646 37.9782 277.646 38.3511Z" fill="white"/>
<path d="M277.638 40.7913C277.638 41.1642 277.329 41.4723 276.955 41.4642C276.581 41.4642 276.281 41.1561 276.281 40.7832C276.281 40.4103 276.59 40.1104 276.963 40.1104C277.337 40.1104 277.638 40.4184 277.638 40.7913Z" fill="white"/>
<path d="M277.63 43.2233C277.63 43.5962 277.321 43.8962 276.947 43.8962C276.573 43.8962 276.273 43.5881 276.273 43.2152C276.273 42.8423 276.581 42.5424 276.955 42.5424C277.329 42.5424 277.63 42.8504 277.63 43.2233Z" fill="white"/>
<path d="M229.577 121.397C217.763 121.397 208.151 111.806 208.151 100.019C208.151 88.232 217.763 78.6417 229.577 78.6417C241.391 78.6417 251.003 88.232 251.003 100.019C251.003 111.806 241.391 121.397 229.577 121.397ZM229.577 80.2712C218.657 80.2712 209.776 89.1319 209.776 100.027C209.776 110.923 218.657 119.783 229.577 119.783C240.498 119.783 249.378 110.923 249.378 100.027C249.378 89.1319 240.498 80.2712 229.577 80.2712Z" fill="#00FF00"/>
<path d="M220.039 100.416L222.785 97.6763L228.074 102.37L238.466 92.3907L241.018 95.1308L227.684 107.656L220.039 100.416Z" fill="#00FF00"/>
<path d="M200.668 135.956L201.237 134.692C201.846 135.138 202.765 135.446 203.634 135.446C204.625 135.446 205.031 135.113 205.031 134.667C205.031 133.314 200.815 134.246 200.815 131.554C200.815 130.322 201.806 129.301 203.87 129.301C204.78 129.301 205.714 129.52 206.388 129.941L205.868 131.214C205.194 130.833 204.503 130.647 203.861 130.647C202.87 130.647 202.48 131.019 202.48 131.473C202.48 132.811 206.697 131.887 206.697 134.546C206.697 135.754 205.69 136.791 203.618 136.791C202.464 136.791 201.31 136.451 200.66 135.956H200.668Z" fill="white"/>
<path d="M213.352 131.109V136.67H211.816V136.005C211.393 136.491 210.768 136.751 210.085 136.751C208.688 136.751 207.705 135.965 207.705 134.246V131.1H209.321V134.003C209.321 134.935 209.736 135.348 210.451 135.348C211.166 135.348 211.735 134.87 211.735 133.849V131.1H213.352V131.109Z" fill="white"/>
<path d="M214.44 133.889C214.44 132.211 215.732 131.027 217.552 131.027C218.722 131.027 219.649 131.53 220.047 132.446L218.796 133.119C218.495 132.592 218.048 132.357 217.544 132.357C216.724 132.357 216.082 132.924 216.082 133.897C216.082 134.87 216.724 135.438 217.544 135.438C218.056 135.438 218.495 135.211 218.796 134.676L220.047 135.356C219.641 136.248 218.722 136.759 217.552 136.759C215.74 136.759 214.44 135.567 214.44 133.897V133.889Z" fill="white"/>
<path d="M220.502 133.889C220.502 132.211 221.794 131.027 223.614 131.027C224.784 131.027 225.71 131.53 226.108 132.446L224.857 133.119C224.556 132.592 224.109 132.357 223.606 132.357C222.785 132.357 222.143 132.924 222.143 133.897C222.143 134.87 222.785 135.438 223.606 135.438C224.109 135.438 224.556 135.211 224.857 134.676L226.108 135.356C225.702 136.248 224.784 136.759 223.614 136.759C221.802 136.759 220.502 135.567 220.502 133.897V133.889Z" fill="white"/>
<path d="M232.397 134.343H228.18C228.334 135.032 228.928 135.462 229.773 135.462C230.366 135.462 230.788 135.283 231.17 134.927L232.031 135.859C231.511 136.451 230.739 136.759 229.732 136.759C227.806 136.759 226.547 135.551 226.547 133.897C226.547 132.243 227.823 131.036 229.521 131.036C231.219 131.036 232.421 132.13 232.421 133.922C232.421 134.043 232.397 134.221 232.389 134.359L232.397 134.343ZM228.156 133.403H230.902C230.788 132.697 230.26 132.243 229.537 132.243C228.814 132.243 228.269 132.689 228.156 133.403Z" fill="white"/>
<path d="M232.966 136.159L233.502 135C233.998 135.324 234.753 135.535 235.444 135.535C236.192 135.535 236.468 135.34 236.468 135.032C236.468 134.124 233.096 135.057 233.096 132.827C233.096 131.773 234.046 131.027 235.68 131.027C236.443 131.027 237.297 131.206 237.825 131.514L237.288 132.665C236.736 132.357 236.192 132.252 235.68 132.252C234.956 132.252 234.64 132.479 234.64 132.77C234.64 133.719 238.012 132.803 238.012 134.992C238.012 136.029 237.045 136.759 235.379 136.759C234.436 136.759 233.486 136.5 232.966 136.159Z" fill="white"/>
<path d="M238.475 136.159L239.011 135C239.507 135.324 240.262 135.535 240.945 135.535C241.692 135.535 241.968 135.34 241.968 135.032C241.968 134.124 238.597 135.057 238.597 132.827C238.597 131.773 239.547 131.027 241.18 131.027C241.944 131.027 242.797 131.206 243.325 131.514L242.789 132.665C242.237 132.357 241.692 132.252 241.18 132.252C240.457 132.252 240.14 132.479 240.14 132.77C240.14 133.719 243.512 132.803 243.512 134.992C243.512 136.029 242.545 136.759 240.88 136.759C239.937 136.759 238.987 136.5 238.467 136.159H238.475Z" fill="white"/>
<path d="M246.283 131.23H247.713V132.47H246.324V136.67H244.707V132.47H243.845V131.23H244.707V130.979C244.707 129.73 245.47 128.912 246.86 128.912C247.315 128.912 247.794 129.001 248.095 129.212L247.672 130.379C247.494 130.257 247.266 130.184 247.022 130.184C246.543 130.184 246.283 130.444 246.283 130.987V131.222V131.23Z" fill="white"/>
<path d="M254.14 131.109V136.67H252.604V136.005C252.182 136.491 251.556 136.751 250.874 136.751C249.476 136.751 248.493 135.965 248.493 134.246V131.1H250.11V134.003C250.11 134.935 250.524 135.348 251.239 135.348C251.954 135.348 252.523 134.87 252.523 133.849V131.1H254.14V131.109Z" fill="white"/>
<path d="M255.643 129.001H257.26V136.678H255.643V129.001Z" fill="white"/>
<path d="M220.429 164.816V165.878H219.965V164.825C219.055 164.776 218.202 164.444 217.747 163.981L218.015 163.454C218.446 163.868 219.185 164.184 219.965 164.233V161.793C218.942 161.541 217.902 161.225 217.902 160.001C217.902 159.109 218.544 158.339 219.965 158.234V157.172H220.429V158.226C221.127 158.25 221.818 158.461 222.314 158.801L222.078 159.344C221.558 159.012 220.965 158.834 220.429 158.809V161.266C221.477 161.517 222.582 161.809 222.582 163.057C222.582 163.957 221.907 164.735 220.429 164.816ZM219.965 161.144V158.826C219.007 158.907 218.584 159.401 218.584 159.985C218.584 160.69 219.21 160.949 219.965 161.144ZM221.907 163.09C221.907 162.36 221.233 162.109 220.429 161.914V164.233C221.452 164.16 221.907 163.69 221.907 163.09Z" fill="white"/>
<path d="M227.733 158.282V164.768H227.067V158.874H225.531V158.282H227.733Z" fill="white"/>
<path d="M229.285 161.525C229.285 159.458 230.374 158.226 231.877 158.226C233.38 158.226 234.477 159.458 234.477 161.525C234.477 163.592 233.38 164.824 231.877 164.824C230.374 164.824 229.285 163.592 229.285 161.525ZM233.786 161.525C233.786 159.79 233.006 158.842 231.877 158.842C230.748 158.842 229.968 159.798 229.968 161.525C229.968 163.252 230.748 164.208 231.877 164.208C233.006 164.208 233.786 163.252 233.786 161.525Z" fill="white"/>
<path d="M235.428 161.525C235.428 159.458 236.517 158.226 238.02 158.226C239.523 158.226 240.62 159.458 240.62 161.525C240.62 163.592 239.523 164.824 238.02 164.824C236.517 164.824 235.428 163.592 235.428 161.525ZM239.929 161.525C239.929 159.79 239.149 158.842 238.02 158.842C236.89 158.842 236.11 159.798 236.11 161.525C236.11 163.252 236.89 164.208 238.02 164.208C239.149 164.208 239.929 163.252 239.929 161.525Z" fill="white"/>
<path d="M215.943 145.847C215.7 146.057 215.334 146.155 214.977 146.155C214.083 146.155 213.579 145.66 213.579 144.777V142.361H212.832V141.704H213.579V140.739H214.375V141.704H215.643V142.361H214.375V144.744C214.375 145.214 214.627 145.482 215.066 145.482C215.302 145.482 215.521 145.409 215.692 145.271L215.943 145.847Z" fill="white"/>
<path d="M219.283 141.656V142.426C219.218 142.426 219.161 142.426 219.096 142.426C218.235 142.426 217.707 142.953 217.707 143.917V146.114H216.91V141.712H217.674V142.45C217.959 141.931 218.511 141.672 219.283 141.672V141.656Z" fill="white"/>
<path d="M223.752 143.439V146.098H222.996V145.514C222.728 145.911 222.241 146.147 221.55 146.147C220.551 146.147 219.917 145.612 219.917 144.85C219.917 144.144 220.372 143.561 221.688 143.561H222.956V143.407C222.956 142.734 222.566 142.345 221.769 142.345C221.241 142.345 220.713 142.531 220.372 142.815L220.039 142.215C220.494 141.85 221.152 141.647 221.867 141.647C223.077 141.647 223.76 142.231 223.76 143.431L223.752 143.439ZM222.956 144.752V144.136H221.721C220.932 144.136 220.705 144.444 220.705 144.817C220.705 145.255 221.071 145.53 221.68 145.53C222.289 145.53 222.752 145.255 222.956 144.752Z" fill="white"/>
<path d="M229.423 143.569V146.106H228.627V143.666C228.627 142.799 228.196 142.377 227.432 142.377C226.579 142.377 226.035 142.88 226.035 143.836V146.106H225.239V141.704H226.002V142.369C226.327 141.923 226.896 141.664 227.595 141.664C228.667 141.664 229.431 142.28 229.431 143.577L229.423 143.569Z" fill="white"/>
<path d="M230.341 145.636L230.674 145.004C231.048 145.271 231.649 145.458 232.226 145.458C232.966 145.458 233.274 145.231 233.274 144.858C233.274 143.869 230.488 144.728 230.488 142.969C230.488 142.182 231.194 141.647 232.332 141.647C232.909 141.647 233.559 141.793 233.941 142.045L233.599 142.677C233.201 142.417 232.754 142.328 232.324 142.328C231.625 142.328 231.284 142.588 231.284 142.936C231.284 143.974 234.087 143.131 234.087 144.841C234.087 145.636 233.356 146.147 232.178 146.147C231.446 146.147 230.723 145.92 230.349 145.628L230.341 145.636Z" fill="white"/>
<path d="M235.972 141.315V141.696H237.256V142.353H235.988V146.098H235.192V142.353H234.444V141.696H235.192V141.307C235.192 140.448 235.704 139.888 236.646 139.888C236.988 139.888 237.321 139.969 237.548 140.148L237.304 140.756C237.134 140.634 236.923 140.545 236.687 140.545C236.216 140.545 235.972 140.812 235.972 141.315Z" fill="white"/>
<path d="M241.919 144.169H238.336C238.434 144.939 239.059 145.458 239.937 145.458C240.457 145.458 240.888 145.287 241.213 144.923L241.651 145.441C241.253 145.903 240.644 146.155 239.913 146.155C238.491 146.155 237.54 145.214 237.54 143.901C237.54 142.588 238.483 141.656 239.758 141.656C241.034 141.656 241.944 142.572 241.944 143.925C241.944 143.99 241.936 144.096 241.928 144.169H241.919ZM238.336 143.593H241.172C241.091 142.855 240.53 142.328 239.758 142.328C238.986 142.328 238.426 142.847 238.344 143.593H238.336Z" fill="white"/>
<path d="M245.413 141.656V142.426C245.348 142.426 245.291 142.426 245.226 142.426C244.365 142.426 243.837 142.953 243.837 143.917V146.114H243.041V141.712H243.805V142.45C244.089 141.931 244.641 141.672 245.413 141.672V141.656Z" fill="white"/>
<path d="M257.382 192.079H201.018C195.296 192.079 190.658 196.707 190.658 202.416V207.036C190.658 212.745 195.296 217.373 201.018 217.373H257.382C263.103 217.373 267.741 212.745 267.741 207.036V202.416C267.741 196.707 263.103 192.079 257.382 192.079Z" fill="#00FF00"/>
<path d="M218.666 201.816H220.786C222.403 201.816 223.5 202.829 223.5 204.321C223.5 205.812 222.403 206.826 220.786 206.826H218.666V201.816ZM220.737 206.21C221.981 206.21 222.777 205.448 222.777 204.329C222.777 203.21 221.981 202.448 220.737 202.448H219.381V206.218H220.737V206.21Z" fill="#373737"/>
<path d="M224.183 204.321C224.183 202.853 225.32 201.759 226.856 201.759C228.391 201.759 229.521 202.845 229.521 204.321C229.521 205.796 228.383 206.882 226.856 206.882C225.328 206.882 224.183 205.788 224.183 204.321ZM228.806 204.321C228.806 203.21 227.977 202.391 226.864 202.391C225.751 202.391 224.906 203.21 224.906 204.321C224.906 205.431 225.735 206.25 226.864 206.25C227.993 206.25 228.806 205.431 228.806 204.321Z" fill="#373737"/>
<path d="M234.932 201.816V206.826H234.347L231.333 203.088V206.826H230.618V201.816H231.203L234.217 205.553V201.816H234.932Z" fill="#373737"/>
<path d="M240.084 206.209V206.834H236.435V201.824H239.978V202.448H237.15V203.988H239.669V204.596H237.15V206.218H240.075L240.084 206.209Z" fill="#373737"/>
</g>
</g>
<defs>
<clipPath id="clip0_149_13804">
<rect width="287" height="222" fill="white"/>
</clipPath>
<clipPath id="clip1_149_13804">
<rect width="134" height="274" fill="white" transform="translate(163 5)"/>
</clipPath>
</defs>
</svg>
