<svg width="287" height="222" viewBox="0 0 287 222" fill="none" xmlns="http://www.w3.org/2000/svg">
<g clip-path="url(#clip0_149_13642)">
<path d="M165.648 148.008C165.648 148.008 165.636 147.932 165.627 147.784C165.619 147.616 165.618 147.402 165.609 147.138C165.6 146.853 165.6 146.512 165.622 146.112C165.644 145.711 165.653 145.254 165.715 144.758C165.741 144.511 165.773 144.248 165.805 143.974C165.837 143.701 165.894 143.424 165.943 143.126C166.029 142.541 166.182 141.922 166.332 141.278C166.666 139.986 167.133 138.593 167.752 137.186C168.386 135.785 169.127 134.51 169.865 133.403C170.254 132.861 170.612 132.337 170.992 131.881C171.18 131.65 171.353 131.424 171.534 131.218C171.716 131.012 171.897 130.817 172.063 130.626C172.394 130.243 172.727 129.937 173.009 129.649C173.291 129.362 173.55 129.134 173.766 128.955C173.966 128.781 174.135 128.645 174.261 128.539C174.377 128.442 174.435 128.399 174.44 128.404C174.44 128.404 174.391 128.468 174.285 128.565C174.164 128.677 174.005 128.823 173.814 129.008C173.608 129.197 173.354 129.43 173.087 129.724C172.816 130.012 172.487 130.323 172.161 130.711C171.995 130.902 171.824 131.098 171.642 131.304C171.461 131.51 171.293 131.741 171.116 131.973C170.741 132.424 170.393 132.948 170.014 133.491C169.285 134.598 168.566 135.864 167.932 137.255C167.313 138.651 166.847 140.034 166.508 141.311C166.359 141.955 166.195 142.563 166.105 143.144C166.057 143.431 165.994 143.713 165.957 143.981C165.925 144.254 165.888 144.512 165.857 144.765C165.785 145.26 165.766 145.716 165.739 146.111C165.702 146.506 165.697 146.852 165.69 147.131C165.679 147.395 165.675 147.613 165.673 147.781C165.666 147.933 165.658 148.009 165.653 148.004L165.648 148.008Z" fill="white"/>
<path d="M186.118 142.464C186.118 142.464 185.941 142.207 185.87 141.726C185.794 141.25 185.835 140.541 186.188 139.875C186.552 139.209 187.124 138.791 187.565 138.592C188.016 138.392 188.316 138.38 188.32 138.395C188.329 138.426 188.032 138.485 187.621 138.706C187.215 138.922 186.689 139.337 186.353 139.958C186.016 140.579 185.957 141.247 185.998 141.706C186.034 142.17 186.145 142.45 186.118 142.464Z" fill="white"/>
<path d="M193.168 137.825C193.118 137.802 193.239 137.467 193.434 137.084C193.623 136.696 193.819 136.399 193.863 136.426C193.913 136.449 193.792 136.784 193.598 137.167C193.408 137.556 193.213 137.852 193.168 137.825Z" fill="white"/>
<path d="M200.026 129.716C200.026 129.716 199.831 129.622 199.489 129.419C199.321 129.32 199.118 129.195 198.864 129.067C198.615 128.934 198.343 128.775 198.018 128.634C197.705 128.484 197.356 128.316 196.971 128.163C196.592 127.994 196.176 127.859 195.741 127.693C194.859 127.401 193.874 127.136 192.825 126.949C191.77 126.766 190.752 126.687 189.828 126.658C189.361 126.658 188.924 126.65 188.511 126.678C188.099 126.686 187.716 126.725 187.369 126.761C187.022 126.787 186.705 126.845 186.429 126.884C186.148 126.917 185.917 126.963 185.722 127.006C185.338 127.076 185.118 127.112 185.118 127.102C185.108 127.091 185.324 127.03 185.71 126.939C185.9 126.891 186.136 126.83 186.412 126.791C186.689 126.742 187.001 126.679 187.354 126.638C187.702 126.592 188.09 126.548 188.502 126.53C188.915 126.492 189.362 126.501 189.83 126.49C190.765 126.51 191.793 126.589 192.863 126.767C193.927 126.96 194.917 127.231 195.809 127.533C196.249 127.695 196.67 127.845 197.043 128.018C197.428 128.172 197.776 128.349 198.09 128.51C198.408 128.666 198.681 128.835 198.929 128.968C199.172 129.105 199.38 129.236 199.538 129.345C199.864 129.562 200.042 129.692 200.041 129.702L200.026 129.716Z" fill="white"/>
<path d="M182.143 169.608C182.143 169.608 181.976 169.586 181.689 169.517C181.402 169.449 180.986 169.325 180.48 169.156C179.473 168.813 178.11 168.221 176.735 167.349C175.359 166.477 174.242 165.504 173.497 164.735C173.127 164.354 172.841 164.031 172.653 163.795C172.469 163.563 172.368 163.432 172.379 163.422C172.39 163.412 172.507 163.529 172.706 163.746C172.905 163.963 173.207 164.271 173.588 164.632C174.349 165.366 175.467 166.319 176.833 167.18C178.199 168.042 179.536 168.648 180.526 169.015C181.021 169.204 181.427 169.339 181.708 169.432C181.989 169.525 182.144 169.578 182.138 169.593L182.143 169.608Z" fill="white"/>
<path d="M167.727 201.848C178.703 210.269 194.427 208.198 202.848 197.222C211.269 186.247 209.198 170.523 198.222 162.102C187.247 153.681 171.523 155.752 163.101 166.727C154.68 177.703 156.751 193.427 167.727 201.848Z" fill="#00FF00"/>
<g opacity="0.1">
<path d="M194.121 159.538C181.728 153.387 166.696 158.442 160.54 170.83C160.54 170.83 175.952 179.367 182.898 174.901C189.843 170.435 194.116 159.543 194.116 159.543L194.121 159.538Z" fill="white"/>
</g>
<path d="M174.287 198.475C183.695 203.177 195.135 199.362 199.837 189.954C204.54 180.546 200.725 169.106 191.317 164.404C181.908 159.701 170.469 163.516 165.766 172.924C161.064 182.333 164.878 193.772 174.287 198.475Z" fill="#00FF00"/>
<g opacity="0.2">
<path d="M174.287 198.475C183.695 203.177 195.135 199.363 199.837 189.954C204.54 180.546 200.725 169.106 191.317 164.404C181.908 159.701 170.469 163.516 165.766 172.924C161.064 182.333 164.878 193.772 174.287 198.475Z" fill="black"/>
</g>
<path d="M199.979 190.864C195.364 200.161 184.091 203.948 174.794 199.333C165.497 194.717 161.709 183.444 166.325 174.147C170.941 164.85 182.213 161.062 191.511 165.678C200.808 170.294 204.595 181.567 199.979 190.864Z" fill="#00FF00"/>
<g opacity="0.2">
<path d="M199.979 190.864C195.364 200.161 184.091 203.948 174.794 199.333C165.497 194.717 161.709 183.444 166.325 174.147C170.941 164.85 182.213 161.062 191.511 165.678C200.808 170.294 204.595 181.567 199.979 190.864Z" fill="white"/>
</g>
<path d="M184.547 181.381L186.688 177.076C186.688 177.076 186.698 177.086 186.708 177.087C187.41 177.544 188.086 178.132 188.697 178.819C189.173 179.464 189.434 180.024 189.434 180.024L189.55 179.917L190.989 178.703L191.317 178.422L190.95 177.238L190.499 177.223C189.792 176.283 188.905 175.382 187.828 174.771L189.007 172.402L188.565 171.443L188.271 172.035L187.26 171.53L186.06 173.938C182.574 172.605 180.051 173.722 178.972 175.892C177.499 178.853 179.658 180.887 181.739 182.633L179.62 186.898C178.07 185.943 176.784 184.531 176.161 183.162L174.132 184.839C174.764 186.345 176.456 188.039 178.48 189.203L177.595 190.99L176.753 190.593L177.301 191.572L179.053 192.44L180.243 190.051C183.759 191.375 186.291 190.289 187.375 188.114C188.849 185.153 186.638 183.117 184.558 181.371L184.547 181.381ZM183.018 180.065C181.962 179.085 181.274 178.166 181.786 177.141C182.252 176.205 183.273 175.756 184.903 176.268L183.018 180.065ZM181.384 187.736L183.258 183.959C184.359 184.956 185.05 185.911 184.532 186.961C184.076 187.877 183.058 188.275 181.384 187.736Z" fill="#00FF00"/>
<g opacity="0.3">
<path d="M184.547 181.381L186.688 177.076C186.688 177.076 186.698 177.086 186.708 177.087C187.41 177.544 188.086 178.132 188.697 178.819C189.173 179.464 189.434 180.024 189.434 180.024L189.55 179.917L190.989 178.703L191.317 178.422L190.95 177.238L190.499 177.223C189.792 176.283 188.905 175.382 187.828 174.771L189.007 172.402L188.565 171.443L188.271 172.035L187.26 171.53L186.06 173.938C182.574 172.605 180.051 173.722 178.972 175.892C177.499 178.853 179.658 180.887 181.739 182.633L179.62 186.898C178.07 185.943 176.784 184.531 176.161 183.162L174.132 184.839C174.764 186.345 176.456 188.039 178.48 189.203L177.595 190.99L176.753 190.593L177.301 191.572L179.053 192.44L180.243 190.051C183.759 191.375 186.291 190.289 187.375 188.114C188.849 185.153 186.638 183.117 184.558 181.371L184.547 181.381ZM183.018 180.065C181.962 179.085 181.274 178.166 181.786 177.141C182.252 176.205 183.273 175.756 184.903 176.268L183.018 180.065ZM181.384 187.736L183.258 183.959C184.359 184.956 185.05 185.911 184.532 186.961C184.076 187.877 183.058 188.275 181.384 187.736Z" fill="black"/>
</g>
<path d="M179.805 189.117L178.615 191.506L176.863 190.638L178.042 188.269C176.018 187.105 174.326 185.412 173.694 183.906L175.723 182.229C176.34 183.602 177.637 185.014 179.187 185.97L181.306 181.705C179.22 179.954 177.066 177.925 178.544 174.959C179.628 172.784 182.146 171.672 185.632 173.005L186.833 170.596L188.585 171.464L187.406 173.833C188.944 174.702 190.308 175.965 191.091 177.284L189.147 179C188.345 177.777 187.329 176.818 186.261 176.132L184.12 180.437C186.205 182.189 188.411 184.219 186.937 187.18C185.853 189.355 183.326 190.437 179.805 189.117ZM182.59 179.122L184.475 175.324C182.841 174.807 181.82 175.256 181.358 176.197C180.847 177.223 181.529 178.146 182.59 179.122ZM184.11 186.023C184.632 184.978 183.931 184.023 182.835 183.02L180.961 186.798C182.636 187.337 183.654 186.939 184.11 186.023Z" fill="#00C700"/>
<g clip-path="url(#clip1_149_13642)">
<path d="M256.256 120.248C275.229 116.919 287.913 98.8393 284.584 79.8653C281.255 60.8914 263.176 48.2083 244.202 51.5369C225.228 54.8654 212.545 72.9451 215.873 91.9191C219.202 110.893 237.282 123.576 256.256 120.248Z" fill="#00FF00"/>
<g opacity="0.1">
<path d="M237.71 53.33C219.73 60.25 210.76 80.43 217.67 98.41C217.67 98.41 240.94 90.64 242.9 79.31C244.86 67.98 237.71 53.34 237.71 53.34V53.33Z" fill="white"/>
</g>
<path d="M258.973 110.342C272.657 105.12 279.516 89.7928 274.293 76.109C269.07 62.4252 253.744 55.566 240.06 60.7886C226.376 66.0112 219.517 81.3379 224.74 95.0217C229.962 108.706 245.289 115.565 258.973 110.342Z" fill="#00FF00"/>
<g opacity="0.2">
<path d="M258.973 110.342C272.657 105.12 279.516 89.7928 274.293 76.109C269.07 62.4252 253.744 55.566 240.06 60.7886C226.376 66.0112 219.517 81.3379 224.74 95.0217C229.962 108.706 245.289 115.565 258.973 110.342Z" fill="black"/>
</g>
<path d="M275.36 76.8199C280.55 90.3099 273.82 105.44 260.33 110.63C246.84 115.82 231.71 109.09 226.52 95.5999C221.33 82.1099 228.06 66.9799 241.55 61.7899C255.04 56.5999 270.17 63.3299 275.36 76.8199Z" fill="#00FF00"/>
<g opacity="0.2">
<path d="M275.36 76.8199C280.55 90.3099 273.82 105.44 260.33 110.63C246.84 115.82 231.71 109.09 226.52 95.5999C221.33 82.1099 228.06 66.9799 241.55 61.7899C255.04 56.5999 270.17 63.3299 275.36 76.8199Z" fill="white"/>
</g>
<path d="M251.1 83.72L248.7 77.47C248.7 77.47 248.72 77.47 248.73 77.46C249.86 77.17 251.1 77.03 252.38 77.05C253.49 77.17 254.31 77.43 254.31 77.43V77.21L254.42 74.59L254.44 73.99L252.88 73.25L252.44 73.7C250.81 73.54 249.05 73.6 247.41 74.13L246.09 70.69L244.69 70.24L245.02 71.1L243.55 71.66L244.89 75.16C240.24 77.48 239.01 81.12 240.22 84.27C241.87 88.57 245.99 88.27 249.74 87.78L252.12 93.97C249.68 94.66 247.02 94.65 245.03 94L244.84 97.66C246.98 98.43 250.31 98.29 253.41 97.31L254.41 99.9L253.21 100.39L254.73 100.75L257.27 99.77L255.94 96.3C260.61 93.94 261.88 90.32 260.67 87.16C259.02 82.86 254.85 83.21 251.1 83.7V83.72ZM248.31 84.05C246.31 84.21 244.72 84.05 244.15 82.56C243.63 81.2 244.13 79.73 246.19 78.54L248.31 84.05ZM254.64 92.95L252.53 87.47C254.59 87.28 256.22 87.47 256.81 88.99C257.32 90.32 256.77 91.74 254.64 92.95Z" fill="#00FF00"/>
<g opacity="0.3">
<path d="M251.1 83.72L248.7 77.47C248.7 77.47 248.72 77.47 248.73 77.46C249.86 77.17 251.1 77.03 252.38 77.05C253.49 77.17 254.31 77.43 254.31 77.43V77.21L254.42 74.59L254.44 73.99L252.88 73.25L252.44 73.7C250.81 73.54 249.05 73.6 247.41 74.13L246.09 70.69L244.69 70.24L245.02 71.1L243.55 71.66L244.89 75.16C240.24 77.48 239.01 81.12 240.22 84.27C241.87 88.57 245.99 88.27 249.74 87.78L252.12 93.97C249.68 94.66 247.02 94.65 245.03 94L244.84 97.66C246.98 98.43 250.31 98.29 253.41 97.31L254.41 99.9L253.21 100.39L254.73 100.75L257.27 99.77L255.94 96.3C260.61 93.94 261.88 90.32 260.67 87.16C259.02 82.86 254.85 83.21 251.1 83.7V83.72ZM248.31 84.05C246.31 84.21 244.72 84.05 244.15 82.56C243.63 81.2 244.13 79.73 246.19 78.54L248.31 84.05ZM254.64 92.95L252.53 87.47C254.59 87.28 256.22 87.47 256.81 88.99C257.32 90.32 256.77 91.74 254.64 92.95Z" fill="black"/>
</g>
<path d="M254.57 95.87L255.9 99.34L253.36 100.32L252.04 96.88C248.94 97.86 245.61 98 243.47 97.23L243.66 93.57C245.65 94.23 248.32 94.23 250.76 93.54L248.38 87.35C244.62 87.84 240.51 88.14 238.86 83.83C237.65 80.67 238.88 77.04 243.53 74.72L242.19 71.22L244.73 70.24L246.05 73.68C248.39 72.92 250.97 72.71 253.06 73.15L252.99 76.76C250.98 76.43 249.04 76.57 247.33 77.02L249.73 83.27C253.49 82.78 257.65 82.43 259.3 86.73C260.51 89.89 259.24 93.5 254.57 95.87ZM246.94 83.6L244.82 78.09C242.75 79.28 242.25 80.75 242.78 82.11C243.35 83.6 244.94 83.77 246.94 83.6ZM255.45 88.54C254.87 87.02 253.23 86.84 251.17 87.02L253.28 92.5C255.41 91.29 255.96 89.87 255.45 88.54Z" fill="#00C700"/>
<path d="M228.38 111.82C228.38 111.82 228.29 111.76 228.13 111.63C227.95 111.48 227.73 111.28 227.45 111.04C227.15 110.78 226.8 110.46 226.41 110.06C226.02 109.66 225.56 109.22 225.11 108.69C224.88 108.43 224.64 108.15 224.39 107.86C224.14 107.57 223.91 107.25 223.65 106.92C223.13 106.28 222.64 105.54 222.12 104.78C221.11 103.22 220.12 101.43 219.26 99.47C218.42 97.5 217.81 95.54 217.37 93.74C217.18 92.83 216.98 91.97 216.87 91.15C216.81 90.74 216.74 90.35 216.7 89.97C216.66 89.59 216.63 89.22 216.59 88.87C216.51 88.17 216.51 87.54 216.48 86.98C216.45 86.42 216.46 85.94 216.48 85.55C216.49 85.18 216.51 84.88 216.52 84.65C216.53 84.44 216.54 84.34 216.55 84.34C216.55 84.34 216.57 84.45 216.57 84.65C216.57 84.88 216.57 85.18 216.58 85.55C216.58 85.94 216.58 86.42 216.63 86.97C216.67 87.52 216.68 88.15 216.77 88.85C216.81 89.2 216.85 89.56 216.89 89.94C216.93 90.32 217.01 90.71 217.08 91.11C217.19 91.92 217.4 92.77 217.6 93.67C218.05 95.46 218.67 97.39 219.5 99.35C220.35 101.3 221.33 103.08 222.32 104.63C222.84 105.39 223.31 106.13 223.82 106.77C224.07 107.09 224.3 107.42 224.54 107.71C224.79 108 225.02 108.28 225.25 108.55C225.69 109.09 226.14 109.54 226.52 109.94C226.89 110.35 227.24 110.68 227.52 110.95C227.78 111.21 228 111.42 228.17 111.58C228.32 111.73 228.39 111.81 228.38 111.81V111.82Z" fill="white"/>
<path d="M241.97 85.6C241.97 85.6 241.54 85.54 240.98 85.16C240.42 84.79 239.73 84.08 239.38 83.09C239.04 82.09 239.15 81.11 239.36 80.47C239.58 79.82 239.85 79.5 239.87 79.51C239.91 79.53 239.69 79.89 239.53 80.52C239.37 81.14 239.3 82.07 239.62 83C239.94 83.93 240.57 84.62 241.08 85.01C241.59 85.41 241.98 85.56 241.97 85.6Z" fill="white"/>
<path d="M243.85 74C243.78 74.03 243.55 73.59 243.34 73.03C243.12 72.47 243 71.99 243.07 71.97C243.14 71.94 243.37 72.38 243.58 72.94C243.8 73.5 243.92 73.98 243.85 74Z" fill="white"/>
<path d="M241.99 59.3299C241.99 59.3299 241.71 59.4399 241.18 59.5999C240.92 59.6799 240.6 59.7699 240.23 59.9099C239.86 60.0399 239.44 60.1699 238.99 60.3699C238.54 60.5499 238.04 60.7499 237.52 60.9999C236.99 61.2299 236.46 61.5299 235.88 61.8199C234.75 62.4499 233.55 63.2099 232.37 64.1099C231.19 65.0199 230.15 65.9899 229.25 66.9099C228.81 67.3899 228.39 67.8299 228.03 68.2799C227.65 68.7099 227.33 69.1399 227.04 69.5299C226.74 69.9099 226.5 70.2899 226.28 70.6099C226.05 70.9299 225.88 71.2099 225.74 71.4499C225.45 71.9099 225.28 72.1699 225.27 72.1599C225.25 72.1599 225.39 71.8799 225.66 71.3999C225.79 71.1599 225.95 70.8599 226.17 70.5399C226.38 70.2099 226.61 69.8299 226.9 69.4299C227.18 69.0299 227.5 68.5899 227.87 68.1499C228.22 67.6899 228.65 67.2399 229.08 66.7499C229.98 65.8099 231.03 64.8299 232.22 63.8999C233.42 62.9899 234.63 62.2299 235.78 61.5999C236.36 61.2999 236.91 61.0099 237.44 60.7899C237.96 60.5399 238.47 60.3499 238.93 60.1799C239.39 59.9999 239.82 59.8799 240.19 59.7499C240.56 59.6299 240.89 59.5399 241.15 59.4799C241.68 59.3499 241.98 59.2899 241.99 59.2999V59.3299Z" fill="white"/>
<path d="M266.07 115.24C266.07 115.24 265.89 115.39 265.55 115.62C265.21 115.85 264.69 116.16 264.04 116.52C262.74 117.23 260.85 118.07 258.66 118.66C256.47 119.25 254.42 119.48 252.93 119.52C252.19 119.54 251.59 119.53 251.17 119.5C250.76 119.47 250.53 119.45 250.53 119.43C250.53 119.41 250.76 119.4 251.17 119.4C251.58 119.4 252.18 119.38 252.91 119.33C254.38 119.24 256.41 118.99 258.58 118.4C260.75 117.81 262.63 117.01 263.94 116.34C264.6 116.01 265.12 115.72 265.48 115.52C265.84 115.32 266.04 115.21 266.05 115.23L266.07 115.24Z" fill="white"/>
<path d="M216.32 133.4H290.16V118.51L216.32 118.51V133.4Z" fill="#00FF00"/>
<path d="M285.41 118.76C285.23 118.76 285.09 121.99 285.09 125.98C285.09 129.97 285.23 133.2 285.41 133.2C285.59 133.2 285.73 129.97 285.73 125.98C285.73 121.99 285.59 118.76 285.41 118.76Z" fill="#263238"/>
<path d="M278.57 118.76C278.39 118.76 278.25 121.99 278.25 125.98C278.25 129.97 278.39 133.2 278.57 133.2C278.75 133.2 278.89 129.97 278.89 125.98C278.89 121.99 278.75 118.76 278.57 118.76Z" fill="#263238"/>
<path d="M271.8 118.76C271.62 118.76 271.48 121.99 271.48 125.98C271.48 129.97 271.62 133.2 271.8 133.2C271.98 133.2 272.12 129.97 272.12 125.98C272.12 121.99 271.98 118.76 271.8 118.76Z" fill="#263238"/>
<path d="M265.07 118.76C264.89 118.76 264.75 121.99 264.75 125.98C264.75 129.97 264.89 133.2 265.07 133.2C265.25 133.2 265.39 129.97 265.39 125.98C265.39 121.99 265.25 118.76 265.07 118.76Z" fill="#263238"/>
<path d="M258.34 118.76C258.16 118.76 258.02 121.99 258.02 125.98C258.02 129.97 258.16 133.2 258.34 133.2C258.52 133.2 258.66 129.97 258.66 125.98C258.66 121.99 258.52 118.76 258.34 118.76Z" fill="#263238"/>
<path d="M251.61 118.76C251.43 118.76 251.29 121.99 251.29 125.98C251.29 129.97 251.43 133.2 251.61 133.2C251.79 133.2 251.93 129.97 251.93 125.98C251.93 121.99 251.79 118.76 251.61 118.76Z" fill="#263238"/>
<path d="M244.88 118.76C244.7 118.76 244.56 121.99 244.56 125.98C244.56 129.97 244.7 133.2 244.88 133.2C245.06 133.2 245.2 129.97 245.2 125.98C245.2 121.99 245.06 118.76 244.88 118.76Z" fill="#263238"/>
<path d="M238.15 118.76C237.97 118.76 237.83 121.99 237.83 125.98C237.83 129.97 237.97 133.2 238.15 133.2C238.33 133.2 238.47 129.97 238.47 125.98C238.47 121.99 238.33 118.76 238.15 118.76Z" fill="#263238"/>
<path d="M231.42 118.76C231.24 118.76 231.1 121.99 231.1 125.98C231.1 129.97 231.24 133.2 231.42 133.2C231.6 133.2 231.74 129.97 231.74 125.98C231.74 121.99 231.6 118.76 231.42 118.76Z" fill="#263238"/>
<path d="M224.69 118.76C224.51 118.76 224.37 121.99 224.37 125.98C224.37 129.97 224.51 133.2 224.69 133.2C224.87 133.2 225.01 129.97 225.01 125.98C225.01 121.99 224.87 118.76 224.69 118.76Z" fill="#263238"/>
<path d="M217.96 118.76C217.78 118.76 217.64 121.99 217.64 125.98C217.64 129.97 217.78 133.2 217.96 133.2C218.14 133.2 218.28 129.97 218.28 125.98C218.28 121.99 218.14 118.76 217.96 118.76Z" fill="#263238"/>
<g opacity="0.3">
<path d="M288.97 118.53C265.92 121.66 240.5 121.77 217.49 118.55L288.97 118.53Z" fill="black"/>
</g>
<path d="M216.3 118.56C216.3 118.74 232.8 118.88 253.15 118.88C273.5 118.88 290.01 118.74 290.01 118.56C290.01 118.38 273.51 118.24 253.15 118.24C232.79 118.24 216.3 118.38 216.3 118.56Z" fill="#263238"/>
<path d="M214.66 148.04H288.5V133.15H214.66V148.04Z" fill="#00FF00"/>
<path d="M283.75 133.4C283.57 133.4 283.43 136.63 283.43 140.62C283.43 144.61 283.57 147.84 283.75 147.84C283.93 147.84 284.07 144.61 284.07 140.62C284.07 136.63 283.93 133.4 283.75 133.4Z" fill="#263238"/>
<path d="M276.91 133.4C276.73 133.4 276.59 136.63 276.59 140.62C276.59 144.61 276.73 147.84 276.91 147.84C277.09 147.84 277.23 144.61 277.23 140.62C277.23 136.63 277.09 133.4 276.91 133.4Z" fill="#263238"/>
<path d="M270.14 133.4C269.96 133.4 269.82 136.63 269.82 140.62C269.82 144.61 269.96 147.84 270.14 147.84C270.32 147.84 270.46 144.61 270.46 140.62C270.46 136.63 270.32 133.4 270.14 133.4Z" fill="#263238"/>
<path d="M263.41 133.4C263.23 133.4 263.09 136.63 263.09 140.62C263.09 144.61 263.23 147.84 263.41 147.84C263.59 147.84 263.73 144.61 263.73 140.62C263.73 136.63 263.59 133.4 263.41 133.4Z" fill="#263238"/>
<path d="M256.68 133.4C256.5 133.4 256.36 136.63 256.36 140.62C256.36 144.61 256.5 147.84 256.68 147.84C256.86 147.84 257 144.61 257 140.62C257 136.63 256.86 133.4 256.68 133.4Z" fill="#263238"/>
<path d="M249.95 133.4C249.77 133.4 249.63 136.63 249.63 140.62C249.63 144.61 249.77 147.84 249.95 147.84C250.13 147.84 250.27 144.61 250.27 140.62C250.27 136.63 250.13 133.4 249.95 133.4Z" fill="#263238"/>
<path d="M243.22 133.4C243.04 133.4 242.9 136.63 242.9 140.62C242.9 144.61 243.04 147.84 243.22 147.84C243.4 147.84 243.54 144.61 243.54 140.62C243.54 136.63 243.4 133.4 243.22 133.4Z" fill="#263238"/>
<path d="M236.49 133.4C236.31 133.4 236.17 136.63 236.17 140.62C236.17 144.61 236.31 147.84 236.49 147.84C236.67 147.84 236.81 144.61 236.81 140.62C236.81 136.63 236.67 133.4 236.49 133.4Z" fill="#263238"/>
<path d="M229.76 133.4C229.58 133.4 229.44 136.63 229.44 140.62C229.44 144.61 229.58 147.84 229.76 147.84C229.94 147.84 230.08 144.61 230.08 140.62C230.08 136.63 229.94 133.4 229.76 133.4Z" fill="#263238"/>
<path d="M223.03 133.4C222.85 133.4 222.71 136.63 222.71 140.62C222.71 144.61 222.85 147.84 223.03 147.84C223.21 147.84 223.35 144.61 223.35 140.62C223.35 136.63 223.21 133.4 223.03 133.4Z" fill="#263238"/>
<path d="M216.3 133.4C216.12 133.4 215.98 136.63 215.98 140.62C215.98 144.61 216.12 147.84 216.3 147.84C216.48 147.84 216.62 144.61 216.62 140.62C216.62 136.63 216.48 133.4 216.3 133.4Z" fill="#263238"/>
<g opacity="0.3">
<path d="M287.31 133.17C264.26 136.3 238.84 136.41 215.83 133.19L287.31 133.17Z" fill="black"/>
</g>
<path d="M214.64 133.2C214.64 133.38 231.14 133.52 251.49 133.52C271.84 133.52 288.35 133.38 288.35 133.2C288.35 133.02 271.85 132.88 251.49 132.88C231.13 132.88 214.64 133.02 214.64 133.2Z" fill="#263238"/>
<path d="M221.67 162.45H295.51V147.56H221.67V162.45Z" fill="#00FF00"/>
<path d="M283.92 147.81C283.74 147.81 283.6 151.04 283.6 155.03C283.6 159.02 283.74 162.25 283.92 162.25C284.1 162.25 284.24 159.02 284.24 155.03C284.24 151.04 284.1 147.81 283.92 147.81Z" fill="#263238"/>
<path d="M277.15 147.81C276.97 147.81 276.83 151.04 276.83 155.03C276.83 159.02 276.97 162.25 277.15 162.25C277.33 162.25 277.47 159.02 277.47 155.03C277.47 151.04 277.33 147.81 277.15 147.81Z" fill="#263238"/>
<path d="M270.42 147.81C270.24 147.81 270.1 151.04 270.1 155.03C270.1 159.02 270.24 162.25 270.42 162.25C270.6 162.25 270.74 159.02 270.74 155.03C270.74 151.04 270.6 147.81 270.42 147.81Z" fill="#263238"/>
<path d="M263.69 147.81C263.51 147.81 263.37 151.04 263.37 155.03C263.37 159.02 263.51 162.25 263.69 162.25C263.87 162.25 264.01 159.02 264.01 155.03C264.01 151.04 263.87 147.81 263.69 147.81Z" fill="#263238"/>
<path d="M256.96 147.81C256.78 147.81 256.64 151.04 256.64 155.03C256.64 159.02 256.78 162.25 256.96 162.25C257.14 162.25 257.28 159.02 257.28 155.03C257.28 151.04 257.14 147.81 256.96 147.81Z" fill="#263238"/>
<path d="M250.23 147.81C250.05 147.81 249.91 151.04 249.91 155.03C249.91 159.02 250.05 162.25 250.23 162.25C250.41 162.25 250.55 159.02 250.55 155.03C250.55 151.04 250.41 147.81 250.23 147.81Z" fill="#263238"/>
<path d="M243.5 147.81C243.32 147.81 243.18 151.04 243.18 155.03C243.18 159.02 243.32 162.25 243.5 162.25C243.68 162.25 243.82 159.02 243.82 155.03C243.82 151.04 243.68 147.81 243.5 147.81Z" fill="#263238"/>
<path d="M236.77 147.81C236.59 147.81 236.45 151.04 236.45 155.03C236.45 159.02 236.59 162.25 236.77 162.25C236.95 162.25 237.09 159.02 237.09 155.03C237.09 151.04 236.95 147.81 236.77 147.81Z" fill="#263238"/>
<path d="M230.04 147.81C229.86 147.81 229.72 151.04 229.72 155.03C229.72 159.02 229.86 162.25 230.04 162.25C230.22 162.25 230.36 159.02 230.36 155.03C230.36 151.04 230.22 147.81 230.04 147.81Z" fill="#263238"/>
<path d="M223.31 147.81C223.13 147.81 222.99 151.04 222.99 155.03C222.99 159.02 223.13 162.25 223.31 162.25C223.49 162.25 223.63 159.02 223.63 155.03C223.63 151.04 223.49 147.81 223.31 147.81Z" fill="#263238"/>
<g opacity="0.3">
<path d="M294.33 147.58C271.28 150.71 245.86 150.82 222.85 147.6L294.33 147.58Z" fill="black"/>
</g>
<path d="M221.65 147.61C221.65 147.79 238.15 147.93 258.5 147.93C278.85 147.93 295.36 147.79 295.36 147.61C295.36 147.43 278.86 147.29 258.5 147.29C238.14 147.29 221.65 147.43 221.65 147.61Z" fill="#263238"/>
<path d="M213.02 176.66H286.86V162.34H213.02V176.66Z" fill="#00FF00"/>
<path d="M282.12 162.58C281.94 162.58 281.8 165.69 281.8 169.52C281.8 173.35 281.94 176.46 282.12 176.46C282.3 176.46 282.44 173.35 282.44 169.52C282.44 165.69 282.3 162.58 282.12 162.58Z" fill="#263238"/>
<path d="M275.27 162.58C275.09 162.58 274.95 165.69 274.95 169.52C274.95 173.35 275.09 176.46 275.27 176.46C275.45 176.46 275.59 173.35 275.59 169.52C275.59 165.69 275.45 162.58 275.27 162.58Z" fill="#263238"/>
<path d="M268.5 162.58C268.32 162.58 268.18 165.69 268.18 169.52C268.18 173.35 268.32 176.46 268.5 176.46C268.68 176.46 268.82 173.35 268.82 169.52C268.82 165.69 268.68 162.58 268.5 162.58Z" fill="#263238"/>
<path d="M261.77 162.58C261.59 162.58 261.45 165.69 261.45 169.52C261.45 173.35 261.59 176.46 261.77 176.46C261.95 176.46 262.09 173.35 262.09 169.52C262.09 165.69 261.95 162.58 261.77 162.58Z" fill="#263238"/>
<path d="M255.04 162.58C254.86 162.58 254.72 165.69 254.72 169.52C254.72 173.35 254.86 176.46 255.04 176.46C255.22 176.46 255.36 173.35 255.36 169.52C255.36 165.69 255.22 162.58 255.04 162.58Z" fill="#263238"/>
<path d="M248.31 162.58C248.13 162.58 247.99 165.69 247.99 169.52C247.99 173.35 248.13 176.46 248.31 176.46C248.49 176.46 248.63 173.35 248.63 169.52C248.63 165.69 248.49 162.58 248.31 162.58Z" fill="#263238"/>
<path d="M241.58 162.58C241.4 162.58 241.26 165.69 241.26 169.52C241.26 173.35 241.4 176.46 241.58 176.46C241.76 176.46 241.9 173.35 241.9 169.52C241.9 165.69 241.76 162.58 241.58 162.58Z" fill="#263238"/>
<path d="M234.85 162.58C234.67 162.58 234.53 165.69 234.53 169.52C234.53 173.35 234.67 176.46 234.85 176.46C235.03 176.46 235.17 173.35 235.17 169.52C235.17 165.69 235.03 162.58 234.85 162.58Z" fill="#263238"/>
<path d="M228.12 162.58C227.94 162.58 227.8 165.69 227.8 169.52C227.8 173.35 227.94 176.46 228.12 176.46C228.3 176.46 228.44 173.35 228.44 169.52C228.44 165.69 228.3 162.58 228.12 162.58Z" fill="#263238"/>
<path d="M221.39 162.58C221.21 162.58 221.07 165.69 221.07 169.52C221.07 173.35 221.21 176.46 221.39 176.46C221.57 176.46 221.71 173.35 221.71 169.52C221.71 165.69 221.57 162.58 221.39 162.58Z" fill="#263238"/>
<path d="M214.66 162.58C214.48 162.58 214.34 165.69 214.34 169.52C214.34 173.35 214.48 176.46 214.66 176.46C214.84 176.46 214.98 173.35 214.98 169.52C214.98 165.69 214.84 162.58 214.66 162.58Z" fill="#263238"/>
<g opacity="0.3">
<path d="M285.68 162.36C262.63 166.36 237.21 166.5 214.2 162.38L285.68 162.36Z" fill="black"/>
</g>
<path d="M213 162.39C213 162.57 229.5 162.71 249.85 162.71C270.2 162.71 286.71 162.57 286.71 162.39C286.71 162.21 270.21 162.07 249.85 162.07C229.49 162.07 213 162.21 213 162.39Z" fill="#263238"/>
<path d="M217.77 190.99H291.61V176.67H217.77V190.99Z" fill="#00FF00"/>
<path d="M286.86 176.91C286.68 176.91 286.54 180.02 286.54 183.85C286.54 187.68 286.68 190.79 286.86 190.79C287.04 190.79 287.18 187.68 287.18 183.85C287.18 180.02 287.04 176.91 286.86 176.91Z" fill="#263238"/>
<path d="M280.02 176.91C279.84 176.91 279.7 180.02 279.7 183.85C279.7 187.68 279.84 190.79 280.02 190.79C280.2 190.79 280.34 187.68 280.34 183.85C280.34 180.02 280.2 176.91 280.02 176.91Z" fill="#263238"/>
<path d="M273.25 176.91C273.07 176.91 272.93 180.02 272.93 183.85C272.93 187.68 273.07 190.79 273.25 190.79C273.43 190.79 273.57 187.68 273.57 183.85C273.57 180.02 273.43 176.91 273.25 176.91Z" fill="#263238"/>
<path d="M266.52 176.91C266.34 176.91 266.2 180.02 266.2 183.85C266.2 187.68 266.34 190.79 266.52 190.79C266.7 190.79 266.84 187.68 266.84 183.85C266.84 180.02 266.7 176.91 266.52 176.91Z" fill="#263238"/>
<path d="M259.79 176.91C259.61 176.91 259.47 180.02 259.47 183.85C259.47 187.68 259.61 190.79 259.79 190.79C259.97 190.79 260.11 187.68 260.11 183.85C260.11 180.02 259.97 176.91 259.79 176.91Z" fill="#263238"/>
<path d="M253.06 176.91C252.88 176.91 252.74 180.02 252.74 183.85C252.74 187.68 252.88 190.79 253.06 190.79C253.24 190.79 253.38 187.68 253.38 183.85C253.38 180.02 253.24 176.91 253.06 176.91Z" fill="#263238"/>
<path d="M246.33 176.91C246.15 176.91 246.01 180.02 246.01 183.85C246.01 187.68 246.15 190.79 246.33 190.79C246.51 190.79 246.65 187.68 246.65 183.85C246.65 180.02 246.51 176.91 246.33 176.91Z" fill="#263238"/>
<path d="M239.6 176.91C239.42 176.91 239.28 180.02 239.28 183.85C239.28 187.68 239.42 190.79 239.6 190.79C239.78 190.79 239.92 187.68 239.92 183.85C239.92 180.02 239.78 176.91 239.6 176.91Z" fill="#263238"/>
<path d="M232.87 176.91C232.69 176.91 232.55 180.02 232.55 183.85C232.55 187.68 232.69 190.79 232.87 190.79C233.05 190.79 233.19 187.68 233.19 183.85C233.19 180.02 233.05 176.91 232.87 176.91Z" fill="#263238"/>
<path d="M226.14 176.91C225.96 176.91 225.82 180.02 225.82 183.85C225.82 187.68 225.96 190.79 226.14 190.79C226.32 190.79 226.46 187.68 226.46 183.85C226.46 180.02 226.32 176.91 226.14 176.91Z" fill="#263238"/>
<path d="M219.41 176.91C219.23 176.91 219.09 180.02 219.09 183.85C219.09 187.68 219.23 190.79 219.41 190.79C219.59 190.79 219.73 187.68 219.73 183.85C219.73 180.02 219.59 176.91 219.41 176.91Z" fill="#263238"/>
<g opacity="0.3">
<path d="M290.42 176.69C267.37 181.22 241.95 181.37 218.94 176.71L290.42 176.69Z" fill="black"/>
</g>
<path d="M217.75 176.72C217.75 176.9 234.25 177.04 254.6 177.04C274.95 177.04 291.46 176.9 291.46 176.72C291.46 176.54 274.96 176.4 254.6 176.4C234.24 176.4 217.75 176.54 217.75 176.72Z" fill="#263238"/>
<path d="M213.55 205.11H287.39V190.79H213.55V205.11Z" fill="#00FF00"/>
<path d="M282.64 191.03C282.46 191.03 282.32 194.14 282.32 197.97C282.32 201.8 282.46 204.91 282.64 204.91C282.82 204.91 282.96 201.8 282.96 197.97C282.96 194.14 282.82 191.03 282.64 191.03Z" fill="#263238"/>
<path d="M275.8 191.03C275.62 191.03 275.48 194.14 275.48 197.97C275.48 201.8 275.62 204.91 275.8 204.91C275.98 204.91 276.12 201.8 276.12 197.97C276.12 194.14 275.98 191.03 275.8 191.03Z" fill="#263238"/>
<path d="M269.03 191.03C268.85 191.03 268.71 194.14 268.71 197.97C268.71 201.8 268.85 204.91 269.03 204.91C269.21 204.91 269.35 201.8 269.35 197.97C269.35 194.14 269.21 191.03 269.03 191.03Z" fill="#263238"/>
<path d="M262.3 191.03C262.12 191.03 261.98 194.14 261.98 197.97C261.98 201.8 262.12 204.91 262.3 204.91C262.48 204.91 262.62 201.8 262.62 197.97C262.62 194.14 262.48 191.03 262.3 191.03Z" fill="#263238"/>
<path d="M255.57 191.03C255.39 191.03 255.25 194.14 255.25 197.97C255.25 201.8 255.39 204.91 255.57 204.91C255.75 204.91 255.89 201.8 255.89 197.97C255.89 194.14 255.75 191.03 255.57 191.03Z" fill="#263238"/>
<path d="M248.84 191.03C248.66 191.03 248.52 194.14 248.52 197.97C248.52 201.8 248.66 204.91 248.84 204.91C249.02 204.91 249.16 201.8 249.16 197.97C249.16 194.14 249.02 191.03 248.84 191.03Z" fill="#263238"/>
<path d="M242.11 191.03C241.93 191.03 241.79 194.14 241.79 197.97C241.79 201.8 241.93 204.91 242.11 204.91C242.29 204.91 242.43 201.8 242.43 197.97C242.43 194.14 242.29 191.03 242.11 191.03Z" fill="#263238"/>
<path d="M235.38 191.03C235.2 191.03 235.06 194.14 235.06 197.97C235.06 201.8 235.2 204.91 235.38 204.91C235.56 204.91 235.7 201.8 235.7 197.97C235.7 194.14 235.56 191.03 235.38 191.03Z" fill="#263238"/>
<path d="M228.65 191.03C228.47 191.03 228.33 194.14 228.33 197.97C228.33 201.8 228.47 204.91 228.65 204.91C228.83 204.91 228.97 201.8 228.97 197.97C228.97 194.14 228.83 191.03 228.65 191.03Z" fill="#263238"/>
<path d="M221.92 191.03C221.74 191.03 221.6 194.14 221.6 197.97C221.6 201.8 221.74 204.91 221.92 204.91C222.1 204.91 222.24 201.8 222.24 197.97C222.24 194.14 222.1 191.03 221.92 191.03Z" fill="#263238"/>
<path d="M215.19 191.03C215.01 191.03 214.87 194.14 214.87 197.97C214.87 201.8 215.01 204.91 215.19 204.91C215.37 204.91 215.51 201.8 215.51 197.97C215.51 194.14 215.37 191.03 215.19 191.03Z" fill="#263238"/>
<g opacity="0.3">
<path d="M286.2 190.81C263.15 194.81 237.73 194.95 214.72 190.83L286.2 190.81Z" fill="black"/>
</g>
<path d="M213.53 190.84C213.53 191.02 230.03 191.16 250.38 191.16C270.73 191.16 287.24 191.02 287.24 190.84C287.24 190.66 270.74 190.52 250.38 190.52C230.02 190.52 213.53 190.66 213.53 190.84Z" fill="#263238"/>
<path d="M287.39 205.12C287.39 205.12 287.37 205.04 287.37 204.88C287.37 204.69 287.36 204.46 287.35 204.16C287.35 203.49 287.33 202.56 287.31 201.37C287.29 198.91 287.27 195.39 287.24 191V190.84H287.4C288.68 190.84 290.04 190.83 291.47 190.82L291.29 191C291.28 186.82 291.26 181.97 291.25 176.67L291.47 176.89C289.98 176.89 288.37 176.89 286.72 176.89H286.49V176.66C286.49 172.23 286.49 167.43 286.48 162.45V162.21H286.72C288.29 162.21 289.97 162.21 291.66 162.21C292.91 162.21 294.15 162.21 295.37 162.21L295.13 162.45C295.13 157.15 295.13 152.06 295.14 147.29L295.37 147.52C292.94 147.52 290.6 147.52 288.36 147.51H288.14V147.29C288.16 142.11 288.17 137.43 288.18 133.4V133.23H288.35C289 133.23 289.59 133.23 290.16 133.23L290 133.39C289.98 128.78 289.97 125.07 289.96 122.49C289.96 121.24 289.97 120.26 289.97 119.56C289.97 119.25 289.98 119 289.98 118.8C289.98 118.63 289.99 118.54 290 118.54C290 118.54 290.02 118.63 290.03 118.8C290.03 119 290.05 119.25 290.06 119.56C290.08 120.26 290.1 121.24 290.13 122.49C290.17 125.07 290.24 128.78 290.31 133.39V133.55H290.15C289.58 133.55 288.99 133.55 288.34 133.55L288.51 133.38C288.52 137.41 288.54 142.08 288.55 147.27L288.34 147.06C290.58 147.06 292.92 147.06 295.35 147.05H295.58V147.28C295.58 152.05 295.58 157.15 295.59 162.44V162.68H295.35C294.13 162.68 292.89 162.68 291.64 162.68C289.95 162.68 288.27 162.68 286.7 162.68L286.94 162.44C286.94 167.43 286.94 172.22 286.93 176.65L286.7 176.42C288.35 176.42 289.96 176.42 291.45 176.42H291.67V176.64C291.65 181.94 291.64 186.79 291.63 190.97V191.15H291.45C290.02 191.15 288.66 191.14 287.38 191.13L287.54 190.97C287.51 195.36 287.48 198.88 287.47 201.34C287.45 202.53 287.44 203.46 287.43 204.13C287.43 204.43 287.41 204.66 287.41 204.85C287.41 205.01 287.4 205.09 287.39 205.09V205.12Z" fill="#263238"/>
</g>
</g>
<defs>
<clipPath id="clip0_149_13642">
<rect width="287" height="222" fill="white"/>
</clipPath>
<clipPath id="clip1_149_13642">
<rect width="82.61" height="154.12" fill="white" transform="translate(213 51)"/>
</clipPath>
</defs>
</svg>
