<svg width="154" height="154" viewBox="0 0 154 154" fill="none" xmlns="http://www.w3.org/2000/svg">
<g clip-path="url(#clip0_310_683)">
<path d="M77.0046 0C34.4743 0 0 34.4743 0 76.9954C0 119.517 34.4743 154 77.0046 154C119.535 154 154.009 119.526 154.009 76.9954C154.009 34.4652 119.526 0 77.0046 0Z" fill="#00C72E"/>
<path d="M77.0046 0C34.4743 0 0 34.4743 0 76.9954C0 119.517 34.4743 154 77.0046 154C119.535 154 154.009 119.526 154.009 76.9954C154.009 34.4652 119.526 0 77.0046 0ZM30.173 20.5315C30.173 20.5315 31.1208 21.2059 30.8383 22.6731C30.5558 24.1767 31.9683 22.9556 33.1894 23.7028C34.4106 24.4501 32.8158 24.4501 31.2119 24.8328C29.6171 25.2065 28.961 25.2065 27.9221 24.924C26.9015 24.6415 27.0746 23.2745 27.0746 23.2381C28.077 22.3085 29.1068 21.4064 30.1639 20.5315H30.173ZM77.0046 150.382C36.4792 150.382 3.62696 117.53 3.62696 77.0046C3.62696 73.9517 3.81833 70.9535 4.17374 68.0009C4.19196 68.0192 5.2035 69.3314 5.66826 69.5228C6.13303 69.7142 5.66826 69.5228 6.13303 69.6231C6.6069 69.7142 6.6069 70.4706 6.69803 71.0265C6.78916 71.5915 7.35416 71.5915 8.20167 72.2476C9.04917 72.9037 9.42281 73.004 9.52305 73.2774C9.61418 73.5599 10.5528 73.9335 11.5826 73.086C12.6215 72.2385 12.339 73.2774 12.4301 74.0246C12.5212 74.7719 12.1476 76.2755 11.5826 78.9092C11.0176 81.5337 12.4301 87.4571 12.2387 88.2044C12.0473 88.9608 13.6512 90.6467 14.681 92.1503C15.7108 93.6539 17.4058 94.2189 17.8796 95.2487C18.3444 96.2785 19.7569 101.354 19.848 103.04C19.9392 104.726 21.7253 111.962 22.7551 113.466C23.794 114.969 23.2289 119.097 23.2289 120.41C23.2289 121.722 24.1676 123.134 25.4798 124.264C26.7921 125.394 26.7921 125.012 27.3571 125.203C27.9221 125.394 28.6694 125.859 29.043 127.08C29.4167 128.301 30.9203 127.928 31.1117 127.454C31.303 126.98 32.3328 126.798 32.6153 125.577C32.8978 124.356 29.9817 123.608 29.2344 122.761C28.478 121.913 29.1433 120.883 29.043 118.623C28.9519 116.373 27.5394 115.525 28.2958 113.456C29.043 111.388 30.738 113.548 31.8589 112.992C32.9889 112.427 32.1414 112.053 32.2326 110.358C32.3237 108.663 33.1712 108.38 33.8273 106.321C34.4835 104.252 34.4835 104.343 34.8571 102.94C35.2307 101.528 36.4519 102.093 37.673 101.245C38.8941 100.398 39.6505 96.4607 39.2678 95.4219C38.8941 94.3921 38.8941 92.6059 39.4591 90.92C40.0241 89.225 43.4962 90.9201 44.2434 89.8903C44.9998 88.8605 45.1821 88.578 45.091 86.1357C44.9998 83.6935 41.71 84.1673 39.9239 82.9371C38.1378 81.716 39.9239 81.8162 38.7028 81.8162C37.4816 81.8162 37.7641 82.4723 37.108 82.3812C36.4519 82.2901 36.0782 82.6637 35.7957 82.2901C35.5132 81.9164 35.8869 81.6339 35.0394 80.4128C34.1918 79.1917 34.1918 81.0689 32.5059 81.0689C30.82 81.0689 31.3759 78.8089 31.0934 77.123C30.8109 75.4371 30.7198 75.8108 29.4987 75.3369C28.2775 74.8721 28.3687 74.0246 28.2775 73.2774C28.1864 72.521 27.2387 71.4912 24.0491 70.3703C20.8596 69.2403 19.8207 68.493 19.6384 69.1492C19.4471 69.8053 19.0734 70.0878 17.8523 69.9967C16.6312 69.9055 16.9137 70.7439 16.4398 71.309C15.975 71.874 15.5012 72.3387 14.28 72.1565C13.0589 71.9651 13.2503 71.2178 12.3116 70.9353C11.373 70.6528 10.5255 71.4001 9.02184 70.9353C7.5182 70.4614 8.73933 69.5228 8.73933 68.6844C8.73933 67.846 8.63909 67.3721 7.8007 66.716C6.95319 66.0599 7.14456 66.9074 6.67069 66.4335C6.19682 65.9596 6.86206 65.1212 6.67069 63.7999C6.48843 62.5241 5.39488 61.2391 5.32197 61.1571C5.79585 59.0064 6.35174 56.8831 7.01698 54.8054C7.04432 54.8145 7.81892 55.261 9.20409 55.6255C10.6166 55.9992 11.1725 55.7167 11.6464 56.5642C12.1111 57.4117 12.585 58.6328 13.2411 57.6942C13.8973 56.7555 13.5236 56.3819 14.3711 54.9694C15.2187 53.566 15.5012 51.0235 17.0959 48.8637C18.6907 46.7039 21.5157 44.7355 23.3839 43.7969C25.2611 42.8583 25.17 42.5758 26.3911 42.5758C27.6123 42.5758 28.8334 41.3546 29.8632 42.2933C30.893 43.2319 30.4191 43.7969 31.3668 43.2319C32.3055 42.6669 32.588 41.3546 32.3055 41.0721C32.023 40.7896 31.7405 40.7896 30.6196 40.2246C29.4896 39.6596 29.7721 38.9124 28.7423 38.9124C27.7125 38.9124 27.2387 39.4774 27.2387 38.4385C27.2387 37.3996 30.0546 37.591 30.9932 38.0649C31.9318 38.5296 32.023 38.9124 32.6882 39.1949C33.3443 39.4774 34.6566 39.4774 35.413 39.3771C36.1602 39.286 38.1378 40.6894 37.1991 38.2471C36.2605 35.8048 35.1305 33.8364 34.9482 33.4628C34.7568 33.0892 34.1007 30.4555 33.5357 30.738C32.9707 31.0205 32.7793 30.8292 31.2848 31.1117C29.7812 31.3942 27.995 29.9817 27.995 29.9817C27.995 29.9817 28.4598 29.1341 27.0564 29.7903C25.6439 30.4464 24.523 30.6378 24.0491 31.1937C23.5752 31.7587 23.0194 32.9798 22.3632 33.3535C21.7071 33.7271 20.8596 33.7271 20.7684 33.0709C20.6773 32.4148 19.5564 31.3486 19.5382 31.3304C21.1421 29.3164 22.8462 27.4027 24.6506 25.571C24.7144 25.5983 25.7988 26.0266 27.2569 25.9355C28.7605 25.8444 28.6694 26.4003 29.1341 26.783C29.5989 27.1566 30.6378 27.2569 32.4239 27.348C34.2101 27.4391 33.1803 26.8832 33.9276 26.1269C34.6839 25.3796 34.7751 25.5619 36.8346 25.5619C38.8941 25.5619 38.3382 25.5619 38.5296 24.9969C38.721 24.4319 38.2471 23.4021 36.9348 23.311C35.6226 23.2198 35.9962 22.3723 34.5837 21.5248C33.1985 20.6955 32.588 18.6634 32.5697 18.5904C33.4081 17.9525 34.2647 17.3237 35.1396 16.7223C35.1669 16.7405 36.1056 17.588 37.4999 17.6792C38.9124 17.7703 39.6596 16.2666 40.8808 16.8316C42.1019 17.3966 43.6055 19.1828 43.9792 19.2739C44.3528 19.365 44.0703 19.4653 43.888 20.7776C43.6967 22.0898 44.0794 21.8073 43.1317 23.311C42.193 24.8146 41.1633 24.8146 41.5369 25.9355C41.9105 27.0655 42.758 27.6214 43.5053 28.5691C44.2617 29.5078 43.9792 30.255 45.0089 30.255C46.0387 30.255 50.2671 28.8425 51.1146 28.0953C51.9621 27.3389 53.3655 26.8741 54.5867 25.1882C55.8078 23.5023 55.5253 23.311 56.8376 22.8371C58.1589 22.3723 58.5326 21.8073 60.2185 21.616C61.9044 21.4246 63.408 20.7684 63.5994 19.1737C63.7908 17.5789 63.5994 17.2964 64.6383 16.7314C65.668 16.1664 66.233 15.7016 67.0805 15.0455C67.928 14.3894 67.0805 13.4507 66.5155 13.7332C65.9505 14.0157 64.1644 13.8244 62.196 14.1069C60.2276 14.3894 58.6237 14.2982 57.1292 14.4805C55.6255 14.6719 53.9396 14.8541 53.2835 14.8541C52.6274 14.8541 53.2835 13.7241 49.2465 13.633C45.2094 13.5419 46.3394 13.7241 45.2094 13.5419C44.1068 13.3596 41.5733 12.8037 41.4731 12.7855C51.9986 6.94408 64.1188 3.60873 77.0137 3.60873C93.7177 3.60873 109.119 9.19498 121.458 18.5996C121.394 18.5996 117.876 18.6451 116.728 19.7934C115.571 20.9507 115.707 20.9507 113.976 20.8049C112.235 20.6591 110.358 21.8164 111.37 22.2539C112.39 22.6913 111.953 23.1287 110.358 22.9738C108.763 22.828 108.909 20.8049 106.303 21.8164C103.696 22.828 103.405 22.2539 102.822 22.9738C102.238 23.7028 100.507 22.6822 99.1946 23.1196C97.8915 23.557 97.5999 22.828 96.1509 24.1311C94.7019 25.4343 92.8155 26.7374 92.8155 24.8511C92.8155 22.9647 92.3781 22.2447 93.6813 22.3906C94.9844 22.5364 96.5792 21.9531 95.8502 21.2332C95.1211 20.5133 92.3781 19.201 87.3022 19.4926C82.2354 19.7842 79.4833 19.9301 79.3284 21.2332C79.1826 22.5364 80.2032 22.828 79.0368 23.6937C77.8794 24.5594 74.8357 24.2678 75.264 25.7259C75.7014 27.1749 76.4213 27.0291 78.1619 27.9039C79.9025 28.7696 78.8818 27.7581 79.9025 28.7696C80.914 29.7812 80.3399 29.927 80.7682 30.8018C81.2056 31.6676 82.0714 30.8018 83.0829 30.0819C84.0944 29.3529 85.5434 29.9361 85.1151 28.7787C84.6777 27.6214 83.6661 27.6214 84.9693 26.6099C86.2724 25.5983 87.8672 25.7441 87.284 26.9015C86.7007 28.0588 86.8557 28.9337 87.7214 29.0704C88.5871 29.2162 88.7329 31.385 86.9924 31.8225C85.2518 32.2599 84.5319 33.8547 81.9256 33.7089C79.3192 33.563 78.5902 33.8547 78.4444 32.1141C78.2986 30.3735 78.2986 28.9246 76.9954 29.7994C75.6923 30.6651 74.8266 30.9567 75.6923 31.8316C76.5671 32.6973 77.8703 33.1347 76.7038 33.718C75.5465 34.3012 73.8059 33.4264 73.2227 34.3012C72.6486 35.1669 74.5258 34.0096 72.6486 35.1669C70.7622 36.3243 70.3247 36.3243 69.8964 36.4701C69.459 36.6159 68.0101 36.3243 69.0216 37.4816C70.0331 38.639 70.3248 39.368 69.1674 39.368C68.0101 39.368 65.6862 39.2222 64.8205 40.097C63.9548 40.9628 64.1006 41.6918 64.5289 43.1408C64.9663 44.5897 65.2488 45.173 67.1352 45.4555C69.0216 45.7471 70.3248 45.1639 71.1905 43.5691C72.0653 41.9743 70.8989 39.9512 73.5052 39.9512C76.1115 39.9512 78.5811 39.8054 80.1668 40.9628C81.7615 42.1201 82.3447 42.758 82.4359 43.6055C82.5361 44.453 81.2147 45.0089 82.2445 45.4828C83.2743 45.9567 84.0307 46.6128 84.4043 45.7653C84.7779 44.9178 84.7779 44.5442 85.1515 43.888C85.5252 43.2319 86.3727 42.5758 85.3429 42.1019C84.3132 41.628 81.2147 40.6894 82.8095 40.3158C84.4043 39.9421 86.564 40.4069 87.4116 41.7283C88.2591 43.0405 87.6941 44.6353 89.0063 44.8267C90.3186 45.018 90.0361 43.323 90.9838 43.5144C91.9225 43.7058 92.1138 43.6055 92.205 44.2617C92.2961 44.9178 91.1752 45.2914 92.2961 46.3303C93.417 47.3601 94.2645 47.2689 95.3945 47.2689C96.5245 47.2689 97.7457 45.7653 98.7754 46.7039C99.8052 47.6426 100.179 48.399 99.5227 49.4287C98.8666 50.4585 98.1193 50.741 95.9595 50.8321C93.7998 50.9232 92.5786 50.741 90.4188 49.8935C88.2591 49.046 87.5027 48.0162 87.3204 49.2373C87.1382 50.4585 87.1382 50.741 85.5343 50.741C83.9304 50.741 82.5361 51.2149 81.1236 49.7112C79.7111 48.2076 78.9638 48.5812 78.6813 47.7428C78.3988 46.8953 75.2093 46.8953 74.3618 47.4603C73.5143 48.0253 70.7986 48.7726 70.3247 48.7726C69.8509 48.7726 66.8527 47.1778 65.7227 48.399C64.5927 49.6201 61.6857 53.001 60.0909 55.6255C58.4961 58.2501 55.6802 64.6383 55.7713 66.4244C55.8625 68.2105 55.7713 68.9578 56.9014 70.9353C58.0222 72.9037 60.747 75.6285 65.1577 75.4371C69.5684 75.2458 70.7895 75.3369 72.5757 75.2458C74.3618 75.1546 75.6741 74.3982 76.2391 75.9019C76.8041 77.4055 76.9954 77.8703 78.0252 78.2439C79.055 78.6267 79.9025 82.1898 80.3764 85.6619C80.8411 89.1339 79.9025 92.0409 81.0325 93.0798C82.1625 94.1096 80.6589 96.8344 82.6273 99.8416C84.5956 102.849 87.5118 105.574 88.2591 107.633C89.0063 109.693 89.2888 110.631 91.4486 111.297C93.6084 111.953 95.2943 112.235 95.4856 110.449C95.677 108.663 94.7384 109.137 97.1807 105C99.6229 100.871 101.409 97.6728 102.156 96.7432C102.904 95.8046 103.569 94.866 103.751 93.4535C103.942 92.0501 103.377 90.4553 103.377 90.0817C103.377 89.708 103.851 87.0744 104.134 86.6096C104.416 86.1449 105.173 79.1917 107.232 77.123C109.301 75.0544 110.987 74.3071 110.139 72.7123C109.292 71.1176 108.827 70.7439 107.888 70.7439C106.95 70.7439 105.355 69.6139 105.164 68.493C104.972 67.363 102.63 64.456 102.812 63.891C103.004 63.326 103.469 62.4785 104.69 63.891C105.911 65.2944 109.201 68.6753 111.825 67.0805C114.45 65.4858 115.489 64.3558 115.388 62.4785C115.297 60.6012 115.297 60.2276 114.076 59.4803C112.855 58.7331 111.634 58.3503 111.069 57.6942C110.504 57.038 107.879 55.7167 109 54.5046C110.13 53.2835 110.413 53.7483 115.388 55.6347C120.364 57.5119 121.767 57.3205 122.615 57.9858C123.462 58.6419 125.239 58.7422 125.622 60.9931C125.996 63.244 124.684 62.679 126.561 66.6249C128.438 70.5708 128.912 71.0356 129.75 71.6006C130.598 72.1656 130.78 73.7603 131.91 72.5392C133.031 71.3181 132.375 70.0058 132.949 68.0374C133.514 66.069 135.291 62.2142 136.612 61.7495C137.925 61.2756 138.681 60.3461 139.711 61.9408C140.741 63.5356 140.467 64.7567 141.679 65.6954C142.9 66.634 143.465 67.5726 143.648 67.9463C143.839 68.3199 143.547 72.2658 144.304 74.052C145.06 75.8381 146.555 77.9979 147.22 76.959C147.876 75.9292 146.937 73.2044 147.694 72.0744C148.441 70.9535 150.054 70.8989 150.081 70.9262C150.245 72.9402 150.337 74.9724 150.337 77.0228C150.337 117.548 117.484 150.4 76.959 150.4L77.0046 150.382Z" fill="#69CD5F"/>
</g>
<defs>
<clipPath id="clip0_310_683">
<rect width="154" height="154" fill="white"/>
</clipPath>
</defs>
</svg>
