<svg width="122" height="141" viewBox="0 0 122 141" fill="none" xmlns="http://www.w3.org/2000/svg">
<path d="M17.8641 16.996C42.1325 -6.28792 80.7377 -5.55878 104.112 18.6325C126.853 42.1757 126.853 79.4105 104.112 102.954L69.6519 137.304C64.873 142.068 57.1194 142.068 52.3242 137.304L17.8478 102.937C-5.94926 79.1998 -5.94926 40.7336 17.8478 16.996H17.8641ZM61.0043 88.225C77.0803 88.225 90.0354 74.8574 89.2877 58.6705C88.6213 44.2983 76.7552 32.47 62.3372 31.8057C46.0824 31.0603 32.6884 43.9742 32.6884 59.9991C32.721 75.5703 45.3834 88.1764 61.0043 88.1764V88.225Z" fill="url(#paint0_linear_134_9737)"/>
<defs>
<linearGradient id="paint0_linear_134_9737" x1="-5.40418" y1="70.4385" x2="108.071" y2="120.628" gradientUnits="userSpaceOnUse">
<stop stop-color="#00FF00"/>
<stop offset="1" stop-color="#009900"/>
</linearGradient>
</defs>
</svg>
