<svg width="192" height="131" viewBox="0 0 192 131" fill="none" xmlns="http://www.w3.org/2000/svg">
<g clip-path="url(#clip0_310_774)">
<path d="M143.212 48.9501C144.967 49.5335 187.574 63.7172 189.329 64.3006C191.717 65.0973 192.425 69.4258 190.915 73.9738C189.404 78.5219 186.245 81.5644 183.856 80.7739C182.101 80.1905 139.488 66.0069 137.739 65.4235C135.351 64.6268 134.643 60.2983 136.153 55.7502C137.664 51.2022 140.823 48.1597 143.212 48.9501Z" fill="#33FF33"/>
<path d="M137.739 65.4236C137.739 65.4236 137.821 65.4424 137.971 65.4738C138.122 65.5177 138.354 65.524 138.636 65.524C138.78 65.5114 138.937 65.4801 139.106 65.455C139.275 65.4111 139.451 65.3483 139.639 65.2856C140.002 65.1225 140.403 64.9092 140.792 64.6018C141.193 64.3133 141.569 63.9306 141.952 63.5166C142.322 63.0837 142.685 62.6132 143.017 62.0863C143.356 61.5719 143.663 61.0073 143.939 60.4176C144.221 59.8342 144.453 59.2069 144.666 58.5921C144.867 57.9523 145.055 57.325 145.18 56.6851C145.312 56.0515 145.406 55.4116 145.443 54.7969C145.487 54.1821 145.481 53.5799 145.443 53.0153C145.387 52.4507 145.312 51.9175 145.161 51.447C145.036 50.9702 144.835 50.5625 144.647 50.2112C144.534 50.0481 144.428 49.8912 144.321 49.7532C144.202 49.6278 144.089 49.5086 143.989 49.4145C143.757 49.2388 143.575 49.1071 143.425 49.0569C143.287 48.9879 143.212 48.9565 143.212 48.9565C143.212 48.9565 143.287 48.9879 143.431 49.0506C143.581 49.0946 143.776 49.22 144.02 49.3831C144.133 49.4772 144.246 49.5901 144.378 49.7156C144.49 49.8473 144.61 50.0042 144.735 50.1673C144.948 50.5123 145.174 50.9263 145.312 51.4156C145.475 51.8924 145.569 52.4382 145.644 53.009C145.694 53.5861 145.725 54.1946 145.675 54.822C145.644 55.4493 145.55 56.0954 145.424 56.7416C145.299 57.394 145.117 58.0401 144.923 58.6737C144.697 59.3136 144.453 59.9346 144.164 60.5305C143.876 61.1265 143.563 61.6974 143.212 62.218C142.873 62.7513 142.484 63.2217 142.102 63.6483C141.701 64.0623 141.306 64.445 140.886 64.7273C140.485 65.0347 140.059 65.2292 139.676 65.3797C139.482 65.4362 139.294 65.4926 139.125 65.5303C138.949 65.5491 138.786 65.5742 138.642 65.5805C138.347 65.5679 138.122 65.5491 137.971 65.4926C137.821 65.455 137.739 65.4362 137.739 65.4362V65.4236Z" fill="#797979"/>
<path d="M105.771 39.2896C106.987 39.6974 140.542 50.8636 141.758 51.2651C143.413 51.8172 143.908 54.822 142.855 57.9774C141.808 61.1328 139.614 63.2469 137.959 62.6948C136.743 62.2871 103.188 51.1208 101.972 50.7194C100.317 50.1673 99.8218 47.1625 100.875 44.0071C101.922 40.8517 104.116 38.7439 105.771 39.2896Z" fill="#797979"/>
<path d="M139.263 50.4369C139.263 50.4369 139.551 50.5247 140.065 50.6815C140.322 50.7568 140.629 50.8509 140.987 50.9575C141.332 51.0767 141.764 51.152 142.165 51.3778C142.585 51.6288 142.899 52.0553 143.118 52.5447C143.331 53.034 143.457 53.5923 143.507 54.1694C143.557 54.7465 143.532 55.3488 143.457 55.951C143.381 56.5532 143.256 57.1617 143.074 57.7451C142.892 58.3348 142.667 58.9056 142.391 59.4514C142.121 59.9909 141.814 60.5116 141.457 60.9695C140.761 61.8791 139.871 62.6194 138.937 62.8076C138.473 62.9142 138.016 62.7887 137.69 62.6445C137.339 62.519 137.038 62.4061 136.787 62.3183C136.285 62.1363 135.997 62.0297 135.997 62.0297C135.997 62.0297 136.285 62.1175 136.799 62.2743C137.056 62.3496 137.364 62.4437 137.721 62.5504C138.072 62.6758 138.473 62.7636 138.912 62.657C139.789 62.4625 140.611 61.716 141.281 60.8252C141.62 60.3798 141.915 59.8717 142.178 59.3385C142.441 58.8115 142.66 58.2407 142.83 57.6636C143.011 57.0927 143.143 56.503 143.225 55.9133C143.3 55.3299 143.337 54.7403 143.294 54.182C143.25 53.6236 143.149 53.0841 142.955 52.6137C142.767 52.1432 142.472 51.7354 142.115 51.5033C141.733 51.2712 141.319 51.1834 140.974 51.0391C140.623 50.9136 140.322 50.8007 140.072 50.7129C139.57 50.531 139.282 50.4243 139.282 50.4243L139.263 50.4369Z" fill="#25243E"/>
<path d="M55.5411 61.9984C57.0205 57.5507 72.6603 10.4768 74.1397 6.0291C76.1456 -0.0182402 87.1091 -1.81864 98.618 2.01427C110.127 5.84718 117.831 13.8517 115.819 19.9054C114.339 24.353 98.6995 71.4269 97.2202 75.8746C95.208 81.922 84.2507 83.7224 72.7418 79.8894C61.2329 76.0565 53.5289 68.052 55.5411 61.9984Z" fill="#33FF33"/>
<path d="M97.2267 75.8684C97.2267 75.8684 97.2831 75.6676 97.3834 75.285C97.4461 74.896 97.559 74.3252 97.5151 73.5849C97.4775 72.851 97.3145 71.9602 96.9321 71.0129C96.556 70.0594 95.9856 69.0494 95.2396 68.0332C93.7415 66.0069 91.5224 64.0121 88.8771 62.3058C86.2381 60.5869 83.1666 59.1629 79.9759 58.1028C76.7915 57.0363 73.4755 56.34 70.335 56.133C67.1945 55.9134 64.2233 56.1832 61.8099 56.9046C60.6063 57.2747 59.547 57.7389 58.6757 58.2784C57.8043 58.8116 57.1399 59.4264 56.6697 59.991C56.1933 60.5556 55.9363 61.0825 55.7608 61.4275C55.6166 61.7914 55.5352 61.9921 55.5352 61.9921C55.5352 61.9921 55.6104 61.7976 55.7483 61.4275C55.9238 61.0762 56.1683 60.5367 56.6384 59.9659C57.1023 59.3887 57.7542 58.7552 58.6255 58.2031C59.4906 57.6448 60.5562 57.1492 61.7723 56.7728C64.1982 56.0263 67.1882 55.7378 70.3475 55.9385C73.5131 56.1267 76.8479 56.8042 80.0574 57.8581C83.2606 58.9434 86.3384 60.3987 88.9837 62.1427C91.6353 63.8741 93.8543 65.9003 95.3525 67.9516C96.0984 68.9804 96.6563 70.0155 97.0136 70.9816C97.3772 71.9476 97.5214 72.851 97.5527 73.5849C97.584 74.3252 97.4587 74.9023 97.3897 75.2912C97.2831 75.6739 97.2205 75.8747 97.2205 75.8747L97.2267 75.8684Z" fill="#797979"/>
<path d="M109.017 40.3748C109.017 40.3748 108.766 41.2593 108.365 42.5766C108.158 43.2353 107.92 44.0006 107.663 44.8224C107.4 45.6442 107.112 46.5162 106.829 47.3882C106.535 48.2601 106.24 49.1258 105.964 49.9413C105.676 50.7569 105.413 51.5096 105.181 52.1621C104.711 53.4606 104.385 54.32 104.385 54.32C104.385 54.32 104.636 53.4355 105.037 52.1181C105.244 51.4595 105.482 50.6941 105.739 49.8723C106.002 49.0506 106.29 48.1786 106.572 47.3066C106.867 46.4346 107.162 45.5689 107.438 44.7534C107.726 43.9379 107.989 43.1851 108.221 42.5327C108.691 41.2342 109.017 40.3748 109.017 40.3748Z" fill="#25243E"/>
<path d="M114.154 115.107L25.5378 115.107V103.574C25.5378 98.4035 29.7318 94.1993 34.9056 94.1993L104.787 94.1993C109.953 94.1993 114.154 98.3965 114.154 103.574V115.107Z" fill="#797979"/>
<path d="M67.865 131C105.346 131 135.73 129.437 135.73 127.508C135.73 125.58 105.346 124.017 67.865 124.017C30.3842 124.017 0 125.58 0 127.508C0 129.437 30.3842 131 67.865 131Z" fill="#C7D5EA"/>
<path d="M126.158 127.635L13.5338 127.635V116.102C13.5338 110.931 17.7278 106.727 22.9016 106.727L116.79 106.727C121.957 106.727 126.158 110.924 126.158 116.102V127.635Z" fill="#797979"/>
</g>
<defs>
<clipPath id="clip0_310_774">
<rect width="192" height="131" fill="white"/>
</clipPath>
</defs>
</svg>
