<svg width="100" height="212" viewBox="0 0 100 212" fill="none" xmlns="http://www.w3.org/2000/svg">
<g clip-path="url(#clip0_310_746)">
<path d="M95.4388 19.8794C99.3339 28.1624 100.156 57.4915 99.748 67.3022C99.3404 77.1129 94.617 93.4663 92.773 108.795C90.9289 124.123 33.2777 143.783 34.5523 107.712C35.827 71.6403 40.5439 48.6025 46.1537 43.233C51.7701 37.8636 95.4388 19.8794 95.4388 19.8794Z" fill="#F9C88C"/>
<path opacity="0.45" d="M64.523 79.1047C70.2623 70.8217 73.3163 62.2034 73.1092 57.7171C83.3454 59.3221 92.8504 58.626 99.5991 50.3494C99.1202 38.592 97.8844 25.0813 95.4386 19.8794C95.4386 19.8794 51.7634 37.8636 46.1536 43.233C41.4819 47.7001 37.4315 64.4144 35.4709 90.6881C44.9501 90.2497 58.3826 87.9679 64.523 79.1047Z" fill="#F5B284"/>
<path d="M8.04967 44.7415C5.62974 32.2879 3.60451 24.6688 3.20981 19.396C2.841 14.4455 4.19331 12.7438 7.3444 10.2943C14.6818 4.60902 23.2033 3.29405 26.8721 3.24893C31.589 3.19736 32.6113 5.42121 33.6983 8.5346C34.7854 11.648 39.4052 34.3828 40.4922 40.3389C41.5793 46.2949 37.7747 50.6266 37.7747 50.6266L8.04967 44.7415Z" fill="#F5B685"/>
<path d="M40.4984 40.3387C39.4113 34.3826 34.7915 11.6478 33.7045 8.53439C32.9733 6.4459 32.268 4.76351 30.4628 3.89331C31.6663 15.6507 16.1567 20.8913 3.24829 19.8212C3.71416 25.0811 5.6941 32.61 8.04933 44.7348L37.7743 50.6199C37.7743 50.6199 41.5789 46.2883 40.4919 40.3322L40.4984 40.3387Z" fill="#F3A37F"/>
<path d="M32.3326 6.49118C32.5397 3.66786 36.7325 -0.0965726 44.2964 0.000116502C51.8603 0.103252 55.8331 1.90812 56.299 5.58875C56.7713 9.26938 56.6549 29.7739 55.6325 34.357C54.6102 38.9401 54.6232 46.7525 48.6898 47.6679C42.7629 48.5832 38.0719 47.4036 37.0496 44.7092C34.2932 37.4575 32.3262 6.48473 32.3262 6.48473L32.3326 6.49118Z" fill="#F5B685"/>
<path d="M56.2991 5.58867C56.1179 4.17056 55.4062 3.02963 54.1768 2.15942C54.138 5.38884 53.9892 16.1665 53.5298 27.4855C53.2386 34.7372 46.8459 36.6517 41.5854 34.2538C36.4285 31.901 34.1186 16.2116 33.7174 3.66777C32.8633 4.60244 32.391 5.59511 32.3198 6.49754C32.3198 6.49754 34.2868 37.4703 37.0432 44.722C38.0655 47.4099 42.7566 48.596 48.6835 47.6807C54.6103 46.7653 54.6039 38.9529 55.6262 34.3698C56.6485 29.7867 56.765 9.28219 56.2926 5.60156L56.2991 5.58867Z" fill="#F3A37F"/>
<path d="M75.2767 9.47565C75.6843 7.74169 81.1065 4.99572 87.5445 8.86328C93.9826 12.7308 99.6118 15.4833 95.8267 29.3356C94.2738 35.0274 92.6044 43.8325 85.0923 45.2248C79.0618 46.3464 74.3579 44.3095 70.8833 42.4724C64.3935 39.0496 75.2767 9.4692 75.2767 9.4692V9.47565Z" fill="#F5B685"/>
<path d="M83.2156 40.2228C75.9946 37.4381 77.4181 20.8527 83.7785 7.27111C79.1133 6.08505 75.6064 8.09619 75.2764 9.47562C75.2764 9.47562 64.3867 39.0496 70.883 42.4788C74.3576 44.3095 79.0616 46.3464 85.092 45.2313C88.8319 44.5351 91.1224 42.0083 92.6688 38.94C90.8053 40.558 87.7254 41.9696 83.2156 40.2292V40.2228Z" fill="#F3A37F"/>
<path d="M55.5745 7.09696C56.3897 4.55081 58.2338 3.32608 62.4266 3.53235C66.6194 3.73862 75.1021 5.77554 75.9239 7.50305C76.7391 9.23701 75.7168 19.5247 75.2057 23.9015C74.6945 28.2783 72.9346 39.0173 72.2228 41.2604C71.5046 43.5036 70.424 47.7902 62.5884 47.5323C56.5386 47.3325 52.8246 45.6115 52.954 39.9777C53.0834 34.344 55.5874 7.09051 55.5874 7.09051L55.5745 7.09696Z" fill="#F5B685"/>
<path d="M57.8191 20.3371C57.7415 20.8979 60.7243 21.781 64.4836 22.316C68.2429 22.8445 71.3552 22.8252 71.4393 22.2644C71.5169 21.7036 68.5341 20.8205 64.7748 20.2855C61.0155 19.7569 57.9032 19.7763 57.8191 20.3371Z" fill="#F3A37F"/>
<path d="M60.2461 31.0759C60.8737 23.1023 60.6602 8.43134 60.5631 3.55176C57.6644 3.76447 56.2539 4.96987 55.5745 7.09703C55.5745 7.09703 53.0704 34.3505 52.941 39.9842C52.8116 45.618 56.5321 47.339 62.5754 47.5389C70.4111 47.7967 71.4981 43.5037 72.2099 41.267C72.2746 41.0671 72.3457 40.79 72.4299 40.4612C66.82 45.6695 59.5408 39.9262 60.2396 31.0824L60.2461 31.0759Z" fill="#F3A37F"/>
<path d="M34.5457 107.712C34.1121 90.3336 29.3758 84.1068 15.8074 77.4546C2.23897 70.8088 -1.85032 66.5158 0.731366 53.6433C3.31305 40.7707 9.34994 28.1109 11.7181 23.6052C14.0863 19.0995 17.535 17.1657 26.5806 18.4549C35.6262 19.7441 50.2946 19.7505 55.5615 18.5645C59.7155 17.5718 64.1866 31.74 50.7022 40.1261C44.413 44.0324 37.0497 44.7156 37.0497 44.7156C37.0497 44.7156 61.2555 46.1337 66.8524 65.2331C72.4492 84.3324 62.9766 117.806 34.5457 107.718V107.712Z" fill="#F9C88C"/>
<path d="M34.5457 107.712C30.4952 146.278 19.1008 263.994 19.1008 263.994H97.4897C97.4897 263.994 92.5204 130.891 93.6657 102.104C94.8045 73.3162 34.5457 107.712 34.5457 107.712Z" fill="#F9C88C"/>
<g opacity="0.45">
<path d="M100 64.4402C99.6894 73.8061 95.6519 90.8299 93.6461 102.748C93.4002 114.673 93.452 127.211 93.8725 141.263C89.7574 114.474 70.4497 110.87 69.4856 91.9837C69.4856 91.9837 92.3067 102.594 100.006 64.4402H100Z" fill="#F5B284"/>
</g>
<path d="M18.0459 72.3364C10.5208 67.5728 5.99803 66.058 5.01453 59.915C3.98573 53.4562 3.27399 46.2238 6.89094 34.041C4.58101 39.649 2.14167 46.617 0.731122 53.6431C-1.85057 66.5157 2.23873 70.8087 15.8071 77.4609C24.8463 81.8892 29.9644 86.1371 32.5008 93.6144C32.3196 82.7466 26.3668 77.6027 18.0459 72.3428V72.3364Z" fill="#F5B284"/>
<path d="M25.4736 45.257C47.9324 46.7202 61.5073 59.2253 66.9036 65.4134C66.8842 65.3554 66.8712 65.291 66.8518 65.2329C61.2549 46.1336 37.0492 44.7155 37.0492 44.7155C37.0492 44.7155 44.4125 44.0322 50.7017 40.126C57.9162 35.6461 59.9867 29.5031 59.7215 24.9136C55.8651 33.4544 41.9084 42.6335 25.4736 45.257Z" fill="#F5B284"/>
<path opacity="0.62" d="M55.5485 18.5642C53.2903 19.067 49.3175 19.3571 44.8076 19.4215C45.7458 21.568 46.0435 22.825 46.5611 25.5903C52.7727 25.6354 57.2114 22.3286 55.5485 18.5642Z" fill="#FCE0AB"/>
<path d="M22.0964 32.062C22.0964 32.062 17.69 23.5727 17.5995 20.8074C21.2358 26.7183 25.1634 27.6723 25.1634 27.6723C25.1634 27.6723 20.427 22.5284 19.1588 18.229C17.7095 18.4353 16.5189 18.8285 15.5095 19.3957C17.7353 28.4716 22.0964 32.0555 22.0964 32.0555V32.062Z" fill="#F5B284"/>
<path d="M48.3732 17.0752C52.1718 17.0752 55.2512 16.6163 55.2512 16.0503C55.2512 15.4843 52.1718 15.0254 48.3732 15.0254C44.5745 15.0254 41.4951 15.4843 41.4951 16.0503C41.4951 16.6163 44.5745 17.0752 48.3732 17.0752Z" fill="#F3A37F"/>
<path d="M76.7126 19.7375C76.5767 20.2854 79.4561 21.4715 83.1377 22.3804C86.8259 23.2893 89.9252 23.5858 90.0611 23.0379C90.1969 22.49 87.3176 21.3039 83.6359 20.395C79.9478 19.4861 76.8485 19.1896 76.7126 19.7375Z" fill="#F3A37F"/>
<path d="M29.9838 149.533C25.1375 193.166 19.1006 263.994 19.1006 263.994H97.4894C97.4894 263.994 96.7712 229.327 95.943 207.082C58.4924 243.238 34.7266 200.211 29.9838 149.533Z" fill="#F5B284"/>
</g>
<defs>
<clipPath id="clip0_310_746">
<rect width="100" height="264" fill="white"/>
</clipPath>
</defs>
</svg>
