<svg width="943" height="400" viewBox="0 0 943 400" fill="none" xmlns="http://www.w3.org/2000/svg">
<g clip-path="url(#clip0_443_3412)">
<path d="M505.159 84.5332L509.361 76.3732C515.016 74.7066 520.245 71.3199 524.206 66.2666C533.17 54.8666 532.383 38.2932 522.379 27.7999C509.815 14.6132 488.567 15.7599 477.496 30.2266C468.613 41.8266 469.72 58.5199 480.03 68.8666C485.299 74.1599 492.008 76.9999 498.824 77.4932H498.81L505.146 84.5199L505.159 84.5332Z" fill="white"/>
<path d="M505.159 84.5333C505.159 84.5333 505.012 84.3599 504.745 84.0399C504.452 83.7066 504.052 83.2533 503.545 82.6666C502.478 81.4533 500.931 79.6933 498.917 77.4133L498.837 77.6399H498.85C498.93 77.6266 498.97 77.5466 498.957 77.4799C498.957 77.4133 498.89 77.3733 498.837 77.3733C495.088 77.0666 490.14 75.9599 485.218 72.7866C482.751 71.2266 480.376 69.1066 478.282 66.5066C476.175 63.9066 474.387 60.7733 473.24 57.2266C472.08 53.6799 471.56 49.7333 471.907 45.6799C472.24 41.6399 473.454 37.4933 475.601 33.7066C479.843 26.1333 488.139 20.1333 497.703 19.1466L499.49 18.9733H501.277C502.465 18.8933 503.652 19.1199 504.825 19.1866C507.146 19.5466 509.44 20.0666 511.575 20.9466C515.869 22.6266 519.658 25.2799 522.605 28.4933C525.54 31.7466 527.634 35.5466 528.848 39.4399C530.061 43.3333 530.408 47.3333 530.035 51.0533C529.288 58.5466 525.766 64.7733 521.632 68.8533C517.497 72.9999 512.908 75.1599 509.32 76.2399C509.294 76.2666 509.267 76.2799 509.24 76.3066C507.933 78.9333 506.92 80.9599 506.213 82.3733C505.879 83.0533 505.612 83.5733 505.426 83.9599C505.252 84.3199 505.159 84.5199 505.159 84.5199C505.159 84.5199 505.252 84.3599 505.439 84.0266C505.639 83.6533 505.906 83.1466 506.266 82.4933C507.013 81.0799 508.093 79.0533 509.494 76.4133L509.414 76.4799C513.042 75.4399 517.71 73.3066 521.938 69.1333C526.153 65.0266 529.781 58.7066 530.582 51.0799C530.968 47.2933 530.648 43.2266 529.421 39.2399C528.207 35.2666 526.073 31.3733 523.085 28.0533C520.071 24.7599 516.216 22.0399 511.828 20.3199C509.64 19.4133 507.306 18.8933 504.932 18.5199C503.732 18.4399 502.531 18.2266 501.317 18.2799H499.49L497.663 18.4666C487.886 19.4799 479.416 25.6133 475.108 33.3599C472.92 37.2266 471.707 41.4666 471.373 45.5866C471.04 49.7199 471.573 53.7466 472.774 57.3466C473.961 60.9599 475.801 64.1333 477.962 66.7599C480.11 69.3866 482.537 71.5333 485.058 73.0933C490.073 76.2666 495.102 77.3466 498.89 77.5999V77.3333H498.863C498.783 77.3466 498.743 77.4133 498.756 77.4933C498.756 77.5199 498.77 77.5466 498.797 77.5599C500.877 79.8133 502.491 81.5599 503.612 82.7733C504.132 83.3333 504.532 83.7599 504.839 84.0799C505.106 84.3733 505.252 84.5066 505.252 84.4933L505.159 84.5333Z" fill="#263238"/>
<path d="M499.077 62.4801L483.472 52.2401L487.046 46.8001L497.504 53.6667L510.295 36.4268L515.524 40.3067L499.077 62.4801Z" fill="#6C6C6C"/>
<path d="M517.657 116.973C516.79 115.266 514.749 114.266 512.882 114.6C510.695 112.84 507.253 112.893 505.119 114.72C503.465 113.72 501.291 113.68 499.597 114.6C497.903 115.52 496.743 117.373 496.649 119.306C494.729 118.986 492.648 120.04 491.741 121.773C490.834 123.506 491.167 125.813 492.528 127.226C490.434 127.906 489.047 130.306 489.5 132.48C489.954 134.653 492.208 136.28 494.395 136.04L516.804 122.266C518.164 120.933 518.537 118.68 517.657 116.973Z" fill="#263238"/>
<path d="M493.728 136.666C494.555 126.693 502.878 119.026 512.828 119.066H513.815C524.486 119.733 527.807 129.613 526.86 140.32L525.793 180.106L508.8 194.773L503.812 183.786L502.611 173.12C502.611 173.12 492.367 171.48 492.274 161.173C492.234 156.2 492.968 145.933 493.741 136.653L493.728 136.666Z" fill="#FFBF9D"/>
<path d="M502.518 173.106C502.518 173.106 509.067 173.519 515.963 169.199C515.963 169.199 513.149 176.893 502.918 175.933L502.518 173.106Z" fill="#5E5E5E"/>
<path d="M496.676 146.213C496.649 146.986 497.276 147.653 498.076 147.706C498.877 147.746 499.557 147.16 499.583 146.386C499.61 145.613 498.983 144.946 498.183 144.893C497.383 144.853 496.702 145.44 496.662 146.213H496.676Z" fill="#263238"/>
<path d="M495.809 142.24C495.995 142.426 497.103 141.613 498.676 141.626C500.25 141.613 501.411 142.426 501.571 142.24C501.651 142.16 501.477 141.813 500.971 141.44C500.477 141.066 499.637 140.706 498.65 140.706C497.663 140.706 496.836 141.066 496.369 141.44C495.889 141.813 495.715 142.16 495.809 142.24Z" fill="#263238"/>
<path d="M510.174 146.946C510.147 147.72 510.774 148.386 511.574 148.44C512.374 148.48 513.055 147.893 513.081 147.12C513.108 146.346 512.481 145.68 511.681 145.626C510.88 145.586 510.2 146.173 510.16 146.946H510.174Z" fill="#263238"/>
<path d="M510.881 142.066C511.067 142.253 512.175 141.44 513.748 141.453C515.322 141.453 516.469 142.253 516.643 142.066C516.723 141.986 516.549 141.64 516.043 141.266C515.549 140.893 514.709 140.533 513.722 140.533C512.735 140.533 511.908 140.893 511.441 141.266C510.961 141.64 510.787 141.986 510.881 142.066Z" fill="#263238"/>
<path d="M505.652 153.787C505.652 153.693 504.678 153.52 503.091 153.32C502.691 153.28 502.304 153.2 502.237 152.92C502.144 152.627 502.317 152.186 502.504 151.72C502.891 150.746 503.291 149.72 503.705 148.64C505.372 144.253 506.586 140.653 506.399 140.587C506.226 140.52 504.732 144.013 503.064 148.4C502.664 149.48 502.277 150.507 501.917 151.493C501.757 151.947 501.504 152.467 501.704 153.08C501.811 153.387 502.104 153.6 502.357 153.68C502.611 153.76 502.838 153.76 503.038 153.773C504.638 153.866 505.625 153.88 505.625 153.773L505.652 153.787Z" fill="#263238"/>
<path d="M510.281 154.906C510.028 154.893 510.015 156.613 508.547 157.826C507.08 159.04 505.266 158.853 505.239 159.093C505.213 159.2 505.64 159.426 506.413 159.453C507.174 159.48 508.267 159.24 509.174 158.493C510.068 157.746 510.455 156.746 510.521 156.04C510.588 155.32 510.401 154.893 510.281 154.906Z" fill="#263238"/>
<path d="M510.88 137.546C511.067 137.96 512.427 137.6 514.068 137.626C515.722 137.626 517.082 138.013 517.256 137.6C517.336 137.4 517.056 137.026 516.482 136.68C515.909 136.333 515.028 136.026 514.041 136.026C513.054 136.026 512.187 136.293 511.627 136.64C511.067 136.986 510.8 137.36 510.88 137.546Z" fill="#263238"/>
<path d="M496.182 137.893C496.422 138.28 497.542 138 498.836 138.093C500.143 138.146 501.224 138.546 501.504 138.186C501.624 138.013 501.49 137.64 501.037 137.253C500.597 136.88 499.823 136.533 498.93 136.48C498.036 136.426 497.236 136.693 496.742 137.013C496.248 137.346 496.075 137.693 496.182 137.88V137.893Z" fill="#263238"/>
<path d="M494.742 131.933C494.742 131.933 497.463 125.48 500.571 123.986C504.319 122.173 505.92 126.32 509.494 125.32C513.069 124.333 516.657 122.586 520.298 125.373C524.286 128.426 522.406 130.546 522.632 135.12C523.566 153.666 526.927 158.92 527.914 150.186C528.021 149.226 530.662 148.48 531.076 144.44C531.596 139.2 531.823 132.826 530.675 129.106C529.702 125.973 527.928 123.8 524.753 121.4C519.738 117.613 512.816 117.506 508.12 117.973C503.425 118.426 494.355 123.84 494.756 131.92L494.742 131.933Z" fill="#263238"/>
<path d="M525.954 149.933C526.02 148.346 527.394 147.093 528.968 147.253C530.875 147.44 533.01 148.546 532.863 152.52C532.609 159.573 525.633 157.866 525.62 157.666C525.62 157.533 525.82 152.893 525.954 149.946V149.933Z" fill="#FFBF9D"/>
<path d="M527.246 155.053C527.246 155.053 527.366 155.146 527.566 155.24C527.767 155.333 528.113 155.413 528.473 155.293C529.22 155.04 529.887 153.893 529.967 152.613C530.007 151.973 529.901 151.36 529.687 150.84C529.487 150.32 529.167 149.946 528.807 149.866C528.433 149.773 528.167 149.986 528.073 150.173C527.967 150.373 528.007 150.506 527.98 150.52C527.967 150.533 527.833 150.4 527.9 150.106C527.94 149.973 528.02 149.8 528.193 149.68C528.367 149.546 528.62 149.493 528.874 149.52C529.407 149.573 529.887 150.093 530.114 150.653C530.368 151.226 530.514 151.906 530.474 152.626C530.381 154.04 529.607 155.346 528.58 155.613C528.087 155.72 527.673 155.56 527.473 155.386C527.26 155.2 527.233 155.04 527.26 155.04L527.246 155.053Z" fill="#5E5E5E"/>
<path d="M527.167 136.28C526.26 136.906 525.286 137.546 524.192 137.653C523.098 137.76 521.845 137.12 521.658 136.026C521.578 135.533 521.698 134.973 521.378 134.586C520.991 134.133 520.284 134.266 519.697 134.333C517.656 134.546 515.576 133.093 515.069 131.093C514.549 131.88 513.335 131.84 512.548 131.32C511.761 130.813 511.254 129.973 510.641 129.266C510.027 128.56 509.16 127.92 508.24 128.053C507.719 128.12 507.239 128.44 506.719 128.386C505.799 128.306 505.359 127.213 505.212 126.293C505.078 125.373 504.972 124.306 504.198 123.8C503.478 123.333 502.544 123.6 501.691 123.72C500.837 123.84 499.743 123.64 499.53 122.8C499.423 122.36 499.61 121.906 499.85 121.52C500.944 119.8 503.331 119.04 505.212 119.813C505.905 117.48 508.08 115.68 510.48 115.44C512.881 115.186 515.376 116.52 516.523 118.653C518.003 117.306 520.164 116.746 522.111 117.2C524.059 117.653 525.753 119.106 526.5 120.973C528.207 120.533 530.141 121.2 531.221 122.6C532.302 124 532.449 126.066 531.582 127.613C532.835 128.346 533.916 129.6 533.929 131.066C533.956 132.52 532.529 133.973 531.128 133.586C531.688 134.72 531.221 136.266 530.128 136.893C529.034 137.52 527.473 137.146 526.78 136.08" fill="#263238"/>
<path d="M531.662 133.56C531.662 133.56 531.795 134.146 531.222 134.92C530.942 135.28 530.461 135.653 529.808 135.76C529.181 135.866 528.407 135.706 527.807 135.173L528.101 135.133C527.754 135.733 527.287 136.36 526.7 136.88C526.313 137.213 525.886 137.506 525.42 137.68C524.953 137.866 524.433 137.88 524.006 137.813C523.112 137.706 522.338 137.226 521.992 136.64C521.618 136.066 521.498 135.533 521.431 135.173C521.365 134.813 521.351 134.613 521.378 134.6C521.405 134.6 521.471 134.786 521.578 135.133C521.698 135.466 521.858 135.973 522.218 136.48C522.885 137.493 525.046 138.013 526.433 136.6C526.994 136.106 527.434 135.52 527.767 134.96L527.887 134.746L528.061 134.906C528.541 135.36 529.208 135.52 529.755 135.453C530.315 135.386 530.742 135.093 531.022 134.786C531.582 134.146 531.582 133.573 531.649 133.586L531.662 133.56Z" fill="#455A64"/>
<path d="M518.471 117.426C518.471 117.426 518.284 117.48 517.978 117.613C517.671 117.746 517.217 118.013 516.884 118.546L516.804 118.68L516.71 118.546C516.057 117.666 514.963 116.52 513.336 115.773C512.522 115.413 511.575 115.16 510.575 115.16C509.574 115.16 508.534 115.44 507.6 116C506.88 116.44 506.267 117.026 505.826 117.68C505.386 118.346 505.119 119.08 505.053 119.8L505.026 120.026L504.813 119.973C503.759 119.68 502.692 119.88 501.905 120.32C501.105 120.76 500.598 121.426 500.304 122.026C499.731 123.266 499.931 124.12 499.864 124.106C499.851 124.106 499.798 123.906 499.784 123.533C499.784 123.16 499.824 122.586 500.104 121.933C500.384 121.293 500.905 120.546 501.758 120.04C502.599 119.546 503.759 119.293 504.919 119.6L504.679 119.76C504.746 118.973 505.039 118.173 505.493 117.453C505.973 116.746 506.613 116.12 507.387 115.653C508.374 115.053 509.508 114.746 510.575 114.76C511.642 114.76 512.629 115.053 513.483 115.453C515.177 116.266 516.27 117.48 516.897 118.413H516.71C517.111 117.853 517.617 117.6 517.951 117.506C518.298 117.4 518.484 117.413 518.484 117.44L518.471 117.426Z" fill="#455A64"/>
<path d="M526.527 168.747L527.341 174.067L497.783 189.387L499.717 180.773C499.717 180.773 503.812 177.04 508.854 174.613C517.257 170.56 526.54 168.76 526.54 168.76L526.527 168.747Z" fill="#F5F5F5"/>
<path d="M531.582 177.08C531.582 177.08 539.078 196.813 539.158 204.093C539.238 211.373 534.996 231.093 534.996 231.093L513.789 271.533L510.054 301.4C495.969 301.466 477.108 298.64 456.834 294.973C456.834 294.973 472.36 239.04 477.255 231.533C482.15 224.013 499.33 189.56 499.33 189.56C499.33 189.56 500.744 185.96 505.025 182.08C510.961 176.693 521.885 173.933 531.622 172.76L531.582 177.08Z" fill="#6C6C6C"/>
<path d="M523.499 185.386C517.43 185.186 509.093 188.52 504.852 198.573L500.33 211.12L483.524 235.24L439.414 232.346L436.693 250.573C436.693 250.573 484.751 261.226 490.393 260.626C496.022 260.026 523.299 231.586 523.299 231.586C523.299 231.586 537.464 213.906 536.77 199.186" fill="#6C6C6C"/>
<path d="M536.757 199.2C536.757 199.2 536.73 199.413 536.717 199.826C536.704 200.266 536.677 200.88 536.65 201.653C536.61 202.453 536.424 203.44 536.29 204.6C536.037 205.746 535.823 207.093 535.356 208.546C533.703 214.426 529.808 222.626 523.072 231.426H523.085C518.937 235.68 514.255 240.36 509.08 245.306C506.479 247.773 503.771 250.32 500.877 252.84C499.437 254.106 497.943 255.373 496.395 256.586C494.848 257.786 493.221 259.026 491.46 259.893C490.993 260.08 490.593 260.266 490.113 260.253C489.62 260.24 489.126 260.253 488.619 260.213C487.592 260.093 486.565 260.026 485.538 259.853C483.471 259.573 481.377 259.213 479.256 258.853C475.028 258.106 470.719 257.28 466.318 256.413C457.528 254.653 448.431 252.733 439.121 250.706L436.76 250.186L437.067 250.626C437.987 244.426 438.908 238.333 439.788 232.386L439.374 232.72C455.22 233.746 470.092 234.706 483.484 235.573H483.684L483.791 235.426C489.993 226.48 495.622 218.36 500.544 211.266L500.57 211.24V211.2C501.557 208.453 502.491 205.84 503.371 203.373C504.278 200.92 504.972 198.52 506.066 196.52C508.173 192.426 511.188 189.653 513.949 188.026C516.736 186.373 519.244 185.826 520.898 185.573C521.738 185.466 522.392 185.413 522.819 185.413C523.259 185.4 523.472 185.386 523.472 185.373C523.472 185.373 522.578 185.253 520.871 185.426C519.191 185.626 516.63 186.133 513.789 187.773C510.961 189.386 507.84 192.173 505.666 196.32C504.518 198.373 503.825 200.76 502.891 203.213C501.998 205.68 501.037 208.293 500.05 211.026L500.077 210.96C495.128 218.026 489.46 226.133 483.217 235.04L483.524 234.893C470.146 234 455.274 233 439.428 231.946L439.068 231.92L439.014 232.28C438.121 238.213 437.214 244.306 436.28 250.506L436.227 250.866L436.587 250.946L438.948 251.466C448.271 253.506 457.381 255.413 466.171 257.16C470.573 258.026 474.894 258.853 479.122 259.586C481.243 259.946 483.337 260.293 485.431 260.573C486.472 260.733 487.526 260.813 488.553 260.933C489.073 260.986 489.62 260.96 490.153 260.973C490.7 260.973 491.274 260.746 491.74 260.546C493.634 259.6 495.235 258.36 496.822 257.133C498.383 255.893 499.877 254.613 501.317 253.346C504.212 250.8 506.919 248.24 509.52 245.76C514.696 240.786 519.337 236.066 523.472 231.76V231.746C530.208 222.826 534.036 214.56 535.623 208.6C536.063 207.12 536.264 205.76 536.49 204.6C536.61 203.426 536.77 202.426 536.784 201.626C536.784 200.853 536.784 200.24 536.77 199.8C536.77 199.386 536.757 199.173 536.744 199.173L536.757 199.2Z" fill="#263238"/>
<path d="M495.368 190.906C495.368 190.906 495.768 190.586 496.435 189.933C496.769 189.613 497.169 189.213 497.676 188.786C498.169 188.36 498.716 187.84 499.37 187.333C500.65 186.28 502.251 185.12 504.092 183.946C505.959 182.8 508.08 181.653 510.387 180.64C515.016 178.613 519.471 177.453 522.712 176.746C524.339 176.4 525.646 176.146 526.567 175.986C527.474 175.826 527.98 175.72 527.98 175.68C527.98 175.64 527.46 175.693 526.54 175.813C525.619 175.92 524.286 176.133 522.645 176.44C519.377 177.066 514.882 178.186 510.214 180.226C507.88 181.253 505.745 182.426 503.878 183.6C502.024 184.8 500.437 185.986 499.17 187.08C498.516 187.6 497.996 188.146 497.502 188.586C497.009 189.026 496.622 189.453 496.302 189.786C495.662 190.466 495.328 190.853 495.355 190.88L495.368 190.906Z" fill="#263238"/>
<path d="M460.836 148.52L465.037 160.866L466.504 162.933C466.504 162.933 467.785 169.8 467.865 171.267C467.945 172.733 466.038 180.413 466.038 180.413L470.306 187.24L458.501 191.773C458.501 191.773 455.3 185.533 454.407 184.826C453.513 184.12 452.873 182.093 452.659 180.733C452.446 179.36 450.685 171.267 450.685 171.267C450.685 171.267 445.457 162.32 447.631 161.866C448.124 161.76 449.271 161.893 449.271 161.893C449.271 161.893 452.419 167.773 453.273 167.893L454.46 167.2C454.46 167.2 451.992 158.2 451.872 156.52C451.752 154.84 452.099 153.653 453.393 153.453C453.393 153.453 454.367 153.84 454.46 154.267C454.553 154.693 457.007 164.733 457.554 164.546C458.115 164.36 457.848 163.44 457.848 163.44C457.848 163.44 454.58 151.266 454.727 150.573C454.873 149.88 455.474 148.786 456.687 148.906L459.195 155.586C459.195 155.586 458.021 149.96 458.928 148.96C459.835 147.96 460.836 148.493 460.836 148.493V148.52Z" fill="#FFBF9D"/>
<path d="M458.342 175.84C458.449 175.84 458.369 174.786 458.769 173.106C459.169 171.466 460.249 169.12 462.437 167.426L462.597 167.306L462.557 167.12C462.357 166.226 462.13 165.293 461.917 164.32V164.266L461.863 164.213C461.663 163.92 461.45 163.586 461.25 163.24C460.583 162.08 460.089 160.866 459.889 159.68C459.796 159.093 459.769 158.506 459.916 158.013C460.036 157.52 460.436 157.16 460.81 157.106L460.609 157.026C462.023 158.373 463.21 159.493 464.051 160.253C464.891 161.013 465.385 161.426 465.425 161.386C465.465 161.346 465.038 160.853 464.264 160.026C463.491 159.2 462.357 158.04 460.983 156.64L460.903 156.546H460.783C460.089 156.626 459.556 157.2 459.382 157.826C459.182 158.453 459.222 159.106 459.316 159.746C459.516 161.04 460.036 162.306 460.73 163.52C460.943 163.88 461.156 164.226 461.383 164.546L461.33 164.44C461.557 165.4 461.783 166.333 461.997 167.226L462.117 166.92C459.756 168.8 458.755 171.28 458.422 173.013C458.262 173.893 458.235 174.6 458.262 175.08C458.289 175.56 458.329 175.826 458.355 175.813L458.342 175.84Z" fill="#5E5E5E"/>
<path d="M458.342 165.853C458.289 165.693 456.488 166.227 454.594 167.493C452.687 168.747 451.5 170.2 451.62 170.307C451.753 170.44 453.087 169.227 454.941 168.013C456.782 166.787 458.422 166.027 458.355 165.867L458.342 165.853Z" fill="#5E5E5E"/>
<path d="M453.513 190.706L471.306 183.106L481.257 198.853L458.702 200.72L453.513 190.706Z" fill="#6C6C6C"/>
<path d="M555.497 142.213C555.497 142.213 546.347 150.146 543.052 162.24C539.757 174.333 541.638 208.826 536.69 219.826C531.741 230.826 508.653 271.64 508.239 280.546C507.826 289.453 509.933 293 514.908 301.493C519.883 309.986 530.581 323.16 538.757 323.32C546.933 323.48 549.294 315.573 549.294 315.573L535.276 287.866L553.656 242.053L566.367 191.546L572.089 166.653L555.51 142.213H555.497Z" fill="#263238"/>
<path d="M521.991 281.706C521.991 281.706 517.162 289.56 521.39 296.546C525.605 303.52 537.783 323.96 544.332 321.533C550.895 319.12 553.656 315.24 553.055 314.426C552.468 313.613 548.174 297 550.188 281.386C552.202 265.76 567.861 206.186 571.462 192.386C575.063 178.586 576.931 152.026 571.542 142.426C566.154 132.826 555.483 142.213 555.483 142.213C555.483 142.213 563.139 169.4 561.565 182.226C559.991 195.04 521.977 281.706 521.977 281.706H521.991Z" fill="#E0E0E0"/>
<path d="M521.991 281.706C521.991 281.706 522.111 281.493 522.311 281.053C522.524 280.6 522.804 279.96 523.191 279.12C523.965 277.386 525.085 274.853 526.526 271.586C529.407 265.013 533.582 255.413 538.704 243.306C543.786 231.2 549.961 216.64 556.283 199.92C557.07 197.826 557.871 195.706 558.604 193.533C558.978 192.453 559.365 191.36 559.751 190.253C560.098 189.133 560.445 188.013 560.792 186.88C561.179 185.76 561.419 184.586 561.672 183.4C562.006 182.226 561.992 181 562.112 179.786C562.166 177.346 562.086 174.893 561.832 172.426C560.859 162.546 558.618 152.426 555.857 142.093L555.737 142.48C557.337 141.16 559.178 140 561.152 139.24C563.113 138.466 565.34 138.16 567.301 138.946C569.275 139.693 570.689 141.493 571.596 143.466C572.569 145.44 573.063 147.653 573.516 149.853C574.303 154.306 574.517 158.933 574.504 163.586C574.477 168.24 574.17 172.946 573.637 177.666C573.263 181.133 572.73 184.56 572.063 187.92C571.409 191.28 570.462 194.586 569.622 197.88C567.914 204.466 566.247 210.96 564.593 217.346C561.339 230.12 558.244 242.44 555.47 254.24C554.083 260.133 552.762 265.893 551.615 271.52C550.468 277.133 549.414 282.666 549.361 288.08C549.228 293.493 549.641 298.706 550.361 303.666C550.735 306.146 551.175 308.56 551.722 310.906C552.015 312.093 552.242 313.2 552.722 314.386C553.016 314.746 552.709 315.24 552.429 315.706C552.122 316.16 551.762 316.6 551.362 316.986C549.761 318.56 547.84 319.72 545.88 320.6C544.879 321 543.919 321.573 542.945 321.453C541.945 321.373 540.998 320.933 540.144 320.426C538.424 319.36 536.983 317.946 535.663 316.56C534.342 315.146 533.155 313.693 532.035 312.266C527.62 306.506 524.378 301.12 521.697 296.773C520.31 294.626 519.843 292.346 519.79 290.413C519.75 288.453 520.097 286.813 520.457 285.52C520.83 284.226 521.244 283.293 521.537 282.666C521.831 282.04 521.991 281.72 521.991 281.72C521.991 281.72 521.151 282.893 520.31 285.466C519.91 286.76 519.537 288.413 519.55 290.4C519.577 292.373 520.03 294.733 521.431 296.92C524.072 301.306 527.273 306.706 531.674 312.533C532.781 313.986 533.969 315.453 535.302 316.88C536.636 318.293 538.09 319.733 539.877 320.853C540.771 321.4 541.771 321.88 542.905 321.973C543.185 322 543.479 321.973 543.759 321.946C544.026 321.866 544.332 321.826 544.586 321.72C545.093 321.52 545.6 321.333 546.106 321.093C548.107 320.2 550.095 319.026 551.762 317.386C552.189 316.986 552.562 316.52 552.909 316.026C553.069 315.773 553.229 315.506 553.336 315.186C553.389 315.026 553.429 314.853 553.416 314.653C553.416 314.56 553.362 314.426 553.309 314.32L553.229 314.133C552.842 313.146 552.575 311.92 552.295 310.786C551.762 308.466 551.322 306.053 550.975 303.586C550.281 298.653 549.868 293.466 550.028 288.106C550.095 282.733 551.162 277.28 552.309 271.666C553.469 266.053 554.803 260.306 556.19 254.413C558.978 242.64 562.086 230.306 565.353 217.546C567.007 211.173 568.688 204.68 570.395 198.093C571.236 194.8 572.183 191.493 572.85 188.093C573.53 184.693 574.063 181.253 574.437 177.773C574.97 173.026 575.264 168.293 575.304 163.613C575.317 158.933 575.104 154.28 574.303 149.733C573.85 147.48 573.343 145.226 572.316 143.146C571.356 141.093 569.822 139.093 567.594 138.253C565.38 137.373 562.939 137.733 560.898 138.56C558.804 139.373 556.937 140.533 555.256 141.933L555.083 142.08L555.15 142.32C557.911 152.6 560.152 162.706 561.139 172.506C562.899 182.466 558.551 191.346 555.683 199.706C549.428 216.426 543.305 231 538.277 243.133C533.168 255.213 529.1 264.853 526.299 271.493C524.899 274.786 523.818 277.32 523.085 279.066C522.724 279.906 522.458 280.56 522.271 281.026C522.084 281.466 522.017 281.706 522.017 281.706H521.991Z" fill="#263238"/>
<path d="M184.453 344.853L894.396 344.853V245.6L184.453 245.6V344.853Z" fill="#6C6C6C"/>
<g opacity="0.4">
<path d="M184.453 344.853L894.396 344.853V245.6L184.453 245.6V344.853Z" fill="black"/>
</g>
<path d="M700.35 146.653C700.35 146.653 691.2 154.587 687.906 166.68C684.611 178.773 686.492 213.267 681.543 224.267C676.595 235.267 653.506 276.08 653.093 284.987C652.679 293.893 654.787 297.44 659.762 305.933C664.737 314.427 675.434 327.6 683.611 327.76C691.787 327.92 694.148 320.013 694.148 320.013L680.129 292.307L698.509 246.493L711.221 195.987L716.943 171.093L700.363 146.653H700.35Z" fill="#263238"/>
<path d="M666.844 286.147C666.844 286.147 662.016 294.013 666.244 300.987C670.459 307.96 682.637 328.4 689.186 325.973C695.748 323.56 698.509 319.68 697.909 318.867C697.322 318.053 693.027 301.44 695.041 285.827C697.055 270.2 712.714 210.627 716.316 196.827C719.917 183.027 721.784 156.467 716.396 146.867C711.007 137.267 700.336 146.653 700.336 146.653C700.336 146.653 707.993 173.84 706.419 186.667C704.845 199.48 666.831 286.147 666.831 286.147H666.844Z" fill="#E0E0E0"/>
<path d="M666.844 286.147C666.844 286.147 666.964 285.933 667.164 285.493C667.378 285.04 667.658 284.4 668.045 283.56C668.818 281.827 669.939 279.293 671.379 276.027C674.26 269.453 678.435 259.853 683.557 247.747C688.639 235.64 694.815 221.08 701.137 204.36C701.924 202.267 702.724 200.147 703.458 197.973C703.831 196.893 704.218 195.8 704.605 194.693C704.952 193.573 705.298 192.453 705.645 191.32C706.032 190.2 706.272 189.027 706.526 187.84C706.859 186.667 706.846 185.44 706.966 184.227C707.019 181.787 706.939 179.333 706.686 176.867C705.712 166.987 703.471 156.867 700.71 146.533L700.59 146.92C702.191 145.6 704.031 144.44 706.005 143.68C707.966 142.907 710.194 142.6 712.154 143.387C714.128 144.133 715.542 145.933 716.449 147.907C717.423 149.88 717.916 152.093 718.37 154.293C719.157 158.747 719.37 163.373 719.357 168.027C719.33 172.68 719.024 177.387 718.49 182.107C718.117 185.573 717.583 189 716.916 192.36C716.263 195.72 715.316 199.027 714.475 202.32C712.768 208.907 711.101 215.4 709.447 221.787C706.192 234.56 703.098 246.88 700.323 258.68C698.936 264.573 697.616 270.333 696.469 275.96C695.322 281.573 694.268 287.107 694.214 292.52C694.081 297.933 694.495 303.147 695.215 308.107C695.588 310.587 696.028 313 696.575 315.347C696.869 316.533 697.095 317.64 697.576 318.827C697.869 319.187 697.562 319.68 697.282 320.147C696.975 320.6 696.615 321.04 696.215 321.427C694.615 323 692.694 324.16 690.733 325.04C689.733 325.44 688.772 326.013 687.799 325.893C686.798 325.813 685.851 325.373 684.998 324.867C683.277 323.8 681.837 322.387 680.516 321C679.196 319.587 678.008 318.133 676.888 316.707C672.473 310.947 669.232 305.56 666.551 301.213C665.164 299.067 664.697 296.787 664.644 294.853C664.603 292.893 664.95 291.253 665.31 289.96C665.684 288.667 666.097 287.733 666.391 287.107C666.684 286.48 666.844 286.16 666.844 286.16C666.844 286.16 666.004 287.333 665.164 289.907C664.764 291.2 664.39 292.853 664.403 294.84C664.43 296.813 664.884 299.173 666.284 301.36C668.925 305.747 672.126 311.147 676.528 316.973C677.635 318.427 678.822 319.893 680.156 321.32C681.49 322.733 682.944 324.173 684.731 325.293C685.625 325.84 686.625 326.32 687.759 326.413C688.039 326.44 688.332 326.413 688.612 326.387C688.879 326.307 689.186 326.267 689.439 326.16C689.946 325.96 690.453 325.773 690.96 325.533C692.961 324.64 694.948 323.467 696.615 321.827C697.042 321.427 697.416 320.96 697.762 320.467C697.922 320.213 698.083 319.947 698.189 319.627C698.243 319.467 698.283 319.293 698.269 319.093C698.269 319 698.216 318.867 698.163 318.76L698.083 318.573C697.696 317.587 697.429 316.36 697.149 315.227C696.615 312.907 696.175 310.493 695.828 308.027C695.135 303.093 694.721 297.907 694.881 292.547C694.948 287.173 696.015 281.72 697.162 276.107C698.323 270.493 699.656 264.747 701.044 258.853C703.831 247.08 706.939 234.747 710.207 221.987C711.861 215.613 713.542 209.12 715.249 202.533C716.089 199.24 717.036 195.933 717.703 192.533C718.383 189.133 718.917 185.693 719.29 182.213C719.824 177.467 720.117 172.733 720.157 168.053C720.171 163.373 719.957 158.72 719.157 154.173C718.703 151.92 718.197 149.667 717.17 147.587C716.209 145.533 714.675 143.533 712.448 142.693C710.234 141.813 707.793 142.173 705.752 143C703.658 143.813 701.791 144.973 700.11 146.373L699.937 146.52L700.003 146.76C702.764 157.04 705.005 167.147 705.992 176.947C707.753 186.907 703.404 195.787 700.537 204.147C694.281 220.867 688.159 235.44 683.13 247.573C678.022 259.653 673.954 269.293 671.153 275.933C669.752 279.227 668.672 281.76 667.938 283.507C667.578 284.36 667.311 285 667.124 285.467C666.938 285.907 666.871 286.147 666.871 286.147H666.844Z" fill="#263238"/>
<path d="M928.889 248.04C928.889 248.04 925.954 220.626 924.66 217.16C923.353 213.693 918.151 206.4 918.151 206.4V175.52C922.059 171.706 922.7 168.586 922.7 168.586C923.42 166.733 876.496 161.653 876.496 161.653C876.496 161.653 769.456 127.306 747.328 120.706C725.2 114.12 625.643 104.746 625.643 104.746C551.136 95.2931 500.37 101.48 447.631 120.013C416.859 130.826 291.186 197.4 291.186 197.4L278.502 198.44C278.502 198.44 239.327 203.986 230.524 205.026C215.999 206.746 163.646 226.893 143.479 239.733C131.634 247.266 123.044 255.88 117.976 261.706C114.495 265.706 112.574 270.946 112.574 276.4V317.453C111.6 332.026 148.04 360.826 148.04 360.826H192.937V335.84H194.311C194.164 333.866 194.071 331.88 194.071 329.866C194.071 289.053 224.535 255.973 262.122 255.973C299.71 255.973 330.174 289.053 330.174 329.866C330.174 331.88 330.081 333.866 329.934 335.84L329.667 360.826H719.144L719.291 327.173C720.598 287.613 750.529 255.986 787.29 255.986C824.05 255.986 853.968 287.613 855.288 327.173L855.208 353.146C855.208 353.146 905.133 345.56 911.322 340.36C917.498 335.16 942.92 300.453 942.92 291.44C942.92 282.426 928.889 248.066 928.889 248.066V248.04ZM555.604 193.28L400.854 205L377.018 170.533C377.018 170.533 436.974 134.16 489.66 123.173C543.106 112.04 570.116 115.04 570.116 115.04L555.604 193.266V193.28ZM590.043 193.28C590.043 193.28 594.912 119.106 596.846 116.506C598.793 113.906 740.326 133.106 743.727 135.173C747.128 137.253 764.641 172.52 765.121 174.08L590.03 193.266L590.043 193.28Z" fill="#00AF00"/>
<path d="M190.603 291.413C190.603 291.413 190.723 291.2 190.963 290.8C191.203 290.387 191.536 289.773 192.016 288.973C192.937 287.36 194.431 285.053 196.458 282.12C198.565 279.253 201.166 275.72 204.661 272C208.116 268.267 212.304 264.173 217.559 260.413C222.774 256.667 228.897 252.907 236.126 250.493C243.315 247.973 251.452 246.693 260.175 246.56C268.885 246.373 278.168 247.253 287.612 249.693C292.347 250.867 297.095 252.493 301.777 254.6C306.445 256.707 311.127 259.253 315.329 262.6L315.462 262.707H315.609C346.74 259.413 381.82 255.72 418.793 251.813C452.806 248.2 485.205 244.76 514.669 241.64C515.589 241.547 516.509 241.44 517.416 241.347C518.337 241.293 519.244 241.24 520.164 241.2C521.992 241.107 523.792 241.013 525.593 240.92C529.194 240.747 532.742 240.587 536.25 240.413C543.253 240.147 550.069 239.88 556.644 239.64C569.809 239.213 582.067 238.947 593.258 238.773C615.653 238.427 633.766 238.387 646.291 238.32C652.533 238.28 657.388 238.253 660.709 238.227C662.337 238.213 663.59 238.187 664.457 238.187C665.298 238.173 665.738 238.147 665.738 238.147C665.738 238.147 665.311 238.12 664.457 238.107C663.59 238.107 662.337 238.08 660.709 238.067C657.388 238.053 652.533 238.027 646.291 237.987C633.766 237.96 615.639 237.893 593.244 238.16C582.04 238.293 569.783 238.52 556.618 238.92C550.042 239.12 543.226 239.36 536.223 239.653C532.715 239.813 529.168 239.973 525.553 240.133C523.752 240.227 521.938 240.307 520.111 240.4C519.204 240.453 518.284 240.493 517.363 240.547C516.443 240.64 515.536 240.733 514.602 240.84C485.125 243.947 452.726 247.36 418.713 250.947C381.74 254.867 346.66 258.6 315.529 261.907L315.809 262C311.487 258.56 306.792 256.04 302.07 253.907C297.349 251.787 292.56 250.16 287.798 248.987C278.288 246.56 268.938 245.693 260.188 245.907C251.438 246.053 243.209 247.387 235.979 249.947C228.697 252.413 222.548 256.227 217.319 260.027C212.064 263.827 207.876 267.973 204.434 271.747C200.953 275.493 198.365 279.08 196.298 281.973C194.297 284.933 192.843 287.267 191.95 288.907C191.029 290.533 190.643 291.413 190.643 291.413H190.603Z" fill="#263238"/>
<g opacity="0.2">
<path d="M112.573 288.293L141.304 277.36L144.719 294.013L190.589 291.413C190.589 291.413 210.783 250.266 252.078 246.653C287.438 243.56 315.528 262.306 315.528 262.306L517.576 240.933C517.576 240.933 620.067 236.773 659.602 237.293C699.137 237.813 733.976 268.453 733.976 268.453C733.976 268.453 745.647 250.4 786.982 249.986C828.318 249.573 845.577 275.466 845.577 275.466C874.721 271.4 902.812 259.04 926.167 240.013L928.181 241.733C928.608 245.44 928.888 248.04 928.888 248.04C928.888 248.04 942.92 282.386 942.92 291.413C942.92 300.44 917.497 335.133 911.322 340.333C905.146 345.533 855.208 353.12 855.208 353.12L855.288 327.146C853.98 287.586 824.049 255.96 787.289 255.96C750.529 255.96 720.611 287.586 719.291 327.146L719.144 360.8H329.68L329.947 335.813C330.094 333.84 330.187 331.853 330.187 329.84C330.187 289.026 299.723 255.946 262.135 255.946C224.548 255.946 194.084 289.026 194.084 329.84C194.084 331.853 194.177 333.84 194.324 335.813H192.95V360.8H148.053C148.053 360.8 111.613 332 112.587 317.426V288.28L112.573 288.293Z" fill="black"/>
</g>
<path d="M805.575 163.88L767.295 134.56C765.867 133.466 764.214 132.773 762.466 132.533C681.17 121.173 618.28 111.186 585.494 109.973C477.214 103.64 404.667 150.04 394.33 155.24C383.993 160.44 339.95 186.8 330 197.013C325.025 202.12 325.785 206.613 327.799 209.826C329.906 213.2 333.708 214.946 337.509 214.72L574.69 200.693L769.215 177.826L803.455 172.96C807.683 172.36 809.043 166.546 805.575 163.893V163.88ZM555.603 193.28L400.853 205L377.017 170.533C377.017 170.533 436.973 134.16 489.659 123.173C543.105 112.04 570.115 115.04 570.115 115.04L555.603 193.266V193.28ZM590.043 193.28C590.043 193.28 594.911 119.106 596.845 116.506C598.792 113.906 740.325 133.106 743.726 135.173C747.127 137.253 764.64 172.52 765.121 174.08L590.029 193.266L590.043 193.28Z" fill="#263238"/>
<path d="M711.208 129.8L712.435 181.56H705.139V128.933L711.208 129.8Z" fill="#263238"/>
<path d="M371.095 168.653C371.095 168.653 370.962 168.906 370.735 169.44C370.509 169.986 370.175 170.76 369.735 171.786C369.308 172.826 368.708 174.093 368.148 175.666C367.574 177.24 366.907 179.053 366.16 181.093C363.359 189.373 359.958 201.853 357.851 218.133C355.703 234.386 354.823 254.386 356.117 277.16C356.757 288.546 357.917 300.626 359.718 313.266C360.638 319.586 361.679 326.04 363.012 332.6C363.373 334.226 363.626 335.906 364.266 337.533C364.88 339.133 365.667 340.64 366.48 342.12C368.134 345.08 369.988 347.933 371.949 350.76L372.056 350.92H372.243C419.367 350 474.44 348.933 533.009 347.786C563.406 347.04 592.844 346.32 620.748 345.64C634.699 345.346 648.264 345.053 661.363 344.96C663.003 344.96 664.63 344.92 666.244 344.96C667.858 345 669.472 344.986 671.126 344.906C674.394 344.653 677.542 343.64 680.396 342.12C683.251 340.586 685.825 338.573 688.106 336.306C690.387 334.026 692.401 331.533 694.081 328.773V328.8C709.047 306.8 722.572 286.466 734.416 268.32C740.312 259.226 745.82 250.72 750.796 242.746C755.784 234.786 760.279 227.426 764.107 220.6C766.028 217.2 767.789 213.92 769.136 210.68C769.456 209.866 769.776 209.053 770.083 208.253C770.39 207.466 770.563 206.626 770.803 205.84C771.003 205.04 771.297 204.266 771.417 203.48C771.55 202.693 771.697 201.92 771.83 201.146C772.844 195.013 771.977 189.653 770.856 185.586C769.683 181.493 768.149 178.613 767.015 176.786C765.881 174.946 765.121 174.133 765.121 174.133C765.121 174.133 765.281 174.36 765.601 174.8C765.908 175.253 766.361 175.933 766.922 176.853C768.015 178.706 769.509 181.586 770.643 185.666C771.723 189.706 772.55 195.026 771.51 201.106C771.377 201.853 771.23 202.626 771.096 203.413C770.963 204.2 770.683 204.96 770.47 205.746C770.229 206.533 770.056 207.346 769.736 208.133C769.429 208.92 769.109 209.72 768.789 210.533C767.428 213.746 765.668 217 763.747 220.386C759.906 227.186 755.384 234.533 750.382 242.466C745.394 250.413 739.858 258.92 733.949 267.986C722.065 286.093 708.5 306.4 693.494 328.373L693.481 328.4C690.173 333.666 685.625 338.44 680.076 341.44C677.302 342.92 674.234 343.893 671.086 344.133C669.512 344.213 667.898 344.213 666.271 344.186C664.644 344.16 663.017 344.186 661.376 344.186C648.264 344.266 634.699 344.56 620.748 344.84C592.844 345.506 563.393 346.226 532.995 346.946C474.427 348.12 419.353 349.24 372.229 350.186L372.523 350.333C370.575 347.546 368.721 344.706 367.081 341.773C366.267 340.306 365.507 338.826 364.906 337.293C364.306 335.786 364.04 334.12 363.679 332.493C362.346 325.96 361.292 319.506 360.358 313.213C358.531 300.6 357.344 288.546 356.69 277.186C355.343 254.453 356.17 234.493 358.251 218.266C360.291 202.013 363.613 189.533 366.347 181.253C367.081 179.2 367.721 177.386 368.281 175.813C368.828 174.24 369.415 172.973 369.815 171.92C370.228 170.88 370.549 170.093 370.762 169.546C370.975 169.013 371.069 168.733 371.069 168.733L371.095 168.653Z" fill="#263238"/>
<path d="M571.729 200.867C571.729 200.867 571.542 201.36 571.329 202.333C571.115 203.307 570.835 204.747 570.542 206.627C569.968 210.373 569.368 215.84 568.981 222.613C568.127 236.173 568.474 254.92 568.728 275.613C569.034 296.307 569.461 315.04 569.821 328.587C570.021 335.307 570.182 340.76 570.302 344.64C570.382 346.48 570.435 347.933 570.475 349C570.502 349.453 570.528 349.827 570.542 350.133C570.555 350.387 570.582 350.52 570.595 350.52C570.608 350.52 570.622 350.387 570.622 350.133C570.622 349.827 570.622 349.453 570.635 349C570.635 347.92 570.635 346.467 570.608 344.64C570.555 340.773 570.488 335.307 570.395 328.587C570.182 314.96 569.875 296.267 569.541 275.613C569.288 254.933 568.861 236.2 569.555 222.667C569.875 215.907 570.382 210.44 570.862 206.693C571.102 204.813 571.329 203.373 571.489 202.387C571.569 201.947 571.635 201.573 571.689 201.267C571.729 201.013 571.755 200.88 571.742 200.88L571.729 200.867Z" fill="#263238"/>
<g opacity="0.2">
<path d="M691.813 295.786C691.813 295.786 619.52 328.2 606.382 331.253C593.244 334.306 381.419 336.053 381.419 336.053L377.044 325.973L598.126 324.413C598.126 324.413 686.945 289.013 691.827 295.786H691.813Z" fill="black"/>
</g>
<path d="M733.977 268.453C733.977 268.453 734.11 268.333 734.363 268.08C734.604 267.827 734.99 267.467 735.484 267C736.497 266.08 738.031 264.787 740.139 263.307C742.26 261.853 744.954 260.253 748.209 258.653C751.49 257.133 755.304 255.587 759.653 254.32C764.014 253.12 768.843 251.96 774.111 251.347C776.726 250.92 779.473 250.8 782.288 250.547C783.688 250.427 785.129 250.48 786.569 250.44C788.023 250.44 789.49 250.333 790.971 250.48C802.842 250.973 815.86 254.253 828.105 260.933C833.32 263.773 838.255 267.04 842.47 270.76L842.817 271.067L843.07 270.693C849.966 260.533 856.382 250.933 861.944 242.12C867.506 233.307 872.214 225.28 876.029 218.52C879.857 211.76 882.832 206.293 884.859 202.52C885.846 200.667 886.62 199.213 887.166 198.173C887.407 197.707 887.593 197.333 887.753 197.04C887.887 196.787 887.94 196.653 887.927 196.64C887.927 196.64 887.833 196.76 887.687 197C887.513 197.28 887.313 197.64 887.046 198.093C886.46 199.12 885.646 200.547 884.619 202.36C882.471 206.133 879.404 211.52 875.576 218.213C871.694 224.92 866.946 232.907 861.344 241.68C855.755 250.453 849.313 260.027 842.403 270.173L843.004 270.107C838.695 266.28 833.76 263.013 828.478 260.147C816.127 253.413 802.989 250.133 791.011 249.667C789.517 249.52 788.037 249.64 786.569 249.64C785.115 249.693 783.662 249.64 782.248 249.773C779.42 250.04 776.659 250.173 774.031 250.627C768.736 251.28 763.881 252.48 759.506 253.733C755.144 255.053 751.316 256.64 748.022 258.213C744.767 259.867 742.073 261.533 739.966 263.027C737.885 264.56 736.364 265.907 735.377 266.88C734.897 267.373 734.537 267.76 734.31 268.04C734.083 268.307 733.977 268.467 733.99 268.467L733.977 268.453Z" fill="#263238"/>
<path d="M918.965 309.68C918.965 309.68 919.232 308.813 919.566 307.213C919.899 305.613 920.339 303.28 920.846 300.4C921.873 294.64 923.154 286.653 924.367 277.8C925.595 268.947 926.528 260.893 927.102 255.067C927.395 252.147 927.595 249.787 927.715 248.147C927.835 246.507 927.875 245.6 927.809 245.6C927.755 245.6 927.609 246.493 927.395 248.107C927.168 249.893 926.875 252.2 926.515 254.987C925.795 260.8 924.767 268.813 923.54 277.667C922.313 286.507 921.126 294.507 920.259 300.293C919.846 303.067 919.499 305.373 919.232 307.147C919.005 308.773 918.899 309.667 918.952 309.68H918.965Z" fill="#263238"/>
<path d="M853.846 315.493C853.846 315.493 854.126 315.546 854.673 315.56C855.314 315.56 856.1 315.56 857.047 315.573C859.115 315.573 862.103 315.506 865.797 315.373C873.173 315.106 883.364 314.493 894.581 313.306C905.799 312.12 915.909 310.586 923.192 309.306C926.833 308.666 929.781 308.106 931.795 307.666C932.729 307.466 933.502 307.293 934.129 307.16C934.663 307.026 934.93 306.946 934.93 306.92C934.93 306.893 934.636 306.92 934.103 306.986C933.476 307.08 932.689 307.2 931.742 307.333C929.581 307.68 926.66 308.133 923.099 308.693C915.803 309.826 905.692 311.253 894.488 312.44C883.284 313.626 873.12 314.346 865.757 314.76C862.169 314.96 859.208 315.12 857.034 315.24C856.087 315.306 855.3 315.346 854.66 315.386C854.113 315.426 853.833 315.466 853.833 315.493H853.846Z" fill="#263238"/>
<path d="M141.304 277.36C141.304 277.36 150.254 255.266 150 254.52C148.626 250.56 143.478 239.706 143.478 239.706C143.478 239.706 139.276 242.173 134.168 246.08C128.472 250.44 121.603 256.546 116.841 262.16C114.08 265.413 112.56 269.626 112.56 274.013V292.52L141.304 277.36Z" fill="#EBEBEB"/>
<path d="M336.016 175.013C335.843 175.186 337.844 177.733 340.165 180.973C342.499 184.213 344.273 186.946 344.473 186.813C344.66 186.693 343.179 183.72 340.818 180.44C338.471 177.146 336.163 174.853 336.016 175.013Z" fill="#263238"/>
<path d="M918.152 175.52C918.152 175.52 850.367 181.44 851.114 183.027C851.86 184.627 918.152 206.4 918.152 206.4V175.52Z" fill="#EBEBEB"/>
<path d="M918.365 207.28C918.591 207.28 918.778 200.2 918.778 191.467C918.778 182.733 918.591 175.653 918.365 175.653C918.138 175.653 917.951 182.733 917.951 191.467C917.951 200.2 918.138 207.28 918.365 207.28Z" fill="#263238"/>
<path d="M381.406 336.053C381.406 336.053 381.686 336.08 382.22 336.08C382.794 336.08 383.581 336.08 384.594 336.08C386.715 336.053 389.769 336.013 393.691 335.973C401.627 335.84 413.058 335.64 427.17 335.4C455.46 334.827 494.501 334.04 537.611 333.173C559.179 332.707 579.72 332.253 598.42 331.84C599.594 331.813 600.754 331.787 601.901 331.76C603.048 331.72 604.209 331.76 605.369 331.573C607.717 331.28 609.797 330.147 611.838 329.307C615.933 327.533 619.948 325.88 623.816 324.28C631.579 321.12 638.848 318.267 645.477 315.653C658.749 310.467 669.459 306.173 676.795 303.04C680.463 301.48 683.304 300.24 685.225 299.373C686.159 298.947 686.879 298.613 687.399 298.373C687.893 298.147 688.133 298 688.133 298C688.133 298 687.866 298.08 687.373 298.28C686.839 298.493 686.106 298.8 685.172 299.2C683.198 300.013 680.343 301.2 676.689 302.72C669.313 305.747 658.575 309.947 645.277 315.067C638.635 317.64 631.352 320.453 623.576 323.587C619.694 325.16 615.68 326.813 611.571 328.573C609.491 329.427 607.49 330.507 605.276 330.773C604.182 330.933 603.048 330.907 601.888 330.933C600.741 330.96 599.58 330.973 598.406 331C579.72 331.387 559.165 331.813 537.597 332.267C494.488 333.24 455.46 334.12 427.17 334.747C413.071 335.107 401.64 335.4 393.704 335.6C389.783 335.72 386.715 335.813 384.608 335.88C383.594 335.92 382.807 335.947 382.247 335.973C381.713 336 381.446 336.04 381.446 336.04L381.406 336.053Z" fill="#263238"/>
<path d="M399.306 169.986C402.214 176.36 405.415 185.786 404.828 195.573C404.441 201.946 399.52 206.933 393.531 206.973L365.654 207.2C361.546 207.226 357.824 204.146 357.291 199.813C357.117 198.4 357.277 196.866 357.998 195.293C360.892 189 363.306 190.186 363.306 190.186C363.306 190.186 371.749 171.613 384.581 164.573C389.956 161.613 396.652 164.2 399.293 170L399.306 169.986Z" fill="#6C6C6C"/>
<path d="M370.443 207.16C370.402 207.28 369.335 206.946 367.908 205.853C366.548 204.773 364.6 202.893 363.867 200C363.16 197.186 363.307 194.626 363.293 192.813C363.32 190.986 363.413 189.866 363.547 189.853C363.68 189.853 363.84 190.973 363.973 192.786C364.147 194.6 364.133 197.133 364.787 199.72C365.427 202.28 367.121 204.093 368.335 205.28C369.589 206.466 370.509 207.013 370.443 207.16Z" fill="#263238"/>
<path d="M368.334 186.253C368.227 186.2 368.707 184.68 369.881 182.4C371.055 180.12 372.989 177.146 375.63 174.346C378.284 171.546 381.085 169.493 383.233 168.266C385.38 167.026 386.807 166.533 386.861 166.64C387.007 166.933 381.485 169.546 376.31 175.066C371.095 180.533 368.601 186.413 368.321 186.24L368.334 186.253Z" fill="white"/>
<path d="M583.481 109.867C583.481 109.867 583.375 110.173 583.241 110.773C583.108 111.467 582.935 112.333 582.721 113.4C582.294 115.68 581.707 118.987 581.014 123.08C579.64 131.267 577.826 142.6 576.079 155.147C574.331 167.707 572.984 179.12 572.304 187.413C572.117 189.48 571.997 191.36 571.904 193.013C571.81 194.667 571.717 196.08 571.717 197.253C571.717 198.333 571.69 199.227 571.69 199.933C571.69 200.547 571.704 200.867 571.73 200.867C571.757 200.867 571.797 200.547 571.85 199.933C571.904 199.227 571.957 198.347 572.037 197.267C572.091 196.107 572.224 194.693 572.371 193.053C572.504 191.413 572.664 189.533 572.891 187.48C573.718 179.213 575.145 167.84 576.892 155.28C578.64 142.733 580.36 131.4 581.587 123.187C582.188 119.173 582.668 115.88 583.028 113.453C583.175 112.387 583.295 111.507 583.388 110.8C583.468 110.187 583.495 109.867 583.455 109.867H583.481Z" fill="#455A64"/>
<g opacity="0.2">
<path d="M918.15 206.4L884.631 185.186L883.658 178.733C870.64 180.106 854.847 181.426 851.112 183.013C851.112 184.093 892.341 198.026 918.15 206.386V206.4Z" fill="black"/>
</g>
<g opacity="0.2">
<path d="M149.987 254.533L132.074 270.76L112.56 274.027V292.533L141.304 277.373C144.838 268.573 148.066 260.347 150 254.533H149.987Z" fill="black"/>
</g>
<path d="M150.188 254.533C150.188 254.533 150.348 254.493 150.641 254.36C150.975 254.213 151.401 254.026 151.935 253.786C153.122 253.24 154.789 252.493 156.897 251.533C161.258 249.546 167.487 246.706 175.144 243.2C182.866 239.72 192.056 235.586 202.367 231.253C207.529 229.146 212.958 226.853 218.706 225.093C221.601 224.32 224.642 223.84 227.696 223.28C230.777 222.76 233.885 222.24 237.046 221.706C262.336 217.586 285.264 214.107 301.857 211.52C310.113 210.227 316.796 209.173 321.504 208.44C323.772 208.066 325.559 207.773 326.84 207.56C327.413 207.453 327.867 207.373 328.227 207.307C328.534 207.24 328.694 207.213 328.694 207.187C328.694 207.173 328.534 207.186 328.213 207.213C327.853 207.253 327.4 207.306 326.813 207.373C325.532 207.546 323.732 207.786 321.451 208.08C316.742 208.746 310.033 209.706 301.777 210.88C285.171 213.32 262.229 216.693 236.926 220.813C233.765 221.346 230.644 221.88 227.563 222.4C224.495 222.96 221.454 223.44 218.493 224.24C212.651 226.04 207.249 228.346 202.073 230.48C191.776 234.866 182.6 239.053 174.903 242.613C167.221 246.173 161.018 249.133 156.75 251.2C154.656 252.226 153.015 253.026 151.842 253.613C151.321 253.88 150.908 254.093 150.574 254.267C150.294 254.413 150.148 254.507 150.161 254.52L150.188 254.533Z" fill="#263238"/>
<path d="M851.085 331.44C851.592 368.787 823.609 399.507 788.582 400.053C753.556 400.587 724.759 370.747 724.252 333.4C723.745 296.053 751.729 265.333 786.755 264.787C821.781 264.253 850.579 294.093 851.085 331.44Z" fill="#263238"/>
<path d="M851.085 331.267C851.085 331.267 851.085 331.387 851.085 331.44C851.592 368.787 823.609 399.507 788.582 400.053C753.556 400.587 724.759 370.747 724.252 333.4C724.252 333.347 724.252 333.28 724.252 333.227L851.072 331.28L851.085 331.267Z" fill="#263238"/>
<path d="M832.2 331.733C832.56 357.96 812.912 379.52 788.317 379.906C763.721 380.28 743.5 359.333 743.153 333.106C742.793 306.88 762.44 285.32 787.036 284.933C811.619 284.56 831.839 305.506 832.2 331.733Z" fill="#FAFAFA"/>
<path d="M787.036 284.933C811.619 284.56 831.839 305.506 832.2 331.733L743.153 333.106C742.793 306.88 762.44 285.32 787.036 284.933Z" fill="#E0E0E0"/>
<path d="M814.791 332C815.005 347.973 803.04 361.107 788.062 361.347C773.083 361.573 760.758 348.813 760.545 332.84C760.331 316.867 772.296 303.733 787.275 303.493C802.254 303.267 814.565 316.027 814.791 332Z" fill="#263238"/>
<path d="M262.801 400.066C297.829 400.066 326.225 369.783 326.225 332.427C326.225 295.07 297.829 264.786 262.801 264.786C227.774 264.786 199.378 295.07 199.378 332.427C199.378 369.783 227.774 400.066 262.801 400.066Z" fill="#263238"/>
<path d="M326.211 331.266C326.211 331.266 326.211 331.386 326.211 331.44C326.718 368.786 298.735 399.506 263.708 400.053C228.682 400.586 199.885 370.746 199.378 333.4C199.378 333.346 199.378 333.28 199.378 333.226L326.198 331.28L326.211 331.266Z" fill="#263238"/>
<path d="M307.324 331.733C307.684 357.96 288.036 379.52 263.441 379.907C238.845 380.28 218.624 359.333 218.277 333.107C217.917 306.88 237.564 285.32 262.16 284.933C286.743 284.56 306.963 305.507 307.324 331.733Z" fill="#FAFAFA"/>
<path d="M262.16 284.933C286.743 284.56 306.963 305.507 307.324 331.733L218.277 333.107C217.917 306.88 237.564 285.32 262.16 284.933Z" fill="#E0E0E0"/>
<path d="M289.918 332C290.132 347.973 278.167 361.106 263.189 361.346C248.21 361.573 235.885 348.813 235.672 332.84C235.458 316.866 247.423 303.733 262.402 303.493C277.38 303.266 289.692 316.026 289.918 332Z" fill="#263238"/>
<path d="M502.318 180.16C502.424 179.947 490.673 173.387 476.081 165.52C461.489 157.653 449.565 151.453 449.471 151.667C449.365 151.88 461.116 158.44 475.708 166.307C490.3 174.173 502.211 180.373 502.318 180.16Z" fill="white"/>
<path d="M518.684 178.44C518.791 178.227 507.626 171.747 493.768 163.973C479.896 156.2 468.572 150.067 468.465 150.28C468.359 150.493 479.509 156.973 493.381 164.747C507.253 172.52 518.577 178.653 518.684 178.44Z" fill="white"/>
<path d="M112.547 292.533C112.547 292.533 112.653 291.587 112.707 289.867C112.747 288 112.787 285.547 112.84 282.6C112.907 279.547 112.84 275.84 113.014 271.867C113.334 267.907 116.095 264.293 118.789 260.707C121.523 257.12 124.818 254.333 127.766 251.813C130.753 249.32 133.528 247.187 135.862 245.413C138.13 243.733 140.01 242.333 141.451 241.267C142.771 240.293 143.491 239.747 143.465 239.693C143.438 239.64 142.651 240.093 141.277 240.987C139.903 241.88 137.929 243.2 135.542 244.907C133.154 246.613 130.34 248.707 127.299 251.173C124.311 253.68 120.963 256.467 118.149 260.147C116.748 261.96 115.414 263.773 114.321 265.693C113.214 267.573 112.4 269.693 112.24 271.787C112.107 275.907 112.24 279.507 112.24 282.587C112.293 285.533 112.333 287.973 112.36 289.853C112.413 291.573 112.467 292.52 112.52 292.52L112.547 292.533Z" fill="#263238"/>
</g>
<defs>
<clipPath id="clip0_443_3412">
<rect width="943" height="400" fill="white"/>
</clipPath>
</defs>
</svg>
