<svg width="144" height="349" viewBox="0 0 144 349" fill="none" xmlns="http://www.w3.org/2000/svg">
<path d="M101.677 45.3743C100.13 45.5743 98.5029 44.8809 97.6225 43.6543C98.6629 43.8009 99.7967 43.9476 100.73 43.4943C101.677 43.0409 102.198 41.7076 101.464 40.9876C100.89 40.4276 99.9434 40.5209 99.1164 40.4676C97.1957 40.3343 95.4351 39.0409 94.7948 37.3076C94.1012 35.4009 94.7415 33.3209 94.9816 31.3076C95.7018 25.4809 92.8074 19.3743 87.7389 16.0543L74.5607 8.7876C69.7856 14.6276 68.2917 22.4943 69.2787 29.8409C70.2658 37.1876 73.5336 44.0943 77.4551 50.4809C78.6022 52.3476 79.816 54.1876 81.4299 55.7076C83.0438 57.2143 85.0979 58.3876 87.3521 58.6009C87.939 56.8409 87.5655 54.8009 86.3784 53.3343C89.9397 53.5476 93.5677 52.3076 96.1687 49.9876C95.2216 49.2943 94.288 48.6143 93.341 47.9209C96.3154 48.3076 99.4499 47.3476 101.637 45.3876L101.677 45.3743Z" fill="#263238"/>
<path d="M54.7802 25.2144C55.0069 19.961 54.6068 15.2144 59.9021 13.7744L76.4148 9.2677C83.5775 8.33437 88.6327 16.641 89.3129 23.521C90.0599 31.161 90.6334 39.2277 89.8598 44.961C88.3259 56.4944 79.1492 58.2277 79.1492 58.2277C79.1492 58.2144 78.0421 67.9744 78.1355 71.3344L71.1462 88.7477L56.4875 67.081L54.7668 25.3877C54.34 25.3877 54.7668 25.4944 54.7668 25.2277L54.7802 25.2144Z" fill="#FFBF9D"/>
<path d="M86.9928 33.0278C87.0461 33.8012 86.4059 34.4945 85.5523 34.5612C84.7119 34.6278 83.9783 34.0545 83.925 33.2812C83.8716 32.5078 84.5119 31.8145 85.3655 31.7478C86.2192 31.6812 86.9528 32.2545 87.0061 33.0278H86.9928Z" fill="#263238"/>
<path d="M87.6464 28.0542C87.4596 28.2542 86.2725 27.4542 84.6052 27.5075C82.9513 27.5342 81.7509 28.3875 81.5641 28.2009C81.4707 28.1209 81.6575 27.7609 82.1777 27.3875C82.6845 27.0009 83.5649 26.6275 84.6052 26.6009C85.6456 26.5742 86.5259 26.9075 87.0328 27.2675C87.553 27.6275 87.7397 27.9742 87.6464 28.0542Z" fill="#263238"/>
<path d="M73.3072 33.0277C73.3606 33.801 72.7203 34.4944 71.8667 34.561C71.0264 34.6277 70.2928 34.0544 70.2394 33.281C70.1861 32.5077 70.8263 31.8144 71.68 31.7477C72.5336 31.681 73.2539 32.2544 73.3206 33.0277H73.3072Z" fill="#263238"/>
<path d="M71.8798 28.4944C71.693 28.6944 70.4926 27.8944 68.8386 27.9477C67.1847 27.9744 65.9843 28.8277 65.7975 28.641C65.7041 28.561 65.8909 28.201 66.4111 27.8277C66.9179 27.441 67.7983 27.0677 68.8386 27.041C69.879 27.0144 70.7593 27.3477 71.2662 27.7077C71.7864 28.0677 71.9731 28.4144 71.8798 28.4944Z" fill="#263238"/>
<path d="M77.4421 40.7875C77.4421 40.6942 78.4558 40.4942 80.1231 40.2409C80.5499 40.1876 80.9501 40.0942 81.0034 39.8142C81.0968 39.5209 80.8967 39.0942 80.6833 38.6276C80.2565 37.6542 79.803 36.6409 79.3361 35.5876C77.4554 31.2542 76.0816 27.6809 76.255 27.6142C76.4417 27.5476 78.109 31.0009 79.9897 35.3342C80.4432 36.4009 80.8834 37.4276 81.2835 38.4009C81.4569 38.8542 81.7504 39.3742 81.5503 39.9876C81.4436 40.2942 81.1368 40.5209 80.87 40.6009C80.6033 40.6942 80.3632 40.6942 80.1498 40.7209C78.4691 40.8542 77.4288 40.8942 77.4154 40.8009L77.4421 40.7875Z" fill="#263238"/>
<path d="M63.0769 54.5743C63.0769 54.5743 66.7983 62.9877 78.8027 61.561L79.1495 58.2277C79.1495 58.2277 71.2399 58.9343 63.0769 54.5743Z" fill="#5E5E5E"/>
<path d="M71.1865 23.3743C71.0398 23.8143 69.3725 23.6543 67.4384 23.9343C65.491 24.1743 63.9438 24.7743 63.6637 24.3876C63.5437 24.2009 63.7971 23.7876 64.424 23.3609C65.0375 22.9209 66.0379 22.4943 67.1983 22.3476C68.3588 22.1876 69.4392 22.3476 70.1594 22.5876C70.8797 22.8409 71.2532 23.1743 71.1865 23.3743Z" fill="#263238"/>
<path d="M86.9525 23.2276C86.6724 23.6009 85.5119 23.2543 84.1381 23.2809C82.7642 23.2543 81.6038 23.6009 81.3237 23.2276C81.2037 23.0543 81.3771 22.6809 81.8706 22.3209C82.3641 21.9609 83.1911 21.6676 84.1381 21.6676C85.0851 21.6676 85.9121 21.9743 86.4056 22.3209C86.8991 22.6809 87.0725 23.0409 86.9525 23.2276Z" fill="#263238"/>
<path d="M71.2133 43.8942C71.4 42.9476 72.4004 42.2009 73.4008 42.2676C74.1477 42.3209 74.828 42.7742 75.1747 43.4009C75.5349 44.0276 75.5616 44.7876 75.3348 45.4676L75.3081 45.6142C74.6546 46.3476 73.4808 46.6276 72.5471 46.2542C71.6134 45.8809 71.0132 44.8409 71.2133 43.8942Z" fill="#5E5E5E"/>
<path d="M76.5082 45.6011C76.5082 45.3611 74.8276 45.4811 73.5204 44.2011C72.2133 42.9211 72.2666 41.2011 72.0265 41.2144C71.9198 41.2011 71.7331 41.6144 71.7731 42.3344C71.7998 43.0411 72.1332 44.0544 72.9202 44.8411C73.7205 45.6278 74.7209 45.9078 75.4145 45.9078C76.1214 45.9078 76.5215 45.7077 76.5082 45.6011Z" fill="#263238"/>
<path d="M56.502 6.57432C58.356 3.76099 62.7443 0.814319 66.1855 0.240985C70.107 -0.412348 72.4678 0.240983 75.0421 2.46765C75.0421 2.46765 77.0429 4.30764 78.9236 4.66764C80.8043 5.01431 82.3782 4.72098 84.619 5.81431C87.6735 7.30764 89.0206 11.2143 90.4345 14.201C92.1951 17.921 94.7027 21.3343 95.8632 25.2676C97.0102 29.201 96.3967 34.0143 92.9287 36.401C93.529 33.3876 94.0225 30.081 92.7153 27.361C92.862 28.4543 92.8354 29.5477 92.5019 30.6143C91.8483 28.841 91.1681 27.0276 89.8209 25.6543C88.5538 24.361 86.8065 23.601 85.4993 22.3477C83.5786 20.5077 82.6983 17.7076 80.3641 16.3743C77.9365 14.9876 74.8687 15.681 72.041 15.6943C67.2926 15.721 62.5842 13.5476 59.6364 9.98765L60.3434 9.9343C59.0762 9.10764 57.7824 8.01432 56.502 6.57432Z" fill="#263238"/>
<path d="M38.8013 34.6676C39.8817 31.2943 41.7757 28.201 42.9628 24.8543C44.1233 21.601 44.5901 18.121 46.124 15.001C48.1914 10.8143 52.0462 5.38766 58.0484 5.69432L58.4619 6.04098C60.5026 5.81432 62.5967 6.02766 64.5175 6.73432L64.6108 11.201L65.7579 12.1743C65.2777 13.0677 64.8242 13.921 64.3707 14.761C63.9839 16.441 63.5304 18.1077 62.8368 19.681C62.5567 20.321 62.5834 22.5743 62.6101 25.0677C62.6634 28.921 59.8224 33.161 55.941 33.7076C55.941 33.7076 55.7142 48.9743 56.2344 61.721L51.3793 54.8143C48.8717 53.441 46.8309 51.3343 45.5771 48.8543C45.4037 49.681 45.2303 50.4943 45.0569 51.3076C42.6961 48.9343 41.2422 45.761 41.0154 42.4943C40.5619 43.281 40.1218 44.0676 39.6683 44.8543C37.5342 41.961 37.6809 38.041 38.7613 34.6676H38.8013Z" fill="#263238"/>
<path d="M56.4744 33.801C56.3143 33.4144 48.8316 31.0677 48.9516 38.5877C49.0717 45.8944 56.7545 44.241 56.7545 44.0277C56.7545 43.8144 56.4611 33.801 56.4611 33.801H56.4744Z" fill="#FFBF9D"/>
<path d="M54.3413 41.3078C54.3413 41.3078 54.2079 41.4011 53.9811 41.5078C53.7677 41.6145 53.3809 41.6811 52.9808 41.5478C52.1671 41.2811 51.4602 40.0678 51.3935 38.7478C51.3668 38.0811 51.5002 37.4545 51.727 36.9211C51.9537 36.3878 52.3005 36.0011 52.714 35.9211C53.1141 35.8278 53.4076 36.0545 53.5009 36.2545C53.6076 36.4545 53.5676 36.6011 53.6076 36.6145C53.6343 36.6278 53.7677 36.4944 53.701 36.1878C53.661 36.0411 53.5676 35.8678 53.3942 35.7345C53.2075 35.6011 52.9407 35.5211 52.6473 35.5611C52.0604 35.6144 51.5402 36.1345 51.2735 36.7211C50.98 37.3078 50.82 38.0145 50.8466 38.7611C50.9267 40.2278 51.7403 41.5878 52.8474 41.8811C53.3942 42.0011 53.8344 41.8411 54.0611 41.6678C54.2879 41.4811 54.3279 41.3211 54.3012 41.3078H54.3413Z" fill="#5E5E5E"/>
<path d="M51.8072 43.7343C51.9672 43.0276 52.7675 42.5076 53.5145 42.6276L53.8746 42.721C54.5682 43.001 54.955 43.841 54.7016 44.521C54.4482 45.201 53.5945 45.6143 52.8609 45.4276C52.1273 45.2276 51.6471 44.441 51.8072 43.7343Z" fill="#455A64"/>
<path d="M65.1712 14.0009C65.0245 14.0542 64.3175 11.5875 62.1834 9.28087C60.0893 6.94754 57.6084 5.94753 57.6884 5.8142C57.7151 5.76086 58.3553 5.93421 59.3023 6.42754C60.2494 6.92087 61.4765 7.7742 62.5569 8.96086C63.6373 10.1475 64.3575 11.4275 64.7443 12.3875C65.1312 13.3475 65.2245 13.9875 65.1712 14.0009Z" fill="#455A64"/>
<path d="M130.729 31.601L126.874 42.441L125.527 44.2543C125.527 44.2543 124.353 50.281 124.273 51.5744C124.193 52.8677 125.954 59.601 125.954 59.601L122.032 65.601L132.89 69.5744C132.89 69.5744 135.837 64.0943 136.651 63.481C137.465 62.8543 138.065 61.081 138.252 59.881C138.438 58.681 140.066 51.561 140.066 51.561C140.066 51.561 144.881 43.7077 142.867 43.3077C142.413 43.2143 141.359 43.3343 141.359 43.3343C141.359 43.3343 138.465 48.4943 137.691 48.601L136.598 47.9877C136.598 47.9877 138.865 40.0944 138.972 38.6144C139.079 37.1344 138.772 36.0943 137.571 35.921C137.571 35.921 136.678 36.2677 136.598 36.641C136.518 37.0143 134.263 45.8277 133.743 45.6677C133.223 45.5077 133.476 44.7077 133.476 44.7077C133.476 44.7077 136.478 34.0143 136.344 33.401C136.211 32.7877 135.664 31.8277 134.544 31.9343L132.236 37.801C132.236 37.801 133.303 32.8677 132.476 31.9743C131.649 31.0943 130.715 31.561 130.715 31.561L130.729 31.601Z" fill="#FFBF9D"/>
<path d="M133.022 55.6009C132.929 55.6009 132.995 54.6809 132.622 53.2009C132.248 51.7609 131.261 49.7076 129.247 48.2143L129.101 48.1076L129.141 47.9476C129.327 47.1609 129.527 46.3343 129.727 45.4943V45.4409L129.781 45.3876C129.968 45.1343 130.168 44.8409 130.341 44.5343C130.955 43.5209 131.408 42.4409 131.595 41.4143C131.675 40.8943 131.701 40.3876 131.568 39.9476C131.461 39.5076 131.101 39.2009 130.741 39.1476L130.928 39.0809C129.634 40.2676 128.54 41.2409 127.767 41.9076C126.993 42.5743 126.54 42.9476 126.5 42.9076C126.46 42.8676 126.86 42.4409 127.567 41.7209C128.274 41.0009 129.327 39.9743 130.581 38.7476L130.661 38.6676H130.768C131.408 38.7476 131.888 39.2409 132.062 39.7876C132.235 40.3343 132.208 40.9209 132.128 41.4809C131.942 42.6143 131.475 43.7343 130.835 44.8009C130.648 45.1209 130.448 45.4143 130.234 45.7076L130.288 45.6143C130.074 46.4543 129.874 47.2809 129.674 48.0676L129.567 47.8009C131.728 49.4543 132.662 51.6276 132.955 53.1476C133.102 53.9209 133.129 54.5476 133.102 54.9609C133.075 55.3876 133.049 55.6143 133.009 55.6143L133.022 55.6009Z" fill="#5E5E5E"/>
<path d="M133.022 46.8279C133.076 46.6946 134.716 47.1479 136.477 48.2679C138.238 49.3746 139.318 50.6413 139.211 50.7346C139.091 50.8413 137.864 49.7879 136.157 48.7213C134.463 47.6413 132.956 46.9746 133.022 46.8279Z" fill="#5E5E5E"/>
<path d="M79.1492 67.8943C79.4693 67.8943 110.054 85.1343 110.054 85.1343L122.125 58.5876L139.451 63.961C139.451 63.961 128.301 96.1343 125.886 100.174C123.952 103.414 116.443 108.694 108.6 106.481C100.757 104.268 87.2055 100.654 87.2055 100.654L79.1492 67.881V67.8943Z" fill="#00AF00"/>
<path d="M37.2013 317.614L36.9346 347.374L75.7356 347.881C75.5622 344.334 55.5948 336.974 55.5948 336.974L56.5818 317.908L37.2013 317.601V317.614Z" fill="#455A64"/>
<path d="M43.6171 335.228C42.8568 335.414 42.3366 336.214 42.4967 336.934C42.6567 337.654 43.5104 338.188 44.2706 338.014C45.0309 337.841 45.6978 336.894 45.4444 336.201C45.191 335.494 44.1639 334.934 43.4704 335.281" fill="white"/>
<path d="M36.9346 347.441V344.254L74.2417 346.108C74.2417 346.108 75.949 346.854 75.7356 348.014L36.9479 347.441H36.9346Z" fill="#263238"/>
<path d="M56.2216 336.801C56.2216 336.987 55.2612 337.054 54.3276 337.614C53.3672 338.161 52.8737 338.934 52.7003 338.867C52.5269 338.827 52.8204 337.747 53.9808 337.081C55.1279 336.401 56.2616 336.627 56.2216 336.801Z" fill="#263238"/>
<path d="M60.2636 338.468C60.3036 338.641 59.4766 338.934 58.823 339.694C58.1428 340.428 57.9694 341.254 57.7827 341.241C57.6093 341.268 57.4892 340.201 58.3162 339.281C59.1432 338.348 60.2502 338.294 60.2636 338.454V338.468Z" fill="#263238"/>
<path d="M62.5169 343.148C62.3435 343.188 62.0901 342.281 62.5969 341.294C63.0904 340.308 63.9841 339.921 64.0641 340.081C64.1708 340.228 63.5839 340.761 63.1838 341.574C62.7703 342.374 62.7036 343.134 62.5169 343.161V343.148Z" fill="#263238"/>
<path d="M55.9407 332.441C55.8607 332.601 54.9937 332.348 53.9266 332.401C52.8596 332.441 52.0193 332.761 51.9126 332.614C51.8059 332.481 52.6328 331.828 53.8866 331.774C55.1538 331.721 56.0341 332.308 55.9407 332.441Z" fill="#263238"/>
<path d="M19.5015 293.988L0.0410156 317.254L30.2388 340.508C32.3863 337.614 21.4356 320.054 21.4356 320.054L34.5471 305.641L19.5015 293.988Z" fill="#455A64"/>
<path d="M13.1653 311.628C12.4584 311.334 11.5247 311.641 11.1779 312.321C10.8311 312.988 11.1779 313.894 11.8715 314.214C12.5784 314.521 13.7122 314.174 13.979 313.481C14.2457 312.774 13.7922 311.734 13.0319 311.601" fill="white"/>
<path d="M0 317.308L2.06743 314.801L30.2112 338.214C30.2112 338.214 31.0781 339.814 30.1578 340.601L0 317.308Z" fill="#263238"/>
<path d="M22.062 320.294C21.942 320.428 21.1417 319.921 20.0346 319.828C18.9275 319.694 18.0339 320.014 17.9538 319.854C17.8471 319.721 18.7675 319.054 20.1146 319.201C21.4485 319.334 22.2087 320.201 22.062 320.294Z" fill="#263238"/>
<path d="M24.169 323.988C24.0889 324.148 23.2486 323.894 22.2482 324.108C21.2345 324.294 20.5676 324.841 20.4209 324.721C20.2608 324.641 20.8611 323.734 22.1149 323.494C23.3687 323.241 24.289 323.854 24.169 323.988Z" fill="#263238"/>
<path d="M22.9157 328.988C22.7556 328.921 23.1425 328.054 24.1695 327.574C25.1965 327.094 26.1436 327.321 26.1169 327.481C26.1036 327.654 25.3033 327.734 24.4629 328.134C23.6093 328.521 23.0758 329.081 22.9157 328.988Z" fill="#263238"/>
<path d="M24.6617 316.694C24.4883 316.774 23.9814 316.054 23.1011 315.467C22.2341 314.867 21.3538 314.627 21.3805 314.454C21.3805 314.281 22.4609 314.254 23.4746 314.961C24.5016 315.654 24.8217 316.641 24.6483 316.694H24.6617Z" fill="#263238"/>
<path d="M93.808 193.628C94.3682 196.628 95.2486 222.188 95.8088 235.668C96.369 249.148 94.9684 255.788 93.3545 258.801C91.7406 261.814 24.6625 316.681 24.6625 316.681L6.12231 303.574C6.12231 303.574 33.3991 264.268 43.096 257.228C52.7929 250.188 71.3064 243.708 71.3064 243.708L66.0378 169.881L91.3271 168.561L93.808 193.614V193.628Z" fill="#263238"/>
<path d="M96.609 165.521C96.609 167.268 99.5568 211.254 84.4979 243.068C84.4979 243.068 79.2826 253.014 78.3623 257.374C77.4419 261.734 57.9147 333.868 57.9147 333.868L35.3864 333.081C35.3864 333.081 31.7851 296.934 35.4264 276.014C39.0811 255.094 45.7502 257.534 45.7502 244.028C45.7502 230.521 42.389 202.508 42.389 202.508C42.389 202.508 37.4672 194.854 35.7866 180.028C34.4261 167.974 40.3616 155.068 40.3616 155.068L46.2437 145.134L95.9421 142.654L96.609 165.521Z" fill="#263238"/>
<path d="M96.6084 165.521C96.6084 165.521 96.6084 165.014 96.6084 164.028C96.5818 163.028 96.5551 161.561 96.5151 159.628C96.4084 155.748 96.2616 150.028 96.0749 142.654V142.534H95.9549C83.7504 143.121 66.7841 143.948 46.2565 144.948H46.1498L46.0964 145.041C44.2691 148.121 42.2684 151.494 40.2009 154.961V154.974C38.7204 158.388 37.52 162.028 36.6663 165.854C35.786 169.668 35.2925 173.694 35.4258 177.814C35.7059 181.934 36.3995 186.094 37.4533 190.281C38.547 194.454 39.9342 198.654 42.215 202.614L42.175 202.521C43.0286 209.854 43.8156 217.441 44.4825 225.254C44.816 229.161 45.1094 233.121 45.3095 237.148C45.4162 239.161 45.4829 241.174 45.5096 243.214C45.5496 244.228 45.4695 245.241 45.4429 246.254C45.3362 247.268 45.2828 248.281 45.0427 249.281C44.6693 251.294 43.909 253.214 42.9086 255.041C41.9082 256.881 40.7878 258.694 39.8541 260.614C37.9468 264.441 36.7063 268.588 35.8126 272.788C34.012 281.228 33.6519 290.014 33.5585 298.854C33.5185 310.534 34.132 322.001 35.1457 333.094L35.1724 333.321H35.4125C43.0953 333.601 50.6048 333.854 57.9408 334.108H58.1542L58.2076 333.921C64.73 309.761 70.8256 287.174 76.1876 266.868C76.8411 264.321 77.4947 261.814 78.1349 259.348C78.4684 258.108 78.6818 256.868 79.082 255.694C79.4688 254.508 79.9356 253.348 80.4024 252.214C81.3628 249.934 82.4032 247.734 83.4702 245.574C83.737 245.041 84.0038 244.508 84.2705 243.974C84.5506 243.454 84.8174 242.908 85.0308 242.361C85.4977 241.281 85.9512 240.201 86.418 239.134C89.966 230.561 92.0601 222.241 93.5273 214.654C96.4084 199.428 96.7952 187.041 96.9285 178.588C96.9819 170.121 96.6218 165.521 96.6218 165.521C96.6218 165.521 96.6218 165.814 96.6218 166.374C96.6351 166.948 96.6618 167.788 96.6885 168.881C96.7551 171.094 96.7818 174.361 96.7285 178.588C96.5417 187.028 96.1016 199.414 93.1805 214.601C91.6866 222.174 89.5792 230.468 86.0312 239.001C85.5777 240.054 85.1109 241.134 84.644 242.214C84.4306 242.761 84.1638 243.281 83.8837 243.814C83.617 244.348 83.3502 244.881 83.0701 245.414C82.003 247.574 80.9493 249.788 79.9756 252.068C79.4954 253.214 79.0286 254.374 78.6285 255.588C78.215 256.801 77.9882 258.054 77.6681 259.268C77.0279 261.734 76.3743 264.241 75.7074 266.774C70.2387 287.054 64.1564 309.641 57.6474 333.814L57.9141 333.628C50.5781 333.374 43.0687 333.108 35.3858 332.841L35.6526 333.081C34.6522 322.014 34.0387 310.548 34.0787 298.894C34.172 290.068 34.5455 281.321 36.3195 272.934C37.2132 268.748 38.4403 264.654 40.321 260.868C41.2413 258.974 42.3617 257.174 43.3621 255.308C44.3758 253.454 45.1628 251.454 45.5362 249.401C45.7763 248.374 45.8297 247.334 45.9364 246.308C45.9497 245.281 46.0298 244.241 46.0031 243.228C45.9897 241.188 45.9097 239.161 45.803 237.148C45.6029 233.121 45.2962 229.148 44.9627 225.241C44.2824 217.414 43.4955 209.828 42.6285 202.494V202.454L42.5885 202.401C40.361 198.548 38.9471 194.334 37.8667 190.201C36.8264 186.054 36.1194 181.894 35.8393 177.828C35.7059 173.748 36.1728 169.761 37.0531 165.974C37.9068 162.174 39.0939 158.548 40.5477 155.161C42.6018 151.708 44.5892 148.321 46.4166 145.241L46.2565 145.334C66.7707 144.281 83.737 143.401 95.9415 142.774L95.8215 142.668C96.0616 150.041 96.2483 155.761 96.3683 159.641C96.435 161.574 96.4884 163.041 96.5284 164.041C96.5684 165.028 96.6084 165.534 96.6084 165.534V165.521Z" fill="#455A64"/>
<path d="M78.2956 67.2543C78.2956 67.2543 102.118 90.6276 102.718 100.948C103.091 107.428 97.0092 122.268 95.3953 131.628C95.1151 133.241 96.7157 137.561 96.7558 140.281C96.8091 144.174 87.499 145.308 83.1241 145.134C75.3612 144.814 69.0922 140.761 60.4357 140.374L44.243 138.374L49.9118 123.321C49.9118 123.321 48.6447 109.628 48.2445 104.388C47.1908 90.8143 45.857 87.1343 47.1641 79.841C48.4846 72.5476 56.5276 63.7743 56.5276 63.7743C70.306 68.3343 78.1756 71.1343 78.2956 67.241V67.2543Z" fill="white"/>
<path d="M87.0597 121.748C87.0597 121.748 87.3398 121.588 87.7933 121.228C88.2468 120.868 88.847 120.308 89.5673 119.574C90.9945 118.108 92.7284 115.868 94.129 113.108C95.5161 110.348 96.2497 107.641 96.5565 105.668C96.7166 104.681 96.7966 103.868 96.7966 103.321C96.8099 102.761 96.7966 102.454 96.7699 102.454C96.6766 102.454 96.5698 103.668 96.1564 105.601C95.7562 107.534 94.9693 110.161 93.6088 112.881C92.2483 115.588 90.581 117.828 89.2605 119.334C87.94 120.854 87.0063 121.694 87.0597 121.761V121.748Z" fill="#263238"/>
<path d="M83.911 134.628C83.911 128.001 81.2434 114.174 78.4423 101.828C75.1611 87.3743 69.8925 74.9343 58.8751 64.5476L55.5005 63.0676C49.7117 66.4543 42.0422 70.001 41.7488 81.761C41.6421 86.1476 48.4046 126.588 48.4046 126.588C48.4046 126.588 26.3564 171.481 31.3449 179.908C31.7184 180.534 78.0022 188.628 82.8173 185.748C87.6324 182.868 83.911 139.188 83.911 134.614V134.628Z" fill="#00AF00"/>
<path d="M72.9073 135.334H36.5605C32.229 135.334 28.7177 138.844 28.7177 143.174V160.734C28.7177 165.064 32.229 168.574 36.5605 168.574H72.9073C77.2388 168.574 80.7502 165.064 80.7502 160.734V143.174C80.7502 138.844 77.2388 135.334 72.9073 135.334Z" fill="#455A64"/>
<path d="M34.4669 139.548L33.1464 139.401L39.4954 80.1342C39.9489 75.8542 42.2164 72.0142 45.6843 69.6142C48.9922 67.3209 53.1137 66.5742 56.9818 67.5742L57.3953 67.6809C67.0922 70.3342 69.7465 83.7075 70.8936 104.414C71.814 121.081 74.695 137.308 74.7351 137.468L73.4279 137.708C73.4012 137.548 70.5068 121.241 69.5732 104.494C68.4527 84.3742 65.9718 71.4142 57.0619 68.9742L56.6617 68.8675C53.1271 67.9476 49.4991 68.6009 46.4579 70.7075C43.2968 72.8942 41.256 76.3742 40.8292 80.2809L34.4802 139.548H34.4669Z" fill="#455A64"/>
<path d="M49.6716 69.5744C49.6716 69.5744 49.9784 69.4144 50.592 69.281C51.1922 69.1477 52.0859 69.0277 53.2063 69.0277C55.4071 69.0143 58.5816 69.6144 61.4093 71.5744C64.2637 73.521 65.891 76.3477 66.5712 78.441C66.918 79.4943 67.0647 80.3877 67.1047 81.0144C67.1447 81.6277 67.1181 81.9743 67.0781 81.9743C66.958 81.9877 66.8913 80.6144 66.1044 78.6144C65.3441 76.6277 63.7168 74.001 61.0091 72.1477C58.3148 70.281 55.3137 69.6277 53.1796 69.521C51.0321 69.401 49.685 69.7077 49.6716 69.5877V69.5744Z" fill="#263238"/>
<path d="M65.3312 128.268C65.3312 128.268 67.1452 91.9609 66.3849 82.7876L42.7895 75.4943C40.4553 81.3743 37.7343 120.001 41.6291 133.188C45.6573 146.814 70.0396 180.374 70.0396 180.374L85.512 172.241L65.3178 128.268H65.3312Z" fill="#00AF00"/>
<path d="M67.3448 86.5078C67.3448 86.5078 67.3582 86.7611 67.3448 87.2545C67.3315 87.7878 67.3048 88.5078 67.2781 89.4411C67.1981 91.4011 67.0914 94.2145 66.9447 97.8145C66.6246 105.108 66.1577 115.534 65.5842 128.281L65.5575 128.161C71.2929 140.614 78.2288 155.641 85.8183 172.094L85.9517 172.388L85.6583 172.534C80.6964 175.148 75.4945 177.881 70.1859 180.681L69.9191 180.828L69.7457 180.588C69.2255 179.868 68.6786 179.094 68.1184 178.308C63.7035 172.081 59.5153 165.921 55.6072 159.868C51.7257 153.801 48.071 147.894 45.0566 141.988C43.5494 139.041 42.1889 136.081 41.2685 133.054C41.0818 132.281 40.9084 131.521 40.735 130.761C40.5749 130.001 40.4816 129.241 40.3615 128.481C40.0948 126.974 40.0147 125.481 39.8413 124.014C39.3612 118.134 39.3612 112.654 39.4545 107.654C39.6679 97.6545 40.3615 89.5745 41.0685 84.0278C41.4153 81.2545 41.7887 79.1078 42.1222 77.6678C42.2556 76.9478 42.4556 76.4145 42.5757 76.0545C42.6957 75.6945 42.7624 75.5211 42.7758 75.5211C42.8291 75.5345 42.5357 76.2545 42.2556 77.7078C41.9621 79.1478 41.6287 81.2945 41.3352 84.0678C40.7083 89.6145 40.0948 97.6811 39.948 107.668C39.8947 112.654 39.908 118.134 40.4282 123.974C40.7217 126.881 41.0418 129.908 41.8688 132.894C42.7891 135.854 44.1229 138.774 45.6435 141.708C48.6579 147.574 52.3126 153.468 56.194 159.521C60.0888 165.561 64.277 171.708 68.692 177.934C69.2522 178.708 69.7991 179.481 70.3193 180.201L69.8791 180.094C75.1877 177.308 80.3896 174.574 85.3515 171.961L85.2047 172.401C77.6686 155.921 70.7728 140.868 65.0773 128.401L65.0506 128.334V128.268C65.7176 115.534 66.2644 105.108 66.6512 97.8145C66.8513 94.2145 67.0114 91.4011 67.1314 89.4411C67.1981 88.5078 67.2381 87.7878 67.2781 87.2545C67.3181 86.7611 67.3582 86.5078 67.3582 86.5078H67.3448Z" fill="#263238"/>
<path d="M90.3805 182.534C90.3805 182.534 92.528 184.641 93.2349 186.041C93.9418 187.441 94.9155 193.388 94.9155 193.388C94.9155 193.388 93.7151 194.294 91.9144 191.068C90.1137 187.841 89.6335 186.254 89.6335 186.254L90.3805 182.534Z" fill="#FFBF9D"/>
<path d="M92.5008 193.521L90.5001 182.668L84.2178 173.401L71.7332 180.028L72.8269 191.081C72.8269 191.081 76.0281 196.308 77.2285 197.188C78.4156 198.068 80.1896 196.908 80.1896 196.908C81.5635 198.268 84.3111 197.148 84.3111 197.148C86.0584 198.481 87.9258 196.561 87.9258 196.561C87.9258 196.561 90.1933 197.881 91.0603 197.601C91.3671 197.508 91.6338 197.214 91.8739 196.854C92.5142 195.868 92.7142 194.668 92.5142 193.521H92.5008Z" fill="#FFBF9D"/>
<path d="M78.5365 194.294C78.6565 194.228 79.11 194.748 79.5235 195.441C79.9503 196.148 80.1904 196.774 80.0704 196.841C79.9503 196.908 79.4968 196.388 79.0834 195.694C78.6565 194.988 78.4164 194.361 78.5365 194.294Z" fill="#5E5E5E"/>
<path d="M82.0965 193.454C82.2299 193.414 82.6568 194.281 83.2303 195.321C83.8038 196.361 84.3107 197.188 84.1907 197.281C84.0839 197.361 83.3637 196.641 82.7768 195.548C82.1766 194.468 81.9632 193.494 82.0965 193.454Z" fill="#5E5E5E"/>
<path d="M86.2585 193.028C86.4052 193.001 86.6853 193.801 87.0855 194.761C87.4856 195.721 87.8591 196.481 87.739 196.561C87.619 196.628 87.0321 195.948 86.6186 194.948C86.1918 193.948 86.1251 193.054 86.2585 193.041V193.028Z" fill="#5E5E5E"/>
<path d="M91.0463 186.081C91.1797 186.054 91.6599 187.881 92.1 190.148C92.5402 192.414 92.7803 194.281 92.6469 194.294C92.5135 194.321 92.0333 192.494 91.5932 190.228C91.153 187.961 90.9129 186.094 91.0463 186.081Z" fill="#5E5E5E"/>
<path d="M77.8817 192.161C77.8817 192.161 77.8817 192.374 77.655 192.561C77.4415 192.748 77.0547 192.934 76.5879 192.934C76.121 192.934 75.7476 192.734 75.5342 192.548C75.3208 192.361 75.2674 192.188 75.3208 192.148C75.4275 192.054 75.9076 192.454 76.5879 192.454C77.2681 192.454 77.7617 192.081 77.8684 192.174L77.8817 192.161Z" fill="#5E5E5E"/>
<path d="M82.2041 192.014C82.2041 192.014 82.1641 192.228 81.9106 192.414C81.6572 192.588 81.2437 192.748 80.7635 192.748C80.2834 192.748 79.8565 192.588 79.6164 192.401C79.363 192.214 79.283 192.041 79.323 192.001C79.4164 191.894 79.9766 192.268 80.7635 192.254C81.5505 192.268 82.1107 191.908 82.2041 192.001V192.014Z" fill="#5E5E5E"/>
<path d="M90.0333 189.694C90.0733 189.628 90.4201 189.921 90.1933 190.454C89.9533 190.934 89.393 191.334 88.6594 191.548C87.9258 191.748 87.2189 191.668 86.7787 191.494C86.3252 191.321 86.1118 191.108 86.1518 191.054C86.2052 190.934 87.2589 191.454 88.5261 191.081C89.1396 190.908 89.6598 190.574 89.8866 190.281C90.1133 189.988 89.9933 189.721 90.0466 189.694H90.0333Z" fill="#5E5E5E"/>
</svg>
