<svg width="943" height="400" viewBox="0 0 943 400" fill="none" xmlns="http://www.w3.org/2000/svg">
<g clip-path="url(#clip0_443_3412)">
<path d="M505.159 84.5332L509.361 76.3732C515.016 74.7066 520.245 71.3199 524.206 66.2666C533.17 54.8666 532.383 38.2932 522.379 27.7999C509.815 14.6132 488.567 15.7599 477.496 30.2266C468.613 41.8266 469.72 58.5199 480.03 68.8666C485.299 74.1599 492.008 76.9999 498.824 77.4932H498.81L505.146 84.5199L505.159 84.5332Z" fill="white"/>
<path d="M505.159 84.5333C505.159 84.5333 505.012 84.3599 504.745 84.0399C504.452 83.7066 504.052 83.2533 503.545 82.6666C502.478 81.4533 500.931 79.6933 498.917 77.4133L498.837 77.6399H498.85C498.93 77.6266 498.97 77.5466 498.957 77.4799C498.957 77.4133 498.89 77.3733 498.837 77.3733C495.088 77.0666 490.14 75.9599 485.218 72.7866C482.751 71.2266 480.376 69.1066 478.282 66.5066C476.175 63.9066 474.387 60.7733 473.24 57.2266C472.08 53.6799 471.56 49.7333 471.907 45.6799C472.24 41.6399 473.454 37.4933 475.601 33.7066C479.843 26.1333 488.139 20.1333 497.703 19.1466L499.49 18.9733H501.277C502.465 18.8933 503.652 19.1199 504.825 19.1866C507.146 19.5466 509.44 20.0666 511.575 20.9466C515.869 22.6266 519.658 25.2799 522.605 28.4933C525.54 31.7466 527.634 35.5466 528.848 39.4399C530.061 43.3333 530.408 47.3333 530.035 51.0533C529.288 58.5466 525.766 64.7733 521.632 68.8533C517.497 72.9999 512.908 75.1599 509.32 76.2399C509.294 76.2666 509.267 76.2799 509.24 76.3066C507.933 78.9333 506.92 80.9599 506.213 82.3733C505.879 83.0533 505.612 83.5733 505.426 83.9599C505.252 84.3199 505.159 84.5199 505.159 84.5199C505.159 84.5199 505.252 84.3599 505.439 84.0266C505.639 83.6533 505.906 83.1466 506.266 82.4933C507.013 81.0799 508.093 79.0533 509.494 76.4133L509.414 76.4799C513.042 75.4399 517.71 73.3066 521.938 69.1333C526.153 65.0266 529.781 58.7066 530.582 51.0799C530.968 47.2933 530.648 43.2266 529.421 39.2399C528.207 35.2666 526.073 31.3733 523.085 28.0533C520.071 24.7599 516.216 22.0399 511.828 20.3199C509.64 19.4133 507.306 18.8933 504.932 18.5199C503.732 18.4399 502.531 18.2266 501.317 18.2799H499.49L497.663 18.4666C487.886 19.4799 479.416 25.6133 475.108 33.3599C472.92 37.2266 471.707 41.4666 471.373 45.5866C471.04 49.7199 471.573 53.7466 472.774 57.3466C473.961 60.9599 475.801 64.1333 477.962 66.7599C480.11 69.3866 482.537 71.5333 485.058 73.0933C490.073 76.2666 495.102 77.3466 498.89 77.5999V77.3333H498.863C498.783 77.3466 498.743 77.4133 498.756 77.4933C498.756 77.5199 498.77 77.5466 498.797 77.5599C500.877 79.8133 502.491 81.5599 503.612 82.7733C504.132 83.3333 504.532 83.7599 504.839 84.0799C505.106 84.3733 505.252 84.5066 505.252 84.4933L505.159 84.5333Z" fill="#263238"/>
<path d="M499.077 62.4801L483.472 52.2401L487.046 46.8001L497.504 53.6667L510.295 36.4268L515.524 40.3067L499.077 62.4801Z" fill="#6C6C6C"/>
<path d="M517.657 116.973C516.79 115.266 514.749 114.266 512.882 114.6C510.695 112.84 507.253 112.893 505.119 114.72C503.465 113.72 501.291 113.68 499.597 114.6C497.903 115.52 496.743 117.373 496.649 119.306C494.729 118.986 492.648 120.04 491.741 121.773C490.834 123.506 491.167 125.813 492.528 127.226C490.434 127.906 489.047 130.306 489.5 132.48C489.954 134.653 492.208 136.28 494.395 136.04L516.804 122.266C518.164 120.933 518.537 118.68 517.657 116.973Z" fill="#263238"/>
<path d="M493.728 136.666C494.555 126.693 502.878 119.026 512.828 119.066H513.815C524.486 119.733 527.807 129.613 526.86 140.32L525.793 180.106L508.8 194.773L503.812 183.786L502.611 173.12C502.611 173.12 492.367 171.48 492.274 161.173C492.234 156.2 492.968 145.933 493.741 136.653L493.728 136.666Z" fill="#FFBF9D"/>
<path d="M502.518 173.106C502.518 173.106 509.067 173.519 515.963 169.199C515.963 169.199 513.149 176.893 502.918 175.933L502.518 173.106Z" fill="#5E5E5E"/>
<path d="M496.676 146.213C496.649 146.986 497.276 147.653 498.076 147.706C498.877 147.746 499.557 147.16 499.583 146.386C499.61 145.613 498.983 144.946 498.183 144.893C497.383 144.853 496.702 145.44 496.662 146.213H496.676Z" fill="#263238"/>
<path d="M495.809 142.24C495.995 142.426 497.103 141.613 498.676 141.626C500.25 141.613 501.411 142.426 501.571 142.24C501.651 142.16 501.477 141.813 500.971 141.44C500.477 141.066 499.637 140.706 498.65 140.706C497.663 140.706 496.836 141.066 496.369 141.44C495.889 141.813 495.715 142.16 495.809 142.24Z" fill="#263238"/>
<path d="M510.174 146.946C510.147 147.72 510.774 148.386 511.574 148.44C512.374 148.48 513.055 147.893 513.081 147.12C513.108 146.346 512.481 145.68 511.681 145.626C510.88 145.586 510.2 146.173 510.16 146.946H510.174Z" fill="#263238"/>
<path d="M510.881 142.066C511.067 142.253 512.175 141.44 513.748 141.453C515.322 141.453 516.469 142.253 516.643 142.066C516.723 141.986 516.549 141.64 516.043 141.266C515.549 140.893 514.709 140.533 513.722 140.533C512.735 140.533 511.908 140.893 511.441 141.266C510.961 141.64 510.787 141.986 510.881 142.066Z" fill="#263238"/>
<path d="M505.652 153.787C505.652 153.693 504.678 153.52 503.091 153.32C502.691 153.28 502.304 153.2 502.237 152.92C502.144 152.627 502.317 152.186 502.504 151.72C502.891 150.746 503.291 149.72 503.705 148.64C505.372 144.253 506.586 140.653 506.399 140.587C506.226 140.52 504.732 144.013 503.064 148.4C502.664 149.48 502.277 150.507 501.917 151.493C501.757 151.947 501.504 152.467 501.704 153.08C501.811 153.387 502.104 153.6 502.357 153.68C502.611 153.76 502.838 153.76 503.038 153.773C504.638 153.866 505.625 153.88 505.625 153.773L505.652 153.787Z" fill="#263238"/>
<path d="M510.281 154.906C510.028 154.893 510.015 156.613 508.547 157.826C507.08 159.04 505.266 158.853 505.239 159.093C505.213 159.2 505.64 159.426 506.413 159.453C507.174 159.48 508.267 159.24 509.174 158.493C510.068 157.746 510.455 156.746 510.521 156.04C510.588 155.32 510.401 154.893 510.281 154.906Z" fill="#263238"/>
<path d="M510.88 137.546C511.067 137.96 512.427 137.6 514.068 137.626C515.722 137.626 517.082 138.013 517.256 137.6C517.336 137.4 517.056 137.026 516.482 136.68C515.909 136.333 515.028 136.026 514.041 136.026C513.054 136.026 512.187 136.293 511.627 136.64C511.067 136.986 510.8 137.36 510.88 137.546Z" fill="#263238"/>
<path d="M496.182 137.893C496.422 138.28 497.542 138 498.836 138.093C500.143 138.146 501.224 138.546 501.504 138.186C501.624 138.013 501.49 137.64 501.037 137.253C500.597 136.88 499.823 136.533 498.93 136.48C498.036 136.426 497.236 136.693 496.742 137.013C496.248 137.346 496.075 137.693 496.182 137.88V137.893Z" fill="#263238"/>
<path d="M494.742 131.933C494.742 131.933 497.463 125.48 500.571 123.986C504.319 122.173 505.92 126.32 509.494 125.32C513.069 124.333 516.657 122.586 520.298 125.373C524.286 128.426 522.406 130.546 522.632 135.12C523.566 153.666 526.927 158.92 527.914 150.186C528.021 149.226 530.662 148.48 531.076 144.44C531.596 139.2 531.823 132.826 530.675 129.106C529.702 125.973 527.928 123.8 524.753 121.4C519.738 117.613 512.816 117.506 508.12 117.973C503.425 118.426 494.355 123.84 494.756 131.92L494.742 131.933Z" fill="#263238"/>
<path d="M525.954 149.933C526.02 148.346 527.394 147.093 528.968 147.253C530.875 147.44 533.01 148.546 532.863 152.52C532.609 159.573 525.633 157.866 525.62 157.666C525.62 157.533 525.82 152.893 525.954 149.946V149.933Z" fill="#FFBF9D"/>
<path d="M527.246 155.053C527.246 155.053 527.366 155.146 527.566 155.24C527.767 155.333 528.113 155.413 528.473 155.293C529.22 155.04 529.887 153.893 529.967 152.613C530.007 151.973 529.901 151.36 529.687 150.84C529.487 150.32 529.167 149.946 528.807 149.866C528.433 149.773 528.167 149.986 528.073 150.173C527.967 150.373 528.007 150.506 527.98 150.52C527.967 150.533 527.833 150.4 527.9 150.106C527.94 149.973 528.02 149.8 528.193 149.68C528.367 149.546 528.62 149.493 528.874 149.52C529.407 149.573 529.887 150.093 530.114 150.653C530.368 151.226 530.514 151.906 530.474 152.626C530.381 154.04 529.607 155.346 528.58 155.613C528.087 155.72 527.673 155.56 527.473 155.386C527.26 155.2 527.233 155.04 527.26 155.04L527.246 155.053Z" fill="#5E5E5E"/>
<path d="M527.167 136.28C526.26 136.906 525.286 137.546 524.192 137.653C523.098 137.76 521.845 137.12 521.658 136.026C521.578 135.533 521.698 134.973 521.378 134.586C520.991 134.133 520.284 134.266 519.697 134.333C517.656 134.546 515.576 133.093 515.069 131.093C514.549 131.88 513.335 131.84 512.548 131.32C511.761 130.813 511.254 129.973 510.641 129.266C510.027 128.56 509.16 127.92 508.24 128.053C507.719 128.12 507.239 128.44 506.719 128.386C505.799 128.306 505.359 127.213 505.212 126.293C505.078 125.373 504.972 124.306 504.198 123.8C503.478 123.333 502.544 123.6 501.691 123.72C500.837 123.84 499.743 123.64 499.53 122.8C499.423 122.36 499.61 121.906 499.85 121.52C500.944 119.8 503.331 119.04 505.212 119.813C505.905 117.48 508.08 115.68 510.48 115.44C512.881 115.186 515.376 116.52 516.523 118.653C518.003 117.306 520.164 116.746 522.111 117.2C524.059 117.653 525.753 119.106 526.5 120.973C528.207 120.533 530.141 121.2 531.221 122.6C532.302 124 532.449 126.066 531.582 127.613C532.835 128.346 533.916 129.6 533.929 131.066C533.956 132.52 532.529 133.973 531.128 133.586C531.688 134.72 531.221 136.266 530.128 136.893C529.034 137.52 527.473 137.146 526.78 136.08" fill="#263238"/>
<path d="M531.662 133.56C531.662 133.56 531.795 134.146 531.222 134.92C530.942 135.28 530.461 135.653 529.808 135.76C529.181 135.866 528.407 135.706 527.807 135.173L528.101 135.133C527.754 135.733 527.287 136.36 526.7 136.88C526.313 137.213 525.886 137.506 525.42 137.68C524.953 137.866 524.433 137.88 524.006 137.813C523.112 137.706 522.338 137.226 521.992 136.64C521.618 136.066 521.498 135.533 521.431 135.173C521.365 134.813 521.351 134.613 521.378 134.6C521.405 134.6 521.471 134.786 521.578 135.133C521.698 135.466 521.858 135.973 522.218 136.48C522.885 137.493 525.046 138.013 526.433 136.6C526.994 136.106 527.434 135.52 527.767 134.96L527.887 134.746L528.061 134.906C528.541 135.36 529.208 135.52 529.755 135.453C530.315 135.386 530.742 135.093 531.022 134.786C531.582 134.146 531.582 133.573 531.649 133.586L531.662 133.56Z" fill="#455A64"/>
<path d="M518.471 117.426C518.471 117.426 518.284 117.48 517.978 117.613C517.671 117.746 517.217 118.013 516.884 118.546L516.804 118.68L516.71 118.546C516.057 117.666 514.963 116.52 513.336 115.773C512.522 115.413 511.575 115.16 510.575 115.16C509.574 115.16 508.534 115.44 507.6 116C506.88 116.44 506.267 117.026 505.826 117.68C505.386 118.346 505.119 119.08 505.053 119.8L505.026 120.026L504.813 119.973C503.759 119.68 502.692 119.88 501.905 120.32C501.105 120.76 500.598 121.426 500.304 122.026C499.731 123.266 499.931 124.12 499.864 124.106C499.851 124.106 499.798 123.906 499.784 123.533C499.784 123.16 499.824 122.586 500.104 121.933C500.384 121.293 500.905 120.546 501.758 120.04C502.599 119.546 503.759 119.293 504.919 119.6L504.679 119.76C504.746 118.973 505.039 118.173 505.493 117.453C505.973 116.746 506.613 116.12 507.387 115.653C508.374 115.053 509.508 114.746 510.575 114.76C511.642 114.76 512.629 115.053 513.483 115.453C515.177 116.266 516.27 117.48 516.897 118.413H516.71C517.111 117.853 517.617 117.6 517.951 117.506C518.298 117.4 518.484 117.413 518.484 117.44L518.471 117.426Z" fill="#455A64"/>
<path d="M526.527 168.747L527.341 174.067L497.783 189.387L499.717 180.773C499.717 180.773 503.812 177.04 508.854 174.613C517.257 170.56 526.54 168.76 526.54 168.76L526.527 168.747Z" fill="#F5F5F5"/>
<path d="M531.582 177.08C531.582 177.08 539.078 196.813 539.158 204.093C539.238 211.373 534.996 231.093 534.996 231.093L513.789 271.533L510.054 301.4C495.969 301.466 477.108 298.64 456.834 294.973C456.834 294.973 472.36 239.04 477.255 231.533C482.15 224.013 499.33 189.56 499.33 189.56C499.33 189.56 500.744 185.96 505.025 182.08C510.961 176.693 521.885 173.933 531.622 172.76L531.582 177.08Z" fill="#6C6C6C"/>
<path d="M523.499 185.386C517.43 185.186 509.093 188.52 504.852 198.573L500.33 211.12L483.524 235.24L439.414 232.346L436.693 250.573C436.693 250.573 484.751 261.226 490.393 260.626C496.022 260.026 523.299 231.586 523.299 231.586C523.299 231.586 537.464 213.906 536.77 199.186" fill="#6C6C6C"/>
<path d="M536.757 199.2C536.757 199.2 536.73 199.413 536.717 199.826C536.704 200.266 536.677 200.88 536.65 201.653C536.61 202.453 536.424 203.44 536.29 204.6C536.037 205.746 535.823 207.093 535.356 208.546C533.703 214.426 529.808 222.626 523.072 231.426H523.085C518.937 235.68 514.255 240.36 509.08 245.306C506.479 247.773 503.771 250.32 500.877 252.84C499.437 254.106 497.943 255.373 496.395 256.586C494.848 257.786 493.221 259.026 491.46 259.893C490.993 260.08 490.593 260.266 490.113 260.253C489.62 260.24 489.126 260.253 488.619 260.213C487.592 260.093 486.565 260.026 485.538 259.853C483.471 259.573 481.377 259.213 479.256 258.853C475.028 258.106 470.719 257.28 466.318 256.413C457.528 254.653 448.431 252.733 439.121 250.706L436.76 250.186L437.067 250.626C437.987 244.426 438.908 238.333 439.788 232.386L439.374 232.72C455.22 233.746 470.092 234.706 483.484 235.573H483.684L483.791 235.426C489.993 226.48 495.622 218.36 500.544 211.266L500.57 211.24V211.2C501.557 208.453 502.491 205.84 503.371 203.373C504.278 200.92 504.972 198.52 506.066 196.52C508.173 192.426 511.188 189.653 513.949 188.026C516.736 186.373 519.244 185.826 520.898 185.573C521.738 185.466 522.392 185.413 522.819 185.413C523.259 185.4 523.472 185.386 523.472 185.373C523.472 185.373 522.578 185.253 520.871 185.426C519.191 185.626 516.63 186.133 513.789 187.773C510.961 189.386 507.84 192.173 505.666 196.32C504.518 198.373 503.825 200.76 502.891 203.213C501.998 205.68 501.037 208.293 500.05 211.026L500.077 210.96C495.128 218.026 489.46 226.133 483.217 235.04L483.524 234.893C470.146 234 455.274 233 439.428 231.946L439.068 231.92L439.014 232.28C438.121 238.213 437.214 244.306 436.28 250.506L436.227 250.866L436.587 250.946L438.948 251.466C448.271 253.506 457.381 255.413 466.171 257.16C470.573 258.026 474.894 258.853 479.122 259.586C481.243 259.946 483.337 260.293 485.431 260.573C486.472 260.733 487.526 260.813 488.553 260.933C489.073 260.986 489.62 260.96 490.153 260.973C490.7 260.973 491.274 260.746 491.74 260.546C493.634 259.6 495.235 258.36 496.822 257.133C498.383 255.893 499.877 254.613 501.317 253.346C504.212 250.8 506.919 248.24 509.52 245.76C514.696 240.786 519.337 236.066 523.472 231.76V231.746C530.208 222.826 534.036 214.56 535.623 208.6C536.063 207.12 536.264 205.76 536.49 204.6C536.61 203.426 536.77 202.426 536.784 201.626C536.784 200.853 536.784 200.24 536.77 199.8C536.77 199.386 536.757 199.173 536.744 199.173L536.757 199.2Z" fill="#263238"/>
<path d="M495.368 190.906C495.368 190.906 495.768 190.586 496.435 189.933C496.769 189.613 497.169 189.213 497.676 188.786C498.169 188.36 498.716 187.84 499.37 187.333C500.65 186.28 502.251 185.12 504.092 183.946C505.959 182.8 508.08 181.653 510.387 180.64C515.016 178.613 519.471 177.453 522.712 176.746C524.339 176.4 525.646 176.146 526.567 175.986C527.474 175.826 527.98 175.72 527.98 175.68C527.98 175.64 527.46 175.693 526.54 175.813C525.619 175.92 524.286 176.133 522.645 176.44C519.377 177.066 514.882 178.186 510.214 180.226C507.88 181.253 505.745 182.426 503.878 183.6C502.024 184.8 500.437 185.986 499.17 187.08C498.516 187.6 497.996 188.146 497.502 188.586C497.009 189.026 496.622 189.453 496.302 189.786C495.662 190.466 495.328 190.853 495.355 190.88L495.368 190.906Z" fill="#263238"/>
<path d="M460.836 148.52L465.037 160.866L466.504 162.933C466.504 162.933 467.785 169.8 467.865 171.267C467.945 172.733 466.038 180.413 466.038 180.413L470.306 187.24L458.501 191.773C458.501 191.773 455.3 185.533 454.407 184.826C453.513 184.12 452.873 182.093 452.659 180.733C452.446 179.36 450.685 171.267 450.685 171.267C450.685 171.267 445.457 162.32 447.631 161.866C448.124 161.76 449.271 161.893 449.271 161.893C449.271 161.893 452.419 167.773 453.273 167.893L454.46 167.2C454.46 167.2 451.992 158.2 451.872 156.52C451.752 154.84 452.099 153.653 453.393 153.453C453.393 153.453 454.367 153.84 454.46 154.267C454.553 154.693 457.007 164.733 457.554 164.546C458.115 164.36 457.848 163.44 457.848 163.44C457.848 163.44 454.58 151.266 454.727 150.573C454.873 149.88 455.474 148.786 456.687 148.906L459.195 155.586C459.195 155.586 458.021 149.96 458.928 148.96C459.835 147.96 460.836 148.493 460.836 148.493V148.52Z" fill="#FFBF9D"/>
<path d="M458.342 175.84C458.449 175.84 458.369 174.786 458.769 173.106C459.169 171.466 460.249 169.12 462.437 167.426L462.597 167.306L462.557 167.12C462.357 166.226 462.13 165.293 461.917 164.32V164.266L461.863 164.213C461.663 163.92 461.45 163.586 461.25 163.24C460.583 162.08 460.089 160.866 459.889 159.68C459.796 159.093 459.769 158.506 459.916 158.013C460.036 157.52 460.436 157.16 460.81 157.106L460.609 157.026C462.023 158.373 463.21 159.493 464.051 160.253C464.891 161.013 465.385 161.426 465.425 161.386C465.465 161.346 465.038 160.853 464.264 160.026C463.491 159.2 462.357 158.04 460.983 156.64L460.903 156.546H460.783C460.089 156.626 459.556 157.2 459.382 157.826C459.182 158.453 459.222 159.106 459.316 159.746C459.516 161.04 460.036 162.306 460.73 163.52C460.943 163.88 461.156 164.226 461.383 164.546L461.33 164.44C461.557 165.4 461.783 166.333 461.997 167.226L462.117 166.92C459.756 168.8 458.755 171.28 458.422 173.013C458.262 173.893 458.235 174.6 458.262 175.08C458.289 175.56 458.329 175.826 458.355 175.813L458.342 175.84Z" fill="#5E5E5E"/>
<path d="M458.342 165.853C458.289 165.693 456.488 166.227 454.594 167.493C452.687 168.747 451.5 170.2 451.62 170.307C451.753 170.44 453.087 169.227 454.941 168.013C456.782 166.787 458.422 166.027 458.355 165.867L458.342 165.853Z" fill="#5E5E5E"/>
<path d="M453.513 190.706L471.306 183.106L481.257 198.853L458.702 200.72L453.513 190.706Z" fill="#6C6C6C"/>
<path d="M555.497 142.213C555.497 142.213 546.347 150.146 543.052 162.24C539.757 174.333 541.638 208.826 536.69 219.826C531.741 230.826 508.653 271.64 508.239 280.546C507.826 289.453 509.933 293 514.908 301.493C519.883 309.986 530.581 323.16 538.757 323.32C546.933 323.48 549.294 315.573 549.294 315.573L535.276 287.866L553.656 242.053L566.367 191.546L572.089 166.653L555.51 142.213H555.497Z" fill="#263238"/>
<path d="M521.991 281.706C521.991 281.706 517.162 289.56 521.39 296.546C525.605 303.52 537.783 323.96 544.332 321.533C550.895 319.12 553.656 315.24 553.055 314.426C552.468 313.613 548.174 297 550.188 281.386C552.202 265.76 567.861 206.186 571.462 192.386C575.063 178.586 576.931 152.026 571.542 142.426C566.154 132.826 555.483 142.213 555.483 142.213C555.483 142.213 563.139 169.4 561.565 182.226C559.991 195.04 521.977 281.706 521.977 281.706H521.991Z" fill="#E0E0E0"/>
<path d="M521.991 281.706C521.991 281.706 522.111 281.493 522.311 281.053C522.524 280.6 522.804 279.96 523.191 279.12C523.965 277.386 525.085 274.853 526.526 271.586C529.407 265.013 533.582 255.413 538.704 243.306C543.786 231.2 549.961 216.64 556.283 199.92C557.07 197.826 557.871 195.706 558.604 193.533C558.978 192.453 559.365 191.36 559.751 190.253C560.098 189.133 560.445 188.013 560.792 186.88C561.179 185.76 561.419 184.586 561.672 183.4C562.006 182.226 561.992 181 562.112 179.786C562.166 177.346 562.086 174.893 561.832 172.426C560.859 162.546 558.618 152.426 555.857 142.093L555.737 142.48C557.337 141.16 559.178 140 561.152 139.24C563.113 138.466 565.34 138.16 567.301 138.946C569.275 139.693 570.689 141.493 571.596 143.466C572.569 145.44 573.063 147.653 573.516 149.853C574.303 154.306 574.517 158.933 574.504 163.586C574.477 168.24 574.17 172.946 573.637 177.666C573.263 181.133 572.73 184.56 572.063 187.92C571.409 191.28 570.462 194.586 569.622 197.88C567.914 204.466 566.247 210.96 564.593 217.346C561.339 230.12 558.244 242.44 555.47 254.24C554.083 260.133 552.762 265.893 551.615 271.52C550.468 277.133 549.414 282.666 549.361 288.08C549.228 293.493 549.641 298.706 550.361 303.666C550.735 306.146 551.175 308.56 551.722 310.906C552.015 312.093 552.242 313.2 552.722 314.386C553.016 314.746 552.709 315.24 552.429 315.706C552.122 316.16 551.762 316.6 551.362 316.986C549.761 318.56 547.84 319.72 545.88 320.6C544.879 321 543.919 321.573 542.945 321.453C541.945 321.373 540.998 320.933 540.144 320.426C538.424 319.36 536.983 317.946 535.663 316.56C534.342 315.146 533.155 313.693 532.035 312.266C527.62 306.506 524.378 301.12 521.697 296.773C520.31 294.626 519.843 292.346 519.79 290.413C519.75 288.453 520.097 286.813 520.457 285.52C520.83 284.226 521.244 283.293 521.537 282.666C521.831 282.04 521.991 281.72 521.991 281.72C521.991 281.72 521.151 282.893 520.31 285.466C519.91 286.76 519.537 288.413 519.55 290.4C519.577 292.373 520.03 294.733 521.431 296.92C524.072 301.306 527.273 306.706 531.674 312.533C532.781 313.986 533.969 315.453 535.302 316.88C536.636 318.293 538.09 319.733 539.877 320.853C540.771 321.4 541.771 321.88 542.905 321.973C543.185 322 543.479 321.973 543.759 321.946C544.026 321.866 544.332 321.826 544.586 321.72C545.093 321.52 545.6 321.333 546.106 321.093C548.107 320.2 550.095 319.026 551.762 317.386C552.189 316.986 552.562 316.52 552.909 316.026C553.069 315.773 553.229 315.506 553.336 315.186C553.389 315.026 553.429 314.853 553.416 314.653C553.416 314.56 553.362 314.426 553.309 314.32L553.229 314.133C552.842 313.146 552.575 311.92 552.295 310.786C551.762 308.466 551.322 306.053 550.975 303.586C550.281 298.653 549.868 293.466 550.028 288.106C550.095 282.733 551.162 277.28 552.309 271.666C553.469 266.053 554.803 260.306 556.19 254.413C558.978 242.64 562.086 230.306 565.353 217.546C567.007 211.173 568.688 204.68 570.395 198.093C571.236 194.8 572.183 191.493 572.85 188.093C573.53 184.693 574.063 181.253 574.437 177.773C574.97 173.026 575.264 168.293 575.304 163.613C575.317 158.933 575.104 154.28 574.303 149.733C573.85 147.48 573.343 145.226 572.316 143.146C571.356 141.093 569.822 139.093 567.594 138.253C565.38 137.373 562.939 137.733 560.898 138.56C558.804 139.373 556.937 140.533 555.256 141.933L555.083 142.08L555.15 142.32C557.911 152.6 560.152 162.706 561.139 172.506C562.899 182.466 558.551 191.346 555.683 199.706C549.428 216.426 543.305 231 538.277 243.133C533.168 255.213 529.1 264.853 526.299 271.493C524.899 274.786 523.818 277.32 523.085 279.066C522.724 279.906 522.458 280.56 522.271 281.026C522.084 281.466 522.017 281.706 522.017 281.706H521.991Z" fill="#263238"/>
<path d="M184.453 344.853L894.396 344.853V245.6L184.453 245.6V344.853Z" fill="#6C6C6C"/>
<g opacity="0.4">
<path d="M184.453 344.853L894.396 344.853V245.6L184.453 245.6V344.853Z" fill="black"/>
</g>
<path d="M700.35 146.653C700.35 146.653 691.2 154.587 687.906 166.68C684.611 178.773 686.492 213.267 681.543 224.267C676.595 235.267 653.506 276.08 653.093 284.987C652.679 293.893 654.787 297.44 659.762 305.933C664.737 314.427 675.434 327.6 683.611 327.76C691.787 327.92 694.148 320.013 694.148 320.013L680.129 292.307L698.509 246.493L711.221 195.987L716.943 171.093L700.363 146.653H700.35Z" fill="#263238"/>
<path d="M666.844 286.147C666.844 286.147 662.016 294.013 666.244 300.987C670.459 307.96 682.637 328.4 689.186 325.973C695.748 323.56 698.509 319.68 697.909 318.867C697.322 318.053 693.027 301.44 695.041 285.827C697.055 270.2 712.714 210.627 716.316 196.827C719.917 183.027 721.784 156.467 716.396 146.867C711.007 137.267 700.336 146.653 700.336 146.653C700.336 146.653 707.993 173.84 706.419 186.667C704.845 199.48 666.831 286.147 666.831 286.147H666.844Z" fill="#E0E0E0"/>
<path d="M666.844 286.147C666.844 286.147 666.964 285.933 667.164 285.493C667.378 285.04 667.658 284.4 668.045 283.56C668.818 281.827 669.939 279.293 671.379 276.027C674.26 269.453 678.435 259.853 683.557 247.747C688.639 235.64 694.815 221.08 701.137 204.36C701.924 202.267 702.724 200.147 703.458 197.973C703.831 196.893 704.218 195.8 704.605 194.693C704.952 193.573 705.298 192.453 705.645 191.32C706.032 190.2 706.272 189.027 706.526 187.84C706.859 186.667 706.846 185.44 706.966 184.227C707.019 181.787 706.939 179.333 706.686 176.867C705.712 166.987 703.471 156.867 700.71 146.533L700.59 146.92C702.191 145.6 704.031 144.44 706.005 143.68C707.966 142.907 710.194 142.6 712.154 143.387C714.128 144.133 715.542 145.933 716.449 147.907C717.423 149.88 717.916 152.093 718.37 154.293C719.157 158.747 719.37 163.373 719.357 168.027C719.33 172.68 719.024 177.387 718.49 182.107C718.117 185.573 717.583 189 716.916 192.36C716.263 195.72 715.316 199.027 714.475 202.32C712.768 208.907 711.101 215.4 709.447 221.787C706.192 234.56 703.098 246.88 700.323 258.68C698.936 264.573 697.616 270.333 696.469 275.96C695.322 281.573 694.268 287.107 694.214 292.52C694.081 297.933 694.495 303.147 695.215 308.107C695.588 310.587 696.028 313 696.575 315.347C696.869 316.533 697.095 317.64 697.576 318.827C697.869 319.187 697.562 319.68 697.282 320.147C696.975 320.6 696.615 321.04 696.215 321.427C694.615 323 692.694 324.16 690.733 325.04C689.733 325.44 688.772 326.013 687.799 325.893C686.798 325.813 685.851 325.373 684.998 324.867C683.277 323.8 681.837 322.387 680.516 321C679.196 319.587 678.008 318.133 676.888 316.707C672.473 310.947 669.232 305.56 666.551 301.213C665.164 299.067 664.697 296.787 664.644 294.853C664.603 292.893 664.95 291.253 665.31 289.96C665.684 288.667 666.097 287.733 666.391 287.107C666.684 286.48 666.844 286.16 666.844 286.16C666.844 286.16 666.004 287.333 665.164 289.907C664.764 291.2 664.39 292.853 664.403 294.84C664.43 296.813 664.884 299.173 666.284 301.36C668.925 305.747 672.126 311.147 676.528 316.973C677.635 318.427 678.822 319.893 680.156 321.32C681.49 322.733 682.944 324.173 684.731 325.293C685.625 325.84 686.625 326.32 687.759 326.413C688.039 326.44 688.332 326.413 688.612 326.387C688.879 326.307 689.186 326.267 689.439 326.16C689.946 325.96 690.453 325.773 690.96 325.533C692.961 324.64 694.948 323.467 696.615 321.827C697.042 321.427 697.416 320.96 697.762 320.467C697.922 320.213 698.083 319.947 698.189 319.627C698.243 319.467 698.283 319.293 698.269 319.093C698.269 319 698.216 318.867 698.163 318.76L698.083 318.573C697.696 317.587 697.429 316.36 697.149 315.227C696.615 312.907 696.175 310.493 695.828 308.027C695.135 303.093 694.721 297.907 694.881 292.547C694.948 287.173 696.015 281.72 697.162 276.107C698.323 270.493 699.656 264.747 701.044 258.853C703.831 247.08 706.939 234.747 710.207 221.987C711.861 215.613 713.542 209.12 715.249 202.533C716.089 199.24 717.036 195.933 717.703 192.533C718.383 189.133 718.917 185.693 719.29 182.213C719.824 177.467 720.117 172.733 720.157 168.053C720.171 163.373 719.957 158.72 719.157 154.173C718.703 151.92 718.197 149.667 717.17 147.587C716.209 145.533 714.675 143.533 712.448 142.693C710.234 141.813 707.793 142.173 705.752 143C703.658 143.813 701.791 144.973 700.11 146.373L699.937 146.52L700.003 146.76C702.764 157.04 705.005 167.147 705.992 176.947C707.753 186.907 703.404 195.787 700.537 204.147C694.281 220.867 688.159 235.44 683.13 247.573C678.022 259.653 673.954 269.293 671.153 275.933C669.752 279.227 668.672 281.76 667.938 283.507C667.578 284.36 667.311 285 667.124 285.467C666.938 285.907 666.871 286.147 666.871 286.147H666.844Z" fill="#263238"/>
<path d="M928.889 248.04C928.889 248.04 925.954 220.626 924.66 217.16C923.353 213.693 918.151 206.4 918.151 206.4V175.52C922.059 171.706 922.7 168.586 922.7 168.586C923.42 166.733 876.496 161.653 876.496 161.653C876.496 161.653 769.456 127.306 747.328 120.706C725.2 114.12 625.643 104.746 625.643 104.746C551.136 95.2931 500.37 101.48 447.631 120.013C416.859 130.826 291.186 197.4 291.186 197.4L278.502 198.44C278.502 198.44 239.327 203.986 230.524 205.026C215.999 206.746 163.646 226.893 143.479 239.733C131.634 247.266 123.044 255.88 117.976 261.706C114.495 265.706 112.574 270.946 112.574 276.4V317.453C111.6 332.026 148.04 360.826 148.04 360.826H192.937V335.84H194.311C194.164 333.866 194.071 331.88 194.071 329.866C194.071 289.053 224.535 255.973 262.122 255.973C299.71 255.973 330.174 289.053 330.174 329.866C330.174 331.88 330.081 333.866 329.934 335.84L329.667 360.826H719.144L719.291 327.173C720.598 287.613 750.529 255.986 787.29 255.986C824.05 255.986 853.968 287.613 855.288 327.173L855.208 353.146C855.208 353.146 905.133 345.56 911.322 340.36C917.498 335.16 942.92 300.453 942.92 291.44C942.92 282.426 928.889 248.066 928.889 248.066V248.04ZM555.604 193.28L400.854 205L377.018 170.533C377.018 170.533 436.974 134.16 489.66 123.173C543.106 112.04 570.116 115.04 570.116 115.04L555.604 193.266V193.28ZM590.043 193.28C590.043 193.28 594.912 119.106 596.846 116.506C598.793 113.906 740.326 133.106 743.727 135.173C747.128 137.253 764.641 172.52 765.121 174.08L590.03 193.266L590.043 193.28Z" fill="#00AF00"/>
<path d="M190.603 291.413C190.603 291.413 190.723 291.2 190.963 290.8C191.203 290.387 191.536 289.773 192.016 288.973C192.937 287.36 194.431 285.053 196.458 282.12C198.565 279.253 201.166 275.72 204.661 272C208.116 268.267 212.304 264.173 217.559 260.413C222.774 256.667 228.897 252.907 236.126 250.493C243.315 247.973 251.452 246.693 260.175 246.56C268.885 246.373 278.168 247.253 287.612 249.693C292.347 250.867 297.095 252.493 301.777 254.6C306.445 256.707 311.127 259.253 315.329 262.6L315.462 262.707H315.609C346.74 259.413 381.82 255.72 418.793 251.813C452.806 248.2 485.205 244.76 514.669 241.64C515.589 241.547 516.509 241.44 517.416 241.347C518.337 241.293 519.244 241.24 520.164 241.2C521.992 241.107 523.792 241.013 525.593 240.92C529.194 240.747 532.742 240.587 536.25 240.413C543.253 240.147 550.069 239.88 556.644 239.64C569.809 239.213 582.067 238.947 593.258 238.773C615.653 238.427 633.766 238.387 646.291 238.32C652.533 238.28 657.388 238.253 660.709 238.227C662.337 238.213 663.59 238.187 664.457 238.187C665.298 238.173 665.738 238.147 665.738 238.147C665.738 238.147 665.311 238.12 664.457 238.107C663.59 238.107 662.337 238.08 660.709 238.067C657.388 238.053 652.533 238.027 646.291 237.987C633.766 237.96 615.639 237.893 593.244 238.16C582.04 238.293 569.783 238.52 556.618 238.92C550.042 239.12 543.226 239.36 536.223 239.653C532.715 239.813 529.168 239.973 525.553 240.133C523.752 240.227 521.938 240.307 520.111 240.4C519.204 240.453 518.284 240.493 517.363 240.547C516.443 240.64 515.536 240.733 514.602 240.84C485.125 243.947 452.726 247.36 418.713 250.947C381.74 254.867 346.66 258.6 315.529 261.907L315.809 262C311.487 258.56 306.792 256.04 302.07 253.907C297.349 251.787 292.56 250.16 287.798 248.987C278.288 246.56 268.938 245.693 260.188 245.907C251.438 246.053 243.209 247.387 235.979 249.947C228.697 252.413 222.548 256.227 217.319 260.027C212.064 263.827 207.876 267.973 204.434 271.747C200.953 275.493 198.365 279.08 196.298 281.973C194.297 284.933 192.843 287.267 191.95 288.907C191.029 290.533 190.643 291.413 190.643 291.413H190.603Z" fill="#263238"/>
<g opacity="0.2">
<path d="M112.573 288.293L141.304 277.36L144.719 294.013L190.589 291.413C190.589 291.413 210.783 250.266 252.078 246.653C287.438 243.56 315.528 262.306 315.528 262.306L517.576 240.933C517.576 240.933 620.067 236.773 659.602 237.293C699.137 237.813 733.976 268.453 733.976 268.453C733.976 268.453 745.647 250.4 786.982 249.986C828.318 249.573 845.577 275.466 845.577 275.466C874.721 271.4 902.812 259.04 926.167 240.013L928.181 241.733C928.608 245.44 928.888 248.04 928.888 248.04C928.888 248.04 942.92 282.386 942.92 291.413C942.92 300.44 917.497 335.133 911.322 340.333C905.146 345.533 855.208 353.12 855.208 353.12L855.288 327.146C853.98 287.586 824.049 255.96 787.289 255.96C750.529 255.96 720.611 287.586 719.291 327.146L719.144 360.8H329.68L329.947 335.813C330.094 333.84 330.187 331.853 330.187 329.84C330.187 289.026 299.723 255.946 262.135 255.946C224.548 255.946 194.084 289.026 194.084 329.84C194.084 331.853 194.177 333.84 194.324 335.813H192.95V360.8H148.053C148.053 360.8 111.613 332 112.587 317.426V288.28L112.573 288.293Z" fill="black"/>
</g>
<path d="M805.575 163.88L767.295 134.56C765.867 133.466 764.214 132.773 762.466 132.533C681.17 121.173 618.28 111.186 585.494 109.973C477.214 103.64 404.667 150.04 394.33 155.24C383.993 160.44 339.95 186.8 330 197.013C325.025 202.12 325.785 206.613 327.799 209.826C329.906 213.2 333.708 214.946 337.509 214.72L574.69 200.693L769.215 177.826L803.455 172.96C807.683 172.36 809.043 166.546 805.575 163.893V163.88ZM555.603 193.28L400.853 205L377.017 170.533C377.017 170.533 436.973 134.16 489.659 123.173C543.105 112.04 570.115 115.04 570.115 115.04L555.603 193.266V193.28ZM590.043 193.28C590.043 193.28 594.911 119.106 596.845 116.506C598.792 113.906 740.325 133.106 743.726 135.173C747.127 137.253 764.64 172.52 765.121 174.08L590.029 193.266L590.043 193.28Z" fill="#263238"/>
<path d="M711.208 129.8L712.435 181.56H705.139V128.933L711.208 129.8Z" fill="#263238"/>
<path d="M371.095 168.653C371.095 168.653 370.962 168.906 370.735 169.44C370.509 169.986 370.175 170.76 369.735 171.786C369.308 172.826 368.708 174.093 368.148 175.666C367.574 177.24 366.907 179.053 366.16 181.093C363.359 189.373 359.958 201.853 357.851 218.133C355.703 234.386 354.823 254.386 356.117 277.16C356.757 288.546 357.917 300.626 359.718 313.266C360.638 319.586 361.679 326.04 363.012 332.6C363.373 334.226 363.626 335.906 364.266 337.533C364.88 339.133 365.667 340.64 366.48 342.12C368.134 345.08 369.988 347.933 371.949 350.76L372.056 350.92H372.243C419.367 350 474.44 348.933 533.009 347.786C563.406 347.04 592.844 346.32 620.748 345.64C634.699 345.346 648.264 345.053 661.363 344.96C663.003 344.96 664.63 344.92 666.244 344.96C667.858 345 669.472 344.986 671.126 344.906C674.394 344.653 677.542 343.64 680.396 342.12C683.251 340.586 685.825 338.573 688.106 336.306C690.387 334.026 692.401 331.533 694.081 328.773V328.8C709.047 306.8 722.572 286.466 734.416 268.32C740.312 259.226 745.82 250.72 750.796 242.746C755.784 234.786 760.279 227.426 764.107 220.6C766.028 217.2 767.789 213.92 769.136 210.68C769.456 209.866 769.776 209.053 770.083 208.253C770.39 207.466 770.563 206.626 770.803 205.84C771.003 205.04 771.297 204.266 771.417 203.48C771.55 202.693 771.697 201.92 771.83 201.146C772.844 195.013 771.977 189.653 770.856 185.586C769.683 181.493 768.149 178.613 767.015 176.786C765.881 174.946 765.121 174.133 765.121 174.133C765.121 174.133 765.281 174.36 765.601 174.8C765.908 175.253 766.361 175.933 766.922 176.853C768.015 178.706 769.509 181.586 770.643 185.666C771.723 189.706 772.55 195.026 771.51 201.106C771.377 201.853 771.23 202.626 771.096 203.413C770.963 204.2 770.683 204.96 770.47 205.746C770.229 206.533 770.056 207.346 769.736 208.133C769.429 208.92 769.109 209.72 768.789 210.533C767.428 213.746 765.668 217 763.747 220.386C759.906 227.186 755.384 234.533 750.382 242.466C745.394 250.413 739.858 258.92 733.949 267.986C722.065 286.093 708.5 306.4 693.494 328.373L693.481 328.4C690.173 333.666 685.625 338.44 680.076 341.44C677.302 342.92 674.234 343.893 671.086 344.133C669.512 344.213 667.898 344.213 666.271 344.186C664.644 344.16 663.017 344.186 661.376 344.186C648.264 344.266 634.699 344.56 620.748 344.84C592.844 345.506 563.393 346.226 532.995 346.946C474.427 348.12 419.353 349.24 372.229 350.186L372.523 350.333C370.575 347.546 368.721 344.706 367.081 341.773C366.267 340.306 365.507 338.826 364.906 337.293C364.306 335.786 364.04 334.12 363.679 332.493C362.346 325.96 361.292 319.506 360.358 313.213C358.531 300.6 357.344 288.546 356.69 277.186C355.343 254.453 356.17 234.493 358.251 218.266C360.291 202.013 363.613 189.533 366.347 181.253C367.081 179.2 367.721 177.386 368.281 175.813C368.828 174.24 369.415 172.973 369.815 171.92C370.228 170.88 370.549 170.093 370.762 169.546C370.975 169.013 371.069 168.733 371.069 168.733L371.095 168.653Z" fill="#263238"/>
<path d="M571.729 200.867C571.729 200.867 571.542 201.36 571.329 202.333C571.115 203.307 570.835 204.747 570.542 206.627C569.968 210.373 569.368 215.84 568.981 222.613C568.127 236.173 568.474 254.92 568.728 275.613C569.034 296.307 569.461 315.04 569.821 328.587C570.021 335.307 570.182 340.76 570.302 344.64C570.382 346.48 570.435 347.933 570.475 349C570.502 349.453 570.528 349.827 570.542 350.133C570.555 350.387 570.582 350.52 570.595 350.52C570.608 350.52 570.622 350.387 570.622 350.133C570.622 349.827 570.622 349.453 570.635 349C570.635 347.92 570.635 346.467 570.608 344.64C570.555 340.773 570.488 335.307 570.395 328.587C570.182 314.96 569.875 296.267 569.541 275.613C569.288 254.933 568.861 236.2 569.555 222.667C569.875 215.907 570.382 210.44 570.862 206.693C571.102 204.813 571.329 203.373 571.489 202.387C571.569 201.947 571.635 201.573 571.689 201.267C571.729 201.013 571.755 200.88 571.742 200.88L571.729 200.867Z" fill="#263238"/>
<g opacity="0.2">
<path d="M691.813 295.786C691.813 295.786 619.52 328.2 606.382 331.253C593.244 334.306 381.419 336.053 381.419 336.053L377.044 325.973L598.126 324.413C598.126 324.413 686.945 289.013 691.827 295.786H691.813Z" fill="black"/>
</g>
<path d="M733.977 268.453C733.977 268.453 734.11 268.333 734.363 268.08C734.604 267.827 734.99 267.467 735.484 267C736.497 266.08 738.031 264.787 740.139 263.307C742.26 261.853 744.954 260.253 748.209 258.653C751.49 257.133 755.304 255.587 759.653 254.32C764.014 253.12 768.843 251.96 774.111 251.347C776.726 250.92 779.473 250.8 782.288 250.547C783.688 250.427 785.129 250.48 786.569 250.44C788.023 250.44 789.49 250.333 790.971 250.48C802.842 250.973 815.86 254.253 828.105 260.933C833.32 263.773 838.255 267.04 842.47 270.76L842.817 271.067L843.07 270.693C849.966 260.533 856.382 250.933 861.944 242.12C867.506 233.307 872.214 225.28 876.029 218.52C879.857 211.76 882.832 206.293 884.859 202.52C885.846 200.667 886.62 199.213 887.166 198.173C887.407 197.707 887.593 197.333 887.753 197.04C887.887 196.787 887.94 196.653 887.927 196.64C887.927 196.64 887.833 196.76 887.687 197C887.513 197.28 887.313 197.64 887.046 198.093C886.46 199.12 885.646 200.547 884.619 202.36C882.471 206.133 879.404 211.52 875.576 218.213C871.694 224.92 866.946 232.907 861.344 241.68C855.755 250.453 849.313 260.027 842.403 270.173L843.004 270.107C838.695 266.28 833.76 263.013 828.478 260.147C816.127 253.413 802.989 250.133 791.011 249.667C789.517 249.52 788.037 249.64 786.569 249.64C785.115 249.693 783.662 249.64 782.248 249.773C779.42 250.04 776.659 250.173 774.031 250.627C768.736 251.28 763.881 252.48 759.506 253.733C755.144 255.053 751.316 256.64 748.022 258.213C744.767 259.867 742.073 261.533 739.966 263.027C737.885 264.56 736.364 265.907 735.377 266.88C734.897 267.373 734.537 267.76 734.31 268.04C734.083 268.307 733.977 268.467 733.99 268.467L733.977 268.453Z" fill="#263238"/>
<path d="M918.965 309.68C918.965 309.68 919.232 308.813 919.566 307.213C919.899 305.613 920.339 303.28 920.846 300.4C921.873 294.64 923.154 286.653 924.367 277.8C925.595 268.947 926.528 260.893 927.102 255.067C927.395 252.147 927.595 249.787 927.715 248.147C927.835 246.507 927.875 245.6 927.809 245.6C927.755 245.6 927.609 246.493 927.395 248.107C927.168 249.893 926.875 252.2 926.515 254.987C925.795 260.8 924.767 268.813 923.54 277.667C922.313 286.507 921.126 294.507 920.259 300.293C919.846 303.067 919.499 305.373 919.232 307.147C919.005 308.773 918.899 309.667 918.952 309.68H918.965Z" fill="#263238"/>
<path d="M853.846 315.493C853.846 315.493 854.126 315.546 854.673 315.56C855.314 315.56 856.1 315.56 857.047 315.573C859.115 315.573 862.103 315.506 865.797 315.373C873.173 315.106 883.364 314.493 894.581 313.306C905.799 312.12 915.909 310.586 923.192 309.306C926.833 308.666 929.781 308.106 931.795 307.666C932.729 307.466 933.502 307.293 934.129 307.16C934.663 307.026 934.93 306.946 934.93 306.92C934.93 306.893 934.636 306.92 934.103 306.986C933.476 307.08 932.689 307.2 931.742 307.333C929.581 307.68 926.66 308.133 923.099 308.693C915.803 309.826 905.692 311.253 894.488 312.44C883.284 313.626 873.12 314.346 865.757 314.76C862.169 314.96 859.208 315.12 857.034 315.24C856.087 315.306 855.3 315.346 854.66 315.386C854.113 315.426 853.833 315.466 853.833 315.493H853.846Z" fill="#263238"/>
<path d="M141.304 277.36C141.304 277.36 150.254 255.266 150 254.52C148.626 250.56 143.478 239.706 143.478 239.706C143.478 239.706 139.276 242.173 134.168 246.08C128.472 250.44 121.603 256.546 116.841 262.16C114.08 265.413 112.56 269.626 112.56 274.013V292.52L141.304 277.36Z" fill="#EBEBEB"/>
<path d="M336.016 175.013C335.843 175.186 337.844 177.733 340.165 180.973C342.499 184.213 344.273 186.946 344.473 186.813C344.66 186.693 343.179 183.72 340.818 180.44C338.471 177.146 336.163 174.853 336.016 175.013Z" fill="#263238"/>
<path d="M918.152 175.52C918.152 175.52 850.367 181.44 851.114 183.027C851.86 184.627 918.152 206.4 918.152 206.4V175.52Z" fill="#EBEBEB"/>
<path d="M918.365 207.28C918.591 207.28 918.778 200.2 918.778 191.467C918.778 182.733 918.591 175.653 918.365 175.653C918.138 175.653 917.951 182.733 917.951 191.467C917.951 200.2 918.138 207.28 918.365 207.28Z" fill="#263238"/>
<path d="M381.406 336.053C381.406 336.053 381.686 336.08 382.22 336.08C382.794 336.08 383.581 336.08 384.594 336.08C386.715 336.053 389.769 336.013 393.691 335.973C401.627 335.84 413.058 335.64 427.17 335.4C455.46 334.827 494.501 334.04 537.611 333.173C559.179 332.707 579.72 332.253 598.42 331.84C599.594 331.813 600.754 331.787 601.901 331.76C603.048 331.72 604.209 331.76 605.369 331.573C607.717 331.28 609.797 330.147 611.838 329.307C615.933 327.533 619.948 325.88 623.816 324.28C631.579 321.12 638.848 318.267 645.477 315.653C658.749 310.467 669.459 306.173 676.795 303.04C680.463 301.48 683.304 300.24 685.225 299.373C686.159 298.947 686.879 298.613 687.399 298.373C687.893 298.147 688.133 298 688.133 298C688.133 298 687.866 298.08 687.373 298.28C686.839 298.493 686.106 298.8 685.172 299.2C683.198 300.013 680.343 301.2 676.689 302.72C669.313 305.747 658.575 309.947 645.277 315.067C638.635 317.64 631.352 320.453 623.576 323.587C619.694 325.16 615.68 326.813 611.571 328.573C609.491 329.427 607.49 330.507 605.276 330.773C604.182 330.933 603.048 330.907 601.888 330.933C600.741 330.96 599.58 330.973 598.406 331C579.72 331.387 559.165 331.813 537.597 332.267C494.488 333.24 455.46 334.12 427.17 334.747C413.071 335.107 401.64 335.4 393.704 335.6C389.783 335.72 386.715 335.813 384.608 335.88C383.594 335.92 382.807 335.947 382.247 335.973C381.713 336 381.446 336.04 381.446 336.04L381.406 336.053Z" fill="#263238"/>
<path d="M399.306 169.986C402.214 176.36 405.415 185.786 404.828 195.573C404.441 201.946 399.52 206.933 393.531 206.973L365.654 207.2C361.546 207.226 357.824 204.146 357.291 199.813C357.117 198.4 357.277 196.866 357.998 195.293C360.892 189 363.306 190.186 363.306 190.186C363.306 190.186 371.749 171.613 384.581 164.573C389.956 161.613 396.652 164.2 399.293 170L399.306 169.986Z" fill="#6C6C6C"/>
<path d="M370.443 207.16C370.402 207.28 369.335 206.946 367.908 205.853C366.548 204.773 364.6 202.893 363.867 200C363.16 197.186 363.307 194.626 363.293 192.813C363.32 190.986 363.413 189.866 363.547 189.853C363.68 189.853 363.84 190.973 363.973 192.786C364.147 194.6 364.133 197.133 364.787 199.72C365.427 202.28 367.121 204.093 368.335 205.28C369.589 206.466 370.509 207.013 370.443 207.16Z" fill="#263238"/>
<path d="M368.334 186.253C368.227 186.2 368.707 184.68 369.881 182.4C371.055 180.12 372.989 177.146 375.63 174.346C378.284 171.546 381.085 169.493 383.233 168.266C385.38 167.026 386.807 166.533 386.861 166.64C387.007 166.933 381.485 169.546 376.31 175.066C371.095 180.533 368.601 186.413 368.321 186.24L368.334 186.253Z" fill="white"/>
<path d="M583.481 109.867C583.481 109.867 583.375 110.173 583.241 110.773C583.108 111.467 582.935 112.333 582.721 113.4C582.294 115.68 581.707 118.987 581.014 123.08C579.64 131.267 577.826 142.6 576.079 155.147C574.331 167.707 572.984 179.12 572.304 187.413C572.117 189.48 571.997 191.36 571.904 193.013C571.81 194.667 571.717 196.08 571.717 197.253C571.717 198.333 571.69 199.227 571.69 199.933C571.69 200.547 571.704 200.867 571.73 200.867C571.757 200.867 571.797 200.547 571.85 199.933C571.904 199.227 571.957 198.347 572.037 197.267C572.091 196.107 572.224 194.693 572.371 193.053C572.504 191.413 572.664 189.533 572.891 187.48C573.718 179.213 575.145 167.84 576.892 155.28C578.64 142.733 580.36 131.4 581.587 123.187C582.188 119.173 582.668 115.88 583.028 113.453C583.175 112.387 583.295 111.507 583.388 110.8C583.468 110.187 583.495 109.867 583.455 109.867H583.481Z" fill="#455A64"/>
<g opacity="0.2">
<path d="M918.15 206.4L884.631 185.186L883.658 178.733C870.64 180.106 854.847 181.426 851.112 183.013C851.112 184.093 892.341 198.026 918.15 206.386V206.4Z" fill="black"/>
</g>
<g opacity="0.2">
<path d="M149.987 254.533L132.074 270.76L112.56 274.027V292.533L141.304 277.373C144.838 268.573 148.066 260.347 150 254.533H149.987Z" fill="black"/>
</g>
<path d="M150.188 254.533C150.188 254.533 150.348 254.493 150.641 254.36C150.975 254.213 151.401 254.026 151.935 253.786C153.122 253.24 154.789 252.493 156.897 251.533C161.258 249.546 167.487 246.706 175.144 243.2C182.866 239.72 192.056 235.586 202.367 231.253C207.529 229.146 212.958 226.853 218.706 225.093C221.601 224.32 224.642 223.84 227.696 223.28C230.777 222.76 233.885 222.24 237.046 221.706C262.336 217.586 285.264 214.107 301.857 211.52C310.113 210.227 316.796 209.173 321.504 208.44C323.772 208.066 325.559 207.773 326.84 207.56C327.413 207.453 327.867 207.373 328.227 207.307C328.534 207.24 328.694 207.213 328.694 207.187C328.694 207.173 328.534 207.186 328.213 207.213C327.853 207.253 327.4 207.306 326.813 207.373C325.532 207.546 323.732 207.786 321.451 208.08C316.742 208.746 310.033 209.706 301.777 210.88C285.171 213.32 262.229 216.693 236.926 220.813C233.765 221.346 230.644 221.88 227.563 222.4C224.495 222.96 221.454 223.44 218.493 224.24C212.651 226.04 207.249 228.346 202.073 230.48C191.776 234.866 182.6 239.053 174.903 242.613C167.221 246.173 161.018 249.133 156.75 251.2C154.656 252.226 153.015 253.026 151.842 253.613C151.321 253.88 150.908 254.093 150.574 254.267C150.294 254.413 150.148 254.507 150.161 254.52L150.188 254.533Z" fill="#263238"/>
<path d="M851.085 331.44C851.592 368.787 823.609 399.507 788.582 400.053C753.556 400.587 724.759 370.747 724.252 333.4C723.745 296.053 751.729 265.333 786.755 264.787C821.781 264.253 850.579 294.093 851.085 331.44Z" fill="#263238"/>
<path d="M851.085 331.267C851.085 331.267 851.085 331.387 851.085 331.44C851.592 368.787 823.609 399.507 788.582 400.053C753.556 400.587 724.759 370.747 724.252 333.4C724.252 333.347 724.252 333.28 724.252 333.227L851.072 331.28L851.085 331.267Z" fill="#263238"/>
<path d="M832.2 331.733C832.56 357.96 812.912 379.52 788.317 379.906C763.721 380.28 743.5 359.333 743.153 333.106C742.793 306.88 762.44 285.32 787.036 284.933C811.619 284.56 831.839 305.506 832.2 331.733Z" fill="#FAFAFA"/>
<path d="M787.036 284.933C811.619 284.56 831.839 305.506 832.2 331.733L743.153 333.106C742.793 306.88 762.44 285.32 787.036 284.933Z" fill="#E0E0E0"/>
<path d="M814.791 332C815.005 347.973 803.04 361.107 788.062 361.347C773.083 361.573 760.758 348.813 760.545 332.84C760.331 316.867 772.296 303.733 787.275 303.493C802.254 303.267 814.565 316.027 814.791 332Z" fill="#263238"/>
<path d="M262.801 400.066C297.829 400.066 326.225 369.783 326.225 332.427C326.225 295.07 297.829 264.786 262.801 264.786C227.774 264.786 199.378 295.07 199.378 332.427C199.378 369.783 227.774 400.066 262.801 400.066Z" fill="#263238"/>
<path d="M326.211 331.266C326.211 331.266 326.211 331.386 326.211 331.44C326.718 368.786 298.735 399.506 263.708 400.053C228.682 400.586 199.885 370.746 199.378 333.4C199.378 333.346 199.378 333.28 199.378 333.226L326.198 331.28L326.211 331.266Z" fill="#263238"/>
<path d="M307.324 331.733C307.684 357.96 288.036 379.52 263.441 379.907C238.845 380.28 218.624 359.333 218.277 333.107C217.917 306.88 237.564 285.32 262.16 284.933C286.743 284.56 306.963 305.507 307.324 331.733Z" fill="#FAFAFA"/>
<path d="M262.16 284.933C286.743 284.56 306.963 305.507 307.324 331.733L218.277 333.107C217.917 306.88 237.564 285.32 262.16 284.933Z" fill="#E0E0E0"/>
<path d="M289.918 332C290.132 347.973 278.167 361.106 263.189 361.346C248.21 361.573 235.885 348.813 235.672 332.84C235.458 316.866 247.423 303.733 262.402 303.493C277.38 303.266 289.692 316.026 289.918 332Z" fill="#263238"/>
<path d="M502.318 180.16C502.424 179.947 490.673 173.387 476.081 165.52C461.489 157.653 449.565 151.453 449.471 151.667C449.365 151.88 461.116 158.44 475.708 166.307C490.3 174.173 502.211 180.373 502.318 180.16Z" fill="white"/>
<path d="M518.684 178.44C518.791 178.227 507.626 171.747 493.768 163.973C479.896 156.2 468.572 150.067 468.465 150.28C468.359 150.493 479.509 156.973 493.381 164.747C507.253 172.52 518.577 178.653 518.684 178.44Z" fill="white"/>
<path d="M112.547 292.533C112.547 292.533 112.653 291.587 112.707 289.867C112.747 288 112.787 285.547 112.84 282.6C112.907 279.547 112.84 275.84 113.014 271.867C113.334 267.907 116.095 264.293 118.789 260.707C121.523 257.12 124.818 254.333 127.766 251.813C130.753 249.32 133.528 247.187 135.862 245.413C138.13 243.733 140.01 242.333 141.451 241.267C142.771 240.293 143.491 239.747 143.465 239.693C143.438 239.64 142.651 240.093 141.277 240.987C139.903 241.88 137.929 243.2 135.542 244.907C133.154 246.613 130.34 248.707 127.299 251.173C124.311 253.68 120.963 256.467 118.149 260.147C116.748 261.96 115.414 263.773 114.321 265.693C113.214 267.573 112.4 269.693 112.24 271.787C112.107 275.907 112.24 279.507 112.24 282.587C112.293 285.533 112.333 287.973 112.36 289.853C112.413 291.573 112.467 292.52 112.52 292.52L112.547 292.533Z" fill="#263238"/>
<path d="M101.677 94.3743C100.13 94.5743 98.5029 93.8809 97.6225 92.6543C98.6629 92.8009 99.7967 92.9476 100.73 92.4943C101.677 92.0409 102.198 90.7076 101.464 89.9876C100.89 89.4276 99.9434 89.5209 99.1164 89.4676C97.1957 89.3343 95.4351 88.0409 94.7948 86.3076C94.1012 84.4009 94.7415 82.3209 94.9816 80.3076C95.7018 74.4809 92.8074 68.3743 87.7389 65.0543L74.5607 57.7876C69.7856 63.6276 68.2917 71.4943 69.2787 78.8409C70.2658 86.1876 73.5336 93.0943 77.4551 99.4809C78.6022 101.348 79.816 103.188 81.4299 104.708C83.0438 106.214 85.0979 107.388 87.3521 107.601C87.939 105.841 87.5655 103.801 86.3784 102.334C89.9397 102.548 93.5677 101.308 96.1687 98.9876C95.2216 98.2943 94.288 97.6143 93.341 96.9209C96.3154 97.3076 99.4499 96.3476 101.637 94.3876L101.677 94.3743Z" fill="#263238"/>
<path d="M54.7802 74.2144C55.0069 68.961 54.6068 64.2144 59.9021 62.7744L76.4148 58.2677C83.5775 57.3344 88.6327 65.641 89.3129 72.521C90.0599 80.161 90.6334 88.2277 89.8598 93.961C88.3259 105.494 79.1492 107.228 79.1492 107.228C79.1492 107.214 78.0421 116.974 78.1355 120.334L71.1462 137.748L56.4875 116.081L54.7668 74.3877C54.34 74.3877 54.7668 74.4944 54.7668 74.2277L54.7802 74.2144Z" fill="#FFBF9D"/>
<path d="M86.9928 82.0278C87.0461 82.8012 86.4059 83.4945 85.5523 83.5612C84.7119 83.6278 83.9783 83.0545 83.925 82.2812C83.8716 81.5078 84.5119 80.8145 85.3655 80.7478C86.2192 80.6812 86.9528 81.2545 87.0061 82.0278H86.9928Z" fill="#263238"/>
<path d="M87.6464 77.0542C87.4596 77.2542 86.2725 76.4542 84.6052 76.5075C82.9513 76.5342 81.7509 77.3875 81.5641 77.2009C81.4707 77.1209 81.6575 76.7609 82.1777 76.3875C82.6845 76.0009 83.5649 75.6275 84.6052 75.6009C85.6456 75.5742 86.5259 75.9075 87.0328 76.2675C87.553 76.6275 87.7397 76.9742 87.6464 77.0542Z" fill="#263238"/>
<path d="M73.3072 82.0277C73.3606 82.801 72.7203 83.4944 71.8667 83.561C71.0264 83.6277 70.2928 83.0544 70.2394 82.281C70.1861 81.5077 70.8263 80.8144 71.68 80.7477C72.5336 80.681 73.2539 81.2544 73.3206 82.0277H73.3072Z" fill="#263238"/>
<path d="M71.8798 77.4944C71.693 77.6944 70.4926 76.8944 68.8386 76.9477C67.1847 76.9744 65.9843 77.8277 65.7975 77.641C65.7041 77.561 65.8909 77.201 66.4111 76.8277C66.9179 76.441 67.7983 76.0677 68.8386 76.041C69.879 76.0144 70.7593 76.3477 71.2662 76.7077C71.7864 77.0677 71.9731 77.4144 71.8798 77.4944Z" fill="#263238"/>
<path d="M77.4421 89.7875C77.4421 89.6942 78.4558 89.4942 80.1231 89.2409C80.5499 89.1876 80.9501 89.0942 81.0034 88.8142C81.0968 88.5209 80.8967 88.0942 80.6833 87.6276C80.2565 86.6542 79.803 85.6409 79.3361 84.5876C77.4554 80.2542 76.0816 76.6809 76.255 76.6142C76.4417 76.5476 78.109 80.0009 79.9897 84.3342C80.4432 85.4009 80.8834 86.4276 81.2835 87.4009C81.4569 87.8542 81.7504 88.3742 81.5503 88.9876C81.4436 89.2942 81.1368 89.5209 80.87 89.6009C80.6033 89.6942 80.3632 89.6942 80.1498 89.7209C78.4691 89.8542 77.4288 89.8942 77.4154 89.8009L77.4421 89.7875Z" fill="#263238"/>
<path d="M63.0769 103.574C63.0769 103.574 66.7983 111.988 78.8027 110.561L79.1495 107.228C79.1495 107.228 71.2399 107.934 63.0769 103.574Z" fill="#5E5E5E"/>
<path d="M71.1865 72.3743C71.0398 72.8143 69.3725 72.6543 67.4384 72.9343C65.491 73.1743 63.9438 73.7743 63.6637 73.3876C63.5437 73.2009 63.7971 72.7876 64.424 72.3609C65.0375 71.9209 66.0379 71.4943 67.1983 71.3476C68.3588 71.1876 69.4392 71.3476 70.1594 71.5876C70.8797 71.8409 71.2532 72.1743 71.1865 72.3743Z" fill="#263238"/>
<path d="M86.9525 72.2276C86.6724 72.6009 85.5119 72.2543 84.1381 72.2809C82.7642 72.2543 81.6038 72.6009 81.3237 72.2276C81.2037 72.0543 81.3771 71.6809 81.8706 71.3209C82.3641 70.9609 83.1911 70.6676 84.1381 70.6676C85.0851 70.6676 85.9121 70.9743 86.4056 71.3209C86.8991 71.6809 87.0725 72.0409 86.9525 72.2276Z" fill="#263238"/>
<path d="M71.2133 92.8942C71.4 91.9476 72.4004 91.2009 73.4008 91.2676C74.1477 91.3209 74.828 91.7742 75.1747 92.4009C75.5349 93.0276 75.5616 93.7876 75.3348 94.4676L75.3081 94.6142C74.6546 95.3476 73.4808 95.6276 72.5471 95.2542C71.6134 94.8809 71.0132 93.8409 71.2133 92.8942Z" fill="#5E5E5E"/>
<path d="M76.5082 94.6011C76.5082 94.3611 74.8276 94.4811 73.5204 93.2011C72.2133 91.9211 72.2666 90.2011 72.0265 90.2144C71.9198 90.2011 71.7331 90.6144 71.7731 91.3344C71.7998 92.0411 72.1332 93.0544 72.9202 93.8411C73.7205 94.6278 74.7209 94.9078 75.4145 94.9078C76.1214 94.9078 76.5215 94.7077 76.5082 94.6011Z" fill="#263238"/>
<path d="M56.502 55.5743C58.356 52.761 62.7443 49.8143 66.1855 49.241C70.107 48.5877 72.4678 49.241 75.0421 51.4676C75.0421 51.4676 77.0429 53.3076 78.9236 53.6676C80.8043 54.0143 82.3782 53.721 84.619 54.8143C87.6735 56.3076 89.0206 60.2143 90.4345 63.201C92.1951 66.921 94.7027 70.3343 95.8632 74.2676C97.0102 78.201 96.3967 83.0143 92.9287 85.401C93.529 82.3876 94.0225 79.081 92.7153 76.361C92.862 77.4543 92.8354 78.5477 92.5019 79.6143C91.8483 77.841 91.1681 76.0276 89.8209 74.6543C88.5538 73.361 86.8065 72.601 85.4993 71.3477C83.5786 69.5077 82.6983 66.7076 80.3641 65.3743C77.9365 63.9876 74.8687 64.681 72.041 64.6943C67.2926 64.721 62.5842 62.5476 59.6364 58.9876L60.3434 58.9343C59.0762 58.1076 57.7824 57.0143 56.502 55.5743Z" fill="#263238"/>
<path d="M38.8013 83.6676C39.8817 80.2943 41.7757 77.201 42.9628 73.8543C44.1233 70.601 44.5901 67.121 46.124 64.001C48.1914 59.8143 52.0462 54.3877 58.0484 54.6943L58.4619 55.041C60.5026 54.8143 62.5967 55.0277 64.5175 55.7343L64.6108 60.201L65.7579 61.1743C65.2777 62.0677 64.8242 62.921 64.3707 63.761C63.9839 65.441 63.5304 67.1077 62.8368 68.681C62.5567 69.321 62.5834 71.5743 62.6101 74.0677C62.6634 77.921 59.8224 82.161 55.941 82.7076C55.941 82.7076 55.7142 97.9743 56.2344 110.721L51.3793 103.814C48.8717 102.441 46.8309 100.334 45.5771 97.8543C45.4037 98.681 45.2303 99.4943 45.0569 100.308C42.6961 97.9343 41.2422 94.761 41.0154 91.4943C40.5619 92.281 40.1218 93.0676 39.6683 93.8543C37.5342 90.961 37.6809 87.041 38.7613 83.6676H38.8013Z" fill="#263238"/>
<path d="M56.4744 82.801C56.3143 82.4144 48.8316 80.0677 48.9516 87.5877C49.0717 94.8944 56.7545 93.241 56.7545 93.0277C56.7545 92.8144 56.4611 82.801 56.4611 82.801H56.4744Z" fill="#FFBF9D"/>
<path d="M54.3413 90.3078C54.3413 90.3078 54.2079 90.4011 53.9811 90.5078C53.7677 90.6145 53.3809 90.6811 52.9808 90.5478C52.1671 90.2811 51.4602 89.0678 51.3935 87.7478C51.3668 87.0811 51.5002 86.4545 51.727 85.9211C51.9537 85.3878 52.3005 85.0011 52.714 84.9211C53.1141 84.8278 53.4076 85.0545 53.5009 85.2545C53.6076 85.4545 53.5676 85.6011 53.6076 85.6145C53.6343 85.6278 53.7677 85.4944 53.701 85.1878C53.661 85.0411 53.5676 84.8678 53.3942 84.7345C53.2075 84.6011 52.9407 84.5211 52.6473 84.5611C52.0604 84.6144 51.5402 85.1345 51.2735 85.7211C50.98 86.3078 50.82 87.0145 50.8466 87.7611C50.9267 89.2278 51.7403 90.5878 52.8474 90.8811C53.3942 91.0011 53.8344 90.8411 54.0611 90.6678C54.2879 90.4811 54.3279 90.3211 54.3012 90.3078H54.3413Z" fill="#5E5E5E"/>
<path d="M51.8072 92.7343C51.9672 92.0276 52.7675 91.5076 53.5145 91.6276L53.8746 91.721C54.5682 92.001 54.955 92.841 54.7016 93.521C54.4482 94.201 53.5945 94.6143 52.8609 94.4276C52.1273 94.2276 51.6471 93.441 51.8072 92.7343Z" fill="#455A64"/>
<path d="M65.1712 63.0009C65.0245 63.0542 64.3175 60.5875 62.1834 58.2809C60.0893 55.9475 57.6084 54.9475 57.6884 54.8142C57.7151 54.7609 58.3553 54.9342 59.3023 55.4275C60.2494 55.9209 61.4765 56.7742 62.5569 57.9609C63.6373 59.1475 64.3575 60.4275 64.7443 61.3875C65.1312 62.3475 65.2245 62.9875 65.1712 63.0009Z" fill="#455A64"/>
<path d="M130.729 80.601L126.874 91.441L125.527 93.2543C125.527 93.2543 124.353 99.281 124.273 100.574C124.193 101.868 125.954 108.601 125.954 108.601L122.032 114.601L132.89 118.574C132.89 118.574 135.837 113.094 136.651 112.481C137.465 111.854 138.065 110.081 138.252 108.881C138.438 107.681 140.066 100.561 140.066 100.561C140.066 100.561 144.881 92.7077 142.867 92.3077C142.413 92.2143 141.359 92.3343 141.359 92.3343C141.359 92.3343 138.465 97.4943 137.691 97.601L136.598 96.9877C136.598 96.9877 138.865 89.0944 138.972 87.6144C139.079 86.1344 138.772 85.0943 137.571 84.921C137.571 84.921 136.678 85.2677 136.598 85.641C136.518 86.0143 134.263 94.8277 133.743 94.6677C133.223 94.5077 133.476 93.7077 133.476 93.7077C133.476 93.7077 136.478 83.0143 136.344 82.401C136.211 81.7877 135.664 80.8277 134.544 80.9343L132.236 86.801C132.236 86.801 133.303 81.8677 132.476 80.9743C131.649 80.0943 130.715 80.561 130.715 80.561L130.729 80.601Z" fill="#FFBF9D"/>
<path d="M133.022 104.601C132.929 104.601 132.995 103.681 132.622 102.201C132.248 100.761 131.261 98.7076 129.247 97.2143L129.101 97.1076L129.141 96.9476C129.327 96.1609 129.527 95.3343 129.727 94.4943V94.4409L129.781 94.3876C129.968 94.1343 130.168 93.8409 130.341 93.5343C130.955 92.5209 131.408 91.4409 131.595 90.4143C131.675 89.8943 131.701 89.3876 131.568 88.9476C131.461 88.5076 131.101 88.2009 130.741 88.1476L130.928 88.0809C129.634 89.2676 128.54 90.2409 127.767 90.9076C126.993 91.5743 126.54 91.9476 126.5 91.9076C126.46 91.8676 126.86 91.4409 127.567 90.7209C128.274 90.0009 129.327 88.9743 130.581 87.7476L130.661 87.6676H130.768C131.408 87.7476 131.888 88.2409 132.062 88.7876C132.235 89.3343 132.208 89.9209 132.128 90.4809C131.942 91.6143 131.475 92.7343 130.835 93.8009C130.648 94.1209 130.448 94.4143 130.234 94.7076L130.288 94.6143C130.074 95.4543 129.874 96.2809 129.674 97.0676L129.567 96.8009C131.728 98.4543 132.662 100.628 132.955 102.148C133.102 102.921 133.129 103.548 133.102 103.961C133.075 104.388 133.049 104.614 133.009 104.614L133.022 104.601Z" fill="#5E5E5E"/>
<path d="M133.022 95.8279C133.076 95.6946 134.716 96.1479 136.477 97.2679C138.238 98.3746 139.318 99.6413 139.211 99.7346C139.091 99.8413 137.864 98.7879 136.157 97.7213C134.463 96.6413 132.956 95.9746 133.022 95.8279Z" fill="#5E5E5E"/>
<path d="M79.1492 116.894C79.4693 116.894 110.054 134.134 110.054 134.134L122.125 107.588L139.451 112.961C139.451 112.961 128.301 145.134 125.886 149.174C123.952 152.414 116.443 157.694 108.6 155.481C100.757 153.268 87.2055 149.654 87.2055 149.654L79.1492 116.881V116.894Z" fill="#00AF00"/>
<path d="M37.2013 366.614L36.9346 396.374L75.7356 396.881C75.5622 393.334 55.5948 385.974 55.5948 385.974L56.5818 366.908L37.2013 366.601V366.614Z" fill="#455A64"/>
<path d="M43.6171 384.228C42.8568 384.414 42.3366 385.214 42.4967 385.934C42.6567 386.654 43.5104 387.188 44.2706 387.014C45.0309 386.841 45.6978 385.894 45.4444 385.201C45.191 384.494 44.1639 383.934 43.4704 384.281" fill="white"/>
<path d="M36.9346 396.441V393.254L74.2417 395.108C74.2417 395.108 75.949 395.854 75.7356 397.014L36.9479 396.441H36.9346Z" fill="#263238"/>
<path d="M56.2216 385.801C56.2216 385.987 55.2612 386.054 54.3276 386.614C53.3672 387.161 52.8737 387.934 52.7003 387.867C52.5269 387.827 52.8204 386.747 53.9808 386.081C55.1279 385.401 56.2616 385.627 56.2216 385.801Z" fill="#263238"/>
<path d="M60.2636 387.468C60.3036 387.641 59.4766 387.934 58.823 388.694C58.1428 389.428 57.9694 390.254 57.7827 390.241C57.6093 390.268 57.4892 389.201 58.3162 388.281C59.1432 387.348 60.2502 387.294 60.2636 387.454V387.468Z" fill="#263238"/>
<path d="M62.5169 392.148C62.3435 392.188 62.0901 391.281 62.5969 390.294C63.0904 389.308 63.9841 388.921 64.0641 389.081C64.1708 389.228 63.5839 389.761 63.1838 390.574C62.7703 391.374 62.7036 392.134 62.5169 392.161V392.148Z" fill="#263238"/>
<path d="M55.9407 381.441C55.8607 381.601 54.9937 381.348 53.9266 381.401C52.8596 381.441 52.0193 381.761 51.9126 381.614C51.8059 381.481 52.6328 380.828 53.8866 380.774C55.1538 380.721 56.0341 381.308 55.9407 381.441Z" fill="#263238"/>
<path d="M19.5015 342.988L0.0410156 366.254L30.2388 389.508C32.3863 386.614 21.4356 369.054 21.4356 369.054L34.5471 354.641L19.5015 342.988Z" fill="#455A64"/>
<path d="M13.1653 360.628C12.4584 360.334 11.5247 360.641 11.1779 361.321C10.8311 361.988 11.1779 362.894 11.8715 363.214C12.5784 363.521 13.7122 363.174 13.979 362.481C14.2457 361.774 13.7922 360.734 13.0319 360.601" fill="white"/>
<path d="M0 366.308L2.06743 363.801L30.2112 387.214C30.2112 387.214 31.0781 388.814 30.1578 389.601L0 366.308Z" fill="#263238"/>
<path d="M22.062 369.294C21.942 369.428 21.1417 368.921 20.0346 368.828C18.9275 368.694 18.0339 369.014 17.9538 368.854C17.8471 368.721 18.7675 368.054 20.1146 368.201C21.4485 368.334 22.2087 369.201 22.062 369.294Z" fill="#263238"/>
<path d="M24.169 372.988C24.0889 373.148 23.2486 372.894 22.2482 373.108C21.2345 373.294 20.5676 373.841 20.4209 373.721C20.2608 373.641 20.8611 372.734 22.1149 372.494C23.3687 372.241 24.289 372.854 24.169 372.988Z" fill="#263238"/>
<path d="M22.9157 377.988C22.7556 377.921 23.1425 377.054 24.1695 376.574C25.1965 376.094 26.1436 376.321 26.1169 376.481C26.1036 376.654 25.3033 376.734 24.4629 377.134C23.6093 377.521 23.0758 378.081 22.9157 377.988Z" fill="#263238"/>
<path d="M24.6617 365.694C24.4883 365.774 23.9814 365.054 23.1011 364.467C22.2341 363.867 21.3538 363.627 21.3805 363.454C21.3805 363.281 22.4609 363.254 23.4746 363.961C24.5016 364.654 24.8217 365.641 24.6483 365.694H24.6617Z" fill="#263238"/>
<path d="M93.808 242.628C94.3682 245.628 95.2486 271.188 95.8088 284.668C96.369 298.148 94.9684 304.788 93.3545 307.801C91.7406 310.814 24.6625 365.681 24.6625 365.681L6.12231 352.574C6.12231 352.574 33.3991 313.268 43.096 306.228C52.7929 299.188 71.3064 292.708 71.3064 292.708L66.0378 218.881L91.3271 217.561L93.808 242.614V242.628Z" fill="#263238"/>
<path d="M96.609 214.521C96.609 216.268 99.5568 260.254 84.4979 292.068C84.4979 292.068 79.2826 302.014 78.3623 306.374C77.4419 310.734 57.9147 382.868 57.9147 382.868L35.3864 382.081C35.3864 382.081 31.7851 345.934 35.4264 325.014C39.0811 304.094 45.7502 306.534 45.7502 293.028C45.7502 279.521 42.389 251.508 42.389 251.508C42.389 251.508 37.4672 243.854 35.7866 229.028C34.4261 216.974 40.3616 204.068 40.3616 204.068L46.2437 194.134L95.9421 191.654L96.609 214.521Z" fill="#263238"/>
<path d="M96.6084 214.521C96.6084 214.521 96.6084 214.014 96.6084 213.028C96.5818 212.028 96.5551 210.561 96.5151 208.628C96.4084 204.748 96.2616 199.028 96.0749 191.654V191.534H95.9549C83.7504 192.121 66.7841 192.948 46.2565 193.948H46.1498L46.0964 194.041C44.2691 197.121 42.2684 200.494 40.2009 203.961V203.974C38.7204 207.388 37.52 211.028 36.6663 214.854C35.786 218.668 35.2925 222.694 35.4258 226.814C35.7059 230.934 36.3995 235.094 37.4533 239.281C38.547 243.454 39.9342 247.654 42.215 251.614L42.175 251.521C43.0286 258.854 43.8156 266.441 44.4825 274.254C44.816 278.161 45.1094 282.121 45.3095 286.148C45.4162 288.161 45.4829 290.174 45.5096 292.214C45.5496 293.228 45.4695 294.241 45.4429 295.254C45.3362 296.268 45.2828 297.281 45.0427 298.281C44.6693 300.294 43.909 302.214 42.9086 304.041C41.9082 305.881 40.7878 307.694 39.8541 309.614C37.9468 313.441 36.7063 317.588 35.8126 321.788C34.012 330.228 33.6519 339.014 33.5585 347.854C33.5185 359.534 34.132 371.001 35.1457 382.094L35.1724 382.321H35.4125C43.0953 382.601 50.6048 382.854 57.9408 383.108H58.1542L58.2076 382.921C64.73 358.761 70.8256 336.174 76.1876 315.868C76.8411 313.321 77.4947 310.814 78.1349 308.348C78.4684 307.108 78.6818 305.868 79.082 304.694C79.4688 303.508 79.9356 302.348 80.4024 301.214C81.3628 298.934 82.4032 296.734 83.4702 294.574C83.737 294.041 84.0038 293.508 84.2705 292.974C84.5506 292.454 84.8174 291.908 85.0308 291.361C85.4977 290.281 85.9512 289.201 86.418 288.134C89.966 279.561 92.0601 271.241 93.5273 263.654C96.4084 248.428 96.7952 236.041 96.9285 227.588C96.9819 219.121 96.6218 214.521 96.6218 214.521C96.6218 214.521 96.6218 214.814 96.6218 215.374C96.6351 215.948 96.6618 216.788 96.6885 217.881C96.7551 220.094 96.7818 223.361 96.7285 227.588C96.5417 236.028 96.1016 248.414 93.1805 263.601C91.6866 271.174 89.5792 279.468 86.0312 288.001C85.5777 289.054 85.1109 290.134 84.644 291.214C84.4306 291.761 84.1638 292.281 83.8837 292.814C83.617 293.348 83.3502 293.881 83.0701 294.414C82.003 296.574 80.9493 298.788 79.9756 301.068C79.4954 302.214 79.0286 303.374 78.6285 304.588C78.215 305.801 77.9882 307.054 77.6681 308.268C77.0279 310.734 76.3743 313.241 75.7074 315.774C70.2387 336.054 64.1564 358.641 57.6474 382.814L57.9141 382.628C50.5781 382.374 43.0687 382.108 35.3858 381.841L35.6526 382.081C34.6522 371.014 34.0387 359.548 34.0787 347.894C34.172 339.068 34.5455 330.321 36.3195 321.934C37.2132 317.748 38.4403 313.654 40.321 309.868C41.2413 307.974 42.3617 306.174 43.3621 304.308C44.3758 302.454 45.1628 300.454 45.5362 298.401C45.7763 297.374 45.8297 296.334 45.9364 295.308C45.9497 294.281 46.0298 293.241 46.0031 292.228C45.9897 290.188 45.9097 288.161 45.803 286.148C45.6029 282.121 45.2962 278.148 44.9627 274.241C44.2824 266.414 43.4955 258.828 42.6285 251.494V251.454L42.5885 251.401C40.361 247.548 38.9471 243.334 37.8667 239.201C36.8264 235.054 36.1194 230.894 35.8393 226.828C35.7059 222.748 36.1728 218.761 37.0531 214.974C37.9068 211.174 39.0939 207.548 40.5477 204.161C42.6018 200.708 44.5892 197.321 46.4166 194.241L46.2565 194.334C66.7707 193.281 83.737 192.401 95.9415 191.774L95.8215 191.668C96.0616 199.041 96.2483 204.761 96.3683 208.641C96.435 210.574 96.4884 212.041 96.5284 213.041C96.5684 214.028 96.6084 214.534 96.6084 214.534V214.521Z" fill="#455A64"/>
<path d="M78.2956 116.254C78.2956 116.254 102.118 139.628 102.718 149.948C103.091 156.428 97.0092 171.268 95.3953 180.628C95.1151 182.241 96.7157 186.561 96.7558 189.281C96.8091 193.174 87.499 194.308 83.1241 194.134C75.3612 193.814 69.0922 189.761 60.4357 189.374L44.243 187.374L49.9118 172.321C49.9118 172.321 48.6447 158.628 48.2445 153.388C47.1908 139.814 45.857 136.134 47.1641 128.841C48.4846 121.548 56.5276 112.774 56.5276 112.774C70.306 117.334 78.1756 120.134 78.2956 116.241V116.254Z" fill="white"/>
<path d="M87.0597 170.748C87.0597 170.748 87.3398 170.588 87.7933 170.228C88.2468 169.868 88.847 169.308 89.5673 168.574C90.9945 167.108 92.7284 164.868 94.129 162.108C95.5161 159.348 96.2497 156.641 96.5565 154.668C96.7166 153.681 96.7966 152.868 96.7966 152.321C96.8099 151.761 96.7966 151.454 96.7699 151.454C96.6766 151.454 96.5698 152.668 96.1564 154.601C95.7562 156.534 94.9693 159.161 93.6088 161.881C92.2483 164.588 90.581 166.828 89.2605 168.334C87.94 169.854 87.0063 170.694 87.0597 170.761V170.748Z" fill="#263238"/>
<path d="M83.911 183.628C83.911 177.001 81.2434 163.174 78.4423 150.828C75.1611 136.374 69.8925 123.934 58.8751 113.548L55.5005 112.068C49.7117 115.454 42.0422 119.001 41.7488 130.761C41.6421 135.148 48.4046 175.588 48.4046 175.588C48.4046 175.588 26.3564 220.481 31.3449 228.908C31.7184 229.534 78.0022 237.628 82.8173 234.748C87.6324 231.868 83.911 188.188 83.911 183.614V183.628Z" fill="#00AF00"/>
<path d="M72.9073 184.334H36.5605C32.229 184.334 28.7177 187.844 28.7177 192.174V209.734C28.7177 214.064 32.229 217.574 36.5605 217.574H72.9073C77.2388 217.574 80.7502 214.064 80.7502 209.734V192.174C80.7502 187.844 77.2388 184.334 72.9073 184.334Z" fill="#455A64"/>
<path d="M34.4669 188.548L33.1464 188.401L39.4954 129.134C39.9489 124.854 42.2164 121.014 45.6843 118.614C48.9922 116.321 53.1137 115.574 56.9818 116.574L57.3953 116.681C67.0922 119.334 69.7465 132.708 70.8936 153.414C71.814 170.081 74.695 186.308 74.7351 186.468L73.4279 186.708C73.4012 186.548 70.5068 170.241 69.5732 153.494C68.4527 133.374 65.9718 120.414 57.0619 117.974L56.6617 117.868C53.1271 116.948 49.4991 117.601 46.4579 119.708C43.2968 121.894 41.256 125.374 40.8292 129.281L34.4802 188.548H34.4669Z" fill="#455A64"/>
<path d="M49.6716 118.574C49.6716 118.574 49.9784 118.414 50.592 118.281C51.1922 118.148 52.0859 118.028 53.2063 118.028C55.4071 118.014 58.5816 118.614 61.4093 120.574C64.2637 122.521 65.891 125.348 66.5712 127.441C66.918 128.494 67.0647 129.388 67.1047 130.014C67.1447 130.628 67.1181 130.974 67.0781 130.974C66.958 130.988 66.8913 129.614 66.1044 127.614C65.3441 125.628 63.7168 123.001 61.0091 121.148C58.3148 119.281 55.3137 118.628 53.1796 118.521C51.0321 118.401 49.685 118.708 49.6716 118.588V118.574Z" fill="#263238"/>
<path d="M65.3312 177.268C65.3312 177.268 67.1452 140.961 66.3849 131.788L42.7895 124.494C40.4553 130.374 37.7343 169.001 41.6291 182.188C45.6573 195.814 70.0396 229.374 70.0396 229.374L85.512 221.241L65.3178 177.268H65.3312Z" fill="#00AF00"/>
<path d="M67.3448 135.508C67.3448 135.508 67.3582 135.761 67.3448 136.254C67.3315 136.788 67.3048 137.508 67.2781 138.441C67.1981 140.401 67.0914 143.214 66.9447 146.814C66.6246 154.108 66.1577 164.534 65.5842 177.281L65.5575 177.161C71.2929 189.614 78.2288 204.641 85.8183 221.094L85.9517 221.388L85.6583 221.534C80.6964 224.148 75.4945 226.881 70.1859 229.681L69.9191 229.828L69.7457 229.588C69.2255 228.868 68.6786 228.094 68.1184 227.308C63.7035 221.081 59.5153 214.921 55.6072 208.868C51.7257 202.801 48.071 196.894 45.0566 190.988C43.5494 188.041 42.1889 185.081 41.2685 182.054C41.0818 181.281 40.9084 180.521 40.735 179.761C40.5749 179.001 40.4816 178.241 40.3615 177.481C40.0948 175.974 40.0147 174.481 39.8413 173.014C39.3612 167.134 39.3612 161.654 39.4545 156.654C39.6679 146.654 40.3615 138.574 41.0685 133.028C41.4153 130.254 41.7887 128.108 42.1222 126.668C42.2556 125.948 42.4556 125.414 42.5757 125.054C42.6957 124.694 42.7624 124.521 42.7758 124.521C42.8291 124.534 42.5357 125.254 42.2556 126.708C41.9621 128.148 41.6287 130.294 41.3352 133.068C40.7083 138.614 40.0948 146.681 39.948 156.668C39.8947 161.654 39.908 167.134 40.4282 172.974C40.7217 175.881 41.0418 178.908 41.8688 181.894C42.7891 184.854 44.1229 187.774 45.6435 190.708C48.6579 196.574 52.3126 202.468 56.194 208.521C60.0888 214.561 64.277 220.708 68.692 226.934C69.2522 227.708 69.7991 228.481 70.3193 229.201L69.8791 229.094C75.1877 226.308 80.3896 223.574 85.3515 220.961L85.2047 221.401C77.6686 204.921 70.7728 189.868 65.0773 177.401L65.0506 177.334V177.268C65.7176 164.534 66.2644 154.108 66.6512 146.814C66.8513 143.214 67.0114 140.401 67.1314 138.441C67.1981 137.508 67.2381 136.788 67.2781 136.254C67.3181 135.761 67.3582 135.508 67.3582 135.508H67.3448Z" fill="#263238"/>
<path d="M90.3805 231.534C90.3805 231.534 92.528 233.641 93.2349 235.041C93.9418 236.441 94.9155 242.388 94.9155 242.388C94.9155 242.388 93.7151 243.294 91.9144 240.068C90.1137 236.841 89.6335 235.254 89.6335 235.254L90.3805 231.534Z" fill="#FFBF9D"/>
<path d="M92.5008 242.521L90.5001 231.668L84.2178 222.401L71.7332 229.028L72.8269 240.081C72.8269 240.081 76.0281 245.308 77.2285 246.188C78.4156 247.068 80.1896 245.908 80.1896 245.908C81.5635 247.268 84.3111 246.148 84.3111 246.148C86.0584 247.481 87.9258 245.561 87.9258 245.561C87.9258 245.561 90.1933 246.881 91.0603 246.601C91.3671 246.508 91.6338 246.214 91.8739 245.854C92.5142 244.868 92.7142 243.668 92.5142 242.521H92.5008Z" fill="#FFBF9D"/>
<path d="M78.5365 243.294C78.6565 243.228 79.11 243.748 79.5235 244.441C79.9503 245.148 80.1904 245.774 80.0704 245.841C79.9503 245.908 79.4968 245.388 79.0834 244.694C78.6565 243.988 78.4164 243.361 78.5365 243.294Z" fill="#5E5E5E"/>
<path d="M82.0965 242.454C82.2299 242.414 82.6568 243.281 83.2303 244.321C83.8038 245.361 84.3107 246.188 84.1907 246.281C84.0839 246.361 83.3637 245.641 82.7768 244.548C82.1766 243.468 81.9632 242.494 82.0965 242.454Z" fill="#5E5E5E"/>
<path d="M86.2585 242.028C86.4052 242.001 86.6853 242.801 87.0855 243.761C87.4856 244.721 87.8591 245.481 87.739 245.561C87.619 245.628 87.0321 244.948 86.6186 243.948C86.1918 242.948 86.1251 242.054 86.2585 242.041V242.028Z" fill="#5E5E5E"/>
<path d="M91.0463 235.081C91.1797 235.054 91.6599 236.881 92.1 239.148C92.5402 241.414 92.7803 243.281 92.6469 243.294C92.5135 243.321 92.0333 241.494 91.5932 239.228C91.153 236.961 90.9129 235.094 91.0463 235.081Z" fill="#5E5E5E"/>
<path d="M77.8817 241.161C77.8817 241.161 77.8817 241.374 77.655 241.561C77.4415 241.748 77.0547 241.934 76.5879 241.934C76.121 241.934 75.7476 241.734 75.5342 241.548C75.3208 241.361 75.2674 241.188 75.3208 241.148C75.4275 241.054 75.9076 241.454 76.5879 241.454C77.2681 241.454 77.7617 241.081 77.8684 241.174L77.8817 241.161Z" fill="#5E5E5E"/>
<path d="M82.2041 241.014C82.2041 241.014 82.1641 241.228 81.9106 241.414C81.6572 241.588 81.2437 241.748 80.7635 241.748C80.2834 241.748 79.8565 241.588 79.6164 241.401C79.363 241.214 79.283 241.041 79.323 241.001C79.4164 240.894 79.9766 241.268 80.7635 241.254C81.5505 241.268 82.1107 240.908 82.2041 241.001V241.014Z" fill="#5E5E5E"/>
<path d="M90.0333 238.694C90.0733 238.628 90.4201 238.921 90.1933 239.454C89.9533 239.934 89.393 240.334 88.6594 240.548C87.9258 240.748 87.2189 240.668 86.7787 240.494C86.3252 240.321 86.1118 240.108 86.1518 240.054C86.2052 239.934 87.2589 240.454 88.5261 240.081C89.1396 239.908 89.6598 239.574 89.8866 239.281C90.1133 238.988 89.9933 238.721 90.0466 238.694H90.0333Z" fill="#5E5E5E"/>
</g>
<defs>
<clipPath id="clip0_443_3412">
<rect width="943" height="400" fill="white"/>
</clipPath>
</defs>
</svg>
