<svg width="788" height="579" viewBox="0 0 788 579" fill="none" xmlns="http://www.w3.org/2000/svg">
<g clip-path="url(#clip0_443_3984)">
<path d="M659.737 36.0995H543.753V579H659.737V36.0995Z" fill="#F5F5F5"/>
<path d="M659.751 36.0995H601.759V577.494H659.751V36.0995Z" fill="#EBEBEB"/>
<path d="M597.968 0H557.008V36.0995H597.968V0Z" fill="#F5F5F5"/>
<path d="M597.954 0H588.198V36.0995H597.954V0Z" fill="#EBEBEB"/>
<path d="M534.095 36.0995V33.994H663.138V36.0995" fill="#E0E0E0"/>
<path d="M576.464 51.8555H566.652V72.5614H576.464V51.8555Z" fill="#FAFAFA"/>
<path d="M601.759 80.6905C601.759 80.9136 588.77 81.0809 572.77 81.0809C556.771 81.0809 543.767 80.8996 543.767 80.6905C543.767 80.4813 556.743 80.3 572.77 80.3C588.798 80.3 601.759 80.4813 601.759 80.6905Z" fill="#E0E0E0"/>
<path d="M634.971 51.8555H625.159V72.5614H634.971V51.8555Z" fill="#E0E0E0"/>
<path d="M660.253 80.6905C660.253 80.9136 647.264 81.0809 631.264 81.0809C615.264 81.0809 602.261 80.8996 602.261 80.6905C602.261 80.4813 615.236 80.3 631.264 80.3C647.292 80.3 660.253 80.4813 660.253 80.6905Z" fill="#E0E0E0"/>
<path d="M634.971 92.9746H625.159V113.681H634.971V92.9746Z" fill="#E0E0E0"/>
<path d="M660.253 121.81C660.253 122.033 647.264 122.2 631.264 122.2C615.264 122.2 602.261 122.019 602.261 121.81C602.261 121.6 615.236 121.419 631.264 121.419C647.292 121.419 660.253 121.6 660.253 121.81Z" fill="#E0E0E0"/>
<path d="M634.971 135.335H625.159V156.041H634.971V135.335Z" fill="#E0E0E0"/>
<path d="M660.253 164.17C660.253 164.393 647.264 164.56 631.264 164.56C615.264 164.56 602.261 164.379 602.261 164.17C602.261 163.961 615.236 163.779 631.264 163.779C647.292 163.779 660.253 163.961 660.253 164.17Z" fill="#E0E0E0"/>
<path d="M634.971 177.695H625.159V198.401H634.971V177.695Z" fill="#E0E0E0"/>
<path d="M660.253 206.53C660.253 206.753 647.264 206.92 631.264 206.92C615.264 206.92 602.261 206.739 602.261 206.53C602.261 206.321 615.236 206.139 631.264 206.139C647.292 206.139 660.253 206.321 660.253 206.53Z" fill="#E0E0E0"/>
<path d="M634.971 218.842H625.159V239.548H634.971V218.842Z" fill="#E0E0E0"/>
<path d="M660.253 247.677C660.253 247.9 647.264 248.067 631.264 248.067C615.264 248.067 602.261 247.886 602.261 247.677C602.261 247.468 615.236 247.286 631.264 247.286C647.292 247.286 660.253 247.468 660.253 247.677Z" fill="#E0E0E0"/>
<path d="M634.971 260.156H625.159V280.862H634.971V260.156Z" fill="#E0E0E0"/>
<path d="M634.971 302.014H625.159V322.72H634.971V302.014Z" fill="#E0E0E0"/>
<path d="M660.253 289.005C660.253 289.228 647.264 289.395 631.264 289.395C615.264 289.395 602.261 289.214 602.261 289.005C602.261 288.796 615.236 288.615 631.264 288.615C647.292 288.615 660.253 288.796 660.253 289.005Z" fill="#E0E0E0"/>
<path d="M576.464 93.6021H566.652V114.308H576.464V93.6021Z" fill="#FAFAFA"/>
<path d="M601.759 122.437C601.759 122.66 588.77 122.827 572.77 122.827C556.771 122.827 543.767 122.646 543.767 122.437C543.767 122.228 556.743 122.047 572.77 122.047C588.798 122.047 601.759 122.228 601.759 122.437Z" fill="#E0E0E0"/>
<path d="M576.464 135.349H566.652V156.055H576.464V135.349Z" fill="#FAFAFA"/>
<path d="M601.759 164.184C601.759 164.407 588.77 164.574 572.77 164.574C556.771 164.574 543.767 164.393 543.767 164.184C543.767 163.974 556.743 163.793 572.77 163.793C588.798 163.793 601.759 163.974 601.759 164.184Z" fill="#E0E0E0"/>
<path d="M576.464 177.095H566.652V197.801H576.464V177.095Z" fill="#FAFAFA"/>
<path d="M601.759 205.93C601.759 206.153 588.77 206.321 572.77 206.321C556.771 206.321 543.767 206.139 543.767 205.93C543.767 205.721 556.743 205.54 572.77 205.54C588.798 205.54 601.759 205.721 601.759 205.93Z" fill="#E0E0E0"/>
<path d="M576.464 218.842H566.652V239.548H576.464V218.842Z" fill="#FAFAFA"/>
<path d="M601.759 247.677C601.759 247.9 588.77 248.067 572.77 248.067C556.771 248.067 543.767 247.886 543.767 247.677C543.767 247.468 556.743 247.286 572.77 247.286C588.798 247.286 601.759 247.468 601.759 247.677Z" fill="#E0E0E0"/>
<path d="M576.464 260.588H566.652V281.294H576.464V260.588Z" fill="#FAFAFA"/>
<path d="M601.759 289.437C601.759 289.66 588.77 289.828 572.77 289.828C556.771 289.828 543.767 289.646 543.767 289.437C543.767 289.228 556.743 289.047 572.77 289.047C588.798 289.047 601.759 289.228 601.759 289.437Z" fill="#E0E0E0"/>
<path d="M576.464 302.335H566.652V323.041H576.464V302.335Z" fill="#FAFAFA"/>
<path d="M224.656 35.0995H108.672V578H224.656V35.0995Z" fill="#F5F5F5"/>
<path d="M224.656 35.0995H166.664V576.494H224.656V35.0995Z" fill="#EBEBEB"/>
<path d="M162.873 -1H121.912V35.0995H162.873V-1Z" fill="#F5F5F5"/>
<path d="M162.859 -1H153.104V35.0995H162.859V-1Z" fill="#EBEBEB"/>
<path d="M99 35.0995V32.994H228.043V35.0995" fill="#E0E0E0"/>
<path d="M141.369 50.8555H131.557V71.5614H141.369V50.8555Z" fill="#FAFAFA"/>
<path d="M166.664 79.6905C166.664 79.9136 153.675 80.0809 137.675 80.0809C121.676 80.0809 108.672 79.8996 108.672 79.6905C108.672 79.4813 121.648 79.3 137.675 79.3C153.703 79.3 166.664 79.4813 166.664 79.6905Z" fill="#E0E0E0"/>
<path d="M199.876 50.8555H190.065V71.5614H199.876V50.8555Z" fill="#E0E0E0"/>
<path d="M225.158 79.6905C225.158 79.9136 212.169 80.0809 196.169 80.0809C180.169 80.0809 167.166 79.8996 167.166 79.6905C167.166 79.4813 180.141 79.3 196.169 79.3C212.197 79.3 225.158 79.4813 225.158 79.6905Z" fill="#E0E0E0"/>
<path d="M199.876 91.9746H190.065V112.681H199.876V91.9746Z" fill="#E0E0E0"/>
<path d="M225.158 120.81C225.158 121.033 212.169 121.2 196.169 121.2C180.169 121.2 167.166 121.019 167.166 120.81C167.166 120.6 180.141 120.419 196.169 120.419C212.197 120.419 225.158 120.6 225.158 120.81Z" fill="#E0E0E0"/>
<path d="M199.876 134.335H190.065V155.041H199.876V134.335Z" fill="#E0E0E0"/>
<path d="M225.158 163.17C225.158 163.393 212.169 163.56 196.169 163.56C180.169 163.56 167.166 163.379 167.166 163.17C167.166 162.961 180.141 162.779 196.169 162.779C212.197 162.779 225.158 162.961 225.158 163.17Z" fill="#E0E0E0"/>
<path d="M199.876 176.695H190.065V197.401H199.876V176.695Z" fill="#E0E0E0"/>
<path d="M225.158 205.53C225.158 205.753 212.169 205.92 196.169 205.92C180.169 205.92 167.166 205.739 167.166 205.53C167.166 205.321 180.141 205.139 196.169 205.139C212.197 205.139 225.158 205.321 225.158 205.53Z" fill="#E0E0E0"/>
<path d="M199.876 217.842H190.065V238.548H199.876V217.842Z" fill="#E0E0E0"/>
<path d="M225.158 246.677C225.158 246.9 212.169 247.067 196.169 247.067C180.169 247.067 167.166 246.886 167.166 246.677C167.166 246.468 180.141 246.286 196.169 246.286C212.197 246.286 225.158 246.468 225.158 246.677Z" fill="#E0E0E0"/>
<path d="M199.876 259.156H190.065V279.862H199.876V259.156Z" fill="#E0E0E0"/>
<path d="M199.876 301.014H190.065V321.72H199.876V301.014Z" fill="#E0E0E0"/>
<path d="M225.158 288.005C225.158 288.228 212.169 288.395 196.169 288.395C180.169 288.395 167.166 288.214 167.166 288.005C167.166 287.796 180.141 287.615 196.169 287.615C212.197 287.615 225.158 287.796 225.158 288.005Z" fill="#E0E0E0"/>
<path d="M141.369 92.6021H131.557V113.308H141.369V92.6021Z" fill="#FAFAFA"/>
<path d="M166.664 121.437C166.664 121.66 153.675 121.827 137.675 121.827C121.676 121.827 108.672 121.646 108.672 121.437C108.672 121.228 121.648 121.047 137.675 121.047C153.703 121.047 166.664 121.228 166.664 121.437Z" fill="#E0E0E0"/>
<path d="M141.369 134.349H131.557V155.055H141.369V134.349Z" fill="#FAFAFA"/>
<path d="M166.664 163.184C166.664 163.407 153.675 163.574 137.675 163.574C121.676 163.574 108.672 163.393 108.672 163.184C108.672 162.974 121.648 162.793 137.675 162.793C153.703 162.793 166.664 162.974 166.664 163.184Z" fill="#E0E0E0"/>
<path d="M141.369 176.095H131.557V196.801H141.369V176.095Z" fill="#FAFAFA"/>
<path d="M166.664 204.93C166.664 205.153 153.675 205.321 137.675 205.321C121.676 205.321 108.672 205.139 108.672 204.93C108.672 204.721 121.648 204.54 137.675 204.54C153.703 204.54 166.664 204.721 166.664 204.93Z" fill="#E0E0E0"/>
<path d="M141.369 217.842H131.557V238.548H141.369V217.842Z" fill="#FAFAFA"/>
<path d="M166.664 246.677C166.664 246.9 153.675 247.067 137.675 247.067C121.676 247.067 108.672 246.886 108.672 246.677C108.672 246.468 121.648 246.286 137.675 246.286C153.703 246.286 166.664 246.468 166.664 246.677Z" fill="#E0E0E0"/>
<path d="M141.369 259.588H131.557V280.294H141.369V259.588Z" fill="#FAFAFA"/>
<path d="M166.664 288.437C166.664 288.66 153.675 288.828 137.675 288.828C121.676 288.828 108.672 288.646 108.672 288.437C108.672 288.228 121.648 288.047 137.675 288.047C153.703 288.047 166.664 288.228 166.664 288.437Z" fill="#E0E0E0"/>
<path d="M141.369 301.335H131.557V322.041H141.369V301.335Z" fill="#FAFAFA"/>
<path d="M199.876 348.017H190.065V368.723H199.876V348.017Z" fill="#E0E0E0"/>
<path d="M225.158 335.008C225.158 335.231 212.169 335.399 196.169 335.399C180.169 335.399 167.166 335.217 167.166 335.008C167.166 334.799 180.141 334.618 196.169 334.618C212.197 334.618 225.158 334.799 225.158 335.008Z" fill="#E0E0E0"/>
<path d="M166.664 335.44C166.664 335.664 153.675 335.831 137.675 335.831C121.676 335.831 108.672 335.65 108.672 335.44C108.672 335.231 121.648 335.05 137.675 335.05C153.703 335.05 166.664 335.231 166.664 335.44Z" fill="#E0E0E0"/>
<path d="M141.369 348.338H131.557V369.044H141.369V348.338Z" fill="#FAFAFA"/>
<path d="M199.876 395.021H190.065V415.727H199.876V395.021Z" fill="#E0E0E0"/>
<path d="M225.158 382.012C225.158 382.235 212.169 382.402 196.169 382.402C180.169 382.402 167.166 382.221 167.166 382.012C167.166 381.802 180.141 381.621 196.169 381.621C212.197 381.621 225.158 381.802 225.158 382.012Z" fill="#E0E0E0"/>
<path d="M166.664 382.444C166.664 382.667 153.675 382.834 137.675 382.834C121.676 382.834 108.672 382.653 108.672 382.444C108.672 382.234 121.648 382.053 137.675 382.053C153.703 382.053 166.664 382.234 166.664 382.444Z" fill="#E0E0E0"/>
<path d="M141.369 395.341H131.557V416.047H141.369V395.341Z" fill="#FAFAFA"/>
<path d="M199.876 442.024H190.065V462.73H199.876V442.024Z" fill="#E0E0E0"/>
<path d="M225.158 429.015C225.158 429.238 212.169 429.405 196.169 429.405C180.169 429.405 167.166 429.224 167.166 429.015C167.166 428.806 180.141 428.624 196.169 428.624C212.197 428.624 225.158 428.806 225.158 429.015Z" fill="#E0E0E0"/>
<path d="M166.664 429.447C166.664 429.67 153.675 429.837 137.675 429.837C121.676 429.837 108.672 429.656 108.672 429.447C108.672 429.238 121.648 429.057 137.675 429.057C153.703 429.057 166.664 429.238 166.664 429.447Z" fill="#E0E0E0"/>
<path d="M141.369 442.359H131.557V463.064H141.369V442.359Z" fill="#FAFAFA"/>
<path d="M199.876 489.027H190.065V509.733H199.876V489.027Z" fill="#E0E0E0"/>
<path d="M225.158 476.018C225.158 476.241 212.169 476.408 196.169 476.408C180.169 476.408 167.166 476.227 167.166 476.018C167.166 475.809 180.141 475.627 196.169 475.627C212.197 475.627 225.158 475.809 225.158 476.018Z" fill="#E0E0E0"/>
<path d="M166.664 476.45C166.664 476.673 153.675 476.841 137.675 476.841C121.676 476.841 108.672 476.659 108.672 476.45C108.672 476.241 121.648 476.06 137.675 476.06C153.703 476.06 166.664 476.241 166.664 476.45Z" fill="#E0E0E0"/>
<path d="M141.369 489.362H131.557V510.068H141.369V489.362Z" fill="#FAFAFA"/>
<path d="M199.876 536.044H190.065V556.75H199.876V536.044Z" fill="#E0E0E0"/>
<path d="M225.158 523.021C225.158 523.244 212.169 523.412 196.169 523.412C180.169 523.412 167.166 523.23 167.166 523.021C167.166 522.812 180.141 522.631 196.169 522.631C212.197 522.631 225.158 522.812 225.158 523.021Z" fill="#E0E0E0"/>
<path d="M166.664 523.453C166.664 523.676 153.675 523.844 137.675 523.844C121.676 523.844 108.672 523.663 108.672 523.453C108.672 523.244 121.648 523.063 137.675 523.063C153.703 523.063 166.664 523.244 166.664 523.453Z" fill="#E0E0E0"/>
<path d="M141.369 536.365H131.557V557.071H141.369V536.365Z" fill="#FAFAFA"/>
<path d="M778.467 225.16H651.584V580.299H778.467V225.16Z" fill="#EBEBEB"/>
<path d="M778.452 225.16H718.969V580.299H778.452V225.16Z" fill="#E0E0E0"/>
<path d="M689.604 247.832H678.189V275.566H689.604V247.832Z" fill="#F5F5F5"/>
<path d="M689.604 356.354H678.189V384.087H689.604V356.354Z" fill="#F5F5F5"/>
<path d="M718.969 286.442C718.969 286.748 703.889 286.999 685.284 286.999C666.678 286.999 651.584 286.748 651.584 286.442C651.584 286.135 666.664 285.884 685.284 285.884C703.903 285.884 718.969 286.135 718.969 286.442Z" fill="#F5F5F5"/>
<path d="M689.604 302.505H678.189V330.238H689.604V302.505Z" fill="#F5F5F5"/>
<path d="M718.969 341.114C718.969 341.421 703.889 341.672 685.284 341.672C666.678 341.672 651.584 341.421 651.584 341.114C651.584 340.807 666.664 340.556 685.284 340.556C703.903 340.556 718.969 340.807 718.969 341.114Z" fill="#F5F5F5"/>
<path d="M743.025 247.832H731.61V275.566H743.025V247.832Z" fill="#F5F5F5"/>
<path d="M767.777 247.832H756.362V275.566H767.777V247.832Z" fill="#F5F5F5"/>
<path d="M743.025 300.455H731.61V328.188H743.025V300.455Z" fill="#F5F5F5"/>
<path d="M767.777 300.455H756.362V328.188H767.777V300.455Z" fill="#F5F5F5"/>
<path d="M743.025 353.063H731.61V380.797H743.025V353.063Z" fill="#F5F5F5"/>
<path d="M767.777 353.063H756.362V380.797H767.777V353.063Z" fill="#F5F5F5"/>
<path d="M689.604 414.135H678.189V441.869H689.604V414.135Z" fill="#F5F5F5"/>
<path d="M718.969 398.895C718.969 399.202 703.889 399.453 685.284 399.453C666.678 399.453 651.584 399.202 651.584 398.895C651.584 398.588 666.664 398.338 685.284 398.338C703.903 398.338 718.969 398.588 718.969 398.895Z" fill="#F5F5F5"/>
<path d="M743.025 410.845H731.61V438.578H743.025V410.845Z" fill="#F5F5F5"/>
<path d="M767.777 410.845H756.362V438.578H767.777V410.845Z" fill="#F5F5F5"/>
<path d="M689.604 471.903H678.189V499.636H689.604V471.903Z" fill="#F5F5F5"/>
<path d="M718.969 456.663C718.969 456.969 703.889 457.22 685.284 457.22C666.678 457.22 651.584 456.969 651.584 456.663C651.584 456.356 666.664 456.105 685.284 456.105C703.903 456.105 718.969 456.356 718.969 456.663Z" fill="#F5F5F5"/>
<path d="M743.025 468.612H731.61V496.346H743.025V468.612Z" fill="#F5F5F5"/>
<path d="M767.777 468.612H756.362V496.346H767.777V468.612Z" fill="#F5F5F5"/>
<path d="M689.604 529.684H678.189V557.418H689.604V529.684Z" fill="#F5F5F5"/>
<path d="M718.969 514.444C718.969 514.751 703.889 515.002 685.284 515.002C666.678 515.002 651.584 514.751 651.584 514.444C651.584 514.137 666.664 513.886 685.284 513.886C703.903 513.886 718.969 514.137 718.969 514.444Z" fill="#F5F5F5"/>
<path d="M743.025 526.394H731.61V554.127H743.025V526.394Z" fill="#F5F5F5"/>
<path d="M767.777 526.394H756.362V554.127H767.777V526.394Z" fill="#F5F5F5"/>
<path d="M787.999 219.332H642.051V225.37H787.999V219.332Z" fill="#E0E0E0"/>
<path d="M779.345 225.941C779.345 226.248 750.983 226.499 716.015 226.499C681.047 226.499 652.671 226.248 652.671 225.941C652.671 225.634 681.019 225.383 716.015 225.383C751.011 225.383 779.345 225.634 779.345 225.941Z" fill="#EBEBEB"/>
<path d="M385.058 256.006H269.338V579.911H385.058V256.006Z" fill="#EBEBEB"/>
<path d="M385.058 256.006H330.801V579.911H385.058V256.006Z" fill="#E0E0E0"/>
<path d="M304.014 276.684H293.603V301.977H304.014V276.684Z" fill="#F5F5F5"/>
<path d="M304.014 375.654H293.603V400.948H304.014V375.654Z" fill="#F5F5F5"/>
<path d="M330.801 311.891C330.801 312.17 317.045 312.407 300.07 312.407C283.094 312.407 269.338 312.17 269.338 311.891C269.338 311.612 283.094 311.375 300.07 311.375C317.045 311.375 330.801 311.612 330.801 311.891Z" fill="#F5F5F5"/>
<path d="M304.014 326.546H293.603V351.839H304.014V326.546Z" fill="#F5F5F5"/>
<path d="M330.801 361.767C330.801 362.045 317.045 362.282 300.07 362.282C283.094 362.282 269.338 362.045 269.338 361.767C269.338 361.488 283.094 361.251 300.07 361.251C317.045 361.251 330.801 361.488 330.801 361.767Z" fill="#F5F5F5"/>
<path d="M352.738 276.684H342.327V301.977H352.738V276.684Z" fill="#F5F5F5"/>
<path d="M375.316 276.684H364.905V301.977H375.316V276.684Z" fill="#F5F5F5"/>
<path d="M352.738 324.663H342.327V349.956H352.738V324.663Z" fill="#F5F5F5"/>
<path d="M375.316 324.663H364.905V349.956H375.316V324.663Z" fill="#F5F5F5"/>
<path d="M352.738 372.656H342.327V397.95H352.738V372.656Z" fill="#F5F5F5"/>
<path d="M375.316 372.656H364.905V397.95H375.316V372.656Z" fill="#F5F5F5"/>
<path d="M304.014 428.36H293.603V453.654H304.014V428.36Z" fill="#F5F5F5"/>
<path d="M330.801 414.459C330.801 414.738 317.045 414.975 300.07 414.975C283.094 414.975 269.338 414.738 269.338 414.459C269.338 414.18 283.094 413.943 300.07 413.943C317.045 413.943 330.801 414.18 330.801 414.459Z" fill="#F5F5F5"/>
<path d="M352.738 425.349H342.327V450.642H352.738V425.349Z" fill="#F5F5F5"/>
<path d="M375.316 425.349H364.905V450.642H375.316V425.349Z" fill="#F5F5F5"/>
<path d="M304.014 481.052H293.603V506.346H304.014V481.052Z" fill="#F5F5F5"/>
<path d="M330.801 467.151C330.801 467.43 317.045 467.667 300.07 467.667C283.094 467.667 269.338 467.43 269.338 467.151C269.338 466.872 283.094 466.635 300.07 466.635C317.045 466.635 330.801 466.872 330.801 467.151Z" fill="#F5F5F5"/>
<path d="M352.738 478.055H342.327V503.348H352.738V478.055Z" fill="#F5F5F5"/>
<path d="M375.316 478.055H364.905V503.348H375.316V478.055Z" fill="#F5F5F5"/>
<path d="M304.014 533.745H293.603V559.038H304.014V533.745Z" fill="#F5F5F5"/>
<path d="M330.801 519.843C330.801 520.122 317.045 520.359 300.07 520.359C283.094 520.359 269.338 520.122 269.338 519.843C269.338 519.564 283.094 519.327 300.07 519.327C317.045 519.327 330.801 519.564 330.801 519.843Z" fill="#F5F5F5"/>
<path d="M352.738 530.747H342.327V556.04H352.738V530.747Z" fill="#F5F5F5"/>
<path d="M375.316 530.747H364.905V556.04H375.316V530.747Z" fill="#F5F5F5"/>
<path d="M393.754 250.693H260.642V256.201H393.754V250.693Z" fill="#E0E0E0"/>
<path d="M385.866 256.717C385.866 256.996 359.999 257.233 328.097 257.233C296.195 257.233 270.328 256.996 270.328 256.717C270.328 256.438 296.181 256.201 328.097 256.201C360.013 256.201 385.866 256.438 385.866 256.717Z" fill="#EBEBEB"/>
<path d="M583.739 580.299H455.42L454.863 160.77H583.181L583.739 580.299Z" fill="#EBEBEB"/>
<path d="M583.181 160.77H519.015V580.299H583.181V160.77Z" fill="#E0E0E0"/>
<path d="M514.82 120.822H469.511V160.77H514.82V120.822Z" fill="#EBEBEB"/>
<path d="M514.834 120.822H504.033V160.77H514.834V120.822Z" fill="#E0E0E0"/>
<path d="M586.944 158.441H444.159V160.77H586.944V158.441Z" fill="#E0E0E0"/>
<path d="M491.043 178.185H480.187V201.094H491.043V178.185Z" fill="white"/>
<path d="M519.015 210.101C519.015 210.338 504.646 210.534 486.932 210.534C469.218 210.534 454.849 210.338 454.849 210.101C454.849 209.864 469.204 209.669 486.932 209.669C504.66 209.669 519.015 209.864 519.015 210.101Z" fill="#E0E0E0"/>
<path d="M555.767 178.185H544.91V201.094H555.767V178.185Z" fill="#F5F5F5"/>
<path d="M583.739 210.101C583.739 210.338 569.37 210.534 551.656 210.534C533.942 210.534 519.573 210.338 519.573 210.101C519.573 209.864 533.928 209.669 551.656 209.669C569.384 209.669 583.739 209.864 583.739 210.101Z" fill="#EBEBEB"/>
<path d="M555.767 223.682H544.91V246.591H555.767V223.682Z" fill="#F5F5F5"/>
<path d="M583.739 255.599C583.739 255.836 569.37 256.031 551.656 256.031C533.942 256.031 519.573 255.836 519.573 255.599C519.573 255.362 533.928 255.167 551.656 255.167C569.384 255.167 583.739 255.362 583.739 255.599Z" fill="#EBEBEB"/>
<path d="M555.767 270.56H544.91V293.469H555.767V270.56Z" fill="#F5F5F5"/>
<path d="M583.739 302.463C583.739 302.7 569.37 302.895 551.656 302.895C533.942 302.895 519.573 302.7 519.573 302.463C519.573 302.226 533.928 302.03 551.656 302.03C569.384 302.03 583.739 302.226 583.739 302.463Z" fill="#EBEBEB"/>
<path d="M555.767 317.424H544.91V340.333H555.767V317.424Z" fill="#F5F5F5"/>
<path d="M583.739 349.326C583.739 349.563 569.37 349.759 551.656 349.759C533.942 349.759 519.573 349.563 519.573 349.326C519.573 349.089 533.928 348.894 551.656 348.894C569.384 348.894 583.739 349.089 583.739 349.326Z" fill="#EBEBEB"/>
<path d="M491.043 224.38H480.187V247.289H491.043V224.38Z" fill="white"/>
<path d="M519.015 256.296C519.015 256.533 504.646 256.728 486.932 256.728C469.218 256.728 454.849 256.533 454.849 256.296C454.849 256.059 469.204 255.864 486.932 255.864C504.66 255.864 519.015 256.059 519.015 256.296Z" fill="#E0E0E0"/>
<path d="M491.043 270.574H480.187V293.483H491.043V270.574Z" fill="white"/>
<path d="M519.015 302.476C519.015 302.713 504.646 302.909 486.932 302.909C469.218 302.909 454.849 302.713 454.849 302.476C454.849 302.239 469.204 302.044 486.932 302.044C504.66 302.044 519.015 302.239 519.015 302.476Z" fill="#E0E0E0"/>
<path d="M491.043 316.755H480.187V339.664H491.043V316.755Z" fill="white"/>
<path d="M519.015 348.671C519.015 348.908 504.646 349.103 486.932 349.103C469.218 349.103 454.849 348.908 454.849 348.671C454.849 348.434 469.204 348.239 486.932 348.239C504.66 348.239 519.015 348.434 519.015 348.671Z" fill="#E0E0E0"/>
<path d="M555.767 365.417H544.91V388.326H555.767V365.417Z" fill="#F5F5F5"/>
<path d="M583.739 397.319C583.739 397.556 569.37 397.752 551.656 397.752C533.942 397.752 519.573 397.556 519.573 397.319C519.573 397.082 533.928 396.887 551.656 396.887C569.384 396.887 583.739 397.082 583.739 397.319Z" fill="#EBEBEB"/>
<path d="M491.043 364.748H480.187V387.657H491.043V364.748Z" fill="white"/>
<path d="M519.015 396.65C519.015 396.887 504.646 397.083 486.932 397.083C469.218 397.083 454.849 396.887 454.849 396.65C454.849 396.413 469.204 396.218 486.932 396.218C504.66 396.218 519.015 396.413 519.015 396.65Z" fill="#E0E0E0"/>
<path d="M555.767 413.396H544.91V436.305H555.767V413.396Z" fill="#F5F5F5"/>
<path d="M583.739 445.313C583.739 445.55 569.37 445.745 551.656 445.745C533.942 445.745 519.573 445.55 519.573 445.313C519.573 445.076 533.928 444.88 551.656 444.88C569.384 444.88 583.739 445.076 583.739 445.313Z" fill="#EBEBEB"/>
<path d="M491.043 412.741H480.187V435.65H491.043V412.741Z" fill="white"/>
<path d="M519.015 444.643C519.015 444.88 504.646 445.076 486.932 445.076C469.218 445.076 454.849 444.88 454.849 444.643C454.849 444.406 469.204 444.211 486.932 444.211C504.66 444.211 519.015 444.406 519.015 444.643Z" fill="#E0E0E0"/>
<path d="M555.767 461.39H544.91V484.299H555.767V461.39Z" fill="#F5F5F5"/>
<path d="M583.739 493.292C583.739 493.529 569.37 493.724 551.656 493.724C533.942 493.724 519.573 493.529 519.573 493.292C519.573 493.055 533.928 492.86 551.656 492.86C569.384 492.86 583.739 493.055 583.739 493.292Z" fill="#EBEBEB"/>
<path d="M491.043 460.72H480.187V483.629H491.043V460.72Z" fill="white"/>
<path d="M519.015 492.637C519.015 492.874 504.646 493.069 486.932 493.069C469.218 493.069 454.849 492.874 454.849 492.637C454.849 492.4 469.204 492.204 486.932 492.204C504.66 492.204 519.015 492.4 519.015 492.637Z" fill="#E0E0E0"/>
<path d="M555.767 509.369H544.91V532.278H555.767V509.369Z" fill="#F5F5F5"/>
<path d="M583.739 541.285C583.739 541.522 569.37 541.717 551.656 541.717C533.942 541.717 519.573 541.522 519.573 541.285C519.573 541.048 533.928 540.853 551.656 540.853C569.384 540.853 583.739 541.048 583.739 541.285Z" fill="#EBEBEB"/>
<path d="M491.043 508.713H480.187V531.622H491.043V508.713Z" fill="white"/>
<path d="M519.015 540.616C519.015 540.853 504.646 541.048 486.932 541.048C469.218 541.048 454.849 540.853 454.849 540.616C454.849 540.379 469.204 540.184 486.932 540.184C504.66 540.184 519.015 540.379 519.015 540.616Z" fill="#E0E0E0"/>
</g>
<defs>
<clipPath id="clip0_443_3984">
<rect width="788" height="579" fill="white"/>
</clipPath>
</defs>
</svg>
