<svg width="82" height="82" viewBox="0 0 82 82" fill="none" xmlns="http://www.w3.org/2000/svg">
<rect width="82" height="82" rx="41" fill="#00FF00"/>
<path d="M41.3209 32.2148C45.9967 32.2148 49.856 36.0742 49.856 40.75C49.856 45.5 45.9967 49.2852 41.3209 49.2852C36.5709 49.2852 32.7857 45.5 32.7857 40.75C32.7857 36.0742 36.5709 32.2148 41.3209 32.2148ZM41.3209 46.3164C44.3638 46.3164 46.8131 43.8672 46.8131 40.75C46.8131 37.707 44.3638 35.2578 41.3209 35.2578C38.2037 35.2578 35.7545 37.707 35.7545 40.75C35.7545 43.8672 38.2779 46.3164 41.3209 46.3164ZM52.1568 31.918C52.1568 33.0312 51.2662 33.9219 50.1529 33.9219C49.0396 33.9219 48.149 33.0312 48.149 31.918C48.149 30.8047 49.0396 29.9141 50.1529 29.9141C51.2662 29.9141 52.1568 30.8047 52.1568 31.918ZM57.7974 33.9219C57.9459 36.668 57.9459 44.9062 57.7974 47.6523C57.649 50.3242 57.0553 52.625 55.1256 54.6289C53.1959 56.5586 50.8209 57.1523 48.149 57.3008C45.4029 57.4492 37.1646 57.4492 34.4185 57.3008C31.7467 57.1523 29.4459 56.5586 27.442 54.6289C25.5123 52.625 24.9185 50.3242 24.7701 47.6523C24.6217 44.9062 24.6217 36.668 24.7701 33.9219C24.9185 31.25 25.5123 28.875 27.442 26.9453C29.4459 25.0156 31.7467 24.4219 34.4185 24.2734C37.1646 24.125 45.4029 24.125 48.149 24.2734C50.8209 24.4219 53.1959 25.0156 55.1256 26.9453C57.0553 28.875 57.649 31.25 57.7974 33.9219ZM54.2349 50.5469C55.1256 48.3945 54.9029 43.1992 54.9029 40.75C54.9029 38.375 55.1256 33.1797 54.2349 30.9531C53.6412 29.543 52.5279 28.3555 51.1178 27.8359C48.8912 26.9453 43.6959 27.168 41.3209 27.168C38.8717 27.168 33.6763 26.9453 31.524 27.8359C30.0396 28.4297 28.9263 29.543 28.3326 30.9531C27.442 33.1797 27.6646 38.375 27.6646 40.75C27.6646 43.1992 27.442 48.3945 28.3326 50.5469C28.9263 52.0312 30.0396 53.1445 31.524 53.7383C33.6763 54.6289 38.8717 54.4062 41.3209 54.4062C43.6959 54.4062 48.8912 54.6289 51.1178 53.7383C52.5279 53.1445 53.7154 52.0312 54.2349 50.5469Z" fill="#434343"/>
</svg>
