<svg width="281" height="135" viewBox="0 0 281 135" fill="none" xmlns="http://www.w3.org/2000/svg">
<g clip-path="url(#clip0_130_5172)">
<path opacity="0.3" d="M3.19525 124.981C3.19525 130.515 64.7599 135.006 140.706 135.006C216.652 135.006 278.217 130.515 278.217 124.981C278.217 119.446 216.652 114.956 140.706 114.956C64.7599 114.956 3.19525 119.446 3.19525 124.981Z" fill="#1A1A1A"/>
<path d="M18.9593 76.6513L257.76 66.5472L278.217 87.0285L275.095 103.256L218.95 108.323L208.977 101.447L76.207 114.41H22.203L11.8776 93.6189L18.9593 76.6513Z" fill="#1A1A1A"/>
<path d="M233.211 6.64501L222.819 0.84959C222.819 0.84959 158.368 -2.37886 134.479 3.74427C134.479 3.74427 128.046 7.92547 125.294 10.2497V11.5908H138.802L138.766 8.48377L140.506 5.79542C140.506 5.79542 189.017 0.400521 215.379 2.658L220.563 6.94237L233.211 8.89643V6.64501Z" fill="#1A1A1A"/>
<path d="M247.065 83.0293C259.87 83.0293 270.287 93.455 270.287 106.272C270.287 119.088 259.87 129.514 247.065 129.514C234.26 129.514 223.843 119.088 223.843 106.272C223.843 93.455 234.26 83.0293 247.065 83.0293ZM247.065 119.962C254.62 119.962 260.743 113.833 260.743 106.272C260.743 98.7103 254.62 92.5811 247.065 92.5811C239.51 92.5811 233.387 98.7103 233.387 106.272C233.387 113.833 239.51 119.962 247.065 119.962Z" fill="#333333"/>
<path d="M236.194 106.278C236.194 112.286 241.062 117.159 247.065 117.159C253.067 117.159 257.936 112.286 257.936 106.278C257.936 100.27 253.067 95.3969 247.065 95.3969C241.062 95.3969 236.194 100.27 236.194 106.278Z" fill="#777676"/>
<path d="M234.017 110.659L244.622 105.786L236.715 97.2053L238.868 95.2149L246.774 103.796L252.485 93.6189L255.044 95.0571L249.327 105.234L260.768 107.528L260.192 110.404L248.757 108.11L250.109 119.707L247.198 120.047L245.84 108.45L235.242 113.323L234.017 110.659Z" fill="#777676"/>
<path d="M247.065 91.1126C255.432 91.1126 262.217 97.9032 262.217 106.278C262.217 114.652 255.432 121.443 247.065 121.443C238.698 121.443 231.913 114.652 231.913 106.278C231.913 97.9032 238.698 91.1126 247.065 91.1126ZM247.065 118.718C253.928 118.718 259.494 113.147 259.494 106.278C259.494 99.4082 253.928 93.8373 247.065 93.8373C240.201 93.8373 234.636 99.4082 234.636 106.278C234.636 113.147 240.201 118.718 247.065 118.718Z" fill="#999999"/>
<path d="M239.013 113.208L249.708 91.8833L251.345 91.8772L247.895 98.7649L256.972 117.159L255.965 118.427L254.116 114.677H235.072L233.956 113.208H239.013Z" fill="#999999"/>
<path d="M246.046 101.617C246.046 102.182 246.501 102.637 247.065 102.637C247.629 102.637 248.083 102.182 248.083 101.617C248.083 101.053 247.629 100.598 247.065 100.598C246.501 100.598 246.046 101.053 246.046 101.617Z" fill="#777676"/>
<path d="M240.456 112.801C240.456 113.366 240.911 113.821 241.475 113.821C242.039 113.821 242.493 113.366 242.493 112.801C242.493 112.237 242.039 111.782 241.475 111.782C240.911 111.782 240.456 112.237 240.456 112.801Z" fill="#777676"/>
<path d="M251.727 112.801C251.727 113.366 252.182 113.821 252.746 113.821C253.31 113.821 253.765 113.366 253.765 112.801C253.765 112.237 253.31 111.782 252.746 111.782C252.182 111.782 251.727 112.237 251.727 112.801Z" fill="#777676"/>
<path d="M52.3123 46.952C52.3123 46.952 108.79 12.0217 125.294 10.2558C125.294 10.2558 193.819 1.64457 236.406 7.01519C236.406 7.01519 249.151 6.34159 273.627 45.2771L275.974 70.7831L281 76.4875V95.2816L275.095 103.256C273.591 89.0917 261.616 78.0531 247.065 78.0531C231.495 78.0531 218.872 90.6878 218.872 106.272C218.872 106.963 218.902 107.643 218.956 108.317L218.302 108.365L76.213 114.403C76.9891 111.83 77.4075 109.1 77.4075 106.272C77.4075 90.6878 64.7841 78.0531 49.2141 78.0531C33.6441 78.0531 21.0207 90.6878 21.0207 106.272C21.0207 109.1 21.4451 111.83 22.2151 114.403H22.1424L4.70493 110.374L0.0121155 83.5269C0.0121155 83.5269 8.39737 60.7033 52.3244 46.946L52.3123 46.952Z" fill="#33FF33"/>
<path d="M49.2081 83.0293C62.0133 83.0293 72.4297 93.455 72.4297 106.272C72.4297 119.088 62.0133 129.514 49.2081 129.514C36.4028 129.514 25.9864 119.088 25.9864 106.272C25.9864 93.455 36.4028 83.0293 49.2081 83.0293ZM49.2081 119.962C56.7627 119.962 62.8864 113.833 62.8864 106.272C62.8864 98.7103 56.7627 92.5811 49.2081 92.5811C41.6534 92.5811 35.5297 98.7103 35.5297 106.272C35.5297 113.833 41.6534 119.962 49.2081 119.962Z" fill="#333333"/>
<path d="M38.3368 106.278C38.3368 112.286 43.2055 117.159 49.208 117.159C55.2104 117.159 60.0791 112.286 60.0791 106.278C60.0791 100.27 55.2104 95.3969 49.208 95.3969C43.2055 95.3969 38.3368 100.27 38.3368 106.278Z" fill="#777676"/>
<path d="M36.1602 110.659L46.7646 105.786L38.8583 97.2053L41.0107 95.2149L48.917 103.796L54.6284 93.6189L57.187 95.0571L51.4695 105.234L62.9045 107.528L62.3346 110.404L50.8936 108.11L52.2517 119.707L49.3414 120.047L47.9833 108.45L37.385 113.323L36.1602 110.659Z" fill="#777676"/>
<path d="M49.208 91.1126C57.575 91.1126 64.3596 97.9032 64.3596 106.278C64.3596 114.652 57.575 121.443 49.208 121.443C40.8409 121.443 34.0563 114.652 34.0563 106.278C34.0563 97.9032 40.8409 91.1126 49.208 91.1126ZM49.208 118.718C56.0714 118.718 61.6373 113.147 61.6373 106.278C61.6373 99.4082 56.0714 93.8373 49.208 93.8373C42.3445 93.8373 36.7786 99.4082 36.7786 106.278C36.7786 113.147 42.3445 118.718 49.208 118.718Z" fill="#999999"/>
<path d="M41.1561 113.208L51.8514 91.8833L53.4884 91.8772L50.0385 98.7649L59.115 117.159L58.1085 118.427L56.2593 114.677H37.2151L36.0995 113.208H41.1561Z" fill="#999999"/>
<path d="M48.1833 101.617C48.1833 102.182 48.638 102.637 49.2019 102.637C49.7657 102.637 50.2205 102.182 50.2205 101.617C50.2205 101.053 49.7657 100.598 49.2019 100.598C48.638 100.598 48.1833 101.053 48.1833 101.617Z" fill="#777676"/>
<path d="M42.5993 112.801C42.5993 113.366 43.054 113.821 43.6179 113.821C44.1817 113.821 44.6365 113.366 44.6365 112.801C44.6365 112.237 44.1817 111.782 43.6179 111.782C43.054 111.782 42.5993 112.237 42.5993 112.801Z" fill="#777676"/>
<path d="M53.8705 112.801C53.8705 113.366 54.3253 113.821 54.8891 113.821C55.453 113.821 55.9077 113.366 55.9077 112.801C55.9077 112.237 55.453 111.782 54.8891 111.782C54.3253 111.782 53.8705 112.237 53.8705 112.801Z" fill="#777676"/>
<path d="M119.358 11.6758C108.614 16.0209 72.4296 42.8497 72.4296 42.8497C64.9174 46.7943 52.3123 46.9581 52.3123 46.9581C52.3123 46.9581 98.2341 18.5575 119.358 11.6819V11.6758Z" fill="#5D7987"/>
<path d="M55.1498 46.0782C59.2546 45.7869 66.9122 44.9009 72.0416 42.2247C73.6119 41.0595 94.4326 25.6637 108.748 16.7127C89.6549 25.3603 63.2441 41.1627 55.1498 46.0782Z" fill="#3E5059"/>
<path d="M71.6535 41.5996C73.1572 40.483 86.3747 30.7188 98.8829 22.2836L107.662 16.3971C111.997 14.4127 115.993 12.7681 119.358 11.6758C108.614 16.0209 72.4296 42.8497 72.4296 42.8497C64.9174 46.7943 52.3123 46.9581 52.3123 46.9581C52.3123 46.9581 52.9853 46.5394 54.1979 45.799C59.2424 45.1376 67.9065 43.7357 71.6474 41.6057L71.6535 41.5996Z" fill="#1A1A1A"/>
<path d="M82.0942 105.155L205.448 101.617C205.448 101.617 215.464 103.468 218.392 91.1126C218.392 91.1126 223.51 79.4914 234.017 75.3344C234.017 75.3344 242.002 73.6231 245.464 63.1125C245.464 63.1125 249.169 52.1103 249.169 43.7964C249.169 43.7964 246.483 10.5471 221.563 8.59301C221.563 8.59301 137.838 7.17298 119.352 14.9467C119.352 14.9467 88.1936 29.8631 79.6447 44.7734C79.6447 44.7734 75.4915 71.8936 82.0881 105.155H82.0942Z" fill="#25E825"/>
<g opacity="0.3">
<path d="M206.473 8.48984C181.474 8.48984 132.909 9.2484 119.364 14.9467C119.364 14.9467 88.2059 29.8631 79.657 44.7734C79.657 44.7734 75.5038 71.8936 82.1004 105.155L205.454 101.617C205.454 101.617 205.988 101.714 206.842 101.714C209.698 101.714 216.143 100.616 218.399 91.1126C218.399 91.1126 223.516 79.4914 234.023 75.3344C234.023 75.3344 242.008 73.6231 245.47 63.1125C245.47 63.1125 249.175 52.1103 249.175 43.7964C249.175 43.7964 246.489 10.5471 221.57 8.59301C221.57 8.59301 215.585 8.48984 206.467 8.48984M206.467 7.02126C215.494 7.02126 221.533 7.12443 221.594 7.12443H221.636H221.679C232.435 7.96795 240.862 14.6069 246.046 26.3312C249.89 35.0153 250.6 43.3291 250.624 43.675V43.7357V43.7964C250.624 52.2498 246.992 63.1185 246.841 63.5797C243.367 74.1207 235.618 76.445 234.448 76.7363C225.201 80.4502 220.315 90.4329 219.769 91.592C217.222 102.048 209.874 103.183 206.818 103.183C206.121 103.183 205.6 103.122 205.339 103.086L82.1186 106.624L80.8817 106.66L80.6392 105.446C74.0668 72.3184 78.1412 44.8341 78.1836 44.555L78.2261 44.2819L78.3656 44.0452C87.0418 28.9104 117.424 14.2428 118.709 13.6238L118.74 13.6117L118.77 13.5995C132.369 7.88299 179.54 7.02733 206.448 7.02733L206.467 7.02126Z" fill="#1A1A1A"/>
</g>
<path d="M164.771 48.1961L170.367 11.603L169.476 11.6455C144.465 12.7924 127.513 15.0681 119.091 18.424C117.782 18.9277 86.7751 31.0343 83.3252 51.7462L83.1736 52.6504L164.771 48.2021V48.1961Z" fill="#3E5059"/>
<path d="M169.506 12.3737C149.722 13.2779 129.198 15.1834 119.358 19.0976C119.358 19.0976 87.4662 31.3196 84.0466 51.8615L164.134 47.4921L169.506 12.3737ZM171.222 10.8262L170.949 12.5982L165.577 47.7167L165.395 48.894L164.207 48.9607L84.1194 53.33L82.2944 53.4271L82.5975 51.6248C86.1141 30.5003 117.497 18.248 118.831 17.7322C127.313 14.3581 144.344 12.0581 169.439 10.9112L171.228 10.8323L171.222 10.8262Z" fill="#1A1A1A"/>
<path d="M246.246 43.7539L246.198 43.0136C246.174 42.6919 243.73 10.9415 218.308 10.9415H217.895C217.895 10.9415 213.415 10.8626 206.466 10.8626C200.252 10.8626 190.654 10.9294 180.171 11.2449L179.492 11.2631L177.715 47.4921L246.24 43.7539H246.246Z" fill="#3E5059"/>
<path d="M206.466 11.5908C199.621 11.5908 190.302 11.6697 180.195 11.9732L178.491 46.7154L245.464 43.0621C245.464 43.0621 243.336 11.6697 218.308 11.6697C218.174 11.6697 218.041 11.6697 217.908 11.6697C217.908 11.6697 213.488 11.5908 206.466 11.5908ZM206.466 10.1223C213.16 10.1223 217.556 10.1951 217.908 10.2012C218.041 10.2012 218.174 10.2012 218.308 10.2012C229.149 10.2012 237.546 15.9177 242.596 26.7439C246.331 34.7483 246.901 42.6313 246.925 42.959L247.029 44.4397L245.543 44.5186L178.57 48.1718L176.945 48.2628L177.024 46.6365L178.728 11.8943L178.795 10.541L180.147 10.4985C190.636 10.183 200.246 10.1162 206.46 10.1162L206.466 10.1223Z" fill="#1A1A1A"/>
<path d="M206.181 17.89C206.181 17.89 194.467 17.6351 179.898 18.0659L180.195 11.9792C200.67 11.3663 217.907 11.6819 217.907 11.6819C243.312 11.342 245.47 43.0682 245.47 43.0682L227.451 44.0513C226.365 36.4353 222.073 17.6411 206.181 17.896V17.89Z" fill="#1A1A1A"/>
<path d="M236.194 43.5658V19.4981C244.494 28.7951 245.464 43.0621 245.464 43.0621L236.194 43.5658Z" fill="#333333"/>
<path d="M235.46 44.3426L246.246 43.7539L246.198 43.0136C246.155 42.4189 245.113 28.3885 236.745 19.0126L235.466 17.5805V44.3486L235.46 44.3426ZM244.658 42.3703L236.921 42.789V21.5311C242.821 29.2381 244.343 39.5424 244.658 42.3703Z" fill="#1A1A1A"/>
<path d="M253.746 67.7003H260.198C261.835 67.7003 263.162 66.3713 263.162 64.7328V58.2759C263.162 56.6374 261.828 55.3084 260.198 55.3084H253.746C252.109 55.3084 250.782 56.6374 250.782 58.2759V64.7328C250.782 66.3713 252.109 67.7003 253.746 67.7003ZM260.198 56.0366C261.428 56.0366 262.429 57.0379 262.429 58.2698V64.7267C262.429 65.9586 261.428 66.9599 260.198 66.9599H253.746C252.516 66.9599 251.515 65.9586 251.515 64.7267V58.2698C251.515 57.0379 252.516 56.0366 253.746 56.0366H260.198Z" fill="#33FF33"/>
<path d="M275.549 62.2386L273.961 44.9676L273.694 44.913C273.603 44.8948 268.352 43.8328 265.521 46.7821C264.314 48.0383 263.745 49.8285 263.829 52.1042C263.708 52.7596 262.975 58.6036 275.04 62.0869L275.555 62.2386H275.549ZM273.282 45.5927L274.725 61.2373C263.411 57.7965 264.539 52.2802 264.557 52.2256L264.569 52.177V52.1285C264.484 50.0409 264.981 48.4145 266.055 47.2979C268.255 45.004 272.227 45.4349 273.288 45.5927H273.282Z" fill="#33FF33"/>
<path d="M226.984 52.3591C226.984 54.8229 232.301 56.8194 235.369 56.8194C238.437 56.8194 240.929 54.8229 240.929 52.3591C240.929 49.8953 238.437 47.8987 235.369 47.8987C232.301 47.8987 226.984 49.8953 226.984 52.3591Z" fill="#3A3838"/>
<path d="M228.584 52.3591C228.584 53.5606 232.113 54.5316 234.15 54.5316C236.188 54.5316 237.843 53.5606 237.843 52.3591C237.843 51.1575 236.194 50.1865 234.15 50.1865C232.107 50.1865 228.584 51.1575 228.584 52.3591Z" fill="#262525"/>
<path d="M235.369 47.8987C238.443 47.8987 240.929 49.8953 240.929 52.3591H226.984C226.984 49.8953 232.301 47.8987 235.369 47.8987Z" fill="#4D4D4D"/>
<path d="M147.655 55.6723C147.655 58.1362 152.966 60.1327 156.04 60.1327C159.114 60.1327 161.6 58.1362 161.6 55.6723C161.6 53.2085 159.108 51.212 156.04 51.212C152.972 51.212 147.655 53.2085 147.655 55.6723Z" fill="#3A3838"/>
<path d="M149.255 55.6725C149.255 56.874 152.784 57.845 154.821 57.845C156.858 57.845 158.513 56.874 158.513 55.6725C158.513 54.4709 156.864 53.5 154.821 53.5C152.778 53.5 149.255 54.4709 149.255 55.6725Z" fill="#262525"/>
<path d="M156.04 51.2061C159.114 51.2061 161.6 53.2026 161.6 55.6664H147.655C147.655 53.2026 152.966 51.2061 156.04 51.2061Z" fill="#4D4D4D"/>
<g opacity="0.3">
<path d="M168.96 102.661L167.493 102.703C166.674 93.0484 170.385 48.7726 170.543 46.8792L174.393 8.93891C174.884 8.92677 175.375 8.90857 175.866 8.89643V8.91464L172.004 47.0127C171.967 47.4739 168.136 93.2001 168.96 102.618V102.661Z" fill="#1A1A1A"/>
</g>
<g opacity="0.3">
<path d="M247.065 78.0531C231.495 78.0531 218.872 90.6878 218.872 106.272C218.872 106.963 218.902 107.643 218.956 108.317L218.302 108.365L76.213 114.403C76.9891 111.83 77.4075 109.1 77.4075 106.272C77.4075 90.6878 64.7841 78.0531 49.2141 78.0531C33.6441 78.0531 21.0207 90.6878 21.0207 106.272C21.0207 109.1 21.4451 111.83 22.2151 114.403H22.1424L4.70493 110.374L0.0121155 83.5269C0.0121155 83.5269 2.22513 77.507 10.3254 69.7878L274.713 57.1228L275.968 70.7831L281 76.4875V95.2816L275.095 103.256C273.591 89.0917 261.616 78.0531 247.065 78.0531Z" fill="#1A1A1A"/>
</g>
<g opacity="0.3">
<path d="M77.4013 106.278C77.4013 99.9786 75.3398 94.165 71.8536 89.468L231.44 82.7866C223.861 87.8477 218.865 96.4771 218.865 106.278C218.865 106.97 218.896 107.649 218.95 108.323L218.295 108.371L76.2069 114.41C76.983 111.837 77.4013 109.106 77.4013 106.278Z" fill="#1A1A1A"/>
</g>
<g opacity="0.3">
<path d="M255.584 79.3761L256.141 78.4476C256.141 78.4476 256.59 73.0466 263.108 70.7952H275.98L281 76.4875V95.2816L275.095 103.256C273.894 91.9803 266.067 82.7016 255.584 79.3761Z" fill="#1A1A1A"/>
</g>
<g opacity="0.3">
<path d="M0.697325 82.0341C1.01867 82.0401 1.20662 82.0462 1.20662 82.0462H28.4117L32.0132 83.9274C25.3317 89.0857 21.0208 97.175 21.0208 106.278C21.0208 109.106 21.4452 111.837 22.2152 114.41H22.1425L4.70502 110.38L0.0121918 83.533C0.0121918 83.533 0.212284 82.9929 0.703394 82.028L0.697325 82.0341Z" fill="#1A1A1A"/>
</g>
<path d="M161.939 18.5393C144.156 19.3828 125.7 21.1609 116.854 24.8202C116.854 24.8202 91.8013 34.7907 86.0232 51.7522L84.0527 51.8615C87.4723 31.3256 119.364 19.0976 119.364 19.0976C129.211 15.1773 149.734 13.2779 169.512 12.3737L164.14 47.4921L157.622 47.8502L161.939 18.5393Z" fill="#1A1A1A"/>
<path d="M104.74 50.7327L103.242 50.8116L107.329 25.0569C107.88 24.7292 108.426 24.4197 108.96 24.1223L104.74 50.7327Z" fill="#1A1A1A"/>
<path d="M102.381 51.6005L105.377 51.4367L109.924 22.7448L108.602 23.4851C108.062 23.7885 107.517 24.1041 106.959 24.4318L106.662 24.6078L106.607 24.9476L102.381 51.6005Z" fill="#1A1A1A"/>
</g>
<defs>
<clipPath id="clip0_130_5172">
<rect width="281" height="135" fill="white" transform="matrix(-1 0 0 1 281 0)"/>
</clipPath>
</defs>
</svg>
