<svg width="182" height="184" viewBox="0 0 182 184" fill="none" xmlns="http://www.w3.org/2000/svg">
<g clip-path="url(#clip0_130_5241)">
<path d="M49.881 37H2.93716C1.31355 37 0 38.3212 0 39.9502V59.4187C0 61.0477 1.31355 62.3689 2.93716 62.3689H39.8969C41.3936 64.4665 44.1053 68.2242 44.3449 68.2242C44.5704 68.2242 44.1363 64.6754 43.8347 62.3689H49.8838C51.5046 62.3689 52.8209 61.0477 52.8209 59.4187V39.9502C52.8209 38.3212 51.5074 37 49.8838 37H49.881Z" fill="#33FF33"/>
<path d="M19.9626 43.9309H6.44379C6.21339 43.9309 6.02661 44.1179 6.02661 44.3487V44.7976C6.02661 45.0283 6.21339 45.2154 6.44379 45.2154H19.9626C20.193 45.2154 20.3798 45.0283 20.3798 44.7976V44.3487C20.3798 44.1179 20.193 43.9309 19.9626 43.9309Z" fill="white"/>
<path d="M6.44086 49.5405H15.3031C15.5314 49.5405 15.7203 49.7268 15.7203 49.9583V50.41C15.7203 50.6387 15.5342 50.8278 15.3031 50.8278H6.44086C6.21254 50.8278 6.02368 50.6415 6.02368 50.41V49.9583C6.02368 49.7296 6.20972 49.5405 6.44086 49.5405Z" fill="white"/>
<path d="M28.4019 49.5405H18.7307C18.5003 49.5405 18.3135 49.7275 18.3135 49.9583V50.4072C18.3135 50.6379 18.5003 50.825 18.7307 50.825H28.4019C28.6323 50.825 28.819 50.6379 28.819 50.4072V49.9583C28.819 49.7275 28.6323 49.5405 28.4019 49.5405Z" fill="white"/>
<path d="M32.2469 49.5405H46.5888C46.8171 49.5405 47.006 49.7268 47.006 49.9583V50.41C47.006 50.6387 46.8199 50.8278 46.5888 50.8278H32.2469C32.0186 50.8278 31.8325 50.6415 31.8325 50.4128V49.9611C31.8325 49.7324 32.0186 49.5433 32.2497 49.5433L32.2469 49.5405Z" fill="white"/>
<path d="M23.8807 43.9309H46.5887C46.817 43.9309 47.0059 44.1172 47.0059 44.3487V44.8004C47.0059 45.0291 46.8198 45.2182 46.5887 45.2182H23.8807C23.6523 45.2182 23.4663 45.0319 23.4663 44.8032V44.3515C23.4663 44.1228 23.6523 43.9337 23.8835 43.9337L23.8807 43.9309Z" fill="white"/>
<path d="M6.44097 55.2602H24.8334C25.0618 55.2602 25.2506 55.4465 25.2506 55.678V56.1297C25.2506 56.3584 25.0646 56.5476 24.8334 56.5476H6.44097C6.21265 56.5476 6.02661 56.3612 6.02661 56.1326V55.6809C6.02661 55.4522 6.21265 55.263 6.44379 55.263L6.44097 55.2602Z" fill="white"/>
<path d="M28.1878 55.2602H46.5887C46.817 55.2602 47.0059 55.4465 47.0059 55.678V56.1297C47.0059 56.3584 46.8199 56.5476 46.5887 56.5476H28.1878C27.9595 56.5476 27.7734 56.3612 27.7734 56.1326V55.6809C27.7734 55.4522 27.9595 55.263 28.1906 55.263L28.1878 55.2602Z" fill="white"/>
<path d="M52.7143 96.6831L51.8079 97.4968C51.3379 97.9205 50.6396 97.9003 50.2367 97.4565L34.1088 79.6424C33.7059 79.1985 33.7663 78.4991 34.2296 78.0822L35.1361 77.2618C35.6061 76.8448 36.3044 76.8583 36.7072 77.3021L52.8352 95.1229C53.238 95.5668 53.1843 96.2662 52.7143 96.6831Z" fill="#282828"/>
<path d="M107.39 82.2045C105.234 80.4426 88.5625 87.7929 88.7773 90.355C88.9922 92.9172 77.148 117.725 77.148 117.725L56.6825 101.323H56.6758C56.4945 100.738 54.5541 94.3563 54.4601 93.2131C54.3594 92.0161 50.9015 89.9246 49.2967 90.2273C47.692 90.5366 50.6732 92.5608 50.8679 92.9307C51.3983 93.9394 49.3437 94.3227 49.3437 94.3227C49.3437 94.3227 43.4283 91.0611 43.3075 89.1446C43.1799 87.228 41.9579 83.2065 40.6822 84.0471C40.0241 84.4842 40.0309 87.3356 40.2323 88.6873C39.8496 87.154 39.3124 85.419 38.7887 85.2442C37.8285 84.9281 37.3585 86.152 37.5264 86.7572C37.701 87.3558 39.2453 93.8789 39.7153 94.6119C40.1719 95.3314 49.7264 103.065 51.1029 104.739C51.1029 104.739 77.5777 135.156 79.4645 135.949C81.1162 136.649 87.0182 126.165 92.5844 119.211C98.1573 112.251 114.138 87.7122 107.403 82.2045H107.39Z" fill="#B97964"/>
<path d="M87.9178 142.049C87.9178 142.049 86.2794 158.619 86.2794 158.861C86.2794 185.666 80.9952 238.019 81.9957 243.056C84.4464 255.349 110.847 318.045 110.847 318.045L125.115 316.33L106.523 241.261L113.365 211.046L123.047 151.322L87.9178 142.042V142.049Z" fill="#282828"/>
<path d="M135.805 156.702L138.511 172.405L145.836 237.037L173.728 300.204C173.728 300.204 169.806 309.397 164.019 310.688L119.623 245.833L92.0471 162.849L93.014 144.409L135.805 156.702Z" fill="#353535"/>
<path d="M82.2309 102.594L102.011 104.625C102.011 104.625 102.918 88.3241 102.918 80.5502C102.918 71.1152 102.119 58.9702 100.984 59.2257C97.8015 59.9587 93.5177 61.7274 90.9663 65.2445C82.1436 77.4299 82.2241 102.588 82.2241 102.588L82.2309 102.594Z" fill="#505050"/>
<path d="M91.9464 78.8892C91.5301 81.7674 83.9294 159.95 83.9294 159.95C119.952 177.435 139.827 163.064 139.827 163.064C139.827 163.064 138.652 108.156 140.062 100.684C140.995 95.7416 142.163 62.884 138.974 61.9627C134.885 60.7792 130.192 59.5283 125.075 58.9971C120.711 58.5398 103.757 58.2775 100.722 59.2997C100.722 59.2997 93.6855 66.7844 91.9464 78.8824V78.8892Z" fill="#505050"/>
<path d="M79.451 135.949C79.3704 135.916 79.075 135.687 78.9071 135.546C79.545 127.886 79.4308 120.462 77.0405 117.954C77.0942 117.833 77.618 116.716 78.1685 115.56C80.9416 117.712 82.2576 123.441 81.7406 132.735C81.707 133.374 81.5257 133.865 81.378 134.658C80.5723 135.546 79.8471 136.118 79.4577 135.956L79.451 135.949Z" fill="#AE725E"/>
<path d="M175.507 160.784C175.527 160.616 175.534 160.448 175.514 160.28C174.983 154.866 170.511 109.393 169.753 107.463C169.075 105.715 149.005 76.8784 149.005 76.8784L139.142 90.3819L158.439 116.246C158.869 117.887 165.832 148.585 165.832 148.585C165.832 148.585 167.262 154.181 167.9 157.53C167.611 158.337 167.322 159.096 167.067 159.722C166.429 161.06 165.67 162.156 164.986 163.078C164.126 164.241 162.696 166.776 162.521 167.455C162.32 168.242 161.951 169.883 161.742 170.878C161.534 171.867 161.246 173.024 161.199 173.562C161.172 173.891 160.836 174.543 160.574 175.001C160.191 175.687 160.849 176.494 161.588 176.251C162.286 176.016 162.837 175.108 163.173 174.537C164.119 172.936 164.63 170.004 164.865 170.159C165.1 170.313 165.932 175.283 166.067 175.848C166.201 176.406 167.195 182.183 167.759 183.232C168.323 184.288 169.068 184.113 169.263 183.447C169.43 182.875 168.638 174.806 168.638 174.806C168.638 174.806 168.537 173.777 168.987 174.1C169.437 174.422 170.169 181.752 170.485 182.822C170.8 183.891 171.505 184.463 172.109 183.602C172.841 182.553 171.579 174.779 171.579 174.779C171.579 174.779 171.438 173.804 171.854 173.891C172.271 173.985 172.788 180.226 173.117 180.771C173.439 181.309 174.258 181.504 174.648 180.602C175.104 179.54 173.922 172.613 173.922 172.613C173.922 172.613 173.983 172.062 174.238 172.243C174.5 172.425 175.319 177.718 175.856 178.208C176.306 178.619 176.682 178.222 176.682 178.222C177.662 177.549 176.158 172.512 176.172 170.011C176.185 167.509 175.03 164.691 175.373 161.712C175.393 161.524 175.453 161.067 175.494 160.778L175.507 160.784Z" fill="#B97964"/>
<path d="M164.69 95.1431L147.548 106.71C147.548 106.71 137.886 92.2649 132.703 87.1204C126.21 80.678 135.066 60.9406 139.256 62.0569C148.616 64.5518 164.69 95.1431 164.69 95.1431Z" fill="#505050"/>
<path d="M123.82 42.0975L126.385 59.0778C126.385 59.0778 117.025 79.2927 111.432 77.5442C106.745 76.0714 109.626 58.1834 109.626 58.1834C109.626 58.1834 112.184 48.5736 111.418 43.772C110.653 38.9638 123.82 42.1043 123.82 42.1043V42.0975Z" fill="#B97964"/>
<path d="M111.418 43.7653C110.653 38.957 123.82 42.0975 123.82 42.0975L124.034 43.503C123.652 44.4445 123.175 45.2515 122.604 45.8702C119.663 49.051 115.064 50.9609 111.089 51.1088C111.485 48.513 111.727 45.7357 111.418 43.7653Z" fill="#B3725D"/>
<path d="M125.982 18.0764C126.351 17.9419 128.963 37.417 124.008 42.7767C119.052 48.1365 109.397 49.8916 105.933 45.6684C102.099 41.0014 102.293 20.0669 109.995 14.5593C117.696 9.04492 125.975 18.0831 125.975 18.0831L125.982 18.0764Z" fill="#B97964"/>
<path d="M112.936 4.13578C118.891 5.35298 122.745 9.01129 124.162 10.5715C126.868 10.8943 130.541 12.3939 134.334 18.7085C139.001 26.4757 135.557 35.0768 130.125 39.2933C124.693 43.5165 124.766 48.392 124.766 48.392L123.907 45.8702C123.276 43.9603 123.014 41.9361 123.229 39.9321C123.356 38.7284 123.612 37.4305 124.108 36.3612C125.418 33.5435 121.302 31.6673 120.147 29.3271C119.261 27.5181 119.214 23.389 117.817 20.4032L116.145 18.1235C116.145 18.1235 112.291 15.1107 108.518 15.9581C104.744 16.8054 105.288 2.56889 112.929 4.13578H112.936Z" fill="#282828"/>
<path d="M120.402 32.7903C120.362 35.1642 121.436 37.1144 122.806 37.1346C124.169 37.1615 125.31 35.2516 125.35 32.8778C125.391 30.5039 124.316 28.5537 122.947 28.5335C121.584 28.5133 120.442 30.4165 120.402 32.7903Z" fill="#B2725D"/>
<path d="M112.358 38.2778L104.892 37.8878C104.892 37.8878 104.919 40.7458 108.195 41.0148C112.197 41.3376 112.358 38.2778 112.358 38.2778Z" fill="white"/>
</g>
<defs>
<clipPath id="clip0_130_5241">
<rect width="182" height="184" fill="white"/>
</clipPath>
</defs>
</svg>
