<svg width="42" height="41" viewBox="0 0 42 41" fill="none" xmlns="http://www.w3.org/2000/svg">
<path d="M21.3398 0C10.0155 0 0.839844 9.23371 0.839844 20.5C0.839844 31.7663 10.0736 41 21.3398 41C32.6061 41 41.8398 31.7663 41.8398 20.5C41.8398 9.23371 32.6642 0 21.3398 0ZM39.5169 19.3385H30.8059C30.5155 13.7054 28.2506 8.07224 23.9532 2.49717C32.3738 3.71671 38.9942 10.7436 39.5169 19.3385ZM14.1968 19.3385C14.4872 13.8796 16.8682 8.47875 21.3398 2.96176C25.8115 8.47875 28.1925 13.8796 28.4829 19.3385H14.1387H14.1968ZM28.4829 21.6615C28.1925 27.1204 25.8115 32.5212 21.3398 38.0382C16.8682 32.5212 14.4872 27.1204 14.1968 21.6615H28.541H28.4829ZM18.7846 2.49717C14.4872 8.07224 12.1642 13.7054 11.9319 19.3385H3.22086C3.74353 10.6856 10.3639 3.71671 18.7846 2.49717ZM3.16279 21.6615H11.8738C12.1642 27.2946 14.4291 32.9278 18.7265 38.5028C10.3058 37.2833 3.68545 30.2564 3.16279 21.6615ZM23.8951 38.5028C28.1925 32.9278 30.5155 27.2946 30.7478 21.6615H39.4588C38.9362 30.3144 32.3158 37.2833 23.8951 38.5028Z" fill="#00FF00"/>
</svg>
