<svg width="636" height="427" viewBox="0 0 636 427" fill="none" xmlns="http://www.w3.org/2000/svg">
<path d="M624.124 160.825L570.652 129.953L600.357 112.787L629.268 131.065L624.124 160.825Z" fill="#393939"/>
<path d="M601.58 153.504L609.264 138.243L590.99 127.667C585.179 124.332 577.447 124.713 568.938 129.62C550.886 140.037 536.264 166.923 536.264 189.664C536.264 201.574 540.28 209.975 546.695 213.786L546.949 213.945C546.949 213.945 546.98 213.945 546.98 213.96L565.715 224.775L573.812 208.688C589.148 196.937 600.992 173.799 601.58 153.504Z" fill="#2C2C2C"/>
<path d="M601.58 153.504L609.264 138.243L590.99 127.667C585.179 124.332 577.447 124.713 568.938 129.62C550.886 140.037 536.264 166.923 536.264 189.664C536.264 201.574 540.28 209.975 546.695 213.786L546.949 213.945C546.949 213.945 546.98 213.945 546.98 213.96L565.715 224.775L573.812 208.688C589.148 196.937 600.992 173.799 601.58 153.504Z" fill="#393939"/>
<path d="M620.631 162.889C620.631 182.502 609.756 205.179 595.181 217.74C595.15 217.74 595.134 217.788 595.118 217.804C592.8 219.773 590.403 221.52 587.958 222.933C569.906 233.366 555.268 223.378 555.284 200.637C555.284 183.454 563.635 163.906 575.494 150.884C575.526 150.852 575.574 150.82 575.59 150.788C579.4 146.612 583.576 143.118 587.942 140.609C605.993 130.192 620.616 140.164 620.616 162.905L620.631 162.889Z" fill="#2C2C2C"/>
<path d="M587.942 154.314C599.42 147.676 608.74 154.6 608.74 169.75C608.74 184.899 599.436 202.574 587.942 209.212C576.463 215.85 567.144 208.926 567.144 193.777C567.144 178.627 576.447 160.952 587.942 154.314Z" fill="#262626"/>
<path d="M597.309 177.499C596.579 185.042 591.784 193.078 586.624 195.428C584.354 196.46 582.385 196.222 580.972 194.999C579.13 193.459 578.178 190.267 578.59 186.043C579.321 178.5 584.1 170.464 589.275 168.114C590.672 167.479 591.974 167.32 593.07 167.59C596.055 168.304 597.833 172.02 597.293 177.515L597.309 177.499Z" fill="#FAFAFA"/>
<path d="M595.451 176.53C594.721 184.074 589.926 192.109 584.766 194.459C583.369 195.095 582.083 195.253 580.972 194.983C579.13 193.443 578.178 190.251 578.59 186.027C579.321 178.484 584.1 170.448 589.275 168.098C590.672 167.463 591.974 167.304 593.07 167.574C594.896 169.13 595.848 172.306 595.435 176.53H595.451Z" fill="#BEBEBE"/>
<path d="M620.631 162.889C620.631 182.502 609.756 205.179 595.181 217.74C603.818 208.355 612.741 192.617 615.9 177.626C618.663 164.525 617.631 145.707 606.374 140.943C595.213 136.21 580.273 146.215 575.59 150.773C579.4 146.596 583.576 143.102 587.942 140.593C605.993 130.176 620.616 140.149 620.616 162.889H620.631Z" fill="#262626"/>
<path d="M629.395 86.6635C624.458 74.9914 607.819 62.97 594.8 60.0797C591.022 50.2974 506.638 3.46624 493.667 8.50031C493.651 8.50031 493.619 8.5162 493.604 8.53208C491.349 6.43587 488.761 5.05427 485.792 4.19673C479.474 2.56106 453.452 -6.25254 422.477 7.97627C413.443 6.7376 403.616 6.03885 394.439 6.62643C393.343 6.68995 391.311 7.30929 388.517 8.37328C387.596 8.38916 386.628 8.48444 385.58 8.65912C365.702 14.9001 249.375 77.6434 191.378 111.278C174.375 121.076 162.404 128.413 159.292 131.224C159.07 131.414 158.895 131.589 158.768 131.732C135.445 151.837 114.425 173.354 96.3099 196.651C96.0876 197.048 95.9289 197.477 95.8654 197.937C29.5492 245.07 -6.76039 264.825 1.05086 318.819C1.05086 318.819 1.13024 319.978 1.41602 322.296C1.47952 322.773 1.54303 323.297 1.62241 323.884C1.62241 323.932 1.62241 323.964 1.63829 324.011C1.71767 324.567 1.81293 325.187 1.90819 325.838C1.90819 325.901 1.92406 325.965 1.93994 326.028C2.0352 326.695 2.16221 327.394 2.27335 328.156C2.27335 328.204 2.28922 328.267 2.3051 328.315C2.43211 329.109 2.575 329.935 2.73377 330.824V330.856C2.86078 331.523 2.98779 332.222 3.14656 332.936C3.21006 333.27 3.28944 333.603 3.36883 333.937C3.44821 334.334 3.54347 334.715 3.63873 335.128C3.74986 335.588 3.861 336.065 3.98801 336.541C4.05152 336.779 4.11502 337.033 4.17853 337.272C7.32208 349.484 14.1807 365.745 28.2949 375.718C43.7269 386.612 44.7906 387.406 65.7159 398.697C86.6411 409.988 114.838 418.23 142.304 417.356C157.482 416.864 171.723 413.783 182.392 409.908C182.408 409.908 182.424 409.908 182.44 409.892C184.409 409.178 186.25 408.447 187.949 407.685C188.013 407.653 188.076 407.637 188.14 407.606C188.981 407.225 189.791 406.859 190.569 406.478C191.299 406.113 191.998 405.748 192.664 405.382C192.76 405.335 192.855 405.287 192.95 405.224C193.617 404.858 194.252 404.477 194.855 404.112C194.871 404.112 194.903 404.08 194.919 404.064C195.475 403.715 195.983 403.366 196.475 403.032C196.57 402.969 196.665 402.889 196.761 402.826C197.253 402.46 197.713 402.111 198.126 401.762C198.158 401.746 198.174 401.714 198.189 401.698C198.57 401.365 198.904 401.047 199.221 400.729C199.301 400.65 199.38 400.571 199.444 400.491C199.761 400.158 200.031 399.824 200.269 399.491C200.269 399.475 200.285 399.459 200.301 399.443C200.507 399.141 200.682 398.824 200.809 398.538C200.841 398.459 200.873 398.379 200.904 398.3C201.031 397.982 201.127 397.68 201.158 397.395C201.333 395.807 201.571 394.219 201.857 392.615C202.143 391.011 202.492 389.423 202.889 387.819C204.842 379.831 207.985 371.859 212.034 364.491C214.352 360.266 216.955 356.249 219.797 352.517C223.592 347.562 227.799 343.131 232.26 339.527C233.372 338.621 234.515 337.764 235.658 336.97C236.865 336.128 238.087 335.35 239.31 334.635C240.548 333.921 241.786 333.286 242.993 332.714C247.248 330.761 251.28 329.776 255.027 329.697C257.695 329.633 260.203 330.03 262.505 330.856C262.966 331.015 263.426 331.205 263.871 331.396C271.444 334.778 276.588 343.084 277.699 355.201C277.731 355.582 277.763 355.995 277.778 356.407C277.778 356.534 277.778 356.677 277.778 356.804C277.778 357.122 277.794 357.44 277.81 357.757C277.81 357.884 277.81 358.027 277.81 358.154C277.81 358.44 277.81 358.726 277.81 359.028V360.854L544.678 206.767C544.678 204.702 544.789 202.59 545.012 200.446C547.425 175.435 565.762 146.421 585.417 135.083C606.74 122.76 624.029 134.273 624.029 160.793L627.474 158.792C639.763 151.376 635.905 102.258 629.3 86.6317L629.395 86.6635Z" fill="#2C2C2C"/>
<path d="M359.543 246.325C362.94 244.498 414.682 216.501 456.691 193.348C456.246 191.887 455.738 190.775 455.31 189.949C412.173 215.596 363.178 244.101 359.543 246.309V246.325ZM346.54 251.756L273.698 293.489L348.731 256.599C348.778 253.137 346.54 251.756 346.54 251.756ZM609.264 70.942C604.914 68.5282 600.881 65.2885 595.658 67.2577C595.277 67.4006 594.912 67.5594 594.61 67.8453C594.086 68.3217 593.911 69.0363 593.737 69.735C589.545 85.9807 576.241 98.1609 565.508 110.452C554.982 122.49 543.456 134.511 516.18 152.773C507.004 158.919 486.586 171.322 463.422 185.154C463.994 186.059 464.597 187.25 465.153 188.711C479.759 180.628 492.572 173.481 500.859 168.701C534.406 149.327 576.463 126.793 594.928 110.452C613.36 94.0955 623.505 78.8821 609.264 70.9578V70.942ZM468.884 3.48217C454.198 0.750748 441.529 4.19678 432.955 7.53166C424.382 10.8665 411.649 18.3144 411.649 18.3144C411.649 18.3144 407.632 23.5708 427.446 18.9179C441.878 15.5354 456.611 12.0258 462.121 10.803C475.187 7.91279 485.332 6.54708 468.884 3.48217Z" fill="#262626"/>
<path d="M344.635 257.536L340.348 260.014C337.443 261.697 335.093 264.333 335.093 265.905V267.986C335.093 268.335 335.458 268.541 335.76 268.367L348.905 260.776C349.525 260.427 349.906 259.759 349.906 259.045V257.346C349.906 255.774 347.556 255.853 344.65 257.536H344.635ZM527.024 150.915L522.737 153.393C519.832 155.076 517.482 157.712 517.482 159.284V161.365C517.482 161.714 517.847 161.921 518.149 161.746L531.295 154.155C531.914 153.806 532.295 153.139 532.295 152.424V150.725C532.295 149.153 529.945 149.232 527.04 150.915H527.024Z" fill="#393939"/>
<path opacity="0.15" d="M280.874 325.425C279.048 312.038 279.223 289.63 279.223 289.63C277.016 299.667 277.937 323.964 279.223 339.527C280.509 355.105 283.43 353.644 286.558 351.341L355.224 310.799L286.558 343.989C283.351 345.688 282.7 338.812 280.874 325.425ZM351.064 248.516C351.064 248.516 355.224 253.376 355.224 263.952C355.224 276.656 355.351 306.829 355.351 306.829C355.351 306.829 357.7 273.242 359.129 262.697C360.558 252.153 355.208 246.213 355.208 246.213L351.064 248.5V248.516ZM466.47 21.0458C477.171 14.6301 483.3 10.3583 482.077 9.62779C480.791 8.88141 471.789 11.7875 458.215 16.9328C459.675 17.6156 461.12 18.3302 462.549 19.029C463.867 19.6959 465.169 20.347 466.486 21.0299L466.47 21.0458ZM549.727 125.983C549.727 125.983 560.586 129.731 563.587 132.923C566.588 136.131 570.636 143.515 570.636 143.515C570.636 143.515 568.779 134.463 566.175 131.065C563.555 127.667 549.727 125.983 549.727 125.983ZM631.983 95.4612C631.983 95.4612 630.729 112.787 627.76 117.98C624.791 123.172 610.994 131.065 610.994 131.065C610.994 131.065 626.267 124.808 629.713 120.06C633.158 115.312 631.967 95.4612 631.967 95.4612H631.983ZM460.247 184.598L456.103 186.884C456.103 186.884 460.263 191.744 460.263 202.32C460.263 215.024 460.39 245.197 460.39 245.197C460.39 245.197 462.739 211.61 464.168 201.066C465.597 190.521 460.247 184.582 460.247 184.582V184.598ZM536.787 177.864C534.962 193.364 534.311 200.986 531.104 202.987L462.438 249.104L531.104 210.34C534.215 209.053 537.153 207.116 538.439 190.061C539.725 173.005 540.645 147.644 538.439 140.164C538.439 140.164 538.629 162.365 536.787 177.864Z" fill="black"/>
<path d="M580.543 93.4603C576.542 98.3673 573.859 101.115 569.7 105.736C569.7 105.736 553.077 104.767 533.12 104.021C517.085 103.433 493.223 104.053 493.223 104.053C489.206 104.211 351.604 181.199 346.27 184.105C345.714 184.375 309.928 203.003 301.022 210.499C296.211 214.532 294.274 218.042 290.384 224.203C290.988 222.949 295.02 213.77 287.082 210.181C278.556 206.306 244.279 193.316 219.448 180.215C198.602 169.226 167.722 141.34 163.404 139.783C158.054 137.83 147.162 146.247 147.162 146.247C149.004 143.753 151.147 140.53 158.768 131.732C166.897 122.315 343.364 25.3812 384.564 8.99266C388.184 7.54754 393.153 6.69 394.439 6.6106C412.602 5.45134 433.305 9.31027 445.434 12.4546C447.8 13.0739 449.864 13.6456 451.499 14.1696C451.547 14.1696 451.594 14.2014 451.642 14.2173C452.039 14.3602 452.452 14.5031 452.896 14.6778C456.214 15.8688 459.406 17.4569 462.549 19.029C474.314 24.873 485.729 31.4316 497.096 38.0378C510.877 46.0574 524.547 54.2834 538.121 62.6842C551.839 71.1484 566.112 79.2474 577.813 90.4589C578.511 91.1259 579.861 92.3011 580.543 93.4444V93.4603Z" fill="#393939"/>
<path d="M296.735 213.468C296.735 213.468 310.5 201.907 331.425 189.664C349.175 179.278 457.246 116.01 486.761 102.719C493.365 99.7489 507.13 99.479 510.417 99.4631C526.896 99.3996 543.44 99.9077 559.935 100.051C560.682 100.051 561.475 100.051 562.126 99.6854C562.777 99.3201 563.206 98.4467 562.825 97.7956C562.571 97.3669 562.063 97.1763 561.602 97.0016C550.219 92.9839 532.31 91.5864 521.514 86.1077C512.242 81.4071 503.193 76.246 494.175 71.1007C469.36 56.9354 445.958 43.5007 421.318 27.0962C398.344 11.8035 394.979 7.03936 385.596 8.65915C359.447 16.8693 166.5 122.791 158.784 131.732C158.752 131.764 158.72 131.795 158.688 131.843L158.784 136.337C158.784 136.337 160.133 137.544 162.515 139.577C162.832 139.625 163.134 139.688 163.42 139.783C167.325 141.213 193.045 164.223 213.351 176.721C215.383 177.928 217.416 179.103 219.448 180.231C240.849 191.522 269.252 202.717 282.16 208.085C290.956 211.436 296.735 213.484 296.735 213.484V213.468Z" fill="#262626"/>
<path d="M538.169 69.3381C509.195 52.6002 488.571 39.8482 466.074 26.8581C457.882 22.1257 450.166 18.6162 439.354 16.917C433.734 16.0277 424.382 14.3761 419.349 14.4555C410.776 14.789 415.777 19.6484 432.924 29.5419C450.039 39.4512 496.843 67.9088 506.797 73.6575C516.768 79.4221 531.755 87.1876 551.442 90.3795C571.113 93.5715 585.878 96.8746 538.185 69.3381H538.169Z" fill="#262626"/>
<path d="M539.979 104.862C534.327 101.353 508.972 101.496 498.541 101.019C496.953 100.94 490.412 100.987 484.617 103.528C453.293 117.265 352.033 177.896 346.269 180.945C345.809 181.183 345.349 181.437 344.888 181.707C339.395 184.979 310.182 202.209 301.609 207.021C293.035 211.832 291.718 217.883 287.542 226.554C283.367 235.224 259.711 283.898 258.425 290.615C257.139 297.332 292.67 279.102 292.67 279.102C292.67 279.102 332.806 255.916 344.904 248.929C346.952 247.754 347.508 247.404 349.969 245.848C352.43 244.292 515.434 149.089 527.627 139.053C533.707 134.066 535.422 130.525 537.756 121.727C540.534 111.278 543.503 107.038 539.979 104.846V104.862Z" fill="black"/>
<path d="M554.14 105.212C545.789 105.212 545.44 109.563 542.725 118.17C540.582 124.935 537.28 130.938 541.312 128.953C545.345 126.968 559.237 112.104 561.825 109.531C567.175 104.211 557.967 105.212 554.156 105.212H554.14Z" fill="black"/>
<path d="M443.815 131.97C418.476 146.485 405.393 153.742 367.322 175.26C365.099 176.515 363.305 179.595 363.305 182.136V227.903C363.305 230.444 365.115 231.524 367.322 230.254C407.156 207.259 416.698 200.986 443.799 185.535C446.006 184.28 447.8 181.183 447.8 178.643V134.289C447.8 131.748 446.006 130.7 443.799 131.97H443.815ZM346.714 186.9H346.682C341.157 190.203 315.437 204.543 306.197 209.72C302.006 212.071 298.862 217.438 295.639 225.236C292.416 233.033 274.984 269.589 268.824 284.819C269.03 284.739 298.481 271.066 318.438 259.235C333.981 250.009 341.395 246.547 345.38 244.07C349.365 241.592 349.73 238.75 349.73 236.114V190.95C349.73 189.933 349.683 189.092 349.619 188.393C349.492 186.98 347.936 186.186 346.714 186.9ZM492.19 105.72C490.174 106.069 488.904 106.403 484.966 108.515C475.472 113.581 470.884 116.042 465.359 119.139H465.327C464.105 119.853 462.549 122.442 462.422 123.998C462.358 124.776 462.311 125.666 462.311 126.666V168.003C462.311 170.623 462.66 173.069 466.661 170.941C470.662 168.813 521.816 138.481 525.88 135.178C531.119 130.922 534.962 113.358 535.946 109.102C537.2 103.767 498.001 104.704 492.174 105.704L492.19 105.72Z" fill="#393939"/>
<path d="M451.896 132.589C451.578 132.589 451.324 132.844 451.324 133.161V176.387C451.324 176.705 451.578 176.959 451.896 176.959C452.213 176.959 452.467 176.705 452.467 176.387V133.161C452.467 132.844 452.213 132.589 451.896 132.589ZM455.008 130.795C454.69 130.795 454.436 131.049 454.436 131.367V174.593C454.436 174.911 454.69 175.165 455.008 175.165C455.325 175.165 455.579 174.911 455.579 174.593V131.367C455.579 131.049 455.325 130.795 455.008 130.795ZM458.119 129C457.802 129 457.548 129.255 457.548 129.572V172.799C457.548 173.116 457.802 173.37 458.119 173.37C458.437 173.37 458.691 173.116 458.691 172.799V129.572C458.691 129.255 458.437 129 458.119 129ZM353.319 189.425C353.001 189.425 352.747 189.679 352.747 189.997V233.223C352.747 233.541 353.001 233.795 353.319 233.795C353.636 233.795 353.89 233.541 353.89 233.223V189.997C353.89 189.679 353.636 189.425 353.319 189.425ZM359.558 185.82C359.241 185.82 358.987 186.075 358.987 186.392V229.618C358.987 229.936 359.241 230.19 359.558 230.19C359.876 230.19 360.13 229.936 360.13 229.618V186.392C360.13 186.075 359.876 185.82 359.558 185.82ZM356.446 187.615C356.129 187.615 355.875 187.869 355.875 188.187V231.413C355.875 231.731 356.129 231.985 356.446 231.985C356.764 231.985 357.018 231.731 357.018 231.413V188.187C357.018 187.869 356.764 187.615 356.446 187.615Z" fill="#BEBEBE"/>
<path d="M104.867 187.218L103.661 192.22C100.898 197.397 94.7858 203.94 92.5948 203.4C90.642 202.924 89.4354 200.065 88.8162 196.54V196.492C88.5305 194.888 88.3558 193.125 88.3082 191.379C88.1177 185.836 90.5944 172.894 98.2786 169.464C100.041 168.686 101.613 169.305 102.835 170.48C103.851 171.48 104.645 172.846 105.058 174.148C106.344 178.039 105.026 186.996 104.852 187.202L104.867 187.218Z" fill="#393939"/>
<path d="M103.661 192.22C100.898 197.397 94.7858 203.94 92.5948 203.4C90.642 202.924 89.4354 200.065 88.8162 196.54V196.492C88.5305 194.888 88.3558 193.125 88.3082 191.379C88.1177 185.836 90.5944 172.894 98.2786 169.464C100.041 168.686 101.613 169.305 102.835 170.48L101.787 172.862C96.4052 175.165 94.9604 183.47 95.4526 189.791C95.9289 196.111 100.565 195.46 103.661 192.204V192.22Z" fill="#262626"/>
<path d="M105.058 174.18C103.105 172.116 98.2787 172.02 94.2143 177.61C90.1499 183.2 88.8163 192.792 88.8004 196.508C88.5146 194.904 88.34 193.141 88.2924 191.394C88.1019 185.852 90.5627 172.91 98.2628 169.48C101.486 168.05 104.137 171.338 105.058 174.18Z" fill="#2C2C2C"/>
<path d="M277.89 360.886L224.417 329.474L254.138 312.323L277.89 326.092V360.886Z" fill="#393939"/>
<path d="M255.885 352.675L263.569 337.414L245.295 326.838C239.484 323.503 231.753 323.884 223.243 328.791C205.191 339.209 190.569 366.094 190.569 388.835C190.569 400.745 194.586 409.146 201 412.957L201.254 413.116C201.254 413.116 201.285 413.116 201.285 413.132L220.02 423.947L228.117 407.86C243.454 396.108 255.297 372.971 255.885 352.675Z" fill="#2C2C2C"/>
<path d="M255.885 352.675L263.569 337.414L245.295 326.838C239.484 323.503 231.753 323.884 223.243 328.791C205.191 339.209 190.569 366.094 190.569 388.835C190.569 400.745 194.586 409.146 201 412.957L201.254 413.116C201.254 413.116 201.285 413.116 201.285 413.132L220.02 423.947L228.117 407.86C243.454 396.108 255.297 372.971 255.885 352.675Z" fill="#393939"/>
<path d="M274.921 362.061C274.921 381.673 264.046 404.35 249.471 416.912C249.439 416.912 249.423 416.959 249.407 416.975C247.089 418.944 244.692 420.691 242.247 422.104C224.196 432.538 209.557 422.549 209.573 399.808C209.573 382.626 217.924 363.077 229.784 350.055C229.816 350.023 229.863 349.992 229.879 349.96C233.69 345.783 237.865 342.29 242.231 339.781C260.283 329.363 274.905 339.336 274.905 362.077L274.921 362.061Z" fill="#2C2C2C"/>
<path d="M242.247 353.501C253.726 346.863 263.045 353.787 263.045 368.937C263.045 384.087 253.742 401.762 242.247 408.4C230.768 415.038 221.449 408.114 221.449 392.964C221.449 377.814 230.752 360.139 242.247 353.501Z" fill="#262626"/>
<path d="M251.646 376.75C250.852 384.293 246.01 392.281 240.818 394.584C238.532 395.6 236.579 395.346 235.166 394.107C233.34 392.551 232.419 389.359 232.864 385.135C233.658 377.592 238.484 369.604 243.692 367.301C245.105 366.666 246.391 366.523 247.502 366.809C250.487 367.555 252.218 371.271 251.646 376.766V376.75Z" fill="#FAFAFA"/>
<path d="M249.788 375.781C248.994 383.325 244.152 391.312 238.96 393.631C237.563 394.25 236.277 394.409 235.15 394.123C233.324 392.567 232.403 389.375 232.848 385.151C233.642 377.608 238.468 369.62 243.676 367.317C245.089 366.682 246.375 366.539 247.486 366.825C249.296 368.397 250.217 371.589 249.788 375.797V375.781Z" fill="#BEBEBE"/>
<path d="M274.921 362.061C274.921 381.673 264.045 404.35 249.471 416.912C258.107 407.526 267.03 391.789 270.189 376.798C272.952 363.696 271.92 344.878 260.663 340.114C249.502 335.382 234.562 345.386 229.879 349.944C233.689 345.768 237.865 342.274 242.231 339.765C260.282 329.347 274.905 339.32 274.905 362.061H274.921Z" fill="#262626"/>
<path d="M278.001 283.453C278.001 283.453 274.905 282.865 275.619 280.166C275.619 280.166 257.409 288.503 253.583 289.773C245.232 292.521 213.876 281.373 180.186 263.063C173.454 259.045 154.894 249.612 135.287 235.923C126.983 230.349 119.807 225.045 113.425 219.852C106.693 214.389 101.692 209.006 98.6439 205.242C97.5642 203.924 95.3574 200.319 96.6593 197.365C29.8351 244.911 -6.80791 264.603 1.05096 318.819C1.05096 318.819 1.30499 322.789 2.74975 330.808C4.95658 343.036 11.4818 363.839 28.295 375.718C43.727 386.612 44.7907 387.406 65.716 398.697C86.6412 409.988 114.838 418.23 142.304 417.356C173.263 416.356 200.349 404.557 201.19 397.395C201.555 394.219 202.127 391.027 202.921 387.819C204.874 379.831 208.017 371.859 212.066 364.49C218.242 353.231 226.513 343.37 235.706 336.986C236.912 336.144 238.135 335.366 239.357 334.651C259.251 323.154 275.651 332.412 277.747 355.232C277.905 356.884 277.874 359.107 277.874 360.901L277.969 283.453H278.001Z" fill="#262626"/>
<path d="M277.762 355.216C277.874 356.455 277.889 357.995 277.889 359.44L277.985 283.437C277.985 283.437 276.302 283.119 275.698 281.849L260.965 289.614C256.52 305.892 243.945 300.175 205.953 331.046C172.739 358.027 167.786 384.325 165.214 414.657C185.552 410.528 200.587 402.683 201.206 397.379C201.571 394.203 202.143 391.011 202.936 387.803C204.889 379.815 208.033 371.843 212.081 364.475C218.257 353.215 226.529 343.354 235.721 336.97C236.928 336.128 238.151 335.35 239.373 334.635C259.266 323.138 275.667 332.396 277.762 355.216Z" fill="#2C2C2C"/>
<path opacity="0.1" d="M219.083 304.653C190.41 313.562 141.098 326.886 139.002 329.808C136.906 332.714 148.798 332.571 165.532 340.781C174.184 345.037 175.216 350.754 181.71 345.593C188.203 340.432 235.325 306.67 246.47 301.89C259.013 296.507 247.597 295.792 219.099 304.653H219.083ZM89.7372 211.594C86.7366 210.943 41.5203 244.498 35.646 250.342C29.7717 256.202 32.3119 256.043 37.2813 265.762C43.362 277.641 36.2969 288.074 40.5836 287.232C42.711 286.82 51.9035 267.858 65.3509 249.421C79.0682 230.603 94.8653 212.69 89.7531 211.578L89.7372 211.594Z" fill="white"/>
<path d="M43.7112 293.585L102.184 216.454C102.184 216.454 69.2248 245.912 43.7112 293.585ZM110.504 332.158L237.944 295.522C162.134 305.463 110.504 332.158 110.504 332.158ZM119.871 383.594C88.8164 382.578 61.4453 365.491 40.3295 353.088C19.2138 340.686 4.97257 323.043 0.939941 311.45C3.49606 326.219 16.7212 345.688 39.2499 359.361C60.9214 372.51 83.3866 388.676 119.871 387.866C156.355 387.056 172.343 361.553 172.343 361.553C172.343 361.553 150.925 384.611 119.871 383.594Z" fill="#2C2C2C"/>
<path d="M167.643 357.376C180.471 361.092 193.03 367.174 205.302 375.48C189.14 358.011 167.643 357.376 167.643 357.376Z" fill="#393939"/>
<path d="M195.348 365.57C195.348 365.57 197.237 366.698 198.237 367.365C205.62 348.61 219.623 333.873 231.308 329.808C218.639 330.808 201.857 343.814 195.348 365.57ZM193.093 393.44C193.093 385.754 194.411 378.481 196.777 371.43L194.173 370.112C192.633 377.115 192.125 384.928 193.093 393.44Z" fill="#262626"/>
<path opacity="0.2" d="M1.41602 322.312C1.67004 324.297 2.08283 327.124 2.74964 330.824C3.63873 335.731 5.24225 342.036 7.90951 348.578C8.97323 349.563 9.92582 350.214 10.5609 350.166C13.0217 350.008 10.9102 345.768 9.16375 339.447C7.41733 333.127 3.01954 326.997 1.41602 322.296V322.312ZM161.689 388.136C159.784 387.866 155.069 389.137 147.035 391.455C139.002 393.758 137.065 393.98 134.08 396.029C131.556 397.776 124.824 403.254 121.585 404.922C116.441 407.574 121.633 409.495 136.001 409.511C150.354 409.511 155.275 405.208 158.593 400.793C161.912 396.378 166.024 388.74 161.705 388.136H161.689Z" fill="white"/>
<path d="M95.0874 402.222C75.8133 397.41 61.8261 389.835 48.1565 381.768C34.4709 373.701 25.5801 366.158 20.4837 359.774C15.6731 353.724 12.7519 345.879 15.7843 346.99C20.833 351.341 31.7402 360.584 38.6941 364.792C59.5082 377.417 81.6083 393.059 115.6 393.647C118.553 393.647 120.998 393.806 122.141 394.155C130.444 396.632 108.186 405.509 95.0874 402.238V402.222Z" fill="#393939"/>
<path opacity="0.85" d="M41.0596 304.828C58.492 317.643 78.7822 329.395 102.152 339.987C105.328 341.432 106.931 345.244 104.867 348.07C101.803 352.263 97.4053 356.042 93.3092 358.281C90.245 359.949 84.7041 359.441 81.4335 358.202C63.0803 351.23 47.7912 342.496 35.5504 331.983C32.899 329.713 29.8031 325.075 29.692 321.582C29.5332 316.595 30.2794 309.91 31.9941 305.527C33.2642 302.271 38.2494 302.764 41.0596 304.828Z" fill="#BEBEBE"/>
<path d="M88.1018 355.55C86.276 355.55 84.2438 355.2 82.7673 354.645C64.9062 347.848 49.8394 339.257 38.0114 329.093C35.741 327.14 33.5342 323.424 33.4707 321.455C33.3119 316.437 34.1216 310.545 35.4553 307.035C36.0586 305.797 38.059 307.337 38.8052 307.877C56.5869 320.947 77.3693 332.904 100.581 343.433C101.248 343.735 101.787 344.322 101.946 344.942C102.057 345.386 101.93 345.641 101.803 345.815C99.1836 349.388 95.2303 352.882 91.4835 354.946C90.8008 355.328 89.5307 355.55 88.1018 355.55Z" fill="#393939"/>
<path d="M103.057 346.609L103.264 346.006C99.9456 344.878 79.6713 335.827 65.3825 327.315C66.3351 325.393 67.0019 324.218 67.0178 324.186L63.7154 322.312C63.6361 322.455 63.0169 323.551 62.1119 325.345C48.0453 316.611 34.5662 306.924 34.4233 306.829L34.0581 307.337C34.201 307.432 47.7278 317.167 61.8261 325.917C61.5721 326.441 61.3022 326.997 61.0164 327.6C46.934 318.882 34.2963 309.656 34.1534 309.56L33.7882 310.069C33.9152 310.164 46.6164 319.422 60.7465 328.172C60.4925 328.712 60.2385 329.284 59.9686 329.871C45.8385 321.137 34.0105 312.387 33.8835 312.292L33.5025 312.8C33.6295 312.895 45.521 321.693 59.6987 330.459C59.4605 331.015 59.2065 331.586 58.9684 332.19C44.7589 323.408 33.7247 315.119 33.6136 315.039L33.2326 315.547C33.3437 315.627 44.4414 323.98 58.7143 332.793C58.4762 333.365 58.2539 333.953 58.0158 334.54C43.6475 325.695 33.4389 317.85 33.3437 317.771L32.9627 318.279C33.0579 318.358 43.3459 326.267 57.7935 335.144C57.5712 335.731 57.3648 336.319 57.1426 336.922C42.5679 327.982 33.169 320.581 33.0897 320.518L32.6928 321.01C32.788 321.09 42.2345 328.522 56.8885 337.51C56.8885 337.51 56.9203 337.51 56.9362 337.526C56.7298 338.113 56.5393 338.717 56.3329 339.336C56.2059 339.257 56.063 339.177 55.936 339.098C41.3137 330.141 32.8991 323.313 32.8198 323.249L32.4229 323.742C32.5022 323.805 40.9485 330.649 55.6026 339.638C55.7772 339.749 55.9518 339.844 56.1265 339.955C55.6819 341.385 55.2691 342.861 54.9199 344.354L58.6032 345.244C58.8731 344.132 59.1748 343.036 59.4923 341.956C73.289 349.897 88.6574 356.296 91.674 357.313L91.8804 356.709C88.8638 355.693 73.4636 349.277 59.6828 341.321C59.8733 340.718 60.0638 340.114 60.2702 339.511C74.6226 347.832 90.9119 354.613 93.5792 355.518L93.7855 354.915C91.1183 354.01 74.8131 347.229 60.4766 338.891C60.683 338.288 60.8894 337.7 61.1117 337.113C75.7498 345.672 92.8647 352.834 95.4685 353.724L95.6748 353.12C93.0711 352.247 75.9562 345.069 61.334 336.509C61.5562 335.906 61.7785 335.318 62.0167 334.747C76.4166 343.211 94.1666 350.849 97.3577 351.929L97.5642 351.326C94.373 350.246 76.623 342.607 62.2548 334.143C62.493 333.556 62.7311 332.968 62.9851 332.412C77.4169 340.924 96.2623 349.118 99.2629 350.135L99.4693 349.531C96.4687 348.515 77.6391 340.321 63.255 331.809C63.5091 331.205 63.7631 330.649 64.0171 330.11C78.7822 338.86 98.4691 347.435 101.168 348.356L101.375 347.753C98.6914 346.847 79.0204 338.272 64.3029 329.538C64.5887 328.934 64.8586 328.379 65.0967 327.855C79.4332 336.382 99.7392 345.45 103.057 346.578V346.609Z" fill="#BEBEBE"/>
<path d="M27.1358 264.111C22.0871 262.92 16.6097 267.716 13.7996 271.527C9.73519 277.021 7.84589 284.199 8.4492 290.996C8.86199 295.665 10.6878 303.526 15.5777 305.876C16.2763 306.21 17.0225 306.432 17.8481 306.511C19.9279 306.734 22.0077 305.749 23.5478 304.336C25.0878 302.906 26.1833 301.08 27.1835 299.238C31.8512 290.774 42.9647 267.874 27.1517 264.127L27.1358 264.111ZM164.325 348.07C162.166 344.783 157.101 342.941 153.529 341.909C142.526 338.733 130.286 340.13 120.299 345.704C117.997 346.99 115.774 348.515 114.139 350.579C112.488 352.644 111.472 355.296 111.805 357.916C113.361 370.128 131.492 371.732 140.78 370.112C146.813 369.064 152.544 366.476 157.355 362.696C158.768 361.584 160.61 359.98 162.15 358.122C164.706 355.058 166.484 351.342 164.341 348.07H164.325Z" fill="#F0F0F0"/>
<path d="M185.139 154.568C178.36 149.502 172.009 144.277 166.119 138.815C163.579 136.512 161.134 134.146 158.768 131.732C135.446 151.836 114.425 173.354 96.3101 196.651C92.8173 202.701 107.741 216.74 129.794 232.302C175.613 264.603 252.329 303.462 259.568 290.933L296.195 211.07C252.376 195.126 214.669 176.578 185.139 154.568ZM255.313 288.074C255.012 288.169 254.392 288.281 253.329 288.281C235.499 288.281 175.756 258.505 132.715 228.158C104.899 208.529 101.375 200.557 100.93 198.954C116.029 179.643 133.937 160.666 154.259 142.435C156.657 140.276 160.292 140.355 162.69 142.515C162.69 142.515 162.722 142.546 162.737 142.546C168.532 147.914 175.073 153.329 182.139 158.602C208.509 178.277 241.612 195.65 283.097 211.563C286.479 212.865 288.051 216.74 286.542 220.027L255.329 288.058L255.313 288.074Z" fill="#2C2C2C"/>
<path d="M255.313 288.09C255.012 288.185 254.392 288.296 253.329 288.296C235.499 288.296 175.756 258.521 132.715 228.173C104.899 208.545 101.375 200.573 100.93 198.969C116.029 179.659 133.937 160.682 154.259 142.451C156.657 140.291 160.292 140.371 162.69 142.531C162.69 142.531 162.722 142.562 162.737 142.562C168.532 147.93 175.073 153.345 182.139 158.617C208.509 178.293 241.612 195.666 283.097 211.578C286.479 212.881 288.051 216.755 286.542 220.043L255.329 288.074L255.313 288.09Z" fill="#2C2C2C"/>
<path d="M182.123 158.633C178.122 155.648 174.327 152.63 170.707 149.581C147.766 170.909 126.65 202.908 117.918 217.057C121.871 220.265 126.729 223.949 132.731 228.173C139.669 233.065 147.035 237.94 154.593 242.672C170.104 217.454 193.093 183.835 201.968 172.195C194.967 167.796 188.346 163.286 182.123 158.633ZM207.811 175.784C199.984 186.059 181.615 211.15 160.689 246.436C163.738 248.294 166.802 250.12 169.882 251.915C179.916 235.462 197.332 207.592 216.098 180.596C213.288 179.008 210.526 177.404 207.827 175.784H207.811Z" fill="#262626"/>
<path opacity="0.3" d="M208.922 270.749C230.641 281.15 253.329 288.296 255.154 283.421C256.98 278.546 272.857 246.817 277.397 234.24C281.938 221.662 282.986 220.265 280.017 216.454C277.048 212.642 260.552 206.513 233.801 193.888C207.049 181.263 182.107 158.633 182.107 158.633C208.478 178.309 241.58 195.682 283.065 211.594C286.447 212.896 288.019 216.771 286.511 220.059L255.297 288.09C254.996 288.185 254.377 288.296 253.313 288.296C235.483 288.296 175.74 258.521 132.699 228.173C141.542 234.621 187.187 260.331 208.906 270.749H208.922Z" fill="white"/>
<path d="M296.306 284.374C293.829 296.157 280.795 298.635 271.015 298.349C265.839 298.206 261.584 297.253 260.282 296.507C256.504 294.331 258.25 289.805 260.282 287.185C263.712 282.754 279.064 273.861 288.701 273.544C294.353 273.353 298.053 276.1 296.322 284.374H296.306Z" fill="#393939"/>
<path d="M296.306 284.374C293.829 296.157 280.795 298.635 271.015 298.349C265.839 298.206 261.584 297.253 260.282 296.507C256.504 294.331 258.25 289.805 260.282 287.185C258.377 290.79 268.443 293.013 277.413 289.789C286.383 286.55 293.067 279.642 288.701 273.544C294.353 273.353 298.053 276.1 296.322 284.374H296.306Z" fill="#262626"/>
<path d="M296.306 284.374C293.83 296.157 280.795 298.635 271.015 298.349C280.747 298.063 288.495 292.473 291.416 286.359C294.322 280.261 292.115 274.338 288.686 273.559C294.338 273.369 298.037 276.116 296.306 284.39V284.374Z" fill="#2C2C2C"/>
</svg>
