<svg width="1441" height="442" viewBox="0 0 1441 442" fill="none" xmlns="http://www.w3.org/2000/svg">
<path fill-rule="evenodd" clip-rule="evenodd" d="M0.628418 349.89H19.1253V342.208H36.8392V298.004H51.4866V289.15H101.594V322.612H106.227V308.778H120.874V322.612H127.431V301.845H149.777V311.057H159.401V342.208H163.251V287.229H185.205V342.208H191.762V281.077H213.326V202.63H223.341V194.948H231.04V162.266H233.747V194.948H241.446V202.63H244.904V291.461H263.401V203.801C263.401 143.061 276.874 93.4537 293.087 93.4537C309.659 93.4537 323.132 143.061 323.132 203.801V313.368H340.096V287.978H365.9V270.661H369.75V225.676H378.231V215.682H404.036V225.676H412.517V270.661H415.975V330.652H430.231V320.269H446.02V241.821H451.795V166.075H455.644V126.102H459.493V118.811H485.689V126.102H489.93V166.075H493.779V175.287H500.337V241.788H506.111V325.998H531.915V284.463H568.909V290.224H574.683V325.998H582.382V251.391H590.863V241.398H595.496V251.391H608.61V241.398H612.851V251.391H621.724V279.45H659.501V295.204H673.757V322.515H677.997V214.869H673.757V134.5L696.103 99.8988V61.4562H691.471L716.916 28.775V16.0802H719.232V0H721.94V16.1453H724.256V29.2307L749.31 61.5213H744.677V99.9639L767.024 134.566V214.934H762.783V254.158C763.925 251.847 766.632 250.317 769.34 250.317C772.798 250.317 775.897 252.628 776.647 255.688C777.43 244.913 780.105 234.529 784.346 224.927C783.955 224.927 783.204 225.318 782.813 225.318C778.572 225.318 775.114 221.867 775.114 217.636V208.424C775.114 204.192 778.572 201.132 782.813 201.132C786.662 201.132 790.12 204.192 790.12 208.424V214.185C793.97 208.033 798.211 202.662 803.234 197.649C806.692 194.199 810.542 190.716 814.783 188.047C812.467 186.517 811.325 184.206 811.325 181.895V172.292C811.325 168.451 814.783 165.001 818.632 165.001C822.873 165.001 826.331 168.451 826.331 172.292V181.146C836.738 175.384 848.677 171.934 861.008 171.153C860.617 170.372 860.617 169.623 860.617 168.451V159.239C860.617 155.008 864.075 151.948 867.924 151.948C872.165 151.948 875.623 155.008 875.623 159.239V168.451C875.623 169.59 875.232 170.372 874.84 171.153C887.563 171.934 899.111 175.384 909.909 181.146V172.292C909.909 168.451 913.367 165.001 917.217 165.001C921.458 165.001 924.524 168.451 924.524 172.292V181.895C924.524 184.206 923.382 186.517 921.458 188.047C925.307 190.748 929.156 194.199 932.647 197.649C937.279 202.272 941.52 207.252 944.978 212.655L946.12 212.265V208.424C946.12 205.722 947.653 203.053 949.97 201.881V198.04H954.993V201.1C958.451 201.881 960.768 204.941 960.768 208.391V213.404L971.174 220.337V225.35H976.948V232.642H982.331V203.411H986.18V193.027H994.271V181.504H999.653V193.027H1006.96V165.359H1011.2L1013.13 126.525H1015.44V165.359H1020.83L1022.75 103.056H1025.07V165.359H1035.47V103.056H1037.79L1040.1 165.359H1045.49V126.525H1047.8L1049.73 165.359H1053.58V193.027H1058.6V203.411H1061.67V207.642H1069.37V211.874H1079.77V218.417H1097.49L1115.2 203.411V194.557H1119.05V203.411L1136.41 218.417H1154.12V232.642H1156.83V331.076H1166.45V144.982H1177.25V131.896H1191.5V96.5135H1194.57V131.896H1208.83V144.982H1219.63V294.944H1227.32V348.002H1233.1V288.011H1338.66V348.002H1346.75V294.944H1367.96V348.002H1373.73V319.943H1380.68V306.109H1402.24V334.168H1410.34V314.93H1424.2V334.168H1433.82V348.002H1440.77V441.033H0.628418V349.923V349.89ZM869.164 175.71V177.24C883.812 177.63 897.676 181.471 909.616 188.014L911.149 185.703V185.312C899.601 179.16 886.486 175.319 872.622 174.538C871.48 175.319 870.306 175.677 869.164 175.677V175.71ZM869.164 181.081V257.966L873.405 251.033V241.821H877.646V193.776H883.812V233L890.76 221.086V214.153H894.609L907.724 191.074C896.534 184.922 883.453 181.081 869.197 181.081H869.164ZM869.164 266.429V281.435H873.405V273.753L869.164 266.462V266.429ZM866.848 281.435V266.429L858.366 281.435H866.848ZM866.848 257.966V181.081C852.983 181.081 839.869 184.922 828.321 191.074L866.848 257.966ZM866.848 177.207V175.677C865.706 175.677 864.532 175.287 863.781 174.538C849.917 175.319 836.803 179.16 825.255 185.312V185.703L826.396 188.014C838.336 181.471 852.201 177.63 866.848 177.24V177.207ZM912.715 187.591L911.573 189.121C917.739 192.962 923.121 197.194 928.145 202.206C932.778 206.438 936.235 211.06 939.693 216.431L942.401 214.511C938.943 209.498 934.702 204.518 930.461 199.895C926.22 196.054 921.98 192.213 916.988 189.121C915.455 189.121 913.922 188.34 912.747 187.591H912.715ZM910.007 192.213L896.534 215.292V241.821H901.167L933.528 222.974V220.272L936.594 218.352C933.528 213.339 930.037 208.749 925.796 204.518C921.164 199.895 915.781 195.664 910.007 192.213ZM890.727 225.676L883.779 237.589V241.821H890.727V225.676ZM873.372 255.655L871.448 259.105L873.372 257.966V255.655ZM855.659 281.045L864.891 265.29L855.659 270.661V281.045ZM930.429 227.596L901.134 244.523V261.059H923.089V232.609H930.396V227.596H930.429ZM873.405 260.668L872.622 261.059H873.405V260.668ZM837.945 281.045L837.162 281.435H837.945V281.045ZM813.282 295.27L809.041 297.581V318.348C809.433 319.129 809.824 319.487 810.574 319.878C811.357 320.659 812.499 321.799 813.282 322.58V295.27ZM809.041 294.879L813.282 292.568V263.337H809.041V294.879ZM832.562 281.435L837.945 278.376V263.37H831.388V281.435H832.529H832.562ZM855.691 267.992L863.781 263.37H855.691V267.992ZM926.221 263.37H901.167V279.905L903.874 281.435H926.221V263.37ZM873.438 263.37H872.655L873.438 263.76V263.37ZM790.969 263.37H786.728C786.728 272.582 788.261 281.045 790.969 289.117V263.37ZM782.878 263.37H780.17C780.17 272.972 781.704 282.217 784.803 291.038H785.194V291.429C786.728 296.051 788.652 300.64 790.969 304.872V298.329C785.945 287.946 783.27 276.032 782.878 263.337V263.37ZM780.17 261.059H782.878C783.27 246.443 787.119 232.609 793.676 220.695L791.36 219.165C784.411 231.86 780.17 246.085 780.17 261.091V261.059ZM786.728 261.059H790.969V239.9H809.074V261.059H813.315V257.999H831.42V261.059H837.977V257.999H855.691V261.059H863.781L796.743 222.616C790.577 234.139 786.728 247.224 786.728 261.059ZM873.438 266.429L871.513 265.29L873.438 268.741V266.429ZM792.502 217.212L794.818 218.742C798.667 212.59 802.908 207.219 807.932 202.206C812.956 197.194 818.339 192.994 824.504 189.121L823.362 187.591C822.221 188.372 821.046 189.121 819.122 189.121C814.489 192.181 809.889 196.054 806.007 199.895C800.625 205.266 795.992 211.06 792.534 217.212H792.502ZM797.884 220.663L864.923 259.105L826.396 192.213C820.622 195.664 815.207 199.895 810.607 204.518C805.583 209.53 801.375 214.901 797.884 220.663ZM813.282 327.169C812.14 326.03 810.574 324.858 809.041 323.328V327.56C810.574 328.699 812.108 329.871 813.282 331.01V327.169ZM776.68 268.741C775.897 271.8 772.831 274.502 769.372 274.502C766.665 274.502 763.99 272.582 762.815 270.27V291.038H780.921C778.605 283.747 777.071 276.423 776.68 268.741ZM790.153 310.276V316.037C790.153 319.487 787.837 322.189 785.129 323.328V327.951H790.903V311.805C790.903 311.415 790.512 311.024 790.12 310.276H790.153ZM809.041 332.182V347.937H811.357V342.924C811.357 341.004 812.14 339.083 813.282 337.553V335.633C812.14 334.493 810.574 333.322 809.041 332.182ZM720.406 174.929L732.346 161.843L730.422 159.923L717.307 173.757V197.584H720.374V174.896L720.406 174.929ZM720.406 142.248C738.512 142.248 753.159 156.863 753.159 174.538C753.159 192.213 738.512 207.219 720.406 207.219C702.301 207.219 688.045 192.604 688.045 174.538C688.045 156.472 702.693 142.248 720.406 142.248ZM698.06 219.914H703.834V276.064H698.06V219.914ZM707.684 219.914H713.458V276.064H707.684V219.914ZM717.699 219.914H723.473V276.064H717.699V219.914ZM727.322 219.914H733.097V276.064H727.322V219.914ZM736.946 219.914H742.72V276.064H736.946V219.914Z" fill="#F7F7F7"/>
</svg>
