<svg width="237" height="174" viewBox="0 0 237 174" fill="none" xmlns="http://www.w3.org/2000/svg">
<g clip-path="url(#clip0_130_5516)">
<path d="M56.9195 15.5602C57.671 16.3179 56.9246 17.7926 56.9246 17.7926C56.9246 17.7926 57.7471 19.5469 60.3364 20.7216L60.108 21.8809L54.6298 19.4452L52.0303 15.6213L53.5636 13.455C53.5636 13.455 56.1732 14.7975 56.9195 15.5602Z" fill="#989898"/>
<path d="M56.412 16.0992C56.2647 16.1959 56.2241 16.3993 56.3257 16.5569C56.4272 16.7145 56.6252 16.7654 56.7775 16.6688C56.9248 16.5722 56.9654 16.3688 56.8638 16.2111C56.7623 16.0535 56.5643 16.0026 56.412 16.0992Z" fill="#2E2E2E"/>
<path d="M52.9136 13.277C52.9136 13.277 51.5682 14.6958 50.2481 14.8229C48.9281 14.95 37.6772 11.538 34.5091 11.9448C31.3409 12.3516 31.9451 14.0703 32.3868 14.6907C32.8235 15.3111 34.8797 15.7891 34.9355 13.6076C34.9355 13.6076 47.6588 15.6874 54.6348 19.4401C54.6348 19.4401 55.1831 17.4468 55.0257 16.9027C54.8632 16.3586 52.8832 15.2043 53.5686 13.4499L52.9238 13.2669L52.9136 13.277Z" fill="white"/>
<path d="M49.1743 11.1257L56.3027 14.6869L58.0681 11.1422L50.9397 7.58095L49.1743 11.1257Z" fill="white"/>
<path d="M34.2809 5.27319L50.4972 12.7533C51.3501 13.1804 52.3859 12.8346 52.8123 11.9804L53.8075 9.98194C54.2339 9.12765 53.8887 8.0903 53.0357 7.66316L36.8143 0.183062C35.9614 -0.244082 34.9257 0.101701 34.4992 0.955988L33.5041 2.95441C33.0776 3.8087 33.4228 4.84605 34.2758 5.27319H34.2809Z" fill="#2E2E2E"/>
<path d="M37.6065 1.0882L52.3301 7.8208C53.0257 8.16658 53.3811 8.91917 53.2643 9.65141L37.2612 2.2781C37.4389 1.81536 37.5557 1.40347 37.6065 1.0882Z" fill="#989898"/>
<path d="M53.7566 14.2432L56.1885 15.1331C56.8485 15.3772 57.5898 15.0822 57.9046 14.4466L58.8794 12.494C59.1942 11.8634 58.986 11.0956 58.392 10.7091L56.219 9.30054C55.8839 9.08189 55.4371 9.20393 55.2594 9.56497L53.391 13.3177C53.2133 13.6737 53.3859 14.111 53.7616 14.2432H53.7566Z" fill="#2E2E2E"/>
<path d="M34.616 2.23233C34.1286 3.21375 33.9103 4.09346 34.1286 4.20025C34.347 4.30703 34.9156 3.6053 35.403 2.62388C35.8904 1.64247 36.1087 0.762756 35.8904 0.65597C35.6721 0.549184 35.1034 1.25092 34.616 2.23233Z" fill="white"/>
<path d="M34.2861 5.27827C34.6009 5.43591 35.4285 4.41382 36.1393 2.99001C36.8501 1.56619 37.1649 0.289847 36.8501 0.132211" stroke="white" stroke-width="0.5" stroke-linecap="round" stroke-linejoin="round"/>
<path d="M58.6458 12.2244C58.7118 11.9193 58.5747 11.3396 58.3259 11.1006C58.0772 10.8617 56.1123 9.57005 55.8534 9.58022C55.5945 9.59039 55.2188 10.343 55.2188 10.343L58.6458 12.2244Z" fill="#989898"/>
<path d="M177.334 147.817H114.017C110.428 147.817 106.975 146.124 104.777 143.281L97.6992 134.138L101.984 130.813L109.062 139.956C110.24 141.476 112.093 142.386 114.017 142.386H177.334V147.817Z" fill="#CFDED6"/>
<path d="M112.296 142.976C112.296 142.976 110.27 145.783 110.148 146.2C110.031 146.617 113.189 147.156 113.9 147.156C113.9 147.156 113.601 144.532 113.423 144.232C113.245 143.932 112.707 143.159 112.291 142.981L112.296 142.976Z" fill="white"/>
<path d="M176.12 136.711H97.6432C89.4741 136.711 82.3407 130.894 80.6805 122.885L77.9744 109.873C77.4769 107.483 78.1115 105.057 79.7108 103.216C81.3101 101.375 83.6202 100.409 86.0521 100.572L158.015 105.352L176.115 136.716L176.12 136.711ZM85.5444 105.982C84.8793 105.982 84.2497 106.267 83.808 106.776C83.3308 107.325 83.1429 108.047 83.2902 108.764L85.9963 121.782C87.1335 127.289 92.033 131.281 97.6483 131.281H166.728L154.776 110.574L85.7018 105.988C85.651 105.988 85.5952 105.982 85.5444 105.982Z" fill="#2E2E2E"/>
<path d="M79.5024 80.5013L89.1236 127.024C90.7432 134.845 97.6176 140.454 105.594 140.454H190.539L173.241 110.478L195.763 91.1596V80.5013H79.5024Z" fill="#2E2E2E"/>
<path d="M171.449 88.3221H141.058C141.058 88.3221 142.581 88.9527 143.403 89.1357C144.226 89.3188 171.449 89.5527 171.449 89.5527V88.3221Z" fill="white"/>
<path d="M94.1197 125.718L84.4985 79.1945H81.5386L91.1597 125.718C92.7793 133.538 99.6588 139.147 107.63 139.147H110.585C102.609 139.147 95.7291 133.538 94.1146 125.718H94.1197Z" fill="white"/>
<path d="M180.37 85.7745H133.782V86.9288H180.37V85.7745Z" fill="white"/>
<path d="M169.241 90.3409H135.387C133.234 90.3409 131.706 92.4359 132.356 94.4852C133.417 97.8261 135.102 102.57 137.154 106.308C138.946 109.573 142.388 111.576 146.104 111.576H159.625L169.236 90.3409H169.241Z" stroke="white" stroke-width="0.5" stroke-linecap="round" stroke-linejoin="round"/>
<path d="M93.0229 101.142L95.5463 111.576H99.8567C102.644 106.633 107.94 103.292 114.012 103.292C117.16 103.292 120.099 104.193 122.592 105.749L121.475 101.142" stroke="white" stroke-width="0.5" stroke-linecap="round" stroke-linejoin="round"/>
<path d="M122.1 89.8273H131.345C131.345 89.8273 130.259 92.5885 130.685 95.5174C130.685 95.5174 125.745 95.9192 123.481 96.1073L122.1 89.8273Z" stroke="white" stroke-width="0.5" stroke-linecap="round" stroke-linejoin="round"/>
<path d="M125.537 108.133C125.537 108.133 130.868 107.371 132.285 106.877C132.285 106.877 129.655 108.652 125.537 108.133Z" fill="white"/>
<path d="M124.852 106.415C124.852 106.415 130.848 105.576 132.437 105.006C132.437 105.006 129.497 107.091 124.852 106.415Z" fill="white"/>
<path d="M124.222 104.691C124.222 104.691 130.457 103.76 132.122 103.221C132.122 103.221 129.005 105.093 124.222 104.691Z" fill="white"/>
<path d="M122.806 102.942C122.806 102.942 130.564 101.782 132.64 101.116C132.64 101.116 128.761 103.445 122.806 102.942Z" fill="white"/>
<path d="M122.374 101.126C122.374 101.126 130.619 99.8957 132.828 99.1838C132.828 99.1838 128.705 101.655 122.374 101.126Z" fill="white"/>
<path d="M120.536 99.0414C120.536 99.0414 129.848 97.6532 132.34 96.8446C132.34 96.8446 127.685 99.6363 120.536 99.0414Z" fill="white"/>
<path d="M205.836 77.435L222.52 74.023V79.2758C222.52 79.2758 218.585 81.4675 216.382 83.649L205.836 77.4401V77.435Z" fill="#2E2E2E"/>
<path d="M220.519 76.2655C220.616 77.6435 221.093 78.869 221.788 79.7589C222.545 80.7149 223.565 81.2793 224.647 81.2031C225.52 81.142 226.297 80.6793 226.891 79.9471C227.708 78.9351 228.176 77.4147 228.059 75.7468C227.861 72.8738 226.013 70.6668 223.931 70.8092C221.849 70.9516 220.321 73.3975 220.519 76.2706V76.2655Z" fill="white"/>
<path d="M226.424 79.8662C227.355 79.8018 227.992 78.0325 227.846 75.9144C227.7 73.7963 226.827 72.1315 225.895 72.1959C224.964 72.2603 224.327 74.0296 224.473 76.1477C224.619 78.2658 225.492 79.9306 226.424 79.8662Z" fill="#2E2E2E"/>
<path d="M226.218 79.8409C227.15 79.7763 227.786 78.0069 227.64 75.8888C227.493 73.7707 226.62 72.1061 225.688 72.1706C224.757 72.2352 224.12 74.0046 224.267 76.1227C224.413 78.2408 225.287 79.9055 226.218 79.8409Z" fill="#E74514"/>
<path d="M225.713 72.4822C225.739 72.4771 225.769 72.472 225.794 72.472C225.063 72.767 224.657 74.5925 224.886 76.6672C224.896 76.7435 224.901 76.8147 224.911 76.8859C224.835 76.5858 224.774 76.2604 224.738 75.9197C224.551 74.1806 224.987 72.6398 225.713 72.4822Z" fill="white"/>
<path d="M227.348 75.6248C227.348 75.6248 226.911 75.2739 226.744 75.2841C226.642 75.2891 226.688 77.0842 226.048 77.4401C225.571 77.7045 224.916 77.0994 224.916 77.0994C224.916 77.0994 225.033 79.3165 226.241 79.1029C227.449 78.8894 227.531 76.2299 227.348 75.6248Z" fill="#2E2E2E"/>
<path d="M225.977 73.3467C225.977 73.3467 226.835 76.2146 226.434 78.4063C226.434 78.4063 226.185 75.4112 225.977 73.3467Z" fill="#2E2E2E"/>
<path d="M225.485 73.6569C225.485 73.6569 226.333 76.3672 225.922 78.4419C225.922 78.4419 225.683 75.6095 225.485 73.6569Z" fill="#2E2E2E"/>
<path d="M225.028 74.0026C225.028 74.0026 225.855 76.4435 225.434 78.3198C225.434 78.3198 225.216 75.7671 225.028 74.0026Z" fill="#2E2E2E"/>
<path d="M224.672 71.5262C224.672 71.5262 223.103 72.9958 223.743 76.8808C223.743 76.8808 221.408 75.8688 221.133 75.6146C220.859 75.3603 220.575 75.2485 220.641 75.2485C220.707 75.2485 221.408 70.7838 224.672 71.5313V71.5262Z" fill="#989898"/>
<path d="M224.662 80.8013C224.662 80.8013 223.687 80.5878 223.357 79.9369C223.357 79.9369 223.19 80.3691 222.875 80.4454C222.875 80.4454 223.779 80.9641 224.657 80.8013H224.662Z" fill="#2E2E2E"/>
<path d="M117.18 54.7405C117.18 54.7405 84.727 32.8443 67.6831 64.2139" stroke="#2E2E2E" stroke-width="0.5" stroke-linecap="round" stroke-linejoin="round"/>
<path d="M58.3413 20.4978C58.3413 20.4978 84.9556 28.878 70.4909 56.1999" stroke="#2E2E2E" stroke-width="0.5" stroke-linecap="round" stroke-linejoin="round"/>
<path d="M73.0082 47.5702L66.5723 43.6077L17.2084 124.036L23.6444 127.998L73.0082 47.5702Z" fill="white"/>
<path d="M74.8759 45.5567L67.5273 41.0323L66.1182 43.3283L73.4668 47.8527L74.8759 45.5567Z" fill="#2E2E2E"/>
<path d="M61.6611 67.0859L54.3125 62.5615L52.9033 64.8574L60.2519 69.3819L61.6611 67.0859Z" fill="#2E2E2E"/>
<path d="M47.8427 89.5927L40.4941 85.0683L39.085 87.3642L46.4336 91.8886L47.8427 89.5927Z" fill="#2E2E2E"/>
<path d="M24.1967 128.128L16.8481 123.603L15.439 125.899L22.7876 130.424L24.1967 128.128Z" fill="#2E2E2E"/>
<path d="M60.248 69.3832L52.8994 64.8588L40.4933 85.0719L47.8419 89.5963L60.248 69.3832Z" fill="#17E217"/>
<path d="M53.9831 65.5281L52.8975 64.8597L40.4914 85.0728L41.577 85.7412L53.9831 65.5281Z" fill="white"/>
<path d="M66.7079 44.2856C70.4345 46.4925 71.8053 47.4079 72.7548 47.9876L61.1992 66.8124L59.9096 66.0191C59.9096 66.0191 67.4847 52.9353 68.8251 50.7538L59.4425 64.6767C59.4425 64.6767 59.1227 63.5885 59.0618 63.0647C59.0059 62.5409 68.7591 47.5146 68.8657 47.0926C68.9723 46.6705 67.4339 45.1145 66.7028 44.2856H66.7079Z" fill="#2E2E2E"/>
<path d="M42.9747 89.2689L42.0664 88.7097L19.5115 125.458L20.4199 126.017L42.9747 89.2689Z" fill="#2E2E2E"/>
<path d="M21.5776 126.729L43.9119 90.3409L45.9732 91.6071L23.6389 127.996L22.6083 127.36C22.6083 127.36 43.0031 94.8767 43.3534 94.1191C43.7037 93.3614 43.6682 92.4919 43.6682 92.4919L21.9483 126.958L21.5776 126.729Z" fill="#2E2E2E"/>
<path d="M56.569 67.1226C56.569 67.1226 47.7957 82.2709 46.3234 84.5236L45.8867 86.2016L54.2437 74.445C54.2437 74.445 47.4606 86.5017 47.2525 87.2237C47.0392 87.9458 47.8414 89.6035 47.8414 89.6035L60.2499 69.3905L56.5741 67.1276L56.569 67.1226Z" fill="#33FF33"/>
<path d="M67.6831 41.4177C67.6831 41.4177 74.2275 45.5061 74.4357 45.6739C74.5271 45.745 73.4152 47.5248 73.4152 47.5248C73.4152 47.5248 72.1713 46.6604 71.9885 46.34C71.8057 46.0196 72.1865 44.7179 72.1865 44.7179C72.1865 44.7179 67.9725 42.0025 67.6831 41.4177Z" fill="white"/>
<path d="M55.6245 63.38L66.6774 45.9281L56.7821 64.0919L55.6245 63.38Z" fill="#2E2E2E"/>
<path d="M40.6324 136.671L57.849 109.15L56.5035 107.742L36.7891 132.491" stroke="white" stroke-width="0.5" stroke-linecap="round" stroke-linejoin="round"/>
<path d="M35.9409 141.532L50.4919 152.617L52.4162 149.877L41.5714 133.599" stroke="white" stroke-width="0.5" stroke-linecap="round" stroke-linejoin="round"/>
<path d="M34.2249 137.174L17.186 164.822L18.5518 166.2L38.1393 141.262" stroke="white" stroke-width="0.5" stroke-linecap="round" stroke-linejoin="round"/>
<path d="M38.8555 132.262L23.8779 121.868L21.9893 124.645L33.3214 140.301" stroke="white" stroke-width="0.5" stroke-linecap="round" stroke-linejoin="round"/>
<path d="M40.6778 133.279L41.2159 106.73L38.8855 107.849L33.915 136.437" stroke="white" stroke-width="0.5" stroke-linecap="round" stroke-linejoin="round"/>
<path d="M38.6626 139.996L61.139 128.189L61.535 125.26L39.876 131.443" stroke="white" stroke-width="0.5" stroke-linecap="round" stroke-linejoin="round"/>
<path d="M34.1538 140.418L32.9302 167.359L35.2504 166.332L40.8911 137.52" stroke="white" stroke-width="0.5" stroke-linecap="round" stroke-linejoin="round"/>
<path d="M36.2152 133.798L13.7337 145.605L13.3428 148.534L35.0018 142.346" stroke="white" stroke-width="0.5" stroke-linecap="round" stroke-linejoin="round"/>
<path d="M40.9218 134.296L49.7662 104.772L47.9993 104.787L35.8193 134.245" stroke="white" stroke-width="0.5" stroke-linecap="round" stroke-linejoin="round"/>
<path d="M40.1806 137.749L61.0781 115.151L60.479 113.305L38.5103 132.328" stroke="white" stroke-width="0.5" stroke-linecap="round" stroke-linejoin="round"/>
<path d="M37.835 140.703L58.5395 138.267L59.4584 135.644L40.5715 133.086" stroke="white" stroke-width="0.5" stroke-linecap="round" stroke-linejoin="round"/>
<path d="M35.2559 141.43L43.6382 160.581L45.5421 158.714L40.8001 136.076" stroke="white" stroke-width="0.5" stroke-linecap="round" stroke-linejoin="round"/>
<path d="M33.9559 139.493L25.1064 169.017L26.8733 169.001L39.0584 139.544" stroke="white" stroke-width="0.5" stroke-linecap="round" stroke-linejoin="round"/>
<path d="M34.6972 136.04L13.7998 158.638L14.3989 160.484L36.3676 141.461" stroke="white" stroke-width="0.5" stroke-linecap="round" stroke-linejoin="round"/>
<path d="M37.0429 133.086L16.3384 135.521L15.4194 138.145L34.3063 140.703" stroke="white" stroke-width="0.5" stroke-linecap="round" stroke-linejoin="round"/>
<path d="M39.6222 132.359L31.2348 113.208L29.3359 115.075L34.078 137.713" stroke="white" stroke-width="0.5" stroke-linecap="round" stroke-linejoin="round"/>
<path d="M55.2187 96.8548C42.1452 91.0528 21.461 103.292 9.01186 124.197C-3.43725 145.102 -2.92953 166.754 10.1441 172.561C23.2126 178.368 43.9018 166.123 56.3459 145.219C68.795 124.314 68.2872 102.662 55.2137 96.8548H55.2187ZM50.8423 143.886C43.4347 156.035 32.1788 163.779 25.7054 161.186C19.227 158.592 19.9835 146.642 27.3961 134.499C34.8036 122.351 46.0596 114.607 52.5329 117.2C59.0113 119.793 58.2549 131.743 50.8423 143.886Z" fill="#2E2E2E"/>
<path d="M52.3687 146.951C62.5562 132.021 64.5317 115.618 56.781 110.312C49.0304 105.007 34.4886 112.809 24.3011 127.739C14.1136 142.668 12.1381 159.072 19.8888 164.377C27.6395 169.682 42.1812 161.88 52.3687 146.951Z" stroke="white" stroke-width="0.5" stroke-linecap="round" stroke-linejoin="round"/>
<path d="M40.7691 138.303C38.5758 141.985 35.6311 144.878 32.6813 146.536C29.9244 148.082 27.1675 148.554 25.0098 147.593C20.5419 145.605 20.354 138.222 24.5884 131.103C28.8227 123.984 35.8799 119.824 40.3477 121.812C44.8156 123.8 45.0035 131.184 40.7691 138.303Z" fill="#2E2E2E"/>
<path d="M157.076 112.425H162.488C164.453 112.425 166.271 111.266 167.235 109.379C170.292 103.409 178.568 90.5646 194.007 88.4086C210.66 86.0847 222.515 98.0651 225.704 101.721C226.277 102.382 227.069 102.753 227.897 102.753H231.776C231.776 102.753 223.845 78.6148 195.053 78.6148C166.261 78.6148 157.076 112.425 157.076 112.425Z" fill="#2E2E2E"/>
<path d="M157.325 135.206H115.408C115.525 135.471 115.576 135.771 115.586 136.081H150.719L149.272 136.559L115.418 137.459C115.2 138.369 114.839 139.112 114.839 139.112H159.254L157.325 135.206Z" fill="#989898"/>
<path d="M129.004 115.237H163.321L162.3 120.683C161 127.609 154.964 132.628 147.927 132.628H123.48" stroke="white" stroke-width="0.5" stroke-linecap="round" stroke-linejoin="round"/>
<path d="M136.056 121.497C137.139 121.497 138.016 120.618 138.016 119.534C138.016 118.45 137.139 117.571 136.056 117.571C134.974 117.571 134.097 118.45 134.097 119.534C134.097 120.618 134.974 121.497 136.056 121.497Z" stroke="white" stroke-width="0.5" stroke-linecap="round" stroke-linejoin="round"/>
<path d="M144.261 121.492C145.341 121.492 146.216 120.615 146.216 119.534C146.216 118.453 145.341 117.576 144.261 117.576C143.182 117.576 142.307 118.453 142.307 119.534C142.307 120.615 143.182 121.492 144.261 121.492Z" stroke="white" stroke-width="0.5" stroke-linecap="round" stroke-linejoin="round"/>
<path d="M152.461 121.492C153.54 121.492 154.415 120.615 154.415 119.534C154.415 118.453 153.54 117.576 152.461 117.576C151.381 117.576 150.506 118.453 150.506 119.534C150.506 120.615 151.381 121.492 152.461 121.492Z" stroke="white" stroke-width="0.5" stroke-linecap="round" stroke-linejoin="round"/>
<path d="M160.589 99.9313H146.251V103.364H160.589V99.9313Z" fill="#989898"/>
<path d="M141.839 107.386C140.098 104.213 138.666 100.186 137.763 97.343C137.209 95.5988 138.509 93.819 140.337 93.819H165.6L166.453 91.9376H137.696C135.869 91.9376 134.569 93.7173 135.122 95.4615C136.021 98.299 137.458 102.326 139.199 105.504C140.103 107.152 141.504 108.413 143.149 109.176C142.647 108.647 142.2 108.047 141.839 107.391V107.386Z" fill="white"/>
<path d="M151.669 113.605H157.853C160.097 113.605 162.173 112.405 163.275 110.452C166.768 104.274 176.222 90.9816 193.86 88.7493C212.883 86.344 226.424 98.7414 230.064 102.525C230.719 103.206 231.623 103.593 232.568 103.593H237C237 103.593 227.942 78.6097 195.048 78.6097C162.153 78.6097 151.664 113.6 151.664 113.6L151.669 113.605Z" fill="#CFDED6"/>
<path d="M180.568 82.0675C180.568 82.0675 162.488 91.1494 154.228 111.291C154.228 111.291 159.315 111.795 161.696 108.642C164.077 105.489 175.46 87.2288 195.058 87.2288C214.655 87.2288 224.495 95.5225 224.495 95.5225C224.495 95.5225 215.732 85.0829 194.337 85.0829C172.942 85.0829 161.858 103.465 161.858 103.465C161.858 103.465 165.981 91.0426 183.431 83.293L180.573 82.0726L180.568 82.0675Z" fill="white"/>
<path d="M211.518 82.0675C211.518 82.0675 212.691 84.9558 213.884 85.3575C215.554 85.9169 226.551 90.8443 234.7 102.25C234.964 102.621 235.39 102.845 235.842 102.845H236.259C236.259 102.845 225.977 84.9914 211.513 82.0726L211.518 82.0675Z" fill="#2E2E2E"/>
<path d="M143.338 85.7186H196.764C205.187 85.7186 212.336 80.1504 213.447 76.1689C214.559 72.1924 213.29 64.8699 212.336 62.8003C211.381 60.7307 206.136 59.7747 203.435 59.7747C200.734 59.7747 176.359 64.5699 160.737 65.353C145.114 66.1412 138.641 63.9342 136.311 68.5159C133.975 73.0975 134.94 85.7186 143.338 85.7186Z" fill="#2E2E2E"/>
<path d="M138.001 66.6497C138.001 66.6497 138.57 69.6448 154.182 71.0787C169.794 72.5127 192.2 69.0651 199.353 68.521C206.502 67.9769 213.265 64.4529 211.67 61.9765" stroke="white" stroke-width="0.5" stroke-linecap="round" stroke-linejoin="round"/>
<path d="M145.719 65.4852C145.719 65.4852 147.262 67.7582 148.339 70.3719" stroke="white" stroke-width="0.5" stroke-linecap="round" stroke-linejoin="round"/>
<path d="M156.091 65.4852C156.091 65.4852 158.945 69.1871 159.782 71.3838" stroke="white" stroke-width="0.5" stroke-linecap="round" stroke-linejoin="round"/>
<path d="M166.454 64.936C166.454 64.936 171.703 68.4904 172.536 71.094" stroke="white" stroke-width="0.5" stroke-linecap="round" stroke-linejoin="round"/>
<path d="M178.593 63.4969C178.593 63.4969 182.782 66.9649 184.574 70.0922" stroke="white" stroke-width="0.5" stroke-linecap="round" stroke-linejoin="round"/>
<path d="M190.544 61.7019C190.544 61.7019 195.627 66.0954 196.718 68.765" stroke="white" stroke-width="0.5" stroke-linecap="round" stroke-linejoin="round"/>
<path d="M200.181 60.1713C200.181 60.1713 206.792 63.8885 208.02 66.3496" stroke="white" stroke-width="0.5" stroke-linecap="round" stroke-linejoin="round"/>
<path d="M62.2988 57.395L54.9502 52.8706L53.541 55.1666L60.8896 59.691L62.2988 57.395Z" fill="#2E2E2E"/>
<path d="M62.1523 57.6355L54.8037 53.1111L54.5431 53.5357L61.8917 58.0601L62.1523 57.6355Z" fill="white"/>
<path d="M55.8078 54.6744C55.2544 56.2253 54.2237 57.4457 52.9849 58.1831C51.6496 58.9814 50.0706 59.2102 48.6034 58.6865C47.4153 58.2593 46.4913 57.4101 45.8972 56.327C45.0798 54.8269 44.9021 52.8844 45.5723 51.0132C46.7248 47.7842 49.9539 45.9891 52.7767 47.0011C55.6047 48.013 56.9603 51.4505 55.8078 54.6795V54.6744Z" fill="white"/>
<path d="M53.6095 54.0743C52.6652 56.7135 50.1418 58.2237 47.9688 57.4457C45.7958 56.6677 44.8007 53.8964 45.74 51.2572C46.6843 48.6181 49.2076 47.1078 51.3806 47.8859C53.5537 48.6639 54.5488 51.4352 53.6095 54.0743Z" fill="#2E2E2E"/>
<path d="M54.1119 54.2523C53.1676 56.8915 50.6443 58.4017 48.4713 57.6237C46.2983 56.8457 45.3031 54.0743 46.2424 51.4352C47.1868 48.7961 49.7101 47.2858 51.8831 48.0638C54.0561 48.8418 55.0512 51.6132 54.1119 54.2523Z" fill="#E74514"/>
<path d="M51.7308 48.4249C51.6699 48.3994 51.6039 48.374 51.543 48.3486C53.1778 49.2792 53.6144 51.9488 52.4975 54.4761C52.4569 54.5676 52.4162 54.654 52.3756 54.7405C52.6396 54.41 52.8681 54.0337 53.0509 53.6116C53.9851 51.4962 53.3961 49.1724 51.7308 48.4198V48.4249Z" fill="white"/>
<path d="M47.0039 51.2827C47.0039 51.2827 48.1361 51.1504 48.522 51.2928C48.7555 51.3793 48.1513 53.6726 49.5526 54.6083C50.5985 55.3049 52.3146 55.01 52.3146 55.01C52.3146 55.01 51.4109 57.7966 48.6286 56.622C45.8463 55.4473 46.4099 51.9335 47.009 51.2827H47.0039Z" fill="#2E2E2E"/>
<path d="M50.8676 49.3453C50.8676 49.3453 48.0345 52.4268 48.3595 55.5744C48.3595 55.5744 49.7912 51.8725 50.8676 49.3453Z" fill="#2E2E2E"/>
<path d="M51.9338 50.1182C51.9338 50.1182 49.1719 53.0014 49.5526 55.9965C49.5526 55.9965 50.9133 52.498 51.9338 50.1182Z" fill="#2E2E2E"/>
<path d="M52.914 50.9013C52.914 50.9013 50.2739 53.454 50.7359 56.1999C50.7359 56.1999 51.9696 53.0472 52.914 50.9013Z" fill="#2E2E2E"/>
<path d="M52.2588 47.7587C52.2588 47.7587 55.7062 49.7165 54.4623 53.9879C54.4623 53.9879 54.706 53.8506 55.1629 53.6726C55.6198 53.4896 56.0412 53.4794 55.9549 53.4489C55.8686 53.4184 56.8739 48.6944 52.2588 47.7587Z" fill="#989898"/>
<path d="M48.71 58.2187C48.71 58.2187 50.1163 58.3661 50.7713 57.7508C50.7713 57.7508 50.8677 58.3153 51.279 58.5339C51.279 58.5339 49.8777 58.7628 48.71 58.2187Z" fill="#2E2E2E"/>
<path d="M78.9997 75.7366C78.9997 75.7366 82.0815 83.9846 84.1479 86.3644C85.9097 88.3933 124.704 88.3628 137.615 88.3119C139.859 88.3018 141.672 86.4762 141.672 84.2287V77.8724C141.672 72.9856 135.432 67.2192 129.177 64.2139C122.922 61.2087 95.7492 53.0523 74.1968 56.622C74.1968 56.622 76.0753 68.8617 79.0048 75.7366H78.9997Z" fill="#17E217"/>
<path d="M75.8318 58.5746C97.6736 54.2523 125.207 63.5478 131.548 66.9954C135.087 68.9227 138.626 71.8567 141.058 75.0654C139.342 70.9262 134.259 66.6547 129.172 64.2088C122.917 61.2036 95.7443 53.0472 74.1919 56.6169C74.1919 56.6169 76.0704 68.8566 78.9999 75.7315C78.9999 75.7315 79.1776 76.2095 79.4721 76.957C77.2229 68.9481 75.8318 58.5695 75.8318 58.5695V58.5746Z" fill="white"/>
<path d="M81.5283 72.0296C81.5283 72.0296 84.2547 83.0744 86.8238 84.8745C89.3877 86.6746 138.971 86.5169 139.763 86.0389C140.555 85.5609 141.987 79.5606 138.651 76.1129C135.315 72.6703 112.874 68.3684 105.421 72.0296C105.421 72.0296 121.013 72.4161 125.141 73.8958C125.141 73.8958 108.579 71.5771 105.421 74.8315C102.258 78.0808 100.989 83.7456 100.989 83.7456C100.989 83.7456 92.109 83.2066 89.6365 82.5557C87.1639 81.9048 83.8993 68.521 83.8993 68.521L81.5334 72.0347L81.5283 72.0296Z" fill="#33FF33"/>
<path d="M84.5186 61.7629C84.5186 61.7629 115.992 61.4324 135.955 69.9295C135.955 69.9295 129.207 63.3342 113.748 60.3595C98.2877 57.3847 86.8236 57.0644 86.8236 57.0644L84.5236 61.7629H84.5186Z" fill="#33FF33"/>
<path d="M83.9194 65.3835C83.9194 65.3835 135.63 64.1326 141.667 77.8673" stroke="#2E2E2E" stroke-width="0.5" stroke-linecap="round" stroke-linejoin="round"/>
<path d="M88.881 57.2102L69.1362 45.0537L56.217 66.1029L75.9617 78.2594L88.881 57.2102Z" fill="#2E2E2E"/>
<path d="M43.5264 141.766C48.2127 134.899 48.7744 127.115 44.781 124.382C40.7877 121.648 33.7513 125 29.065 131.868C24.3786 138.735 23.8169 146.519 27.8103 149.252C31.8037 151.986 38.84 148.634 43.5264 141.766Z" fill="#989898"/>
<path d="M42.8915 139.945C40.1753 144.507 35.8546 147.385 32.6713 146.958H32.6814C34.3721 146.841 34.8849 144.929 33.6106 144.766C32.3413 144.608 30.3206 143.139 31.7828 138.639C33.4532 133.508 39.4645 132.074 39.1192 130.584C38.708 128.794 35.6769 130.319 33.5598 131.647C36.4842 128.504 40.0991 126.953 42.592 128.067C45.8109 129.501 45.948 134.82 42.8966 139.951L42.8915 139.945Z" fill="#2E2E2E"/>
<path d="M41.7089 130.04C44.415 132.465 42.8157 138.705 38.1752 144.237C38.3834 144.024 38.5865 143.805 38.7896 143.576C43.6839 138.105 45.5726 131.794 42.9985 129.486C41.846 128.453 39.9979 128.397 37.8706 129.14C39.4293 128.921 40.7747 129.196 41.714 130.04H41.7089Z" fill="white"/>
<path d="M32.636 134.189C32.4533 134.53 32.1486 134.723 31.9557 134.621C31.7628 134.52 31.7526 134.159 31.9303 133.813C32.1131 133.472 32.4177 133.279 32.6107 133.381C32.8036 133.482 32.8137 133.843 32.636 134.189Z" fill="#2E2E2E"/>
<path d="M30.4731 138.852C30.402 139.234 30.1735 139.508 29.9552 139.473C29.7369 139.432 29.6201 139.091 29.6912 138.71C29.7623 138.328 29.9908 138.054 30.2091 138.089C30.4274 138.13 30.5442 138.471 30.4731 138.852Z" fill="#2E2E2E"/>
<path d="M30.6357 144.43C30.6966 144.812 30.5697 145.153 30.3514 145.183C30.1331 145.214 29.9097 144.934 29.8488 144.553C29.7878 144.171 29.9148 143.83 30.1331 143.8C30.3514 143.764 30.5748 144.049 30.6357 144.43Z" fill="#2E2E2E"/>
<path d="M33.8901 148.783C33.8901 148.783 25.9647 149.139 27.0969 137.8C27.0969 137.8 25.391 143.597 26.8075 146.215C29.0414 150.334 33.8901 148.783 33.8901 148.783Z" fill="white"/>
<path d="M44.2983 129.445C44.2983 129.445 45.5879 130.197 45.5372 131.657L46.7151 130.92C46.7151 130.92 47.0501 127.594 45.725 126.16L44.2983 129.445Z" fill="#2E2E2E"/>
<path d="M38.3122 138.496C37.6979 139.564 36.5555 140.123 35.7635 139.737C34.9714 139.356 34.8293 138.176 35.4487 137.108C36.063 136.04 37.2054 135.481 37.9974 135.867C38.7894 136.249 38.9316 137.428 38.3122 138.496Z" fill="white"/>
<path d="M37.7233 138.095C37.109 139.162 35.9666 139.722 35.1746 139.335C34.3826 138.954 34.2404 137.774 34.8598 136.706C35.4742 135.638 36.6165 135.079 37.4085 135.466C38.2006 135.847 38.3427 137.027 37.7233 138.095Z" stroke="white" stroke-width="0.5" stroke-linecap="round" stroke-linejoin="round"/>
<path d="M92.1581 59.2953L85.7222 55.3328L36.7545 135.115L43.1905 139.078L92.1581 59.2953Z" fill="white"/>
<path d="M94.0092 57.2948L86.6606 52.7704L85.2621 55.0491L92.6107 59.5735L94.0092 57.2948Z" fill="#2E2E2E"/>
<path d="M80.9018 78.6607L73.5532 74.1363L72.1547 76.415L79.5033 80.9394L80.9018 78.6607Z" fill="#2E2E2E"/>
<path d="M67.1972 100.981L59.8486 96.4569L58.4501 98.7355L65.7987 103.26L67.1972 100.981Z" fill="#2E2E2E"/>
<path d="M43.7373 139.2L36.3887 134.676L34.9901 136.955L42.3387 141.479L43.7373 139.2Z" fill="#2E2E2E"/>
<path d="M79.5034 80.9322L72.1548 76.4078L59.8471 96.4606L67.1957 100.985L79.5034 80.9322Z" fill="#17E217"/>
<path d="M73.2453 77.0753L72.1597 76.4069L59.8519 96.4598L60.9376 97.1282L73.2453 77.0753Z" fill="white"/>
<path d="M85.8589 56.0067C89.5856 58.2136 90.9564 59.1289 91.9058 59.7086L80.4467 78.3809L79.1571 77.5876C79.1571 77.5876 86.6713 64.6055 87.9964 62.4443L78.685 76.2502C78.685 76.2502 78.36 75.1671 78.2991 74.6484C78.2382 74.1298 87.9203 59.2204 88.0218 58.8034C88.1233 58.3865 86.585 56.8355 85.8539 56.0067H85.8589Z" fill="#2E2E2E"/>
<path d="M62.3463 100.643L61.438 100.084L39.0639 136.537L39.9722 137.097L62.3463 100.643Z" fill="#2E2E2E"/>
<path d="M41.1245 137.81L63.2811 101.716L65.3424 102.982L43.1858 139.076L42.1552 138.44C42.1552 138.44 62.3875 106.216 62.7378 105.469C63.0831 104.716 63.0475 103.852 63.0475 103.852L41.5002 138.039L41.1296 137.81H41.1245Z" fill="#2E2E2E"/>
<path d="M75.8267 78.6707C75.8267 78.6707 67.1296 93.697 65.6674 95.9344L65.2358 97.5972L73.5319 85.9372C73.5319 85.9372 66.8097 97.8973 66.6016 98.6142C66.3934 99.3312 67.2007 100.979 67.2007 100.979L79.5076 80.9285L75.8318 78.6656L75.8267 78.6707Z" fill="#33FF33"/>
<path d="M86.8237 53.159C86.8237 53.159 93.3681 57.2474 93.5763 57.4101C93.6677 57.4813 92.566 59.2458 92.566 59.2458C92.566 59.2458 91.3221 58.3814 91.1393 58.0661C90.9514 57.7508 91.3322 56.4541 91.3322 56.4541C91.3322 56.4541 87.1182 53.7387 86.8288 53.159H86.8237Z" fill="white"/>
<path d="M74.8721 74.9485L85.8387 57.639L76.0297 75.6604L74.8721 74.9485Z" fill="#2E2E2E"/>
<path d="M78.4623 64.2088C78.4623 65.7191 78.2186 67.1734 77.7718 68.5159C77.3758 69.7058 76.8123 70.8143 76.1218 71.8059C74.7205 73.8145 72.7759 75.34 70.5319 76.1129H70.5268C69.4555 76.4841 68.3233 76.6825 67.1403 76.6825C60.8853 76.6825 55.8184 71.0991 55.8184 64.2088C55.8184 57.3186 60.8853 51.7352 67.1403 51.7352C67.9628 51.7352 68.7599 51.8318 69.5317 52.0149C74.6342 53.2251 78.4572 58.2237 78.4572 64.2088H78.4623Z" fill="#17E217"/>
<path d="M76.0403 64.2088C76.0403 67.5141 74.9183 70.5245 73.0905 72.7568C71.1155 75.1722 68.3079 76.6774 65.1956 76.6774C62.6824 76.6774 60.3673 75.696 58.5294 74.0433V74.0382C55.9857 71.755 54.356 68.2006 54.356 64.2038C54.356 57.3135 59.2148 51.7301 65.2007 51.7301C71.1866 51.7301 76.0454 57.3135 76.0454 64.2038L76.0403 64.2088Z" fill="#2E2E2E"/>
<path d="M78.4622 64.2088C78.4622 65.7191 78.2185 67.1734 77.7717 68.5159C77.2132 67.2446 76.4973 66.1208 76.4973 66.1208C76.6192 65.4038 76.6192 64.9513 76.6192 64.9513L77.8682 65.3835C77.4112 64.58 76.4364 63.8325 76.4364 63.8325C76.7512 55.9558 69.7194 52.1166 69.5366 52.0149C74.6391 53.2251 78.4622 58.2237 78.4622 64.2088Z" fill="#33FF33"/>
<path d="M76.1216 71.8059C74.7204 73.8145 72.7758 75.34 70.5317 76.1129C70.679 76.0214 73.0297 74.5671 74.6493 71.6737C74.6493 71.6737 75.2839 71.811 76.1216 71.8059Z" fill="#33FF33"/>
<path d="M75.639 64.2088C75.639 67.5141 74.5169 70.5245 72.6892 72.7568C70.7142 75.1722 67.9065 76.6774 64.7942 76.6774C62.2811 76.6774 59.9659 75.696 58.128 74.0433V74.0382C55.5843 71.755 53.9546 68.2006 53.9546 64.2038C53.9546 57.3135 58.8134 51.7301 64.7993 51.7301C70.7852 51.7301 75.6441 57.3135 75.6441 64.2038L75.639 64.2088Z" fill="white"/>
<path d="M70.6938 54.3032C70.6938 54.3032 68.3685 56.4541 68.4294 56.7491C68.4903 57.0491 72.0037 60.451 71.826 66.4157C71.826 66.4157 72.42 65.9988 72.5419 65.3987C72.6586 64.8038 72.3032 61.1019 71.3487 59.2509C71.3487 59.2509 73.2577 58.2237 73.7299 58.117C73.7299 58.117 72.7957 56.0779 70.6887 54.2981L70.6938 54.3032Z" fill="#2E2E2E"/>
<path d="M72.6891 72.7619C70.7141 75.1773 67.9065 76.6825 64.7942 76.6825C62.281 76.6825 59.9658 75.701 58.1279 74.0484V74.0433C58.1279 74.0433 63.2507 76.9977 67.7795 74.0433C68.6731 73.4585 70.3435 74.084 72.6942 72.7619H72.6891Z" fill="#989898"/>
<path d="M67.8963 56.2558C67.7846 56.4338 67.48 55.5846 67.48 55.4371C67.48 55.2897 68.9117 53.0523 68.9117 53.0523C68.9117 53.0523 69.7748 53.6218 69.9271 53.8557C69.9271 53.8557 68.2872 55.6456 67.9014 56.2558H67.8963Z" fill="#989898"/>
<path d="M62.0782 74.8264C66.5674 74.8264 70.2066 70.4052 70.2066 64.9513C70.2066 59.4974 66.5674 55.0761 62.0782 55.0761C57.5889 55.0761 53.9497 59.4974 53.9497 64.9513C53.9497 70.4052 57.5889 74.8264 62.0782 74.8264Z" fill="#2E2E2E"/>
<path d="M62.982 74.8264C67.4712 74.8264 71.1105 70.4052 71.1105 64.9513C71.1105 59.4974 67.4712 55.0761 62.982 55.0761C58.4928 55.0761 54.8535 59.4974 54.8535 64.9513C54.8535 70.4052 58.4928 74.8264 62.982 74.8264Z" fill="#989898"/>
<path d="M63.0479 57.0135C66.5968 57.0135 69.5009 61.4527 69.7294 67.0616C69.7395 66.8276 69.7446 66.5988 69.7446 66.3598C69.7446 60.6493 67.008 56.0219 63.6267 56.0219C62.1137 56.0219 60.7327 56.9525 59.6665 58.4882C60.6616 57.5525 61.8141 57.0135 63.0529 57.0135H63.0479Z" fill="#2E2E2E"/>
<path d="M59.2246 69.4363C59.2754 68.5718 61.5347 67.1582 62.0881 66.7158C62.6364 66.2734 69.6327 67.6056 69.7444 68.048C69.8561 68.4904 67.0891 73.8806 63.4996 73.8806C59.91 73.8806 59.1789 70.1736 59.2246 69.4363Z" fill="#2E2E2E"/>
<path d="M58.1284 61.346C58.1284 61.346 59.8902 58.9611 61.9464 58.6661C61.9464 58.6661 62.972 64.0766 62.9009 64.519C62.8298 64.9614 62.0226 65.8513 61.6519 65.7038C61.2813 65.5564 58.5701 62.3274 58.1284 61.346Z" fill="white"/>
<path d="M64.3478 58.417C64.3478 58.417 63.6522 65.0682 63.5608 65.4547C63.4694 65.8411 63.7284 65.7649 63.9568 65.4699C64.1853 65.175 65.6171 58.9509 65.6171 58.9509C65.6171 58.9509 65.0129 58.4882 64.3529 58.4119L64.3478 58.417Z" fill="white"/>
<path d="M56.2139 68.3277L60.7427 65.7191C60.7427 65.7191 57.4831 69.7973 57.2445 69.9193C57.0059 70.0363 56.3713 68.8464 56.2139 68.3277Z" fill="#2E2E2E"/>
<path d="M56.0566 67.5345C56.0566 67.5345 59.0775 66.2632 60.1894 65.3835C60.1894 65.3835 56.4171 66.7361 56.0566 67.5345Z" fill="#2E2E2E"/>
<path d="M88.9462 76.3112C88.6061 77.9232 87.7429 79.2707 86.6158 80.1657C85.3973 81.1369 83.8691 81.5743 82.3409 81.2539C81.1071 80.9895 80.0765 80.2725 79.3454 79.2758C78.335 77.8978 77.9035 75.996 78.3147 74.0535C79.0255 70.7024 81.9855 68.4904 84.9201 69.1108C87.8546 69.7363 89.6621 72.9602 88.9462 76.3163V76.3112Z" fill="white"/>
<path d="M86.6819 76.0061C86.0981 78.747 83.7981 80.5827 81.5388 80.0996C79.2795 79.6216 77.9239 77.0079 78.5027 74.2671C79.0866 71.5262 81.3865 69.6905 83.6458 70.1736C85.9051 70.6516 87.2607 73.2653 86.6819 76.0061Z" fill="#2E2E2E"/>
<path d="M87.2098 76.118C86.6259 78.8589 84.326 80.6946 82.0667 80.2115C79.8073 79.7335 78.4517 77.1198 79.0305 74.3789C79.6144 71.6381 81.9143 69.8024 84.1737 70.2855C86.433 70.7635 87.7886 73.3772 87.2098 76.118Z" fill="#E74514"/>
<path d="M84.0671 70.6618C84.0011 70.6414 83.9351 70.6262 83.8691 70.6109C85.6106 71.3126 86.4026 73.9009 85.636 76.5553C85.6106 76.6519 85.5801 76.7435 85.5497 76.835C85.768 76.4689 85.9457 76.0672 86.0726 75.6298C86.7174 73.4077 85.8188 71.1855 84.0671 70.6618Z" fill="white"/>
<path d="M79.7615 74.1298C79.7615 74.1298 80.8633 73.8501 81.2644 73.9365C81.5081 73.9874 81.2136 76.3418 82.7266 77.0842C83.8588 77.6384 85.5139 77.1147 85.5139 77.1147C85.5139 77.1147 84.991 79.9979 82.0767 79.2046C79.1624 78.4114 79.2538 74.8569 79.7565 74.1298H79.7615Z" fill="#2E2E2E"/>
<path d="M83.3308 71.6889C83.3308 71.6889 80.9344 75.1264 81.6807 78.1978C81.6807 78.1978 82.6047 74.3382 83.3308 71.6889Z" fill="#2E2E2E"/>
<path d="M84.4935 72.3144C84.4935 72.3144 82.1428 75.5434 82.9196 78.4622C82.9196 78.4622 83.798 74.8162 84.4935 72.3144Z" fill="#2E2E2E"/>
<path d="M85.5699 72.9602C85.5699 72.9602 83.2902 75.8434 84.1229 78.5029C84.1229 78.5029 84.9251 75.2129 85.5699 72.9602Z" fill="#2E2E2E"/>
<path d="M84.5039 69.9295C84.5039 69.9295 88.1797 71.4042 87.5197 75.8078C87.5197 75.8078 87.7431 75.64 88.1696 75.401C88.5961 75.162 89.0124 75.0908 88.9261 75.0756C88.8398 75.0603 89.2002 70.2397 84.5039 69.9295Z" fill="#989898"/>
<path d="M82.3867 80.7708C82.3867 80.7708 83.7982 80.7301 84.3668 80.0335C84.3668 80.0335 84.5394 80.5776 84.971 80.7403C84.971 80.7403 83.6103 81.1573 82.3867 80.7708Z" fill="#2E2E2E"/>
<path d="M200.023 129.699L211.081 102.179L208.34 100.77L192.103 125.514" stroke="white" stroke-width="0.5" stroke-linecap="round" stroke-linejoin="round"/>
<path d="M195.616 134.56L223.083 145.646L224.495 142.905L199.795 126.628" stroke="white" stroke-width="0.5" stroke-linecap="round" stroke-linejoin="round"/>
<path d="M190.768 130.203L180.04 157.85L182.796 159.228L198.739 134.291" stroke="white" stroke-width="0.5" stroke-linecap="round" stroke-linejoin="round"/>
<path d="M195.058 125.29L167.317 114.897L165.981 117.673L191.078 133.33" stroke="white" stroke-width="0.5" stroke-linecap="round" stroke-linejoin="round"/>
<path d="M198.302 126.307L185.086 99.7584L182.218 100.877L189.92 129.465" stroke="white" stroke-width="0.5" stroke-linecap="round" stroke-linejoin="round"/>
<path d="M198.845 133.025L226.018 121.217L225.053 118.288L196.139 124.472" stroke="white" stroke-width="0.5" stroke-linecap="round" stroke-linejoin="round"/>
<path d="M192.377 133.447L204.775 160.387L207.679 159.36L200.856 130.548" stroke="white" stroke-width="0.5" stroke-linecap="round" stroke-linejoin="round"/>
<path d="M191.941 126.821L164.773 138.634L165.733 141.563L194.647 135.374" stroke="white" stroke-width="0.5" stroke-linecap="round" stroke-linejoin="round"/>
<path d="M199.201 127.324L196.764 97.7956L194.144 97.8159L191.59 127.274" stroke="white" stroke-width="0.5" stroke-linecap="round" stroke-linejoin="round"/>
<path d="M199.922 130.777L219.042 108.174L217.179 106.333L194.576 125.351" stroke="white" stroke-width="0.5" stroke-linecap="round" stroke-linejoin="round"/>
<path d="M197.993 133.732L227.47 131.296L227.455 128.672L198.038 126.109" stroke="white" stroke-width="0.5" stroke-linecap="round" stroke-linejoin="round"/>
<path d="M194.54 134.454L217.108 153.609L218.946 151.743L199.957 129.099" stroke="white" stroke-width="0.5" stroke-linecap="round" stroke-linejoin="round"/>
<path d="M191.59 132.521L194.027 162.045L196.642 162.03L199.201 132.572" stroke="white" stroke-width="0.5" stroke-linecap="round" stroke-linejoin="round"/>
<path d="M190.869 129.069L171.744 151.667L173.607 153.512L196.215 134.489" stroke="white" stroke-width="0.5" stroke-linecap="round" stroke-linejoin="round"/>
<path d="M192.799 126.109L163.321 128.55L163.336 131.174L192.748 133.732" stroke="white" stroke-width="0.5" stroke-linecap="round" stroke-linejoin="round"/>
<path d="M196.251 125.387L173.683 106.237L171.84 108.103L190.834 130.742" stroke="white" stroke-width="0.5" stroke-linecap="round" stroke-linejoin="round"/>
<path d="M198.104 90.2951C176.252 90.2951 157.898 108.037 157.101 129.923C156.309 151.809 173.378 169.551 195.23 169.551C217.082 169.551 235.436 151.809 236.233 129.923C237.025 108.037 219.956 90.2951 198.104 90.2951ZM222.5 129.923C221.956 144.878 209.411 157.001 194.479 157.001C179.547 157.001 167.88 144.878 168.423 129.923C168.966 114.968 181.512 102.845 196.444 102.845C211.376 102.845 223.043 114.968 222.5 129.923Z" fill="#2E2E2E"/>
<path d="M197.484 95.7768C180.065 95.7768 165.427 111.062 164.793 129.923C164.158 148.783 177.77 164.069 195.195 164.069C212.619 164.069 227.252 148.783 227.886 129.923C228.521 111.062 214.909 95.7768 197.484 95.7768Z" stroke="white" stroke-width="0.5" stroke-linecap="round" stroke-linejoin="round"/>
<path d="M203.805 139.586C209.324 134.157 209.561 125.433 204.333 120.101C199.105 114.769 190.392 114.848 184.872 120.277C179.353 125.706 179.116 134.429 184.344 139.761C189.572 145.093 198.285 145.015 203.805 139.586Z" fill="#2E2E2E"/>
<path d="M205.229 139.581C210.749 134.152 210.985 125.429 205.757 120.097C200.529 114.765 191.817 114.843 186.297 120.272C180.777 125.701 180.54 134.425 185.768 139.757C190.996 145.089 199.709 145.01 205.229 139.581Z" fill="#989898"/>
<path d="M207.106 129.923C206.949 134.276 204.369 138.054 200.714 139.961C186.884 145.442 192.367 124.914 189.031 123.836C187.006 123.18 185.295 125.997 185.198 126.165C186.904 121.741 191.23 118.563 196.175 118.563C202.44 118.563 207.329 123.648 207.106 129.923Z" fill="#2E2E2E"/>
<path d="M198.701 132.913C200.413 131.229 200.486 128.522 198.863 126.867C197.24 125.211 194.537 125.235 192.824 126.92C191.111 128.604 191.039 131.311 192.662 132.966C194.284 134.621 196.988 134.598 198.701 132.913Z" stroke="white" stroke-width="0.5" stroke-linecap="round" stroke-linejoin="round"/>
<path d="M200.098 132.91C201.811 131.225 201.884 128.518 200.261 126.863C198.638 125.208 195.934 125.232 194.221 126.916C192.509 128.601 192.436 131.308 194.059 132.963C195.682 134.618 198.386 134.594 200.098 132.91Z" fill="white"/>
<path d="M184.858 127.502C184.513 127.502 184.228 127.833 184.213 128.235C184.203 128.641 184.467 128.967 184.812 128.967C185.158 128.967 185.442 128.636 185.457 128.235C185.472 127.833 185.203 127.502 184.858 127.502Z" fill="white"/>
<path d="M185.482 132.516C185.137 132.516 184.853 132.847 184.838 133.248C184.822 133.65 185.091 133.981 185.437 133.981C185.782 133.981 186.066 133.65 186.081 133.248C186.092 132.842 185.828 132.516 185.482 132.516Z" fill="white"/>
<path d="M189.133 136.894C188.788 136.894 188.503 137.225 188.488 137.627C188.478 138.033 188.742 138.359 189.087 138.359C189.432 138.359 189.717 138.028 189.732 137.627C189.742 137.22 189.478 136.894 189.133 136.894Z" fill="white"/>
<path d="M196.129 119.839C193.738 119.839 191.509 120.678 189.732 122.072C191.214 121.253 192.91 120.785 194.697 120.785C200.257 120.785 204.598 125.301 204.4 130.869C204.283 134.042 202.719 136.869 200.363 138.715C203.496 136.986 205.689 133.696 205.826 129.918C206.029 124.35 201.683 119.834 196.124 119.834L196.129 119.839Z" fill="white"/>
<path d="M112.428 134.428C120.167 134.428 126.441 128.145 126.441 120.393C126.441 112.642 120.167 106.359 112.428 106.359C104.689 106.359 98.415 112.642 98.415 120.393C98.415 128.145 104.689 134.428 112.428 134.428Z" fill="#989898"/>
<path d="M115.977 134.428C123.716 134.428 129.99 128.145 129.99 120.393C129.99 112.642 123.716 106.359 115.977 106.359C108.238 106.359 101.964 112.642 101.964 120.393C101.964 128.145 108.238 134.428 115.977 134.428Z" stroke="white" stroke-width="0.5" stroke-linecap="round" stroke-linejoin="round"/>
<path d="M115.977 123.948C117.937 123.948 119.526 122.357 119.526 120.393C119.526 118.43 117.937 116.839 115.977 116.839C114.017 116.839 112.428 118.43 112.428 120.393C112.428 122.357 114.017 123.948 115.977 123.948Z" fill="#2E2E2E"/>
<path d="M117.18 115.364C117.18 115.364 120.211 116.386 120.536 119L123.481 116.839C123.481 116.839 122.628 111.393 119.307 109.166L117.18 115.364Z" fill="white"/>
<path d="M115.977 122.351C117.056 122.351 117.931 121.475 117.931 120.393C117.931 119.312 117.056 118.436 115.977 118.436C114.897 118.436 114.022 119.312 114.022 120.393C114.022 121.475 114.897 122.351 115.977 122.351Z" stroke="white" stroke-width="0.5" stroke-linecap="round" stroke-linejoin="round"/>
<path d="M104.056 120.393C104.056 120.393 104.772 122.438 105.604 123.394C106.437 124.35 110.011 123.785 111.143 123.948C112.276 124.111 113.596 126.79 115.977 126.826C118.358 126.857 123.308 126.46 124.796 122.356C124.796 122.356 123.582 132.826 114.428 132.826C105.274 132.826 103.345 122.529 104.061 120.399L104.056 120.393Z" fill="#2E2E2E"/>
<path d="M108.188 119.005C108.188 119.321 107.934 119.57 107.62 119.57C107.305 119.57 107.056 119.315 107.056 119.005C107.056 118.695 107.31 118.441 107.62 118.441C107.929 118.441 108.188 118.695 108.188 119.005Z" fill="#2E2E2E"/>
<path d="M111.153 113.605C111.153 113.92 110.9 114.174 110.59 114.174C110.28 114.174 110.026 113.92 110.026 113.605C110.026 113.29 110.28 113.041 110.59 113.041C110.9 113.041 111.153 113.295 111.153 113.605Z" fill="#2E2E2E"/>
<path d="M115.977 111.856C115.977 112.171 115.723 112.425 115.413 112.425C115.103 112.425 114.85 112.171 114.85 111.856C114.85 111.54 115.103 111.286 115.413 111.286C115.723 111.286 115.977 111.54 115.977 111.856Z" fill="#2E2E2E"/>
<path d="M101.964 128.886L103.517 127.752C103.517 127.752 105.604 131.748 109.239 133.304C109.239 133.304 105.533 132.765 101.964 128.886Z" fill="#2E2E2E"/>
<path d="M120.333 89.5476H88.1694L88.4334 90.9409H120.592L120.333 89.5476Z" fill="#989898"/>
<path d="M121.084 92.558H88.9258L89.1847 93.9563H121.348L121.084 92.558Z" fill="#989898"/>
<path d="M121.841 95.5734H89.6772L89.9413 96.9667H122.1L121.841 95.5734Z" fill="#989898"/>
<path d="M122.592 98.5837H90.4336L90.6976 99.9821H122.856L122.592 98.5837Z" fill="#989898"/>
<path d="M141.591 96.8446C141.885 96.8446 142.124 96.6056 142.124 96.3107C142.124 96.0158 141.885 95.7768 141.591 95.7768C141.296 95.7768 141.058 96.0158 141.058 96.3107C141.058 96.6056 141.296 96.8446 141.591 96.8446Z" fill="white"/>
<path d="M145.719 109.176C146.013 109.176 146.252 108.937 146.252 108.642C146.252 108.347 146.013 108.108 145.719 108.108C145.424 108.108 145.186 108.347 145.186 108.642C145.186 108.937 145.424 109.176 145.719 109.176Z" fill="white"/>
<path d="M208.462 150.487H160.508C159.031 150.487 157.833 149.287 157.833 147.807V142.396C157.833 140.917 159.031 139.717 160.508 139.717H208.462C214.722 139.717 220.931 140.846 226.795 143.047C228.694 143.759 228.694 146.449 226.795 147.161C220.931 149.363 214.722 150.492 208.462 150.492V150.487Z" fill="#CFDED6"/>
<path d="M161.727 141.725H213.864C217.555 141.725 221.236 142.086 224.846 142.793C219.855 141.247 214.651 140.454 209.416 140.454H161.463C159.985 140.454 158.787 141.654 158.787 143.134V144.669C158.787 143.042 160.102 141.725 161.727 141.725Z" fill="white"/>
<path d="M219.372 147.639C218.321 147.639 217.468 146.515 217.468 145.132V145.066C217.468 143.683 218.321 142.559 219.372 142.559C221.616 142.559 223.84 143.093 225.942 144.13C226.622 144.466 226.622 145.732 225.942 146.068C223.84 147.105 221.616 147.639 219.372 147.639Z" fill="#2E2E2E"/>
<path d="M172.957 139.717C172.957 139.717 170.891 145.981 172.957 150.492" stroke="#2E2E2E" stroke-width="0.5" stroke-linecap="round" stroke-linejoin="round"/>
<path d="M208.294 139.717C208.294 139.717 206.227 145.981 208.294 150.492" stroke="#2E2E2E" stroke-width="0.5" stroke-linecap="round" stroke-linejoin="round"/>
<path d="M119.805 139.717H116.058V149.099H119.805V139.717Z" fill="#2E2E2E"/>
<path d="M152.598 139.717H148.851V149.099H152.598V139.717Z" fill="#2E2E2E"/>
<path d="M130.685 124.019L131.482 123.155H149.277L148.506 124.019H130.685Z" fill="white"/>
<path d="M130.259 126.124L131.051 125.26H148.851L148.079 126.124H130.259Z" fill="white"/>
<path d="M128.959 128.23L129.512 127.365H147.313L146.78 128.23H128.959Z" fill="white"/>
<path d="M126.928 130.96L127.725 130.096H145.521L144.749 130.96H126.928Z" fill="white"/>
<path d="M96.0745 61.2392C94.1908 61.2392 92.3275 60.7408 90.6521 59.7594L69.4145 47.3265C66.6018 45.6789 64.7029 42.8822 64.2054 39.6583L61.0119 18.8553C60.7986 17.4671 59.9812 16.262 58.7678 15.5501L52.8529 12.0871C52.1371 11.6651 51.8934 10.7447 52.3148 10.0226C52.7362 9.30563 53.6551 9.06155 54.3761 9.48361L60.2909 12.9465C62.2913 14.1161 63.6418 16.1043 63.9921 18.3977L67.1856 39.2006C67.541 41.5245 68.9119 43.5381 70.9376 44.723L92.1752 57.1559C94.201 58.3407 96.6228 58.5492 98.8212 57.7152L118.485 50.2911C120.653 49.4724 123.044 49.6758 125.045 50.8453L130.959 54.3083C131.68 54.7303 131.919 55.6507 131.503 56.3728C131.081 57.0898 130.162 57.3339 129.441 56.9118L123.526 53.4489C122.313 52.737 120.866 52.6149 119.551 53.1133L99.8874 60.5374C98.6536 61.0053 97.364 61.2341 96.0846 61.2341L96.0745 61.2392Z" fill="#2E2E2E"/>
<path d="M122.892 54.0845C121.851 53.8608 121.013 55.2846 121.013 55.2846C121.013 55.2846 119.094 55.5388 116.713 53.9828L115.86 54.7964L120.861 58.1068L125.476 58.239L126.471 55.7778C126.471 55.7778 123.938 54.3032 122.892 54.0794V54.0845Z" fill="#989898"/>
<path d="M122.374 55.1168C122.559 55.1168 122.709 54.9734 122.709 54.7964C122.709 54.6195 122.559 54.4761 122.374 54.4761C122.189 54.4761 122.039 54.6195 122.039 54.7964C122.039 54.9734 122.189 55.1168 122.374 55.1168Z" fill="#2E2E2E"/>
<path d="M126.969 56.2304C126.969 56.2304 126.501 58.1322 127.101 59.3119C127.705 60.4917 139.225 69.0549 140.585 71.9483C141.951 74.8417 140.179 75.2535 139.418 75.218C138.661 75.1824 137.148 73.7077 138.956 72.4873C138.956 72.4873 127.761 61.9663 120.851 58.1068C120.851 58.1068 122.232 56.5711 122.775 56.4135C123.318 56.2558 125.359 57.3084 126.466 55.7829L126.969 56.2304Z" fill="white"/>
<path d="M132.835 54.8231L125.999 50.727L123.968 54.1264L130.804 58.2225L132.835 54.8231Z" fill="white"/>
<path d="M149.251 63.6537L131.636 53.0989C130.818 52.6087 129.758 52.8756 129.268 53.695L128.124 55.6107C127.634 56.4301 127.901 57.4918 128.719 57.982L146.334 68.5367C147.152 69.0269 148.212 68.76 148.702 67.9406L149.846 66.0249C150.335 65.2055 150.069 64.1439 149.251 63.6537Z" fill="#2E2E2E"/>
<path d="M148.054 63.4817L131.868 53.7845C131.203 53.3879 130.375 53.4896 129.827 53.9828L147.236 64.4173C147.531 64.0156 147.815 63.6952 148.054 63.4868V63.4817Z" fill="#989898"/>
<path d="M125.704 56.0372L123.643 54.4659C123.084 54.0388 122.932 53.2557 123.293 52.6505L124.41 50.7792C124.77 50.1741 125.532 49.9351 126.171 50.2301L128.527 51.303C128.893 51.4708 129.03 51.9132 128.822 52.259L126.674 55.8541C126.471 56.1948 126.014 56.2863 125.694 56.0423L125.704 56.0372Z" fill="#2E2E2E"/>
<path d="M148.703 66.6191C148.145 67.5599 147.52 68.2159 147.312 68.0938C147.104 67.9667 147.388 67.1073 147.952 66.1666C148.511 65.2258 149.135 64.5699 149.343 64.6919C149.551 64.819 149.267 65.6784 148.703 66.6191Z" fill="white"/>
<path d="M146.323 68.5413C146.018 68.3582 146.434 67.1073 147.247 65.7445C148.059 64.3817 148.963 63.4257 149.267 63.6037" stroke="white" stroke-width="0.5" stroke-linecap="round" stroke-linejoin="round"/>
<path d="M124.765 50.8301C124.988 50.6064 125.547 50.4131 125.882 50.4945C126.217 50.5758 128.365 51.5369 128.491 51.7607C128.618 51.9844 128.192 52.7065 128.192 52.7065L124.76 50.8301H124.765Z" fill="#989898"/>
<path d="M126.969 139.996C126.969 139.996 143.246 168.534 144.256 169.551C145.267 170.568 151.42 172.876 151.42 172.876C151.253 172.876 153.913 172.876 155.817 172.876C156.411 172.876 155.898 170.969 153.157 171.127C151.476 171.224 147.034 168.808 146.216 168.401C145.465 168.025 131.706 139.722 131.706 139.722L126.969 140.001V139.996Z" fill="#2E2E2E"/>
<path d="M127.598 139.956L143.982 168.335V167.323L128.959 139.879L127.598 139.956Z" fill="white"/>
</g>
<defs>
<clipPath id="clip0_130_5516">
<rect width="237" height="174" fill="white"/>
</clipPath>
</defs>
</svg>
