<svg width="182" height="184" viewBox="0 0 182 184" fill="none" xmlns="http://www.w3.org/2000/svg">
<g clip-path="url(#clip0_443_1864)">
<path d="M49.881 37H2.93716C1.31355 37 0 38.3212 0 39.9502V59.4187C0 61.0477 1.31355 62.3689 2.93716 62.3689H39.8969C41.3936 64.4665 44.1053 68.2242 44.3449 68.2242C44.5704 68.2242 44.1363 64.6754 43.8347 62.3689H49.8838C51.5046 62.3689 52.8209 61.0477 52.8209 59.4187V39.9502C52.8209 38.3212 51.5074 37 49.8838 37H49.881Z" fill="#5F5F5F"/>
<path d="M19.9633 43.9309H6.44452C6.21412 43.9309 6.02734 44.1179 6.02734 44.3487V44.7976C6.02734 45.0283 6.21412 45.2154 6.44452 45.2154H19.9633C20.1937 45.2154 20.3805 45.0283 20.3805 44.7976V44.3487C20.3805 44.1179 20.1937 43.9309 19.9633 43.9309Z" fill="white"/>
<path d="M6.44062 49.5405H15.3028C15.5311 49.5405 15.72 49.7268 15.72 49.9583V50.41C15.72 50.6387 15.534 50.8278 15.3028 50.8278H6.44062C6.21229 50.8278 6.02344 50.6415 6.02344 50.41V49.9583C6.02344 49.7296 6.20948 49.5405 6.44062 49.5405Z" fill="white"/>
<path d="M28.4028 49.5405H18.7316C18.5012 49.5405 18.3145 49.7275 18.3145 49.9583V50.4072C18.3145 50.6379 18.5012 50.825 18.7316 50.825H28.4028C28.6332 50.825 28.82 50.6379 28.82 50.4072V49.9583C28.82 49.7275 28.6332 49.5405 28.4028 49.5405Z" fill="white"/>
<path d="M32.2464 49.5405H46.5883C46.8166 49.5405 47.0055 49.7268 47.0055 49.9583V50.41C47.0055 50.6387 46.8194 50.8278 46.5883 50.8278H32.2464C32.0181 50.8278 31.832 50.6415 31.832 50.4128V49.9611C31.832 49.7324 32.0181 49.5433 32.2492 49.5433L32.2464 49.5405Z" fill="white"/>
<path d="M23.8812 43.9309H46.5892C46.8175 43.9309 47.0063 44.1172 47.0063 44.3487V44.8004C47.0063 45.0291 46.8203 45.2182 46.5892 45.2182H23.8812C23.6528 45.2182 23.4668 45.0319 23.4668 44.8032V44.3515C23.4668 44.1228 23.6528 43.9337 23.884 43.9337L23.8812 43.9309Z" fill="white"/>
<path d="M6.4417 55.2602H24.8342C25.0625 55.2602 25.2514 55.4465 25.2514 55.678V56.1297C25.2514 56.3584 25.0653 56.5476 24.8342 56.5476H6.4417C6.21338 56.5476 6.02734 56.3612 6.02734 56.1326V55.6809C6.02734 55.4522 6.21338 55.263 6.44452 55.263L6.4417 55.2602Z" fill="white"/>
<path d="M28.1878 55.2602H46.5887C46.817 55.2602 47.0059 55.4465 47.0059 55.678V56.1297C47.0059 56.3584 46.8199 56.5476 46.5887 56.5476H28.1878C27.9595 56.5476 27.7734 56.3612 27.7734 56.1326V55.6809C27.7734 55.4522 27.9595 55.263 28.1906 55.263L28.1878 55.2602Z" fill="white"/>
<g clip-path="url(#clip1_443_1864)">
<path d="M118.56 62.87C118.56 62.87 116.85 57.23 118.65 46.71C118.65 46.7 118.09 46.52 118.08 46.51C118.33 45.04 118.61 43.67 118.89 42.49C118.89 42.46 118.89 42.44 118.89 42.44L105.93 52.63C106.63 55.85 106.17 62.28 105.77 65.02C105.77 65.02 104.55 70.03 110.98 69.52C115.68 69.14 118.55 62.87 118.55 62.87H118.56Z" fill="#FFBF9D"/>
<path opacity="0.2" d="M106.22 57.24L114.04 54.52C113.59 57.1 111.72 60.3 106.17 61.18C106.17 61.18 106.41 58.33 106.23 57.24H106.22Z" fill="black"/>
<path d="M118.25 35.66C118.31 44.6 118.52 49.64 114.33 54.48C108.02 61.75 96.99 58.51 94.25 49.74C91.79 41.85 92.1 28.55 100.6 24.49C108.97 20.49 118.19 26.72 118.25 35.66Z" fill="#FFBF9D"/>
<path d="M118.651 24.88C117.091 20.06 104.791 20.84 101.531 23.58C101.041 23.99 108.581 27.15 108.121 27.02L111.631 27.97C112.151 27.82 113.231 28.36 113.881 29.97C113.881 29.97 114.421 43.65 118.561 47.34C121.571 45.61 121.381 40.19 122.141 36.9C123.271 32 124.551 24.85 118.651 24.88Z" fill="#263238"/>
<path d="M122.271 42.84C121.711 45.18 120.121 47.04 118.421 48.04C115.851 49.54 114.661 46.7 114.721 43.88C114.771 41.34 115.301 38.21 118.191 37.86C121.041 37.52 122.901 40.16 122.271 42.84Z" fill="#FFBF9D"/>
<path d="M105.669 39.1C105.729 40.01 105.299 40.78 104.699 40.81C104.099 40.84 103.569 40.13 103.509 39.22C103.449 38.31 103.879 37.54 104.479 37.51C105.079 37.48 105.609 38.19 105.669 39.1Z" fill="#263238"/>
<path d="M96.7496 39.89C96.8096 40.8 96.3796 41.57 95.7796 41.6C95.1796 41.63 94.6496 40.92 94.5896 40.01C94.5296 39.1 94.9596 38.33 95.5596 38.3C96.1596 38.27 96.6896 38.98 96.7496 39.89Z" fill="#263238"/>
<path d="M100.113 44.9187C100.113 44.8842 99.7261 44.8325 99.1031 44.7807C98.9474 44.7692 98.7974 44.7462 98.7628 44.6427C98.7224 44.5334 98.7801 44.3609 98.8493 44.1711C98.982 43.7858 99.1204 43.3832 99.2646 42.9577C99.8415 41.2324 100.251 39.8176 100.182 39.7946C100.113 39.7716 99.5877 41.1518 99.0108 42.8771C98.8724 43.3027 98.7397 43.7053 98.6128 44.0964C98.5609 44.2746 98.4686 44.4817 98.5551 44.7175C98.6013 44.8325 98.7224 44.913 98.8205 44.936C98.9243 44.9648 99.0108 44.959 99.0916 44.9648C99.7146 44.9705 100.107 44.9648 100.107 44.9245L100.113 44.9187Z" fill="#263238"/>
<path d="M107.61 34.65C107.48 34.72 107.31 34.71 107.18 34.62C105.59 33.55 104.13 34.13 104.12 34.14C103.9 34.23 103.65 34.13 103.56 33.91C103.47 33.69 103.57 33.44 103.79 33.35C103.87 33.32 105.7 32.59 107.67 33.92C107.87 34.05 107.92 34.32 107.79 34.51C107.75 34.57 107.69 34.62 107.63 34.65H107.61Z" fill="#263238"/>
<path d="M102.93 48.9C104.41 48.81 105.51 48 106.58 46.82" stroke="#263238" stroke-width="0.75" stroke-linecap="round" stroke-linejoin="round"/>
<path opacity="0.2" d="M120.069 40.52C119.669 40.01 118.929 39.87 118.319 40.06C117.709 40.26 117.219 40.74 116.879 41.28C116.469 41.93 116.229 42.69 116.189 43.46" stroke="black" stroke-width="0.5" stroke-linecap="round" stroke-linejoin="round"/>
<path d="M92.5402 36.31C92.4602 36.3 92.3802 36.26 92.3202 36.2C92.1402 36.04 92.1302 35.77 92.2802 35.6C93.8402 33.83 95.7902 34.13 95.8802 34.13C96.1102 34.17 96.2702 34.39 96.2402 34.62C96.2102 34.85 95.9902 35.01 95.7602 34.98C95.6802 34.96 94.1802 34.76 92.9202 36.17C92.8202 36.28 92.6802 36.33 92.5402 36.31Z" fill="#263238"/>
<path d="M120.21 20.88C119.38 18.94 116.76 18.72 114.83 19.3C114.72 16.86 111.43 15.72 109.44 15.96C107.37 16.2 106.69 17.1 106.69 17.1C106.85 17.12 105.96 15.95 105.43 15.5C103.47 13.84 100.57 13.53 98.3796 14.76C96.1896 15.98 94.8296 18.67 95.0796 21.28C93.6796 20.08 91.3696 20.32 90.2696 21.8C89.1696 23.27 89.4796 25.7 90.9196 26.85C89.3996 27.07 88.2696 28.79 88.5896 30.38C88.9096 31.97 90.6196 33.09 92.0996 32.7C92.3496 34.49 92.7296 36.72 92.9796 38.52L94.8096 31.69C96.0096 31.14 96.1996 30.56 96.3296 29.18C97.3896 30.8 98.7996 30.54 100.64 30.31C102.48 30.08 104.13 28.7 104.74 26.87C105.85 28.56 107.78 29.75 109.71 29.54C111.64 29.33 113.35 27.47 113.17 25.43C114.46 27.07 116.93 27.52 118.63 26.42C120.33 25.32 121.05 22.82 120.21 20.89V20.88Z" fill="#263238"/>
<path d="M133.751 62.31C133.751 62.31 141.701 62.53 144.901 71.4C147.841 79.57 155.331 97.58 155.331 97.58L137.431 102.82L130.301 81.49L133.751 62.3V62.31Z" fill="#00AF00"/>
<path d="M104.499 147.38L115.289 170.41C115.289 170.41 98.1494 222 97.1194 227.38C96.0894 232.76 95.6094 300.5 95.6094 300.5L114.679 300.53L122.159 234.45C122.159 234.45 145.319 178.33 147.009 173.76C150.189 165.22 146.849 153.74 146.849 153.74L140.949 145.24L104.489 147.39L104.499 147.38Z" fill="#5F5F5F"/>
<path d="M94.0302 158.93C94.0302 161.03 101.47 232.48 102.69 232.74C103.91 233 157.8 291.94 157.8 291.94L173.1 278.5L133.56 224.89L129.18 176.71L127.65 146.42L93.1602 148.97L94.0302 158.93Z" fill="#5F5F5F"/>
<path opacity="0.4" d="M100.201 216.45L115.291 170.41L110.041 165.61L111.711 172.21L99.5508 210.98L100.201 216.45Z" fill="#292929"/>
<path d="M48.0389 84.68L71.3889 106.11L82.2689 85.85C82.2689 85.85 94.1389 97.57 93.7389 97.75C93.3389 97.92 79.7589 127.64 69.9689 122.31C60.1789 116.98 43.6289 90.16 43.6289 90.16L48.0389 84.67V84.68Z" fill="#FFBF9D"/>
<path opacity="0.2" d="M71.3887 106.11C71.3887 106.11 73.4087 109.35 73.1587 112.4C73.1587 112.4 74.0687 110.9 73.7887 108.47C73.5187 106.04 72.3287 104.35 72.3287 104.35L71.3887 106.1V106.11Z" fill="black"/>
<path d="M92.8898 67.63C99.2598 70.9 101.82 82.52 88.1198 110.53L71.7598 97.91C74.3798 90.92 77.0498 87.28 81.2398 78.8C87.8898 65.63 92.8898 67.63 92.8898 67.63Z" fill="#00AF00"/>
<path d="M92.6889 67.2C97.1889 66.2 115.069 61.52 134.189 62.32L144.289 133.56C144.289 133.56 146.249 142.89 148.939 152.15C130.729 162.7 105.449 164.4 91.8789 158.64C92.0589 158.92 91.6289 151.03 91.0489 139.47C90.0189 119.09 88.5089 87.32 88.9789 68.77C88.9989 68.31 92.2289 67.28 92.6789 67.18L92.6889 67.2Z" fill="#00AF00"/>
<path opacity="0.2" d="M89.5988 107.43L88.9588 84.39L86.0488 108.93L88.1188 110.53L89.5988 107.43Z" fill="black"/>
<path opacity="0.2" d="M138.428 102.53L137.428 102.82L130.908 85.35L135.798 105.34L139.118 105.36L138.428 102.53Z" fill="black"/>
<path d="M50.2995 88.39C50.2995 88.39 52.0895 85.56 51.4495 82.87C50.8095 80.18 51.0195 77.85 50.3995 75.88C49.7895 73.91 48.6695 76.46 48.3595 77.94C48.0395 79.42 47.6695 81.09 46.5995 80.67C45.5295 80.25 39.3195 72.55 37.7695 72.14C36.2195 71.73 36.8295 73.29 36.8295 73.29C36.8295 73.29 35.2695 71.46 34.3795 71.88C34.1495 71.99 33.7895 72.62 34.3695 73.56C35.6695 75.69 38.6395 80.01 38.6395 80.01C38.4695 79.76 34.4295 74.69 33.7295 74.01C32.8095 73.12 31.9195 73.17 31.4195 73.72C30.7095 74.5 35.5095 80.96 35.5195 81.38C35.5195 81.38 32.8795 77.57 31.5295 77.71C30.1695 77.85 31.6995 80.34 33.4695 82.28C35.0895 84.06 37.7995 87.97 39.6195 89.62C41.8595 91.65 43.8295 92.51 46.4295 91.38C49.0295 90.25 50.3095 88.39 50.3095 88.39H50.2995Z" fill="#FFBF9D"/>
<path opacity="0.3" d="M37.0801 73.5C38.2901 75 39.4401 76.55 40.5101 78.15" stroke="black" stroke-width="0.25" stroke-linecap="round" stroke-linejoin="round"/>
<path opacity="0.3" d="M36.4902 82.9C37.9502 80.88 40.0102 79.3 42.3402 78.43" stroke="black" stroke-width="0.25" stroke-linecap="round" stroke-linejoin="round"/>
<path opacity="0.3" d="M46.2802 81.88C45.6002 82.63 45.1802 83.62 45.1302 84.63C45.0802 85.64 45.3902 86.67 46.0002 87.48" stroke="black" stroke-width="0.25" stroke-linecap="round" stroke-linejoin="round"/>
<path d="M153.99 97.97C153.99 97.97 159.38 110.73 161.66 122.18C162.7 127.38 158.54 130.72 154.29 131.75C140.89 134.99 110.69 135 110.69 135L109.9 125.79L144.68 118.26L138.43 102.53L153.99 97.97Z" fill="#FFBF9D"/>
<path d="M110.61 136.96L99.2103 138.25C98.8203 138.29 98.4303 138.16 98.1503 137.88L80.8003 120.73C80.0803 120.02 80.4103 118.8 81.3903 118.55L91.4203 115.96C91.8603 115.85 92.3303 115.97 92.6503 116.29L111.38 134.74C112.16 135.51 111.7 136.83 110.62 136.95L110.61 136.96Z" fill="#263238"/>
<path d="M111.68 125.84C111.68 125.84 111.36 124.5 106.31 122.96C102.48 121.79 98.6697 118.2 98.0497 118.33C97.4297 118.46 96.7497 120.41 98.3497 122.13C99.9397 123.86 101.59 124.83 101.17 125.49C100.16 127.08 87.6897 125.79 87.4697 127.15C87.2597 128.51 89.6297 132.41 96.3097 135.01C102.99 137.61 112.14 135.01 112.14 135.01L111.67 125.86L111.68 125.84Z" fill="#FFBF9D"/>
</g>
</g>
<defs>
<clipPath id="clip0_443_1864">
<rect width="182" height="184" fill="white"/>
</clipPath>
<clipPath id="clip1_443_1864">
<rect width="153" height="170" fill="white" transform="translate(31 14)"/>
</clipPath>
</defs>
</svg>
