<svg width="257" height="257" viewBox="0 0 257 257" fill="none" xmlns="http://www.w3.org/2000/svg">
<g clip-path="url(#clip0_221_20181)">
<path d="M0 40C0 17.9086 17.9086 0 40 0H217C239.091 0 257 17.9086 257 40V217C257 239.091 239.091 257 217 257H40C17.9086 257 0 239.091 0 217V40Z" fill="url(#paint0_linear_221_20181)"/>
<path opacity="0.3" d="M70.329 170.598C70.329 175.393 123.671 179.284 189.475 179.284C255.278 179.284 308.62 175.393 308.62 170.598C308.62 165.803 255.278 161.912 189.475 161.912C123.671 161.912 70.329 165.803 70.329 170.598Z" fill="#1A1A1A"/>
<path d="M60.6947 158.07C60.6947 158.07 85.7951 160.324 90.6089 160.324C95.4227 160.324 101.378 158.07 106.192 158.07H268.141C274.33 158.07 304.822 154.802 312.387 153.911C319.951 153.007 327.75 153.007 329.689 149.294C331.628 145.581 332.673 132.31 331.518 129.042C330.377 125.775 328.767 126.45 327.158 120.712C325.549 114.974 321.657 101.581 320.281 100.798C318.906 100.015 304.699 99.1103 290.477 94.1554C276.256 89.2005 258.748 80.4383 232.726 78.0756C206.704 75.7129 183.336 77.063 164.301 83.9216C145.266 90.7801 119.712 105.415 112.615 106.873C105.504 108.332 82.7006 111.707 70.4323 117.904C58.164 124.101 56.1147 128.921 54.6156 135.455C53.1302 141.976 53.6666 149.321 53.3227 150.333C52.9789 151.346 52.8138 152.359 53.3227 153.371C53.8316 154.384 55.7434 157.638 60.6809 158.07H60.6947Z" fill="#313232"/>
<path d="M54.6165 135.454C53.1311 141.975 53.6675 149.32 53.3237 150.333C52.9798 151.345 52.8148 152.358 53.3237 153.37C53.8326 154.383 55.7443 157.637 60.6819 158.069C60.6819 158.069 85.7823 160.323 90.5961 160.323C95.4099 160.323 101.365 158.069 106.179 158.069H268.128C274.318 158.069 304.81 154.802 312.374 153.91C319.939 153.006 327.737 153.006 329.676 149.293C331.615 145.58 332.661 132.309 331.505 129.041C330.364 125.774 328.755 126.449 327.145 120.711C326.802 119.51 326.362 117.957 325.88 116.269L55.6343 131.809C55.2355 132.97 54.9191 134.172 54.6303 135.441L54.6165 135.454Z" fill="#202020"/>
<path d="M272.228 106.441C271.554 105.361 270.852 104.361 270.123 103.295C268.803 101.391 267.427 99.4065 266.052 96.7603L265.433 97.0708C266.836 99.7576 268.211 101.756 269.546 103.686C270.274 104.739 270.962 105.739 271.622 106.805C273.617 110.005 274.015 113.205 272.736 115.581C271.911 117.12 264.553 125.018 257.442 132.646C252.257 138.222 247.361 143.474 245.009 146.228C239.755 152.425 234.886 152.938 230.746 152.938H203.844C203.844 150.738 203.762 137.723 203.844 122.979C203.927 107.008 205.77 102.485 205.797 102.431L205.165 102.174C205.082 102.35 203.239 106.805 203.157 122.979C203.074 137.709 203.157 150.711 203.157 152.938H137.662C133.687 152.938 133.329 152.061 132.903 151.035C132.6 150.279 131.486 146.579 130.262 130.797C129.162 116.701 131.17 109.978 131.197 109.91L131.335 109.478H130.867C130.867 109.478 129.423 109.478 126.411 110.167C123.619 110.788 119.741 111.355 115.559 111.855C116.646 110.342 118.888 107.21 119.163 106.387C119.232 106.184 119.204 105.982 119.08 105.793C118.888 105.496 118.406 105.239 117.829 105.036C117.499 105.171 117.169 105.307 116.852 105.442C117.829 105.698 118.475 105.982 118.503 106.171C118.255 106.913 115.766 110.396 114.624 111.963C111.626 112.314 108.518 112.651 105.547 112.962C99.9078 113.556 95.039 114.069 93.0447 114.555C90.6791 115.122 84.3524 117.187 78.7684 119.024C73.542 120.738 68.6045 122.345 67.8068 122.453C66.9815 122.561 65.6749 121.886 64.6159 121.211C64.4096 121.346 64.217 121.494 64.0107 121.629C65.1385 122.372 66.7615 123.263 67.903 123.114C68.7695 123.006 73.5008 121.454 79.0022 119.658C84.5725 117.836 90.8854 115.77 93.2235 115.216C95.1766 114.744 100.018 114.231 105.629 113.637C108.669 113.313 111.887 112.975 114.968 112.611L114.996 112.638C114.996 112.638 115.009 112.611 115.023 112.611C119.466 112.084 123.619 111.504 126.576 110.828C128.543 110.383 129.808 110.234 130.427 110.194C129.987 111.936 128.639 118.551 129.588 130.864C130.785 146.309 131.871 150.306 132.284 151.305C132.848 152.709 133.536 153.627 137.675 153.627H230.774C233.882 153.627 239.659 153.627 245.559 146.674C247.884 143.933 252.78 138.681 257.965 133.105C265.103 125.437 272.489 117.511 273.369 115.891C274.772 113.299 274.359 109.856 272.241 106.441H272.228Z" fill="#999999"/>
<path d="M276.257 127.961C262.489 127.961 251.335 138.911 251.335 152.439C251.335 154.383 251.583 156.26 252.023 158.069H268.156C272.529 158.069 289.048 156.435 301.027 155.166C301.123 154.275 301.192 153.371 301.192 152.439C301.192 138.924 290.038 127.961 276.27 127.961H276.257Z" fill="#616161"/>
<path d="M106.192 158.069H124.677C125.117 156.26 125.365 154.383 125.365 152.439C125.365 138.924 114.197 127.961 100.443 127.961C86.6895 127.961 75.5215 138.911 75.5215 152.439C75.5215 154.856 75.8928 157.191 76.5668 159.406C82.6046 159.892 88.5325 160.31 90.623 160.31C95.4368 160.31 101.392 158.055 106.206 158.055L106.192 158.069Z" fill="#616161"/>
<path d="M100.444 174.041C112.598 174.041 122.45 164.369 122.45 152.439C122.45 140.509 112.598 130.837 100.444 130.837C88.2908 130.837 78.4385 140.509 78.4385 152.439C78.4385 164.369 88.2908 174.041 100.444 174.041Z" fill="#404040"/>
<path d="M115.476 152.439C115.476 160.594 108.736 167.196 100.443 167.196C92.1495 167.196 85.3965 160.58 85.3965 152.439C85.3965 144.298 92.1358 137.682 100.443 137.682C108.75 137.682 115.476 144.284 115.476 152.439Z" fill="#C1C2C3"/>
<path d="M276.256 174.041C288.409 174.041 298.262 164.369 298.262 152.439C298.262 140.509 288.409 130.837 276.256 130.837C264.102 130.837 254.25 140.509 254.25 152.439C254.25 164.369 264.102 174.041 276.256 174.041Z" fill="#404040"/>
<path d="M205.137 80.37C198.343 80.6671 190.434 80.4511 178.056 83.0703C165.678 85.6895 145.309 96.3148 137.056 101.378C128.804 106.441 121.666 111.504 121.666 111.504C121.666 111.504 166.53 107.966 190.352 106.103C214.173 104.24 252.67 101.796 257.318 101.297C261.967 100.797 279.668 95.8963 279.324 94.9647C278.98 94.0332 248.544 78.5204 205.137 80.37Z" fill="#5B5B5B"/>
<path d="M198.975 104.105C199.828 104.038 199.759 103.754 199.979 102.944C200.199 102.147 202.524 84.3664 202.661 83.5833C202.799 82.8003 202.758 81.8147 202.125 81.8282C201.987 81.8282 201.85 81.8282 201.712 81.8282C195.551 82.0172 188.564 82.2197 178.345 84.3799C165.788 87.0396 145.226 97.9485 137.785 102.512C136.162 103.497 134.594 104.497 133.095 105.455C130.606 107.048 131.183 109.384 134.127 109.154C149.201 107.966 174.384 105.982 190.228 104.74C192.965 104.524 195.908 104.308 198.962 104.078L198.975 104.105Z" fill="#6D6D6D"/>
<path d="M93.1267 114.892C85.3971 115.986 75.2469 118.686 69.3191 121.13C63.3912 123.574 59.1826 128.218 59.5265 129.987C59.8703 131.755 69.2366 129.906 75.9483 126.868C82.6601 123.83 93.9794 114.771 93.1404 114.879L93.1267 114.892Z" fill="#E0E0E0"/>
<path d="M261.952 95.8693C261.952 94.1006 258.761 88.2006 253.838 86.7695C242.876 83.9478 228.737 81.5716 212.343 81.5716C212.15 81.5716 211.958 81.5716 211.765 81.5716C211.229 81.5851 210.954 82.1521 210.926 82.5977C210.899 83.0432 210.431 100.676 210.472 101.931C210.514 103.2 212.013 103.16 212.013 103.16C219.027 102.66 226.11 102.174 232.451 101.742C245.022 100.878 254.965 100.19 257.166 99.9601C257.606 99.9061 258.143 99.8251 258.761 99.7171C261.663 99.0825 261.966 97.6514 261.966 95.8693H261.952Z" fill="#6D6D6D"/>
<path d="M57.6153 150.832C59.8846 150.832 62.1815 149.293 62.7454 147.281L63.887 143.177C64.5884 140.733 62.9517 138.6 60.2147 138.6H54.0531C53.2829 144.149 53.613 149.482 53.3241 150.333C53.2691 150.495 53.2279 150.67 53.1729 150.846H57.6015L57.6153 150.832Z" fill="#4F4F4F"/>
<path d="M196.195 113.488C196.347 114.784 194.229 116.107 191.45 116.431C188.672 116.755 186.293 115.959 186.128 114.663C185.976 113.367 188.095 112.044 190.873 111.719C193.651 111.395 196.03 112.192 196.195 113.488Z" fill="#878787"/>
<path d="M197.846 113.299C197.928 113.961 194.999 114.852 191.299 115.284C187.613 115.716 184.546 115.527 184.464 114.865C184.381 114.204 187.311 113.313 191.01 112.881C194.71 112.448 197.763 112.638 197.846 113.299Z" fill="#CCCCCC"/>
<path d="M264.359 110.113C264.51 111.409 262.392 112.732 259.614 113.056C256.836 113.38 254.456 112.584 254.291 111.288C254.126 109.991 256.258 108.668 259.036 108.344C261.814 108.02 264.194 108.817 264.359 110.113Z" fill="#878787"/>
<path d="M266.01 109.924C266.093 110.586 263.163 111.477 259.463 111.909C255.777 112.341 252.71 112.152 252.628 111.49C252.545 110.829 255.475 109.937 259.174 109.505C262.874 109.073 265.927 109.262 266.01 109.924Z" fill="#CCCCCC"/>
</g>
<path d="M0.5 40C0.5 18.1848 18.1848 0.5 40 0.5H217C238.815 0.5 256.5 18.1848 256.5 40V217C256.5 238.815 238.815 256.5 217 256.5H40C18.1848 256.5 0.5 238.815 0.5 217V40Z" stroke="url(#paint1_linear_221_20181)"/>
<defs>
<linearGradient id="paint0_linear_221_20181" x1="17.1811" y1="30.4915" x2="277.193" y2="206.566" gradientUnits="userSpaceOnUse">
<stop stop-color="white"/>
<stop offset="1" stop-color="#F1F1F1"/>
</linearGradient>
<linearGradient id="paint1_linear_221_20181" x1="17.539" y1="10.0186" x2="196.429" y2="190.606" gradientUnits="userSpaceOnUse">
<stop stop-color="#00FF00"/>
<stop offset="1" stop-color="#F1F1F1"/>
</linearGradient>
<clipPath id="clip0_221_20181">
<path d="M0 40C0 17.9086 17.9086 0 40 0H217C239.091 0 257 17.9086 257 40V217C257 239.091 239.091 257 217 257H40C17.9086 257 0 239.091 0 217V40Z" fill="white"/>
</clipPath>
</defs>
</svg>
