<svg width="249" height="119" viewBox="0 0 249 119" fill="none" xmlns="http://www.w3.org/2000/svg">
<path opacity="0.3" d="M20.0002 108.025C20.0002 113.56 81.5648 118.05 157.511 118.05C233.457 118.05 295.022 113.56 295.022 108.025C295.022 102.491 233.457 98 157.511 98C81.5648 98 20.0002 102.491 20.0002 108.025Z" fill="#1A1A1A"/>
<path d="M8.88075 93.5658C8.88075 93.5658 37.8502 96.1681 43.406 96.1681C48.9618 96.1681 55.8351 93.5658 61.3909 93.5658H248.304C255.447 93.5658 290.639 89.795 299.369 88.7665C308.1 87.7225 317.1 87.7225 319.338 83.4374C321.577 79.1523 322.783 63.835 321.45 60.0641C320.132 56.2933 318.275 57.0724 316.418 50.4499C314.56 43.8275 310.068 28.37 308.481 27.4662C306.893 26.5625 290.496 25.5184 274.082 19.7998C257.669 14.0811 237.462 3.96829 207.429 1.24141C177.396 -1.48548 150.426 0.0727421 128.457 7.98849C106.488 15.9042 76.9948 32.7953 68.8039 34.4782C60.5972 36.1611 34.2787 40.0566 20.1193 47.2089C5.96 54.3611 3.59482 59.9239 1.86458 67.4657C0.150226 74.9919 0.7693 83.4686 0.372457 84.6373C-0.0243848 85.8059 -0.214869 86.9746 0.372457 88.1432C0.959784 89.3119 3.16623 93.0672 8.86488 93.5658H8.88075Z" fill="#313232"/>
<path d="M1.86556 67.4648C0.151202 74.991 0.770276 83.4677 0.373434 84.6363C-0.0234082 85.805 -0.213892 86.9737 0.373434 88.1423C0.960761 89.311 3.1672 93.0663 8.86586 93.5649C8.86586 93.5649 37.8353 96.1672 43.3911 96.1672C48.9469 96.1672 55.8202 93.5649 61.376 93.5649H248.289C255.432 93.5649 290.624 89.7941 299.354 88.7656C308.085 87.7216 317.085 87.7216 319.323 83.4365C321.562 79.1514 322.768 63.8341 321.435 60.0632C320.117 56.2924 318.26 57.0715 316.403 50.449C316.006 49.0622 315.498 47.2703 314.942 45.3225L3.04021 63.2576C2.57988 64.5977 2.21478 65.9845 1.88143 67.4492L1.86556 67.4648Z" fill="#202020"/>
<path d="M253.02 33.9786C252.242 32.7321 251.432 31.579 250.591 30.348C249.067 28.1509 247.48 25.8603 245.892 22.8062L245.178 23.1646C246.797 26.2654 248.384 28.5716 249.924 30.7999C250.765 32.0153 251.559 33.1684 252.321 34.3994C254.623 38.0923 255.083 41.7853 253.607 44.5278C252.654 46.3041 244.162 55.4197 235.955 64.2237C229.971 70.6591 224.32 76.7206 221.605 79.8993C215.542 87.0516 209.922 87.6437 205.144 87.6437H174.096C174.096 85.1038 174 70.0826 174.096 53.0668C174.191 34.6331 176.318 29.4131 176.35 29.3507L175.619 29.0547C175.524 29.2572 173.397 34.3994 173.302 53.0668C173.207 70.067 173.302 85.0726 173.302 87.6437H97.7113C93.1239 87.6437 92.7111 86.6308 92.2191 85.4466C91.8698 84.574 90.5841 80.3045 89.1713 62.0889C87.9014 45.8211 90.219 38.0612 90.2507 37.9833L90.4095 37.4846H89.8698C89.8698 37.4846 88.203 37.4846 84.7267 38.2793C81.5043 38.9961 77.0279 39.6505 72.2023 40.2271C73.4564 38.4819 76.0438 34.8668 76.3612 33.9163C76.4406 33.6826 76.4089 33.4488 76.266 33.2307C76.0438 32.8879 75.4882 32.5918 74.8215 32.3581C74.4405 32.5139 74.0596 32.6697 73.6945 32.8255C74.8215 33.1216 75.5676 33.4488 75.5993 33.667C75.3136 34.524 72.4404 38.5442 71.1229 40.3517C67.6625 40.7569 64.075 41.1464 60.6463 41.5048C54.1381 42.1904 48.5188 42.7826 46.2171 43.3435C43.4868 43.998 36.1849 46.382 29.7402 48.5012C23.7082 50.4802 18.0096 52.3344 17.0889 52.4591C16.1365 52.5838 14.6285 51.8047 13.4062 51.0255C13.1681 51.1814 12.9459 51.3528 12.7078 51.5086C14.0094 52.3656 15.8825 53.394 17.2 53.2226C18.2001 53.098 23.6606 51.306 30.0101 49.2336C36.4389 47.13 43.7249 44.7459 46.4235 44.107C48.6775 43.5617 54.2651 42.9695 60.7415 42.2839C64.2496 41.91 67.9641 41.5204 71.5198 41.0997L71.5515 41.1309C71.5515 41.1309 71.5674 41.0997 71.5833 41.0997C76.7105 40.492 81.5043 39.8219 84.9172 39.0428C87.1871 38.5286 88.6475 38.3572 89.3618 38.3105C88.8538 40.3206 87.2982 47.9559 88.3935 62.1668C89.7745 79.9928 91.0285 84.6051 91.5047 85.7582C92.1556 87.3788 92.9492 88.4384 97.7272 88.4384H205.176C208.764 88.4384 215.431 88.4384 222.24 80.4135C224.923 77.2504 230.574 71.1889 236.558 64.7534C244.797 55.9028 253.321 46.756 254.337 44.8862C255.956 41.8944 255.48 37.9209 253.035 33.9786H253.02Z" fill="#999999"/>
<path d="M257.67 58.8168C241.78 58.8168 228.907 71.4539 228.907 87.0673C228.907 89.3111 229.192 91.477 229.7 93.565H248.32C253.368 93.565 272.432 91.6796 286.258 90.2149C286.369 89.1864 286.449 88.1424 286.449 87.0673C286.449 71.4695 273.575 58.8168 257.686 58.8168H257.67Z" fill="#616161"/>
<path d="M61.3912 93.565H82.7255C83.2334 91.477 83.5192 89.3111 83.5192 87.0673C83.5192 71.4695 70.6297 58.8168 54.756 58.8168C38.8824 58.8168 25.9929 71.4539 25.9929 87.0673C25.9929 89.8565 26.4215 92.5522 27.1993 95.1077C34.1679 95.6686 41.0094 96.1517 43.4222 96.1517C48.978 96.1517 55.8513 93.5494 61.4071 93.5494L61.3912 93.565Z" fill="#616161"/>
<path d="M54.7575 111.999C68.7844 111.999 80.1554 100.837 80.1554 87.0672C80.1554 73.2979 68.7844 62.1357 54.7575 62.1357C40.7306 62.1357 29.3596 73.2979 29.3596 87.0672C29.3596 100.837 40.7306 111.999 54.7575 111.999Z" fill="#404040"/>
<path d="M72.1059 87.0672C72.1059 96.4788 64.3278 104.099 54.756 104.099C45.1841 104.099 37.3901 96.4632 37.3901 87.0672C37.3901 77.6711 45.1682 70.0359 54.756 70.0359C64.3437 70.0359 72.1059 77.6556 72.1059 87.0672Z" fill="#C1C2C3"/>
<path d="M257.669 111.999C271.696 111.999 283.067 100.837 283.067 87.0672C283.067 73.2979 271.696 62.1357 257.669 62.1357C243.643 62.1357 232.271 73.2979 232.271 87.0672C232.271 100.837 243.643 111.999 257.669 111.999Z" fill="#404040"/>
<path d="M257.672 104.099C267.254 104.099 275.022 96.4733 275.022 87.0672C275.022 77.6611 267.254 70.0359 257.672 70.0359C248.09 70.0359 240.322 77.6611 240.322 87.0672C240.322 96.4733 248.09 104.099 257.672 104.099Z" fill="#C1C2C3"/>
<path d="M175.587 3.88954C167.746 4.23235 158.618 3.98304 144.332 7.00598C130.046 10.0289 106.537 22.2921 97.0124 28.1354C87.4882 33.9787 79.2498 39.8221 79.2498 39.8221C79.2498 39.8221 131.03 35.7395 158.523 33.5892C186.016 31.4388 230.447 28.6185 235.812 28.0419C241.177 27.4654 261.607 21.8091 261.21 20.7339C260.813 19.6587 225.685 1.75478 175.587 3.88954Z" fill="#5B5B5B"/>
<path d="M168.476 31.283C169.46 31.2051 169.381 30.8779 169.635 29.943C169.889 29.0236 172.572 8.50187 172.73 7.5981C172.889 6.69434 172.842 5.55684 172.111 5.57242C171.953 5.57242 171.794 5.57242 171.635 5.57242C164.524 5.79057 156.46 6.0243 144.666 8.51745C130.173 11.5871 106.442 24.1775 97.8542 29.4443C95.9811 30.5818 94.1715 31.7349 92.4413 32.8412C89.5682 34.6799 90.2349 37.3757 93.6318 37.1108C111.029 35.7395 140.094 33.4489 158.381 32.0154C161.539 31.7661 164.936 31.5168 168.46 31.2519L168.476 31.283Z" fill="#6D6D6D"/>
<path d="M46.3121 43.7332C37.3911 44.9954 25.6763 48.1118 18.8347 50.9322C11.9932 53.7526 7.13583 59.1128 7.53267 61.1541C7.92951 63.1954 18.7395 61.0606 26.4859 57.5546C34.2322 54.0486 47.2963 43.593 46.328 43.7176L46.3121 43.7332Z" fill="#E0E0E0"/>
<path d="M241.161 21.7778C241.161 19.7365 237.478 12.9271 231.795 11.2754C219.144 8.01872 202.826 5.27626 183.904 5.27626C183.682 5.27626 183.46 5.27626 183.238 5.27626C182.619 5.29184 182.301 5.94629 182.269 6.4605C182.238 6.97471 181.698 27.325 181.746 28.7742C181.793 30.2389 183.524 30.1922 183.524 30.1922C191.619 29.6156 199.794 29.0547 207.112 28.556C221.62 27.5588 233.097 26.7641 235.637 26.4992C236.145 26.4369 236.764 26.3434 237.478 26.2187C240.828 25.4863 241.177 23.8346 241.177 21.7778H241.161Z" fill="#6D6D6D"/>
<path d="M5.32618 85.2129C7.94533 85.2129 10.5962 83.4366 11.2471 81.1148L12.5646 76.3778C13.3741 73.5575 11.4852 71.0955 8.3263 71.0955H1.21489C0.325964 77.4998 0.706933 83.6547 0.373585 84.6364C0.31009 84.8234 0.262469 85.0259 0.198975 85.2285H5.3103L5.32618 85.2129Z" fill="#4F4F4F"/>
<path d="M165.269 42.1125C165.444 43.6084 163 45.1355 159.793 45.5094C156.587 45.8834 153.84 44.9641 153.65 43.4682C153.475 41.9723 155.92 40.4452 159.126 40.0713C162.333 39.6973 165.079 40.6166 165.269 42.1125Z" fill="#878787"/>
<path d="M167.174 41.8944C167.269 42.6579 163.888 43.6863 159.618 44.1849C155.364 44.6836 151.824 44.4654 151.729 43.7019C151.634 42.9384 155.015 41.9099 159.285 41.4113C163.555 40.9127 167.079 41.1308 167.174 41.8944Z" fill="#CCCCCC"/>
<path d="M243.938 38.2171C244.113 39.713 241.669 41.2401 238.462 41.614C235.256 41.988 232.509 41.0687 232.319 39.5728C232.128 38.0769 234.589 36.5498 237.795 36.1759C241.002 35.8019 243.748 36.7212 243.938 38.2171Z" fill="#878787"/>
<path d="M245.844 37.9989C245.939 38.7625 242.558 39.7909 238.288 40.2895C234.034 40.7882 230.494 40.57 230.398 39.8065C230.303 39.043 233.684 38.0145 237.954 37.5159C242.224 37.0173 245.748 37.2354 245.844 37.9989Z" fill="#CCCCCC"/>
</svg>
