<svg width="205" height="109" viewBox="0 0 205 109" fill="none" xmlns="http://www.w3.org/2000/svg">
<g clip-path="url(#clip0_309_439)">
<path d="M28.7185 37.8999C29.7038 38.8318 28.8942 43.3918 27.9365 43.9214C26.9787 44.451 20.0954 43.7082 19.2789 42.68C18.4624 41.6517 19.2789 37.0574 20.2711 36.4693C21.2633 35.8813 28.0433 37.2603 28.7151 37.8999H28.7185Z" fill="#C7C7C7"/>
<path d="M20.5054 36.3835C21.3425 37.1848 24.1193 39.7502 25.1494 39.7055C26.2656 39.6539 27.5472 39.0039 28.8701 38.0961C28.8253 38.0204 28.7736 37.9516 28.7151 37.8966C28.0812 37.2982 22.0454 36.0396 20.5054 36.3835Z" fill="#EBEBEB"/>
<path d="M24.3054 41.1567C24.3054 41.5762 24.6464 41.9167 25.0667 41.9167C25.4871 41.9167 25.8281 41.5762 25.8281 41.1567C25.8281 40.7371 25.4871 40.3967 25.0667 40.3967C24.6464 40.3967 24.3054 40.7371 24.3054 41.1567Z" fill="#EBEBEB"/>
<path d="M27.6365 46.15H30.0137C30.0137 46.15 25.7555 41.0122 25.3283 40.9435C24.9011 40.8747 24.815 40.9332 25.0458 41.4043C25.2008 41.7207 27.6365 46.15 27.6365 46.15Z" fill="#C7C7C7"/>
<path d="M25.0454 41.4043C25.2004 41.7172 27.6361 46.15 27.6361 46.15H27.9014C27.9014 46.15 25.2245 41.5384 25.0729 41.222C25.0006 41.0673 24.9834 40.9744 25.0075 40.9297C24.8835 40.9641 24.8938 41.0948 25.0454 41.4043Z" fill="#A6A6A6"/>
<path d="M25.0704 40.9228L28.2709 46.15H29.6523L25.3976 40.9779C25.3701 40.9572 25.3425 40.9504 25.3287 40.9469C25.2185 40.9263 25.1324 40.9194 25.0704 40.9228Z" fill="#EBEBEB"/>
<path d="M124.513 89.0639C124.513 89.0639 111.494 81.1098 98.1754 81.2886C98.1754 81.2886 103.295 59.3691 114.66 59.6889C126.026 60.0087 124.513 89.0639 124.513 89.0639Z" fill="#161616"/>
<path opacity="0.6" d="M124.513 89.0639C124.513 89.0639 111.494 81.1098 98.1754 81.2886C98.1754 81.2886 103.295 59.3691 114.66 59.6889C126.026 60.0087 124.513 89.0639 124.513 89.0639Z" fill="#1D1D1D"/>
<path d="M194.9 76.622C194.9 76.622 187.307 72.595 174.075 73.2003C174.075 73.2003 176.707 63.2447 186.536 63.2447C196.365 63.2447 194.9 76.6185 194.9 76.6185V76.622Z" fill="#161616"/>
<path opacity="0.6" d="M194.9 76.622C194.9 76.622 187.307 72.595 174.075 73.2003C174.075 73.2003 176.707 63.2447 186.536 63.2447C196.365 63.2447 194.9 76.6185 194.9 76.6185V76.622Z" fill="#1D1D1D"/>
<path d="M90.6485 89.3012C90.8552 97.8262 93.8386 108.28 100.491 108.28C101.142 108.28 110.051 108.476 110.634 108.256C115.994 106.238 119.171 95.137 118.568 85.3568C118.099 77.7362 115.967 69.2043 110.358 68.1795C109.982 68.1107 100.615 68.1795 100.209 68.1795C93.4941 68.1795 90.4245 80.1331 90.645 89.3012H90.6485Z" fill="#263238"/>
<path d="M101.328 89.3012C101.535 97.8262 104.518 108.28 111.171 108.28C117.823 108.28 120.865 96.1996 120.197 85.3568C119.697 77.2307 117.386 68.1795 110.888 68.1795C104.391 68.1795 101.104 80.1331 101.324 89.3012H101.328Z" fill="#37474F"/>
<path d="M104.901 88.9676C105.042 94.8172 106.92 101.987 111.064 101.987C115.209 101.987 117.083 93.6995 116.649 86.2578C116.325 80.6833 114.871 74.4727 110.823 74.4727C106.775 74.4727 104.746 82.6745 104.901 88.9642V88.9676Z" fill="#C7C7C7"/>
<path d="M105.855 88.8954C105.976 94.1947 107.547 100.691 111.023 100.691C114.499 100.691 116.07 93.1803 115.708 86.44C115.436 81.3883 114.216 75.7623 110.823 75.7623C107.429 75.7623 105.727 83.1903 105.855 88.892V88.8954Z" fill="#263238"/>
<path d="M106.231 88.8576C106.338 93.8543 107.764 99.9858 110.913 99.9858C114.062 99.9858 115.488 92.9017 115.157 86.5432C114.909 81.7769 113.803 76.4707 110.73 76.4707C107.657 76.4707 106.111 83.4791 106.228 88.8541L106.231 88.8576Z" fill="#C7C7C7"/>
<path d="M110.51 78.4893C110.51 78.9261 110.709 79.2803 110.954 79.2803C111.199 79.2803 111.398 78.9261 111.398 78.4893C111.398 78.0526 111.199 77.6984 110.954 77.6984C110.709 77.6984 110.51 78.0526 110.51 78.4893Z" fill="#A6A6A6"/>
<path d="M110.51 97.8331C110.51 98.2698 110.709 98.624 110.954 98.624C111.199 98.624 111.398 98.2698 111.398 97.8331C111.398 97.3963 111.199 97.0421 110.954 97.0421C110.709 97.0421 110.51 97.3963 110.51 97.8331Z" fill="#A6A6A6"/>
<path d="M112.884 82.4096C112.884 82.8464 113.083 83.2006 113.328 83.2006C113.573 83.2006 113.772 82.8464 113.772 82.4096C113.772 81.9729 113.573 81.6187 113.328 81.6187C113.083 81.6187 112.884 81.9729 112.884 82.4096Z" fill="#A6A6A6"/>
<path d="M107.94 82.4096C107.94 82.8464 108.14 83.2006 108.385 83.2006C108.629 83.2006 108.829 82.8464 108.829 82.4096C108.829 81.9729 108.629 81.6187 108.385 81.6187C108.14 81.6187 107.94 81.9729 107.94 82.4096Z" fill="#A6A6A6"/>
<path d="M112.884 94.0503C112.884 94.487 113.083 94.8413 113.328 94.8413C113.573 94.8413 113.772 94.487 113.772 94.0503C113.772 93.6136 113.573 93.2594 113.328 93.2594C113.083 93.2594 112.884 93.6136 112.884 94.0503Z" fill="#A6A6A6"/>
<path d="M108.385 94.8413C108.139 94.8413 107.94 94.4871 107.94 94.0503C107.94 93.6135 108.139 93.2594 108.385 93.2594C108.63 93.2594 108.829 93.6135 108.829 94.0503C108.829 94.4871 108.63 94.8413 108.385 94.8413Z" fill="#A6A6A6"/>
<path d="M106.933 88.2317C106.933 88.6684 107.133 89.0226 107.378 89.0226C107.622 89.0226 107.822 88.6684 107.822 88.2317C107.822 87.7949 107.622 87.4407 107.378 87.4407C107.133 87.4407 106.933 87.7949 106.933 88.2317Z" fill="#A6A6A6"/>
<path d="M113.772 88.2317C113.772 88.6684 113.972 89.0226 114.217 89.0226C114.461 89.0226 114.661 88.6684 114.661 88.2317C114.661 87.7949 114.461 87.4407 114.217 87.4407C113.972 87.4407 113.772 87.7949 113.772 88.2317Z" fill="#A6A6A6"/>
<path d="M108.239 88.6994C108.325 92.2174 109.462 96.5298 111.977 96.5298C114.492 96.5298 115.629 91.5434 115.364 87.0694C115.167 83.7165 114.285 79.9818 111.829 79.9818C109.373 79.9818 108.143 84.9132 108.236 88.6994H108.239Z" fill="#A6A6A6"/>
<path d="M108.832 88.6891C108.914 92.1108 110.024 96.3062 112.466 96.3062C114.909 96.3062 116.018 91.4574 115.763 87.1037C115.57 83.8402 114.712 80.2088 112.325 80.2088C109.937 80.2088 108.738 85.006 108.832 88.6856V88.6891Z" fill="#C7C7C7"/>
<path d="M12.6582 87.3892C12.8649 95.9142 15.8484 106.368 22.5009 106.368C23.152 106.368 32.0611 106.564 32.6433 106.344C38.0039 104.326 41.1803 93.225 40.5774 83.4447C40.1089 75.8242 37.9764 67.2923 32.3677 66.2675C31.9922 66.1987 22.6249 66.2675 22.2184 66.2675C15.5039 66.2675 12.4343 78.2211 12.6548 87.3892H12.6582Z" fill="#263238"/>
<path d="M23.3376 87.3892C23.5443 95.9142 26.5278 106.368 33.1803 106.368C39.8328 106.368 42.8749 94.2876 42.2065 83.4448C41.707 75.3187 39.3953 66.2675 32.8978 66.2675C26.4003 66.2675 23.1137 78.2211 23.3342 87.3892H23.3376Z" fill="#37474F"/>
<path d="M26.9106 87.0522C27.0519 92.9017 28.9295 100.072 33.0739 100.072C37.2184 100.072 39.0926 91.7841 38.6585 84.3423C38.3346 78.7679 36.8808 72.5572 32.8328 72.5572C28.7848 72.5572 26.7556 80.759 26.9106 87.0487V87.0522Z" fill="#C7C7C7"/>
<path d="M27.8647 86.9834C27.9853 92.2827 29.5563 98.7788 33.0324 98.7788C36.5085 98.7788 38.0795 91.2682 37.7178 84.528C37.4456 79.4763 36.226 73.8503 32.8326 73.8503C29.4392 73.8503 27.7373 81.2783 27.8647 86.9799V86.9834Z" fill="#263238"/>
<path d="M28.2409 86.9456C28.3477 91.9423 29.7739 98.0738 32.9228 98.0738C36.0716 98.0738 37.4979 90.9897 37.1671 84.6312C36.9191 79.8649 35.8132 74.5587 32.7402 74.5587C29.6671 74.5587 28.1203 81.5671 28.2374 86.9421L28.2409 86.9456Z" fill="#C7C7C7"/>
<path d="M32.5194 76.5738C32.5194 77.0106 32.7192 77.3648 32.9638 77.3648C33.2084 77.3648 33.4082 77.0106 33.4082 76.5738C33.4082 76.1371 33.2084 75.7829 32.9638 75.7829C32.7192 75.7829 32.5194 76.1371 32.5194 76.5738Z" fill="#A6A6A6"/>
<path d="M32.5194 95.9211C32.5194 96.3578 32.7192 96.712 32.9638 96.712C33.2084 96.712 33.4082 96.3578 33.4082 95.9211C33.4082 95.4843 33.2084 95.1301 32.9638 95.1301C32.7192 95.1301 32.5194 95.4843 32.5194 95.9211Z" fill="#A6A6A6"/>
<path d="M34.8934 80.4976C34.8934 80.9344 35.0932 81.2886 35.3378 81.2886C35.5824 81.2886 35.7822 80.9344 35.7822 80.4976C35.7822 80.0609 35.5824 79.7067 35.3378 79.7067C35.0932 79.7067 34.8934 80.0609 34.8934 80.4976Z" fill="#A6A6A6"/>
<path d="M29.95 80.4976C29.95 80.9344 30.1498 81.2886 30.3944 81.2886C30.639 81.2886 30.8389 80.9344 30.8389 80.4976C30.8389 80.0609 30.639 79.7067 30.3944 79.7067C30.1498 79.7067 29.95 80.0609 29.95 80.4976Z" fill="#A6A6A6"/>
<path d="M34.8934 92.1383C34.8934 92.575 35.0932 92.9292 35.3378 92.9292C35.5824 92.9292 35.7822 92.575 35.7822 92.1383C35.7822 91.7016 35.5824 91.3474 35.3378 91.3474C35.0932 91.3474 34.8934 91.7016 34.8934 92.1383Z" fill="#A6A6A6"/>
<path d="M29.95 92.1383C29.95 92.575 30.1498 92.9292 30.3944 92.9292C30.639 92.9292 30.8389 92.575 30.8389 92.1383C30.8389 91.7016 30.639 91.3474 30.3944 91.3474C30.1498 91.3474 29.95 91.7016 29.95 92.1383Z" fill="#A6A6A6"/>
<path d="M28.9432 86.3197C28.9432 86.7564 29.143 87.1106 29.3876 87.1106C29.6322 87.1106 29.832 86.7564 29.832 86.3197C29.832 85.8829 29.6322 85.5287 29.3876 85.5287C29.143 85.5287 28.9432 85.8829 28.9432 86.3197Z" fill="#A6A6A6"/>
<path d="M35.7821 86.3197C35.7821 86.7564 35.9819 87.1106 36.2265 87.1106C36.4711 87.1106 36.6709 86.7564 36.6709 86.3197C36.6709 85.8829 36.4711 85.5287 36.2265 85.5287C35.9819 85.5287 35.7821 85.8829 35.7821 86.3197Z" fill="#A6A6A6"/>
<path d="M30.249 86.7874C30.3351 90.3053 31.472 94.6177 33.9869 94.6177C36.5019 94.6177 37.6387 89.6313 37.3735 85.1573C37.1771 81.8044 36.2951 78.0698 33.8388 78.0698C31.3824 78.0698 30.1525 83.0011 30.2455 86.7874H30.249Z" fill="#A6A6A6"/>
<path d="M30.8413 86.777C30.924 90.1987 32.0333 94.3942 34.4759 94.3942C36.9184 94.3942 38.0278 89.5453 37.7728 85.1917C37.5799 81.9282 36.7221 78.2967 34.3346 78.2967C31.9472 78.2967 30.7483 83.094 30.8413 86.7736V86.777Z" fill="#C7C7C7"/>
<path d="M163.285 82.4716C163.478 90.3501 166.234 100.017 172.383 100.017C172.986 100.017 181.223 100.199 181.761 99.9962C186.718 98.1288 189.654 87.8672 189.095 78.8263C188.661 71.7835 186.691 63.8947 181.506 62.949C181.161 62.8871 172.497 62.949 172.121 62.949C165.913 62.949 163.075 73.9981 163.281 82.475L163.285 82.4716Z" fill="#263238"/>
<path d="M173.155 82.4716C173.348 90.3501 176.104 100.017 182.254 100.017C188.403 100.017 191.218 88.8473 190.598 78.8229C190.136 71.3089 187.997 62.9455 181.992 62.9455C175.987 62.9455 172.945 73.9947 173.152 82.4716H173.155Z" fill="#37474F"/>
<path d="M176.462 82.1586C176.593 87.5646 178.329 94.1947 182.157 94.1947C185.984 94.1947 187.72 86.5329 187.321 79.6551C187.021 74.5002 185.678 68.7607 181.936 68.7607C178.195 68.7607 176.317 76.34 176.462 82.1586Z" fill="#C7C7C7"/>
<path d="M177.34 82.0967C177.451 86.9937 178.905 93.0015 182.119 93.0015C185.333 93.0015 186.787 86.0583 186.449 79.8271C186.198 75.157 185.071 69.9574 181.933 69.9574C178.794 69.9574 177.223 76.8249 177.34 82.0933V82.0967Z" fill="#263238"/>
<path d="M177.688 82.0589C177.788 86.6808 179.108 92.3481 182.019 92.3481C184.93 92.3481 186.25 85.8004 185.943 79.9199C185.716 75.5147 184.692 70.6108 181.85 70.6108C179.008 70.6108 177.582 77.0897 177.688 82.0589Z" fill="#C7C7C7"/>
<path d="M182.057 73.2003C181.83 73.2003 181.647 72.8739 181.647 72.4713C181.647 72.0686 181.83 71.7422 182.057 71.7422C182.283 71.7422 182.467 72.0686 182.467 72.4713C182.467 72.8739 182.283 73.2003 182.057 73.2003Z" fill="#A6A6A6"/>
<path d="M182.057 91.086C181.83 91.086 181.647 90.7596 181.647 90.3569C181.647 89.9543 181.83 89.6279 182.057 89.6279C182.283 89.6279 182.467 89.9543 182.467 90.3569C182.467 90.7596 182.283 91.086 182.057 91.086Z" fill="#A6A6A6"/>
<path d="M183.838 76.0993C183.838 76.5016 184.021 76.8283 184.248 76.8283C184.476 76.8283 184.658 76.5016 184.658 76.0993C184.658 75.6969 184.476 75.3702 184.248 75.3702C184.021 75.3702 183.838 75.6969 183.838 76.0993Z" fill="#A6A6A6"/>
<path d="M179.266 76.0993C179.266 76.5016 179.449 76.8283 179.676 76.8283C179.903 76.8283 180.086 76.5016 180.086 76.0993C180.086 75.6969 179.903 75.3702 179.676 75.3702C179.449 75.3702 179.266 75.6969 179.266 76.0993Z" fill="#A6A6A6"/>
<path d="M183.838 86.8596C183.838 87.2619 184.021 87.5886 184.248 87.5886C184.476 87.5886 184.658 87.2619 184.658 86.8596C184.658 86.4572 184.476 86.1306 184.248 86.1306C184.021 86.1306 183.838 86.4572 183.838 86.8596Z" fill="#A6A6A6"/>
<path d="M179.266 86.8596C179.266 87.2619 179.449 87.5886 179.676 87.5886C179.903 87.5886 180.086 87.2619 180.086 86.8596C180.086 86.4572 179.903 86.1306 179.676 86.1306C179.449 86.1306 179.266 86.4572 179.266 86.8596Z" fill="#A6A6A6"/>
<path d="M178.749 82.2102C178.523 82.2102 178.339 81.8838 178.339 81.4811C178.339 81.0785 178.523 80.7521 178.749 80.7521C178.976 80.7521 179.159 81.0785 179.159 81.4811C179.159 81.8838 178.976 82.2102 178.749 82.2102Z" fill="#A6A6A6"/>
<path d="M184.662 81.4811C184.662 81.8835 184.844 82.2102 185.071 82.2102C185.299 82.2102 185.481 81.8835 185.481 81.4811C185.481 81.0788 185.299 80.7521 185.071 80.7521C184.844 80.7521 184.662 81.0788 184.662 81.4811Z" fill="#A6A6A6"/>
<path d="M179.545 81.9144C179.625 85.1676 180.679 89.1533 183.001 89.1533C185.323 89.1533 186.377 84.5452 186.132 80.4082C185.95 77.3063 185.133 73.8571 182.866 73.8571C180.6 73.8571 179.459 78.4171 179.545 81.9144Z" fill="#A6A6A6"/>
<path d="M180.097 81.9007C180.176 85.0645 181.199 88.9435 183.459 88.9435C185.719 88.9435 186.742 84.4592 186.504 80.4357C186.329 77.4198 185.533 74.0634 183.328 74.0634C181.123 74.0634 180.014 78.4996 180.097 81.9007Z" fill="#C7C7C7"/>
<path d="M204.323 70.377C204.457 70.7174 204.488 74.0291 204.271 74.2939C204.057 74.5586 200.536 75.831 200.185 75.8035C199.834 75.776 197.839 74.2663 197.839 74.2663V68.5612H200.133C200.133 68.5612 204.195 70.0503 204.323 70.3735V70.377Z" fill="#263238"/>
<path opacity="0.2" d="M200.189 75.8035C200.54 75.8276 204.061 74.5552 204.278 74.2904C204.492 74.0256 204.461 70.7174 204.326 70.3735C204.326 70.3632 204.312 70.3529 204.302 70.3391C203.968 70.0571 200.433 69.6513 200.268 69.6513C200.102 69.6513 200.075 75.5525 200.189 75.8001V75.8035Z" fill="#1D1D1D"/>
<path d="M99.0025 84.5143C99.0025 85.3877 99.3814 90.804 99.0025 91.1788C98.6235 91.5571 85.4804 90.8246 85.1772 90.7249C84.8741 90.6252 84.3711 90.0199 84.3711 90.0199L5.2541 87.2998C5.2541 87.2998 5.38156 88.0288 5.2541 88.156C5.12663 88.2833 2.37744 88.0047 1.97437 87.9531C1.57128 87.9016 0.158791 86.894 0.0554352 86.6945C-0.0444717 86.4916 0.00375366 82.5644 0.0554352 82.1105C0.107109 81.6565 3.032 80.195 3.48675 80.1469C3.94151 80.0953 7.16959 80.0471 7.22126 80.1469C7.27293 80.2466 7.01799 80.5011 7.01799 80.5011L99.0025 84.5108V84.5143Z" fill="#263238"/>
<path d="M7.02074 80.5011C7.02074 80.5011 5.05702 82.0623 5.08114 82.0623C5.10526 82.0623 84.553 85.5047 84.553 85.5047L86.4443 83.964L7.02074 80.5011Z" fill="#37474F"/>
<path d="M84.3702 90.0199C84.5046 88.3727 84.3978 86.0274 84.3702 84.3595C83.9327 86.2165 84.0326 88.156 84.3702 90.0199Z" fill="#1D1D1D"/>
<path d="M7.02097 80.5011C6.45597 80.8174 5.90476 81.1579 5.39143 81.5637C5.24674 81.6944 4.9849 81.8526 4.947 82.0864C4.85398 83.8299 5.01591 85.5734 5.25707 87.2998C5.32942 86.0067 5.30185 84.7206 5.27084 83.4379C5.27084 83.0287 5.21229 82.4612 5.26397 82.0864C5.7704 81.5052 6.44219 81.0307 7.02441 80.5011H7.02097Z" fill="#1D1D1D"/>
<path d="M57.4052 85.288C57.4052 85.288 57.6085 92.4409 57.202 92.5922C56.7955 92.7435 27.1813 91.5846 26.7265 91.3852C26.2718 91.1823 26.5749 84.1325 26.7265 83.9056C26.8781 83.6786 57.388 84.6862 57.4052 85.2914V85.288Z" fill="#263238"/>
<path d="M56.7372 85.7385C56.7372 85.7385 56.9095 91.7944 56.565 91.9251C56.2239 92.0523 27.719 91.0722 27.3332 90.9003C26.9473 90.7283 27.2057 84.7584 27.3332 84.5658C27.4607 84.3732 56.7234 85.2261 56.7338 85.7385H56.7372Z" fill="white"/>
<path opacity="0.2" d="M93.3003 90.6939C93.3141 90.749 93.4829 90.9553 93.6965 91.1995C96.4491 91.3026 98.8469 91.337 99.0054 91.1788C99.3844 90.804 99.0054 85.3877 99.0054 84.5143L95.829 84.3733C94.9539 85.0335 93.3003 86.3128 93.3003 86.5604C93.3003 86.8974 93.2658 90.522 93.3003 90.6905V90.6939Z" fill="#1D1D1D"/>
<path d="M9.8532 79.8683C9.8532 79.8683 6.34261 53.5539 11.0865 49.7264C15.8304 45.8989 31.268 45.0942 37.5243 45.0942C37.5243 45.0942 42.3681 39.1002 49.5822 37.4392C49.5822 37.4392 58.009 14.7735 59.4869 12.1565C60.9683 9.53605 63.3213 8.19488 67.9653 6.44793C72.6093 4.70097 89.2286 0 123.335 0C157.442 0 168.346 3.1569 172.449 4.43273C176.552 5.70856 180.589 7.92321 184.155 17.7963C187.721 27.6693 188.93 36.5211 188.93 36.5211C188.93 36.5211 191.352 37.8106 192.093 41.3699C192.093 41.3699 196.265 41.504 197.34 43.3851C198.414 45.2662 200.702 48.3543 200.702 54.6681C200.702 60.9819 201.205 73.2519 199.541 74.8131C199.1 75.2258 195.503 76.6254 194.9 76.6254C194.298 76.6254 194.043 70.1294 190.108 66.0474C188.027 63.8912 182.357 63.6505 180.052 66.2503C176.386 70.3804 175.88 80.704 175.277 80.704C174.133 80.704 125.578 86.3438 124.768 86.3438C123.959 86.3438 122.598 65.1395 114.323 64.1835C105.107 63.1175 99.9945 84.9854 98.4442 84.9854C96.8939 84.9854 73.2673 84.3389 72.661 84.3389C72.0547 84.3389 72.3923 83.4757 72.3923 83.4757L27.1649 81.5052C27.1649 81.5052 27.2751 82.0658 26.8031 82.0658C26.4552 82.0658 16.7469 81.9695 12.0443 81.2611C10.4147 81.0169 9.8532 79.8752 9.8532 79.8752V79.8683Z" fill="#161616"/>
<path opacity="0.1" d="M9.85301 79.8718C9.85301 79.8718 10.4146 81.0135 12.0475 81.2576C16.7467 81.966 26.455 82.0623 26.8064 82.0623C27.2784 82.0623 27.1681 81.4984 27.1681 81.4984L72.3956 83.4688C72.3956 83.4688 72.0579 84.3354 72.6643 84.3354C73.2706 84.3354 96.9006 84.982 98.4509 84.982C100.001 84.982 105.11 63.114 114.329 64.1801C122.605 65.1361 123.965 86.3403 124.772 86.3403C125.578 86.3403 174.137 80.7005 175.28 80.7005C175.887 80.7005 176.39 70.3735 180.055 66.2469C182.36 63.6471 188.034 63.8878 190.115 66.044C194.049 70.1225 194.304 76.622 194.907 76.622C195.51 76.622 199.107 75.2224 199.551 74.8097C201.215 73.245 200.709 60.975 200.709 54.6612C200.709 49.0799 198.921 46.0193 197.763 44.0832C199.61 48.2855 196.881 60.92 194.855 62.1821C192.702 63.5233 187.993 60.7687 181.134 62.0789C174.271 63.3891 132.589 70.2325 122.977 70.91C121.041 71.0476 121.123 62.5844 113.048 62.5844C105.727 62.5844 96.222 73.6955 94.2445 74.9129C89.1698 78.0423 82.1108 76.4225 72.4472 76.4225C70.3871 76.4225 65.6707 79.9199 63.5003 79.9405C53.9194 80.0403 37.4656 79.7411 27.5643 77.8428C19.0204 76.2059 21.4699 59.9778 18.8551 57.4364C13.0191 51.7657 9.38103 57.4467 9.3638 53.265C7.42076 61.5665 9.85989 79.8649 9.85989 79.8649L9.85301 79.8718Z" fill="#33FF33"/>
<g opacity="0.3">
<path d="M197.877 45.0873C198.422 46.3769 197.34 42.8555 185.499 42.797C173.658 42.7386 170.003 42.938 169.073 43.2097C168.142 43.4779 166.93 45.0908 166.93 45.0908C166.93 45.0908 167.553 42.7833 168.639 42.4566C169.724 42.1299 189.45 41.1739 192.151 41.3974C194.852 41.6244 196.716 42.3362 197.877 45.0908V45.0873Z" fill="white"/>
<path d="M191.094 40.5102C191.094 40.5102 190.564 39.1759 189.43 39.0761C188.293 38.9764 127.694 42.0714 111.071 42.8796C94.4485 43.6843 68.9168 47.412 68.9168 47.412C68.9168 47.412 95.8093 42.4256 115.136 41.5178C134.46 40.6099 184.993 38.268 186.509 38.0685C188.021 37.8657 188.779 36.889 188.779 36.889C188.779 36.889 189.813 37.9929 189.813 38.3196C189.813 38.3196 191.098 39.0005 191.098 40.5102H191.094Z" fill="white"/>
<path d="M112.607 36.889C112.607 36.889 117.885 37.0369 118.375 38.3471C118.864 39.6573 117.754 40.462 114.323 40.8162C110.892 41.1704 96.4602 42.2778 82.6866 44.0385C68.9131 45.8026 61.2098 47.9794 60.4002 48.0792C60.4002 48.0792 58.8189 46.033 50.747 45.8886C40.2153 45.6995 37.5247 46.5557 37.5247 46.5557C37.5247 46.5557 38.9372 45.4966 39.5435 45.3968C39.5435 45.3968 40.5529 43.9697 43.3779 43.1719C46.2029 42.374 54.7296 39.9565 56.5968 39.9049C58.4641 39.8533 71.1283 40.7096 74.408 40.8128C77.6878 40.9125 83.0863 40.8128 83.0863 40.8128C83.0863 40.8128 81.3706 41.3149 81.4223 41.5178C81.474 41.7207 100.594 40.1078 105.035 39.8568C109.476 39.6057 116.552 40.0562 117.196 39.2034C118.481 37.4908 112.604 36.889 112.604 36.889H112.607Z" fill="white"/>
<path d="M36.9111 45.3143C36.9111 45.3143 22.7414 44.9911 13.195 48.6019C13.195 48.6019 16.0648 49.9946 16.9054 51.5078C16.9054 51.5078 23.1961 50.7684 24.4398 52.113C25.6835 53.4576 21.9835 56.2431 21.8491 56.6799C21.7148 57.1166 22.7242 57.856 22.7242 58.5953C22.7242 59.3347 25.7524 57.8903 27.065 58.4268C28.3776 58.9633 28.4947 60.5108 28.4947 60.5108C28.4947 60.5108 28.5464 48.9905 36.9111 45.3177V45.3143Z" fill="white"/>
<path d="M156.405 49.6748C156.581 49.9018 156.626 50.0428 156.925 50.1838C157.225 50.1975 157.518 50.2147 157.804 50.2285C162.414 50.4692 165.369 50.7134 165.938 50.734C166.84 50.7649 167.047 49.9774 165.938 49.8777C162.899 49.6026 159.861 49.3756 156.836 49.1831C156.726 49.1831 156.619 49.1693 156.509 49.1659C156.147 49.2278 156.254 49.4822 156.402 49.6748H156.405Z" fill="white"/>
<path d="M127.893 49.1659C128.145 49.3241 128.748 49.4547 128.751 49.692C128.751 49.7814 128.865 49.8571 129.009 49.9224C129.13 49.9224 129.251 49.9121 129.371 49.9087C137.56 49.6404 145.129 49.7402 151.237 49.9465C152.398 49.9843 153.508 50.029 154.558 50.0737C154.796 50.0634 153.983 49.6748 153.831 49.6026C153.718 49.5441 153.435 49.1693 152.967 48.9698C152.757 48.9561 152.55 48.9492 152.343 48.9389C143.692 48.5125 135.286 48.4024 127.669 48.4746C127.631 48.4746 127.59 48.4746 127.549 48.4746C127.549 48.4746 127.546 48.4746 127.542 48.4746C127.29 48.5778 127.666 49.0214 127.897 49.1659H127.893Z" fill="white"/>
<path d="M86.0455 51.6419C89.78 52.1267 91.3062 55.9508 91.4096 56.2087C91.3855 56.0608 91.1753 54.7541 91.4096 54.6131C91.6404 54.4721 100.753 51.776 118.791 50.4623C120.131 50.3626 121.527 50.2732 122.967 50.1941C122.967 50.0221 121.113 49.7952 120.91 49.6954C120.714 49.5992 120.125 48.6397 118.857 48.6397H118.795C111.091 48.8529 104.656 49.214 100.243 49.5304C88.2332 50.3832 86.0455 51.6453 86.0455 51.6453V51.6419Z" fill="white"/>
<path d="M89.876 48.0792C87.0992 48.0345 79.7095 49.6267 77.0843 51.9445C74.4591 54.2623 75.9233 55.4212 77.0843 54.5649C78.2453 53.7086 79.9334 51.3667 83.4405 49.9809C85.828 49.0386 89.8725 48.0792 89.8725 48.0792H89.876Z" fill="white"/>
<path d="M122.043 69.7752C120.379 65.5935 117.988 62.4228 113.751 62.4228C109.513 62.4228 107.057 65.48 107.057 65.48C107.057 65.48 109.11 61.8691 113.751 61.8691C120.362 61.8691 122.043 69.7752 122.043 69.7752Z" fill="white"/>
<path d="M74.1596 54.2864C71.7894 56.0712 69.619 62.2681 69.6707 66.3982C69.6707 66.3982 69.1677 59.4963 66.8939 58.7397C64.6236 57.9866 63.9173 60.7893 63.9173 60.7893C63.9173 60.7893 63.4626 56.477 71.5379 55.1667L74.1631 54.2864H74.1596Z" fill="white"/>
<path d="M51.3192 45.7338C52.7696 46.0571 53.0969 48.4575 46.9956 48.2717C46.9956 48.2717 57.7271 49.214 58.8812 50.5105C60.0319 51.8104 59.7632 56.1434 59.9664 56.2087C60.1697 56.2741 61.5133 54.8125 61.5822 52.9074C61.6511 51.0022 61.4857 49.8364 60.404 48.0757C58.9639 45.7304 51.3226 45.7304 51.3226 45.7304L51.3192 45.7338Z" fill="white"/>
<path d="M33.3873 47.7112C34.5897 47.4155 34.128 49.0455 33.3873 50.8784C32.6466 52.7114 32.8878 55.6241 32.4985 55.5794C32.1092 55.5347 31.4236 53.6364 30.5279 53.8565C29.6322 54.0732 28.4091 54.8435 28.4091 54.8435C28.4091 54.8435 31.334 48.2133 33.3873 47.7112Z" fill="white"/>
</g>
<g opacity="0.2">
<path d="M148.292 9.18182C149.291 18.3258 150.549 30.613 151.706 39.7158C153.139 42.4875 153.732 45.6066 154.524 48.6087C155.344 49.7677 155.627 51.2773 155.826 52.6735C156.305 56.9618 155.902 61.3051 155.864 65.6141L155.303 82.9083L155.747 74.2663C156.002 68.5027 156.281 62.7426 156.354 56.9687C156.374 54.8022 156.295 52.5944 155.727 50.4864C155.506 49.7608 155.296 49.073 154.807 48.454L154.848 48.5331C154.462 46.9065 154.052 45.2868 153.573 43.6808C153.139 42.2881 152.719 40.8472 151.989 39.5713C151.954 39.5369 151.954 39.4097 151.94 39.31L151.902 39.0005C150.869 30.1453 149.408 18.0301 148.289 9.18526L148.292 9.18182Z" fill="#1D1D1D"/>
<path d="M121.537 40.8128C122.484 42.7076 122.96 44.8088 123.173 46.9065C125.726 48.7704 127.766 51.5215 128.334 54.6646C128.599 56.5526 128.544 58.4818 128.582 60.387C128.596 67.7393 128.427 78.5925 128.348 85.9689C128.71 77.4473 128.947 68.9154 128.916 60.3835C128.868 58.4612 128.916 56.5251 128.634 54.6131C128.048 51.4114 125.926 48.65 123.308 46.7861C123.208 45.077 122.498 42.5597 121.54 40.8162L121.537 40.8128Z" fill="#1D1D1D"/>
<path d="M72.3924 83.4723C72.4062 78.9364 72.4785 74.4005 72.699 69.8714C72.8885 66.8727 72.985 63.8087 73.7705 60.8994C76.8848 50.3454 90.7307 48.0723 100.215 47.0372C106.241 46.456 112.304 46.3941 118.354 46.5695H118.519L118.529 46.4182C118.753 43.1994 116.535 40.2832 113.627 39.1174C112.204 38.4846 110.664 38.1958 109.155 37.9585C101.569 36.8718 93.9003 36.4695 86.2521 36.1187C77.0709 35.7714 67.8655 35.6132 58.6912 36.2528C55.6388 36.4798 52.5796 36.7824 49.5858 37.4427C52.583 36.8099 55.6423 36.5348 58.6947 36.3353C73.9772 35.5616 89.3355 36.1737 104.556 37.6628C108.876 38.268 114.199 38.2714 116.979 42.1643C117.827 43.3885 118.264 44.9154 118.188 46.3803L118.364 46.229C109.286 46.0296 100.101 46.2118 91.1993 48.172C84.0576 49.778 75.7204 53.1171 73.5948 60.8512C72.8058 63.7915 72.7404 66.8486 72.5785 69.868C72.3993 74.4005 72.3683 78.9398 72.3959 83.4757L72.3924 83.4723Z" fill="#1D1D1D"/>
<path d="M37.5283 45.0942C32.7327 46.6899 29.8629 51.941 28.9707 56.6523C27.3652 64.83 27.5685 73.2175 27.4755 81.5155C27.8923 73.245 27.7339 64.8816 29.2773 56.7177C30.1696 52.0064 32.8223 46.9031 37.5283 45.0942Z" fill="#1D1D1D"/>
<path d="M85.5946 65.4765C85.3914 68.63 85.3879 71.7938 85.4637 74.9507C85.6119 78.1007 85.7118 81.2989 86.5352 84.3595C86.4111 83.6923 86.2733 82.7019 86.2044 82.0176C85.7083 76.6495 85.7255 70.8825 85.5912 65.4731L85.5946 65.4765Z" fill="#1D1D1D"/>
<path d="M12.6679 62.1855C12.3337 65.4146 12.2269 68.6644 12.2441 71.9107C12.382 75.1226 12.3234 78.5065 13.6084 81.5155C12.5921 78.4583 12.692 75.0985 12.5887 71.9072C12.5301 68.7159 12.6128 65.3871 12.6679 62.1855Z" fill="#1D1D1D"/>
<path d="M120.445 12.2528C120.989 9.83178 122.96 7.99541 125.144 6.9775C126.874 6.19343 128.762 5.79796 130.605 5.37497C141.257 3.08811 152.24 2.57228 163.102 3.13969C165.042 3.22567 167.678 3.45263 169.624 3.62802C167.657 3.39417 165.045 3.11562 163.113 2.97119C152.237 2.21807 141.198 2.70639 130.546 5.1205C128.696 5.57443 126.801 6.00085 125.068 6.81587C122.881 7.88537 120.934 9.80771 120.449 12.2528H120.445Z" fill="#1D1D1D"/>
<path d="M65.3779 10.9701C66.4287 7.95758 71.0934 6.0318 73.8047 4.69751C73.3706 4.82819 72.9434 4.9795 72.5128 5.12393C69.9737 6.08682 65.9326 8.05043 65.3779 10.9701Z" fill="#1D1D1D"/>
<path d="M60.4345 76.4879C60.2933 79.4832 56.6966 79.576 54.4056 79.4866C51.8562 79.4556 49.3034 79.4006 46.754 79.3078C43.5879 79.1599 40.3633 79.2218 37.2317 78.761C35.1302 78.3242 34.5824 76.1921 34.6685 74.3076C34.4756 76.2712 34.9958 78.4584 37.1766 78.9708C40.3288 79.5382 43.5535 79.4694 46.7436 79.6517C49.2965 79.717 51.8493 79.7789 54.4056 79.7514C56.7103 79.7927 60.4517 79.576 60.4345 76.4913V76.4879Z" fill="#1D1D1D"/>
<path d="M62.3848 52.3503C62.2228 47.6906 57.5203 46.1431 53.5446 46.0433C49.5655 45.782 45.5554 45.5516 41.5763 45.9161C39.0579 46.1603 35.7988 46.8652 35.0375 49.661C35.9332 46.9546 39.0958 46.3735 41.6004 46.1809C45.5623 45.8886 49.5586 46.1362 53.5239 46.3563C57.4548 46.4491 61.9989 47.7868 62.3848 52.3537V52.3503Z" fill="#1D1D1D"/>
</g>
<path d="M59.8281 53.0518C59.9177 56.5836 59.4733 71.6872 59.1736 74.5587C58.8704 77.4301 58.4156 78.3862 54.0266 78.3862C49.6375 78.3862 41.2108 77.9838 38.6373 77.7328C36.0638 77.4817 35.8123 75.8689 35.9122 72.8461C36.0121 69.8233 36.267 56.2741 36.4152 53.4542C36.5668 50.6343 37.1214 48.7188 40.4494 48.368C44.9211 47.8935 53.4202 48.6191 55.7422 48.9733C58.0642 49.3275 59.7696 50.6859 59.8281 53.0518Z" fill="#263238"/>
<path d="M58.6153 76.9453C58.7565 76.6908 58.8564 76.3985 58.9357 76.0683L59.666 51.9789C59.6006 51.7313 59.5075 51.4974 59.3973 51.2808L58.6153 76.9487V76.9453Z" fill="#1D1D1D"/>
<path d="M57.8403 77.7603C57.9505 77.6949 58.0504 77.6227 58.14 77.5436L58.96 50.6033C58.8704 50.4933 58.7739 50.3936 58.674 50.2973L57.8403 77.7603Z" fill="#1D1D1D"/>
<path d="M57.0823 78.0835C57.1856 78.0526 57.2821 78.0216 57.3751 77.9838L58.2295 49.9259C58.1399 49.8571 58.04 49.7917 57.9401 49.7333L57.0823 78.0835Z" fill="#1D1D1D"/>
<path d="M56.3204 78.2451C56.4237 78.2314 56.5202 78.2142 56.6132 78.1936L57.4883 49.4857C57.3953 49.441 57.2988 49.3963 57.1954 49.3584L56.3169 78.2451H56.3204Z" fill="#1D1D1D"/>
<path d="M55.5659 78.3345C55.6658 78.3242 55.7657 78.3174 55.8587 78.307L56.7441 49.2037C56.6477 49.1693 56.5512 49.1418 56.4513 49.1177L55.5659 78.3345Z" fill="#1D1D1D"/>
<path d="M54.8149 78.3724C54.9148 78.3724 55.0113 78.3655 55.1077 78.3586L56 49.0146C55.9139 48.9974 55.8312 48.9802 55.7451 48.9699C55.7347 48.9699 55.7244 48.9699 55.7106 48.963L54.8149 78.369V78.3724Z" fill="#1D1D1D"/>
<path d="M54.0609 78.3861C54.1608 78.3861 54.2573 78.3861 54.3538 78.3861L55.2529 48.9079C55.1634 48.8942 55.0635 48.8839 54.9601 48.8701L54.0609 78.3896V78.3861Z" fill="#1D1D1D"/>
<path d="M53.3099 78.3793C53.4064 78.3793 53.5029 78.3793 53.6028 78.3793L54.502 48.8082C54.4124 48.7979 54.3125 48.791 54.2126 48.7773L53.3099 78.3758V78.3793Z" fill="#1D1D1D"/>
<path d="M52.5555 78.3724C52.6554 78.3724 52.7519 78.3724 52.8484 78.3724L53.751 48.7291C53.658 48.7188 53.5615 48.7119 53.4581 48.6982L52.5555 78.369V78.3724Z" fill="#1D1D1D"/>
<path d="M51.8045 78.3621C51.9045 78.3621 52.0009 78.3621 52.0974 78.3621L53 48.6569C52.907 48.6466 52.8105 48.6397 52.7072 48.6294L51.8045 78.3586V78.3621Z" fill="#1D1D1D"/>
<path d="M51.0501 78.3449C51.1466 78.3449 51.2431 78.3518 51.343 78.3518L52.249 48.5984C52.1526 48.5881 52.0561 48.5812 51.9562 48.5744L51.0501 78.3449Z" fill="#1D1D1D"/>
<path d="M50.2991 78.3243C50.3956 78.3243 50.4921 78.3243 50.592 78.3311L51.498 48.5366C51.4016 48.5262 51.3051 48.5194 51.2052 48.5125L50.2991 78.3243Z" fill="#1D1D1D"/>
<path d="M49.5482 78.3036C49.6481 78.3036 49.7445 78.3036 49.841 78.3105L50.7471 48.4781C50.6506 48.4678 50.5541 48.4643 50.4542 48.4575L49.5482 78.3036Z" fill="#1D1D1D"/>
<path d="M48.7962 78.2761C48.8927 78.2761 48.9891 78.283 49.0891 78.2899L49.9951 48.4299C49.8987 48.4231 49.8022 48.4162 49.7023 48.4093L48.7962 78.2795V78.2761Z" fill="#1D1D1D"/>
<path d="M48.0423 78.2486C48.1422 78.2486 48.2387 78.2589 48.3351 78.2623L49.2412 48.3818C49.1447 48.3715 49.0483 48.368 48.9484 48.3646L48.0389 78.2486H48.0423Z" fill="#1D1D1D"/>
<path d="M47.2913 78.2176C47.3878 78.2245 47.4877 78.228 47.5842 78.2314L48.4902 48.3371C48.3938 48.3371 48.2973 48.3268 48.1974 48.3233L47.2879 78.2176H47.2913Z" fill="#1D1D1D"/>
<path d="M46.5404 78.1936C46.6368 78.1936 46.7333 78.2005 46.8332 78.2073L47.7393 48.3061C47.6428 48.2993 47.5463 48.2958 47.4464 48.2924L46.5369 78.1936H46.5404Z" fill="#1D1D1D"/>
<path d="M45.7889 78.1592C45.8853 78.1592 45.9818 78.1695 46.0817 78.1729L46.9912 48.2717C46.8947 48.2717 46.7948 48.2649 46.6984 48.258L45.7889 78.1592Z" fill="#1D1D1D"/>
<path d="M45.0379 78.1248C45.1344 78.1248 45.2308 78.1351 45.3307 78.1385L46.2402 48.2477C46.1438 48.2477 46.0473 48.2408 45.9474 48.2374L45.0413 78.1248H45.0379Z" fill="#1D1D1D"/>
<path d="M44.2904 78.0904C44.3868 78.0973 44.4833 78.1007 44.5832 78.1041L45.4893 48.227C45.3928 48.227 45.2929 48.227 45.1964 48.2202L44.2938 78.0869L44.2904 78.0904Z" fill="#1D1D1D"/>
<path d="M43.5365 78.0526C43.6329 78.0595 43.7294 78.0629 43.8293 78.0663L44.7354 48.2167C44.6389 48.2167 44.5424 48.2099 44.4425 48.2167L43.5365 78.0526Z" fill="#1D1D1D"/>
<path d="M42.7845 78.0147C42.881 78.0216 42.9774 78.0251 43.0773 78.0285L43.9834 48.2133C43.8869 48.2133 43.7905 48.2133 43.6906 48.2133L42.7845 78.0113V78.0147Z" fill="#1D1D1D"/>
<path d="M42.034 77.97C42.1271 77.9769 42.2235 77.9838 42.3269 77.9872L43.2295 48.2167C43.133 48.2167 43.0366 48.2167 42.9367 48.2236L42.034 77.97Z" fill="#1D1D1D"/>
<path d="M41.2831 77.9288C41.3761 77.9357 41.4725 77.9391 41.5759 77.9425L42.4785 48.2374C42.3821 48.2374 42.2821 48.2374 42.1857 48.2477L41.2831 77.9288Z" fill="#1D1D1D"/>
<path d="M40.5321 77.8806C40.6251 77.8875 40.7216 77.8944 40.8249 77.8978L41.7275 48.2683C41.6311 48.2683 41.5312 48.2786 41.4347 48.2855L40.5321 77.8772V77.8806Z" fill="#1D1D1D"/>
<path d="M39.7806 77.8256C39.8737 77.8359 39.9701 77.8394 40.0735 77.8497L40.9727 48.3199C40.8727 48.3302 40.7763 48.3371 40.6798 48.3474L39.7806 77.8256Z" fill="#1D1D1D"/>
<path d="M39.0302 77.7672C39.1198 77.7775 39.2197 77.7809 39.323 77.7878L40.2188 48.3921C40.1188 48.4059 40.0189 48.4196 39.9259 48.4368L39.0336 77.7637L39.0302 77.7672Z" fill="#1D1D1D"/>
<path d="M38.2817 77.6846C38.3713 77.6984 38.4712 77.7121 38.5711 77.7225L39.46 48.5366C39.3566 48.5606 39.2601 48.5881 39.1671 48.6191L38.2852 77.6881L38.2817 77.6846Z" fill="#1D1D1D"/>
<path d="M37.5343 77.492C37.6238 77.5298 37.7237 77.5574 37.8236 77.5849L38.7021 48.791C38.5988 48.8323 38.4989 48.8804 38.4059 48.932L37.5377 77.492H37.5343Z" fill="#1D1D1D"/>
<path d="M36.7942 77.0518C36.8804 77.1309 36.9768 77.1997 37.0802 77.2685L37.9346 49.2381C37.8243 49.3206 37.7244 49.4066 37.6348 49.5029L36.7977 77.0518H36.7942Z" fill="#1D1D1D"/>
<path d="M36.0809 75.7795C36.1464 76.0443 36.2359 76.2781 36.3531 76.4879L37.1523 50.1253C37.0318 50.3385 36.9284 50.5655 36.8388 50.8062L36.0809 75.7795Z" fill="#1D1D1D"/>
<path d="M36.3291 55.8889L59.8144 56.9103C59.8144 56.8071 59.8144 56.7074 59.8213 56.6076L36.336 55.5829C36.336 55.6826 36.3291 55.7823 36.3291 55.8889Z" fill="#263238"/>
<path d="M36.1429 63.2172L59.642 64.242C59.642 64.1423 59.6489 64.0391 59.6523 63.9394L36.1498 62.9146C36.1498 63.0177 36.1498 63.1175 36.1429 63.2172Z" fill="#263238"/>
<path d="M35.9709 70.5524L59.3632 71.5737C59.3701 71.474 59.377 71.3743 59.377 71.2711L35.9812 70.2463C35.9812 70.3495 35.9743 70.4526 35.9709 70.5524Z" fill="#263238"/>
<path d="M175.98 80.0987C176.283 80.4529 175.88 83.1697 175.425 83.4723C174.97 83.7749 124.968 89.1121 124.513 89.0639C124.058 89.0123 124.11 86.0067 124.513 85.797C124.916 85.5872 175.98 80.0987 175.98 80.0987Z" fill="#A6A6A6"/>
<path d="M85.5558 51.9926C89.1732 51.9926 91.7949 55.3937 91.7949 58.9942C91.7949 62.5948 89.845 65.7207 85.3112 65.4731C80.9704 65.2393 80.1125 61.2158 80.1125 58.6056C80.1125 55.9955 82.2244 51.9892 85.5558 51.9892V51.9926Z" fill="#C7C7C7"/>
<path opacity="0.1" d="M80.1948 59.995C80.4911 62.4469 81.6831 65.2771 85.3073 65.4731C89.8411 65.7173 91.791 62.5913 91.791 58.9942C91.791 58.0314 91.6015 57.0788 91.257 56.2087C91.5292 57.0341 91.5016 60.5933 90.7196 60.5933C90.0099 60.5933 89.0177 58.7398 89.0177 58.7398C89.0177 58.7398 89.1521 63.5164 85.5554 64.0632C82.5788 64.5171 80.9975 62.8114 80.1948 59.995Z" fill="#1D1D1D"/>
<path d="M84.4055 54.0078C87.3408 54.0078 89.0013 56.2294 89.1598 59.3175C89.2976 62.0342 87.6922 65.1499 84.2333 64.8369C81.2326 64.5652 80.3541 61.3086 80.2507 59.6992C80.1198 57.6428 81.2085 54.0078 84.4055 54.0078Z" fill="#A6A6A6"/>
<path d="M84.3084 54.2864C87.092 54.2864 88.6527 56.3944 88.8008 59.3244C88.9317 61.9001 87.409 64.8575 84.1293 64.5584C81.2836 64.3004 80.4499 61.2089 80.35 59.6854C80.2259 57.7356 81.2733 54.2864 84.3084 54.2864Z" fill="white"/>
<path d="M82.5099 64.0116C82.9578 64.3039 83.4918 64.5034 84.1292 64.5584C87.2539 64.8404 88.7835 62.1718 88.8076 59.6889C88.1841 59.7027 85.7862 59.6751 84.3221 58.7363C84.3221 58.7363 81.5384 60.2666 80.3878 60.05C80.4946 60.9269 80.8184 62.1236 81.5212 63.0625C82.255 62.1718 83.3368 60.9303 83.7674 60.7825C84.2532 60.6174 83.1439 62.7461 82.5065 64.0047L82.5099 64.0116Z" fill="#EBEBEB"/>
<path d="M89.7 56.6799C90.2306 58.7707 90.0583 61.484 88.6424 63.1794C87.8913 64.015 86.8612 64.5928 85.7416 64.7406C84.6219 64.8954 83.4506 64.61 82.4722 63.9875C83.3817 64.7372 84.5909 65.1086 85.7726 65.002C86.9715 64.9091 88.098 64.2901 88.8973 63.4063C90.389 61.6319 90.4993 58.7535 89.7 56.6764V56.6799Z" fill="#A6A6A6"/>
<path d="M83.2826 69.9677C84.261 69.9677 84.9707 70.6933 84.9707 71.67C84.9707 72.6466 84.4436 73.4926 83.2137 73.4238C82.0389 73.3619 81.8046 72.2718 81.8046 71.5634C81.8046 70.855 82.3765 69.9677 83.2792 69.9677H83.2826Z" fill="#C7C7C7"/>
<path opacity="0.1" d="M81.8317 71.9417C81.9109 72.6054 82.2348 73.3723 83.2166 73.4273C84.4431 73.4926 84.9736 72.6466 84.9736 71.6734C84.9736 71.4121 84.922 71.1542 84.8289 70.9203C84.9013 71.1438 84.8944 72.1067 84.6842 72.1067C84.4913 72.1067 84.2226 71.6047 84.2226 71.6047C84.2226 71.6047 84.2605 72.8977 83.2855 73.0456C82.4794 73.1694 82.0522 72.7051 81.8351 71.9451L81.8317 71.9417Z" fill="#1D1D1D"/>
<path d="M83.1374 70.1569C84.0469 70.1569 84.5636 70.8 84.6119 71.6906C84.6532 72.4747 84.1571 73.3757 83.0822 73.2863C82.1521 73.2072 81.8765 72.2649 81.8455 71.8007C81.8041 71.2057 82.1417 70.1534 83.1339 70.1534L83.1374 70.1569Z" fill="#A6A6A6"/>
<path d="M83.1061 70.2394C83.9709 70.2394 84.4532 70.8481 84.5014 71.6975C84.5428 72.4437 84.0708 73.2966 83.051 73.2106C82.1656 73.135 81.9072 72.2408 81.8797 71.8007C81.8418 71.2367 82.1656 70.2394 83.1096 70.2394H83.1061Z" fill="#161616"/>
<path opacity="0.1" d="M82.5481 73.049C82.6859 73.1315 82.8547 73.19 83.051 73.2072C84.0226 73.2897 84.4945 72.516 84.5049 71.8007C84.312 71.8041 83.5678 71.7972 83.1131 71.5256C83.1131 71.5256 82.2483 71.9692 81.89 71.9073C81.9245 72.1618 82.0244 72.5057 82.2414 72.7773C82.4688 72.5194 82.8064 72.1618 82.9374 72.1171C83.0889 72.0689 82.7444 72.6845 82.5481 73.049Z" fill="#1D1D1D"/>
<path d="M12.799 48.5881C16.4164 48.5881 19.0381 51.9892 19.0381 55.5897C19.0381 59.1902 17.0882 62.3162 12.5544 62.0686C8.21354 61.8347 7.35572 57.8112 7.35572 55.2011C7.35572 52.591 9.46757 48.5847 12.799 48.5847V48.5881Z" fill="#C7C7C7"/>
<path opacity="0.1" d="M7.43795 56.5904C7.73423 59.0424 8.92622 61.8726 12.5505 62.0686C17.0842 62.3127 19.0342 59.1868 19.0342 55.5897C19.0342 54.6268 18.8447 53.6742 18.5002 52.8042C18.7724 53.6295 18.7448 57.1888 17.9628 57.1888C17.2531 57.1888 16.2609 55.3352 16.2609 55.3352C16.2609 55.3352 16.3952 60.1118 12.7985 60.6586C9.82196 61.1126 8.24066 59.4069 7.43795 56.5904Z" fill="#1D1D1D"/>
<path d="M11.6487 50.6033C14.584 50.6033 16.2445 52.8248 16.403 55.913C16.5408 58.6297 14.9354 61.7453 11.4765 61.4324C8.47577 61.1607 7.59727 57.9041 7.49392 56.2947C7.363 54.2382 8.45166 50.6033 11.6487 50.6033Z" fill="#A6A6A6"/>
<path d="M11.5516 50.8819C14.3352 50.8819 15.8959 52.9899 16.044 55.9198C16.1749 58.4956 14.6522 61.453 11.3724 61.1538C8.52676 60.8959 7.69305 57.8044 7.59314 56.2809C7.46912 54.3311 8.51643 50.8819 11.5516 50.8819Z" fill="white"/>
<path d="M9.75311 60.6071C10.201 60.8994 10.735 61.0988 11.3723 61.1538C14.497 61.4358 16.0267 58.7672 16.0508 56.2844C15.4272 56.2981 13.0294 56.2706 11.5652 55.3318C11.5652 55.3318 8.7816 56.8621 7.63093 56.6454C7.73773 57.5224 8.06156 58.7191 8.76436 59.6579C9.49817 58.7672 10.5799 57.5258 11.0106 57.3779C11.4963 57.2129 10.387 59.3415 9.74966 60.6002L9.75311 60.6071Z" fill="#EBEBEB"/>
<path d="M16.9432 53.2719C17.4737 55.3628 17.3015 58.076 15.8855 59.7714C15.1345 60.6071 14.1044 61.1848 12.9848 61.3327C11.8651 61.4874 10.6938 61.202 9.71535 60.5796C10.6249 61.3292 11.8341 61.7006 13.0158 61.594C14.2147 61.5012 15.3412 60.8822 16.1405 59.9984C17.6322 58.2239 17.7424 55.3456 16.9432 53.2685V53.2719Z" fill="#A6A6A6"/>
<path d="M14.8324 66.3913C15.8108 66.3913 16.5205 67.1169 16.5205 68.0935C16.5205 69.0702 15.9934 69.9162 14.7635 69.8474C13.5887 69.782 13.3544 68.6954 13.3544 67.9869C13.3544 67.2785 13.9263 66.3913 14.829 66.3913H14.8324Z" fill="#C7C7C7"/>
<path opacity="0.1" d="M13.3815 68.3652C13.4607 69.0289 13.7846 69.7958 14.7664 69.8508C15.9929 69.9162 16.5234 69.0702 16.5234 68.097C16.5234 67.8356 16.4718 67.5777 16.3787 67.3439C16.4511 67.5674 16.4442 68.5303 16.234 68.5303C16.0411 68.5303 15.7724 68.0282 15.7724 68.0282C15.7724 68.0282 15.8103 69.3212 14.8353 69.4691C14.0292 69.5929 13.602 69.1287 13.3849 68.3687L13.3815 68.3652Z" fill="#1D1D1D"/>
<path d="M14.6833 66.5804C15.5928 66.5804 16.1095 67.2235 16.1578 68.1142C16.1991 68.8982 15.703 69.7992 14.6281 69.7098C13.698 69.6307 13.4223 68.6885 13.3913 68.2242C13.35 67.6293 13.6876 66.577 14.6798 66.577L14.6833 66.5804Z" fill="#A6A6A6"/>
<path d="M14.656 66.663C15.5207 66.663 16.003 67.2716 16.0512 68.1211C16.0926 68.8673 15.6206 69.7201 14.6008 69.6342C13.7154 69.5585 13.4571 68.6644 13.4295 68.2242C13.3916 67.6602 13.7154 66.663 14.6594 66.663H14.656Z" fill="#161616"/>
<path opacity="0.1" d="M14.0979 69.476C14.2357 69.5585 14.4045 69.617 14.6008 69.6342C15.5724 69.7167 16.0444 68.9429 16.0547 68.2277C15.8618 68.2311 15.1176 68.2242 14.6628 67.9525C14.6628 67.9525 13.7981 68.3962 13.4398 68.3343C13.4743 68.5887 13.5742 68.9326 13.7912 69.2043C14.0186 68.9464 14.3562 68.5887 14.4871 68.544C14.6387 68.4959 14.2942 69.1114 14.0979 69.476Z" fill="#1D1D1D"/>
<path d="M153.211 46.0018C153.452 46.1222 153.752 47.6766 153.552 47.7901C153.349 47.9036 148.026 47.7763 147.761 47.5872C147.495 47.398 147.509 46.5933 147.761 46.4283C148.012 46.2632 152.883 45.8368 153.211 46.0018Z" fill="#C7C7C7"/>
<path opacity="0.1" d="M147.761 47.5874C148.029 47.7766 153.352 47.9038 153.552 47.7869C153.617 47.7491 153.631 47.553 153.607 47.302C153.597 47.3398 153.586 47.3639 153.569 47.3742C153.404 47.4636 149.142 47.3639 148.929 47.2195C148.715 47.075 148.725 46.4457 148.929 46.3219C149.094 46.2187 151.74 45.978 152.839 45.9608C151.619 45.9471 147.981 46.2841 147.764 46.4251C147.513 46.5901 147.499 47.3948 147.764 47.584L147.761 47.5874Z" fill="#1D1D1D"/>
<path d="M156.515 47.7009C156.223 47.6596 155.961 46.1431 156.161 45.9643C156.364 45.7854 160.481 45.8645 160.722 45.9643C160.963 46.064 161.214 47.2091 160.849 47.3364C160.484 47.4636 157.056 47.7766 156.515 47.7009Z" fill="#C7C7C7"/>
<path opacity="0.1" d="M156.515 47.7009C157.059 47.7766 160.484 47.4602 160.849 47.3364C161.014 47.2779 161.056 47.0097 161.025 46.7243C161.011 46.8309 160.966 46.9134 160.887 46.9375C160.601 47.0269 157.917 47.2539 157.49 47.2023C157.259 47.1713 157.052 46.0674 157.211 45.9368C157.27 45.8921 157.735 45.8714 158.306 45.8645C157.263 45.8542 156.257 45.8817 156.16 45.9677C155.957 46.1431 156.222 47.6631 156.512 47.7044L156.515 47.7009Z" fill="#1D1D1D"/>
<path opacity="0.4" d="M57.978 15.5816L59.4939 15.1758C61.4438 12.1187 64.8062 11.3827 66.894 11.3483C68.9783 11.314 114.864 11.8539 119.842 12.2528C124.82 12.6551 123.776 16.4517 123.776 16.4517C125.392 16.1147 127.159 17.7481 127.159 17.7481C127.159 17.7481 127.049 18.1505 127.025 18.2502C127.059 18.1402 127.208 17.6209 127.618 16.1422C128.599 12.607 128.351 12.7239 134.053 10.6365C139.751 8.55253 157.345 8.7176 165.083 8.81388C172.817 8.91017 174.268 8.72791 179.053 12.0017C183.838 15.2721 187.438 36.889 187.438 36.889L188.934 36.521C188.934 36.521 187.721 27.6693 184.159 17.7963C180.593 7.92321 176.555 5.70856 172.452 4.43273C168.346 3.1569 157.445 0 123.335 0C89.2252 0 72.6129 4.70097 67.9688 6.44449C63.3248 8.18801 60.9718 9.53261 59.4939 12.153C59.2079 12.6551 58.6671 13.9 57.978 15.5816Z" fill="#1D1D1D"/>
<path d="M187.483 37.1882C187.483 37.1882 185.616 25.3515 182.791 18.3018C179.966 11.2521 177.51 9.33661 168.318 8.93425C159.127 8.5319 143.82 8.58005 136.051 10.1929C128.283 11.8057 128.5 12.8959 126.632 19.6774C124.917 25.9086 122.488 35.3312 121.117 41.2323" stroke="#C7C7C7" stroke-width="2" stroke-miterlimit="10"/>
<path d="M127.893 55.827C117.712 56.3944 106.209 57.2232 94.2407 58.4406" stroke="#C7C7C7" stroke-width="2" stroke-miterlimit="10"/>
<path d="M155.646 54.7506C149.039 54.8916 139.844 55.1805 129.105 55.7617" stroke="#C7C7C7" stroke-width="2" stroke-miterlimit="10"/>
<path d="M166.695 54.6131C166.695 54.6131 162.981 54.6028 156.605 54.73" stroke="#C7C7C7" stroke-width="2" stroke-miterlimit="10"/>
<path d="M53.6058 29.1893C54.3775 26.5998 58.2946 16.9056 58.932 15.5059C59.4281 14.4193 61.4572 10.8772 66.8247 10.8772C69.7324 10.8772 116.913 11.2176 120.841 11.9329C122.057 12.153 122.963 12.7101 123.528 13.5733C124.227 14.6531 124.351 16.1628 123.89 18.0714C122.987 21.806 120.782 29.3372 120.575 30.0009L120.548 30.0903C119.318 34.272 115.456 35.1489 112.431 35.1489C112.114 35.1489 111.78 35.1386 111.442 35.1214C105.52 34.7809 78.7241 34.4061 65.0264 34.4061C62.3323 34.4061 60.279 34.4199 58.9389 34.4474C58.8734 34.4474 58.8045 34.4474 58.739 34.4474C56.6995 34.4474 55.0149 33.7562 54.1157 32.5525C53.4163 31.6172 53.2372 30.4204 53.6024 29.1824L53.6058 29.1893ZM58.9182 33.5429C67.6894 33.3538 104.432 33.8112 111.494 34.217C118.56 34.6193 119.48 30.4651 119.707 29.7327C119.935 29.0036 122.115 21.5343 123.004 17.8582C123.838 14.4055 122.47 13.1537 120.675 12.8271C116.996 12.153 71.262 11.7885 66.8213 11.7885C62.3805 11.7885 60.4306 14.4055 59.7553 15.8842C59.0835 17.363 55.2147 26.9643 54.474 29.4472C53.7333 31.9301 55.7866 33.6117 58.9147 33.5429H58.9182Z" fill="#263238"/>
<path d="M58.9184 33.543C67.6897 33.3538 104.432 33.8112 111.494 34.217C118.56 34.6193 119.48 30.4651 119.707 29.7327C119.935 29.0036 122.116 21.5343 123.004 17.8582C123.838 14.4055 122.47 13.1538 120.675 12.8271C116.996 12.153 71.2623 11.7885 66.8215 11.7885C62.3808 11.7885 60.4308 14.4055 59.7556 15.8842C59.0838 17.363 55.2149 26.9644 54.4742 29.4472C53.7335 31.9301 55.7868 33.6117 58.915 33.543H58.9184Z" fill="#37474F"/>
<path opacity="0.5" d="M56.6166 23.6458C59.2211 27.0159 63.4655 29.9115 70.3316 29.6811C84.5495 29.2031 98.4678 24.0035 113.774 12.4522C99.9044 12.0189 70.3488 11.7885 66.8244 11.7885C62.3837 11.7885 60.4338 14.4055 59.7585 15.8842C59.3692 16.7371 57.9119 20.3067 56.6131 23.6493L56.6166 23.6458Z" fill="#455A64"/>
<path d="M128.802 38.0961C129.522 38.0961 131.045 38.0514 132.971 37.9963C135.992 37.9104 140.13 37.7934 143.182 37.7934C145.391 37.7934 146.782 37.422 147.561 36.6277C148.326 35.847 148.302 34.8738 148.284 34.0932C148.284 33.9831 148.278 33.8731 148.278 33.7665C148.278 32.8242 147.806 27.5455 147.389 22.8893C147.144 20.1519 146.934 17.786 146.862 16.8093C146.569 12.7136 144.433 12.7101 143.289 12.7101H143.007C141.618 12.7101 137.157 13.1641 133.601 13.845C129.919 14.5534 129.181 16.8403 128.644 18.5116C128.606 18.6319 128.568 18.7488 128.53 18.8658C127.948 20.6058 126.201 26.1493 124.785 31.2871C124.151 33.5945 124.293 35.369 125.206 36.5623C126.225 37.8966 127.896 38.0961 128.802 38.0961Z" fill="#C7C7C7"/>
<path d="M146.262 16.8506C146.452 19.4745 147.675 32.3015 147.675 33.7631C147.675 35.2246 148.129 37.1882 143.186 37.1882C138.242 37.1882 130.673 37.4908 128.806 37.4908C126.938 37.4908 123.962 36.583 125.374 31.4452C126.787 26.3075 128.554 20.7159 129.109 19.0549C129.664 17.3939 130.139 15.1277 133.722 14.4399C137.215 13.7693 141.759 13.2982 143.086 13.3154C144.247 13.3292 145.997 13.0987 146.266 16.8506H146.262Z" fill="#37474F"/>
<path opacity="0.5" d="M130.198 16.493C135.173 21.3349 141.195 25.2037 147.23 27.9342C146.862 23.6768 146.376 18.4256 146.262 16.8506C145.994 13.0953 144.244 13.3292 143.083 13.312C141.753 13.2948 137.212 13.7659 133.719 14.4399C131.851 14.7976 130.828 15.5851 130.198 16.493Z" fill="#455A64"/>
<path d="M156.26 36.8856C157.941 36.8581 160.057 36.8065 161.921 36.7618C163.498 36.7239 164.863 36.6895 165.49 36.6827C166.106 36.6758 167.002 36.5898 167.619 35.902C168.235 35.2177 168.432 34.1345 168.26 32.3909C167.963 29.4094 167.078 21.9333 166.599 17.9132C166.482 16.9193 166.389 16.1422 166.337 15.7089C166.093 13.6077 165.679 11.9983 162.858 11.9983H153.018C152.374 11.9983 151.444 12.0774 150.817 12.7686C150.197 13.4529 150.004 14.5878 150.193 16.4413C150.493 19.3678 152.081 32.4563 152.264 33.6977L152.302 33.9625C152.588 35.933 152.86 36.8821 155.933 36.8821C156.036 36.8821 156.143 36.8821 156.253 36.8821L156.26 36.8856Z" fill="#C7C7C7"/>
<path d="M167.657 32.4529C167.288 28.7354 165.989 17.9476 165.738 15.7811C165.486 13.6146 165.083 12.607 162.861 12.607H153.022C151.206 12.607 150.5 13.4117 150.803 16.3829C151.107 19.3541 152.691 32.3841 152.87 33.6118C153.174 35.6545 153.122 36.325 156.25 36.2769C159.378 36.2253 164.122 36.0878 165.483 36.074C167.13 36.0568 167.939 35.3175 167.653 32.446L167.657 32.4529Z" fill="#37474F"/>
<path opacity="0.5" d="M150.804 16.3863C151.017 18.4806 151.865 25.5682 152.416 30.0009C158.049 31.9508 163.427 32.8414 167.664 32.5319C167.664 32.5044 167.664 32.4803 167.657 32.4528C167.289 28.7354 165.99 17.9476 165.738 15.7845C165.487 13.618 165.08 12.6104 162.862 12.6104H153.022C151.203 12.6104 150.497 13.4151 150.8 16.3863H150.804Z" fill="#455A64"/>
<path d="M173.248 36.3731C173.365 36.3731 173.489 36.3731 173.62 36.3628C174.853 36.3078 177.52 36.1187 180.104 35.933L181.64 35.8229C182.791 35.7404 183.573 35.4137 184.031 34.8188C184.689 33.959 184.469 32.8173 184.269 31.8097L184.21 31.514C183.859 29.6501 182.15 22.903 180.369 18.7626C178.419 14.2232 174.56 12.9371 171.829 12.3662C171.47 12.2906 171.133 12.2527 170.833 12.2527C170.089 12.2527 169.507 12.4797 169.097 12.9302C168.411 13.6833 168.414 14.8388 168.511 15.8705C168.587 16.6992 169.21 21.7716 169.761 26.2456C170.178 29.6364 170.571 32.8414 170.664 33.6771C170.878 35.6166 171.601 36.3731 173.244 36.3731H173.248Z" fill="#C7C7C7"/>
<path d="M171.27 33.6117C171.057 31.6687 169.252 17.2598 169.117 15.8154C168.983 14.3711 168.983 12.3903 171.708 12.9612C174.433 13.532 177.999 14.7734 179.814 19.0067C181.63 23.2366 183.311 30.0215 183.614 31.6309C183.917 33.2403 184.455 35.0217 181.595 35.2246C178.736 35.4274 175.07 35.6957 173.589 35.761C172.108 35.8298 171.481 35.534 171.267 33.6117H171.27Z" fill="#37474F"/>
<path opacity="0.5" d="M169.121 15.8154C169.235 17.0397 170.551 27.5902 171.074 31.9507C178.905 29.6604 179.208 21.7991 177.265 15.4681C175.518 13.955 173.441 13.3222 171.705 12.9612C168.98 12.3903 168.98 14.3711 169.117 15.8154H169.121Z" fill="#455A64"/>
<path d="M128.358 37.1022C128.358 37.1022 127.476 41.8272 127.139 42.0508C126.801 42.2743 125.489 42.4084 124.917 41.9029C124.345 41.4008 124.362 40.2591 124.538 39.9874C124.713 39.7192 127.06 36.7308 127.06 36.7308L128.358 37.0988V37.1022Z" fill="#263238"/>
<path opacity="0.6" d="M124.507 41.1739C124.576 41.4558 124.707 41.7206 124.917 41.9063C125.089 42.0577 125.327 42.1505 125.589 42.1986C126.178 41.1051 127.594 37.3704 127.763 36.9303L127.294 36.7961C126.888 37.2432 125.227 39.8946 124.507 41.1704V41.1739Z" fill="#37474F"/>
<path d="M128.079 31.9507H134.921C135.713 31.9507 136.354 32.5912 136.354 33.3813V36.6655C136.354 37.4556 135.713 38.096 134.921 38.096H128.079C127.288 38.096 126.646 37.4556 126.646 36.6655V33.3813C126.646 32.5912 127.288 31.9507 128.079 31.9507Z" fill="#263238"/>
<path opacity="0.6" d="M127.556 31.9989C127.615 32.8105 127.894 34.609 129.172 34.5299C130.639 34.4405 134.663 32.9515 135.745 32.1261C135.556 32.0127 135.328 31.9439 135.091 31.9439H127.911C127.79 31.9439 127.67 31.9611 127.56 31.9955L127.556 31.9989Z" fill="#37474F"/>
<path d="M107.863 3.22222C108.156 3.38385 103.288 6.85026 102.751 6.85026H86.8412C86.5725 6.85026 86.6104 6.32411 86.7 6.16248C86.7895 5.99741 87.0789 5.87361 87.0789 5.87361V1.79164C87.0789 1.79164 86.7241 1.75382 86.7137 1.65409C86.7 1.55436 86.7137 0.949114 86.8515 0.849386C86.9894 0.749658 95.454 0.605225 97.6416 0.605225C99.8293 0.605225 103.495 0.808119 107.867 3.22566L107.863 3.22222Z" fill="#161616"/>
<path opacity="0.3" d="M107.863 3.22222C108.156 3.38385 103.288 6.85026 102.751 6.85026H86.8412C86.5725 6.85026 86.6104 6.32411 86.7 6.16248C86.7895 5.99741 87.0789 5.87361 87.0789 5.87361V1.79164C87.0789 1.79164 86.7241 1.75382 86.7137 1.65409C86.7 1.55436 86.7137 0.949114 86.8515 0.849386C86.9894 0.749658 95.454 0.605225 97.6416 0.605225C99.8293 0.605225 103.495 0.808119 107.867 3.22566L107.863 3.22222Z" fill="#1D1D1D"/>
<path d="M87.0753 1.79165C87.0753 1.79165 95.6502 1.6369 97.2521 1.6369C98.8541 1.6369 100.522 1.73663 102.186 5.84267L87.0753 5.87018V1.79165Z" fill="#161616"/>
<path opacity="0.5" d="M87.0753 1.79165C87.0753 1.79165 95.6502 1.6369 97.2521 1.6369C98.8541 1.6369 100.522 1.73663 102.186 5.84267L87.0753 5.87018V1.79165Z" fill="white"/>
<path d="M87.7158 2.27655H90.496V3.0056H89.5624V5.23056H88.6494V3.0056H87.7158V2.27655Z" fill="#263238"/>
<path d="M92.4493 4.74566H91.4123L91.2676 5.23398H90.334L91.4468 2.27997H92.4458L93.5586 5.23398H92.6009L92.4527 4.74566H92.4493ZM92.2598 4.10602L91.9325 3.0434L91.6087 4.10602H92.2598Z" fill="#263238"/>
<path d="M93.6418 2.27655H94.6478L95.1715 3.18442L95.6814 2.27655H96.677L95.7571 3.70713L96.7666 5.23056H95.7399L95.1543 4.28143L94.5686 5.23056H93.5488L94.5686 3.68994L93.6418 2.27655Z" fill="#263238"/>
<path d="M97.0967 2.27655H98.0131V5.23056H97.0967V2.27655Z" fill="#263238"/>
<path d="M99.8254 33.7872C100.58 33.7872 100.48 35.7336 99.8254 35.9055C99.1709 36.0775 98.5886 35.9021 98.6403 35.2728C98.692 34.6435 99.2225 33.7872 99.8254 33.7872Z" fill="#263238"/>
<path d="M113.548 23.5874C113.548 23.5874 109.31 27.298 109.007 27.5009C108.704 27.7038 98.6406 33.7562 99.3538 34.2445C99.7568 34.5196 99.6914 34.2377 99.8912 34.2445C100.094 34.2514 109.007 27.7553 109.176 27.6212C109.345 27.4871 113.699 23.7078 113.699 23.7078L113.548 23.5908V23.5874Z" fill="#263238"/>
<path d="M118.543 18.6526C118.543 18.6526 109.283 27.8448 108.501 28.7251C107.719 29.6055 104.439 33.7872 104.439 33.7872L104.639 34.0141L118.777 18.7214L118.543 18.6526Z" fill="#263238"/>
<path d="M68.9231 33.7871C69.6776 33.7871 69.5777 35.7336 68.9231 35.9055C68.2685 36.0774 67.6863 35.9021 67.738 35.2727C67.7896 34.6434 68.3202 33.7871 68.9231 33.7871Z" fill="#263238"/>
<path d="M84.9741 32.4872C84.9741 32.4872 78.2286 31.968 77.8944 32.1124C77.5602 32.2568 68.4376 35.1283 68.4169 34.2686C68.4066 33.7803 68.6064 33.99 68.7097 33.8181C68.8131 33.6462 77.6842 31.9749 77.8875 31.9095C78.0908 31.8407 84.9603 32.2981 84.9603 32.2981L84.9775 32.4872H84.9741Z" fill="#263238"/>
<path d="M91.9507 31.8648C91.9507 31.8648 78.9075 32.5216 77.7361 32.6558C76.5648 32.7899 71.3248 33.7115 71.3248 33.7115V34.0141L92.0781 32.0746L91.9472 31.8682L91.9507 31.8648Z" fill="#263238"/>
<path d="M102.268 41.2805C101.283 42.2124 102.093 46.7724 103.051 47.302C104.008 47.8316 110.892 47.0888 111.708 46.064C112.525 45.0358 111.708 40.4414 110.716 39.8534C109.724 39.2653 102.944 40.6443 102.272 41.2839L102.268 41.2805Z" fill="#C7C7C7"/>
<path d="M110.481 39.7639C109.644 40.5652 106.868 43.1306 105.837 43.0859C104.721 43.0343 103.44 42.3844 102.117 41.4765C102.162 41.4008 102.213 41.3321 102.272 41.277C102.906 40.6787 108.941 39.42 110.481 39.7639Z" fill="#EBEBEB"/>
<path d="M106.682 44.5405C106.682 44.9601 106.341 45.3005 105.92 45.3005C105.5 45.3005 105.159 44.9601 105.159 44.5405C105.159 44.121 105.5 43.7805 105.92 43.7805C106.341 43.7805 106.682 44.121 106.682 44.5405Z" fill="#EBEBEB"/>
<path d="M103.354 49.5338H100.977C100.977 49.5338 105.235 44.3961 105.662 44.3273C106.089 44.2586 106.175 44.317 105.944 44.7882C105.789 45.1045 103.354 49.5338 103.354 49.5338Z" fill="#C7C7C7"/>
<path d="M105.941 44.7882C105.786 45.1011 103.351 49.5338 103.351 49.5338H103.085C103.085 49.5338 105.762 44.9223 105.914 44.6059C105.986 44.4512 106.003 44.3583 105.979 44.3136C106.103 44.348 106.093 44.4787 105.941 44.7882Z" fill="#A6A6A6"/>
<path d="M105.917 44.3067L102.716 49.5338H101.335L105.59 44.3617C105.617 44.3411 105.645 44.3342 105.659 44.3308C105.769 44.3101 105.855 44.3033 105.917 44.3101V44.3067Z" fill="#EBEBEB"/>
</g>
<defs>
<clipPath id="clip0_309_439">
<rect width="204.429" height="108.363" fill="white" transform="matrix(-1 0 0 1 204.43 0)"/>
</clipPath>
</defs>
</svg>
