<svg width="199" height="73" viewBox="0 0 199 73" fill="none" xmlns="http://www.w3.org/2000/svg">
<path opacity="0.3" d="M12.4425 66.7298C12.4425 70.1486 50.4725 72.9226 97.3863 72.9226C144.3 72.9226 182.33 70.1486 182.33 66.7298C182.33 63.3111 144.3 60.537 97.3863 60.537C50.4725 60.537 12.4425 63.3111 12.4425 66.7298Z" fill="#1A1A1A"/>
<path d="M5.5757 57.7979C5.5757 57.7979 23.4708 59.4053 26.9028 59.4053C30.3347 59.4053 34.5805 57.7979 38.0125 57.7979H153.473C157.885 57.7979 179.624 55.4685 185.017 54.8332C190.41 54.1883 195.97 54.1883 197.353 51.5413C198.735 48.8943 199.481 39.4324 198.657 37.1031C197.843 34.7737 196.696 35.255 195.549 31.1641C194.401 27.0733 191.626 17.5248 190.646 16.9665C189.665 16.4083 179.536 15.7634 169.397 12.2308C159.258 8.69825 146.776 2.45131 128.224 0.766846C109.671 -0.917615 93.0118 0.0449345 79.441 4.93468C65.8701 9.82443 47.6513 20.2585 42.5917 21.298C37.5222 22.3376 21.2646 24.7439 12.518 29.162C3.77148 33.5801 2.31045 37.0164 1.24164 41.6752C0.182642 46.3243 0.565059 51.5605 0.31992 52.2825C0.0747807 53.0044 -0.042886 53.7263 0.31992 54.4482C0.682725 55.1701 2.0457 57.4898 5.56589 57.7979H5.5757Z" fill="#313232"/>
<path d="M1.24262 41.6747C0.183618 46.3238 0.566035 51.5601 0.320896 52.282C0.0757573 53.0039 -0.0419094 53.7258 0.320896 54.4477C0.683702 55.1696 2.04667 57.4894 5.56687 57.7974C5.56687 57.7974 23.462 59.4048 26.894 59.4048C30.3259 59.4048 34.5717 57.7974 38.0037 57.7974H153.464C157.877 57.7974 179.615 55.468 185.009 54.8327C190.402 54.1878 195.961 54.1878 197.344 51.5408C198.727 48.8938 199.472 39.4319 198.648 37.1026C197.834 34.7732 196.687 35.2545 195.54 31.1636C195.295 30.307 194.981 29.2 194.638 27.9969L1.96823 39.0758C1.68387 39.9036 1.45834 40.7603 1.25242 41.6651L1.24262 41.6747Z" fill="#202020"/>
<path d="M156.387 20.9895C155.906 20.2194 155.406 19.5072 154.886 18.7467C153.945 17.3896 152.965 15.9746 151.984 14.088L151.543 14.3094C152.543 16.2249 153.524 17.6494 154.475 19.0259C154.994 19.7767 155.485 20.489 155.955 21.2494C157.377 23.5306 157.661 25.8119 156.75 27.5059C156.161 28.6032 150.915 34.2342 145.846 39.6726C142.149 43.6479 138.658 47.3922 136.982 49.3558C133.236 53.7739 129.765 54.1397 126.813 54.1397H107.634C107.634 52.5707 107.575 43.2917 107.634 32.7807C107.692 21.3938 109.006 18.1692 109.026 18.1307L108.575 17.9478C108.516 18.073 107.202 21.2494 107.143 32.7807C107.084 43.2821 107.143 52.5515 107.143 54.1397H60.4492C57.6154 54.1397 57.3604 53.514 57.0565 52.7825C56.8407 52.2434 56.0465 49.6061 55.1738 38.3539C54.3893 28.3049 55.821 23.5114 55.8406 23.4632L55.9386 23.1552H55.6052C55.6052 23.1552 54.5756 23.1552 52.4282 23.6461C50.4377 24.0889 47.6725 24.4932 44.6917 24.8493C45.4663 23.7713 47.0646 21.5381 47.2607 20.951C47.3097 20.8066 47.2901 20.6622 47.2019 20.5275C47.0646 20.3157 46.7214 20.1328 46.3096 19.9884C46.0742 20.0847 45.8389 20.1809 45.6134 20.2772C46.3096 20.4601 46.7704 20.6622 46.79 20.797C46.6135 21.3264 44.8387 23.8098 44.0249 24.9263C41.8873 25.1766 39.6712 25.4172 37.5532 25.6386C33.5329 26.0621 30.0618 26.4279 28.64 26.7744C26.9534 27.1787 22.4428 28.6514 18.4618 29.9604C14.7357 31.1829 11.2155 32.3283 10.6468 32.4053C10.0584 32.4823 9.1269 32.001 8.37187 31.5198C8.22479 31.616 8.08751 31.7219 7.94043 31.8182C8.74449 32.3476 9.90154 32.9828 10.7154 32.877C11.3332 32.8 14.7063 31.693 18.6285 30.4128C22.5997 29.1134 27.1005 27.6407 28.7674 27.2461C30.1598 26.9092 33.6114 26.5434 37.612 26.1199C39.7791 25.8889 42.0736 25.6482 44.27 25.3883L44.2896 25.4076C44.2896 25.4076 44.2994 25.3883 44.3092 25.3883C47.4764 25.0129 50.4377 24.599 52.5459 24.1178C53.9481 23.8001 54.8502 23.6942 55.2915 23.6654C54.9777 24.9071 54.0167 29.6236 54.6933 38.402C55.5464 49.4136 56.321 52.2627 56.6152 52.975C57.0172 53.976 57.5075 54.6306 60.459 54.6306H126.833C129.049 54.6306 133.167 54.6306 137.374 49.6734C139.031 47.7195 142.522 43.9752 146.218 39.9998C151.307 34.5326 156.573 28.8824 157.201 27.7273C158.201 25.8792 157.907 23.4247 156.397 20.9895H156.387Z" fill="#999999"/>
<path d="M159.259 36.3326C149.444 36.3326 141.491 44.1389 141.491 53.7836C141.491 55.1697 141.668 56.5076 141.981 57.7974H153.483C156.602 57.7974 168.378 56.6328 176.919 55.728C176.987 55.0927 177.036 54.4478 177.036 53.7836C177.036 44.1485 169.084 36.3326 159.269 36.3326H159.259Z" fill="#616161"/>
<path d="M38.0138 57.7974H51.1925C51.5063 56.5076 51.6828 55.1697 51.6828 53.7836C51.6828 44.1485 43.7207 36.3326 33.9151 36.3326C24.1096 36.3326 16.1475 44.1389 16.1475 53.7836C16.1475 55.5066 16.4122 57.1718 16.8927 58.7504C21.1973 59.0969 25.4235 59.3953 26.914 59.3953C30.3459 59.3953 34.5917 57.7878 38.0237 57.7878L38.0138 57.7974Z" fill="#616161"/>
<path d="M33.9164 69.1844C42.5812 69.1844 49.6053 62.2892 49.6053 53.7836C49.6053 45.278 42.5812 38.3828 33.9164 38.3828C25.2517 38.3828 18.2275 45.278 18.2275 53.7836C18.2275 62.2892 25.2517 69.1844 33.9164 69.1844Z" fill="#404040"/>
<path d="M44.6313 53.7835C44.6313 59.5973 39.8266 64.3042 33.9138 64.3042C28.0011 64.3042 23.1865 59.5877 23.1865 53.7835C23.1865 47.9794 27.9912 43.2629 33.9138 43.2629C39.8364 43.2629 44.6313 47.9697 44.6313 53.7835Z" fill="#C1C2C3"/>
<path d="M159.258 69.1844C167.923 69.1844 174.947 62.2892 174.947 53.7836C174.947 45.278 167.923 38.3828 159.258 38.3828C150.593 38.3828 143.569 45.278 143.569 53.7836C143.569 62.2892 150.593 69.1844 159.258 69.1844Z" fill="#404040"/>
<path d="M159.259 64.3042C165.179 64.3042 169.977 59.5939 169.977 53.7835C169.977 47.9731 165.179 43.2629 159.259 43.2629C153.34 43.2629 148.542 47.9731 148.542 53.7835C148.542 59.5939 153.34 64.3042 159.259 64.3042Z" fill="#C1C2C3"/>
<path d="M108.555 2.40273C103.711 2.61449 98.0727 2.46048 89.2477 4.32782C80.4227 6.19517 65.9007 13.7704 60.0173 17.38C54.134 20.9895 49.0449 24.5991 49.0449 24.5991C49.0449 24.5991 81.0306 22.0772 98.0139 20.7489C114.997 19.4206 142.443 17.6784 145.757 17.3222C149.071 16.9661 161.691 13.472 161.446 12.8079C161.201 12.1437 139.501 1.08403 108.555 2.40273Z" fill="#5B5B5B"/>
<path d="M104.162 19.3243C104.77 19.2762 104.721 19.074 104.878 18.4965C105.035 17.9286 106.692 5.25183 106.79 4.69355C106.888 4.13527 106.859 3.43261 106.408 3.44224C106.31 3.44224 106.212 3.44224 106.113 3.44224C101.721 3.57699 96.7393 3.72138 89.4538 5.26145C80.5013 7.15768 65.842 14.9351 60.5372 18.1885C59.3802 18.8911 58.2624 19.6034 57.1935 20.2868C55.4187 21.4226 55.8306 23.0879 57.929 22.9242C68.6758 22.0772 86.6298 20.6622 97.9258 19.7767C99.8771 19.6227 101.976 19.4687 104.152 19.305L104.162 19.3243Z" fill="#6D6D6D"/>
<path d="M28.6985 27.0151C23.1877 27.7948 15.9512 29.7199 11.725 31.4621C7.49885 33.2043 4.49835 36.5155 4.74349 37.7764C4.98863 39.0374 11.6662 37.7187 16.4513 35.5529C21.2364 33.3872 29.3064 26.9285 28.7083 27.0055L28.6985 27.0151Z" fill="#E0E0E0"/>
<path d="M149.06 13.4527C149.06 12.1918 146.786 7.98545 143.275 6.96515C135.46 4.95342 125.38 3.25934 113.692 3.25934C113.555 3.25934 113.417 3.25934 113.28 3.25934C112.898 3.26896 112.701 3.67323 112.682 3.99088C112.662 4.30852 112.329 16.8794 112.358 17.7746C112.388 18.6794 113.457 18.6505 113.457 18.6505C118.457 18.2943 123.507 17.9478 128.028 17.6398C136.99 17.0238 144.079 16.5329 145.648 16.3693C145.962 16.3308 146.344 16.273 146.786 16.196C148.855 15.7436 149.07 14.7233 149.07 13.4527H149.06Z" fill="#6D6D6D"/>
<path d="M195.56 31.1637C195.011 29.2193 194.099 26.0333 193.187 23.1745C192.667 22.6547 191.706 22.0002 190.049 21.8654C187.186 21.6248 174.811 21.7018 174.645 21.8654C174.478 22.0291 174.605 23.2708 176.527 24.1563C178.351 24.9937 191.275 29.4985 195.687 31.5776C195.648 31.4428 195.609 31.3177 195.57 31.1829L195.56 31.1637Z" fill="#E0E0E0"/>
<path d="M3.38009 52.6381C4.998 52.6381 6.63553 51.5408 7.03756 50.1066L7.85142 47.1805C8.3515 45.4383 7.18464 43.9174 5.23334 43.9174H0.840446C0.291335 47.8735 0.526668 51.6756 0.320752 52.282C0.28153 52.3975 0.252113 52.5226 0.212891 52.6478H3.37028L3.38009 52.6381Z" fill="#4F4F4F"/>
<path d="M102.181 26.014C102.289 26.938 100.779 27.8813 98.7982 28.1123C96.8175 28.3433 95.1211 27.7754 95.0035 26.8514C94.8956 25.9273 96.4057 24.984 98.3864 24.753C100.367 24.522 102.063 25.0899 102.181 26.014Z" fill="#878787"/>
<path d="M103.358 25.8792C103.417 26.3508 101.329 26.9861 98.691 27.2941C96.0631 27.6022 93.8765 27.4674 93.8176 26.9958C93.7588 26.5241 95.8474 25.8888 98.4851 25.5808C101.123 25.2728 103.3 25.4075 103.358 25.8792Z" fill="#CCCCCC"/>
<path d="M150.778 23.6078C150.886 24.5318 149.376 25.4751 147.395 25.7061C145.414 25.9371 143.718 25.3692 143.6 24.4452C143.482 23.5211 145.002 22.5778 146.983 22.3468C148.964 22.1158 150.66 22.6837 150.778 23.6078Z" fill="#878787"/>
<path d="M151.955 23.473C152.014 23.9446 149.925 24.5799 147.288 24.8879C144.66 25.1959 142.473 25.0612 142.414 24.5895C142.355 24.1179 144.444 23.4826 147.082 23.1746C149.719 22.8666 151.896 23.0013 151.955 23.473Z" fill="#CCCCCC"/>
</svg>
