<svg width="184" height="145" viewBox="0 0 184 145" fill="none" xmlns="http://www.w3.org/2000/svg">
<g clip-path="url(#clip0_464_4744)">
<path d="M126.715 9.93486C123.832 5.90028 119.672 0 119.672 0H87.3398C87.3398 0 83.168 5.88862 80.2969 9.93486H126.727H126.715Z" fill="#F8FAFB"/>
<path d="M206.062 48.4499C205.172 46.4676 203.086 45.2782 200.906 45.5348L189.785 46.7941C185.437 47.2839 183.621 50.339 183.621 50.339L187.652 57.1138L189.785 59.0611C193.992 59.306 199.523 59.1544 203.578 57.2537C208.008 55.1781 207.328 51.2718 206.074 48.4499H206.062Z" fill="#515151"/>
<path d="M189.27 125.515H166.453V140.919C166.453 143.169 168.293 144.988 170.543 144.988H193.242C195.504 144.988 197.332 143.158 197.332 140.919V117.481C197.332 121.912 193.723 125.503 189.258 125.503L189.27 125.515Z" fill="#444444"/>
<path d="M142.219 110.123H64.7812C62.918 110.123 61.4062 111.627 61.4062 113.481V115.662C61.4062 117.516 62.918 119.02 64.7812 119.02H142.219C144.082 119.02 145.594 117.516 145.594 115.662V113.481C145.594 111.627 144.082 110.123 142.219 110.123Z" fill="#4B4B4B"/>
<path d="M147.012 91.5826V91.6293L146.286 93.8098L145.582 95.9904L145.348 96.7366C145.196 97.238 145.008 97.7161 144.762 98.1942C144.481 98.8355 144.129 99.4302 143.743 99.99C143.192 100.806 142.536 101.541 141.809 102.17C139.594 104.141 136.7 105.296 133.582 105.296H73.3715C70.266 105.296 67.3597 104.141 65.1449 102.17C64.4183 101.529 63.7621 100.795 63.2113 99.99C62.8246 99.4302 62.473 98.8355 62.1918 98.1942C61.9574 97.7278 61.7699 97.238 61.6058 96.7366L61.3715 95.9904L60.6683 93.8098L59.9652 91.6293V91.5826C59.4027 89.8452 60.6918 88.0844 62.5199 88.0844H144.422C146.262 88.0844 147.539 89.8452 147 91.5826H147.012Z" fill="#4B4B4B"/>
<path d="M178.805 57.452L155.344 16.9429C154.746 15.9284 153.645 15.2871 152.461 15.2871H54.5391C53.3438 15.2871 52.2539 15.9284 51.6563 16.9429L28.1953 57.452H178.816H178.805Z" fill="#929292"/>
<path d="M178.805 57.452L155.344 16.9429C154.746 15.9284 153.645 15.2871 152.461 15.2871H54.5391C53.3438 15.2871 52.2539 15.9284 51.6563 16.9429L28.1953 57.452H178.816H178.805Z" stroke="#434343" stroke-miterlimit="10"/>
<path d="M183.609 50.339L163.887 17.1178C161.25 12.6634 156.434 9.93486 151.242 9.93486H55.7578C50.5664 9.93486 45.75 12.6634 43.1133 17.1178L23.3906 50.339L19.3594 57.1138L17.2266 59.0611L15.3867 60.7169C11.7305 64.0402 9.64453 68.7394 9.64453 73.6602V117.493C9.64453 121.924 13.2539 125.515 17.7188 125.515H189.27C193.746 125.515 197.344 121.924 197.344 117.493V73.6602C197.344 68.7394 195.258 64.0402 191.602 60.7169L189.762 59.0611L187.629 57.1138L183.598 50.339H183.609ZM51.6445 16.9429C52.2422 15.9284 53.3438 15.2871 54.5273 15.2871H152.461C153.656 15.2871 154.746 15.9284 155.344 16.9429L178.805 57.452H28.1953L51.6445 16.9429ZM35.5898 119.043C32.8594 119.043 30.668 116.863 30.668 114.146C30.668 111.429 32.8594 109.225 35.5898 109.225C38.3203 109.225 40.5352 111.429 40.5352 114.146C40.5352 116.863 38.3203 119.043 35.5898 119.043ZM28.793 103.022C24.6211 102.963 21.0469 100.037 20.168 95.967L18.5625 88.5975C17.6836 84.5746 21.3281 81.0064 25.3594 81.9626L48.4219 87.4081C50.168 87.8162 51.5391 89.1689 51.9961 90.9063L55.2422 103.488L28.793 103.022ZM145.582 115.662C145.582 117.516 144.07 119.02 142.207 119.02H64.7812C62.918 119.02 61.4063 117.516 61.4063 115.662V113.481C61.4063 111.627 62.918 110.123 64.7812 110.123H142.219C144.082 110.123 145.594 111.627 145.594 113.481V115.662H145.582ZM147.012 91.571L145.348 96.7366C143.719 101.844 138.961 105.296 133.594 105.296H73.3828C68.0156 105.296 63.2578 101.844 61.6289 96.7366L59.9648 91.571C59.4141 89.8335 60.7031 88.0728 62.543 88.0728H144.445C146.285 88.0728 147.562 89.8335 147.023 91.571H147.012ZM171.398 119.032C168.668 119.032 166.453 116.851 166.453 114.134C166.453 111.417 168.668 109.214 171.398 109.214C174.129 109.214 176.32 111.417 176.32 114.134C176.32 116.851 174.129 119.032 171.398 119.032ZM188.426 88.5858L186.82 95.9554C185.941 100.025 182.367 102.952 178.195 103.01L151.746 103.476L154.992 90.8946C155.449 89.1572 156.832 87.8046 158.566 87.3965L181.629 81.9509C185.66 80.9948 189.305 84.5629 188.426 88.5858Z" fill="#727272"/>
<path d="M23.3915 50.339C23.3915 50.339 21.5751 47.2839 17.2274 46.7941L6.10631 45.5348C3.92662 45.2899 1.84068 46.4676 0.950056 48.4499C-0.30385 51.2718 -0.983538 55.1781 3.44615 57.2537C7.48912 59.1544 13.0321 59.3177 17.2391 59.0611L19.3719 57.1138L23.4032 50.339H23.3915Z" fill="#515151"/>
<path d="M9.64453 117.493V140.93C9.64453 143.181 11.4844 145 13.7344 145H36.4336C38.6953 145 40.5234 143.169 40.5234 140.93V125.527H17.7305C13.2539 125.527 9.65625 121.935 9.65625 117.504L9.64453 117.493Z" fill="#444444"/>
<path d="M171.398 109.225C168.668 109.225 166.453 111.429 166.453 114.146C166.453 116.863 168.668 119.043 171.398 119.043C174.129 119.043 176.32 116.863 176.32 114.146C176.32 111.429 174.129 109.225 171.398 109.225Z" fill="#929292" stroke="#515151" stroke-miterlimit="10"/>
<path d="M181.629 81.9626L158.566 87.4081C156.82 87.8162 155.449 89.1689 154.992 90.9063L151.746 103.488L178.195 103.022C182.367 102.963 185.941 100.037 186.82 95.967L188.426 88.5975C189.305 84.5746 185.66 81.0064 181.629 81.9626Z" fill="#929292" stroke="#515151" stroke-miterlimit="10"/>
<path d="M35.9219 109C33.1914 109 31 111.204 31 113.921C31 116.638 33.1914 118.818 35.9219 118.818C38.6523 118.818 40.8672 116.638 40.8672 113.921C40.8672 111.204 38.6523 109 35.9219 109Z" fill="#929292" stroke="#515151" stroke-miterlimit="10"/>
<path d="M47.9915 87.4081L24.929 81.9626C20.8978 81.0064 17.2532 84.5746 18.1321 88.5975L19.7376 95.967C20.6165 100.037 24.1907 102.963 28.3626 103.022L54.8118 103.488L51.5657 90.9063C51.1087 89.1689 49.7259 87.8162 47.9915 87.4081Z" fill="#929292" stroke="#515151" stroke-miterlimit="10"/>
<path d="M147 91.6293L146.297 93.8098H60.6914L59.9883 91.6293H147Z" fill="#727272"/>
<path d="M145.582 96.002L145.348 96.7483C145.195 97.2497 145.008 97.7278 144.762 98.2059H62.2148C61.9805 97.7394 61.793 97.2497 61.6289 96.7483L61.3945 96.002H145.582Z" fill="#727272"/>
<path d="M143.754 99.99C143.203 100.806 142.547 101.541 141.82 102.171H65.168C64.4414 101.529 63.7852 100.795 63.2344 99.99H143.754Z" fill="#727272"/>
<path d="M123 108.036H84.0117V121.667H123V108.036Z" fill="#EFEADC" stroke="#515151" stroke-miterlimit="10"/>
</g>
<defs>
<clipPath id="clip0_464_4744">
<rect width="207" height="145" fill="white"/>
</clipPath>
</defs>
</svg>
