<svg width="82" height="82" viewBox="0 0 82 82" fill="none" xmlns="http://www.w3.org/2000/svg">
<rect width="82" height="82" rx="41" fill="#00FF00"/>
<path d="M55.792 33.0312C55.792 33.4023 55.792 33.6992 55.792 34.0703C55.792 44.3867 47.999 56.1875 33.6748 56.1875C29.2217 56.1875 25.1396 54.9258 21.7256 52.6992C22.3193 52.7734 22.9131 52.8477 23.581 52.8477C27.2178 52.8477 30.5576 51.5859 33.2295 49.5078C29.8154 49.4336 26.9209 47.207 25.956 44.0898C26.4756 44.1641 26.9209 44.2383 27.4404 44.2383C28.1084 44.2383 28.8506 44.0898 29.4443 43.9414C25.8818 43.1992 23.2099 40.082 23.2099 36.2969V36.2227C24.249 36.8164 25.5107 37.1133 26.7724 37.1875C24.6201 35.7773 23.2842 33.4023 23.2842 30.7305C23.2842 29.2461 23.6553 27.9102 24.3232 26.7969C28.1826 31.4727 33.9717 34.5898 40.4287 34.9609C40.2803 34.3672 40.206 33.7734 40.206 33.1797C40.206 28.875 43.6943 25.3867 47.999 25.3867C50.2256 25.3867 52.2295 26.2773 53.7138 27.8359C55.4209 27.4648 57.1279 26.7969 58.6123 25.9062C58.0185 27.7617 56.831 29.2461 55.1982 30.2109C56.7568 30.0625 58.3154 29.6172 59.6513 29.0234C58.6123 30.582 57.2763 31.918 55.792 33.0312Z" fill="#434343"/>
</svg>
