<svg width="82" height="82" viewBox="0 0 82 82" fill="none" xmlns="http://www.w3.org/2000/svg">
<rect width="82" height="82" rx="41" fill="#00FF00"/>
<path d="M60.5013 31.0273C61.392 34.1445 61.392 40.8242 61.392 40.8242C61.392 40.8242 61.392 47.4297 60.5013 50.6211C60.056 52.4023 58.6459 53.7383 56.9388 54.1836C53.7474 55 41.1303 55 41.1303 55C41.1303 55 28.4388 55 25.2474 54.1836C23.5404 53.7383 22.1303 52.4023 21.6849 50.6211C20.7943 47.4297 20.7943 40.8242 20.7943 40.8242C20.7943 40.8242 20.7943 34.1445 21.6849 31.0273C22.1303 29.2461 23.5404 27.8359 25.2474 27.3906C28.4388 26.5 41.1303 26.5 41.1303 26.5C41.1303 26.5 53.7474 26.5 56.9388 27.3906C58.6459 27.8359 60.056 29.2461 60.5013 31.0273ZM36.974 46.8359L47.5131 40.8242L36.974 34.8125V46.8359Z" fill="#434343"/>
</svg>
